G04 (created by PCBNEW (2013-07-07 BZR 4022)-stable) date 31-01-2015 18:12:54*
%MOIN*%
G04 Gerber Fmt 3.4, Leading zero omitted, Abs format*
%FSLAX34Y34*%
G01*
G70*
G90*
G04 APERTURE LIST*
%ADD10C,0.00590551*%
%ADD11C,0.0748031*%
%ADD12C,0.0787402*%
%ADD13C,0.0984252*%
%ADD14C,0.0826772*%
%ADD15C,0.125984*%
%ADD16C,0.11811*%
%ADD17R,0.07X0.07*%
%ADD18C,0.07*%
%ADD19C,0.0590551*%
%ADD20R,0.1X0.05*%
%ADD21O,0.0866142X0.0629921*%
%ADD22R,0.055X0.035*%
%ADD23R,0.0358268X0.0480315*%
%ADD24R,0.08X0.06*%
%ADD25R,0.0492126X0.0787402*%
%ADD26C,0.177165*%
%ADD27R,0.035X0.055*%
%ADD28R,0.229921X0.155118*%
%ADD29R,0.06X0.08*%
%ADD30C,0.15748*%
%ADD31R,0.0787402X0.149606*%
%ADD32C,0.0866142*%
%ADD33R,0.0315X0.0394*%
%ADD34C,0.0708661*%
%ADD35C,0.110236*%
%ADD36R,0.0413386X0.023622*%
%ADD37R,0.05X0.025*%
%ADD38R,0.025X0.05*%
%ADD39R,0.0748031X0.0255906*%
%ADD40C,0.0629921*%
%ADD41C,0.0649606*%
%ADD42C,0.035*%
%ADD43C,0.011811*%
%ADD44C,0.0393701*%
%ADD45C,0.019685*%
%ADD46C,0.11811*%
%ADD47C,0.137795*%
%ADD48C,0.0787402*%
%ADD49C,0.0984252*%
%ADD50C,0.0314961*%
%ADD51C,0.19685*%
%ADD52C,0.01*%
%ADD53C,0.0590551*%
G04 APERTURE END LIST*
G54D10*
G54D11*
X56078Y-25006D03*
X57078Y-25006D03*
X60078Y-25006D03*
X62078Y-25006D03*
X56183Y-28506D03*
X57183Y-28506D03*
X60183Y-28506D03*
X62183Y-28506D03*
G54D12*
X26260Y-37716D03*
X25260Y-37716D03*
X29010Y-37720D03*
X28010Y-37720D03*
X31433Y-37716D03*
X30433Y-37716D03*
G54D13*
X130740Y-43354D03*
X135661Y-43354D03*
X135661Y-50244D03*
X130740Y-50244D03*
X143047Y-50232D03*
X143047Y-44326D03*
G54D14*
X25115Y-26505D03*
X24115Y-26505D03*
G54D15*
X25736Y-24153D03*
X25736Y-18248D03*
X25736Y-16279D03*
X25736Y-14311D03*
X28688Y-14311D03*
X28688Y-16279D03*
X28688Y-18248D03*
X28688Y-24153D03*
G54D12*
X33920Y-37710D03*
X32920Y-37710D03*
G54D11*
X32216Y-14350D03*
X33216Y-14350D03*
X34216Y-14350D03*
X56242Y-63580D03*
X54242Y-63580D03*
X55242Y-63580D03*
X44259Y-63523D03*
X42259Y-63523D03*
X43259Y-63523D03*
G54D12*
X31057Y-51730D03*
X25152Y-51730D03*
G54D16*
X136350Y-17200D03*
X133350Y-17200D03*
X128470Y-17220D03*
X125470Y-17220D03*
X121120Y-17325D03*
X118120Y-17325D03*
X113385Y-17150D03*
X110385Y-17150D03*
X92074Y-25047D03*
X95074Y-25047D03*
X98011Y-24515D03*
X101011Y-24515D03*
X71118Y-31267D03*
X71118Y-33267D03*
X71118Y-35267D03*
X71118Y-37267D03*
X71118Y-43267D03*
X71118Y-45267D03*
X87118Y-47267D03*
X87118Y-45267D03*
X87118Y-37267D03*
X87118Y-35267D03*
X87118Y-33267D03*
X87118Y-31267D03*
X108112Y-62912D03*
X108112Y-56927D03*
G54D17*
X150844Y-35556D03*
G54D18*
X150844Y-27556D03*
G54D19*
X150082Y-54956D03*
X150082Y-58956D03*
X152519Y-58948D03*
X152519Y-62948D03*
G54D12*
X22590Y-19740D03*
X21590Y-19740D03*
X15884Y-53210D03*
X15884Y-52210D03*
G54D20*
X35444Y-16860D03*
X35444Y-18060D03*
X34078Y-16876D03*
X34078Y-18076D03*
G54D21*
X15268Y-42214D03*
X15268Y-43214D03*
X15268Y-44214D03*
X15268Y-45214D03*
G54D22*
X31665Y-17504D03*
X31665Y-16754D03*
X32700Y-16786D03*
X32700Y-17536D03*
G54D23*
X33498Y-15900D03*
X32211Y-15904D03*
G54D16*
X15314Y-21763D03*
X15314Y-25763D03*
X15303Y-28480D03*
X15303Y-32480D03*
X15291Y-14633D03*
X15291Y-18633D03*
G54D24*
X22410Y-25210D03*
X22410Y-26510D03*
X22410Y-22820D03*
X22410Y-24120D03*
X23820Y-24120D03*
X23820Y-22820D03*
G54D25*
X27940Y-22661D03*
X26464Y-22657D03*
G54D26*
X17857Y-62298D03*
X17955Y-55294D03*
G54D27*
X93776Y-30377D03*
X93026Y-30377D03*
G54D16*
X156771Y-62948D03*
X156771Y-58948D03*
X156771Y-54948D03*
G54D13*
X145960Y-57732D03*
X146984Y-61551D03*
X143240Y-57047D03*
X143240Y-62952D03*
X130748Y-52799D03*
X135669Y-52799D03*
X135669Y-59688D03*
X130748Y-59688D03*
G54D28*
X122367Y-53508D03*
X122364Y-57107D03*
G54D16*
X128618Y-30023D03*
X128618Y-36023D03*
X128622Y-38023D03*
X128622Y-40023D03*
X131614Y-36023D03*
X131614Y-30023D03*
X131614Y-40023D03*
X131614Y-38023D03*
G54D18*
X125196Y-35090D03*
X125196Y-41090D03*
X134744Y-34992D03*
X134744Y-40992D03*
G54D16*
X137285Y-25160D03*
X137285Y-33160D03*
X147285Y-33160D03*
X147285Y-25160D03*
G54D25*
X129378Y-27901D03*
X130854Y-27905D03*
G54D16*
X131174Y-14564D03*
X133320Y-14564D03*
X135465Y-14564D03*
X123584Y-14570D03*
X125730Y-14570D03*
X127875Y-14570D03*
X108804Y-14600D03*
X110950Y-14600D03*
X113095Y-14600D03*
X116254Y-14600D03*
X118400Y-14600D03*
X120545Y-14600D03*
G54D24*
X115675Y-18850D03*
X115675Y-17550D03*
G54D29*
X106436Y-18307D03*
X107736Y-18307D03*
X130090Y-18945D03*
X131390Y-18945D03*
X122890Y-22240D03*
X124190Y-22240D03*
G54D22*
X131410Y-20845D03*
X131410Y-20095D03*
X127690Y-18745D03*
X127690Y-19495D03*
X114790Y-21357D03*
X114790Y-20607D03*
X107874Y-20060D03*
X107874Y-19310D03*
G54D13*
X118110Y-25984D03*
X124015Y-25984D03*
X101598Y-52232D03*
X101598Y-46326D03*
X115551Y-25984D03*
X109645Y-25984D03*
G54D22*
X35250Y-30705D03*
X35250Y-31455D03*
G54D30*
X112870Y-46948D03*
X108933Y-46948D03*
G54D31*
X117913Y-37204D03*
X120275Y-37204D03*
G54D32*
X120275Y-42051D03*
X120275Y-39051D03*
G54D11*
X97425Y-62200D03*
X96425Y-62200D03*
X95425Y-62200D03*
X91877Y-62287D03*
X90877Y-62287D03*
X89877Y-62287D03*
G54D27*
X100839Y-37224D03*
X100089Y-37224D03*
X94768Y-36259D03*
X94018Y-36259D03*
X94749Y-37208D03*
X93999Y-37208D03*
X100863Y-36204D03*
X100113Y-36204D03*
X93776Y-31318D03*
X93026Y-31318D03*
X99859Y-31303D03*
X99109Y-31303D03*
X99859Y-30291D03*
X99109Y-30291D03*
X95430Y-31318D03*
X94680Y-31318D03*
X101587Y-31271D03*
X100837Y-31271D03*
G54D29*
X93787Y-29165D03*
X92487Y-29165D03*
X93787Y-27976D03*
X92487Y-27976D03*
X99838Y-27736D03*
X98538Y-27736D03*
X99838Y-29059D03*
X98538Y-29059D03*
G54D23*
X94662Y-30331D03*
X95949Y-30327D03*
X100804Y-30296D03*
X102091Y-30292D03*
G54D12*
X93287Y-39527D03*
X93287Y-40527D03*
X93287Y-41527D03*
X38345Y-19985D03*
X37345Y-19985D03*
X36345Y-19985D03*
G54D22*
X107098Y-33821D03*
X107098Y-34571D03*
X105968Y-32290D03*
X105968Y-33040D03*
G54D27*
X108999Y-32728D03*
X109749Y-32728D03*
X110735Y-33586D03*
X111485Y-33586D03*
X110034Y-31795D03*
X110784Y-31795D03*
X111995Y-31885D03*
X112745Y-31885D03*
G54D22*
X105968Y-33790D03*
X105968Y-34540D03*
G54D27*
X110774Y-32685D03*
X111524Y-32685D03*
X108459Y-31874D03*
X109209Y-31874D03*
X105865Y-35708D03*
X106615Y-35708D03*
G54D33*
X104259Y-32220D03*
X103884Y-33086D03*
X104634Y-33086D03*
G54D27*
X107782Y-35421D03*
X108532Y-35421D03*
X103506Y-33972D03*
X104256Y-33972D03*
X56361Y-27566D03*
X57111Y-27566D03*
G54D22*
X39522Y-36299D03*
X39522Y-35549D03*
X41265Y-35878D03*
X41265Y-36628D03*
G54D27*
X47355Y-28080D03*
X46605Y-28080D03*
X41285Y-27760D03*
X42035Y-27760D03*
X56321Y-29574D03*
X57071Y-29574D03*
X43213Y-23905D03*
X42463Y-23905D03*
G54D22*
X35265Y-46725D03*
X35265Y-45975D03*
X36585Y-46740D03*
X36585Y-45990D03*
X37440Y-44965D03*
X37440Y-45715D03*
G54D27*
X42309Y-39537D03*
X43059Y-39537D03*
G54D22*
X40650Y-44965D03*
X40650Y-45715D03*
X50657Y-34469D03*
X50657Y-35219D03*
X42944Y-34561D03*
X42944Y-35311D03*
G54D27*
X56321Y-26070D03*
X57071Y-26070D03*
X41475Y-34020D03*
X40725Y-34020D03*
G54D22*
X47649Y-44845D03*
X47649Y-45595D03*
G54D27*
X45395Y-30770D03*
X46145Y-30770D03*
G54D22*
X46790Y-30035D03*
X46790Y-29285D03*
G54D12*
X62129Y-37396D03*
X59177Y-37396D03*
X56945Y-17156D03*
X56945Y-14203D03*
X50644Y-17206D03*
X50644Y-14253D03*
G54D27*
X149652Y-47141D03*
X150402Y-47141D03*
G54D12*
X53460Y-55356D03*
X53460Y-49451D03*
X58120Y-33511D03*
X64026Y-33511D03*
X57024Y-55268D03*
X57024Y-49363D03*
X41900Y-53947D03*
X41900Y-59852D03*
X30980Y-48356D03*
X25075Y-48356D03*
X58400Y-41596D03*
X64306Y-41596D03*
X20020Y-25603D03*
X20020Y-31508D03*
X70763Y-58410D03*
X74700Y-58410D03*
X77277Y-18776D03*
X73340Y-18776D03*
G54D32*
X53253Y-36671D03*
X54253Y-36671D03*
G54D34*
X83625Y-22200D03*
X83625Y-21200D03*
G54D30*
X45977Y-50638D03*
X45977Y-58631D03*
X49992Y-58631D03*
X49992Y-50638D03*
X35775Y-55078D03*
X27783Y-55078D03*
X27783Y-59094D03*
X35775Y-59094D03*
G54D35*
X72888Y-63400D03*
X70700Y-63400D03*
X68511Y-63400D03*
X69681Y-14310D03*
X71870Y-14310D03*
X74058Y-14310D03*
G54D27*
X44089Y-33110D03*
X43339Y-33110D03*
G54D22*
X40920Y-43779D03*
X40920Y-43029D03*
G54D27*
X43320Y-36323D03*
X42570Y-36323D03*
G54D22*
X42749Y-38084D03*
X42749Y-37334D03*
G54D27*
X44124Y-42742D03*
X44874Y-42742D03*
X38468Y-37583D03*
X39218Y-37583D03*
G54D22*
X40754Y-40261D03*
X40754Y-39511D03*
G54D27*
X51775Y-26160D03*
X52525Y-26160D03*
G54D22*
X50300Y-26125D03*
X50300Y-26875D03*
X41381Y-21719D03*
X41381Y-22469D03*
X41738Y-37664D03*
X41738Y-38414D03*
X40605Y-38040D03*
X40605Y-38790D03*
X40516Y-41983D03*
X40516Y-41233D03*
G54D27*
X34367Y-43659D03*
X33617Y-43659D03*
X42918Y-42854D03*
X42168Y-42854D03*
X39125Y-44937D03*
X38375Y-44937D03*
X39120Y-45707D03*
X38370Y-45707D03*
X35381Y-43638D03*
X36131Y-43638D03*
X35085Y-44826D03*
X35835Y-44826D03*
X46215Y-47220D03*
X45465Y-47220D03*
X43835Y-30380D03*
X44585Y-30380D03*
X47815Y-29970D03*
X48565Y-29970D03*
G54D22*
X49130Y-27855D03*
X49130Y-27105D03*
G54D27*
X45111Y-29358D03*
X45861Y-29358D03*
X149180Y-44346D03*
X149930Y-44346D03*
X48675Y-28730D03*
X49425Y-28730D03*
G54D22*
X49530Y-29965D03*
X49530Y-30715D03*
G54D27*
X149180Y-45685D03*
X149930Y-45685D03*
X147999Y-50094D03*
X148749Y-50094D03*
X149652Y-50055D03*
X150402Y-50055D03*
G54D22*
X151326Y-49249D03*
X151326Y-48499D03*
G54D34*
X75248Y-24171D03*
X75248Y-20171D03*
X74688Y-56584D03*
X70688Y-56584D03*
X68605Y-60935D03*
X72605Y-60935D03*
G54D36*
X42496Y-22902D03*
X42496Y-22152D03*
X43496Y-22902D03*
X42496Y-22527D03*
X43496Y-22152D03*
X108011Y-32290D03*
X108011Y-33040D03*
X107011Y-32290D03*
X108011Y-32665D03*
X107011Y-33040D03*
G54D37*
X44100Y-40360D03*
X44100Y-40860D03*
X44100Y-41360D03*
X44100Y-41860D03*
X41900Y-41860D03*
X41900Y-41360D03*
X41900Y-40860D03*
X41900Y-40360D03*
G54D38*
X52890Y-29436D03*
X52390Y-29436D03*
X51890Y-29436D03*
X51390Y-29436D03*
X51390Y-27236D03*
X51890Y-27236D03*
X52390Y-27236D03*
X52890Y-27236D03*
G54D39*
X46285Y-44488D03*
X46285Y-44988D03*
X46285Y-45488D03*
X46285Y-45988D03*
X42035Y-45988D03*
X42035Y-45488D03*
X42035Y-44988D03*
X42035Y-44488D03*
X48539Y-34118D03*
X48539Y-34618D03*
X48539Y-35118D03*
X48539Y-35618D03*
X44289Y-35618D03*
X44289Y-35118D03*
X44289Y-34618D03*
X44289Y-34118D03*
G54D38*
X95265Y-34686D03*
X94765Y-34686D03*
X94265Y-34686D03*
X93765Y-34686D03*
X93765Y-32486D03*
X94265Y-32486D03*
X94765Y-32486D03*
X95265Y-32486D03*
X101368Y-34631D03*
X100868Y-34631D03*
X100368Y-34631D03*
X99868Y-34631D03*
X99868Y-32431D03*
X100368Y-32431D03*
X100868Y-32431D03*
X101368Y-32431D03*
G54D12*
X19921Y-35153D03*
X19921Y-36153D03*
G54D40*
X37930Y-25265D03*
X38930Y-25265D03*
X38930Y-22265D03*
X37930Y-22265D03*
G54D19*
X36500Y-22250D03*
X35500Y-22250D03*
X34500Y-22250D03*
X34500Y-25250D03*
X35500Y-25250D03*
X36500Y-25250D03*
G54D11*
X35414Y-62595D03*
X34430Y-63580D03*
X33445Y-62595D03*
X30178Y-62595D03*
X29194Y-63580D03*
X28209Y-62595D03*
X25008Y-62573D03*
X24024Y-63558D03*
X23039Y-62573D03*
G54D39*
X40735Y-29628D03*
X40735Y-30128D03*
X40735Y-30628D03*
X40735Y-31128D03*
X36485Y-31128D03*
X36485Y-30628D03*
X36485Y-30128D03*
X36485Y-29628D03*
G54D41*
X28360Y-40750D03*
X29360Y-40750D03*
X30360Y-40750D03*
X31360Y-40750D03*
X32360Y-40750D03*
X33360Y-40750D03*
X34360Y-40750D03*
X35360Y-40750D03*
X36360Y-40750D03*
X37360Y-40750D03*
X38360Y-40750D03*
X39360Y-40750D03*
X27360Y-40750D03*
X26360Y-40750D03*
X25360Y-40750D03*
X24360Y-40750D03*
X23360Y-40750D03*
X39360Y-39750D03*
X38360Y-39750D03*
X37360Y-39750D03*
X36360Y-39750D03*
X35360Y-39750D03*
X34360Y-39750D03*
X33360Y-39750D03*
X32360Y-39750D03*
X31360Y-39750D03*
X30360Y-39750D03*
X29360Y-39750D03*
X28360Y-39750D03*
X27360Y-39750D03*
X26360Y-39750D03*
X25360Y-39750D03*
X24360Y-39750D03*
G54D42*
X40176Y-40635D03*
X40230Y-43475D03*
X38899Y-43480D03*
X39964Y-46897D03*
X38980Y-46897D03*
X61890Y-35570D03*
X57855Y-35580D03*
X49245Y-48510D03*
X50820Y-48503D03*
X73468Y-20440D03*
X69098Y-20716D03*
X55463Y-27656D03*
X36639Y-34875D03*
X85515Y-22305D03*
X75585Y-28410D03*
X85589Y-28231D03*
X32955Y-34875D03*
X47004Y-38841D03*
X37198Y-27825D03*
X35430Y-27840D03*
X91145Y-18708D03*
X87326Y-21267D03*
X87326Y-19220D03*
X55358Y-38275D03*
X34146Y-33656D03*
X33309Y-33323D03*
X46139Y-39933D03*
X44898Y-39999D03*
X41900Y-39872D03*
X44184Y-39697D03*
X54977Y-45632D03*
X52020Y-47484D03*
X52577Y-22876D03*
X52577Y-25403D03*
X41423Y-23859D03*
X49295Y-47488D03*
X43727Y-44501D03*
X45797Y-39393D03*
X45885Y-38339D03*
X47066Y-34700D03*
X34889Y-30110D03*
X63500Y-43710D03*
X59925Y-17130D03*
X58845Y-17156D03*
X57721Y-17458D03*
X61106Y-17156D03*
X64635Y-55815D03*
X46259Y-20921D03*
X22463Y-14633D03*
X23110Y-14311D03*
X24090Y-14340D03*
X24660Y-14311D03*
X23499Y-31608D03*
X17666Y-16610D03*
X17666Y-15378D03*
X16676Y-14633D03*
X17960Y-14630D03*
X19200Y-14633D03*
X42494Y-21510D03*
X104480Y-44870D03*
X105857Y-44227D03*
X105922Y-42832D03*
X106970Y-42060D03*
X108150Y-42015D03*
X109380Y-42390D03*
X110118Y-42243D03*
X110385Y-41430D03*
X111063Y-41298D03*
X111127Y-40687D03*
X111836Y-40526D03*
X111885Y-39930D03*
X112476Y-39886D03*
X96930Y-48300D03*
X96844Y-47595D03*
X97237Y-46792D03*
X97937Y-45992D03*
X99075Y-45650D03*
X100590Y-46326D03*
X99795Y-46920D03*
X99061Y-46948D03*
X98475Y-47850D03*
X98228Y-48630D03*
X97980Y-47530D03*
X86778Y-28437D03*
X99098Y-34732D03*
X89728Y-14889D03*
X76185Y-28944D03*
X71145Y-28944D03*
X92248Y-30913D03*
X67077Y-27446D03*
X56646Y-26811D03*
X50210Y-22790D03*
X88431Y-26761D03*
X93311Y-17645D03*
X108114Y-34181D03*
X92051Y-34102D03*
X73862Y-26779D03*
X70437Y-26779D03*
X41544Y-23202D03*
X34010Y-28310D03*
X37922Y-28310D03*
X39382Y-41783D03*
X40001Y-44240D03*
X129375Y-52799D03*
X129549Y-53998D03*
X128229Y-53945D03*
X128190Y-55380D03*
X126712Y-55462D03*
X126462Y-57107D03*
X125355Y-57150D03*
X124365Y-57107D03*
X100038Y-54330D03*
X93840Y-54345D03*
X56791Y-37366D03*
X54929Y-37555D03*
X50090Y-36670D03*
X49494Y-34308D03*
X48641Y-40230D03*
X92600Y-55050D03*
X119900Y-52316D03*
X49518Y-34884D03*
X45840Y-43310D03*
X47007Y-43182D03*
X34468Y-34405D03*
X32860Y-33840D03*
X39956Y-32796D03*
X54156Y-32145D03*
X57120Y-32190D03*
X66540Y-52750D03*
X90895Y-53620D03*
X61560Y-33015D03*
X38619Y-31024D03*
X37769Y-33917D03*
X37571Y-35532D03*
X34799Y-32715D03*
X32261Y-32022D03*
X146674Y-47285D03*
X93100Y-55755D03*
X50475Y-45975D03*
X48461Y-45325D03*
X47970Y-44208D03*
X47061Y-44388D03*
X23338Y-38297D03*
X33921Y-25934D03*
X28740Y-42660D03*
X26971Y-42525D03*
X31442Y-42440D03*
X61083Y-58442D03*
X48636Y-48020D03*
X50281Y-21987D03*
X26865Y-36465D03*
X61350Y-19470D03*
X62730Y-20880D03*
X65529Y-20916D03*
X66596Y-20340D03*
X23338Y-35903D03*
X30044Y-34993D03*
X30540Y-35979D03*
X74625Y-27336D03*
X88529Y-27321D03*
X91782Y-22242D03*
X43981Y-18410D03*
X45180Y-19638D03*
X22288Y-41111D03*
X75140Y-27812D03*
X26816Y-41652D03*
X89369Y-27713D03*
X92124Y-22680D03*
X31755Y-25650D03*
X32510Y-27340D03*
X32530Y-25450D03*
X23076Y-44870D03*
X24346Y-42952D03*
X120545Y-15665D03*
X121120Y-16345D03*
X115617Y-21313D03*
X94870Y-28838D03*
X150690Y-20000D03*
X151425Y-19985D03*
X152057Y-20007D03*
X152590Y-20524D03*
X153137Y-21087D03*
X154132Y-22066D03*
X154145Y-22905D03*
X154345Y-24290D03*
X154115Y-25480D03*
X154145Y-26635D03*
X154115Y-27790D03*
X148076Y-33160D03*
X149424Y-32662D03*
X150084Y-31768D03*
X150854Y-31299D03*
X151954Y-31240D03*
X139288Y-19985D03*
X140050Y-20000D03*
X140740Y-19985D03*
X141440Y-20000D03*
X142130Y-19985D03*
X142960Y-20000D03*
X143710Y-19985D03*
X144450Y-20000D03*
X145470Y-19985D03*
X146205Y-20000D03*
X133320Y-15300D03*
X133320Y-16110D03*
X132900Y-18190D03*
X129780Y-17220D03*
X127875Y-15400D03*
X128380Y-15979D03*
X128360Y-16490D03*
X119693Y-23198D03*
X101078Y-29196D03*
X120120Y-31050D03*
X93429Y-26503D03*
X73350Y-25795D03*
X70476Y-25795D03*
X97905Y-37485D03*
X98384Y-33516D03*
X105600Y-37500D03*
X106421Y-35027D03*
X108468Y-32413D03*
X96890Y-33647D03*
X96099Y-35802D03*
X100874Y-35472D03*
X94773Y-35515D03*
X101555Y-35956D03*
X56854Y-59668D03*
X56973Y-61663D03*
X54201Y-57057D03*
X38640Y-51555D03*
X37947Y-52157D03*
X43860Y-52425D03*
X109886Y-22246D03*
X97224Y-28901D03*
X103928Y-28107D03*
X119201Y-22716D03*
X120672Y-23733D03*
X101527Y-33988D03*
X95900Y-33543D03*
X95633Y-23275D03*
X98980Y-21818D03*
X102838Y-27212D03*
X118140Y-18436D03*
X118120Y-16145D03*
X118400Y-15555D03*
X125730Y-15620D03*
X118860Y-42051D03*
X118157Y-42062D03*
X116158Y-42051D03*
X117509Y-42051D03*
X116090Y-25984D03*
X117400Y-26030D03*
X115511Y-42051D03*
X119416Y-42051D03*
X116710Y-42051D03*
X116697Y-25984D03*
X22827Y-38532D03*
X31032Y-38790D03*
X32858Y-38885D03*
X37804Y-34966D03*
X38983Y-28385D03*
X125670Y-25984D03*
X126765Y-25984D03*
X127770Y-25984D03*
X128205Y-25125D03*
X129090Y-24690D03*
X129262Y-24068D03*
X119548Y-28688D03*
X120410Y-28740D03*
X121220Y-28688D03*
X121910Y-28740D03*
X122320Y-28250D03*
X122251Y-27748D03*
X122759Y-27149D03*
X135465Y-15209D03*
X135465Y-15800D03*
X135900Y-16320D03*
X136350Y-17200D03*
X122056Y-37004D03*
X122251Y-36278D03*
X121737Y-35618D03*
X122251Y-35068D03*
X121737Y-34672D03*
X122251Y-34166D03*
X121737Y-33638D03*
X122251Y-33000D03*
X121260Y-37170D03*
X46396Y-38052D03*
X63900Y-55650D03*
X66825Y-61263D03*
X62150Y-44286D03*
X50610Y-21360D03*
X63400Y-17530D03*
X41783Y-25137D03*
X101235Y-38775D03*
X102759Y-37527D03*
X135669Y-58303D03*
X136416Y-57458D03*
X138578Y-57047D03*
X141020Y-57015D03*
X144694Y-57047D03*
X144891Y-55395D03*
X147326Y-54952D03*
X150082Y-54956D03*
X153214Y-54950D03*
X154765Y-54948D03*
X130748Y-61836D03*
X131775Y-62893D03*
X133716Y-62865D03*
X137038Y-62893D03*
X139510Y-62865D03*
X143240Y-62952D03*
X148227Y-62952D03*
X151160Y-62952D03*
X154260Y-62952D03*
X87801Y-23506D03*
X90791Y-33629D03*
X24244Y-60949D03*
X24177Y-59594D03*
X24800Y-58800D03*
X25905Y-58800D03*
X51670Y-14250D03*
X52929Y-14260D03*
X54200Y-14253D03*
X55179Y-14268D03*
X56160Y-14253D03*
X57870Y-21735D03*
X58960Y-22066D03*
X13151Y-31050D03*
X13149Y-29150D03*
X13151Y-27100D03*
X13149Y-25000D03*
X13151Y-22850D03*
X13149Y-21119D03*
X13149Y-32850D03*
X13151Y-35050D03*
X13149Y-37200D03*
X13151Y-40305D03*
X13149Y-41998D03*
X13151Y-43900D03*
X13149Y-46500D03*
X13151Y-49500D03*
X13149Y-51840D03*
X13151Y-55704D03*
X13149Y-56830D03*
X14272Y-57920D03*
X15119Y-58800D03*
X23567Y-58985D03*
X20603Y-58800D03*
X18013Y-58800D03*
X78619Y-15854D03*
X80220Y-19650D03*
X80262Y-19137D03*
X80262Y-18440D03*
X80262Y-18000D03*
X25501Y-42742D03*
X23100Y-34720D03*
X26370Y-30980D03*
X31850Y-18740D03*
X59918Y-22101D03*
X61008Y-22036D03*
X34262Y-45394D03*
X33381Y-45387D03*
X43052Y-29124D03*
X46343Y-24790D03*
X54428Y-19074D03*
X36883Y-18102D03*
X40487Y-25650D03*
X39884Y-26420D03*
X62008Y-22026D03*
X64994Y-60700D03*
X74690Y-62685D03*
X26943Y-47089D03*
X28692Y-46548D03*
X26411Y-44829D03*
X30237Y-44172D03*
X47505Y-61350D03*
X85673Y-19417D03*
X83429Y-18000D03*
X89649Y-18078D03*
X90397Y-18078D03*
X51848Y-30967D03*
X80262Y-17064D03*
X80240Y-16382D03*
X79646Y-15854D03*
X69383Y-22046D03*
X68543Y-22061D03*
X67643Y-22061D03*
X35672Y-41664D03*
X36873Y-37044D03*
X33093Y-32733D03*
X36456Y-33145D03*
X42861Y-43773D03*
X43479Y-46805D03*
X39362Y-47637D03*
X37319Y-46742D03*
X41805Y-46409D03*
X38829Y-35760D03*
X40460Y-35959D03*
X34430Y-30401D03*
X53450Y-23820D03*
X53460Y-22850D03*
X154171Y-58948D03*
X154671Y-58956D03*
X155370Y-58956D03*
X150960Y-58956D03*
X138285Y-34125D03*
X138998Y-34758D03*
X139897Y-35772D03*
X140746Y-36506D03*
X141481Y-37356D03*
X143000Y-37455D03*
X144342Y-37356D03*
X146212Y-37455D03*
X147863Y-37356D03*
X149368Y-37455D03*
X150084Y-37356D03*
X134876Y-33726D03*
X135430Y-33142D03*
X136017Y-33160D03*
X132689Y-38023D03*
X133925Y-38023D03*
X134574Y-37224D03*
X134653Y-36102D03*
X120675Y-30390D03*
X105157Y-32216D03*
X107358Y-30389D03*
X107244Y-36603D03*
X104925Y-36582D03*
X127021Y-33329D03*
X128175Y-33132D03*
X129465Y-33329D03*
X131612Y-33132D03*
X132516Y-32108D03*
X133984Y-30760D03*
X134782Y-29842D03*
X141300Y-26715D03*
X142040Y-26030D03*
X143300Y-25160D03*
X144900Y-25160D03*
X135950Y-28650D03*
X136384Y-28194D03*
X137170Y-28050D03*
X137940Y-28141D03*
X138512Y-29070D03*
X138318Y-29681D03*
X137612Y-30050D03*
X136920Y-30106D03*
X136345Y-29495D03*
X135937Y-28862D03*
X19118Y-64130D03*
X20325Y-64064D03*
X21360Y-64130D03*
X22380Y-64064D03*
X25200Y-64130D03*
X26400Y-64064D03*
X27742Y-64130D03*
X30228Y-64064D03*
X31504Y-64130D03*
X33022Y-64064D03*
X102877Y-36779D03*
X136744Y-51326D03*
X138390Y-51330D03*
X139472Y-50232D03*
X140820Y-50232D03*
X128622Y-41261D03*
X129565Y-42214D03*
X132582Y-40992D03*
X133759Y-41141D03*
X134744Y-42162D03*
X83670Y-46960D03*
X83685Y-47500D03*
X83670Y-48020D03*
X83685Y-48590D03*
X73950Y-42495D03*
X74670Y-42495D03*
X75330Y-42495D03*
X76005Y-42495D03*
X76680Y-42495D03*
X77370Y-42495D03*
X78015Y-42495D03*
X78705Y-42495D03*
X85035Y-51735D03*
X84637Y-51307D03*
X84314Y-50850D03*
X83797Y-50467D03*
X83429Y-49965D03*
X82890Y-49560D03*
X82901Y-48960D03*
X80680Y-44430D03*
X81040Y-44890D03*
X81594Y-45235D03*
X82040Y-45890D03*
X73238Y-42944D03*
X73780Y-43267D03*
X74438Y-43267D03*
X75166Y-43267D03*
X75831Y-43267D03*
X76524Y-43267D03*
X77230Y-43267D03*
X77940Y-43267D03*
X104832Y-63822D03*
X105630Y-63874D03*
X106425Y-63822D03*
X107070Y-63874D03*
X93617Y-63874D03*
X94230Y-63822D03*
X95070Y-63874D03*
X95850Y-63822D03*
X97034Y-63874D03*
X98147Y-63822D03*
X98925Y-63874D03*
X99795Y-63822D03*
X100650Y-63874D03*
X86296Y-56758D03*
X86614Y-57525D03*
X86640Y-58200D03*
X86614Y-59175D03*
X86640Y-60180D03*
X86614Y-61155D03*
X86640Y-61952D03*
X86614Y-63118D03*
X87384Y-64013D03*
X85682Y-57300D03*
X85845Y-58020D03*
X85900Y-58710D03*
X85845Y-59775D03*
X85900Y-60690D03*
X85845Y-61530D03*
X85900Y-62510D03*
X85936Y-63206D03*
X86713Y-64013D03*
X88095Y-63889D03*
X89215Y-64013D03*
X90310Y-63889D03*
X73024Y-45255D03*
X73584Y-45267D03*
X74200Y-45267D03*
X74907Y-45267D03*
X75621Y-45267D03*
X76307Y-45267D03*
X80685Y-50300D03*
X80708Y-51181D03*
X81252Y-51607D03*
X80740Y-52300D03*
X80490Y-51930D03*
X80090Y-51650D03*
X80010Y-51070D03*
X79950Y-50490D03*
X71895Y-45960D03*
X72555Y-46040D03*
X73140Y-45960D03*
X73785Y-46040D03*
X74415Y-45960D03*
X75060Y-46040D03*
X75750Y-45960D03*
X76545Y-46040D03*
X77235Y-45960D03*
X77790Y-46040D03*
X78225Y-46410D03*
X78627Y-46877D03*
X79132Y-47317D03*
X37083Y-43611D03*
X36545Y-44586D03*
X47208Y-25519D03*
X50988Y-25047D03*
X54914Y-39707D03*
X51056Y-39794D03*
X45717Y-25424D03*
X48074Y-24574D03*
X19910Y-38808D03*
X19910Y-37554D03*
X126300Y-19640D03*
X44294Y-38114D03*
X43439Y-38124D03*
X106440Y-33818D03*
X109751Y-33503D03*
G54D43*
X40194Y-40617D02*
X40194Y-40335D01*
X40176Y-40635D02*
X40194Y-40617D01*
X40252Y-43497D02*
X40269Y-43497D01*
X40230Y-43475D02*
X40252Y-43497D01*
X40352Y-39511D02*
X40754Y-39511D01*
X40194Y-39669D02*
X40352Y-39511D01*
X40194Y-40335D02*
X40194Y-39669D01*
X40092Y-43497D02*
X40269Y-43497D01*
X39911Y-43497D02*
X40092Y-43497D01*
X40269Y-43497D02*
X40458Y-43686D01*
X40827Y-43686D02*
X40920Y-43779D01*
X40458Y-43686D02*
X40827Y-43686D01*
X38916Y-43497D02*
X39911Y-43497D01*
X38899Y-43480D02*
X38916Y-43497D01*
X39964Y-46897D02*
X38980Y-46897D01*
G54D44*
X55634Y-25996D02*
X56246Y-25996D01*
X56246Y-25996D02*
X56321Y-26070D01*
X56078Y-25543D02*
X56078Y-25827D01*
X56078Y-25827D02*
X56321Y-26070D01*
X56078Y-25006D02*
X56078Y-25543D01*
X56078Y-25543D02*
X56078Y-25551D01*
X56078Y-25551D02*
X55634Y-25996D01*
X55634Y-25996D02*
X55620Y-26010D01*
X55620Y-26010D02*
X55620Y-27600D01*
X55620Y-27600D02*
X55676Y-27656D01*
G54D45*
X57865Y-35570D02*
X61890Y-35570D01*
X57855Y-35580D02*
X57865Y-35570D01*
X50813Y-48510D02*
X49245Y-48510D01*
X50820Y-48503D02*
X50813Y-48510D01*
G54D43*
X56361Y-27566D02*
X56168Y-27566D01*
X56168Y-27566D02*
X56078Y-27656D01*
X56321Y-29574D02*
X56321Y-28645D01*
X56321Y-28645D02*
X56183Y-28506D01*
G54D45*
X69374Y-20440D02*
X73468Y-20440D01*
X69098Y-20716D02*
X69374Y-20440D01*
G54D44*
X55676Y-27656D02*
X55676Y-27698D01*
X55676Y-27698D02*
X56078Y-28100D01*
X55463Y-27656D02*
X55676Y-27656D01*
X55676Y-27656D02*
X56078Y-27656D01*
X56078Y-27656D02*
X56078Y-28100D01*
X56078Y-28100D02*
X56078Y-28401D01*
X56078Y-28401D02*
X56183Y-28506D01*
G54D43*
X33360Y-40750D02*
X33360Y-40422D01*
X33504Y-40278D02*
X33832Y-40278D01*
X33360Y-40422D02*
X33504Y-40278D01*
X33832Y-40278D02*
X34360Y-39750D01*
X36295Y-34875D02*
X36639Y-34875D01*
G54D45*
X67125Y-30128D02*
X67125Y-29619D01*
X68553Y-28413D02*
X68553Y-28410D01*
X68331Y-28413D02*
X68553Y-28413D01*
X67125Y-29619D02*
X68331Y-28413D01*
X68553Y-28410D02*
X70540Y-28410D01*
X85594Y-28225D02*
X85594Y-27284D01*
X85594Y-22384D02*
X85515Y-22305D01*
X85594Y-25785D02*
X85594Y-27284D01*
X85594Y-25785D02*
X85594Y-22384D01*
X70540Y-28410D02*
X75585Y-28410D01*
X85589Y-28231D02*
X85594Y-28225D01*
X56340Y-31900D02*
X56340Y-31898D01*
X67125Y-30855D02*
X67125Y-30128D01*
X66465Y-31515D02*
X67125Y-30855D01*
X56724Y-31515D02*
X66465Y-31515D01*
X56340Y-31898D02*
X56724Y-31515D01*
G54D43*
X36295Y-34875D02*
X32955Y-34875D01*
G54D45*
X55358Y-38275D02*
X55358Y-38661D01*
X55358Y-38661D02*
X55180Y-38840D01*
X55180Y-38840D02*
X47005Y-38840D01*
X47005Y-38840D02*
X47004Y-38841D01*
G54D43*
X35445Y-27825D02*
X37198Y-27825D01*
X35430Y-27840D02*
X35445Y-27825D01*
X87326Y-19220D02*
X87326Y-18905D01*
X87523Y-18708D02*
X91145Y-18708D01*
X87326Y-18905D02*
X87523Y-18708D01*
G54D45*
X55358Y-37842D02*
X55948Y-37251D01*
X55948Y-37251D02*
X55948Y-32291D01*
X55948Y-32291D02*
X56340Y-31900D01*
X56340Y-31900D02*
X56381Y-31858D01*
X55358Y-38275D02*
X55358Y-37842D01*
G54D43*
X87326Y-19220D02*
X87326Y-21267D01*
X46475Y-21443D02*
X49438Y-21443D01*
X52318Y-20755D02*
X52580Y-21017D01*
X50127Y-20755D02*
X52318Y-20755D01*
X49438Y-21443D02*
X50127Y-20755D01*
X33901Y-33332D02*
X34067Y-33332D01*
X34067Y-33332D02*
X34146Y-33411D01*
X34146Y-33411D02*
X34146Y-33656D01*
X33309Y-33323D02*
X33318Y-33332D01*
X33318Y-33332D02*
X33901Y-33332D01*
X44184Y-39697D02*
X44477Y-39697D01*
X46312Y-39760D02*
X46627Y-39760D01*
X46139Y-39933D02*
X46312Y-39760D01*
X44779Y-39999D02*
X44898Y-39999D01*
X44477Y-39697D02*
X44779Y-39999D01*
X44177Y-39732D02*
X44177Y-39704D01*
X44184Y-39697D02*
X44177Y-39704D01*
X49490Y-39760D02*
X46627Y-39760D01*
X46627Y-39760D02*
X46620Y-39767D01*
X49483Y-39753D02*
X49490Y-39760D01*
X49644Y-39760D02*
X49490Y-39760D01*
X50757Y-40873D02*
X49644Y-39760D01*
X52114Y-40873D02*
X50757Y-40873D01*
X52326Y-41085D02*
X52114Y-40873D01*
X52326Y-42876D02*
X52326Y-41085D01*
X53325Y-43875D02*
X52326Y-42876D01*
X54675Y-43875D02*
X53325Y-43875D01*
X54990Y-44190D02*
X54675Y-43875D01*
X54990Y-45100D02*
X54990Y-44190D01*
X54977Y-45113D02*
X54990Y-45100D01*
X54977Y-45113D02*
X54977Y-45632D01*
X41900Y-40360D02*
X41900Y-39872D01*
X41900Y-39872D02*
X41900Y-39640D01*
X42006Y-39534D02*
X42309Y-39537D01*
X41900Y-39640D02*
X42006Y-39534D01*
G54D45*
X51089Y-47488D02*
X52015Y-47488D01*
X52015Y-47488D02*
X52020Y-47484D01*
G54D43*
X52577Y-22876D02*
X52580Y-22873D01*
X52580Y-22873D02*
X52580Y-21017D01*
X44564Y-23354D02*
X46475Y-21443D01*
X44564Y-23354D02*
X43586Y-23354D01*
X52525Y-26160D02*
X52525Y-25455D01*
X52525Y-25455D02*
X52577Y-25403D01*
X52525Y-26160D02*
X52525Y-26416D01*
X52902Y-27224D02*
X52890Y-27236D01*
X52902Y-26793D02*
X52902Y-27224D01*
X52525Y-26416D02*
X52902Y-26793D01*
X41999Y-23354D02*
X41941Y-23354D01*
X42134Y-23354D02*
X43586Y-23354D01*
X41999Y-23354D02*
X42134Y-23354D01*
X41941Y-23354D02*
X41738Y-23558D01*
X41738Y-23558D02*
X41738Y-23737D01*
X41738Y-23737D02*
X41616Y-23859D01*
X41616Y-23859D02*
X41423Y-23859D01*
G54D45*
X49295Y-47488D02*
X51089Y-47488D01*
G54D43*
X43213Y-23905D02*
X43507Y-23905D01*
X43586Y-23826D02*
X43586Y-23354D01*
X43507Y-23905D02*
X43586Y-23826D01*
X43496Y-23185D02*
X43496Y-22902D01*
X43586Y-23275D02*
X43496Y-23185D01*
X43586Y-23354D02*
X43586Y-23275D01*
X43088Y-44490D02*
X43716Y-44490D01*
X43716Y-44490D02*
X43727Y-44501D01*
X45810Y-39380D02*
X45797Y-39393D01*
X45810Y-38414D02*
X45810Y-39380D01*
X45885Y-38339D02*
X45810Y-38414D01*
X46484Y-34118D02*
X47066Y-34700D01*
X44289Y-34118D02*
X46484Y-34118D01*
X40650Y-44965D02*
X40650Y-44610D01*
X40771Y-44488D02*
X42035Y-44488D01*
X40650Y-44610D02*
X40771Y-44488D01*
X42035Y-44488D02*
X42703Y-44488D01*
X42705Y-44490D02*
X43088Y-44490D01*
X42703Y-44488D02*
X42705Y-44490D01*
X42944Y-34561D02*
X42944Y-34268D01*
X43093Y-34118D02*
X44289Y-34118D01*
X42944Y-34268D02*
X43093Y-34118D01*
X35350Y-30109D02*
X35519Y-30109D01*
X35998Y-29628D02*
X36485Y-29628D01*
X35933Y-29694D02*
X35998Y-29628D01*
X35933Y-29696D02*
X35933Y-29694D01*
X35519Y-30109D02*
X35933Y-29696D01*
X35250Y-30216D02*
X35238Y-30216D01*
X35238Y-30216D02*
X35131Y-30109D01*
X35250Y-30705D02*
X35250Y-30216D01*
X35250Y-30216D02*
X35250Y-30210D01*
X35250Y-30210D02*
X35350Y-30109D01*
X35350Y-30109D02*
X35131Y-30109D01*
X35131Y-30109D02*
X34889Y-30109D01*
X34889Y-30109D02*
X34889Y-30110D01*
G54D46*
X75705Y-35267D02*
X75705Y-34895D01*
X75705Y-34895D02*
X80457Y-30142D01*
X80457Y-31196D02*
X80457Y-31705D01*
X80457Y-31705D02*
X76895Y-35267D01*
X79380Y-35267D02*
X79380Y-34965D01*
X79380Y-34965D02*
X80457Y-33887D01*
X76895Y-35267D02*
X78027Y-35267D01*
X78027Y-35267D02*
X80457Y-32837D01*
X62920Y-37396D02*
X63356Y-37396D01*
X63356Y-37396D02*
X65100Y-39140D01*
X62129Y-37396D02*
X62920Y-37396D01*
X62920Y-37396D02*
X63438Y-37396D01*
X63438Y-37396D02*
X65100Y-35734D01*
X65100Y-35734D02*
X65100Y-34580D01*
X68618Y-35730D02*
X68070Y-35730D01*
X68070Y-35730D02*
X67165Y-34825D01*
X65100Y-40740D02*
X65100Y-39140D01*
X65100Y-39140D02*
X65100Y-34580D01*
X65100Y-34580D02*
X64645Y-34125D01*
X64645Y-34125D02*
X64645Y-33941D01*
X64026Y-33511D02*
X65851Y-33511D01*
X65851Y-33511D02*
X67165Y-34825D01*
X67165Y-34825D02*
X67165Y-35730D01*
X65709Y-40075D02*
X66115Y-40075D01*
X66115Y-40075D02*
X68845Y-37344D01*
X66434Y-35730D02*
X67165Y-35730D01*
X67165Y-35730D02*
X68618Y-35730D01*
X68618Y-35730D02*
X70655Y-35730D01*
X70655Y-35730D02*
X71118Y-35267D01*
X67374Y-37344D02*
X68845Y-37344D01*
X68845Y-37344D02*
X71041Y-37344D01*
X71041Y-37344D02*
X71118Y-37267D01*
X82935Y-31410D02*
X82935Y-31279D01*
X82935Y-31279D02*
X82170Y-30514D01*
X82935Y-29802D02*
X82935Y-31410D01*
X82935Y-31410D02*
X81130Y-33215D01*
X81532Y-28717D02*
X81532Y-32077D01*
X81532Y-32077D02*
X82369Y-32914D01*
X80457Y-27642D02*
X80457Y-30142D01*
X80457Y-30142D02*
X80457Y-31196D01*
X80457Y-31196D02*
X80457Y-32837D01*
X80457Y-32837D02*
X80457Y-33887D01*
X80457Y-33887D02*
X80457Y-34825D01*
X80457Y-34825D02*
X80015Y-35267D01*
X71118Y-35267D02*
X75705Y-35267D01*
X75705Y-35267D02*
X76895Y-35267D01*
X76895Y-35267D02*
X79380Y-35267D01*
X79380Y-35267D02*
X80015Y-35267D01*
X80015Y-35267D02*
X82369Y-32914D01*
X82369Y-32914D02*
X82635Y-32648D01*
X82635Y-32648D02*
X83648Y-32648D01*
X83655Y-29988D02*
X83655Y-31620D01*
X83655Y-31620D02*
X84383Y-32348D01*
X82935Y-30120D02*
X82935Y-29802D01*
X82935Y-29802D02*
X82935Y-31935D01*
X82935Y-31935D02*
X83648Y-32648D01*
X83648Y-32648D02*
X83882Y-32882D01*
X80143Y-25516D02*
X81421Y-25516D01*
X81421Y-25516D02*
X81630Y-25725D01*
X78076Y-24478D02*
X81414Y-24478D01*
X81414Y-24478D02*
X82390Y-25454D01*
X82390Y-25454D02*
X82390Y-27763D01*
X82390Y-27763D02*
X82368Y-27741D01*
X78285Y-25470D02*
X77293Y-24478D01*
X77293Y-24478D02*
X77203Y-24478D01*
X87118Y-31267D02*
X84934Y-31267D01*
X84934Y-31267D02*
X83655Y-29988D01*
X83655Y-29988D02*
X84221Y-30555D01*
X84221Y-30555D02*
X83370Y-30555D01*
X83370Y-30555D02*
X82935Y-30120D01*
X82935Y-30120D02*
X81532Y-28717D01*
X81532Y-28717D02*
X80457Y-27642D01*
X80457Y-27642D02*
X78285Y-25470D01*
X78285Y-25470D02*
X78190Y-25375D01*
G54D45*
X63773Y-41596D02*
X64306Y-41596D01*
X63170Y-42200D02*
X63773Y-41596D01*
X63170Y-43380D02*
X63170Y-42200D01*
X63500Y-43710D02*
X63170Y-43380D01*
G54D47*
X56945Y-17156D02*
X61106Y-17156D01*
X56945Y-17156D02*
X57419Y-17156D01*
X58871Y-17130D02*
X59925Y-17130D01*
X58845Y-17156D02*
X58871Y-17130D01*
X57419Y-17156D02*
X57721Y-17458D01*
X64328Y-20378D02*
X64328Y-21128D01*
X61106Y-17156D02*
X64328Y-20378D01*
G54D45*
X70688Y-56584D02*
X67073Y-56584D01*
X64635Y-56235D02*
X64635Y-55815D01*
X64983Y-56583D02*
X64635Y-56235D01*
X67072Y-56583D02*
X64983Y-56583D01*
X67073Y-56584D02*
X67072Y-56583D01*
X43496Y-22152D02*
X45016Y-22152D01*
X46248Y-20921D02*
X46259Y-20921D01*
X45016Y-22152D02*
X46248Y-20921D01*
G54D44*
X75248Y-24171D02*
X75013Y-24171D01*
X75013Y-24171D02*
X74706Y-24478D01*
G54D47*
X65655Y-24478D02*
X74706Y-24478D01*
X74706Y-24478D02*
X77203Y-24478D01*
X77203Y-24478D02*
X78076Y-24478D01*
X64328Y-23151D02*
X65655Y-24478D01*
X64328Y-21128D02*
X64328Y-23151D01*
X65709Y-39174D02*
X65709Y-39009D01*
X65709Y-39009D02*
X67374Y-37344D01*
X67374Y-37344D02*
X68382Y-36336D01*
X65709Y-38250D02*
X65709Y-37667D01*
X65709Y-37667D02*
X67040Y-36336D01*
X64306Y-41596D02*
X64306Y-41535D01*
X65709Y-40131D02*
X65709Y-40075D01*
X65709Y-40075D02*
X65709Y-39174D01*
X65709Y-39174D02*
X65709Y-38250D01*
X65709Y-38250D02*
X65709Y-37293D01*
X64306Y-41535D02*
X65100Y-40740D01*
X65100Y-40740D02*
X65709Y-40131D01*
X71118Y-37267D02*
X71191Y-37267D01*
X71191Y-37267D02*
X72254Y-36204D01*
X71118Y-35267D02*
X71317Y-35267D01*
X71317Y-35267D02*
X72254Y-36204D01*
X72254Y-36204D02*
X72376Y-36326D01*
X70049Y-36336D02*
X70187Y-36336D01*
X70187Y-36336D02*
X71118Y-37267D01*
X69988Y-36336D02*
X70049Y-36336D01*
X70049Y-36336D02*
X71118Y-35267D01*
X86228Y-32079D02*
X86228Y-32378D01*
X86228Y-32378D02*
X87118Y-33267D01*
X85746Y-32079D02*
X86228Y-32079D01*
X86228Y-32079D02*
X86306Y-32079D01*
X86306Y-32079D02*
X87118Y-31267D01*
X87118Y-31267D02*
X87118Y-33267D01*
X71118Y-35267D02*
X71118Y-37267D01*
X65709Y-35005D02*
X65709Y-37293D01*
X65709Y-37293D02*
X65606Y-37396D01*
X64026Y-33511D02*
X64215Y-33511D01*
X64215Y-33511D02*
X64645Y-33941D01*
X64645Y-33941D02*
X65709Y-35005D01*
X65709Y-35005D02*
X66434Y-35730D01*
X66434Y-35730D02*
X67040Y-36336D01*
X62129Y-37396D02*
X65606Y-37396D01*
X71108Y-36336D02*
X71118Y-36326D01*
X66666Y-36336D02*
X67040Y-36336D01*
X65606Y-37396D02*
X66666Y-36336D01*
X67040Y-36336D02*
X68382Y-36336D01*
X68382Y-36336D02*
X69988Y-36336D01*
X69988Y-36336D02*
X71108Y-36336D01*
X84383Y-30791D02*
X84458Y-30791D01*
X84458Y-30791D02*
X85746Y-32079D01*
X85746Y-32079D02*
X86048Y-32381D01*
X78076Y-24478D02*
X79105Y-24478D01*
X84383Y-29756D02*
X84383Y-30791D01*
X79866Y-25239D02*
X80143Y-25516D01*
X80143Y-25516D02*
X82368Y-27741D01*
X82368Y-27741D02*
X84383Y-29756D01*
X84383Y-30791D02*
X84383Y-32348D01*
X84383Y-32348D02*
X84383Y-32381D01*
X79105Y-24478D02*
X79866Y-25239D01*
X71118Y-36326D02*
X72376Y-36326D01*
X72376Y-36326D02*
X80438Y-36326D01*
X80438Y-36326D02*
X83882Y-32882D01*
X83882Y-32882D02*
X84383Y-32381D01*
X84383Y-32381D02*
X86048Y-32381D01*
X86048Y-32381D02*
X87118Y-32381D01*
G54D48*
X87118Y-31267D02*
X87118Y-32381D01*
X87118Y-32381D02*
X87118Y-33267D01*
X71118Y-35267D02*
X71118Y-36326D01*
X71118Y-36326D02*
X71118Y-37267D01*
X71118Y-37267D02*
X71155Y-37267D01*
X71155Y-37267D02*
X71118Y-37267D01*
G54D49*
X18711Y-18205D02*
X18711Y-22517D01*
X18711Y-22517D02*
X18370Y-22858D01*
X17666Y-16830D02*
X17666Y-17160D01*
X17666Y-17160D02*
X18711Y-18205D01*
X18711Y-18205D02*
X19071Y-18565D01*
X19071Y-18565D02*
X19071Y-22890D01*
X19071Y-22890D02*
X17666Y-24295D01*
X17666Y-27192D02*
X17930Y-27192D01*
X17930Y-27192D02*
X19963Y-29225D01*
G54D50*
X21830Y-14633D02*
X22463Y-14633D01*
X23110Y-14311D02*
X23138Y-14340D01*
X23138Y-14340D02*
X24090Y-14340D01*
X24660Y-14311D02*
X24660Y-14340D01*
G54D46*
X19200Y-14633D02*
X21830Y-14633D01*
X21830Y-14633D02*
X22463Y-14633D01*
X22463Y-14633D02*
X22757Y-14340D01*
X22757Y-14340D02*
X24660Y-14340D01*
X24660Y-14340D02*
X28660Y-14340D01*
X28660Y-14340D02*
X28688Y-14311D01*
G54D43*
X23500Y-29225D02*
X23500Y-31607D01*
X23500Y-31607D02*
X23499Y-31608D01*
G54D48*
X23450Y-29225D02*
X23500Y-29225D01*
X23500Y-29225D02*
X24895Y-29225D01*
X26930Y-25347D02*
X25736Y-24153D01*
X26930Y-27190D02*
X26930Y-25347D01*
X24895Y-29225D02*
X26930Y-27190D01*
G54D49*
X18660Y-14633D02*
X18366Y-14633D01*
X18366Y-14633D02*
X17644Y-15356D01*
X17666Y-30375D02*
X17710Y-30375D01*
X17710Y-30375D02*
X18860Y-29225D01*
X17666Y-28245D02*
X17880Y-28245D01*
X17880Y-28245D02*
X18860Y-29225D01*
X17666Y-29225D02*
X18860Y-29225D01*
X18860Y-29225D02*
X19963Y-29225D01*
X19963Y-29225D02*
X22110Y-29225D01*
X22110Y-29225D02*
X23450Y-29225D01*
G54D46*
X15884Y-50821D02*
X16585Y-50120D01*
X15884Y-51810D02*
X15884Y-50821D01*
X16585Y-50120D02*
X17666Y-49039D01*
G54D45*
X26462Y-22660D02*
X26464Y-22657D01*
X25736Y-24153D02*
X25736Y-22833D01*
X25736Y-22833D02*
X25910Y-22660D01*
X25910Y-22660D02*
X26462Y-22660D01*
X23820Y-24120D02*
X25702Y-24120D01*
X25702Y-24120D02*
X25736Y-24153D01*
G54D46*
X17666Y-19250D02*
X17666Y-16830D01*
X17666Y-16830D02*
X17666Y-16610D01*
X17666Y-15378D02*
X17644Y-15356D01*
X17644Y-15356D02*
X17644Y-14633D01*
X15291Y-14633D02*
X17644Y-14633D01*
X17644Y-14633D02*
X18660Y-14633D01*
X18660Y-14633D02*
X19200Y-14633D01*
X19200Y-14633D02*
X19203Y-14630D01*
X16676Y-14633D02*
X16680Y-14630D01*
X16680Y-14630D02*
X17960Y-14630D01*
X19203Y-14630D02*
X19400Y-14630D01*
X19200Y-14633D02*
X19203Y-14630D01*
X16072Y-50633D02*
X16585Y-50120D01*
G54D44*
X15884Y-52210D02*
X15884Y-51810D01*
X15884Y-51810D02*
X16072Y-51622D01*
G54D46*
X15291Y-14633D02*
X17046Y-14633D01*
X17046Y-14633D02*
X17666Y-15253D01*
X17666Y-15253D02*
X17666Y-19250D01*
X17666Y-19250D02*
X17666Y-24295D01*
X17666Y-24295D02*
X17666Y-27192D01*
X17666Y-27192D02*
X17666Y-28245D01*
X17666Y-28245D02*
X17666Y-29225D01*
X17666Y-29225D02*
X17666Y-30375D01*
X17666Y-30375D02*
X17666Y-49039D01*
G54D43*
X42496Y-22152D02*
X42496Y-21512D01*
X42496Y-21512D02*
X42494Y-21510D01*
G54D45*
X33893Y-15900D02*
X33893Y-15944D01*
X33893Y-15944D02*
X34078Y-16129D01*
X34078Y-16330D02*
X34078Y-16129D01*
X34078Y-16129D02*
X34078Y-15968D01*
X34078Y-15968D02*
X34036Y-15925D01*
X34036Y-15900D02*
X34036Y-15925D01*
X34216Y-16106D02*
X34216Y-16177D01*
X34036Y-15925D02*
X34216Y-16106D01*
X34216Y-16177D02*
X34216Y-16177D01*
X34216Y-16177D02*
X35358Y-16177D01*
X35358Y-16177D02*
X35519Y-16338D01*
X35519Y-16338D02*
X35519Y-16785D01*
X35519Y-16785D02*
X35444Y-16860D01*
X34216Y-15637D02*
X34216Y-16177D01*
X34216Y-16177D02*
X34216Y-16192D01*
X34216Y-16192D02*
X34078Y-16330D01*
X34078Y-16330D02*
X34078Y-16330D01*
X34078Y-16330D02*
X34078Y-16876D01*
X33498Y-15900D02*
X33893Y-15900D01*
X33893Y-15900D02*
X34036Y-15900D01*
X34216Y-15720D02*
X34216Y-15637D01*
X34216Y-15637D02*
X34216Y-14350D01*
X34036Y-15900D02*
X34216Y-15720D01*
G54D47*
X111127Y-40687D02*
X111127Y-41032D01*
X111127Y-41032D02*
X110205Y-41955D01*
X110205Y-41955D02*
X106875Y-41955D01*
X106875Y-41955D02*
X103560Y-45270D01*
G54D50*
X108150Y-42015D02*
X108150Y-42091D01*
X108150Y-42091D02*
X107130Y-43110D01*
X107130Y-43110D02*
X107130Y-42953D01*
X104480Y-44870D02*
X105123Y-44227D01*
X105123Y-44227D02*
X105857Y-44227D01*
X105922Y-42832D02*
X106695Y-42060D01*
X106695Y-42060D02*
X106970Y-42060D01*
X108150Y-42015D02*
X108420Y-42285D01*
X108420Y-42285D02*
X108420Y-43110D01*
G54D51*
X103180Y-45270D02*
X103560Y-45270D01*
X103560Y-45270D02*
X104814Y-45270D01*
X104814Y-45270D02*
X107130Y-42953D01*
X107130Y-42953D02*
X106973Y-43110D01*
X106973Y-43110D02*
X108420Y-43110D01*
X108420Y-43110D02*
X108933Y-43110D01*
X106170Y-45270D02*
X106773Y-45270D01*
X106773Y-45270D02*
X108933Y-43110D01*
G54D43*
X109431Y-34573D02*
X110123Y-34573D01*
X110123Y-34573D02*
X110200Y-34496D01*
X109332Y-34474D02*
X110179Y-34474D01*
X110179Y-34474D02*
X110200Y-34496D01*
X109262Y-34386D02*
X109262Y-34404D01*
X109262Y-34404D02*
X109332Y-34474D01*
X109332Y-34474D02*
X109431Y-34573D01*
X109259Y-34719D02*
X109284Y-34719D01*
X109284Y-34719D02*
X109431Y-34573D01*
X109431Y-34573D02*
X109432Y-34571D01*
X109120Y-34570D02*
X109120Y-34580D01*
X109120Y-34580D02*
X109259Y-34719D01*
X109120Y-34571D02*
X109120Y-34570D01*
X109262Y-34386D02*
X109259Y-34386D01*
X109262Y-34428D02*
X109262Y-34386D01*
X109120Y-34570D02*
X109262Y-34428D01*
X107683Y-33382D02*
X107787Y-33486D01*
X107850Y-32665D02*
X107631Y-32884D01*
X107631Y-32884D02*
X107631Y-33330D01*
X107631Y-33330D02*
X107683Y-33382D01*
X108011Y-32665D02*
X107850Y-32665D01*
X108814Y-33486D02*
X109259Y-33931D01*
X109259Y-33931D02*
X109259Y-34386D01*
X107787Y-33486D02*
X108814Y-33486D01*
X109259Y-34386D02*
X109259Y-34571D01*
G54D50*
X111195Y-34496D02*
X111340Y-34496D01*
X111340Y-34496D02*
X111417Y-34573D01*
X110200Y-34496D02*
X111195Y-34496D01*
X111195Y-34496D02*
X111417Y-34718D01*
X111297Y-37202D02*
X111297Y-37375D01*
X111297Y-37375D02*
X110775Y-37898D01*
X110775Y-37898D02*
X110775Y-37725D01*
X110480Y-38129D02*
X110480Y-38020D01*
X110480Y-38020D02*
X110775Y-37725D01*
X110775Y-37725D02*
X111297Y-37202D01*
X111297Y-37202D02*
X111417Y-37082D01*
X110813Y-38129D02*
X110829Y-38129D01*
X110829Y-38129D02*
X111417Y-37541D01*
X111972Y-38962D02*
X111972Y-40224D01*
X111972Y-40224D02*
X112055Y-40307D01*
X111074Y-38129D02*
X111139Y-38129D01*
X111139Y-38129D02*
X111972Y-38962D01*
X111972Y-38962D02*
X112256Y-39246D01*
X111074Y-38129D02*
X111074Y-38106D01*
X111074Y-38106D02*
X111417Y-37762D01*
X111417Y-34573D02*
X111417Y-34718D01*
X111417Y-34718D02*
X111417Y-37082D01*
X111417Y-37082D02*
X111417Y-37541D01*
X111417Y-37541D02*
X111417Y-37762D01*
X111417Y-37762D02*
X111417Y-37842D01*
X111417Y-37842D02*
X111705Y-38129D01*
X109380Y-42390D02*
X109526Y-42243D01*
X109526Y-42243D02*
X110118Y-42243D01*
X110385Y-41430D02*
X110516Y-41298D01*
X110516Y-41298D02*
X111063Y-41298D01*
X111127Y-40687D02*
X111288Y-40526D01*
X111288Y-40526D02*
X111836Y-40526D01*
X111885Y-39930D02*
X111928Y-39886D01*
X111928Y-39886D02*
X112476Y-39886D01*
G54D44*
X114268Y-38094D02*
X113219Y-38094D01*
X113219Y-38094D02*
X113183Y-38129D01*
X112665Y-38129D02*
X113183Y-38129D01*
X113183Y-38129D02*
X113708Y-38654D01*
X112256Y-38854D02*
X112256Y-39246D01*
X112256Y-39246D02*
X112256Y-39530D01*
X112256Y-39530D02*
X112055Y-39731D01*
X112055Y-39731D02*
X112055Y-40307D01*
X112476Y-39886D02*
X112476Y-39074D01*
X112476Y-39074D02*
X112256Y-38854D01*
X112256Y-38854D02*
X111727Y-38325D01*
X112444Y-38433D02*
X112422Y-38433D01*
X112422Y-38433D02*
X112281Y-38292D01*
X112444Y-38433D02*
X112542Y-38433D01*
X112542Y-38433D02*
X112640Y-38336D01*
X112476Y-39886D02*
X112444Y-39917D01*
X112444Y-39917D02*
X112444Y-38433D01*
X112444Y-38433D02*
X112553Y-38542D01*
X112553Y-38542D02*
X112728Y-38542D01*
G54D50*
X111705Y-38129D02*
X111869Y-38129D01*
X111869Y-38129D02*
X113051Y-39311D01*
X108570Y-38129D02*
X110480Y-38129D01*
X110480Y-38129D02*
X110813Y-38129D01*
X110813Y-38129D02*
X111074Y-38129D01*
X111074Y-38129D02*
X111705Y-38129D01*
X111705Y-38129D02*
X112665Y-38129D01*
X112665Y-38129D02*
X112709Y-38129D01*
X112709Y-38129D02*
X113471Y-38891D01*
G54D45*
X102307Y-37719D02*
X102307Y-37853D01*
X102307Y-37853D02*
X102583Y-38129D01*
X102307Y-37634D02*
X102307Y-37719D01*
X102307Y-37719D02*
X101952Y-38074D01*
X100039Y-37874D02*
X100118Y-37874D01*
X100118Y-37874D02*
X100318Y-38074D01*
G54D50*
X96930Y-48300D02*
X96844Y-48214D01*
X96844Y-48214D02*
X96844Y-47595D01*
X97237Y-46792D02*
X97937Y-46092D01*
X97937Y-46092D02*
X97937Y-45992D01*
X99075Y-45650D02*
X99751Y-46326D01*
X99751Y-46326D02*
X100590Y-46326D01*
X99795Y-46920D02*
X99766Y-46948D01*
X99766Y-46948D02*
X99061Y-46948D01*
X98475Y-47850D02*
X98228Y-48096D01*
X98228Y-48096D02*
X98228Y-48630D01*
X97980Y-47530D02*
X98253Y-47803D01*
X98253Y-47803D02*
X98253Y-47808D01*
G54D48*
X96844Y-48158D02*
X96844Y-47284D01*
X96844Y-47284D02*
X96860Y-47268D01*
X96860Y-47268D02*
X96860Y-47070D01*
X96860Y-47070D02*
X98660Y-45270D01*
X98660Y-45270D02*
X99622Y-45270D01*
X97306Y-47828D02*
X97174Y-47828D01*
X97174Y-47828D02*
X96844Y-48158D01*
X96844Y-48158D02*
X96844Y-57728D01*
X96844Y-57728D02*
X95942Y-58630D01*
X95942Y-58630D02*
X95876Y-58630D01*
X95876Y-58630D02*
X95876Y-58545D01*
X97125Y-59580D02*
X97125Y-59205D01*
X97125Y-59205D02*
X98228Y-58101D01*
X104645Y-46948D02*
X99061Y-46948D01*
X99061Y-46948D02*
X99015Y-46995D01*
X99015Y-46995D02*
X99015Y-47047D01*
X107251Y-45717D02*
X105032Y-45717D01*
X105032Y-45717D02*
X104940Y-45810D01*
X89539Y-62062D02*
X89402Y-62062D01*
X89402Y-62062D02*
X88910Y-61570D01*
X88910Y-61570D02*
X88910Y-59335D01*
X88910Y-59335D02*
X89700Y-58545D01*
X89700Y-58545D02*
X95876Y-58545D01*
X95876Y-58545D02*
X96930Y-58545D01*
X96930Y-58545D02*
X97438Y-58037D01*
X97438Y-58037D02*
X97438Y-47960D01*
X97438Y-47960D02*
X97306Y-47828D01*
X97306Y-47828D02*
X97306Y-47586D01*
X97306Y-47586D02*
X99622Y-45270D01*
X99622Y-45270D02*
X103180Y-45270D01*
X103180Y-45270D02*
X106170Y-45270D01*
X106170Y-45270D02*
X107220Y-45270D01*
X107220Y-45270D02*
X107667Y-45717D01*
X107667Y-45717D02*
X107251Y-45717D01*
G54D43*
X53935Y-23342D02*
X54688Y-23342D01*
X58891Y-25006D02*
X60078Y-25006D01*
X58245Y-24360D02*
X58891Y-25006D01*
X57855Y-24360D02*
X58245Y-24360D01*
X57570Y-24075D02*
X57855Y-24360D01*
X55421Y-24075D02*
X57570Y-24075D01*
X54688Y-23342D02*
X55421Y-24075D01*
G54D45*
X98163Y-38129D02*
X98768Y-38129D01*
X98768Y-38129D02*
X98822Y-38074D01*
X93999Y-37614D02*
X93999Y-37791D01*
X93999Y-37208D02*
X93999Y-37614D01*
X93999Y-37791D02*
X94337Y-38129D01*
X94337Y-38129D02*
X98163Y-38129D01*
X98163Y-38129D02*
X98181Y-38129D01*
G54D43*
X86775Y-26951D02*
X86775Y-28434D01*
X86775Y-28434D02*
X86778Y-28437D01*
X40735Y-30628D02*
X41502Y-30628D01*
X42035Y-30096D02*
X42035Y-27760D01*
X41502Y-30628D02*
X42035Y-30096D01*
X40735Y-30628D02*
X40735Y-31128D01*
X53935Y-23342D02*
X46765Y-23342D01*
X46765Y-23342D02*
X43092Y-27015D01*
X43092Y-27015D02*
X42222Y-27015D01*
X42222Y-27015D02*
X42035Y-27202D01*
X42035Y-27202D02*
X42035Y-27760D01*
G54D47*
X96588Y-59580D02*
X97125Y-59580D01*
X97125Y-59580D02*
X97702Y-59580D01*
X100590Y-46456D02*
X100590Y-46326D01*
X100460Y-46326D02*
X100590Y-46456D01*
X99736Y-46326D02*
X100460Y-46326D01*
X98228Y-47834D02*
X98253Y-47808D01*
X98253Y-47808D02*
X99015Y-47047D01*
X99015Y-47047D02*
X99736Y-46326D01*
X98228Y-59055D02*
X98228Y-58101D01*
X98228Y-58101D02*
X98228Y-47834D01*
X97702Y-59580D02*
X98228Y-59055D01*
G54D43*
X117913Y-37204D02*
X117125Y-37204D01*
G54D47*
X109251Y-43110D02*
X112055Y-40307D01*
X112055Y-40307D02*
X112476Y-39886D01*
X112476Y-39886D02*
X113051Y-39311D01*
X113051Y-39311D02*
X113708Y-38654D01*
X113708Y-38654D02*
X113471Y-38891D01*
X113471Y-38891D02*
X114268Y-38094D01*
X114268Y-38094D02*
X115157Y-37204D01*
X115157Y-37204D02*
X117125Y-37204D01*
X109251Y-43110D02*
X108933Y-43110D01*
G54D43*
X111485Y-33586D02*
X111485Y-34408D01*
X111485Y-34408D02*
X111417Y-34476D01*
X111417Y-34573D02*
X111417Y-34476D01*
X111485Y-33586D02*
X111485Y-34476D01*
X111524Y-32685D02*
X111524Y-33547D01*
X111524Y-33547D02*
X111485Y-33586D01*
X111524Y-33547D02*
X111485Y-33586D01*
G54D46*
X107251Y-46948D02*
X107251Y-45717D01*
X107251Y-45717D02*
X107251Y-46133D01*
X107251Y-46133D02*
X108933Y-44452D01*
G54D45*
X99838Y-38074D02*
X100318Y-38074D01*
X100318Y-38074D02*
X101952Y-38074D01*
X101952Y-38074D02*
X102271Y-38074D01*
G54D43*
X102271Y-38074D02*
X102389Y-38192D01*
G54D50*
X102307Y-38129D02*
X102583Y-38129D01*
X102583Y-38129D02*
X108570Y-38129D01*
G54D45*
X102307Y-36629D02*
X101988Y-36311D01*
X101988Y-36311D02*
X101988Y-34291D01*
X101988Y-34291D02*
X103192Y-33086D01*
X103192Y-33086D02*
X103884Y-33086D01*
X102307Y-38129D02*
X102307Y-37634D01*
X102307Y-37634D02*
X102307Y-36629D01*
G54D43*
X108532Y-35421D02*
X109149Y-35421D01*
X109259Y-35311D02*
X109259Y-34719D01*
X109149Y-35421D02*
X109259Y-35311D01*
X109259Y-34719D02*
X109259Y-34571D01*
G54D47*
X108933Y-44200D02*
X108933Y-44452D01*
G54D48*
X89539Y-60082D02*
X89539Y-59665D01*
X89539Y-59665D02*
X90133Y-59070D01*
X90133Y-59070D02*
X90858Y-59070D01*
X90858Y-59070D02*
X90858Y-59464D01*
X95051Y-60279D02*
X95889Y-60279D01*
X95889Y-60279D02*
X96165Y-60003D01*
X95051Y-59464D02*
X95051Y-60279D01*
X95051Y-60279D02*
X95051Y-61909D01*
X95051Y-61909D02*
X95090Y-61948D01*
X90791Y-59464D02*
X90157Y-59464D01*
X90157Y-59464D02*
X89539Y-60082D01*
X89539Y-60082D02*
X89539Y-62062D01*
G54D44*
X89877Y-62287D02*
X89877Y-60377D01*
X89877Y-60377D02*
X90791Y-59464D01*
X95425Y-62200D02*
X95425Y-60204D01*
X95425Y-60204D02*
X96165Y-59464D01*
X96165Y-59464D02*
X96165Y-60003D01*
G54D47*
X101598Y-46326D02*
X100590Y-46326D01*
X96588Y-59580D02*
X96165Y-60003D01*
X96165Y-60003D02*
X96704Y-59464D01*
X96704Y-59464D02*
X95051Y-59464D01*
X95051Y-59464D02*
X90858Y-59464D01*
X90858Y-59464D02*
X90791Y-59464D01*
G54D51*
X101598Y-46326D02*
X104023Y-46326D01*
X104645Y-46948D02*
X107251Y-46948D01*
X107251Y-46948D02*
X108933Y-46948D01*
X104023Y-46326D02*
X104645Y-46948D01*
G54D47*
X108933Y-46948D02*
X108933Y-44200D01*
X108933Y-44200D02*
X108933Y-43110D01*
G54D52*
X99098Y-34732D02*
X99109Y-34732D01*
G54D43*
X88389Y-14889D02*
X89728Y-14889D01*
X88311Y-14968D02*
X88389Y-14889D01*
X86775Y-16503D02*
X88311Y-14968D01*
X86775Y-17763D02*
X86775Y-16503D01*
X86775Y-20204D02*
X86775Y-17763D01*
X86775Y-25440D02*
X86775Y-20204D01*
X86775Y-26951D02*
X86775Y-25440D01*
X107098Y-34571D02*
X109120Y-34571D01*
X109120Y-34571D02*
X109259Y-34571D01*
X109259Y-34571D02*
X109432Y-34571D01*
X109432Y-34571D02*
X109652Y-34571D01*
X109652Y-34571D02*
X109728Y-34496D01*
X109728Y-34496D02*
X110200Y-34496D01*
X110200Y-34496D02*
X110200Y-34476D01*
G54D52*
X110200Y-34476D02*
X111417Y-34476D01*
G54D45*
X93026Y-30377D02*
X93026Y-30913D01*
X93026Y-30913D02*
X92523Y-30913D01*
X92877Y-30913D02*
X93026Y-30913D01*
X92523Y-30913D02*
X92877Y-30913D01*
X71145Y-28944D02*
X76185Y-28944D01*
X92248Y-30913D02*
X92523Y-30913D01*
G54D52*
X111417Y-34476D02*
X111485Y-34476D01*
X111524Y-33547D02*
X111485Y-33586D01*
X105968Y-34540D02*
X107066Y-34540D01*
X107066Y-34540D02*
X107098Y-34571D01*
G54D45*
X93026Y-31318D02*
X93026Y-32880D01*
X94273Y-33372D02*
X94273Y-34836D01*
X94027Y-33125D02*
X94273Y-33372D01*
X93271Y-33125D02*
X94027Y-33125D01*
X93026Y-32880D02*
X93271Y-33125D01*
X99330Y-37848D02*
X99360Y-37848D01*
X99360Y-37848D02*
X99586Y-38074D01*
X99240Y-38074D02*
X99586Y-38074D01*
X99586Y-38074D02*
X99838Y-38074D01*
X99838Y-38074D02*
X100039Y-37874D01*
X100039Y-37874D02*
X100039Y-37858D01*
X100039Y-37858D02*
X100089Y-37808D01*
X100089Y-37808D02*
X100089Y-37224D01*
X98614Y-38074D02*
X98639Y-38074D01*
X98639Y-38074D02*
X99109Y-37605D01*
X98791Y-38074D02*
X98822Y-38074D01*
X98822Y-38074D02*
X99109Y-37788D01*
X99352Y-37848D02*
X99330Y-37848D01*
X99330Y-37848D02*
X99320Y-37848D01*
X99167Y-38001D02*
X99109Y-38001D01*
X99320Y-37848D02*
X99167Y-38001D01*
X99109Y-37605D02*
X99109Y-37788D01*
X99109Y-37788D02*
X99109Y-38001D01*
X99109Y-38001D02*
X99109Y-37943D01*
X99109Y-37943D02*
X99240Y-38074D01*
X98614Y-38074D02*
X98791Y-38074D01*
X98791Y-38074D02*
X99240Y-38074D01*
X99109Y-31303D02*
X99109Y-34299D01*
X99109Y-34299D02*
X99109Y-34732D01*
X99109Y-34732D02*
X99109Y-37605D01*
X99109Y-37605D02*
X99352Y-37848D01*
X99109Y-30291D02*
X99109Y-31303D01*
X93026Y-30377D02*
X93026Y-30913D01*
X93026Y-30913D02*
X93026Y-30834D01*
X93026Y-30834D02*
X93026Y-31318D01*
X100364Y-34801D02*
X100364Y-35442D01*
X100113Y-35693D02*
X100113Y-36204D01*
X100364Y-35442D02*
X100113Y-35693D01*
X94273Y-34836D02*
X94273Y-35466D01*
X94273Y-35466D02*
X94018Y-35721D01*
X94018Y-35721D02*
X94018Y-36259D01*
X94018Y-36259D02*
X94018Y-37188D01*
X94018Y-37188D02*
X93999Y-37208D01*
X100113Y-36204D02*
X100113Y-37200D01*
X100113Y-37200D02*
X100089Y-37224D01*
G54D43*
X56646Y-26811D02*
X62439Y-26811D01*
X62439Y-26811D02*
X62583Y-26955D01*
X62583Y-26955D02*
X62583Y-26953D01*
X106538Y-32419D02*
X106614Y-32419D01*
X106614Y-32419D02*
X106718Y-32315D01*
X106448Y-32290D02*
X106448Y-32329D01*
X106448Y-32329D02*
X106538Y-32419D01*
X106538Y-32315D02*
X106718Y-32315D01*
X106718Y-32315D02*
X106987Y-32315D01*
X106987Y-32315D02*
X107011Y-32290D01*
X106538Y-32290D02*
X106538Y-32315D01*
X106538Y-32315D02*
X106538Y-32419D01*
X106538Y-32419D02*
X106538Y-33261D01*
G54D52*
X106685Y-33408D02*
X107098Y-33821D01*
G54D43*
X106538Y-33261D02*
X106685Y-33408D01*
X65556Y-27640D02*
X66712Y-27640D01*
X66906Y-27446D02*
X67077Y-27446D01*
X66712Y-27640D02*
X66906Y-27446D01*
X65556Y-27640D02*
X63270Y-27640D01*
X63270Y-27640D02*
X62583Y-26953D01*
X41285Y-27126D02*
X41285Y-27760D01*
X41751Y-26660D02*
X41285Y-27126D01*
X43000Y-26660D02*
X41751Y-26660D01*
X46872Y-22788D02*
X43000Y-26660D01*
X50208Y-22788D02*
X46872Y-22788D01*
X50210Y-22790D02*
X50208Y-22788D01*
X88763Y-23660D02*
X89070Y-23660D01*
X91660Y-20750D02*
X91657Y-20750D01*
X91660Y-21070D02*
X91660Y-20750D01*
X89070Y-23660D02*
X91660Y-21070D01*
X88750Y-23660D02*
X88763Y-23660D01*
X88480Y-23930D02*
X88750Y-23660D01*
X88480Y-26712D02*
X88480Y-23930D01*
X88431Y-26761D02*
X88480Y-26712D01*
X41285Y-27760D02*
X41285Y-28027D01*
X41219Y-29628D02*
X41300Y-29548D01*
X41300Y-29548D02*
X41300Y-28042D01*
X41219Y-29628D02*
X40735Y-29628D01*
X41285Y-28027D02*
X41300Y-28042D01*
X93311Y-17645D02*
X93232Y-17724D01*
X93232Y-18078D02*
X93232Y-17724D01*
X91657Y-19653D02*
X93232Y-18078D01*
X91657Y-19732D02*
X91657Y-19653D01*
X91657Y-20750D02*
X91657Y-19732D01*
X108114Y-34181D02*
X107754Y-33821D01*
X107754Y-33821D02*
X107098Y-33821D01*
X92051Y-35755D02*
X92051Y-39023D01*
X92051Y-39023D02*
X92555Y-39527D01*
X92555Y-39527D02*
X93287Y-39527D01*
X92051Y-34102D02*
X92051Y-35755D01*
G54D45*
X70437Y-26779D02*
X73862Y-26779D01*
G54D52*
X105968Y-32290D02*
X106448Y-32290D01*
X106448Y-32290D02*
X106538Y-32290D01*
G54D43*
X45459Y-40390D02*
X45459Y-40191D01*
X45606Y-39810D02*
X45459Y-39663D01*
X45606Y-40044D02*
X45606Y-39810D01*
X45459Y-40191D02*
X45606Y-40044D01*
X50522Y-35597D02*
X50546Y-35597D01*
X50546Y-35597D02*
X50657Y-35487D01*
X50657Y-35219D02*
X50657Y-35487D01*
X50657Y-35487D02*
X50657Y-35523D01*
X50657Y-35523D02*
X50752Y-35618D01*
X48255Y-45988D02*
X48634Y-45988D01*
X48828Y-45795D02*
X48828Y-45798D01*
X48634Y-45988D02*
X48828Y-45795D01*
X47656Y-46111D02*
X47656Y-46063D01*
X47656Y-46063D02*
X47731Y-45988D01*
X47565Y-45988D02*
X47565Y-46020D01*
X47565Y-46020D02*
X47656Y-46111D01*
X47524Y-45988D02*
X47565Y-45988D01*
X47565Y-45988D02*
X47580Y-45988D01*
X47580Y-45988D02*
X47656Y-45913D01*
X50522Y-35597D02*
X50543Y-35618D01*
X49892Y-35618D02*
X50358Y-35618D01*
X50358Y-35618D02*
X50543Y-35618D01*
X50543Y-35618D02*
X50752Y-35618D01*
X50752Y-35618D02*
X50805Y-35618D01*
X60183Y-30821D02*
X60183Y-28506D01*
X59829Y-31176D02*
X60183Y-30821D01*
X56444Y-31176D02*
X59829Y-31176D01*
X55590Y-32030D02*
X56444Y-31176D01*
X55590Y-33060D02*
X55590Y-32030D01*
X54820Y-33830D02*
X55590Y-33060D01*
X52594Y-33830D02*
X54820Y-33830D01*
X50805Y-35618D02*
X52594Y-33830D01*
X47180Y-43560D02*
X47984Y-43560D01*
X49007Y-45619D02*
X48828Y-45798D01*
X49007Y-44583D02*
X49007Y-45619D01*
X47984Y-43560D02*
X49007Y-44583D01*
X45450Y-41490D02*
X45459Y-41490D01*
X45450Y-41650D02*
X45450Y-41490D01*
X46580Y-42780D02*
X45450Y-41650D01*
X46580Y-43280D02*
X46580Y-42780D01*
X46860Y-43560D02*
X46580Y-43280D01*
X47180Y-43560D02*
X46860Y-43560D01*
X47943Y-45988D02*
X47731Y-45988D01*
X48255Y-45988D02*
X47943Y-45988D01*
X47656Y-46143D02*
X47656Y-46111D01*
X47656Y-46111D02*
X47656Y-45913D01*
X47656Y-45913D02*
X47649Y-45906D01*
X46215Y-47220D02*
X46608Y-47220D01*
X47656Y-46935D02*
X47656Y-46143D01*
X47656Y-46143D02*
X47656Y-46053D01*
X47376Y-47215D02*
X47656Y-46935D01*
X46613Y-47215D02*
X47376Y-47215D01*
X46608Y-47220D02*
X46613Y-47215D01*
X47649Y-45595D02*
X47649Y-45906D01*
X47649Y-45906D02*
X47731Y-45988D01*
X48539Y-35618D02*
X47931Y-35618D01*
X45459Y-37904D02*
X45459Y-39663D01*
X45644Y-37719D02*
X45459Y-37904D01*
X45644Y-36725D02*
X45644Y-37719D01*
X46333Y-36036D02*
X45644Y-36725D01*
X47514Y-36036D02*
X46333Y-36036D01*
X47931Y-35618D02*
X47514Y-36036D01*
X45459Y-40390D02*
X45459Y-41490D01*
X47731Y-45988D02*
X47524Y-45988D01*
X47524Y-45988D02*
X46285Y-45988D01*
X45459Y-41490D02*
X45459Y-41619D01*
X48539Y-35618D02*
X49892Y-35618D01*
X41544Y-23202D02*
X41508Y-23166D01*
X41508Y-23166D02*
X41508Y-22902D01*
X41381Y-22469D02*
X41381Y-22803D01*
X41481Y-22902D02*
X41508Y-22902D01*
X41508Y-22902D02*
X42496Y-22902D01*
X41381Y-22803D02*
X41481Y-22902D01*
X34010Y-28310D02*
X36378Y-28310D01*
X36378Y-28310D02*
X37922Y-28310D01*
X37360Y-41580D02*
X37360Y-41658D01*
X37485Y-41783D02*
X39382Y-41783D01*
X37360Y-41658D02*
X37485Y-41783D01*
X37360Y-41370D02*
X37360Y-41580D01*
X37360Y-41370D02*
X37360Y-40750D01*
X44874Y-42742D02*
X44874Y-43193D01*
X44874Y-43193D02*
X43926Y-44141D01*
X43926Y-44141D02*
X42503Y-44141D01*
X42503Y-44141D02*
X42368Y-44006D01*
X42368Y-44006D02*
X41643Y-44006D01*
X41643Y-44006D02*
X41409Y-44240D01*
X41409Y-44240D02*
X40001Y-44240D01*
X44874Y-42742D02*
X44874Y-42367D01*
X44132Y-40392D02*
X44100Y-40360D01*
X44761Y-40392D02*
X44132Y-40392D01*
X44958Y-40589D02*
X44761Y-40392D01*
X44958Y-42283D02*
X44958Y-40589D01*
X44874Y-42367D02*
X44958Y-42283D01*
G54D50*
X129375Y-52799D02*
X129549Y-52972D01*
X129549Y-52972D02*
X129549Y-53998D01*
X128229Y-53945D02*
X128190Y-53985D01*
X128190Y-53985D02*
X128190Y-55380D01*
X126712Y-55462D02*
X126462Y-55712D01*
X126462Y-55712D02*
X126462Y-57107D01*
X125355Y-57150D02*
X125312Y-57107D01*
X125312Y-57107D02*
X124365Y-57107D01*
G54D46*
X129353Y-52799D02*
X129353Y-53340D01*
X129353Y-53340D02*
X128499Y-54194D01*
X125277Y-57107D02*
X126462Y-57107D01*
X126462Y-57107D02*
X128190Y-55380D01*
X128190Y-55380D02*
X128190Y-55357D01*
X128190Y-55357D02*
X130748Y-52799D01*
G54D43*
X100056Y-54348D02*
X100324Y-54348D01*
X100038Y-54330D02*
X100056Y-54348D01*
X100940Y-54964D02*
X100940Y-54965D01*
X100940Y-54965D02*
X102315Y-56340D01*
X102315Y-56340D02*
X102315Y-57170D01*
X102315Y-58264D02*
X103953Y-59902D01*
X121755Y-59645D02*
X122364Y-59036D01*
X122364Y-59036D02*
X122364Y-57107D01*
X102315Y-57170D02*
X102315Y-58264D01*
X103953Y-59913D02*
X104430Y-60390D01*
X104430Y-60390D02*
X121005Y-60390D01*
X121005Y-60390D02*
X121755Y-59640D01*
X121755Y-59640D02*
X121755Y-59645D01*
X103953Y-59902D02*
X103953Y-59913D01*
X100324Y-54348D02*
X100940Y-54964D01*
X90685Y-54345D02*
X93840Y-54345D01*
X90590Y-54250D02*
X90685Y-54345D01*
X66878Y-54250D02*
X90590Y-54250D01*
X64650Y-52022D02*
X66878Y-54250D01*
X64650Y-45840D02*
X64650Y-52022D01*
X62040Y-43230D02*
X64650Y-45840D01*
X62040Y-40840D02*
X62040Y-43230D01*
X61145Y-39945D02*
X62040Y-40840D01*
X58455Y-39945D02*
X61145Y-39945D01*
X57285Y-38775D02*
X58455Y-39945D01*
X57285Y-37575D02*
X57285Y-38775D01*
X57074Y-37364D02*
X57285Y-37575D01*
X56793Y-37364D02*
X57074Y-37364D01*
X56791Y-37366D02*
X56793Y-37364D01*
X50975Y-37555D02*
X54929Y-37555D01*
X50090Y-36670D02*
X50975Y-37555D01*
X48539Y-34618D02*
X49073Y-34618D01*
X49394Y-34308D02*
X49494Y-34308D01*
X49299Y-34403D02*
X49394Y-34308D01*
X49289Y-34403D02*
X49299Y-34403D01*
X49073Y-34618D02*
X49289Y-34403D01*
G54D47*
X122364Y-57107D02*
X125277Y-57107D01*
X128580Y-52799D02*
X129353Y-52799D01*
X129353Y-52799D02*
X130748Y-52799D01*
X127710Y-53670D02*
X128580Y-52799D01*
X127710Y-54675D02*
X127710Y-53670D01*
X125277Y-57107D02*
X127710Y-54675D01*
G54D46*
X134085Y-46850D02*
X126755Y-46850D01*
X126755Y-46850D02*
X126615Y-46710D01*
X128055Y-48150D02*
X131445Y-48150D01*
X131445Y-48150D02*
X131685Y-47910D01*
X127147Y-47242D02*
X131892Y-47242D01*
X131892Y-47242D02*
X132400Y-47750D01*
X132400Y-48575D02*
X128725Y-48575D01*
X128725Y-48575D02*
X128025Y-49275D01*
X129247Y-49342D02*
X131632Y-49342D01*
X131632Y-49342D02*
X132400Y-48575D01*
X130740Y-50244D02*
X130149Y-50244D01*
X130149Y-50244D02*
X129247Y-49342D01*
X129247Y-49342D02*
X129080Y-49175D01*
X125940Y-47385D02*
X126135Y-47385D01*
X126135Y-47385D02*
X128025Y-49275D01*
X128025Y-49275D02*
X128220Y-49470D01*
X126615Y-46710D02*
X125940Y-47385D01*
X125940Y-47385D02*
X125236Y-48088D01*
X125236Y-48088D02*
X125518Y-48088D01*
X125518Y-48088D02*
X126900Y-49470D01*
X126900Y-49470D02*
X128220Y-49470D01*
X128220Y-49470D02*
X128265Y-49470D01*
X128265Y-49470D02*
X128385Y-49350D01*
X125211Y-43678D02*
X125211Y-45306D01*
X125211Y-45306D02*
X126615Y-46710D01*
X126615Y-46710D02*
X127147Y-47242D01*
X127147Y-47242D02*
X128055Y-48150D01*
X128055Y-48150D02*
X129080Y-49175D01*
X129080Y-49175D02*
X129080Y-50244D01*
X137970Y-46850D02*
X137970Y-46575D01*
X137970Y-46575D02*
X141120Y-43425D01*
X141120Y-43425D02*
X142145Y-43425D01*
X142145Y-43425D02*
X143047Y-44326D01*
G54D43*
X45120Y-45498D02*
X45120Y-45534D01*
X45120Y-45534D02*
X45036Y-45618D01*
X45036Y-45618D02*
X45036Y-45698D01*
X45222Y-45498D02*
X45120Y-45498D01*
X45120Y-45498D02*
X44968Y-45346D01*
X44968Y-45498D02*
X45222Y-45498D01*
X45222Y-45498D02*
X45236Y-45498D01*
X45236Y-45498D02*
X45245Y-45488D01*
G54D52*
X48659Y-40595D02*
X48780Y-40716D01*
X48659Y-40248D02*
X48659Y-40595D01*
X48641Y-40230D02*
X48659Y-40248D01*
G54D43*
X122367Y-51498D02*
X120717Y-51498D01*
X48660Y-43260D02*
X51635Y-46235D01*
X51635Y-46235D02*
X58115Y-46235D01*
X58115Y-46235D02*
X66645Y-54765D01*
X66645Y-54765D02*
X83651Y-54765D01*
X83651Y-54765D02*
X83930Y-55044D01*
X83930Y-55044D02*
X92290Y-55044D01*
X48660Y-43260D02*
X48590Y-43260D01*
X92594Y-55044D02*
X92290Y-55044D01*
X92600Y-55050D02*
X92594Y-55044D01*
X120717Y-51498D02*
X119900Y-52316D01*
X48539Y-35118D02*
X49166Y-35118D01*
G54D52*
X48590Y-43260D02*
X48780Y-43070D01*
X48780Y-43070D02*
X48780Y-40716D01*
G54D43*
X49166Y-35118D02*
X49266Y-35019D01*
X49266Y-35019D02*
X49266Y-34950D01*
X49266Y-34950D02*
X49332Y-34884D01*
X49332Y-34884D02*
X49518Y-34884D01*
G54D52*
X44968Y-45725D02*
X44968Y-45498D01*
X44968Y-45498D02*
X44968Y-45346D01*
X44968Y-45346D02*
X44968Y-43642D01*
X44968Y-43642D02*
X45300Y-43310D01*
X45300Y-43310D02*
X45840Y-43310D01*
X47007Y-43182D02*
X47085Y-43260D01*
X47085Y-43260D02*
X48590Y-43260D01*
G54D43*
X46285Y-45488D02*
X45245Y-45488D01*
X45148Y-47220D02*
X45465Y-47220D01*
X44968Y-47040D02*
X45148Y-47220D01*
X44968Y-45766D02*
X44968Y-45725D01*
X44968Y-45725D02*
X44968Y-47040D01*
X45245Y-45488D02*
X45036Y-45698D01*
X45036Y-45698D02*
X44968Y-45766D01*
G54D47*
X123621Y-50244D02*
X123673Y-50244D01*
X123673Y-50244D02*
X125240Y-48677D01*
X125196Y-41090D02*
X125211Y-43678D01*
X125211Y-43678D02*
X125240Y-48677D01*
X125240Y-48677D02*
X125240Y-49251D01*
X125240Y-49251D02*
X126232Y-50244D01*
G54D45*
X143047Y-44326D02*
X146551Y-44326D01*
X146551Y-44326D02*
X146570Y-44346D01*
G54D47*
X130740Y-50244D02*
X131505Y-50244D01*
X141551Y-44326D02*
X143047Y-44326D01*
X141350Y-44528D02*
X141551Y-44326D01*
X141350Y-44550D02*
X141350Y-44528D01*
X139050Y-46850D02*
X141350Y-44550D01*
X133300Y-46850D02*
X134085Y-46850D01*
X134085Y-46850D02*
X137970Y-46850D01*
X137970Y-46850D02*
X139050Y-46850D01*
X132400Y-47750D02*
X133300Y-46850D01*
X132400Y-49350D02*
X132400Y-48575D01*
X132400Y-48575D02*
X132400Y-47750D01*
X131505Y-50244D02*
X132400Y-49350D01*
X122367Y-53508D02*
X122367Y-51498D01*
X123621Y-50244D02*
X126232Y-50244D01*
X126232Y-50244D02*
X129080Y-50244D01*
X129080Y-50244D02*
X130740Y-50244D01*
X122367Y-51498D02*
X123621Y-50244D01*
G54D45*
X148413Y-45527D02*
X148413Y-46905D01*
X148649Y-47141D02*
X149652Y-47141D01*
X148413Y-46905D02*
X148649Y-47141D01*
X148413Y-44346D02*
X148413Y-45527D01*
X148570Y-45685D02*
X149180Y-45685D01*
X148413Y-45527D02*
X148570Y-45685D01*
X149180Y-44346D02*
X148413Y-44346D01*
X148413Y-44346D02*
X146570Y-44346D01*
X146570Y-44346D02*
X146484Y-44346D01*
G54D43*
X33152Y-33854D02*
X33336Y-33854D01*
X33336Y-33854D02*
X33649Y-34167D01*
X33649Y-34167D02*
X34095Y-34167D01*
X34095Y-34167D02*
X34333Y-34405D01*
X34333Y-34405D02*
X34468Y-34405D01*
X32860Y-33840D02*
X32874Y-33854D01*
X32874Y-33854D02*
X33152Y-33854D01*
X42457Y-32567D02*
X42228Y-32796D01*
X42228Y-32796D02*
X39956Y-32796D01*
X45369Y-31923D02*
X43101Y-31923D01*
X43101Y-31923D02*
X42457Y-32567D01*
X53645Y-32145D02*
X54156Y-32145D01*
X52155Y-31367D02*
X52867Y-31367D01*
X57176Y-32133D02*
X57844Y-32133D01*
X57120Y-32190D02*
X57176Y-32133D01*
X52867Y-31367D02*
X53645Y-32145D01*
X66540Y-52750D02*
X67410Y-53620D01*
X67410Y-53620D02*
X90895Y-53620D01*
X61560Y-33000D02*
X61560Y-33015D01*
X60930Y-32370D02*
X61560Y-33000D01*
X58081Y-32370D02*
X60930Y-32370D01*
X57844Y-32133D02*
X58081Y-32370D01*
X49014Y-31694D02*
X49014Y-31676D01*
X48785Y-31923D02*
X49014Y-31694D01*
X45369Y-31923D02*
X48785Y-31923D01*
X49014Y-31676D02*
X49323Y-31367D01*
X49323Y-31367D02*
X52155Y-31367D01*
X40735Y-30128D02*
X39101Y-30128D01*
X38619Y-30611D02*
X38619Y-31024D01*
X39101Y-30128D02*
X38619Y-30611D01*
X36267Y-35994D02*
X36186Y-35994D01*
X35868Y-40242D02*
X35360Y-40750D01*
X35868Y-39158D02*
X35868Y-40242D01*
X35756Y-39046D02*
X35868Y-39158D01*
X35756Y-36424D02*
X35756Y-39046D01*
X36186Y-35994D02*
X35756Y-36424D01*
X37758Y-33906D02*
X37769Y-33917D01*
X37758Y-33732D02*
X37758Y-33906D01*
X37373Y-35994D02*
X36267Y-35994D01*
X37576Y-35791D02*
X37373Y-35994D01*
X37576Y-35537D02*
X37576Y-35791D01*
X37571Y-35532D02*
X37576Y-35537D01*
X45849Y-31424D02*
X43021Y-31424D01*
X43021Y-31424D02*
X42013Y-32432D01*
X42013Y-32432D02*
X39382Y-32432D01*
X39382Y-32432D02*
X39381Y-32431D01*
X39381Y-32431D02*
X37929Y-32431D01*
X37929Y-32431D02*
X37758Y-32602D01*
X37758Y-32602D02*
X37758Y-33732D01*
X37758Y-33732D02*
X37758Y-33796D01*
X49530Y-30715D02*
X49335Y-30715D01*
X48626Y-31424D02*
X45849Y-31424D01*
X45849Y-31424D02*
X45819Y-31424D01*
X49335Y-30715D02*
X48626Y-31424D01*
X49997Y-30584D02*
X50010Y-30584D01*
X52899Y-29820D02*
X52890Y-29820D01*
X52899Y-30184D02*
X52899Y-29820D01*
X52654Y-30429D02*
X52899Y-30184D01*
X50166Y-30429D02*
X52654Y-30429D01*
X50010Y-30584D02*
X50166Y-30429D01*
X49530Y-30715D02*
X49867Y-30715D01*
X52890Y-29820D02*
X52890Y-29436D01*
X49867Y-30715D02*
X49997Y-30584D01*
X35316Y-40601D02*
X35320Y-40597D01*
X34418Y-32508D02*
X34418Y-32532D01*
X34418Y-32532D02*
X34534Y-32648D01*
X34534Y-32648D02*
X34732Y-32648D01*
X34732Y-32648D02*
X34799Y-32715D01*
X32261Y-32022D02*
X32238Y-32045D01*
X32238Y-32045D02*
X32238Y-32070D01*
X32238Y-32070D02*
X32466Y-32298D01*
X32466Y-32298D02*
X34208Y-32298D01*
X34208Y-32298D02*
X34418Y-32508D01*
X150814Y-47181D02*
X150901Y-47181D01*
X150901Y-47181D02*
X151051Y-47331D01*
X150342Y-45685D02*
X150342Y-45699D01*
X150342Y-45699D02*
X150539Y-45896D01*
X57046Y-46550D02*
X57820Y-46550D01*
X66512Y-55242D02*
X82647Y-55242D01*
X57820Y-46550D02*
X66512Y-55242D01*
X151249Y-47992D02*
X151249Y-48047D01*
X151249Y-48047D02*
X151366Y-48164D01*
X46285Y-44988D02*
X46833Y-44988D01*
X151249Y-47992D02*
X151366Y-47874D01*
X147735Y-47992D02*
X151249Y-47992D01*
X147035Y-47292D02*
X147735Y-47992D01*
X146681Y-47292D02*
X147035Y-47292D01*
X146674Y-47285D02*
X146681Y-47292D01*
X83160Y-55755D02*
X93100Y-55755D01*
X82647Y-55242D02*
X83160Y-55755D01*
X51050Y-46550D02*
X57046Y-46550D01*
X50475Y-45975D02*
X51050Y-46550D01*
X48461Y-44699D02*
X48461Y-45325D01*
X47970Y-44208D02*
X48461Y-44699D01*
X46965Y-44484D02*
X47061Y-44388D01*
X46965Y-44857D02*
X46965Y-44484D01*
X46833Y-44988D02*
X46965Y-44857D01*
G54D45*
X151051Y-46944D02*
X151051Y-47331D01*
X151051Y-47331D02*
X151051Y-47417D01*
X151051Y-47417D02*
X151366Y-47732D01*
X151366Y-47732D02*
X151366Y-47874D01*
X151366Y-48459D02*
X151326Y-48499D01*
X151366Y-48164D02*
X151366Y-48459D01*
X151366Y-47874D02*
X151366Y-48164D01*
X150539Y-45488D02*
X150539Y-45896D01*
X150539Y-45896D02*
X150539Y-46039D01*
X150539Y-46039D02*
X151051Y-46551D01*
X151051Y-46551D02*
X151051Y-46944D01*
X150441Y-47181D02*
X150402Y-47141D01*
X150814Y-47181D02*
X150441Y-47181D01*
X151051Y-46944D02*
X150814Y-47181D01*
X149930Y-44346D02*
X150381Y-44346D01*
X150342Y-45685D02*
X149930Y-45685D01*
X150539Y-45488D02*
X150342Y-45685D01*
X150539Y-44503D02*
X150539Y-45488D01*
X150381Y-44346D02*
X150539Y-44503D01*
G54D43*
X40516Y-41233D02*
X40247Y-41233D01*
X36360Y-42040D02*
X36360Y-40750D01*
X36557Y-42237D02*
X36360Y-42040D01*
X39810Y-42237D02*
X36557Y-42237D01*
X39960Y-42087D02*
X39810Y-42237D01*
X39960Y-41520D02*
X39960Y-42087D01*
X40247Y-41233D02*
X39960Y-41520D01*
X40516Y-41233D02*
X40966Y-41225D01*
X40966Y-41225D02*
X41286Y-40905D01*
X41286Y-40905D02*
X41855Y-40905D01*
X41855Y-40905D02*
X41900Y-40860D01*
X45210Y-40221D02*
X45210Y-40140D01*
X45336Y-39846D02*
X45210Y-39720D01*
X45336Y-40014D02*
X45336Y-39846D01*
X45210Y-40140D02*
X45336Y-40014D01*
X47787Y-33993D02*
X47787Y-33997D01*
X47787Y-33997D02*
X47907Y-34118D01*
X47787Y-34239D02*
X47787Y-33993D01*
X47787Y-33993D02*
X47787Y-33910D01*
X50657Y-34011D02*
X50657Y-34469D01*
X50428Y-33782D02*
X50657Y-34011D01*
X47915Y-33782D02*
X50428Y-33782D01*
X47787Y-33910D02*
X47915Y-33782D01*
X62183Y-28506D02*
X62183Y-28485D01*
X62183Y-28485D02*
X61271Y-27573D01*
X61271Y-27573D02*
X59457Y-27573D01*
X59457Y-27573D02*
X58950Y-28080D01*
X58950Y-28080D02*
X58950Y-30546D01*
X58950Y-30546D02*
X58581Y-30915D01*
X58581Y-30915D02*
X56025Y-30915D01*
X56025Y-30915D02*
X54992Y-31948D01*
X54992Y-31948D02*
X54992Y-33152D01*
X54992Y-33152D02*
X54572Y-33572D01*
X54572Y-33572D02*
X52360Y-33572D01*
X52360Y-33572D02*
X51467Y-34465D01*
X51467Y-34465D02*
X50657Y-34469D01*
X46285Y-43965D02*
X47295Y-43965D01*
X47649Y-44319D02*
X47649Y-44845D01*
X47295Y-43965D02*
X47649Y-44319D01*
X45786Y-36161D02*
X45766Y-36161D01*
X47787Y-34239D02*
X47787Y-35323D01*
X47787Y-35323D02*
X47389Y-35721D01*
X47389Y-35721D02*
X46227Y-35721D01*
X46227Y-35721D02*
X45786Y-36161D01*
X45766Y-36161D02*
X45310Y-36618D01*
X45310Y-36618D02*
X45310Y-37619D01*
X45310Y-37619D02*
X45210Y-37719D01*
X45210Y-37719D02*
X45210Y-39720D01*
X46285Y-42831D02*
X46285Y-43965D01*
X46285Y-43965D02*
X46285Y-44488D01*
X45210Y-41756D02*
X46285Y-42831D01*
X45210Y-40221D02*
X45210Y-41756D01*
X48539Y-34118D02*
X47907Y-34118D01*
X47907Y-34118D02*
X47787Y-34239D01*
G54D45*
X37494Y-22250D02*
X37491Y-22250D01*
X37491Y-22250D02*
X37215Y-21974D01*
X36972Y-22250D02*
X36972Y-22217D01*
X36972Y-22217D02*
X37215Y-21974D01*
X37215Y-22250D02*
X37215Y-21974D01*
X37215Y-21974D02*
X37215Y-21465D01*
X38205Y-21090D02*
X38345Y-20950D01*
X37590Y-21090D02*
X38205Y-21090D01*
X37215Y-21465D02*
X37590Y-21090D01*
X38345Y-20950D02*
X38345Y-19985D01*
X36500Y-22250D02*
X36972Y-22250D01*
X36972Y-22250D02*
X37215Y-22250D01*
X37215Y-22250D02*
X37494Y-22250D01*
X37494Y-22250D02*
X37915Y-22250D01*
X37915Y-22250D02*
X37930Y-22265D01*
G54D43*
X32430Y-25934D02*
X32306Y-25934D01*
X28170Y-32020D02*
X23090Y-37100D01*
X28170Y-30070D02*
X28170Y-32020D01*
X32306Y-25934D02*
X28170Y-30070D01*
X23090Y-37100D02*
X23090Y-38049D01*
X23090Y-38049D02*
X23338Y-38297D01*
X32430Y-25934D02*
X33921Y-25934D01*
G54D45*
X28688Y-22836D02*
X28688Y-24153D01*
X28513Y-22661D02*
X28688Y-22836D01*
X27940Y-22661D02*
X28513Y-22661D01*
X35500Y-21310D02*
X35500Y-20230D01*
X36280Y-20050D02*
X36345Y-19985D01*
X35680Y-20050D02*
X36280Y-20050D01*
X35500Y-20230D02*
X35680Y-20050D01*
X35500Y-22250D02*
X35500Y-21310D01*
G54D43*
X27360Y-41752D02*
X27360Y-40750D01*
X27566Y-41958D02*
X27360Y-41752D01*
X28038Y-41958D02*
X27566Y-41958D01*
X28740Y-42660D02*
X28038Y-41958D01*
X26362Y-41765D02*
X26360Y-41763D01*
X26362Y-41916D02*
X26362Y-41765D01*
X26971Y-42525D02*
X26362Y-41916D01*
X26360Y-40750D02*
X26360Y-41763D01*
X31360Y-41688D02*
X31360Y-42358D01*
X31360Y-42358D02*
X31442Y-42440D01*
X31360Y-41688D02*
X31360Y-40750D01*
X59115Y-56474D02*
X59115Y-48965D01*
X61083Y-58442D02*
X59115Y-56474D01*
X48636Y-48020D02*
X48643Y-48027D01*
X48643Y-48027D02*
X58561Y-48027D01*
X58561Y-48027D02*
X59107Y-48573D01*
X59107Y-48573D02*
X59107Y-48957D01*
X59107Y-48957D02*
X59115Y-48965D01*
X47005Y-22211D02*
X50074Y-22211D01*
X50281Y-22004D02*
X50281Y-21987D01*
X50074Y-22211D02*
X50281Y-22004D01*
X32405Y-26817D02*
X32170Y-26817D01*
X27462Y-35868D02*
X26865Y-36465D01*
X28947Y-35868D02*
X27462Y-35868D01*
X29115Y-35700D02*
X28947Y-35868D01*
X29115Y-34425D02*
X29115Y-35700D01*
X29820Y-33720D02*
X29115Y-34425D01*
X29820Y-28798D02*
X29820Y-33720D01*
X31143Y-27475D02*
X29820Y-28798D01*
X31512Y-27475D02*
X31143Y-27475D01*
X32170Y-26817D02*
X31512Y-27475D01*
X33908Y-26817D02*
X32405Y-26817D01*
X39795Y-27104D02*
X34188Y-27104D01*
X33908Y-26824D02*
X33908Y-26817D01*
X34188Y-27104D02*
X33908Y-26824D01*
X36891Y-33530D02*
X36891Y-33957D01*
X30765Y-30996D02*
X30765Y-31102D01*
X30765Y-31102D02*
X31240Y-31577D01*
X31240Y-31577D02*
X34034Y-31577D01*
X34034Y-31577D02*
X34587Y-32130D01*
X34587Y-32130D02*
X36512Y-32130D01*
X36512Y-32130D02*
X36891Y-32509D01*
X36891Y-32509D02*
X36891Y-33530D01*
X39295Y-28720D02*
X39270Y-28720D01*
X30765Y-29344D02*
X30765Y-30996D01*
X31150Y-28959D02*
X30765Y-29344D01*
X39032Y-28959D02*
X31150Y-28959D01*
X39270Y-28720D02*
X39032Y-28959D01*
X39295Y-28720D02*
X39550Y-28466D01*
X61350Y-19500D02*
X61350Y-19470D01*
X62730Y-20880D02*
X61350Y-19500D01*
X66020Y-20916D02*
X65529Y-20916D01*
X66596Y-20340D02*
X66020Y-20916D01*
X43890Y-25326D02*
X47005Y-22211D01*
X42392Y-25326D02*
X43890Y-25326D01*
X42056Y-25662D02*
X42392Y-25326D01*
X41454Y-25662D02*
X42056Y-25662D01*
X40012Y-27104D02*
X41454Y-25662D01*
X39708Y-27104D02*
X39795Y-27104D01*
X39795Y-27104D02*
X40012Y-27104D01*
X39550Y-27262D02*
X39708Y-27104D01*
X39550Y-28466D02*
X39550Y-27262D01*
X36891Y-33957D02*
X37265Y-34331D01*
X37265Y-34331D02*
X38131Y-34331D01*
X36032Y-36999D02*
X36032Y-36803D01*
X36032Y-36803D02*
X36412Y-36423D01*
X36412Y-36423D02*
X37652Y-36423D01*
X37652Y-36423D02*
X38363Y-35712D01*
X38363Y-35712D02*
X38363Y-35459D01*
X38131Y-34331D02*
X38505Y-34705D01*
X36032Y-36999D02*
X36032Y-38372D01*
X36032Y-38372D02*
X36216Y-38556D01*
X38505Y-35317D02*
X38505Y-34705D01*
X38363Y-35459D02*
X38505Y-35317D01*
X39560Y-38800D02*
X39316Y-38556D01*
X36216Y-38556D02*
X39316Y-38556D01*
X70680Y-27333D02*
X69673Y-27333D01*
X40820Y-18648D02*
X40820Y-18650D01*
X41265Y-18648D02*
X40820Y-18648D01*
X41742Y-19125D02*
X41265Y-18648D01*
X52620Y-19125D02*
X41742Y-19125D01*
X55429Y-21934D02*
X52620Y-19125D01*
X56342Y-21934D02*
X55429Y-21934D01*
X57728Y-23320D02*
X56342Y-21934D01*
X58220Y-23320D02*
X57728Y-23320D01*
X58506Y-23606D02*
X58220Y-23320D01*
X63196Y-23606D02*
X58506Y-23606D01*
X65389Y-25799D02*
X63196Y-23606D01*
X65389Y-25911D02*
X65389Y-25799D01*
X65390Y-25910D02*
X65389Y-25911D01*
X68250Y-25910D02*
X65390Y-25910D01*
X69673Y-27333D02*
X68250Y-25910D01*
X31220Y-25970D02*
X31220Y-25960D01*
X31220Y-25960D02*
X31360Y-25820D01*
X31360Y-25820D02*
X31360Y-24440D01*
X31360Y-24440D02*
X31635Y-24165D01*
X31635Y-24165D02*
X31635Y-21285D01*
X31635Y-21285D02*
X33736Y-19184D01*
X33736Y-19184D02*
X35825Y-19184D01*
X35825Y-19184D02*
X36127Y-18882D01*
X36127Y-18882D02*
X36554Y-18882D01*
X36554Y-18882D02*
X36648Y-18788D01*
X36648Y-18788D02*
X37332Y-18788D01*
X37332Y-18788D02*
X37470Y-18650D01*
X37470Y-18650D02*
X40820Y-18650D01*
X23662Y-35578D02*
X23665Y-35578D01*
X31210Y-25970D02*
X31220Y-25970D01*
X27440Y-29740D02*
X31210Y-25970D01*
X27440Y-31804D02*
X27440Y-29740D01*
X23665Y-35578D02*
X27440Y-31804D01*
X23709Y-35532D02*
X23730Y-35532D01*
X23338Y-35903D02*
X23662Y-35578D01*
X23662Y-35578D02*
X23709Y-35532D01*
X30527Y-35476D02*
X30044Y-34993D01*
X30527Y-35966D02*
X30527Y-35476D01*
X30540Y-35979D02*
X30527Y-35966D01*
X74625Y-27336D02*
X74622Y-27333D01*
X74622Y-27333D02*
X70680Y-27333D01*
X70680Y-27333D02*
X70592Y-27333D01*
G54D52*
X89510Y-23860D02*
X89510Y-26900D01*
X89089Y-27321D02*
X88529Y-27321D01*
X89510Y-26900D02*
X89089Y-27321D01*
X91113Y-22257D02*
X89510Y-23860D01*
X91767Y-22257D02*
X91113Y-22257D01*
X91782Y-22242D02*
X91767Y-22257D01*
G54D43*
X70854Y-27810D02*
X69600Y-27810D01*
X43971Y-18400D02*
X43620Y-18400D01*
X43981Y-18410D02*
X43971Y-18400D01*
X45604Y-19638D02*
X45180Y-19638D01*
X45772Y-19470D02*
X45604Y-19638D01*
X52560Y-19470D02*
X45772Y-19470D01*
X55305Y-22215D02*
X52560Y-19470D01*
X56220Y-22215D02*
X55305Y-22215D01*
X57605Y-23600D02*
X56220Y-22215D01*
X58098Y-23600D02*
X57605Y-23600D01*
X58339Y-23841D02*
X58098Y-23600D01*
X63111Y-23841D02*
X58339Y-23841D01*
X64841Y-25571D02*
X63111Y-23841D01*
X64841Y-25848D02*
X64841Y-25571D01*
X65213Y-26220D02*
X64841Y-25848D01*
X68010Y-26220D02*
X65213Y-26220D01*
X69600Y-27810D02*
X68010Y-26220D01*
X30741Y-25839D02*
X30741Y-25836D01*
X22288Y-41111D02*
X22065Y-40888D01*
X22065Y-40888D02*
X22065Y-36675D01*
X22065Y-36675D02*
X27010Y-31730D01*
X27010Y-31730D02*
X27010Y-29570D01*
X27010Y-29570D02*
X30741Y-25839D01*
X31335Y-24000D02*
X31335Y-21090D01*
X31335Y-21090D02*
X33457Y-18968D01*
X33457Y-18968D02*
X35712Y-18968D01*
X35712Y-18968D02*
X36004Y-18676D01*
X36004Y-18676D02*
X36428Y-18676D01*
X36428Y-18676D02*
X36540Y-18564D01*
X36540Y-18564D02*
X37221Y-18564D01*
X37221Y-18564D02*
X37385Y-18400D01*
X37385Y-18400D02*
X43620Y-18400D01*
X30741Y-25836D02*
X31045Y-25532D01*
X31045Y-25532D02*
X31045Y-24290D01*
X31045Y-24290D02*
X31335Y-24000D01*
X75140Y-27812D02*
X75138Y-27810D01*
X75138Y-27810D02*
X70854Y-27810D01*
X70854Y-27810D02*
X70834Y-27810D01*
X70834Y-27810D02*
X70798Y-27846D01*
X43620Y-18400D02*
X43700Y-18400D01*
X28360Y-40750D02*
X28360Y-40627D01*
X26865Y-41603D02*
X26816Y-41652D01*
X26865Y-40433D02*
X26865Y-41603D01*
X27055Y-40243D02*
X26865Y-40433D01*
X27976Y-40243D02*
X27055Y-40243D01*
X28360Y-40627D02*
X27976Y-40243D01*
G54D52*
X89820Y-24740D02*
X89820Y-27450D01*
X89557Y-27713D02*
X89369Y-27713D01*
X89820Y-27450D02*
X89557Y-27713D01*
X89820Y-24300D02*
X89820Y-24740D01*
X91437Y-22683D02*
X89820Y-24300D01*
X92121Y-22683D02*
X91437Y-22683D01*
X92121Y-22683D02*
X92124Y-22680D01*
G54D45*
X37345Y-19985D02*
X37345Y-19656D01*
X39438Y-21757D02*
X38930Y-22265D01*
X39438Y-19355D02*
X39438Y-21757D01*
X39144Y-19061D02*
X39438Y-19355D01*
X37940Y-19061D02*
X39144Y-19061D01*
X37345Y-19656D02*
X37940Y-19061D01*
G54D43*
X31122Y-26688D02*
X31128Y-26688D01*
X31755Y-26061D02*
X31755Y-25650D01*
X31128Y-26688D02*
X31755Y-26061D01*
X22368Y-38600D02*
X22368Y-37347D01*
X27850Y-29960D02*
X31122Y-26688D01*
X27850Y-31865D02*
X27850Y-29960D01*
X22368Y-37347D02*
X27850Y-31865D01*
X32346Y-39750D02*
X32360Y-39750D01*
X31830Y-40266D02*
X32346Y-39750D01*
X30960Y-40266D02*
X31830Y-40266D01*
X30848Y-40154D02*
X30960Y-40266D01*
X30848Y-39178D02*
X30848Y-40154D01*
X30744Y-39074D02*
X30848Y-39178D01*
X22714Y-39074D02*
X30744Y-39074D01*
X22368Y-38728D02*
X22714Y-39074D01*
X22368Y-38600D02*
X22368Y-38728D01*
X29690Y-35343D02*
X29690Y-35978D01*
X31360Y-39032D02*
X31360Y-39750D01*
X32130Y-38262D02*
X31360Y-39032D01*
X32130Y-36820D02*
X32130Y-38262D01*
X31766Y-36456D02*
X32130Y-36820D01*
X30168Y-36456D02*
X31766Y-36456D01*
X29690Y-35978D02*
X30168Y-36456D01*
X32510Y-27595D02*
X32510Y-27340D01*
X32295Y-27810D02*
X32510Y-27595D01*
X31125Y-27810D02*
X32295Y-27810D01*
X33015Y-24402D02*
X32948Y-24402D01*
X32948Y-24402D02*
X32530Y-24820D01*
X32530Y-24820D02*
X32530Y-25450D01*
X38930Y-25265D02*
X38930Y-24755D01*
X38930Y-24755D02*
X38577Y-24402D01*
X38577Y-24402D02*
X33015Y-24402D01*
X33015Y-24402D02*
X32918Y-24402D01*
X29690Y-35343D02*
X29690Y-34650D01*
X30210Y-28725D02*
X31125Y-27810D01*
X30210Y-34130D02*
X30210Y-28725D01*
X29690Y-34650D02*
X30210Y-34130D01*
X24501Y-40230D02*
X24753Y-40230D01*
X25233Y-39750D02*
X25360Y-39750D01*
X24753Y-40230D02*
X25233Y-39750D01*
X23862Y-40488D02*
X23862Y-40421D01*
X24054Y-40230D02*
X24501Y-40230D01*
X23862Y-40421D02*
X24054Y-40230D01*
X23862Y-42771D02*
X23862Y-40488D01*
X25290Y-39685D02*
X25310Y-39685D01*
X25224Y-39729D02*
X25290Y-39685D01*
X25224Y-39725D02*
X25224Y-39729D01*
X23862Y-44646D02*
X23862Y-44528D01*
X23639Y-44870D02*
X23862Y-44646D01*
X23076Y-44870D02*
X23639Y-44870D01*
X23862Y-44528D02*
X23862Y-43133D01*
X23862Y-43133D02*
X23862Y-42771D01*
X23862Y-42771D02*
X23862Y-42771D01*
X25002Y-40320D02*
X24993Y-40320D01*
X26235Y-39750D02*
X25743Y-40242D01*
X25743Y-40242D02*
X25153Y-40242D01*
X25153Y-40242D02*
X25077Y-40242D01*
X25077Y-40242D02*
X25002Y-40317D01*
X25002Y-40317D02*
X25002Y-40320D01*
X26360Y-39750D02*
X26235Y-39750D01*
X24724Y-42952D02*
X24346Y-42952D01*
X24858Y-42818D02*
X24724Y-42952D01*
X24858Y-40455D02*
X24858Y-42818D01*
X24993Y-40320D02*
X24858Y-40455D01*
G54D44*
X120545Y-14600D02*
X120545Y-15665D01*
X121120Y-16345D02*
X121080Y-16305D01*
X121080Y-16305D02*
X121080Y-16200D01*
G54D46*
X120545Y-14600D02*
X120545Y-15665D01*
X120545Y-15665D02*
X121080Y-16200D01*
X121080Y-16200D02*
X121080Y-17285D01*
X121080Y-17285D02*
X121120Y-17325D01*
G54D45*
X114790Y-21357D02*
X115573Y-21357D01*
X115573Y-21357D02*
X115617Y-21313D01*
X94662Y-30331D02*
X94662Y-29045D01*
X94662Y-29045D02*
X94870Y-28838D01*
X94273Y-32336D02*
X94273Y-31938D01*
X94680Y-31532D02*
X94680Y-31318D01*
X94273Y-31938D02*
X94680Y-31532D01*
X94662Y-30331D02*
X94662Y-31301D01*
X94662Y-31301D02*
X94680Y-31318D01*
G54D50*
X150690Y-20000D02*
X150705Y-19985D01*
X150705Y-19985D02*
X151425Y-19985D01*
X152057Y-20007D02*
X152574Y-20524D01*
X152574Y-20524D02*
X152590Y-20524D01*
X153137Y-21087D02*
X154116Y-22066D01*
X154116Y-22066D02*
X154132Y-22066D01*
X154145Y-22905D02*
X154115Y-22935D01*
X154115Y-22935D02*
X154115Y-22961D01*
X154345Y-24290D02*
X154115Y-24520D01*
X154115Y-24520D02*
X154115Y-25480D01*
X154145Y-26635D02*
X154115Y-26665D01*
X154115Y-26665D02*
X154115Y-27790D01*
X147285Y-33160D02*
X148076Y-33160D01*
X149424Y-32662D02*
X150084Y-32002D01*
X150084Y-32002D02*
X150084Y-31768D01*
X150854Y-31299D02*
X150913Y-31240D01*
X150913Y-31240D02*
X151954Y-31240D01*
X140050Y-20000D02*
X140065Y-19985D01*
X140065Y-19985D02*
X140740Y-19985D01*
X141440Y-20000D02*
X141455Y-19985D01*
X141455Y-19985D02*
X142130Y-19985D01*
X142960Y-20000D02*
X142975Y-19985D01*
X142975Y-19985D02*
X143710Y-19985D01*
X144450Y-20000D02*
X144465Y-19985D01*
X144465Y-19985D02*
X145470Y-19985D01*
X146205Y-20000D02*
X146220Y-19985D01*
X146220Y-19985D02*
X146270Y-19985D01*
X133320Y-15300D02*
X133320Y-16110D01*
G54D46*
X133350Y-17200D02*
X133350Y-17740D01*
X133350Y-17740D02*
X132900Y-18190D01*
X133320Y-14564D02*
X133320Y-17170D01*
X133320Y-17170D02*
X133350Y-17200D01*
X147285Y-33160D02*
X148692Y-33160D01*
X148692Y-33160D02*
X150612Y-31240D01*
X150612Y-31240D02*
X153010Y-31240D01*
X153010Y-31240D02*
X154115Y-30135D01*
X154115Y-30135D02*
X154115Y-22961D01*
X154115Y-22961D02*
X154132Y-22944D01*
X154132Y-22944D02*
X154132Y-22066D01*
X154132Y-22066D02*
X152051Y-19985D01*
X152051Y-19985D02*
X146270Y-19985D01*
X146270Y-19985D02*
X139288Y-19985D01*
G54D50*
X128470Y-17220D02*
X129780Y-17220D01*
G54D49*
X128470Y-17220D02*
X129780Y-17220D01*
X129780Y-17220D02*
X129800Y-17200D01*
G54D50*
X128380Y-15979D02*
X128360Y-16000D01*
X128360Y-16000D02*
X128360Y-16490D01*
G54D49*
X127875Y-14570D02*
X127875Y-15400D01*
X127875Y-15400D02*
X127875Y-15494D01*
X127875Y-15494D02*
X128360Y-15978D01*
X128360Y-15978D02*
X128360Y-17110D01*
X128360Y-17110D02*
X128470Y-17220D01*
G54D45*
X124520Y-23200D02*
X125130Y-23200D01*
X128128Y-20202D02*
X128141Y-20202D01*
X125130Y-23200D02*
X128128Y-20202D01*
X128435Y-18745D02*
X127690Y-18745D01*
X128720Y-19030D02*
X128435Y-18745D01*
X128720Y-19623D02*
X128720Y-19030D01*
X128141Y-20202D02*
X128720Y-19623D01*
X119695Y-23200D02*
X119693Y-23198D01*
X124520Y-23200D02*
X119695Y-23200D01*
X127690Y-18745D02*
X127690Y-18484D01*
X128309Y-17380D02*
X128470Y-17220D01*
X128309Y-17865D02*
X128309Y-17380D01*
X127690Y-18484D02*
X128309Y-17865D01*
X100804Y-30296D02*
X100804Y-29451D01*
X101059Y-29196D02*
X101078Y-29196D01*
X100804Y-29451D02*
X101059Y-29196D01*
X100364Y-32301D02*
X100364Y-31954D01*
X100837Y-31481D02*
X100837Y-31271D01*
X100364Y-31954D02*
X100837Y-31481D01*
X100804Y-30296D02*
X100804Y-31238D01*
X100804Y-31238D02*
X100837Y-31271D01*
X115962Y-31047D02*
X120117Y-31047D01*
X120117Y-31047D02*
X120120Y-31050D01*
X93787Y-24264D02*
X93787Y-24232D01*
X93787Y-24232D02*
X95374Y-22645D01*
G54D50*
X130854Y-27905D02*
X131285Y-27905D01*
X131285Y-27905D02*
X131614Y-28234D01*
X131614Y-28234D02*
X131614Y-30023D01*
G54D45*
X104952Y-31047D02*
X115962Y-31047D01*
X93787Y-26779D02*
X93787Y-26744D01*
X93787Y-26744D02*
X93547Y-26503D01*
X93787Y-26307D02*
X93744Y-26307D01*
X93744Y-26307D02*
X93547Y-26503D01*
X93429Y-26503D02*
X93547Y-26503D01*
X93547Y-26503D02*
X93787Y-26503D01*
X70476Y-25795D02*
X73350Y-25795D01*
X101996Y-33492D02*
X102275Y-33492D01*
X104952Y-31043D02*
X104952Y-31047D01*
X104724Y-31043D02*
X104952Y-31043D01*
X102275Y-33492D02*
X104724Y-31043D01*
G54D52*
X104811Y-31066D02*
X104811Y-31047D01*
G54D45*
X104952Y-31047D02*
X104811Y-31047D01*
X99864Y-33316D02*
X99864Y-32301D01*
X99864Y-33316D02*
X100039Y-33492D01*
X100039Y-33492D02*
X101996Y-33492D01*
X101996Y-33492D02*
X102066Y-33492D01*
X93787Y-27976D02*
X93787Y-26779D01*
X93787Y-26779D02*
X93787Y-26503D01*
X93787Y-26503D02*
X93787Y-26307D01*
X93787Y-26307D02*
X93787Y-25957D01*
X95374Y-22645D02*
X99055Y-22645D01*
X99055Y-22645D02*
X99838Y-23429D01*
X99838Y-23429D02*
X99838Y-27736D01*
X93787Y-25957D02*
X93787Y-24264D01*
X93776Y-31318D02*
X93776Y-32333D01*
X93776Y-32333D02*
X93773Y-32336D01*
X93776Y-30377D02*
X93776Y-31318D01*
X93787Y-27976D02*
X93787Y-29165D01*
X93787Y-29165D02*
X93776Y-29176D01*
X93776Y-29176D02*
X93776Y-30377D01*
X99859Y-31303D02*
X99859Y-32296D01*
X99859Y-32296D02*
X99864Y-32301D01*
X99859Y-30291D02*
X99859Y-31303D01*
X99838Y-29059D02*
X99838Y-30271D01*
X99838Y-30271D02*
X99859Y-30291D01*
X99838Y-27736D02*
X99838Y-29059D01*
G54D43*
X97905Y-37408D02*
X97905Y-37485D01*
X97905Y-36270D02*
X97905Y-37408D01*
X98400Y-35775D02*
X97905Y-36270D01*
X98400Y-33532D02*
X98400Y-35775D01*
X98384Y-33516D02*
X98400Y-33532D01*
X106615Y-35708D02*
X106615Y-36484D01*
X106615Y-36484D02*
X105600Y-37500D01*
G54D52*
X106629Y-35693D02*
X106615Y-35708D01*
X106629Y-35236D02*
X106629Y-35693D01*
X106421Y-35027D02*
X106629Y-35236D01*
X108062Y-32286D02*
X108341Y-32286D01*
X108341Y-32286D02*
X108468Y-32413D01*
X108459Y-31874D02*
X108459Y-32404D01*
X108459Y-32404D02*
X108468Y-32413D01*
X108062Y-32286D02*
X108062Y-31845D01*
X108062Y-31845D02*
X108459Y-31874D01*
X95297Y-34655D02*
X95265Y-34686D01*
X95297Y-34218D02*
X95297Y-34655D01*
X95423Y-34092D02*
X95297Y-34218D01*
X96165Y-34092D02*
X95423Y-34092D01*
X96575Y-33682D02*
X96165Y-34092D01*
X96855Y-33682D02*
X96575Y-33682D01*
X96890Y-33647D02*
X96855Y-33682D01*
G54D45*
X96052Y-35755D02*
X95444Y-35755D01*
X96099Y-35802D02*
X96052Y-35755D01*
X100864Y-35482D02*
X100864Y-35663D01*
X100874Y-35472D02*
X100864Y-35482D01*
X94749Y-37208D02*
X95133Y-37208D01*
X95273Y-35265D02*
X95273Y-34836D01*
X95444Y-35437D02*
X95273Y-35265D01*
X95444Y-36897D02*
X95444Y-35755D01*
X95444Y-35755D02*
X95444Y-35437D01*
X95133Y-37208D02*
X95444Y-36897D01*
X100864Y-34801D02*
X100864Y-35663D01*
X100864Y-35663D02*
X100864Y-36203D01*
X100864Y-36203D02*
X100863Y-36204D01*
X101566Y-36031D02*
X101566Y-35968D01*
X101555Y-35956D02*
X101566Y-35968D01*
X100839Y-37224D02*
X101330Y-37224D01*
X101364Y-35324D02*
X101364Y-34801D01*
X101566Y-35527D02*
X101364Y-35324D01*
X101566Y-36988D02*
X101566Y-36031D01*
X101566Y-36031D02*
X101566Y-35527D01*
X101330Y-37224D02*
X101566Y-36988D01*
X94773Y-34836D02*
X94773Y-35515D01*
X94773Y-35515D02*
X94773Y-36254D01*
X94773Y-36254D02*
X94768Y-36259D01*
G54D43*
X57001Y-59815D02*
X56854Y-59668D01*
X57001Y-61635D02*
X57001Y-59815D01*
X56973Y-61663D02*
X57001Y-61635D01*
X49009Y-56665D02*
X43892Y-51548D01*
X53849Y-56665D02*
X49009Y-56665D01*
X54201Y-57057D02*
X53849Y-56665D01*
X38640Y-51555D02*
X38647Y-51548D01*
X38647Y-51548D02*
X43892Y-51548D01*
X37968Y-52178D02*
X38479Y-52178D01*
X37947Y-52157D02*
X37968Y-52178D01*
X38479Y-52178D02*
X38458Y-52199D01*
X43613Y-52178D02*
X38479Y-52178D01*
X43860Y-52425D02*
X43613Y-52178D01*
G54D45*
X96996Y-31693D02*
X97224Y-31465D01*
X97224Y-31465D02*
X97224Y-31312D01*
X95200Y-33031D02*
X95658Y-33031D01*
X95658Y-33031D02*
X96996Y-31693D01*
X112175Y-22244D02*
X112197Y-22244D01*
X115522Y-19003D02*
X115675Y-18850D01*
X115522Y-19448D02*
X115522Y-19003D01*
X115346Y-19624D02*
X115522Y-19448D01*
X114818Y-19624D02*
X115346Y-19624D01*
X112197Y-22244D02*
X114818Y-19624D01*
X109887Y-22244D02*
X110283Y-22244D01*
X109886Y-22246D02*
X109887Y-22244D01*
X112175Y-22244D02*
X110283Y-22244D01*
X94773Y-32336D02*
X94773Y-32836D01*
X94773Y-32836D02*
X94968Y-33031D01*
X94968Y-33031D02*
X95200Y-33031D01*
X97224Y-31312D02*
X97224Y-28901D01*
X90334Y-25090D02*
X90334Y-24545D01*
X95210Y-22000D02*
X95930Y-22000D01*
X93870Y-23340D02*
X95210Y-22000D01*
X91540Y-23340D02*
X93870Y-23340D01*
X90334Y-24545D02*
X91540Y-23340D01*
X106436Y-18307D02*
X101547Y-18307D01*
X101547Y-18307D02*
X98412Y-21441D01*
X98412Y-21441D02*
X97854Y-22000D01*
X95930Y-22000D02*
X97854Y-22000D01*
X93773Y-34202D02*
X93773Y-34836D01*
X93574Y-34003D02*
X93773Y-34202D01*
X92803Y-34003D02*
X93574Y-34003D01*
X91570Y-32771D02*
X92803Y-34003D01*
X91570Y-28062D02*
X91570Y-32771D01*
X90334Y-26826D02*
X91570Y-28062D01*
X90334Y-25090D02*
X90334Y-26826D01*
X103913Y-28121D02*
X103913Y-28256D01*
X103928Y-28107D02*
X103913Y-28121D01*
X122890Y-22240D02*
X122350Y-22240D01*
X121874Y-22716D02*
X119201Y-22716D01*
X122350Y-22240D02*
X121874Y-22716D01*
X100864Y-32840D02*
X101011Y-32988D01*
X101011Y-32988D02*
X102070Y-32988D01*
X102070Y-32988D02*
X103913Y-31145D01*
X103913Y-31145D02*
X103913Y-28256D01*
X100864Y-32301D02*
X100864Y-32840D01*
X124840Y-23730D02*
X125420Y-23730D01*
X129435Y-19718D02*
X129435Y-19395D01*
X129353Y-19800D02*
X129435Y-19718D01*
X129350Y-19800D02*
X129353Y-19800D01*
X125420Y-23730D02*
X129350Y-19800D01*
X120675Y-23730D02*
X124840Y-23730D01*
X120672Y-23733D02*
X120675Y-23730D01*
X129660Y-18945D02*
X130090Y-18945D01*
X129435Y-19395D02*
X129435Y-19170D01*
X129435Y-19170D02*
X129660Y-18945D01*
X100275Y-34023D02*
X101484Y-34023D01*
X101519Y-33988D02*
X101527Y-33988D01*
X101484Y-34023D02*
X101519Y-33988D01*
X99864Y-34801D02*
X99864Y-34431D01*
X100165Y-34133D02*
X100275Y-34023D01*
X100275Y-34023D02*
X100291Y-34007D01*
X100161Y-34133D02*
X100165Y-34133D01*
X99864Y-34431D02*
X100161Y-34133D01*
G54D52*
X97759Y-30798D02*
X97759Y-31683D01*
X97759Y-31683D02*
X95900Y-33543D01*
X96303Y-23944D02*
X95633Y-23275D01*
X96303Y-25637D02*
X96303Y-23944D01*
X97759Y-27094D02*
X96303Y-25637D01*
X97759Y-30798D02*
X97759Y-27094D01*
X98980Y-21818D02*
X99570Y-21818D01*
X99570Y-21818D02*
X100633Y-22881D01*
X100633Y-22881D02*
X101618Y-22881D01*
X101618Y-22881D02*
X102759Y-24023D01*
X102759Y-24023D02*
X102759Y-27133D01*
X102759Y-27133D02*
X102838Y-27212D01*
G54D46*
X118120Y-21060D02*
X118605Y-21060D01*
X118605Y-21060D02*
X119887Y-19778D01*
G54D50*
X118140Y-18436D02*
X118120Y-18416D01*
X118120Y-18416D02*
X118120Y-16145D01*
X125730Y-15620D02*
X125730Y-15600D01*
X125730Y-15600D02*
X125470Y-15860D01*
G54D51*
X109868Y-52232D02*
X109907Y-52232D01*
X109907Y-52232D02*
X112870Y-49269D01*
X111930Y-54530D02*
X113006Y-54530D01*
X113006Y-54530D02*
X113938Y-55462D01*
X113938Y-55462D02*
X114555Y-55462D01*
X112870Y-46948D02*
X112870Y-49269D01*
X112870Y-49269D02*
X112870Y-50488D01*
X112870Y-50488D02*
X114555Y-52173D01*
X114555Y-52173D02*
X114555Y-55462D01*
X114555Y-55462D02*
X114555Y-54845D01*
X114555Y-54845D02*
X113150Y-56250D01*
X113150Y-56250D02*
X108790Y-56250D01*
X108790Y-56250D02*
X108112Y-56927D01*
X110610Y-54530D02*
X110610Y-54180D01*
X110610Y-54180D02*
X111615Y-53175D01*
X108112Y-55475D02*
X108112Y-55442D01*
X108112Y-55442D02*
X109025Y-54530D01*
X109025Y-54530D02*
X110610Y-54530D01*
X110610Y-54530D02*
X111930Y-54530D01*
X111930Y-54530D02*
X112870Y-53589D01*
X112870Y-53589D02*
X112870Y-50488D01*
G54D43*
X117509Y-42051D02*
X118146Y-42051D01*
X118146Y-42051D02*
X118157Y-42062D01*
X116158Y-42051D02*
X115632Y-42051D01*
X115632Y-42051D02*
X115511Y-42051D01*
X116696Y-25984D02*
X117354Y-25984D01*
X116696Y-25980D02*
X116697Y-25984D01*
X116094Y-25980D02*
X116696Y-25980D01*
X116090Y-25984D02*
X116094Y-25980D01*
X117354Y-25984D02*
X117400Y-26030D01*
G54D47*
X115632Y-42051D02*
X115511Y-42051D01*
X116710Y-42051D02*
X117509Y-42051D01*
X116666Y-25323D02*
X116696Y-25353D01*
X116696Y-25984D02*
X116696Y-25353D01*
X116666Y-25984D02*
X116666Y-25323D01*
X116666Y-25323D02*
X116666Y-22836D01*
X118120Y-21382D02*
X118120Y-21060D01*
X118120Y-21060D02*
X118120Y-18504D01*
X116666Y-22836D02*
X118120Y-21382D01*
X115551Y-25984D02*
X116666Y-25984D01*
X116666Y-25984D02*
X118110Y-25984D01*
X121594Y-19778D02*
X123882Y-19778D01*
X123882Y-19778D02*
X125422Y-18238D01*
X125422Y-18238D02*
X125422Y-17268D01*
X125422Y-17268D02*
X125470Y-17220D01*
X119394Y-19778D02*
X119887Y-19778D01*
X119887Y-19778D02*
X121594Y-19778D01*
X118120Y-18504D02*
X119394Y-19778D01*
X118120Y-17325D02*
X118120Y-18504D01*
X118400Y-14600D02*
X118400Y-15555D01*
X118400Y-15555D02*
X118400Y-15865D01*
X118400Y-15865D02*
X118120Y-16145D01*
X118120Y-16145D02*
X118120Y-17325D01*
X125730Y-14570D02*
X125730Y-15600D01*
X125730Y-15600D02*
X125470Y-15860D01*
X125470Y-15860D02*
X125470Y-17220D01*
X112870Y-46948D02*
X112870Y-44692D01*
X115632Y-42051D02*
X118860Y-42051D01*
X118860Y-42051D02*
X119416Y-42051D01*
X119416Y-42051D02*
X120275Y-42051D01*
X112870Y-44692D02*
X115511Y-42051D01*
G54D51*
X106330Y-52232D02*
X109868Y-52232D01*
X109868Y-52232D02*
X110767Y-52232D01*
X110948Y-52051D02*
X110948Y-52409D01*
X110767Y-52232D02*
X110948Y-52051D01*
X107374Y-53275D02*
X109625Y-53275D01*
X109850Y-53051D02*
X109850Y-53507D01*
X109625Y-53275D02*
X109850Y-53051D01*
X101598Y-52232D02*
X106330Y-52232D01*
X108112Y-54014D02*
X108112Y-55475D01*
X108112Y-55475D02*
X108112Y-56927D01*
X106330Y-52232D02*
X107374Y-53275D01*
X107374Y-53275D02*
X108112Y-54014D01*
X108112Y-56927D02*
X108112Y-55245D01*
X108112Y-55245D02*
X109850Y-53507D01*
X112870Y-50488D02*
X112870Y-46948D01*
X110948Y-52409D02*
X112870Y-50488D01*
X109850Y-53507D02*
X110948Y-52409D01*
G54D50*
X115551Y-25780D02*
X115551Y-25984D01*
G54D48*
X118044Y-26050D02*
X118110Y-25984D01*
G54D43*
X23760Y-38790D02*
X23085Y-38790D01*
X23085Y-38790D02*
X22827Y-38532D01*
X34233Y-38753D02*
X32990Y-38753D01*
X23976Y-38790D02*
X23760Y-38790D01*
X23760Y-38790D02*
X23693Y-38790D01*
X31032Y-38790D02*
X23976Y-38790D01*
X32990Y-38753D02*
X32858Y-38885D01*
X35105Y-37881D02*
X35105Y-35665D01*
X34215Y-38771D02*
X34233Y-38753D01*
X34233Y-38753D02*
X35105Y-37881D01*
X37710Y-34966D02*
X37804Y-34966D01*
X37422Y-34966D02*
X37710Y-34966D01*
X37710Y-34966D02*
X37804Y-34966D01*
X37804Y-34966D02*
X37809Y-34961D01*
X33170Y-28300D02*
X33579Y-28709D01*
X35910Y-35427D02*
X36961Y-35427D01*
X36961Y-35427D02*
X37422Y-34966D01*
X35105Y-35665D02*
X35105Y-35622D01*
X35105Y-35622D02*
X34916Y-35433D01*
X35165Y-35575D02*
X35165Y-35521D01*
X35165Y-35521D02*
X35181Y-35505D01*
X35078Y-35433D02*
X35078Y-35488D01*
X35078Y-35488D02*
X35165Y-35575D01*
X35165Y-35575D02*
X35180Y-35590D01*
X32102Y-35433D02*
X31604Y-35433D01*
X32102Y-35433D02*
X34916Y-35433D01*
X31604Y-35433D02*
X30492Y-34321D01*
X30492Y-34321D02*
X30492Y-28886D01*
X30492Y-28886D02*
X31078Y-28300D01*
X31078Y-28300D02*
X33170Y-28300D01*
X35402Y-35433D02*
X35402Y-35427D01*
X34916Y-35433D02*
X35078Y-35433D01*
X35078Y-35433D02*
X35402Y-35433D01*
X35105Y-35665D02*
X35180Y-35590D01*
X35343Y-35427D02*
X35402Y-35427D01*
X35180Y-35590D02*
X35343Y-35427D01*
X35402Y-35427D02*
X35910Y-35427D01*
X38659Y-28709D02*
X38983Y-28385D01*
X38659Y-28709D02*
X33579Y-28709D01*
G54D46*
X113784Y-28740D02*
X113784Y-28512D01*
X113784Y-28512D02*
X109758Y-24486D01*
X109758Y-24486D02*
X109208Y-24486D01*
X112816Y-28740D02*
X112816Y-28094D01*
X112816Y-28094D02*
X109208Y-24486D01*
X109208Y-24486D02*
X108850Y-24128D01*
X108850Y-24128D02*
X108850Y-24382D01*
X108850Y-24382D02*
X108570Y-24662D01*
X112816Y-28740D02*
X112296Y-28740D01*
X112296Y-28740D02*
X109645Y-26089D01*
X109645Y-26089D02*
X109645Y-25984D01*
G54D43*
X108070Y-20626D02*
X108070Y-20955D01*
X108070Y-20955D02*
X108018Y-21008D01*
X108018Y-21008D02*
X108018Y-21848D01*
X108070Y-20626D02*
X108131Y-20626D01*
X108131Y-20626D02*
X108177Y-20672D01*
X108177Y-20672D02*
X108201Y-20672D01*
X108201Y-20570D02*
X108201Y-20672D01*
X108201Y-20672D02*
X108201Y-20648D01*
X108201Y-20648D02*
X108149Y-20700D01*
X108070Y-20570D02*
X108070Y-20626D01*
X108070Y-20626D02*
X108070Y-20761D01*
X108070Y-20761D02*
X108587Y-21278D01*
G54D50*
X126765Y-25984D02*
X127770Y-25984D01*
X128205Y-25125D02*
X128640Y-24690D01*
X128640Y-24690D02*
X129090Y-24690D01*
X129262Y-24068D02*
X129372Y-24178D01*
X129372Y-24178D02*
X129602Y-24178D01*
X119548Y-28688D02*
X119600Y-28740D01*
X119600Y-28740D02*
X120410Y-28740D01*
X121220Y-28688D02*
X121272Y-28740D01*
X121272Y-28740D02*
X121910Y-28740D01*
X122320Y-28250D02*
X122251Y-28181D01*
X122251Y-28181D02*
X122251Y-27748D01*
X122759Y-27149D02*
X122930Y-26977D01*
X122930Y-26977D02*
X123022Y-26977D01*
X135465Y-15209D02*
X135465Y-15800D01*
X135900Y-16320D02*
X136350Y-16770D01*
X136350Y-16770D02*
X136350Y-17200D01*
G54D43*
X122251Y-32154D02*
X121720Y-32154D01*
X121720Y-32154D02*
X121452Y-31885D01*
X122251Y-31716D02*
X121622Y-31716D01*
X121622Y-31716D02*
X121452Y-31885D01*
G54D50*
X122056Y-37004D02*
X122251Y-36808D01*
X122251Y-36808D02*
X122251Y-36278D01*
X121737Y-35618D02*
X122251Y-35103D01*
X122251Y-35103D02*
X122251Y-35068D01*
X121737Y-34672D02*
X122243Y-34166D01*
X122243Y-34166D02*
X122251Y-34166D01*
X121737Y-33638D02*
X122251Y-33123D01*
X122251Y-33123D02*
X122251Y-33000D01*
X121260Y-37170D02*
X121294Y-37204D01*
X121294Y-37204D02*
X121456Y-37204D01*
G54D47*
X113385Y-17150D02*
X113385Y-17977D01*
X109645Y-25737D02*
X109645Y-27559D01*
X107756Y-23848D02*
X108570Y-24662D01*
X108570Y-24662D02*
X109645Y-25737D01*
X107756Y-22110D02*
X107756Y-23848D01*
X110506Y-19360D02*
X108018Y-21848D01*
X108018Y-21848D02*
X108587Y-21278D01*
X108587Y-21278D02*
X107756Y-22110D01*
X112002Y-19360D02*
X110506Y-19360D01*
X113385Y-17977D02*
X112002Y-19360D01*
X123521Y-26479D02*
X124015Y-25984D01*
X124015Y-25984D02*
X125670Y-25984D01*
X125670Y-25984D02*
X127795Y-25984D01*
X131675Y-24178D02*
X131836Y-24016D01*
X129602Y-24178D02*
X131675Y-24178D01*
X127795Y-25984D02*
X129602Y-24178D01*
G54D43*
X107874Y-20060D02*
X107874Y-20374D01*
X113385Y-18406D02*
X113385Y-17150D01*
X112893Y-18897D02*
X113385Y-18406D01*
X110039Y-18897D02*
X112893Y-18897D01*
X109842Y-19094D02*
X110039Y-18897D01*
X109842Y-19783D02*
X109842Y-19094D01*
X109055Y-20570D02*
X109842Y-19783D01*
X108070Y-20570D02*
X108201Y-20570D01*
X108201Y-20570D02*
X109055Y-20570D01*
X107874Y-20374D02*
X108070Y-20570D01*
X112745Y-31885D02*
X121452Y-31885D01*
X121452Y-31885D02*
X122251Y-31885D01*
X122251Y-31885D02*
X122251Y-31716D01*
X122251Y-31716D02*
X122251Y-31692D01*
G54D50*
X109645Y-25984D02*
X109645Y-26771D01*
G54D47*
X122251Y-28740D02*
X113784Y-28740D01*
X113784Y-28740D02*
X112816Y-28740D01*
X112816Y-28740D02*
X110826Y-28740D01*
X110826Y-28740D02*
X109645Y-27559D01*
X109645Y-27559D02*
X109645Y-26771D01*
X109645Y-26771D02*
X109645Y-26574D01*
X122251Y-33070D02*
X122251Y-32154D01*
X122251Y-32154D02*
X122251Y-31692D01*
X122251Y-31692D02*
X122251Y-28740D01*
X122251Y-28740D02*
X122251Y-27748D01*
X122251Y-27748D02*
X123022Y-26977D01*
X123022Y-26977D02*
X123521Y-26479D01*
G54D44*
X120275Y-39051D02*
X120275Y-37204D01*
G54D48*
X120275Y-37204D02*
X121456Y-37204D01*
G54D47*
X122251Y-33070D02*
X122251Y-36409D01*
X121456Y-37204D02*
X120866Y-37204D01*
X122251Y-36409D02*
X121456Y-37204D01*
X113095Y-14600D02*
X113095Y-15685D01*
X113095Y-15685D02*
X113385Y-15975D01*
X113385Y-15975D02*
X113385Y-17150D01*
G54D44*
X131836Y-24016D02*
X131836Y-23875D01*
X131410Y-23449D02*
X131410Y-23311D01*
X131836Y-23875D02*
X131410Y-23449D01*
X130872Y-24016D02*
X130872Y-23849D01*
X130872Y-23849D02*
X131410Y-23311D01*
X131410Y-23311D02*
X131410Y-23311D01*
G54D45*
X131410Y-20845D02*
X131410Y-23311D01*
G54D48*
X131274Y-24016D02*
X131836Y-24016D01*
G54D47*
X131836Y-24016D02*
X134008Y-24016D01*
X134008Y-24016D02*
X135415Y-22610D01*
X135415Y-22610D02*
X135415Y-19670D01*
X135415Y-19670D02*
X136350Y-18735D01*
X136350Y-18735D02*
X136350Y-17200D01*
G54D48*
X130872Y-24016D02*
X131274Y-24016D01*
X136325Y-17225D02*
X136350Y-17200D01*
G54D44*
X136325Y-17225D02*
X136350Y-17200D01*
G54D47*
X135465Y-14564D02*
X135465Y-15800D01*
X135465Y-15800D02*
X136350Y-16685D01*
X136350Y-16685D02*
X136350Y-17200D01*
G54D43*
X47259Y-39291D02*
X46711Y-39291D01*
X46711Y-39291D02*
X46396Y-38976D01*
X46396Y-38976D02*
X46396Y-38052D01*
X50619Y-40109D02*
X50619Y-40107D01*
X50366Y-39291D02*
X47259Y-39291D01*
X50558Y-39483D02*
X50366Y-39291D01*
X50558Y-40046D02*
X50558Y-39483D01*
X50619Y-40107D02*
X50558Y-40046D01*
X63900Y-55650D02*
X63930Y-55680D01*
X63930Y-55680D02*
X63930Y-56235D01*
X63930Y-56235D02*
X64785Y-57090D01*
X64785Y-57090D02*
X66405Y-57090D01*
X66405Y-57090D02*
X66810Y-57495D01*
X66810Y-57495D02*
X66810Y-61248D01*
X66810Y-61248D02*
X66825Y-61263D01*
X62128Y-44264D02*
X62150Y-44286D01*
X58124Y-44264D02*
X62128Y-44264D01*
X57178Y-43318D02*
X58124Y-44264D01*
X57178Y-41623D02*
X57178Y-43318D01*
X56100Y-40545D02*
X57178Y-41623D01*
X51055Y-40545D02*
X56100Y-40545D01*
X50619Y-40109D02*
X51055Y-40545D01*
X46766Y-21823D02*
X49716Y-21823D01*
X50180Y-21360D02*
X50610Y-21360D01*
X49716Y-21823D02*
X50180Y-21360D01*
X74070Y-16469D02*
X74058Y-14310D01*
X73875Y-16665D02*
X74070Y-16469D01*
X64265Y-16665D02*
X73875Y-16665D01*
X63400Y-17530D02*
X64265Y-16665D01*
X43630Y-24960D02*
X46766Y-21823D01*
X41960Y-24960D02*
X43630Y-24960D01*
X41783Y-25137D02*
X41960Y-24960D01*
X96554Y-39637D02*
X96561Y-39637D01*
X97424Y-38775D02*
X101235Y-38775D01*
X96561Y-39637D02*
X97424Y-38775D01*
X93287Y-41527D02*
X94665Y-41527D01*
G54D52*
X105346Y-37043D02*
X105921Y-36468D01*
X105921Y-36468D02*
X105921Y-35764D01*
X105921Y-35764D02*
X105865Y-35708D01*
X103464Y-37043D02*
X105346Y-37043D01*
G54D43*
X103244Y-37043D02*
X103464Y-37043D01*
X102759Y-37527D02*
X103244Y-37043D01*
X94665Y-41527D02*
X96554Y-39637D01*
G54D50*
X135669Y-59688D02*
X135669Y-58303D01*
X136416Y-57458D02*
X136827Y-57047D01*
X136827Y-57047D02*
X138578Y-57047D01*
X141020Y-57015D02*
X141052Y-57047D01*
X141052Y-57047D02*
X144694Y-57047D01*
X144891Y-55395D02*
X145334Y-54952D01*
X145334Y-54952D02*
X147326Y-54952D01*
X150082Y-54956D02*
X150088Y-54950D01*
X150088Y-54950D02*
X153214Y-54950D01*
X154765Y-54948D02*
X154765Y-54949D01*
G54D51*
X135669Y-59688D02*
X135669Y-58303D01*
X135669Y-58303D02*
X136925Y-57047D01*
X136925Y-57047D02*
X143240Y-57047D01*
X143240Y-57047D02*
X145923Y-57047D01*
X145923Y-57047D02*
X145960Y-57084D01*
X145960Y-57084D02*
X145960Y-56318D01*
X145960Y-56318D02*
X147326Y-54952D01*
X145960Y-57732D02*
X145960Y-57084D01*
X145960Y-57084D02*
X145960Y-57649D01*
X145960Y-57649D02*
X145051Y-56740D01*
X143240Y-57047D02*
X143350Y-57047D01*
X143350Y-57047D02*
X145444Y-54952D01*
X145444Y-54952D02*
X147326Y-54952D01*
X147326Y-54952D02*
X150086Y-54952D01*
X150086Y-54952D02*
X150082Y-54956D01*
X156771Y-54948D02*
X154765Y-54949D01*
X154765Y-54949D02*
X150086Y-54952D01*
X150086Y-54952D02*
X150082Y-54956D01*
G54D50*
X130748Y-61836D02*
X131775Y-62864D01*
X131775Y-62864D02*
X131775Y-62893D01*
X133716Y-62865D02*
X133744Y-62893D01*
X133744Y-62893D02*
X137038Y-62893D01*
X139510Y-62865D02*
X139597Y-62952D01*
X139597Y-62952D02*
X143240Y-62952D01*
X148227Y-62952D02*
X151160Y-62952D01*
X154260Y-62952D02*
X154260Y-62949D01*
G54D51*
X130748Y-59688D02*
X130748Y-61866D01*
X143181Y-62893D02*
X143240Y-62952D01*
X131775Y-62893D02*
X143181Y-62893D01*
X130748Y-61866D02*
X131775Y-62893D01*
G54D48*
X145507Y-62952D02*
X145582Y-62952D01*
X145582Y-62952D02*
X146984Y-61551D01*
X148366Y-62952D02*
X148366Y-62933D01*
X148366Y-62933D02*
X146984Y-61551D01*
X146984Y-61551D02*
X146984Y-61948D01*
X146984Y-61948D02*
X145980Y-62952D01*
G54D51*
X143240Y-62952D02*
X145507Y-62952D01*
X145507Y-62952D02*
X145980Y-62952D01*
X145980Y-62952D02*
X148366Y-62952D01*
X148366Y-62952D02*
X152517Y-62952D01*
X152517Y-62952D02*
X152520Y-62949D01*
X152520Y-62949D02*
X152519Y-62948D01*
X156771Y-62948D02*
X154260Y-62949D01*
X154260Y-62949D02*
X152520Y-62949D01*
X152520Y-62949D02*
X152519Y-62948D01*
G54D43*
X87799Y-25386D02*
X87799Y-23507D01*
X87799Y-23507D02*
X87801Y-23506D01*
X90240Y-28196D02*
X90791Y-28748D01*
X88625Y-28196D02*
X90240Y-28196D01*
X87799Y-27370D02*
X88625Y-28196D01*
X87799Y-25386D02*
X87799Y-27370D01*
X90791Y-33629D02*
X90791Y-31897D01*
X90791Y-31897D02*
X90791Y-29181D01*
X90791Y-29181D02*
X90791Y-28748D01*
G54D50*
X24244Y-61534D02*
X24244Y-60949D01*
X24180Y-59597D02*
X24180Y-59730D01*
X24177Y-59594D02*
X24180Y-59597D01*
X24244Y-59087D02*
X24512Y-59087D01*
X24512Y-59087D02*
X24800Y-58800D01*
G54D48*
X23775Y-60510D02*
X23775Y-59503D01*
X23775Y-59503D02*
X23072Y-58800D01*
X23775Y-61534D02*
X23775Y-60510D01*
X23775Y-60510D02*
X23775Y-60135D01*
X24180Y-59730D02*
X24244Y-59730D01*
X23775Y-60135D02*
X24180Y-59730D01*
X24244Y-59730D02*
X24244Y-59730D01*
X24244Y-59730D02*
X24244Y-59087D01*
X24244Y-59087D02*
X24244Y-59356D01*
X24244Y-59356D02*
X24800Y-58800D01*
X24244Y-59730D02*
X24002Y-59730D01*
X24002Y-59730D02*
X23072Y-58800D01*
X23072Y-58800D02*
X23382Y-58800D01*
X23382Y-58800D02*
X23567Y-58985D01*
X24244Y-61534D02*
X24244Y-59730D01*
X24244Y-59356D02*
X24800Y-58800D01*
X23039Y-62573D02*
X23039Y-61968D01*
X25008Y-61902D02*
X25008Y-62573D01*
X24640Y-61534D02*
X25008Y-61902D01*
X23474Y-61534D02*
X23775Y-61534D01*
X23775Y-61534D02*
X24244Y-61534D01*
X24244Y-61534D02*
X24640Y-61534D01*
X23039Y-61968D02*
X23474Y-61534D01*
X13865Y-32515D02*
X15268Y-32515D01*
X15268Y-32515D02*
X15303Y-32480D01*
X13865Y-32515D02*
X13865Y-32445D01*
X13865Y-32445D02*
X13149Y-31729D01*
X13149Y-32850D02*
X13530Y-32850D01*
X13530Y-32850D02*
X13865Y-32515D01*
X13865Y-32515D02*
X14062Y-32318D01*
X13149Y-32318D02*
X14062Y-32318D01*
X14062Y-32318D02*
X15140Y-32318D01*
X15140Y-32318D02*
X15303Y-32480D01*
G54D50*
X51670Y-14250D02*
X51680Y-14260D01*
X51680Y-14260D02*
X52929Y-14260D01*
X54200Y-14253D02*
X54214Y-14268D01*
X54214Y-14268D02*
X55179Y-14268D01*
X56160Y-14253D02*
X56159Y-14253D01*
X56159Y-14253D02*
X56159Y-14271D01*
X57870Y-21735D02*
X58201Y-22066D01*
X58201Y-22066D02*
X58960Y-22066D01*
G54D45*
X13149Y-19900D02*
X13149Y-21119D01*
X13149Y-31052D02*
X13149Y-31729D01*
X13151Y-31050D02*
X13149Y-31052D01*
X13149Y-27102D02*
X13149Y-29150D01*
X13151Y-27100D02*
X13149Y-27102D01*
X13149Y-22852D02*
X13149Y-25000D01*
X13151Y-22850D02*
X13149Y-22852D01*
X13149Y-31729D02*
X13149Y-32318D01*
X13149Y-32318D02*
X13149Y-32850D01*
X13151Y-35050D02*
X13149Y-35052D01*
X13149Y-35052D02*
X13149Y-37200D01*
X13151Y-40305D02*
X13149Y-40307D01*
X13149Y-40307D02*
X13149Y-41998D01*
X13151Y-43900D02*
X13149Y-43902D01*
X13149Y-43902D02*
X13149Y-46500D01*
X13151Y-49500D02*
X13149Y-49502D01*
X13149Y-49502D02*
X13149Y-51840D01*
X13151Y-55704D02*
X13149Y-55706D01*
X13149Y-55706D02*
X13149Y-56830D01*
X14272Y-57920D02*
X15119Y-58767D01*
X15119Y-58767D02*
X15119Y-58800D01*
X18013Y-58800D02*
X20603Y-58800D01*
X23567Y-58985D02*
X23578Y-58975D01*
X23578Y-58975D02*
X23578Y-58800D01*
G54D49*
X15291Y-18633D02*
X13684Y-18633D01*
X13684Y-18633D02*
X13149Y-19169D01*
X13149Y-19169D02*
X13149Y-19900D01*
X13149Y-19900D02*
X13149Y-56830D01*
X13149Y-56830D02*
X15119Y-58800D01*
X15119Y-58800D02*
X23578Y-58800D01*
X23578Y-58800D02*
X24800Y-58800D01*
X24800Y-58800D02*
X25905Y-58800D01*
X25905Y-58800D02*
X27488Y-58800D01*
X27488Y-58800D02*
X27783Y-59094D01*
G54D50*
X79646Y-15854D02*
X78619Y-15854D01*
G54D46*
X79646Y-15854D02*
X78619Y-15854D01*
X78619Y-15854D02*
X78593Y-15881D01*
G54D50*
X80220Y-19650D02*
X80262Y-19607D01*
X80262Y-19607D02*
X80262Y-19137D01*
X80262Y-18440D02*
X80262Y-18000D01*
G54D46*
X77665Y-22101D02*
X77665Y-21735D01*
X77665Y-21735D02*
X80262Y-19137D01*
G54D43*
X33774Y-45282D02*
X33833Y-45282D01*
X33833Y-45282D02*
X33945Y-45394D01*
X33693Y-45394D02*
X33693Y-45364D01*
X33693Y-45364D02*
X33774Y-45282D01*
X33774Y-45282D02*
X33780Y-45277D01*
X32360Y-40750D02*
X32360Y-44010D01*
X33780Y-44960D02*
X33780Y-45277D01*
X33780Y-45277D02*
X33780Y-45394D01*
X33590Y-44770D02*
X33780Y-44960D01*
X33120Y-44770D02*
X33590Y-44770D01*
X32360Y-44010D02*
X33120Y-44770D01*
G54D45*
X25260Y-37716D02*
X25260Y-37355D01*
X25260Y-37355D02*
X25676Y-36939D01*
X25676Y-36939D02*
X27531Y-36939D01*
X27531Y-36939D02*
X28010Y-37418D01*
X28010Y-37418D02*
X28010Y-37720D01*
G54D43*
X32360Y-40750D02*
X32360Y-40495D01*
X32826Y-40284D02*
X33360Y-39750D01*
X32571Y-40284D02*
X32826Y-40284D01*
X32360Y-40495D02*
X32571Y-40284D01*
X25360Y-40750D02*
X25360Y-41560D01*
X25360Y-41560D02*
X25367Y-41567D01*
X25367Y-41567D02*
X25367Y-42608D01*
X25367Y-42608D02*
X25501Y-42742D01*
G54D53*
X23100Y-34720D02*
X23105Y-34720D01*
X23105Y-34720D02*
X26370Y-31455D01*
X23105Y-34720D02*
X26370Y-31455D01*
G54D50*
X26370Y-30980D02*
X26370Y-29430D01*
X26370Y-29430D02*
X30630Y-25170D01*
X30630Y-25170D02*
X30630Y-19365D01*
X30630Y-19365D02*
X30870Y-19125D01*
X30870Y-19125D02*
X31680Y-19125D01*
X31680Y-19125D02*
X31850Y-18954D01*
X31850Y-18954D02*
X31850Y-18740D01*
G54D53*
X26370Y-31455D02*
X26370Y-30980D01*
X26370Y-31455D02*
X26370Y-30980D01*
G54D45*
X31972Y-18618D02*
X31850Y-18740D01*
X32523Y-18618D02*
X31972Y-18618D01*
X57078Y-25006D02*
X57078Y-26064D01*
X57078Y-26064D02*
X57071Y-26070D01*
X57111Y-27566D02*
X57111Y-28434D01*
X57111Y-28434D02*
X57183Y-28506D01*
X57071Y-29574D02*
X57071Y-28618D01*
X57071Y-28618D02*
X57183Y-28506D01*
X52920Y-30968D02*
X53371Y-30968D01*
X53371Y-30968D02*
X53897Y-30443D01*
X53897Y-30443D02*
X56797Y-30443D01*
G54D47*
X58737Y-22066D02*
X61968Y-22066D01*
X61968Y-22066D02*
X62008Y-22026D01*
X59883Y-22066D02*
X59918Y-22101D01*
X58454Y-22066D02*
X58737Y-22066D01*
X58737Y-22066D02*
X59883Y-22066D01*
X61018Y-22026D02*
X62008Y-22026D01*
X61008Y-22036D02*
X61018Y-22026D01*
G54D45*
X57071Y-30168D02*
X57071Y-29574D01*
X56797Y-30443D02*
X57071Y-30168D01*
G54D43*
X33780Y-45394D02*
X33945Y-45394D01*
X33945Y-45394D02*
X34262Y-45394D01*
X33388Y-45394D02*
X33693Y-45394D01*
X33693Y-45394D02*
X33780Y-45394D01*
X33381Y-45387D02*
X33388Y-45394D01*
X43380Y-28011D02*
X43380Y-28980D01*
X43236Y-29124D02*
X43052Y-29124D01*
X43380Y-28980D02*
X43236Y-29124D01*
X43702Y-26794D02*
X43380Y-27117D01*
X43380Y-27117D02*
X43380Y-27345D01*
X43702Y-26794D02*
X45705Y-24792D01*
X46341Y-24792D02*
X46343Y-24790D01*
X46341Y-24792D02*
X45705Y-24792D01*
X43380Y-28011D02*
X43380Y-27345D01*
X54428Y-19074D02*
X54571Y-18931D01*
X36841Y-18060D02*
X35444Y-18060D01*
X36883Y-18102D02*
X36841Y-18060D01*
X40487Y-25817D02*
X40487Y-25650D01*
X39884Y-26420D02*
X40487Y-25817D01*
G54D47*
X56958Y-20570D02*
X57848Y-21460D01*
X56210Y-20570D02*
X56958Y-20570D01*
X54571Y-18931D02*
X56210Y-20570D01*
X53691Y-17952D02*
X53691Y-18051D01*
X53691Y-14263D02*
X53691Y-17952D01*
X53691Y-18051D02*
X54571Y-18931D01*
X56958Y-20570D02*
X58454Y-22066D01*
X50644Y-14253D02*
X53691Y-14263D01*
X53691Y-14263D02*
X56159Y-14271D01*
X56159Y-14271D02*
X56875Y-14273D01*
X56875Y-14273D02*
X56945Y-14203D01*
G54D43*
X74312Y-62685D02*
X74690Y-62685D01*
X73597Y-61970D02*
X74312Y-62685D01*
X65822Y-61970D02*
X73597Y-61970D01*
X65001Y-61149D02*
X65822Y-61970D01*
X65001Y-60707D02*
X65001Y-61149D01*
X65001Y-60707D02*
X64994Y-60700D01*
X26943Y-47089D02*
X26950Y-47082D01*
X26950Y-47082D02*
X28158Y-47082D01*
X28158Y-47082D02*
X28692Y-46548D01*
X29736Y-44829D02*
X29554Y-44829D01*
X29554Y-44829D02*
X26411Y-44829D01*
X30132Y-44433D02*
X29736Y-44829D01*
X30132Y-44277D02*
X30132Y-44433D01*
X30237Y-44172D02*
X30132Y-44277D01*
G54D46*
X42390Y-60060D02*
X43950Y-60060D01*
X45240Y-61350D02*
X47505Y-61350D01*
X43950Y-60060D02*
X45240Y-61350D01*
G54D50*
X41900Y-59852D02*
X42182Y-59852D01*
X42182Y-59852D02*
X42390Y-60060D01*
G54D46*
X35772Y-56955D02*
X37953Y-56955D01*
X41058Y-60060D02*
X42390Y-60060D01*
X37953Y-56955D02*
X41058Y-60060D01*
X27783Y-59094D02*
X31610Y-59094D01*
X33750Y-56955D02*
X35772Y-56955D01*
X31610Y-59094D02*
X33750Y-56955D01*
G54D48*
X27783Y-59094D02*
X31866Y-59094D01*
X31866Y-59094D02*
X33704Y-60933D01*
X33704Y-60933D02*
X37311Y-60933D01*
X37311Y-60933D02*
X39866Y-63488D01*
X39866Y-63488D02*
X42224Y-63488D01*
X42224Y-63488D02*
X42259Y-63523D01*
G54D45*
X32677Y-18618D02*
X32677Y-18366D01*
X32523Y-18618D02*
X32523Y-18519D01*
X32523Y-18519D02*
X32677Y-18366D01*
X32677Y-18366D02*
X32700Y-18342D01*
X32956Y-18618D02*
X32677Y-18618D01*
X32677Y-18618D02*
X32523Y-18618D01*
X33921Y-18618D02*
X33921Y-18602D01*
X33921Y-18602D02*
X34078Y-18444D01*
X32700Y-17536D02*
X32700Y-18342D01*
X32700Y-18342D02*
X32700Y-18362D01*
X32700Y-18362D02*
X32956Y-18618D01*
X32956Y-18618D02*
X33921Y-18618D01*
X33921Y-18618D02*
X34251Y-18618D01*
X34078Y-18076D02*
X34078Y-18444D01*
X35444Y-18566D02*
X35444Y-18060D01*
X35090Y-18618D02*
X35393Y-18618D01*
X34767Y-18618D02*
X35090Y-18618D01*
X34251Y-18618D02*
X34767Y-18618D01*
X35393Y-18618D02*
X35444Y-18566D01*
X34078Y-18444D02*
X34251Y-18618D01*
G54D43*
X57111Y-27566D02*
X57248Y-27566D01*
G54D52*
X57071Y-29574D02*
X57208Y-29574D01*
G54D43*
X85673Y-19417D02*
X85358Y-19732D01*
X85358Y-19732D02*
X84098Y-19732D01*
X84098Y-19732D02*
X83744Y-19377D01*
X83744Y-19377D02*
X83744Y-18314D01*
X83744Y-18314D02*
X83429Y-18000D01*
X89649Y-18078D02*
X90397Y-18078D01*
G54D45*
X51849Y-30968D02*
X52920Y-30968D01*
X51848Y-30967D02*
X51849Y-30968D01*
G54D47*
X80262Y-17316D02*
X80262Y-16470D01*
X80262Y-16470D02*
X79646Y-15854D01*
X73778Y-22101D02*
X77665Y-22101D01*
X77665Y-22101D02*
X78613Y-22101D01*
X78613Y-22101D02*
X80262Y-20452D01*
X80262Y-20452D02*
X80262Y-19137D01*
X80262Y-19137D02*
X80262Y-17316D01*
X80262Y-17316D02*
X80262Y-17064D01*
X80240Y-16382D02*
X79712Y-15854D01*
X79712Y-15854D02*
X79646Y-15854D01*
X69669Y-22101D02*
X67683Y-22101D01*
X67683Y-22101D02*
X67643Y-22061D01*
X67643Y-22061D02*
X68543Y-22061D01*
X69438Y-22101D02*
X69669Y-22101D01*
X69669Y-22101D02*
X73778Y-22101D01*
X69383Y-22046D02*
X69438Y-22101D01*
G54D44*
X59177Y-37396D02*
X59177Y-37336D01*
G54D43*
X41805Y-46409D02*
X41805Y-46387D01*
X41805Y-46387D02*
X41606Y-46188D01*
X41606Y-46188D02*
X40928Y-46188D01*
X40928Y-46188D02*
X40928Y-46245D01*
X41588Y-46374D02*
X41588Y-46357D01*
X41588Y-46357D02*
X41554Y-46323D01*
X41554Y-46323D02*
X41042Y-46323D01*
X41042Y-46323D02*
X41037Y-46328D01*
X40875Y-46245D02*
X40928Y-46245D01*
X40928Y-46245D02*
X41621Y-46245D01*
X41621Y-46245D02*
X41642Y-46224D01*
X43364Y-41909D02*
X43364Y-41956D01*
X43364Y-41956D02*
X43461Y-42053D01*
X51683Y-20280D02*
X52333Y-20280D01*
X52333Y-20280D02*
X53460Y-21407D01*
X44849Y-20880D02*
X45494Y-20880D01*
X46094Y-20280D02*
X51683Y-20280D01*
X45494Y-20880D02*
X46094Y-20280D01*
X35658Y-41678D02*
X34240Y-41678D01*
X35672Y-41664D02*
X35658Y-41678D01*
X33617Y-43659D02*
X33617Y-42393D01*
X33617Y-42393D02*
X34240Y-41770D01*
X34240Y-41770D02*
X34240Y-41678D01*
X34240Y-40870D02*
X34360Y-40750D01*
X34240Y-41678D02*
X34240Y-40870D01*
X34360Y-40750D02*
X34360Y-40407D01*
X34429Y-40338D02*
X34772Y-40338D01*
X34360Y-40407D02*
X34429Y-40338D01*
X34772Y-40338D02*
X35360Y-39750D01*
X34295Y-40815D02*
X34360Y-40750D01*
G54D45*
X36873Y-37044D02*
X36923Y-37094D01*
G54D43*
X37566Y-37206D02*
X37566Y-37022D01*
X37566Y-37022D02*
X37586Y-37002D01*
X37586Y-37002D02*
X37586Y-37003D01*
X37289Y-37094D02*
X37495Y-37094D01*
X37495Y-37094D02*
X37586Y-37003D01*
X37586Y-37003D02*
X38406Y-36183D01*
X36923Y-37094D02*
X37289Y-37094D01*
X37289Y-37094D02*
X37470Y-37094D01*
X33093Y-32733D02*
X33138Y-32778D01*
X33138Y-32778D02*
X34118Y-32778D01*
X34118Y-32778D02*
X34485Y-33145D01*
X34485Y-33145D02*
X36456Y-33145D01*
X43272Y-42854D02*
X43272Y-43332D01*
X42861Y-43743D02*
X42861Y-43773D01*
X43272Y-43332D02*
X42861Y-43743D01*
X43059Y-39537D02*
X43059Y-39837D01*
X43079Y-41909D02*
X43364Y-41909D01*
X43364Y-41909D02*
X43515Y-41909D01*
X42858Y-41688D02*
X43079Y-41909D01*
X42858Y-40038D02*
X42858Y-41688D01*
X43059Y-39837D02*
X42858Y-40038D01*
G54D52*
X42944Y-35870D02*
X42944Y-35828D01*
X42944Y-35828D02*
X43040Y-35732D01*
X42944Y-35732D02*
X43040Y-35732D01*
X43040Y-35732D02*
X43060Y-35712D01*
X42749Y-37334D02*
X42749Y-37006D01*
X42944Y-36811D02*
X42944Y-35870D01*
X42944Y-35870D02*
X42944Y-35732D01*
X42944Y-35732D02*
X42944Y-35596D01*
X42749Y-37006D02*
X42944Y-36811D01*
G54D43*
X42918Y-42854D02*
X43272Y-42854D01*
X43272Y-42854D02*
X43330Y-42854D01*
X43564Y-41860D02*
X44100Y-41860D01*
X43461Y-41963D02*
X43515Y-41909D01*
X43515Y-41909D02*
X43564Y-41860D01*
X43461Y-42115D02*
X43461Y-42053D01*
X43461Y-42053D02*
X43461Y-41963D01*
X43466Y-42120D02*
X43461Y-42115D01*
X43466Y-42718D02*
X43466Y-42120D01*
X43330Y-42854D02*
X43466Y-42718D01*
X36585Y-46740D02*
X37317Y-46740D01*
X43387Y-46805D02*
X43479Y-46805D01*
X42802Y-47390D02*
X43387Y-46805D01*
X40756Y-47390D02*
X42802Y-47390D01*
X40509Y-47637D02*
X40756Y-47390D01*
X39362Y-47637D02*
X40509Y-47637D01*
X37317Y-46740D02*
X37319Y-46742D01*
X35265Y-45975D02*
X35715Y-45975D01*
X36007Y-46740D02*
X36585Y-46740D01*
X35870Y-46603D02*
X36007Y-46740D01*
X35870Y-46130D02*
X35870Y-46603D01*
X35715Y-45975D02*
X35870Y-46130D01*
X41850Y-46173D02*
X41850Y-46363D01*
X41850Y-46363D02*
X41805Y-46409D01*
X41588Y-46409D02*
X41588Y-46374D01*
X41588Y-46374D02*
X41706Y-46256D01*
X41679Y-46120D02*
X41679Y-46130D01*
X41679Y-46130D02*
X41805Y-46256D01*
X40750Y-46120D02*
X41679Y-46120D01*
X41679Y-46120D02*
X41797Y-46120D01*
X41797Y-46120D02*
X41850Y-46173D01*
X41805Y-46409D02*
X41805Y-46256D01*
X41805Y-46256D02*
X41805Y-46218D01*
X41805Y-46218D02*
X41850Y-46173D01*
X41850Y-46173D02*
X42035Y-45988D01*
X40780Y-46150D02*
X40750Y-46120D01*
X40750Y-46120D02*
X40875Y-46245D01*
X40875Y-46245D02*
X40890Y-46260D01*
X41029Y-46409D02*
X41588Y-46409D01*
X41588Y-46409D02*
X41805Y-46409D01*
X40890Y-46270D02*
X41029Y-46409D01*
X40890Y-46260D02*
X40890Y-46270D01*
X40650Y-45715D02*
X40650Y-46020D01*
X40650Y-46020D02*
X40780Y-46150D01*
X40725Y-34020D02*
X39983Y-34020D01*
X38829Y-35174D02*
X38829Y-35760D01*
X39983Y-34020D02*
X38829Y-35174D01*
X38468Y-37583D02*
X37943Y-37583D01*
X37470Y-37110D02*
X37470Y-37094D01*
X37943Y-37583D02*
X37566Y-37206D01*
X37566Y-37206D02*
X37470Y-37110D01*
X41265Y-35461D02*
X41265Y-35451D01*
X41265Y-35451D02*
X41125Y-35311D01*
X41125Y-35311D02*
X40723Y-35311D01*
X38829Y-35760D02*
X38406Y-36183D01*
X40621Y-35798D02*
X40460Y-35959D01*
X40621Y-35413D02*
X40621Y-35798D01*
X40723Y-35311D02*
X40621Y-35413D01*
X41424Y-35311D02*
X41125Y-35311D01*
X41265Y-35878D02*
X41265Y-35461D01*
X41415Y-35311D02*
X41424Y-35311D01*
X41424Y-35311D02*
X42944Y-35311D01*
X41265Y-35461D02*
X41415Y-35311D01*
X42944Y-35311D02*
X42944Y-35596D01*
X44195Y-35712D02*
X44289Y-35618D01*
X43060Y-35712D02*
X44195Y-35712D01*
X42944Y-35596D02*
X43060Y-35712D01*
X36485Y-31128D02*
X37450Y-31128D01*
X45187Y-30770D02*
X45395Y-30770D01*
X44910Y-31047D02*
X45187Y-30770D01*
X42803Y-31047D02*
X44910Y-31047D01*
X41652Y-32198D02*
X42803Y-31047D01*
X38358Y-32198D02*
X41652Y-32198D01*
X37602Y-31442D02*
X38358Y-32198D01*
X37602Y-31280D02*
X37602Y-31442D01*
X37450Y-31128D02*
X37602Y-31280D01*
X35250Y-31455D02*
X34659Y-31455D01*
X34434Y-31230D02*
X34659Y-31455D01*
X34434Y-30405D02*
X34434Y-31230D01*
X34434Y-30405D02*
X34430Y-30401D01*
X35250Y-31455D02*
X35713Y-31455D01*
X35894Y-31128D02*
X36485Y-31128D01*
X35856Y-31167D02*
X35894Y-31128D01*
X35856Y-31312D02*
X35856Y-31167D01*
X35713Y-31455D02*
X35856Y-31312D01*
X40791Y-21858D02*
X40791Y-21128D01*
X53460Y-23830D02*
X53460Y-25110D01*
X53450Y-23820D02*
X53460Y-23830D01*
X53460Y-21407D02*
X53460Y-22850D01*
X41040Y-20880D02*
X44849Y-20880D01*
X40791Y-21128D02*
X41040Y-20880D01*
X51102Y-25655D02*
X51723Y-25034D01*
X51102Y-26042D02*
X51102Y-25655D01*
X51019Y-26125D02*
X51102Y-26042D01*
X50300Y-26125D02*
X51019Y-26125D01*
X51723Y-25034D02*
X51723Y-25016D01*
X51723Y-25016D02*
X51899Y-24840D01*
X51899Y-24840D02*
X53190Y-24840D01*
X53190Y-24840D02*
X53460Y-25110D01*
X53460Y-25110D02*
X53460Y-26070D01*
X53330Y-28370D02*
X51480Y-28370D01*
X53460Y-28240D02*
X53330Y-28370D01*
X53460Y-26070D02*
X53460Y-28240D01*
X46605Y-28080D02*
X46278Y-28080D01*
X46845Y-27105D02*
X49130Y-27105D01*
X46161Y-27789D02*
X46845Y-27105D01*
X46161Y-27963D02*
X46161Y-27789D01*
X46278Y-28080D02*
X46161Y-27963D01*
X51390Y-29436D02*
X51390Y-28460D01*
X51390Y-28460D02*
X51480Y-28370D01*
X49130Y-27105D02*
X49506Y-27105D01*
X49506Y-27105D02*
X49831Y-27430D01*
X51480Y-28370D02*
X51010Y-28370D01*
X51010Y-28370D02*
X50070Y-27430D01*
X50070Y-27430D02*
X49831Y-27430D01*
X40791Y-24472D02*
X42287Y-24472D01*
X42427Y-23942D02*
X42463Y-23905D01*
X42427Y-24332D02*
X42427Y-23942D01*
X42287Y-24472D02*
X42427Y-24332D01*
X35500Y-25250D02*
X35500Y-25670D01*
X40791Y-24784D02*
X40791Y-24472D01*
X40791Y-24472D02*
X40791Y-24453D01*
X40791Y-24453D02*
X40791Y-23039D01*
X39606Y-25970D02*
X40791Y-24784D01*
X35798Y-25970D02*
X39606Y-25970D01*
X35670Y-25842D02*
X35798Y-25970D01*
X35670Y-25840D02*
X35670Y-25842D01*
X35500Y-25670D02*
X35670Y-25840D01*
X41381Y-21719D02*
X40930Y-21719D01*
X40791Y-21858D02*
X40791Y-23039D01*
X40930Y-21719D02*
X40791Y-21858D01*
X41381Y-21719D02*
X41754Y-21719D01*
X42456Y-22566D02*
X42496Y-22527D01*
X42011Y-22566D02*
X42456Y-22566D01*
X41933Y-22488D02*
X42011Y-22566D01*
X41933Y-21897D02*
X41933Y-22488D01*
X41893Y-21858D02*
X41933Y-21897D01*
X41854Y-21818D02*
X41893Y-21858D01*
X41754Y-21719D02*
X41854Y-21818D01*
G54D50*
X154171Y-58948D02*
X154163Y-58956D01*
X154163Y-58956D02*
X154653Y-58956D01*
X154653Y-58956D02*
X154671Y-58956D01*
X154671Y-58956D02*
X155370Y-58956D01*
G54D51*
X150082Y-58956D02*
X150960Y-58956D01*
X150960Y-58956D02*
X156763Y-58956D01*
X156763Y-58956D02*
X156771Y-58948D01*
G54D47*
X152519Y-58948D02*
X156771Y-58948D01*
G54D53*
X54310Y-49451D02*
X54310Y-49625D01*
X54310Y-49625D02*
X55055Y-50370D01*
X55055Y-50370D02*
X55055Y-50305D01*
X55055Y-50305D02*
X55908Y-49451D01*
X45977Y-50638D02*
X46508Y-50638D01*
X55055Y-52115D02*
X55055Y-50370D01*
X54110Y-53060D02*
X55055Y-52115D01*
X48930Y-53060D02*
X54110Y-53060D01*
X46508Y-50638D02*
X48930Y-53060D01*
X55055Y-50370D02*
X55055Y-49451D01*
X53460Y-49451D02*
X54310Y-49451D01*
X54310Y-49451D02*
X55055Y-49451D01*
X55055Y-49451D02*
X55908Y-49451D01*
X55908Y-49451D02*
X56936Y-49451D01*
X56936Y-49451D02*
X57024Y-49363D01*
G54D50*
X138285Y-34125D02*
X138918Y-34758D01*
X138918Y-34758D02*
X138998Y-34758D01*
X139897Y-35772D02*
X140631Y-36506D01*
X140631Y-36506D02*
X140746Y-36506D01*
X141481Y-37356D02*
X141580Y-37455D01*
X141580Y-37455D02*
X143000Y-37455D01*
X144342Y-37356D02*
X144441Y-37455D01*
X144441Y-37455D02*
X146212Y-37455D01*
X147863Y-37356D02*
X147962Y-37455D01*
X147962Y-37455D02*
X149368Y-37455D01*
X150084Y-37356D02*
X150060Y-37380D01*
X150060Y-37380D02*
X150060Y-37455D01*
X134534Y-34023D02*
X134578Y-34023D01*
X134578Y-34023D02*
X134876Y-33726D01*
X135430Y-33142D02*
X135448Y-33160D01*
X135448Y-33160D02*
X136017Y-33160D01*
X132689Y-38023D02*
X133925Y-38023D01*
X134574Y-37224D02*
X134653Y-37144D01*
X134653Y-37144D02*
X134653Y-36102D01*
G54D47*
X131614Y-38023D02*
X133925Y-38023D01*
X134653Y-37295D02*
X134653Y-34901D01*
X133925Y-38023D02*
X134653Y-37295D01*
X134653Y-34901D02*
X134744Y-34992D01*
X134503Y-33803D02*
X134534Y-34023D01*
X134534Y-34023D02*
X134653Y-34901D01*
X134653Y-34901D02*
X134744Y-34992D01*
X134503Y-33803D02*
X135147Y-33160D01*
X135147Y-33160D02*
X137285Y-33160D01*
X137285Y-33160D02*
X137400Y-33160D01*
X137400Y-33160D02*
X139932Y-35692D01*
X139932Y-35692D02*
X140746Y-36506D01*
X140746Y-36506D02*
X140746Y-36536D01*
X140746Y-36536D02*
X141665Y-37455D01*
X141665Y-37455D02*
X150060Y-37455D01*
X150060Y-37455D02*
X150125Y-37455D01*
X150125Y-37455D02*
X150844Y-36736D01*
X150844Y-36736D02*
X150844Y-35556D01*
G54D45*
X115180Y-30401D02*
X120663Y-30401D01*
X120663Y-30401D02*
X120675Y-30390D01*
G54D50*
X129378Y-27901D02*
X128998Y-27901D01*
X128998Y-27901D02*
X128618Y-28281D01*
X128618Y-28281D02*
X128618Y-30023D01*
G54D45*
X105153Y-32220D02*
X104259Y-32220D01*
X105157Y-32216D02*
X105153Y-32220D01*
X107370Y-30401D02*
X107358Y-30389D01*
X115180Y-30401D02*
X107370Y-30401D01*
G54D43*
X107782Y-35421D02*
X107782Y-36388D01*
X107568Y-36603D02*
X107244Y-36603D01*
X107782Y-36388D02*
X107568Y-36603D01*
X104256Y-33972D02*
X104256Y-36032D01*
X104807Y-36582D02*
X104925Y-36582D01*
X104256Y-36032D02*
X104807Y-36582D01*
G54D45*
X104256Y-33972D02*
X104256Y-33617D01*
X104634Y-33239D02*
X104634Y-33213D01*
X104256Y-33617D02*
X104634Y-33239D01*
X104634Y-33213D02*
X104634Y-33086D01*
X104634Y-33213D02*
X104634Y-33086D01*
G54D50*
X127021Y-33329D02*
X127218Y-33132D01*
X127218Y-33132D02*
X128175Y-33132D01*
X129465Y-33329D02*
X129662Y-33132D01*
X129662Y-33132D02*
X131612Y-33132D01*
X132516Y-32108D02*
X133864Y-30760D01*
X133864Y-30760D02*
X133984Y-30760D01*
X134782Y-29842D02*
X134842Y-29902D01*
X141300Y-26715D02*
X141984Y-26030D01*
X141984Y-26030D02*
X142040Y-26030D01*
X143300Y-25160D02*
X144900Y-25160D01*
X135950Y-28650D02*
X136384Y-28215D01*
X136384Y-28215D02*
X136384Y-28194D01*
X137170Y-28050D02*
X137261Y-28141D01*
X137261Y-28141D02*
X137940Y-28141D01*
X138512Y-29070D02*
X138318Y-29263D01*
X138318Y-29263D02*
X138318Y-29681D01*
X137612Y-30050D02*
X137555Y-30106D01*
X137555Y-30106D02*
X136920Y-30106D01*
X136345Y-29495D02*
X135937Y-29087D01*
X135937Y-29087D02*
X135937Y-28862D01*
G54D47*
X125196Y-36023D02*
X125196Y-35090D01*
X125196Y-35090D02*
X127155Y-33132D01*
X131612Y-33132D02*
X133244Y-31500D01*
X127155Y-33132D02*
X131612Y-33132D01*
X125196Y-36023D02*
X125196Y-37401D01*
X125196Y-37401D02*
X125787Y-37992D01*
X125787Y-37992D02*
X128590Y-37992D01*
X128590Y-37992D02*
X128622Y-38023D01*
G54D49*
X135937Y-28862D02*
X135937Y-28641D01*
X135937Y-28641D02*
X136437Y-28141D01*
X136437Y-28141D02*
X138318Y-28141D01*
X138318Y-29488D02*
X138409Y-29488D01*
X138409Y-29488D02*
X139755Y-28141D01*
X139755Y-28141D02*
X139755Y-28314D01*
X135937Y-28862D02*
X135937Y-29149D01*
G54D47*
X135881Y-28862D02*
X135937Y-28862D01*
G54D49*
X138318Y-29681D02*
X138318Y-29488D01*
X138318Y-29488D02*
X138318Y-28141D01*
X137893Y-30106D02*
X138318Y-29681D01*
X136893Y-30106D02*
X137893Y-30106D01*
X135937Y-29149D02*
X136893Y-30106D01*
G54D47*
X142910Y-25160D02*
X139755Y-28314D01*
X139755Y-28314D02*
X139929Y-28141D01*
X142910Y-25160D02*
X147285Y-25160D01*
X139929Y-28141D02*
X138318Y-28141D01*
X133244Y-31500D02*
X134842Y-29902D01*
X134842Y-29902D02*
X135881Y-28862D01*
X147285Y-25160D02*
X150115Y-25160D01*
X150844Y-25889D02*
X150844Y-27556D01*
X150115Y-25160D02*
X150844Y-25889D01*
G54D48*
X15884Y-53210D02*
X15884Y-53606D01*
G54D46*
X16644Y-55294D02*
X15870Y-54520D01*
X15870Y-54520D02*
X15870Y-53620D01*
X16644Y-55294D02*
X17955Y-55294D01*
G54D48*
X15884Y-53606D02*
X15870Y-53620D01*
G54D44*
X17857Y-62298D02*
X17857Y-62869D01*
X17857Y-62869D02*
X19118Y-64130D01*
X20325Y-64064D02*
X20391Y-64130D01*
X20391Y-64130D02*
X21360Y-64130D01*
X22380Y-64064D02*
X22446Y-64130D01*
X22446Y-64130D02*
X25200Y-64130D01*
X26400Y-64064D02*
X26466Y-64130D01*
X26466Y-64130D02*
X27742Y-64130D01*
X30228Y-64064D02*
X30294Y-64130D01*
X30294Y-64130D02*
X31504Y-64130D01*
X33022Y-64064D02*
X33022Y-64130D01*
G54D49*
X17857Y-62298D02*
X17857Y-62869D01*
X17857Y-62869D02*
X19118Y-64130D01*
X19118Y-64130D02*
X33022Y-64130D01*
X33022Y-64130D02*
X34195Y-64130D01*
X34195Y-64130D02*
X34320Y-64005D01*
G54D43*
X103506Y-36150D02*
X103506Y-33972D01*
X102877Y-36779D02*
X103506Y-36150D01*
G54D45*
X150402Y-50055D02*
X151129Y-50055D01*
X151366Y-49288D02*
X151326Y-49249D01*
X151366Y-49818D02*
X151366Y-49288D01*
X151129Y-50055D02*
X151366Y-49818D01*
X148749Y-50094D02*
X149613Y-50094D01*
X149613Y-50094D02*
X149652Y-50055D01*
G54D50*
X135669Y-52030D02*
X136039Y-52030D01*
X136039Y-52030D02*
X136744Y-51326D01*
X138390Y-51330D02*
X139472Y-50247D01*
X139472Y-50247D02*
X139472Y-50232D01*
X140820Y-50232D02*
X141585Y-50232D01*
G54D45*
X143047Y-50232D02*
X146740Y-50232D01*
X146877Y-50094D02*
X147999Y-50094D01*
X146740Y-50232D02*
X146877Y-50094D01*
G54D51*
X135669Y-52799D02*
X135669Y-52030D01*
X135669Y-52030D02*
X135669Y-52401D01*
X135669Y-52401D02*
X136744Y-51326D01*
X135661Y-50244D02*
X136744Y-51326D01*
X136744Y-51326D02*
X137216Y-51326D01*
G54D47*
X137370Y-51326D02*
X137216Y-51326D01*
X137216Y-51326D02*
X137141Y-51326D01*
X137141Y-51326D02*
X135669Y-52799D01*
G54D51*
X135669Y-51326D02*
X137370Y-51326D01*
X137370Y-51326D02*
X138377Y-51326D01*
X139472Y-50232D02*
X141585Y-50232D01*
X141585Y-50232D02*
X143047Y-50232D01*
X138377Y-51326D02*
X139472Y-50232D01*
X135669Y-52799D02*
X135669Y-51326D01*
X135669Y-51326D02*
X135669Y-50251D01*
X135669Y-50251D02*
X135661Y-50244D01*
G54D45*
X128622Y-41261D02*
X129565Y-42205D01*
X129565Y-42205D02*
X129565Y-42214D01*
G54D47*
X128622Y-40023D02*
X128598Y-41248D01*
X130704Y-43354D02*
X130740Y-43354D01*
X128598Y-41248D02*
X130704Y-43354D01*
G54D45*
X132582Y-40992D02*
X132731Y-41141D01*
X132731Y-41141D02*
X133759Y-41141D01*
X134744Y-42162D02*
X134714Y-42191D01*
X134714Y-42191D02*
X134714Y-42195D01*
G54D47*
X133759Y-41141D02*
X133759Y-41240D01*
X133759Y-41240D02*
X134714Y-42195D01*
X134714Y-42195D02*
X134744Y-42224D01*
X131614Y-40023D02*
X131657Y-40023D01*
X134744Y-41141D02*
X134744Y-40992D01*
X132775Y-41141D02*
X133759Y-41141D01*
X133759Y-41141D02*
X134744Y-41141D01*
X131657Y-40023D02*
X132775Y-41141D01*
X134744Y-40992D02*
X134744Y-42224D01*
X135661Y-43141D02*
X135661Y-43354D01*
X134744Y-42224D02*
X135661Y-43141D01*
G54D44*
X75248Y-20171D02*
X75248Y-19246D01*
X75248Y-19246D02*
X75688Y-18806D01*
X75688Y-18806D02*
X77247Y-18806D01*
X77247Y-18806D02*
X77277Y-18776D01*
G54D50*
X74700Y-58410D02*
X75360Y-58410D01*
X75747Y-57883D02*
X75750Y-57883D01*
X75747Y-58023D02*
X75747Y-57883D01*
X75360Y-58410D02*
X75747Y-58023D01*
X74688Y-56584D02*
X75394Y-56584D01*
X75750Y-56940D02*
X75750Y-57883D01*
X75394Y-56584D02*
X75750Y-56940D01*
G54D44*
X83685Y-47500D02*
X83670Y-47515D01*
X83670Y-47515D02*
X83670Y-48020D01*
X83685Y-48590D02*
X83675Y-48600D01*
X83675Y-48600D02*
X83670Y-48600D01*
X73560Y-42495D02*
X73950Y-42495D01*
X74670Y-42495D02*
X75330Y-42495D01*
X76005Y-42495D02*
X76680Y-42495D01*
X77370Y-42495D02*
X78015Y-42495D01*
X78705Y-42495D02*
X79230Y-42495D01*
X85035Y-51735D02*
X84637Y-51337D01*
X84637Y-51337D02*
X84637Y-51307D01*
X84314Y-50850D02*
X83932Y-50467D01*
X83932Y-50467D02*
X83797Y-50467D01*
X83429Y-49965D02*
X83024Y-49560D01*
X83024Y-49560D02*
X82890Y-49560D01*
X82901Y-48960D02*
X82890Y-48960D01*
X80680Y-44430D02*
X81040Y-44790D01*
X81040Y-44790D02*
X81040Y-44890D01*
X81594Y-45235D02*
X82040Y-45681D01*
X82040Y-45681D02*
X82040Y-45890D01*
X72050Y-43267D02*
X72496Y-43267D01*
X72496Y-43267D02*
X72820Y-42944D01*
X72820Y-42944D02*
X73238Y-42944D01*
X73780Y-43267D02*
X74438Y-43267D01*
X75166Y-43267D02*
X75831Y-43267D01*
X76524Y-43267D02*
X77230Y-43267D01*
X77940Y-43267D02*
X78330Y-43267D01*
G54D48*
X85440Y-52110D02*
X85515Y-52110D01*
X85515Y-52110D02*
X85980Y-51645D01*
X83670Y-46455D02*
X83670Y-46960D01*
X83670Y-46960D02*
X83670Y-48600D01*
X83670Y-48600D02*
X83670Y-49335D01*
X83670Y-49335D02*
X85980Y-51645D01*
X71118Y-43267D02*
X72050Y-43267D01*
X72050Y-43267D02*
X78330Y-43267D01*
X78330Y-43267D02*
X79417Y-43267D01*
X79417Y-43267D02*
X82890Y-46740D01*
X82890Y-46740D02*
X82890Y-48960D01*
X82890Y-48960D02*
X82890Y-49560D01*
X82890Y-49560D02*
X85440Y-52110D01*
X71118Y-43267D02*
X71118Y-43136D01*
X71118Y-43136D02*
X71760Y-42495D01*
X71760Y-42495D02*
X73560Y-42495D01*
X73560Y-42495D02*
X79230Y-42495D01*
X79230Y-42495D02*
X79710Y-42495D01*
X79710Y-42495D02*
X83670Y-46455D01*
G54D44*
X104832Y-63822D02*
X104884Y-63874D01*
X104884Y-63874D02*
X105630Y-63874D01*
X106425Y-63822D02*
X106477Y-63874D01*
X106477Y-63874D02*
X107070Y-63874D01*
X94230Y-63822D02*
X94282Y-63874D01*
X94282Y-63874D02*
X95070Y-63874D01*
X95850Y-63822D02*
X95902Y-63874D01*
X95902Y-63874D02*
X97034Y-63874D01*
X98147Y-63822D02*
X98199Y-63874D01*
X98199Y-63874D02*
X98925Y-63874D01*
X99795Y-63822D02*
X99847Y-63874D01*
X99847Y-63874D02*
X100650Y-63874D01*
X97439Y-62868D02*
X97651Y-62868D01*
X97651Y-62868D02*
X97837Y-62683D01*
X97837Y-62683D02*
X97837Y-62944D01*
X97837Y-62944D02*
X98114Y-63221D01*
X98114Y-63221D02*
X98114Y-62960D01*
X98398Y-63244D02*
X98635Y-63244D01*
X98635Y-63244D02*
X98652Y-63228D01*
X97425Y-62200D02*
X97907Y-62200D01*
X97907Y-62200D02*
X98925Y-63218D01*
X98925Y-63218D02*
X98925Y-63874D01*
X97425Y-62200D02*
X97425Y-62271D01*
X97425Y-62271D02*
X97837Y-62683D01*
X97837Y-62683D02*
X98114Y-62960D01*
X98114Y-62960D02*
X98398Y-63244D01*
X98398Y-63244D02*
X98420Y-63266D01*
X97034Y-63874D02*
X97034Y-63468D01*
X97034Y-63468D02*
X97439Y-63063D01*
X97439Y-63063D02*
X97439Y-62868D01*
X97425Y-62200D02*
X97425Y-62854D01*
X97425Y-62854D02*
X97439Y-62868D01*
X97439Y-62868D02*
X97439Y-62868D01*
X97439Y-62868D02*
X97439Y-63243D01*
X91877Y-63035D02*
X91877Y-63522D01*
X91877Y-63522D02*
X92194Y-63838D01*
X92194Y-63838D02*
X92318Y-63838D01*
X91877Y-62287D02*
X92030Y-62287D01*
X92030Y-62287D02*
X93617Y-63874D01*
X91877Y-62287D02*
X91877Y-62505D01*
X91877Y-62505D02*
X92596Y-63224D01*
X97425Y-62200D02*
X97425Y-62854D01*
X97425Y-62854D02*
X98444Y-63874D01*
X91877Y-62287D02*
X91877Y-63035D01*
X91877Y-63035D02*
X92716Y-63874D01*
G54D46*
X98444Y-63874D02*
X97034Y-63874D01*
X97034Y-63874D02*
X93617Y-63874D01*
X93617Y-63874D02*
X92716Y-63874D01*
X92716Y-63874D02*
X92354Y-63874D01*
X92354Y-63874D02*
X92318Y-63838D01*
G54D48*
X98925Y-63874D02*
X98444Y-63874D01*
X98444Y-63874D02*
X98208Y-63874D01*
G54D46*
X108112Y-62912D02*
X108112Y-63458D01*
X108112Y-63458D02*
X107696Y-63874D01*
X107696Y-63874D02*
X99633Y-63874D01*
X99633Y-63874D02*
X98925Y-63874D01*
X98925Y-63874D02*
X98208Y-63874D01*
G54D44*
X86614Y-57525D02*
X86640Y-57550D01*
X86640Y-57550D02*
X86640Y-58200D01*
X86614Y-59175D02*
X86640Y-59200D01*
X86640Y-59200D02*
X86640Y-60180D01*
X86614Y-61155D02*
X86640Y-61180D01*
X86640Y-61180D02*
X86640Y-61952D01*
X86614Y-63118D02*
X87384Y-63887D01*
X87384Y-63887D02*
X87384Y-64013D01*
X85845Y-58020D02*
X85900Y-58075D01*
X85900Y-58075D02*
X85900Y-58710D01*
X85845Y-59775D02*
X85900Y-59830D01*
X85900Y-59830D02*
X85900Y-60690D01*
X85845Y-61530D02*
X85900Y-61585D01*
X85900Y-61585D02*
X85900Y-62510D01*
X85936Y-63206D02*
X86713Y-63983D01*
X86713Y-63983D02*
X86713Y-64013D01*
X88095Y-63889D02*
X88218Y-64013D01*
X88218Y-64013D02*
X89215Y-64013D01*
X90310Y-63889D02*
X90395Y-63805D01*
X90395Y-63805D02*
X90755Y-63805D01*
X90491Y-63602D02*
X90491Y-63586D01*
X90491Y-63586D02*
X90877Y-63199D01*
X87098Y-63602D02*
X90491Y-63602D01*
X90491Y-63602D02*
X90552Y-63602D01*
X90552Y-63602D02*
X90755Y-63805D01*
X90755Y-63805D02*
X90877Y-63927D01*
X90877Y-63927D02*
X90877Y-64013D01*
G54D48*
X86296Y-56686D02*
X86296Y-56758D01*
X86296Y-56758D02*
X86640Y-57102D01*
X86640Y-57102D02*
X86640Y-63144D01*
X86640Y-63144D02*
X87098Y-63602D01*
X87098Y-63602D02*
X87135Y-63602D01*
X87135Y-63602D02*
X87152Y-63585D01*
X85635Y-57300D02*
X85682Y-57300D01*
X85682Y-57300D02*
X86296Y-56686D01*
X90426Y-64013D02*
X86713Y-64013D01*
X86713Y-64013D02*
X85900Y-63200D01*
X85900Y-63200D02*
X85900Y-57565D01*
X85900Y-57565D02*
X85635Y-57300D01*
G54D53*
X90877Y-64013D02*
X90877Y-64013D01*
X90877Y-64013D02*
X90426Y-64013D01*
X90426Y-64013D02*
X90039Y-64013D01*
X90039Y-64013D02*
X90027Y-64001D01*
X90877Y-63199D02*
X90877Y-64013D01*
X90877Y-64013D02*
X90824Y-64067D01*
G54D44*
X90877Y-62287D02*
X90877Y-63199D01*
X90877Y-63199D02*
X90867Y-63210D01*
X72513Y-45267D02*
X73011Y-45267D01*
X73011Y-45267D02*
X73024Y-45255D01*
X73584Y-45267D02*
X74200Y-45267D01*
X74907Y-45267D02*
X75621Y-45267D01*
X76307Y-45267D02*
X77007Y-45267D01*
X80708Y-51181D02*
X81135Y-51607D01*
X81135Y-51607D02*
X81252Y-51607D01*
X81193Y-51666D02*
X81485Y-51957D01*
X81485Y-51957D02*
X81497Y-51957D01*
X80740Y-52300D02*
X80490Y-52050D01*
X80490Y-52050D02*
X80490Y-51930D01*
X80090Y-51650D02*
X80010Y-51570D01*
X80010Y-51570D02*
X80010Y-51070D01*
X79950Y-50490D02*
X80010Y-50490D01*
X71715Y-45780D02*
X71895Y-45960D01*
X72555Y-46040D02*
X72635Y-45960D01*
X72635Y-45960D02*
X73140Y-45960D01*
X73785Y-46040D02*
X73865Y-45960D01*
X73865Y-45960D02*
X74415Y-45960D01*
X75060Y-46040D02*
X75140Y-45960D01*
X75140Y-45960D02*
X75750Y-45960D01*
X76545Y-46040D02*
X76625Y-45960D01*
X76625Y-45960D02*
X77235Y-45960D01*
X77790Y-46040D02*
X78160Y-46410D01*
X78160Y-46410D02*
X78225Y-46410D01*
X78627Y-46877D02*
X79067Y-47317D01*
X79067Y-47317D02*
X79132Y-47317D01*
G54D48*
X80815Y-52255D02*
X81200Y-52255D01*
X81200Y-52255D02*
X81497Y-51957D01*
X81497Y-51957D02*
X81550Y-51905D01*
X71118Y-45267D02*
X71202Y-45267D01*
X71202Y-45267D02*
X71715Y-45780D01*
X71715Y-45780D02*
X71895Y-45960D01*
X71895Y-45960D02*
X77775Y-45960D01*
X77775Y-45960D02*
X80010Y-48195D01*
X80010Y-48195D02*
X80010Y-50490D01*
X80010Y-50490D02*
X80010Y-51450D01*
X80010Y-51450D02*
X80815Y-52255D01*
X71118Y-45267D02*
X72513Y-45267D01*
X72513Y-45267D02*
X77007Y-45267D01*
X77007Y-45267D02*
X78082Y-45267D01*
X78082Y-45267D02*
X80685Y-47870D01*
X80685Y-47870D02*
X80685Y-50300D01*
X80685Y-50300D02*
X80685Y-51040D01*
X80685Y-51040D02*
X81550Y-51905D01*
X81550Y-51905D02*
X81620Y-51975D01*
G54D43*
X51890Y-27236D02*
X52390Y-27236D01*
X51292Y-26875D02*
X51368Y-26875D01*
X51726Y-26209D02*
X51775Y-26160D01*
X51726Y-26517D02*
X51726Y-26209D01*
X51368Y-26875D02*
X51726Y-26517D01*
X50300Y-26875D02*
X51292Y-26875D01*
X51390Y-26973D02*
X51390Y-27236D01*
X51292Y-26875D02*
X51390Y-26973D01*
X39522Y-36299D02*
X39522Y-36574D01*
X40028Y-37080D02*
X40132Y-37080D01*
X39522Y-36574D02*
X40028Y-37080D01*
X40132Y-37080D02*
X41450Y-37080D01*
X41450Y-37080D02*
X41756Y-37080D01*
X41756Y-37080D02*
X41788Y-37048D01*
X41716Y-37238D02*
X41678Y-37238D01*
X41640Y-37200D02*
X41640Y-37270D01*
X41678Y-37238D02*
X41640Y-37200D01*
X41716Y-37134D02*
X41620Y-37134D01*
X41620Y-37134D02*
X41562Y-37192D01*
X41716Y-37364D02*
X41716Y-37238D01*
X41716Y-37238D02*
X41716Y-37134D01*
X41716Y-37134D02*
X41716Y-37120D01*
X41716Y-37120D02*
X41788Y-37048D01*
X42207Y-36323D02*
X42570Y-36323D01*
X41788Y-37048D02*
X42053Y-36783D01*
X42053Y-36783D02*
X42053Y-36477D01*
X42053Y-36477D02*
X42207Y-36323D01*
X41265Y-36628D02*
X41265Y-36895D01*
X41265Y-36895D02*
X41450Y-37080D01*
X41450Y-37080D02*
X41562Y-37192D01*
X41698Y-37624D02*
X41738Y-37664D01*
X41716Y-37346D02*
X41716Y-37364D01*
X41640Y-37270D02*
X41716Y-37346D01*
X41562Y-37192D02*
X41640Y-37270D01*
X41716Y-37364D02*
X41698Y-37624D01*
X39522Y-35549D02*
X39522Y-35574D01*
X40605Y-37685D02*
X40605Y-38040D01*
X40480Y-37560D02*
X40605Y-37685D01*
X40140Y-37560D02*
X40480Y-37560D01*
X39660Y-37080D02*
X40140Y-37560D01*
X39310Y-37080D02*
X39660Y-37080D01*
X38860Y-36630D02*
X39310Y-37080D01*
X38860Y-36236D02*
X38860Y-36630D01*
X39522Y-35574D02*
X38860Y-36236D01*
X39522Y-35549D02*
X39522Y-35049D01*
X39760Y-34811D02*
X40474Y-34811D01*
X39522Y-35049D02*
X39760Y-34811D01*
X42192Y-34020D02*
X42224Y-34020D01*
X42224Y-34020D02*
X42314Y-34110D01*
X40474Y-34811D02*
X41972Y-34811D01*
X41972Y-34811D02*
X42314Y-34469D01*
X42314Y-34469D02*
X42314Y-34110D01*
X42314Y-34110D02*
X42314Y-33903D01*
X41475Y-34020D02*
X42192Y-34020D01*
X42192Y-34020D02*
X42197Y-34020D01*
X42477Y-33110D02*
X43339Y-33110D01*
X42314Y-33273D02*
X42477Y-33110D01*
X42314Y-33903D02*
X42314Y-33273D01*
X42197Y-34020D02*
X42314Y-33903D01*
X47166Y-35262D02*
X47219Y-35262D01*
X47488Y-34993D02*
X47488Y-33285D01*
X47219Y-35262D02*
X47488Y-34993D01*
X44289Y-34618D02*
X45126Y-34618D01*
X45770Y-35262D02*
X47166Y-35262D01*
X45126Y-34618D02*
X45770Y-35262D01*
X44632Y-33110D02*
X47313Y-33110D01*
X47313Y-33110D02*
X47488Y-33285D01*
X44089Y-33110D02*
X44632Y-33110D01*
X41497Y-39241D02*
X41596Y-39241D01*
X41616Y-39222D02*
X41616Y-39262D01*
X41596Y-39241D02*
X41616Y-39222D01*
X40605Y-38790D02*
X41046Y-38790D01*
X41552Y-39296D02*
X41552Y-39326D01*
X41046Y-38790D02*
X41497Y-39241D01*
X41497Y-39241D02*
X41552Y-39296D01*
X43239Y-38912D02*
X43250Y-38912D01*
X43250Y-41360D02*
X43644Y-41360D01*
X43160Y-41270D02*
X43250Y-41360D01*
X43160Y-40257D02*
X43160Y-41270D01*
X43502Y-39915D02*
X43160Y-40257D01*
X43502Y-39164D02*
X43502Y-39915D01*
X43250Y-38912D02*
X43502Y-39164D01*
X44100Y-41360D02*
X43644Y-41360D01*
X41616Y-39262D02*
X41685Y-39193D01*
X41685Y-39193D02*
X41685Y-39192D01*
X41685Y-39192D02*
X41965Y-38912D01*
X41965Y-38912D02*
X43239Y-38912D01*
X41552Y-39326D02*
X41616Y-39262D01*
X40754Y-40261D02*
X41244Y-40261D01*
X41552Y-39953D02*
X41552Y-39326D01*
X41244Y-40261D02*
X41552Y-39953D01*
X39218Y-37583D02*
X39554Y-37583D01*
X40246Y-38790D02*
X40605Y-38790D01*
X39872Y-38416D02*
X40246Y-38790D01*
X39872Y-37901D02*
X39872Y-38416D01*
X39554Y-37583D02*
X39872Y-37901D01*
X42749Y-38370D02*
X42789Y-38370D01*
X42789Y-38370D02*
X42884Y-38465D01*
X42749Y-38084D02*
X42749Y-38370D01*
X42749Y-38370D02*
X42749Y-38377D01*
X42749Y-38377D02*
X42661Y-38465D01*
X44100Y-40860D02*
X43680Y-40860D01*
X43190Y-38465D02*
X42884Y-38465D01*
X43764Y-39039D02*
X43190Y-38465D01*
X43764Y-40008D02*
X43764Y-39039D01*
X43560Y-40212D02*
X43764Y-40008D01*
X43560Y-40740D02*
X43560Y-40212D01*
X43680Y-40860D02*
X43560Y-40740D01*
X42884Y-38465D02*
X42661Y-38465D01*
X42470Y-38465D02*
X42419Y-38414D01*
X42661Y-38465D02*
X42470Y-38465D01*
X41738Y-38414D02*
X42419Y-38414D01*
X44100Y-40860D02*
X44488Y-40860D01*
X44124Y-42298D02*
X44124Y-42742D01*
X44177Y-42245D02*
X44124Y-42298D01*
X44576Y-42245D02*
X44177Y-42245D01*
X44732Y-42089D02*
X44576Y-42245D01*
X44732Y-41104D02*
X44732Y-42089D01*
X44488Y-40860D02*
X44732Y-41104D01*
X43320Y-36323D02*
X44905Y-36323D01*
X45072Y-35118D02*
X44289Y-35118D01*
X45290Y-35336D02*
X45072Y-35118D01*
X45290Y-35938D02*
X45290Y-35336D01*
X44905Y-36323D02*
X45290Y-35938D01*
X40948Y-42810D02*
X40884Y-42810D01*
X40884Y-42810D02*
X40784Y-42710D01*
X40914Y-42810D02*
X40948Y-42810D01*
X40948Y-42810D02*
X41048Y-42710D01*
X40914Y-42710D02*
X40914Y-42810D01*
X40914Y-42810D02*
X40915Y-43024D01*
X40915Y-43024D02*
X40920Y-43029D01*
X41092Y-42590D02*
X41127Y-42590D01*
X41127Y-42590D02*
X41247Y-42710D01*
X42168Y-42854D02*
X41734Y-42854D01*
X41734Y-42854D02*
X41590Y-42710D01*
X41590Y-42710D02*
X41247Y-42710D01*
X41247Y-42710D02*
X41048Y-42710D01*
X41048Y-42710D02*
X40914Y-42710D01*
X40914Y-42710D02*
X40972Y-42710D01*
X37083Y-43611D02*
X37082Y-43610D01*
X37082Y-43610D02*
X37082Y-43246D01*
X37082Y-43246D02*
X37208Y-43120D01*
X37208Y-43120D02*
X40194Y-43120D01*
X40194Y-43120D02*
X40604Y-42710D01*
X40604Y-42710D02*
X40784Y-42710D01*
X41458Y-41860D02*
X41900Y-41860D01*
X41342Y-41976D02*
X41458Y-41860D01*
X41342Y-42340D02*
X41342Y-41976D01*
X40972Y-42710D02*
X41092Y-42590D01*
X41092Y-42590D02*
X41342Y-42340D01*
X40784Y-42710D02*
X40972Y-42710D01*
X35835Y-44826D02*
X36305Y-44826D01*
X36305Y-44826D02*
X36545Y-44586D01*
X49749Y-28730D02*
X49749Y-28692D01*
X49749Y-28692D02*
X49865Y-28576D01*
X49130Y-27855D02*
X49130Y-28150D01*
X49130Y-28150D02*
X49182Y-28202D01*
X49182Y-28202D02*
X49878Y-28202D01*
X49878Y-28202D02*
X49865Y-28215D01*
X49865Y-28215D02*
X49865Y-28576D01*
X49865Y-28576D02*
X49865Y-28730D01*
X49425Y-28730D02*
X49749Y-28730D01*
X49749Y-28730D02*
X49865Y-28730D01*
X51890Y-29767D02*
X51890Y-29436D01*
X51744Y-29913D02*
X51890Y-29767D01*
X50479Y-29913D02*
X51744Y-29913D01*
X50260Y-29694D02*
X50479Y-29913D01*
X50260Y-29125D02*
X50260Y-29694D01*
X49865Y-28730D02*
X50260Y-29125D01*
X49530Y-29610D02*
X49568Y-29610D01*
X49568Y-29610D02*
X49658Y-29520D01*
X49997Y-29720D02*
X49997Y-29832D01*
X52390Y-30017D02*
X52390Y-29884D01*
X52258Y-30149D02*
X52390Y-30017D01*
X50316Y-30149D02*
X52258Y-30149D01*
X50189Y-30022D02*
X50316Y-30149D01*
X52390Y-29884D02*
X52390Y-29436D01*
X49797Y-29520D02*
X49997Y-29720D01*
X49658Y-29520D02*
X49797Y-29520D01*
X49997Y-29832D02*
X50189Y-30024D01*
X50189Y-30024D02*
X50189Y-30022D01*
X49388Y-29520D02*
X49658Y-29520D01*
X48565Y-29970D02*
X48884Y-29970D01*
X49530Y-29581D02*
X49530Y-29610D01*
X49530Y-29610D02*
X49530Y-29965D01*
X49469Y-29520D02*
X49530Y-29581D01*
X49195Y-29520D02*
X49388Y-29520D01*
X49388Y-29520D02*
X49469Y-29520D01*
X49077Y-29638D02*
X49195Y-29520D01*
X49077Y-29777D02*
X49077Y-29638D01*
X48884Y-29970D02*
X49077Y-29777D01*
X40585Y-42323D02*
X40821Y-42323D01*
X40821Y-42323D02*
X40836Y-42308D01*
X40836Y-42308D02*
X40836Y-42318D01*
X40516Y-42272D02*
X40534Y-42272D01*
X40534Y-42272D02*
X40585Y-42323D01*
X40585Y-42323D02*
X40652Y-42390D01*
X40516Y-41983D02*
X40516Y-42272D01*
X40516Y-42272D02*
X40516Y-42303D01*
X40516Y-42303D02*
X40429Y-42390D01*
X40299Y-42520D02*
X40429Y-42390D01*
X40429Y-42390D02*
X40442Y-42390D01*
X36716Y-43094D02*
X36716Y-43079D01*
X36716Y-43079D02*
X36950Y-42845D01*
X36716Y-42967D02*
X36690Y-42967D01*
X36690Y-42967D02*
X36641Y-42918D01*
X36474Y-42845D02*
X36474Y-42852D01*
X36474Y-42852D02*
X36716Y-43094D01*
X36716Y-43218D02*
X36716Y-43094D01*
X36716Y-43094D02*
X36716Y-42967D01*
X36716Y-42967D02*
X36838Y-42845D01*
X40442Y-42390D02*
X40652Y-42390D01*
X40652Y-42390D02*
X40764Y-42390D01*
X41233Y-41360D02*
X41900Y-41360D01*
X41062Y-41531D02*
X41233Y-41360D01*
X41062Y-42092D02*
X41062Y-41531D01*
X40764Y-42390D02*
X40836Y-42318D01*
X40836Y-42318D02*
X41062Y-42092D01*
X36261Y-42845D02*
X36474Y-42845D01*
X36474Y-42845D02*
X36838Y-42845D01*
X36838Y-42845D02*
X36950Y-42845D01*
X36950Y-42845D02*
X39974Y-42845D01*
X39974Y-42845D02*
X40299Y-42520D01*
X34367Y-43659D02*
X34650Y-43659D01*
X36557Y-43638D02*
X36131Y-43638D01*
X36716Y-43479D02*
X36557Y-43638D01*
X36716Y-43191D02*
X36716Y-43218D01*
X36716Y-43218D02*
X36716Y-43479D01*
X36370Y-42845D02*
X36716Y-43191D01*
X35010Y-42845D02*
X36261Y-42845D01*
X36261Y-42845D02*
X36370Y-42845D01*
X34790Y-43065D02*
X35010Y-42845D01*
X34790Y-43519D02*
X34790Y-43065D01*
X34650Y-43659D02*
X34790Y-43519D01*
X36485Y-30628D02*
X37549Y-30628D01*
X43060Y-30380D02*
X43835Y-30380D01*
X41494Y-31946D02*
X43060Y-30380D01*
X38491Y-31946D02*
X41494Y-31946D01*
X37899Y-31354D02*
X38491Y-31946D01*
X37899Y-30978D02*
X37899Y-31354D01*
X37549Y-30628D02*
X37899Y-30978D01*
X42557Y-30137D02*
X42557Y-30135D01*
X42557Y-30135D02*
X43074Y-29619D01*
X43074Y-29619D02*
X43569Y-29619D01*
X43569Y-29619D02*
X43830Y-29358D01*
X41055Y-31683D02*
X41181Y-31683D01*
X37588Y-30128D02*
X38200Y-30740D01*
X38200Y-30740D02*
X38200Y-31310D01*
X38200Y-31310D02*
X38572Y-31682D01*
X38572Y-31682D02*
X41054Y-31682D01*
X41054Y-31682D02*
X41055Y-31683D01*
X36485Y-30128D02*
X37588Y-30128D01*
X43830Y-29358D02*
X45111Y-29358D01*
X41765Y-30930D02*
X42557Y-30137D01*
X41765Y-31099D02*
X41765Y-30930D01*
X41181Y-31683D02*
X41765Y-31099D01*
X39125Y-44937D02*
X39681Y-44937D01*
X39974Y-46085D02*
X40117Y-46228D01*
X39974Y-45230D02*
X39974Y-46085D01*
X39681Y-44937D02*
X39974Y-45230D01*
X42751Y-45488D02*
X42035Y-45488D01*
X40117Y-46228D02*
X40418Y-46228D01*
X40418Y-46228D02*
X41055Y-46865D01*
X41055Y-46865D02*
X42518Y-46865D01*
X42518Y-46865D02*
X42952Y-46431D01*
X42952Y-46431D02*
X42952Y-45689D01*
X42952Y-45689D02*
X42751Y-45488D01*
X39120Y-45707D02*
X39524Y-45707D01*
X39711Y-46345D02*
X39853Y-46487D01*
X39711Y-45894D02*
X39711Y-46345D01*
X39524Y-45707D02*
X39711Y-45894D01*
X42035Y-44988D02*
X42818Y-44988D01*
X40264Y-46487D02*
X39853Y-46487D01*
X40894Y-47117D02*
X40264Y-46487D01*
X42581Y-47117D02*
X40894Y-47117D01*
X43183Y-46515D02*
X42581Y-47117D01*
X43183Y-45353D02*
X43183Y-46515D01*
X42818Y-44988D02*
X43183Y-45353D01*
X35600Y-47300D02*
X34833Y-47300D01*
X35085Y-45290D02*
X35085Y-44826D01*
X35028Y-45347D02*
X35085Y-45290D01*
X34902Y-45347D02*
X35028Y-45347D01*
X34632Y-45617D02*
X34902Y-45347D01*
X34632Y-47099D02*
X34632Y-45617D01*
X34833Y-47300D02*
X34632Y-47099D01*
X35265Y-46725D02*
X35265Y-47024D01*
X37922Y-47025D02*
X37922Y-45715D01*
X37647Y-47300D02*
X37922Y-47025D01*
X35541Y-47300D02*
X35600Y-47300D01*
X35600Y-47300D02*
X37647Y-47300D01*
X35265Y-47024D02*
X35541Y-47300D01*
X37440Y-45715D02*
X37922Y-45715D01*
X37922Y-45715D02*
X38362Y-45715D01*
X38362Y-45715D02*
X38370Y-45707D01*
X37860Y-44965D02*
X37896Y-44965D01*
X37896Y-44965D02*
X37992Y-44869D01*
X37992Y-44869D02*
X38008Y-44869D01*
X38008Y-44869D02*
X38104Y-44965D01*
X35381Y-43638D02*
X35381Y-43922D01*
X37992Y-44520D02*
X37992Y-44869D01*
X37992Y-44869D02*
X37992Y-44965D01*
X37644Y-44172D02*
X37992Y-44520D01*
X35631Y-44172D02*
X37644Y-44172D01*
X35381Y-43922D02*
X35631Y-44172D01*
X36585Y-45990D02*
X36585Y-45095D01*
X36715Y-44965D02*
X37440Y-44965D01*
X36585Y-45095D02*
X36715Y-44965D01*
X37440Y-44965D02*
X37860Y-44965D01*
X37860Y-44965D02*
X37992Y-44965D01*
X37992Y-44965D02*
X38104Y-44965D01*
X38104Y-44965D02*
X38347Y-44965D01*
X38347Y-44965D02*
X38375Y-44937D01*
X47270Y-30035D02*
X47297Y-30035D01*
X47297Y-30035D02*
X47367Y-30105D01*
X46145Y-30770D02*
X47297Y-30770D01*
X47367Y-30700D02*
X47367Y-30105D01*
X47297Y-30770D02*
X47367Y-30700D01*
X46790Y-30035D02*
X47270Y-30035D01*
X47270Y-30035D02*
X47437Y-30035D01*
X47437Y-30035D02*
X47502Y-29970D01*
X47367Y-30105D02*
X47502Y-29970D01*
X47502Y-29970D02*
X47815Y-29970D01*
X44585Y-30380D02*
X44662Y-30380D01*
X45007Y-30035D02*
X46790Y-30035D01*
X44662Y-30380D02*
X45007Y-30035D01*
X45861Y-29358D02*
X46717Y-29358D01*
X46717Y-29358D02*
X46790Y-29285D01*
X47039Y-28877D02*
X47808Y-28877D01*
X47966Y-28719D02*
X47966Y-28611D01*
X47808Y-28877D02*
X47966Y-28719D01*
X46790Y-29285D02*
X46790Y-29094D01*
X47007Y-28877D02*
X47039Y-28877D01*
X46790Y-29094D02*
X47007Y-28877D01*
X47355Y-28080D02*
X47806Y-28080D01*
X47936Y-28581D02*
X47966Y-28611D01*
X47936Y-28210D02*
X47936Y-28581D01*
X47806Y-28080D02*
X47936Y-28210D01*
X48663Y-28742D02*
X48675Y-28730D01*
X48097Y-28742D02*
X48663Y-28742D01*
X47966Y-28611D02*
X48097Y-28742D01*
X47208Y-25519D02*
X47169Y-25480D01*
X47169Y-25480D02*
X47169Y-25322D01*
X47169Y-25322D02*
X47287Y-25204D01*
X47287Y-25204D02*
X50830Y-25204D01*
X50830Y-25204D02*
X50988Y-25047D01*
X54756Y-39710D02*
X54911Y-39710D01*
X54911Y-39710D02*
X54914Y-39707D01*
X54756Y-39710D02*
X54786Y-39680D01*
X51140Y-39710D02*
X54756Y-39710D01*
X51056Y-39794D02*
X51140Y-39710D01*
X46480Y-25182D02*
X46480Y-25193D01*
X46408Y-25254D02*
X46480Y-25182D01*
X45887Y-25254D02*
X46408Y-25254D01*
X45717Y-25424D02*
X45887Y-25254D01*
X46480Y-25193D02*
X47570Y-24102D01*
X48074Y-24102D02*
X47570Y-24102D01*
X48232Y-24259D02*
X48074Y-24102D01*
X48232Y-24417D02*
X48232Y-24259D01*
X48074Y-24574D02*
X48232Y-24417D01*
G54D45*
X24115Y-27065D02*
X24115Y-26505D01*
X23880Y-27300D02*
X24115Y-27065D01*
X22580Y-27300D02*
X23880Y-27300D01*
X22410Y-27130D02*
X22580Y-27300D01*
X22410Y-26510D02*
X22410Y-27130D01*
X22410Y-24120D02*
X22410Y-25210D01*
X22410Y-22820D02*
X23820Y-22820D01*
X31665Y-16754D02*
X32669Y-16754D01*
X32669Y-16754D02*
X32700Y-16786D01*
X30960Y-16129D02*
X31043Y-16129D01*
X31263Y-15909D02*
X31263Y-15874D01*
X31043Y-16129D02*
X31263Y-15909D01*
X31096Y-15671D02*
X31096Y-15706D01*
X31096Y-15706D02*
X31263Y-15874D01*
X31263Y-15874D02*
X31299Y-15909D01*
X30960Y-15909D02*
X31299Y-15909D01*
X31299Y-15909D02*
X32207Y-15909D01*
X32207Y-15909D02*
X32211Y-15904D01*
X32216Y-14350D02*
X32216Y-14952D01*
X31665Y-17940D02*
X31665Y-17504D01*
X31547Y-18059D02*
X31665Y-17940D01*
X31078Y-18059D02*
X31547Y-18059D01*
X30960Y-17940D02*
X31078Y-18059D01*
X30960Y-15807D02*
X30960Y-15909D01*
X30960Y-15909D02*
X30960Y-16129D01*
X30960Y-16129D02*
X30960Y-17940D01*
X31448Y-15318D02*
X31096Y-15671D01*
X31096Y-15671D02*
X30960Y-15807D01*
X31850Y-15318D02*
X31448Y-15318D01*
X32216Y-14952D02*
X31850Y-15318D01*
G54D50*
X101011Y-24515D02*
X101011Y-26811D01*
X102091Y-27890D02*
X102091Y-30292D01*
X101011Y-26811D02*
X102091Y-27890D01*
G54D45*
X101364Y-32301D02*
X101364Y-31919D01*
X101511Y-31347D02*
X101587Y-31271D01*
X101511Y-31771D02*
X101511Y-31347D01*
X101364Y-31919D02*
X101511Y-31771D01*
X101587Y-31271D02*
X101587Y-30522D01*
X102041Y-30342D02*
X102091Y-30292D01*
X101767Y-30342D02*
X102041Y-30342D01*
X101587Y-30522D02*
X101767Y-30342D01*
G54D44*
X92074Y-25047D02*
X92023Y-25562D01*
X92487Y-26027D02*
X92487Y-27976D01*
X92023Y-25562D02*
X92487Y-26027D01*
G54D45*
X92487Y-27976D02*
X92487Y-29165D01*
G54D50*
X95023Y-27228D02*
X95023Y-25098D01*
X95023Y-27228D02*
X95771Y-27976D01*
X95771Y-27976D02*
X95771Y-27996D01*
X95771Y-27996D02*
X95949Y-28174D01*
X95949Y-30327D02*
X95949Y-28174D01*
X95023Y-25098D02*
X95074Y-25047D01*
G54D45*
X95273Y-32336D02*
X95273Y-31966D01*
X95430Y-31810D02*
X95430Y-31318D01*
X95273Y-31966D02*
X95430Y-31810D01*
X95430Y-31318D02*
X95430Y-30784D01*
X95617Y-30327D02*
X95949Y-30327D01*
X95433Y-30511D02*
X95617Y-30327D01*
X95433Y-30781D02*
X95433Y-30511D01*
X95430Y-30784D02*
X95433Y-30781D01*
G54D50*
X98011Y-24515D02*
X98011Y-25429D01*
X98538Y-25956D02*
X98538Y-27736D01*
X98011Y-25429D02*
X98538Y-25956D01*
G54D45*
X98538Y-27736D02*
X98538Y-29059D01*
G54D49*
X34777Y-51507D02*
X34777Y-54080D01*
X34777Y-54080D02*
X35775Y-55078D01*
X33040Y-50030D02*
X33300Y-50030D01*
X33300Y-50030D02*
X34777Y-51507D01*
X34777Y-51507D02*
X35706Y-52436D01*
G54D46*
X43108Y-55078D02*
X44578Y-55078D01*
X45920Y-58573D02*
X45977Y-58631D01*
X45920Y-56420D02*
X45920Y-58573D01*
X44578Y-55078D02*
X45920Y-56420D01*
X35706Y-54015D02*
X35895Y-54015D01*
X35895Y-54015D02*
X36958Y-55078D01*
X41900Y-53947D02*
X41977Y-53947D01*
X41977Y-53947D02*
X43108Y-55078D01*
X40670Y-55078D02*
X43108Y-55078D01*
X35775Y-55078D02*
X36958Y-55078D01*
X36958Y-55078D02*
X40670Y-55078D01*
X40670Y-55078D02*
X40768Y-55078D01*
X40768Y-55078D02*
X41900Y-53947D01*
X26224Y-50030D02*
X33040Y-50030D01*
X33040Y-50030D02*
X34102Y-50030D01*
X35706Y-55009D02*
X35775Y-55078D01*
X35706Y-51634D02*
X35706Y-52436D01*
X35706Y-52436D02*
X35706Y-54015D01*
X35706Y-54015D02*
X35706Y-55009D01*
X34102Y-50030D02*
X35706Y-51634D01*
X19910Y-47102D02*
X19910Y-49000D01*
X19910Y-49000D02*
X20940Y-50030D01*
X20940Y-50030D02*
X26224Y-50030D01*
G54D48*
X19921Y-36153D02*
X19921Y-37203D01*
X19921Y-37203D02*
X19910Y-37215D01*
G54D46*
X19910Y-40040D02*
X19910Y-38808D01*
X19910Y-37554D02*
X19910Y-37215D01*
X19910Y-49000D02*
X19910Y-48250D01*
G54D44*
X19910Y-37215D02*
X19910Y-36164D01*
X19910Y-36164D02*
X19921Y-36153D01*
G54D46*
X19910Y-48250D02*
X19910Y-47102D01*
X19910Y-47102D02*
X19910Y-40040D01*
X19910Y-40040D02*
X19910Y-37215D01*
X19910Y-37215D02*
X19910Y-36982D01*
G54D48*
X54099Y-58631D02*
X54099Y-58950D01*
X54239Y-59090D02*
X54239Y-59585D01*
X54099Y-58950D02*
X54239Y-59090D01*
X54690Y-58631D02*
X54690Y-59280D01*
X54690Y-59280D02*
X54750Y-59340D01*
X53130Y-58631D02*
X54099Y-58631D01*
X54099Y-58631D02*
X54690Y-58631D01*
X54690Y-58631D02*
X54778Y-58631D01*
X54778Y-58631D02*
X55242Y-58168D01*
G54D53*
X54450Y-55356D02*
X54450Y-55413D01*
X54450Y-55413D02*
X55242Y-56205D01*
X55242Y-56205D02*
X55242Y-56178D01*
X55242Y-56178D02*
X56063Y-55356D01*
X53460Y-55356D02*
X54450Y-55356D01*
X54450Y-55356D02*
X56063Y-55356D01*
X56063Y-55356D02*
X56936Y-55356D01*
X56936Y-55356D02*
X57024Y-55268D01*
G54D48*
X55242Y-60675D02*
X55242Y-58168D01*
G54D53*
X55242Y-58168D02*
X55242Y-56205D01*
G54D48*
X55242Y-56205D02*
X55242Y-55506D01*
X55242Y-55506D02*
X55308Y-55440D01*
X49992Y-58631D02*
X53130Y-58631D01*
X53130Y-58631D02*
X53285Y-58631D01*
X53285Y-58631D02*
X54239Y-59585D01*
X55242Y-60588D02*
X55242Y-60675D01*
X54239Y-59585D02*
X55242Y-60588D01*
X55242Y-60675D02*
X55242Y-63580D01*
X49992Y-58631D02*
X50191Y-58631D01*
X49992Y-58631D02*
X50191Y-58631D01*
X35775Y-59094D02*
X37500Y-59094D01*
X37500Y-59094D02*
X38072Y-59667D01*
X38072Y-59667D02*
X38417Y-60012D01*
X38417Y-60012D02*
X40074Y-61669D01*
X40074Y-61669D02*
X42629Y-61669D01*
X42629Y-61669D02*
X43259Y-62299D01*
X43259Y-62299D02*
X43259Y-63523D01*
G54D45*
X131385Y-18060D02*
X131385Y-18940D01*
X131385Y-18940D02*
X131390Y-18945D01*
X131174Y-14564D02*
X131174Y-16769D01*
X131174Y-16769D02*
X131385Y-16980D01*
X131385Y-16980D02*
X131385Y-18060D01*
X131385Y-18060D02*
X131385Y-18195D01*
X131390Y-18945D02*
X131390Y-20075D01*
X131390Y-20075D02*
X131410Y-20095D01*
X126746Y-20091D02*
X126746Y-19911D01*
X126746Y-19911D02*
X126700Y-19865D01*
X126525Y-19865D02*
X126525Y-19870D01*
X126900Y-20245D02*
X126900Y-20390D01*
X126525Y-19870D02*
X126746Y-20091D01*
X126746Y-20091D02*
X126900Y-20245D01*
X126525Y-19865D02*
X126700Y-19865D01*
X127070Y-19495D02*
X127690Y-19495D01*
X126700Y-19865D02*
X127070Y-19495D01*
X126525Y-19865D02*
X126300Y-19640D01*
X124190Y-22240D02*
X125050Y-22240D01*
X125050Y-22240D02*
X126900Y-20390D01*
G54D43*
X115675Y-16686D02*
X115700Y-16686D01*
X115700Y-16686D02*
X115891Y-16877D01*
X115891Y-16877D02*
X115891Y-16900D01*
X115675Y-17082D02*
X115709Y-17082D01*
X115709Y-17082D02*
X115891Y-16900D01*
X115891Y-16900D02*
X115914Y-16877D01*
G54D45*
X114790Y-20607D02*
X114790Y-20560D01*
X115100Y-20250D02*
X115640Y-20250D01*
X114790Y-20560D02*
X115100Y-20250D01*
X115675Y-16877D02*
X115914Y-16877D01*
X115914Y-16877D02*
X116137Y-16877D01*
X116137Y-16877D02*
X116450Y-17190D01*
X116450Y-17190D02*
X116450Y-19270D01*
X116450Y-19270D02*
X116460Y-19280D01*
X116460Y-19280D02*
X116460Y-19580D01*
X116460Y-19580D02*
X116170Y-19870D01*
X116170Y-19870D02*
X116020Y-19870D01*
X116020Y-19870D02*
X115640Y-20250D01*
X116254Y-14600D02*
X116254Y-15625D01*
X115675Y-16205D02*
X115675Y-16686D01*
X115675Y-16686D02*
X115675Y-16877D01*
X115675Y-16877D02*
X115675Y-17082D01*
X115675Y-17082D02*
X115675Y-17550D01*
X116254Y-15625D02*
X115675Y-16205D01*
X107736Y-18307D02*
X107736Y-19172D01*
X107736Y-19172D02*
X107874Y-19310D01*
X108804Y-14600D02*
X108804Y-15408D01*
X107736Y-16082D02*
X107736Y-18307D01*
X108070Y-15748D02*
X107736Y-16082D01*
X108464Y-15748D02*
X108070Y-15748D01*
X108804Y-15408D02*
X108464Y-15748D01*
G54D52*
X108999Y-32728D02*
X109136Y-31946D01*
X109136Y-31946D02*
X109209Y-31874D01*
X108062Y-33036D02*
X108646Y-33036D01*
X108954Y-32728D02*
X108999Y-32728D01*
X108646Y-33036D02*
X108954Y-32728D01*
G54D43*
X43449Y-38114D02*
X44294Y-38114D01*
X43439Y-38124D02*
X43449Y-38114D01*
G54D52*
X106412Y-33790D02*
X106440Y-33818D01*
X105968Y-33790D02*
X106412Y-33790D01*
X109749Y-33500D02*
X109749Y-32728D01*
X109751Y-33503D02*
X109749Y-33500D01*
X109749Y-32728D02*
X110102Y-32728D01*
X110102Y-32728D02*
X110318Y-32944D01*
X110318Y-32944D02*
X110318Y-33170D01*
X110318Y-33170D02*
X110735Y-33586D01*
X105968Y-33040D02*
X105968Y-33790D01*
X110784Y-31795D02*
X111904Y-31795D01*
X111904Y-31795D02*
X111995Y-31885D01*
X110784Y-31795D02*
X110784Y-32675D01*
X110784Y-32675D02*
X110774Y-32685D01*
G54D43*
X107011Y-33040D02*
X107202Y-33040D01*
X107468Y-32496D02*
X107468Y-32176D01*
X107394Y-32571D02*
X107468Y-32496D01*
X107394Y-32849D02*
X107394Y-32571D01*
X107202Y-33040D02*
X107394Y-32849D01*
G54D52*
X110034Y-31542D02*
X110034Y-31795D01*
X109858Y-31366D02*
X110034Y-31542D01*
X107740Y-31366D02*
X109858Y-31366D01*
X107618Y-31488D02*
X107740Y-31366D01*
X107468Y-31637D02*
X107618Y-31488D01*
X107468Y-32176D02*
X107468Y-31637D01*
M02*
