G04 (created by PCBNEW (2013-07-07 BZR 4022)-stable) date 31-01-2015 18:12:54*
%MOIN*%
G04 Gerber Fmt 3.4, Leading zero omitted, Abs format*
%FSLAX34Y34*%
G01*
G70*
G90*
G04 APERTURE LIST*
%ADD10C,0.00590551*%
%ADD11C,0.0748031*%
%ADD12R,0.025X0.05*%
%ADD13C,0.0787402*%
%ADD14C,0.0984252*%
%ADD15C,0.0826772*%
%ADD16C,0.125984*%
%ADD17R,0.0165354X0.0590551*%
%ADD18R,0.110236X0.110236*%
%ADD19C,0.11811*%
%ADD20R,0.07X0.07*%
%ADD21C,0.07*%
%ADD22C,0.0590551*%
%ADD23R,0.05X0.03*%
%ADD24R,0.055X0.035*%
%ADD25R,0.035X0.055*%
%ADD26O,0.0866142X0.0629921*%
%ADD27R,0.0315X0.0394*%
%ADD28C,0.177165*%
%ADD29C,0.15748*%
%ADD30C,0.0866142*%
%ADD31R,0.0393701X0.011811*%
%ADD32R,0.0787402X0.0492126*%
%ADD33R,0.1732X0.0748*%
%ADD34R,0.0748X0.1732*%
%ADD35R,0.06X0.08*%
%ADD36R,0.08X0.06*%
%ADD37R,0.0814961X0.0472441*%
%ADD38R,0.0480315X0.0358268*%
%ADD39R,0.0314961X0.0314961*%
%ADD40R,0.0314961X0.0551181*%
%ADD41R,0.107992X0.085*%
%ADD42C,0.0708661*%
%ADD43R,0.114961X0.109843*%
%ADD44R,0.287402X0.104331*%
%ADD45C,0.110236*%
%ADD46R,0.1X0.05*%
%ADD47R,0.05X0.1*%
%ADD48R,0.0393701X0.259843*%
%ADD49R,0.023622X0.0413386*%
%ADD50R,0.05X0.025*%
%ADD51R,0.12X0.065*%
%ADD52R,0.24X0.24*%
%ADD53C,0.0629921*%
%ADD54R,0.0216535X0.0787402*%
%ADD55C,0.0649606*%
%ADD56C,0.035*%
%ADD57C,0.01*%
%ADD58C,0.011811*%
%ADD59C,0.019685*%
%ADD60C,0.0314961*%
%ADD61C,0.0393701*%
%ADD62C,0.137795*%
%ADD63C,0.0984252*%
%ADD64C,0.11811*%
%ADD65C,0.0787402*%
%ADD66C,0.0590551*%
%ADD67C,0.19685*%
G04 APERTURE END LIST*
G54D10*
G54D11*
X56078Y-25006D03*
X57078Y-25006D03*
X60078Y-25006D03*
X62078Y-25006D03*
X56183Y-28506D03*
X57183Y-28506D03*
X60183Y-28506D03*
X62183Y-28506D03*
G54D12*
X31005Y-28885D03*
X30505Y-28885D03*
X30005Y-28885D03*
X29505Y-28885D03*
X29505Y-31085D03*
X30005Y-31085D03*
X30505Y-31085D03*
X31005Y-31085D03*
G54D13*
X26260Y-37716D03*
X25260Y-37716D03*
X29010Y-37720D03*
X28010Y-37720D03*
X31433Y-37716D03*
X30433Y-37716D03*
G54D14*
X130740Y-43354D03*
X135661Y-43354D03*
X135661Y-50244D03*
X130740Y-50244D03*
X143047Y-50232D03*
X143047Y-44326D03*
G54D15*
X25115Y-26505D03*
X24115Y-26505D03*
G54D16*
X25736Y-24153D03*
X25736Y-18248D03*
X25736Y-16279D03*
X25736Y-14311D03*
X28688Y-14311D03*
X28688Y-16279D03*
X28688Y-18248D03*
X28688Y-24153D03*
G54D13*
X33920Y-37710D03*
X32920Y-37710D03*
G54D11*
X32216Y-14350D03*
X33216Y-14350D03*
X34216Y-14350D03*
X56242Y-63580D03*
X54242Y-63580D03*
X55242Y-63580D03*
X44259Y-63523D03*
X42259Y-63523D03*
X43259Y-63523D03*
G54D13*
X31057Y-51730D03*
X25152Y-51730D03*
G54D17*
X46810Y-28524D03*
X47060Y-28524D03*
X47320Y-28524D03*
X47570Y-28524D03*
X47830Y-28524D03*
X48085Y-28524D03*
X48340Y-28524D03*
X48340Y-26240D03*
X48085Y-26240D03*
X47830Y-26240D03*
X47570Y-26240D03*
X47315Y-26240D03*
X47060Y-26240D03*
X46805Y-26240D03*
G54D18*
X47570Y-27382D03*
G54D19*
X136350Y-17200D03*
X133350Y-17200D03*
X128470Y-17220D03*
X125470Y-17220D03*
X121120Y-17325D03*
X118120Y-17325D03*
X113385Y-17150D03*
X110385Y-17150D03*
X92074Y-25047D03*
X95074Y-25047D03*
X98011Y-24515D03*
X101011Y-24515D03*
X71118Y-31267D03*
X71118Y-33267D03*
X71118Y-35267D03*
X71118Y-37267D03*
X71118Y-43267D03*
X71118Y-45267D03*
X87118Y-47267D03*
X87118Y-45267D03*
X87118Y-37267D03*
X87118Y-35267D03*
X87118Y-33267D03*
X87118Y-31267D03*
X108112Y-62912D03*
X108112Y-56927D03*
G54D20*
X150844Y-35556D03*
G54D21*
X150844Y-27556D03*
G54D22*
X150082Y-54956D03*
X150082Y-58956D03*
X152519Y-58948D03*
X152519Y-62948D03*
G54D13*
X22590Y-19740D03*
X21590Y-19740D03*
X15884Y-53210D03*
X15884Y-52210D03*
G54D23*
X21265Y-45715D03*
X21265Y-45215D03*
X21265Y-44715D03*
X21265Y-44215D03*
X21265Y-43715D03*
X21265Y-43215D03*
X21265Y-42715D03*
X21265Y-42215D03*
X17465Y-42215D03*
X17465Y-42715D03*
X17465Y-43215D03*
X17465Y-43715D03*
X17465Y-45715D03*
X17465Y-45215D03*
X17465Y-44715D03*
X17465Y-44215D03*
G54D24*
X16490Y-46905D03*
X16490Y-46155D03*
G54D25*
X23132Y-42219D03*
X22382Y-42219D03*
X23485Y-45750D03*
X22735Y-45750D03*
X23185Y-43720D03*
X22435Y-43720D03*
G54D26*
X15268Y-42214D03*
X15268Y-43214D03*
X15268Y-44214D03*
X15268Y-45214D03*
G54D24*
X31767Y-20615D03*
X31767Y-19865D03*
G54D25*
X91676Y-15559D03*
X92426Y-15559D03*
G54D19*
X15314Y-21763D03*
X15314Y-25763D03*
X15303Y-28480D03*
X15303Y-32480D03*
X15291Y-14633D03*
X15291Y-18633D03*
G54D24*
X32543Y-22804D03*
X32543Y-22054D03*
G54D27*
X31011Y-23043D03*
X30636Y-22177D03*
X31386Y-22177D03*
G54D24*
X28350Y-35775D03*
X28350Y-36525D03*
X29415Y-35775D03*
X29415Y-36525D03*
X32774Y-35563D03*
X32774Y-36313D03*
X31410Y-35760D03*
X31410Y-36510D03*
G54D28*
X17857Y-62298D03*
X17955Y-55294D03*
G54D19*
X156771Y-62948D03*
X156771Y-58948D03*
X156771Y-54948D03*
G54D14*
X145960Y-57732D03*
X146984Y-61551D03*
X143240Y-57047D03*
X143240Y-62952D03*
X130748Y-52799D03*
X135669Y-52799D03*
X135669Y-59688D03*
X130748Y-59688D03*
G54D19*
X128618Y-30023D03*
X128618Y-36023D03*
X128622Y-38023D03*
X128622Y-40023D03*
X131614Y-36023D03*
X131614Y-30023D03*
X131614Y-40023D03*
X131614Y-38023D03*
G54D21*
X125196Y-35090D03*
X125196Y-41090D03*
X134744Y-34992D03*
X134744Y-40992D03*
G54D19*
X137285Y-25160D03*
X137285Y-33160D03*
X147285Y-33160D03*
X147285Y-25160D03*
X131174Y-14564D03*
X133320Y-14564D03*
X135465Y-14564D03*
X123584Y-14570D03*
X125730Y-14570D03*
X127875Y-14570D03*
X108804Y-14600D03*
X110950Y-14600D03*
X113095Y-14600D03*
X116254Y-14600D03*
X118400Y-14600D03*
X120545Y-14600D03*
G54D14*
X118110Y-25984D03*
X124015Y-25984D03*
X101598Y-52232D03*
X101598Y-46326D03*
X115551Y-25984D03*
X109645Y-25984D03*
G54D29*
X112870Y-46948D03*
X108933Y-46948D03*
G54D30*
X120275Y-42051D03*
X120275Y-39051D03*
G54D11*
X97425Y-62200D03*
X96425Y-62200D03*
X95425Y-62200D03*
X91877Y-62287D03*
X90877Y-62287D03*
X89877Y-62287D03*
G54D31*
X96736Y-34122D03*
X96732Y-34318D03*
X96736Y-34515D03*
X96736Y-34712D03*
X97838Y-34712D03*
X97838Y-34515D03*
X97838Y-34318D03*
X97838Y-34122D03*
G54D13*
X93287Y-39527D03*
X93287Y-40527D03*
X93287Y-41527D03*
X38345Y-19985D03*
X37345Y-19985D03*
X36345Y-19985D03*
G54D25*
X48353Y-22511D03*
X47603Y-22511D03*
X28667Y-32560D03*
X27917Y-32560D03*
X52858Y-39076D03*
X53608Y-39076D03*
X38295Y-30070D03*
X39045Y-30070D03*
G54D24*
X42208Y-31247D03*
X42208Y-31997D03*
G54D25*
X48413Y-35531D03*
X49163Y-35531D03*
X39885Y-30590D03*
X40635Y-30590D03*
X52020Y-38206D03*
X52770Y-38206D03*
X48353Y-21646D03*
X47603Y-21646D03*
G54D24*
X28686Y-30426D03*
X28686Y-29676D03*
G54D25*
X88408Y-17094D03*
X89158Y-17094D03*
G54D24*
X64807Y-26247D03*
X64807Y-26997D03*
X63822Y-26247D03*
X63822Y-26997D03*
X65555Y-28806D03*
X65555Y-29556D03*
X64295Y-28806D03*
X64295Y-29556D03*
G54D25*
X40386Y-34344D03*
X41136Y-34344D03*
G54D24*
X44611Y-37433D03*
X44611Y-36683D03*
G54D25*
X64059Y-57218D03*
X63309Y-57218D03*
X36600Y-26568D03*
X35850Y-26568D03*
G54D24*
X27993Y-26477D03*
X27993Y-27227D03*
G54D25*
X45563Y-44876D03*
X46313Y-44876D03*
X64969Y-16746D03*
X64219Y-16746D03*
G54D24*
X32621Y-46145D03*
X32621Y-45395D03*
X42683Y-46886D03*
X42683Y-46136D03*
X28796Y-45237D03*
X28796Y-45987D03*
G54D25*
X88447Y-19023D03*
X89197Y-19023D03*
X93093Y-15559D03*
X93843Y-15559D03*
G54D24*
X91539Y-18099D03*
X91539Y-17349D03*
G54D13*
X62129Y-37396D03*
X59177Y-37396D03*
X56945Y-17156D03*
X56945Y-14203D03*
X50644Y-17206D03*
X50644Y-14253D03*
G54D32*
X81850Y-21023D03*
X81854Y-22500D03*
G54D33*
X52812Y-33498D03*
X56237Y-33498D03*
G54D34*
X20877Y-14634D03*
X20877Y-18059D03*
G54D35*
X45578Y-46056D03*
X46878Y-46056D03*
X51538Y-32111D03*
X50238Y-32111D03*
G54D36*
X43808Y-47476D03*
X43808Y-46176D03*
G54D35*
X56405Y-38292D03*
X57705Y-38292D03*
G54D24*
X41310Y-29175D03*
X41310Y-29925D03*
X51893Y-41216D03*
X51893Y-41966D03*
X45619Y-36621D03*
X45619Y-35871D03*
G54D25*
X49773Y-43996D03*
X50523Y-43996D03*
G54D24*
X48948Y-30291D03*
X48948Y-31041D03*
X50003Y-24716D03*
X50003Y-23966D03*
X49058Y-24716D03*
X49058Y-23966D03*
G54D13*
X53460Y-55356D03*
X53460Y-49451D03*
X58120Y-33511D03*
X64026Y-33511D03*
X57024Y-55268D03*
X57024Y-49363D03*
X41900Y-53947D03*
X41900Y-59852D03*
X30980Y-48356D03*
X25075Y-48356D03*
X58400Y-41596D03*
X64306Y-41596D03*
X20020Y-25603D03*
X20020Y-31508D03*
X70763Y-58410D03*
X74700Y-58410D03*
X77277Y-18776D03*
X73340Y-18776D03*
G54D37*
X51970Y-43233D03*
X51970Y-45060D03*
X47598Y-29854D03*
X47598Y-31681D03*
G54D25*
X33450Y-44254D03*
X32700Y-44254D03*
X51293Y-39086D03*
X52043Y-39086D03*
X87621Y-18118D03*
X88371Y-18118D03*
X29474Y-43960D03*
X28724Y-43960D03*
X39048Y-29102D03*
X38298Y-29102D03*
X38895Y-33050D03*
X38145Y-33050D03*
G54D24*
X64943Y-19024D03*
X64943Y-18274D03*
X45437Y-32705D03*
X45437Y-31955D03*
G54D25*
X63717Y-58373D03*
X64467Y-58373D03*
G54D38*
X43074Y-28645D03*
X43074Y-27354D03*
G54D39*
X40908Y-45192D03*
X40908Y-45940D03*
X41810Y-45566D03*
G54D40*
X46224Y-33787D03*
X45437Y-33787D03*
G54D41*
X69098Y-26775D03*
X69098Y-28515D03*
G54D30*
X53253Y-36671D03*
X54253Y-36671D03*
G54D35*
X49846Y-33460D03*
X48546Y-33460D03*
X49350Y-46400D03*
X48050Y-46400D03*
G54D36*
X56458Y-44332D03*
X56458Y-45632D03*
G54D25*
X56414Y-39683D03*
X55664Y-39683D03*
X87111Y-16503D03*
X86361Y-16503D03*
G54D24*
X86342Y-20737D03*
X86342Y-19987D03*
G54D25*
X88408Y-19811D03*
X89158Y-19811D03*
G54D24*
X43074Y-25774D03*
X43074Y-26524D03*
G54D25*
X30838Y-26985D03*
X31588Y-26985D03*
G54D24*
X88311Y-22863D03*
X88311Y-22113D03*
X49868Y-37661D03*
X49868Y-38411D03*
G54D25*
X29055Y-26510D03*
X29805Y-26510D03*
X29055Y-27410D03*
X29805Y-27410D03*
G54D24*
X30646Y-32799D03*
X30646Y-32049D03*
G54D25*
X28710Y-33495D03*
X29460Y-33495D03*
X27783Y-31542D03*
X28533Y-31542D03*
G54D42*
X83625Y-22200D03*
X83625Y-21200D03*
G54D43*
X49990Y-27646D03*
X54042Y-27646D03*
G54D29*
X45977Y-50638D03*
X45977Y-58631D03*
X49992Y-58631D03*
X49992Y-50638D03*
X35775Y-55078D03*
X27783Y-55078D03*
X27783Y-59094D03*
X35775Y-59094D03*
G54D44*
X54764Y-42794D03*
X54764Y-40963D03*
G54D45*
X72888Y-63400D03*
X70700Y-63400D03*
X68511Y-63400D03*
X69681Y-14310D03*
X71870Y-14310D03*
X74058Y-14310D03*
G54D27*
X82877Y-19929D03*
X82502Y-19063D03*
X83252Y-19063D03*
X45683Y-29443D03*
X46058Y-30309D03*
X45308Y-30309D03*
G54D46*
X66904Y-16499D03*
X66904Y-15299D03*
G54D47*
X34275Y-47370D03*
X35475Y-47370D03*
G54D24*
X32120Y-29075D03*
X32120Y-28325D03*
X26992Y-27598D03*
X26992Y-26848D03*
X27993Y-28683D03*
X27993Y-27933D03*
G54D25*
X27185Y-28945D03*
X26435Y-28945D03*
X27168Y-30033D03*
X26418Y-30033D03*
G54D24*
X24915Y-30090D03*
X24915Y-30840D03*
G54D25*
X24525Y-35310D03*
X25275Y-35310D03*
X61890Y-58320D03*
X62640Y-58320D03*
X42943Y-34486D03*
X43693Y-34486D03*
G54D24*
X34750Y-27245D03*
X34750Y-26495D03*
X37908Y-27132D03*
X37908Y-26382D03*
G54D25*
X41475Y-43652D03*
X42225Y-43652D03*
X42366Y-44838D03*
X43116Y-44838D03*
G54D24*
X39998Y-45931D03*
X39998Y-45181D03*
G54D25*
X42713Y-48026D03*
X41963Y-48026D03*
X51703Y-40136D03*
X52453Y-40136D03*
X46597Y-32645D03*
X47347Y-32645D03*
G54D24*
X44370Y-22155D03*
X44370Y-22905D03*
X44564Y-25514D03*
X44564Y-26264D03*
X44352Y-23978D03*
X44352Y-24728D03*
X45339Y-23796D03*
X45339Y-24546D03*
X45325Y-22186D03*
X45325Y-22936D03*
G54D25*
X45455Y-34811D03*
X46205Y-34811D03*
G54D24*
X42090Y-33294D03*
X42090Y-34044D03*
G54D25*
X24255Y-29250D03*
X23505Y-29250D03*
X45589Y-43970D03*
X46339Y-43970D03*
X47659Y-42665D03*
X48409Y-42665D03*
X47640Y-41535D03*
X48390Y-41535D03*
G54D24*
X51128Y-35171D03*
X51128Y-35921D03*
X51098Y-33645D03*
X51098Y-34395D03*
G54D25*
X52732Y-30205D03*
X51982Y-30205D03*
G54D24*
X51056Y-30217D03*
X51056Y-30967D03*
X47333Y-23831D03*
X47333Y-24581D03*
G54D25*
X24903Y-32326D03*
X24153Y-32326D03*
X24924Y-33152D03*
X24174Y-33152D03*
G54D24*
X25850Y-33703D03*
X25850Y-34453D03*
X26906Y-33725D03*
X26906Y-34475D03*
G54D25*
X26445Y-32580D03*
X27195Y-32580D03*
X31399Y-34545D03*
X30649Y-34545D03*
X121292Y-44925D03*
X120542Y-44925D03*
X64576Y-15290D03*
X65326Y-15290D03*
G54D24*
X46770Y-63075D03*
X46770Y-63825D03*
G54D25*
X39201Y-33935D03*
X38451Y-33935D03*
X46470Y-37338D03*
X45720Y-37338D03*
X55313Y-61965D03*
X56063Y-61965D03*
X118812Y-44728D03*
X118062Y-44728D03*
X118890Y-45673D03*
X118140Y-45673D03*
X120375Y-48137D03*
X119625Y-48137D03*
X73529Y-61785D03*
X74279Y-61785D03*
G54D24*
X121271Y-45849D03*
X121271Y-46599D03*
G54D25*
X118128Y-48137D03*
X118878Y-48137D03*
G54D24*
X43830Y-37405D03*
X43830Y-36655D03*
G54D25*
X40386Y-33431D03*
X41136Y-33431D03*
G54D24*
X40046Y-29567D03*
X40046Y-28817D03*
X41510Y-27785D03*
X41510Y-28535D03*
X41486Y-26306D03*
X41486Y-27056D03*
G54D25*
X39865Y-31390D03*
X40615Y-31390D03*
G54D24*
X84610Y-17900D03*
X84610Y-18650D03*
X69728Y-19466D03*
X69728Y-18716D03*
G54D25*
X32700Y-43183D03*
X33450Y-43183D03*
X27304Y-43113D03*
X26554Y-43113D03*
X42875Y-38110D03*
X42125Y-38110D03*
X67182Y-26652D03*
X67932Y-26652D03*
G54D24*
X66106Y-26286D03*
X66106Y-27036D03*
G54D25*
X94353Y-21346D03*
X95103Y-21346D03*
X93528Y-21385D03*
X92778Y-21385D03*
X97940Y-32850D03*
X97190Y-32850D03*
G54D24*
X84807Y-20382D03*
X84807Y-19632D03*
X87287Y-22113D03*
X87287Y-22863D03*
G54D48*
X45574Y-15137D03*
X44314Y-15137D03*
X65463Y-63052D03*
X64204Y-63052D03*
X77068Y-15906D03*
X75808Y-15906D03*
G54D42*
X75248Y-24171D03*
X75248Y-20171D03*
X74688Y-56584D03*
X70688Y-56584D03*
X68605Y-60935D03*
X72605Y-60935D03*
G54D49*
X42865Y-36050D03*
X42115Y-36050D03*
X42865Y-37050D03*
X42490Y-36050D03*
X42115Y-37050D03*
X39435Y-27970D03*
X40185Y-27970D03*
X39435Y-26970D03*
X39810Y-27970D03*
X40185Y-26970D03*
X85613Y-18657D03*
X86363Y-18657D03*
X85613Y-17657D03*
X85988Y-18657D03*
X86363Y-17657D03*
G54D12*
X66136Y-19748D03*
X66636Y-19748D03*
X67136Y-19748D03*
X67636Y-19748D03*
X67636Y-17548D03*
X67136Y-17548D03*
X66636Y-17548D03*
X66136Y-17548D03*
X31725Y-43570D03*
X31225Y-43570D03*
X30725Y-43570D03*
X30225Y-43570D03*
X30225Y-45770D03*
X30725Y-45770D03*
X31225Y-45770D03*
X31725Y-45770D03*
X27930Y-43920D03*
X27430Y-43920D03*
X26930Y-43920D03*
X26430Y-43920D03*
X26430Y-46120D03*
X26930Y-46120D03*
X27430Y-46120D03*
X27930Y-46120D03*
X44618Y-31251D03*
X44118Y-31251D03*
X43618Y-31251D03*
X43118Y-31251D03*
X43118Y-33451D03*
X43618Y-33451D03*
X44118Y-33451D03*
X44618Y-33451D03*
X49553Y-42661D03*
X50053Y-42661D03*
X50553Y-42661D03*
X51053Y-42661D03*
X51053Y-40461D03*
X50553Y-40461D03*
X50053Y-40461D03*
X49553Y-40461D03*
G54D50*
X63910Y-59200D03*
X63910Y-59700D03*
X63910Y-60200D03*
X63910Y-60700D03*
X66110Y-60700D03*
X66110Y-60200D03*
X66110Y-59700D03*
X66110Y-59200D03*
G54D51*
X46251Y-42494D03*
G54D52*
X43751Y-41594D03*
G54D51*
X46251Y-40694D03*
G54D13*
X19921Y-35153D03*
X19921Y-36153D03*
G54D53*
X37930Y-25265D03*
X38930Y-25265D03*
X38930Y-22265D03*
X37930Y-22265D03*
G54D22*
X36500Y-22250D03*
X35500Y-22250D03*
X34500Y-22250D03*
X34500Y-25250D03*
X35500Y-25250D03*
X36500Y-25250D03*
G54D54*
X92309Y-20246D03*
X92809Y-20246D03*
X93309Y-20246D03*
X93809Y-20246D03*
X94309Y-20246D03*
X94809Y-20246D03*
X95309Y-20246D03*
X95809Y-20246D03*
X95809Y-16800D03*
X95309Y-16800D03*
X94809Y-16800D03*
X94309Y-16800D03*
X93809Y-16800D03*
X93309Y-16800D03*
X92809Y-16800D03*
X92309Y-16800D03*
G54D11*
X35414Y-62595D03*
X34430Y-63580D03*
X33445Y-62595D03*
X30178Y-62595D03*
X29194Y-63580D03*
X28209Y-62595D03*
X25008Y-62573D03*
X24024Y-63558D03*
X23039Y-62573D03*
G54D47*
X34275Y-48900D03*
X35475Y-48900D03*
G54D55*
X28360Y-40750D03*
X29360Y-40750D03*
X30360Y-40750D03*
X31360Y-40750D03*
X32360Y-40750D03*
X33360Y-40750D03*
X34360Y-40750D03*
X35360Y-40750D03*
X36360Y-40750D03*
X37360Y-40750D03*
X38360Y-40750D03*
X39360Y-40750D03*
X27360Y-40750D03*
X26360Y-40750D03*
X25360Y-40750D03*
X24360Y-40750D03*
X23360Y-40750D03*
X39360Y-39750D03*
X38360Y-39750D03*
X37360Y-39750D03*
X36360Y-39750D03*
X35360Y-39750D03*
X34360Y-39750D03*
X33360Y-39750D03*
X32360Y-39750D03*
X31360Y-39750D03*
X30360Y-39750D03*
X29360Y-39750D03*
X28360Y-39750D03*
X27360Y-39750D03*
X26360Y-39750D03*
X25360Y-39750D03*
X24360Y-39750D03*
G54D56*
X40176Y-40635D03*
X40230Y-43475D03*
X38899Y-43480D03*
X39964Y-46897D03*
X38980Y-46897D03*
X61890Y-35570D03*
X57855Y-35580D03*
X49245Y-48510D03*
X50820Y-48503D03*
X73468Y-20440D03*
X69098Y-20716D03*
X55463Y-27656D03*
X36639Y-34875D03*
X85515Y-22305D03*
X75585Y-28410D03*
X85589Y-28231D03*
X32955Y-34875D03*
X47004Y-38841D03*
X37198Y-27825D03*
X35430Y-27840D03*
X91145Y-18708D03*
X87326Y-21267D03*
X87326Y-19220D03*
X55358Y-38275D03*
X34146Y-33656D03*
X33309Y-33323D03*
X46139Y-39933D03*
X44898Y-39999D03*
X41900Y-39872D03*
X44184Y-39697D03*
X54977Y-45632D03*
X52020Y-47484D03*
X52577Y-22876D03*
X52577Y-25403D03*
X41423Y-23859D03*
X49295Y-47488D03*
X43727Y-44501D03*
X45797Y-39393D03*
X45885Y-38339D03*
X47066Y-34700D03*
X34889Y-30110D03*
X63500Y-43710D03*
X59925Y-17130D03*
X58845Y-17156D03*
X57721Y-17458D03*
X61106Y-17156D03*
X64635Y-55815D03*
X46259Y-20921D03*
X22463Y-14633D03*
X23110Y-14311D03*
X24090Y-14340D03*
X24660Y-14311D03*
X23499Y-31608D03*
X17666Y-16610D03*
X17666Y-15378D03*
X16676Y-14633D03*
X17960Y-14630D03*
X19200Y-14633D03*
X42494Y-21510D03*
X104480Y-44870D03*
X105857Y-44227D03*
X105922Y-42832D03*
X106970Y-42060D03*
X108150Y-42015D03*
X109380Y-42390D03*
X110118Y-42243D03*
X110385Y-41430D03*
X111063Y-41298D03*
X111127Y-40687D03*
X111836Y-40526D03*
X111885Y-39930D03*
X112476Y-39886D03*
X96930Y-48300D03*
X96844Y-47595D03*
X97237Y-46792D03*
X97937Y-45992D03*
X99075Y-45650D03*
X100590Y-46326D03*
X99795Y-46920D03*
X99061Y-46948D03*
X98475Y-47850D03*
X98228Y-48630D03*
X97980Y-47530D03*
X86778Y-28437D03*
X99098Y-34732D03*
X89728Y-14889D03*
X76185Y-28944D03*
X71145Y-28944D03*
X92248Y-30913D03*
X67077Y-27446D03*
X56646Y-26811D03*
X50210Y-22790D03*
X88431Y-26761D03*
X93311Y-17645D03*
X108114Y-34181D03*
X92051Y-34102D03*
X73862Y-26779D03*
X70437Y-26779D03*
X41544Y-23202D03*
X34010Y-28310D03*
X37922Y-28310D03*
X39382Y-41783D03*
X40001Y-44240D03*
X129375Y-52799D03*
X129549Y-53998D03*
X128229Y-53945D03*
X128190Y-55380D03*
X126712Y-55462D03*
X126462Y-57107D03*
X125355Y-57150D03*
X124365Y-57107D03*
X100038Y-54330D03*
X93840Y-54345D03*
X56791Y-37366D03*
X54929Y-37555D03*
X50090Y-36670D03*
X49494Y-34308D03*
X48641Y-40230D03*
X92600Y-55050D03*
X119900Y-52316D03*
X49518Y-34884D03*
X45840Y-43310D03*
X47007Y-43182D03*
X34468Y-34405D03*
X32860Y-33840D03*
X39956Y-32796D03*
X54156Y-32145D03*
X57120Y-32190D03*
X66540Y-52750D03*
X90895Y-53620D03*
X61560Y-33015D03*
X38619Y-31024D03*
X37769Y-33917D03*
X37571Y-35532D03*
X34799Y-32715D03*
X32261Y-32022D03*
X146674Y-47285D03*
X93100Y-55755D03*
X50475Y-45975D03*
X48461Y-45325D03*
X47970Y-44208D03*
X47061Y-44388D03*
X23338Y-38297D03*
X33921Y-25934D03*
X28740Y-42660D03*
X26971Y-42525D03*
X31442Y-42440D03*
X61083Y-58442D03*
X48636Y-48020D03*
X50281Y-21987D03*
X26865Y-36465D03*
X61350Y-19470D03*
X62730Y-20880D03*
X65529Y-20916D03*
X66596Y-20340D03*
X23338Y-35903D03*
X30044Y-34993D03*
X30540Y-35979D03*
X74625Y-27336D03*
X88529Y-27321D03*
X91782Y-22242D03*
X43981Y-18410D03*
X45180Y-19638D03*
X22288Y-41111D03*
X75140Y-27812D03*
X26816Y-41652D03*
X89369Y-27713D03*
X92124Y-22680D03*
X31755Y-25650D03*
X32510Y-27340D03*
X32530Y-25450D03*
X23076Y-44870D03*
X24346Y-42952D03*
X120545Y-15665D03*
X121120Y-16345D03*
X115617Y-21313D03*
X94870Y-28838D03*
X150690Y-20000D03*
X151425Y-19985D03*
X152057Y-20007D03*
X152590Y-20524D03*
X153137Y-21087D03*
X154132Y-22066D03*
X154145Y-22905D03*
X154345Y-24290D03*
X154115Y-25480D03*
X154145Y-26635D03*
X154115Y-27790D03*
X148076Y-33160D03*
X149424Y-32662D03*
X150084Y-31768D03*
X150854Y-31299D03*
X151954Y-31240D03*
X139288Y-19985D03*
X140050Y-20000D03*
X140740Y-19985D03*
X141440Y-20000D03*
X142130Y-19985D03*
X142960Y-20000D03*
X143710Y-19985D03*
X144450Y-20000D03*
X145470Y-19985D03*
X146205Y-20000D03*
X133320Y-15300D03*
X133320Y-16110D03*
X132900Y-18190D03*
X129780Y-17220D03*
X127875Y-15400D03*
X128380Y-15979D03*
X128360Y-16490D03*
X119693Y-23198D03*
X101078Y-29196D03*
X120120Y-31050D03*
X93429Y-26503D03*
X73350Y-25795D03*
X70476Y-25795D03*
X97905Y-37485D03*
X98384Y-33516D03*
X105600Y-37500D03*
X106421Y-35027D03*
X108468Y-32413D03*
X96890Y-33647D03*
X96099Y-35802D03*
X100874Y-35472D03*
X94773Y-35515D03*
X101555Y-35956D03*
X56854Y-59668D03*
X56973Y-61663D03*
X54201Y-57057D03*
X38640Y-51555D03*
X37947Y-52157D03*
X43860Y-52425D03*
X109886Y-22246D03*
X97224Y-28901D03*
X103928Y-28107D03*
X119201Y-22716D03*
X120672Y-23733D03*
X101527Y-33988D03*
X95900Y-33543D03*
X95633Y-23275D03*
X98980Y-21818D03*
X102838Y-27212D03*
X118140Y-18436D03*
X118120Y-16145D03*
X118400Y-15555D03*
X125730Y-15620D03*
X118860Y-42051D03*
X118157Y-42062D03*
X116158Y-42051D03*
X117509Y-42051D03*
X116090Y-25984D03*
X117400Y-26030D03*
X115511Y-42051D03*
X119416Y-42051D03*
X116710Y-42051D03*
X116697Y-25984D03*
X22827Y-38532D03*
X31032Y-38790D03*
X32858Y-38885D03*
X37804Y-34966D03*
X38983Y-28385D03*
X125670Y-25984D03*
X126765Y-25984D03*
X127770Y-25984D03*
X128205Y-25125D03*
X129090Y-24690D03*
X129262Y-24068D03*
X119548Y-28688D03*
X120410Y-28740D03*
X121220Y-28688D03*
X121910Y-28740D03*
X122320Y-28250D03*
X122251Y-27748D03*
X122759Y-27149D03*
X135465Y-15209D03*
X135465Y-15800D03*
X135900Y-16320D03*
X136350Y-17200D03*
X122056Y-37004D03*
X122251Y-36278D03*
X121737Y-35618D03*
X122251Y-35068D03*
X121737Y-34672D03*
X122251Y-34166D03*
X121737Y-33638D03*
X122251Y-33000D03*
X121260Y-37170D03*
X46396Y-38052D03*
X63900Y-55650D03*
X66825Y-61263D03*
X62150Y-44286D03*
X50610Y-21360D03*
X63400Y-17530D03*
X41783Y-25137D03*
X101235Y-38775D03*
X102759Y-37527D03*
X135669Y-58303D03*
X136416Y-57458D03*
X138578Y-57047D03*
X141020Y-57015D03*
X144694Y-57047D03*
X144891Y-55395D03*
X147326Y-54952D03*
X150082Y-54956D03*
X153214Y-54950D03*
X154765Y-54948D03*
X130748Y-61836D03*
X131775Y-62893D03*
X133716Y-62865D03*
X137038Y-62893D03*
X139510Y-62865D03*
X143240Y-62952D03*
X148227Y-62952D03*
X151160Y-62952D03*
X154260Y-62952D03*
X87801Y-23506D03*
X90791Y-33629D03*
X24244Y-60949D03*
X24177Y-59594D03*
X24800Y-58800D03*
X25905Y-58800D03*
X51670Y-14250D03*
X52929Y-14260D03*
X54200Y-14253D03*
X55179Y-14268D03*
X56160Y-14253D03*
X57870Y-21735D03*
X58960Y-22066D03*
X13151Y-31050D03*
X13149Y-29150D03*
X13151Y-27100D03*
X13149Y-25000D03*
X13151Y-22850D03*
X13149Y-21119D03*
X13149Y-32850D03*
X13151Y-35050D03*
X13149Y-37200D03*
X13151Y-40305D03*
X13149Y-41998D03*
X13151Y-43900D03*
X13149Y-46500D03*
X13151Y-49500D03*
X13149Y-51840D03*
X13151Y-55704D03*
X13149Y-56830D03*
X14272Y-57920D03*
X15119Y-58800D03*
X23567Y-58985D03*
X20603Y-58800D03*
X18013Y-58800D03*
X78619Y-15854D03*
X80220Y-19650D03*
X80262Y-19137D03*
X80262Y-18440D03*
X80262Y-18000D03*
X25501Y-42742D03*
X23100Y-34720D03*
X26370Y-30980D03*
X31850Y-18740D03*
X59918Y-22101D03*
X61008Y-22036D03*
X34262Y-45394D03*
X33381Y-45387D03*
X43052Y-29124D03*
X46343Y-24790D03*
X54428Y-19074D03*
X36883Y-18102D03*
X40487Y-25650D03*
X39884Y-26420D03*
X62008Y-22026D03*
X64994Y-60700D03*
X74690Y-62685D03*
X26943Y-47089D03*
X28692Y-46548D03*
X26411Y-44829D03*
X30237Y-44172D03*
X47505Y-61350D03*
X85673Y-19417D03*
X83429Y-18000D03*
X89649Y-18078D03*
X90397Y-18078D03*
X51848Y-30967D03*
X80262Y-17064D03*
X80240Y-16382D03*
X79646Y-15854D03*
X69383Y-22046D03*
X68543Y-22061D03*
X67643Y-22061D03*
X35672Y-41664D03*
X36873Y-37044D03*
X33093Y-32733D03*
X36456Y-33145D03*
X42861Y-43773D03*
X43479Y-46805D03*
X39362Y-47637D03*
X37319Y-46742D03*
X41805Y-46409D03*
X38829Y-35760D03*
X40460Y-35959D03*
X34430Y-30401D03*
X53450Y-23820D03*
X53460Y-22850D03*
X154171Y-58948D03*
X154671Y-58956D03*
X155370Y-58956D03*
X150960Y-58956D03*
X138285Y-34125D03*
X138998Y-34758D03*
X139897Y-35772D03*
X140746Y-36506D03*
X141481Y-37356D03*
X143000Y-37455D03*
X144342Y-37356D03*
X146212Y-37455D03*
X147863Y-37356D03*
X149368Y-37455D03*
X150084Y-37356D03*
X134876Y-33726D03*
X135430Y-33142D03*
X136017Y-33160D03*
X132689Y-38023D03*
X133925Y-38023D03*
X134574Y-37224D03*
X134653Y-36102D03*
X120675Y-30390D03*
X105157Y-32216D03*
X107358Y-30389D03*
X107244Y-36603D03*
X104925Y-36582D03*
X127021Y-33329D03*
X128175Y-33132D03*
X129465Y-33329D03*
X131612Y-33132D03*
X132516Y-32108D03*
X133984Y-30760D03*
X134782Y-29842D03*
X141300Y-26715D03*
X142040Y-26030D03*
X143300Y-25160D03*
X144900Y-25160D03*
X135950Y-28650D03*
X136384Y-28194D03*
X137170Y-28050D03*
X137940Y-28141D03*
X138512Y-29070D03*
X138318Y-29681D03*
X137612Y-30050D03*
X136920Y-30106D03*
X136345Y-29495D03*
X135937Y-28862D03*
X19118Y-64130D03*
X20325Y-64064D03*
X21360Y-64130D03*
X22380Y-64064D03*
X25200Y-64130D03*
X26400Y-64064D03*
X27742Y-64130D03*
X30228Y-64064D03*
X31504Y-64130D03*
X33022Y-64064D03*
X102877Y-36779D03*
X136744Y-51326D03*
X138390Y-51330D03*
X139472Y-50232D03*
X140820Y-50232D03*
X128622Y-41261D03*
X129565Y-42214D03*
X132582Y-40992D03*
X133759Y-41141D03*
X134744Y-42162D03*
X83670Y-46960D03*
X83685Y-47500D03*
X83670Y-48020D03*
X83685Y-48590D03*
X73950Y-42495D03*
X74670Y-42495D03*
X75330Y-42495D03*
X76005Y-42495D03*
X76680Y-42495D03*
X77370Y-42495D03*
X78015Y-42495D03*
X78705Y-42495D03*
X85035Y-51735D03*
X84637Y-51307D03*
X84314Y-50850D03*
X83797Y-50467D03*
X83429Y-49965D03*
X82890Y-49560D03*
X82901Y-48960D03*
X80680Y-44430D03*
X81040Y-44890D03*
X81594Y-45235D03*
X82040Y-45890D03*
X73238Y-42944D03*
X73780Y-43267D03*
X74438Y-43267D03*
X75166Y-43267D03*
X75831Y-43267D03*
X76524Y-43267D03*
X77230Y-43267D03*
X77940Y-43267D03*
X104832Y-63822D03*
X105630Y-63874D03*
X106425Y-63822D03*
X107070Y-63874D03*
X93617Y-63874D03*
X94230Y-63822D03*
X95070Y-63874D03*
X95850Y-63822D03*
X97034Y-63874D03*
X98147Y-63822D03*
X98925Y-63874D03*
X99795Y-63822D03*
X100650Y-63874D03*
X86296Y-56758D03*
X86614Y-57525D03*
X86640Y-58200D03*
X86614Y-59175D03*
X86640Y-60180D03*
X86614Y-61155D03*
X86640Y-61952D03*
X86614Y-63118D03*
X87384Y-64013D03*
X85682Y-57300D03*
X85845Y-58020D03*
X85900Y-58710D03*
X85845Y-59775D03*
X85900Y-60690D03*
X85845Y-61530D03*
X85900Y-62510D03*
X85936Y-63206D03*
X86713Y-64013D03*
X88095Y-63889D03*
X89215Y-64013D03*
X90310Y-63889D03*
X73024Y-45255D03*
X73584Y-45267D03*
X74200Y-45267D03*
X74907Y-45267D03*
X75621Y-45267D03*
X76307Y-45267D03*
X80685Y-50300D03*
X80708Y-51181D03*
X81252Y-51607D03*
X80740Y-52300D03*
X80490Y-51930D03*
X80090Y-51650D03*
X80010Y-51070D03*
X79950Y-50490D03*
X71895Y-45960D03*
X72555Y-46040D03*
X73140Y-45960D03*
X73785Y-46040D03*
X74415Y-45960D03*
X75060Y-46040D03*
X75750Y-45960D03*
X76545Y-46040D03*
X77235Y-45960D03*
X77790Y-46040D03*
X78225Y-46410D03*
X78627Y-46877D03*
X79132Y-47317D03*
X37083Y-43611D03*
X36545Y-44586D03*
X47208Y-25519D03*
X50988Y-25047D03*
X54914Y-39707D03*
X51056Y-39794D03*
X45717Y-25424D03*
X48074Y-24574D03*
X19910Y-38808D03*
X19910Y-37554D03*
X126300Y-19640D03*
X44294Y-38114D03*
X43439Y-38124D03*
X106440Y-33818D03*
X109751Y-33503D03*
G54D57*
X106614Y-35523D02*
X106594Y-35543D01*
G54D58*
X40104Y-42921D02*
X40104Y-40707D01*
X40104Y-40707D02*
X40176Y-40635D01*
X34880Y-39357D02*
X34880Y-38330D01*
X34880Y-38330D02*
X34860Y-38310D01*
X34209Y-42412D02*
X34209Y-41580D01*
X34630Y-42833D02*
X34209Y-42412D01*
X38899Y-43480D02*
X38696Y-43277D01*
X34630Y-42834D02*
X34984Y-43188D01*
X34984Y-43188D02*
X38607Y-43188D01*
X38607Y-43188D02*
X38696Y-43277D01*
X34630Y-42833D02*
X34630Y-42834D01*
X34880Y-39290D02*
X34872Y-39282D01*
X34880Y-40014D02*
X34880Y-39357D01*
X34880Y-39357D02*
X34880Y-39290D01*
X34628Y-40266D02*
X34880Y-40014D01*
X34046Y-40266D02*
X34628Y-40266D01*
X33867Y-40445D02*
X34046Y-40266D01*
X33867Y-41238D02*
X33867Y-40445D01*
X34209Y-41580D02*
X33867Y-41238D01*
X40104Y-43349D02*
X40230Y-43475D01*
X40104Y-42921D02*
X40104Y-43349D01*
X33775Y-35378D02*
X33775Y-36031D01*
X34860Y-38310D02*
X34860Y-37116D01*
X33668Y-35271D02*
X33775Y-35378D01*
X33668Y-34538D02*
X33668Y-35271D01*
X33775Y-36031D02*
X34860Y-37116D01*
X33075Y-31731D02*
X33075Y-31766D01*
X33075Y-31766D02*
X33668Y-32359D01*
X33668Y-32359D02*
X33668Y-34538D01*
X33668Y-34538D02*
X33668Y-34588D01*
X38899Y-43547D02*
X38899Y-43480D01*
X33668Y-34494D02*
X33668Y-34588D01*
X33668Y-34515D02*
X33668Y-34494D01*
X31399Y-34545D02*
X31839Y-34545D01*
X31839Y-34545D02*
X31869Y-34515D01*
X31869Y-34515D02*
X33668Y-34515D01*
X38899Y-44478D02*
X38901Y-44478D01*
X38899Y-43547D02*
X38899Y-44478D01*
X38901Y-46818D02*
X38901Y-44478D01*
X40279Y-46886D02*
X39975Y-46886D01*
X39975Y-46886D02*
X39964Y-46897D01*
X38980Y-46897D02*
X38901Y-46818D01*
X32662Y-31731D02*
X33075Y-31731D01*
X32560Y-31629D02*
X32662Y-31731D01*
X32560Y-30756D02*
X32560Y-31629D01*
X32464Y-30660D02*
X32560Y-30756D01*
X32459Y-30660D02*
X32464Y-30660D01*
X32120Y-30321D02*
X32459Y-30660D01*
X32120Y-29075D02*
X32120Y-30321D01*
X41972Y-47055D02*
X41893Y-47055D01*
X41893Y-47055D02*
X41725Y-46886D01*
X41972Y-46886D02*
X41972Y-47055D01*
X41972Y-47055D02*
X41972Y-47072D01*
X41972Y-47072D02*
X41963Y-47081D01*
X41893Y-46886D02*
X41893Y-47011D01*
X41893Y-47011D02*
X41963Y-47081D01*
X42158Y-46886D02*
X41972Y-46886D01*
X41972Y-46886D02*
X41893Y-46886D01*
X41893Y-46886D02*
X41725Y-46886D01*
X41725Y-46886D02*
X40279Y-46886D01*
X40279Y-46886D02*
X40274Y-46886D01*
X40274Y-46886D02*
X40024Y-46636D01*
X40024Y-46636D02*
X40024Y-45957D01*
X40024Y-45957D02*
X39998Y-45931D01*
X39998Y-45931D02*
X40899Y-45931D01*
X40899Y-45931D02*
X40908Y-45940D01*
X41963Y-48026D02*
X41963Y-47081D01*
X42158Y-46886D02*
X42683Y-46886D01*
X41963Y-47081D02*
X42158Y-46886D01*
G54D59*
X49651Y-37202D02*
X49655Y-37202D01*
X49655Y-37202D02*
X49868Y-37415D01*
X49868Y-37661D02*
X49868Y-37415D01*
X49868Y-37415D02*
X49868Y-37360D01*
X49868Y-37360D02*
X50027Y-37202D01*
X49086Y-37499D02*
X49113Y-37499D01*
X50720Y-36572D02*
X50468Y-36320D01*
X50720Y-36981D02*
X50720Y-36572D01*
X50499Y-37202D02*
X50720Y-36981D01*
X49410Y-37202D02*
X49651Y-37202D01*
X49651Y-37202D02*
X50027Y-37202D01*
X50027Y-37202D02*
X50499Y-37202D01*
X49113Y-37499D02*
X49410Y-37202D01*
X50283Y-33460D02*
X50283Y-33486D01*
X50283Y-33486D02*
X50468Y-33671D01*
X49846Y-33460D02*
X50283Y-33460D01*
X50283Y-33460D02*
X50291Y-33460D01*
X50291Y-33460D02*
X50468Y-33283D01*
X49525Y-44765D02*
X49545Y-44765D01*
X51405Y-45945D02*
X51405Y-47227D01*
X50526Y-45066D02*
X51405Y-45945D01*
X49846Y-45066D02*
X50526Y-45066D01*
X49545Y-44765D02*
X49846Y-45066D01*
X50602Y-33044D02*
X50574Y-33044D01*
X50602Y-33044D02*
X50924Y-33044D01*
X50468Y-33151D02*
X50468Y-33283D01*
X50574Y-33044D02*
X50468Y-33151D01*
X50468Y-33283D02*
X50468Y-33503D01*
X50468Y-33503D02*
X50468Y-33671D01*
X50468Y-33671D02*
X50468Y-33813D01*
X50468Y-33813D02*
X50468Y-36320D01*
X51586Y-33249D02*
X51308Y-32971D01*
G54D58*
X51116Y-33206D02*
X51086Y-33206D01*
X51086Y-33206D02*
X50924Y-33044D01*
X51116Y-33206D02*
X51147Y-33206D01*
X51308Y-33044D02*
X51308Y-32971D01*
X51147Y-33206D02*
X51308Y-33044D01*
X51116Y-33044D02*
X51116Y-33206D01*
X51116Y-33206D02*
X51116Y-33627D01*
X51116Y-33627D02*
X51098Y-33645D01*
G54D59*
X54430Y-34806D02*
X54441Y-34806D01*
X54056Y-34432D02*
X54430Y-34806D01*
X52812Y-33498D02*
X53817Y-33498D01*
X53817Y-33498D02*
X54056Y-33737D01*
X54056Y-33737D02*
X54056Y-34432D01*
X61930Y-35530D02*
X62590Y-35530D01*
X61890Y-35570D02*
X61930Y-35530D01*
X55215Y-35580D02*
X57855Y-35580D01*
X54441Y-34806D02*
X55215Y-35580D01*
X49086Y-41237D02*
X49086Y-37499D01*
X49525Y-44765D02*
X49086Y-44326D01*
X33732Y-46145D02*
X35534Y-46145D01*
X44060Y-49320D02*
X39004Y-49320D01*
X44863Y-48517D02*
X44060Y-49320D01*
X49238Y-48517D02*
X44863Y-48517D01*
X49245Y-48510D02*
X49238Y-48517D01*
X51093Y-48503D02*
X50820Y-48503D01*
X51408Y-48188D02*
X51093Y-48503D01*
X51408Y-47230D02*
X51408Y-48188D01*
X51405Y-47227D02*
X51408Y-47230D01*
X35534Y-46145D02*
X38711Y-49322D01*
X38711Y-49322D02*
X39004Y-49322D01*
X39004Y-49322D02*
X39004Y-49320D01*
X49086Y-41094D02*
X49086Y-41237D01*
X49086Y-41237D02*
X49086Y-44326D01*
X63847Y-36787D02*
X63847Y-36777D01*
X63847Y-38378D02*
X63847Y-36777D01*
X62715Y-39510D02*
X63847Y-38378D01*
X62715Y-42317D02*
X62715Y-39510D01*
X63364Y-42966D02*
X62715Y-42317D01*
X64209Y-42966D02*
X63364Y-42966D01*
X64680Y-43437D02*
X64209Y-42966D01*
X64976Y-57216D02*
X64976Y-56165D01*
X64680Y-54940D02*
X64680Y-44240D01*
X65170Y-55430D02*
X64680Y-54940D01*
X65170Y-55972D02*
X65170Y-55430D01*
X64976Y-56165D02*
X65170Y-55972D01*
X64680Y-44240D02*
X64680Y-43437D01*
X62590Y-35530D02*
X63847Y-36787D01*
X65470Y-58549D02*
X65470Y-57710D01*
X64976Y-57216D02*
X64258Y-57216D01*
X65470Y-57710D02*
X64976Y-57216D01*
X65470Y-58549D02*
X65470Y-59058D01*
X65470Y-59058D02*
X65612Y-59200D01*
X65612Y-59200D02*
X66110Y-59200D01*
X63246Y-58198D02*
X63246Y-59088D01*
X63883Y-59227D02*
X63910Y-59200D01*
X63385Y-59227D02*
X63883Y-59227D01*
X63246Y-59088D02*
X63385Y-59227D01*
X63717Y-58373D02*
X63398Y-58373D01*
X64395Y-57353D02*
X64258Y-57216D01*
X63246Y-58198D02*
X63246Y-57948D01*
X63246Y-57948D02*
X63454Y-57740D01*
X63454Y-57740D02*
X64264Y-57740D01*
X64264Y-57740D02*
X64395Y-57609D01*
X64395Y-57609D02*
X64395Y-57353D01*
X63246Y-58221D02*
X63246Y-58198D01*
X63398Y-58373D02*
X63246Y-58221D01*
X64059Y-57218D02*
X64258Y-57216D01*
X65470Y-59058D02*
X65612Y-59200D01*
G54D58*
X65612Y-59200D02*
X66110Y-59200D01*
X33450Y-44254D02*
X33803Y-44254D01*
X33732Y-46145D02*
X32621Y-46145D01*
X33873Y-46004D02*
X33732Y-46145D01*
X33873Y-44324D02*
X33873Y-44589D01*
X33873Y-44589D02*
X33873Y-46004D01*
X33803Y-44254D02*
X33873Y-44324D01*
X31725Y-45770D02*
X31725Y-46031D01*
X31725Y-46031D02*
X31839Y-46145D01*
X31839Y-46145D02*
X32621Y-46145D01*
X27930Y-46120D02*
X27930Y-45474D01*
X28780Y-45221D02*
X28796Y-45237D01*
X28183Y-45221D02*
X28780Y-45221D01*
X27930Y-45474D02*
X28183Y-45221D01*
X29474Y-43960D02*
X29474Y-43480D01*
X27930Y-43603D02*
X27930Y-43920D01*
X28112Y-43421D02*
X27930Y-43603D01*
X29415Y-43421D02*
X28112Y-43421D01*
X29474Y-43480D02*
X29415Y-43421D01*
X31725Y-43570D02*
X31957Y-43570D01*
X33450Y-43896D02*
X33450Y-44254D01*
X33306Y-43752D02*
X33450Y-43896D01*
X32139Y-43752D02*
X33306Y-43752D01*
X31957Y-43570D02*
X32139Y-43752D01*
X32102Y-44702D02*
X33215Y-44702D01*
X33371Y-44333D02*
X33450Y-44254D01*
X33376Y-44541D02*
X33371Y-44333D01*
X33215Y-44702D02*
X33376Y-44541D01*
X32040Y-44640D02*
X31610Y-44640D01*
X32102Y-44702D02*
X32040Y-44640D01*
X28796Y-45237D02*
X28796Y-44714D01*
X28796Y-44714D02*
X28870Y-44640D01*
X29474Y-43960D02*
X29474Y-44504D01*
X29474Y-44504D02*
X29610Y-44640D01*
X28870Y-44640D02*
X29610Y-44640D01*
X29610Y-44640D02*
X31610Y-44640D01*
G54D59*
X75397Y-22015D02*
X75751Y-22370D01*
X75751Y-22370D02*
X75881Y-22500D01*
X65080Y-19714D02*
X65080Y-19769D01*
X75881Y-22500D02*
X81854Y-22500D01*
X73822Y-20440D02*
X75397Y-22015D01*
X75397Y-22015D02*
X75606Y-22224D01*
X73468Y-20440D02*
X73822Y-20440D01*
X68940Y-20874D02*
X69098Y-20716D01*
X66185Y-20874D02*
X68940Y-20874D01*
X65080Y-19769D02*
X66185Y-20874D01*
X81854Y-22500D02*
X82692Y-22500D01*
X83574Y-22251D02*
X83625Y-22200D01*
X82940Y-22251D02*
X83574Y-22251D01*
X82692Y-22500D02*
X82940Y-22251D01*
X49980Y-41986D02*
X50053Y-42059D01*
X49978Y-41986D02*
X49980Y-41986D01*
X49086Y-41094D02*
X49978Y-41986D01*
X50053Y-42059D02*
X50053Y-42661D01*
X50924Y-33044D02*
X50890Y-33044D01*
X50890Y-33044D02*
X51116Y-33044D01*
X51591Y-33249D02*
X51586Y-33249D01*
X51308Y-32971D02*
X51381Y-33044D01*
G54D58*
X51396Y-33030D02*
X51396Y-33032D01*
X51396Y-33032D02*
X51538Y-33174D01*
G54D59*
X51116Y-33044D02*
X51381Y-33044D01*
G54D58*
X51381Y-33044D02*
X51396Y-33030D01*
G54D59*
X51396Y-33030D02*
X51538Y-32887D01*
X51538Y-32111D02*
X51538Y-32887D01*
G54D58*
X51538Y-32887D02*
X51538Y-33174D01*
X51538Y-33174D02*
X51538Y-33196D01*
X51538Y-33196D02*
X51591Y-33249D01*
G54D59*
X51591Y-33249D02*
X51840Y-33498D01*
X51840Y-33498D02*
X52812Y-33498D01*
G54D60*
X53650Y-29966D02*
X53685Y-29966D01*
X53685Y-29966D02*
X54042Y-30323D01*
X54042Y-29411D02*
X54042Y-30323D01*
X54042Y-30323D02*
X54042Y-31427D01*
X54042Y-31427D02*
X53082Y-32386D01*
X53082Y-32386D02*
X53082Y-33228D01*
X53082Y-33228D02*
X52812Y-33498D01*
G54D61*
X52732Y-30205D02*
X53410Y-30205D01*
X54042Y-29574D02*
X54042Y-29411D01*
X54042Y-29411D02*
X54042Y-27646D01*
X53410Y-30205D02*
X53650Y-29966D01*
X53650Y-29966D02*
X54042Y-29574D01*
X54042Y-27646D02*
X55453Y-27646D01*
X55453Y-27646D02*
X55463Y-27656D01*
G54D59*
X64502Y-19714D02*
X64314Y-19714D01*
X64314Y-19714D02*
X64195Y-19834D01*
G54D58*
X64195Y-19834D02*
X64195Y-19731D01*
X64195Y-19731D02*
X64178Y-19714D01*
X64106Y-19598D02*
X64147Y-19598D01*
X64147Y-19598D02*
X64289Y-19740D01*
G54D59*
X64072Y-19958D02*
X64072Y-19957D01*
X64072Y-19957D02*
X64195Y-19834D01*
G54D58*
X64195Y-19834D02*
X64289Y-19740D01*
X64289Y-19740D02*
X64298Y-19730D01*
G54D59*
X56078Y-25006D02*
X56078Y-20576D01*
X56078Y-20576D02*
X56268Y-20386D01*
X56268Y-20386D02*
X56268Y-20383D01*
X56268Y-20383D02*
X56385Y-20266D01*
X56385Y-20266D02*
X63763Y-20266D01*
X63763Y-20266D02*
X64072Y-19958D01*
G54D58*
X64072Y-19958D02*
X64106Y-19923D01*
X64106Y-19923D02*
X64106Y-19598D01*
X64106Y-19598D02*
X64106Y-19445D01*
G54D59*
X64943Y-19552D02*
X64943Y-19577D01*
X64943Y-19577D02*
X65080Y-19714D01*
G54D58*
X64943Y-19024D02*
X64943Y-19552D01*
X64943Y-19552D02*
X64943Y-19627D01*
X64943Y-19627D02*
X64856Y-19714D01*
X64826Y-17548D02*
X64857Y-17548D01*
X64857Y-17548D02*
X64969Y-17436D01*
X64969Y-16746D02*
X64969Y-17436D01*
X64969Y-17436D02*
X65081Y-17548D01*
G54D59*
X65189Y-19714D02*
X65080Y-19714D01*
X65189Y-19714D02*
X66102Y-19714D01*
X66102Y-19714D02*
X66136Y-19748D01*
X65080Y-19714D02*
X64856Y-19714D01*
X64856Y-19714D02*
X64752Y-19714D01*
X64752Y-19714D02*
X64502Y-19714D01*
G54D58*
X64502Y-19714D02*
X64375Y-19714D01*
X64375Y-19714D02*
X64106Y-19445D01*
G54D59*
X64106Y-19445D02*
X64106Y-17748D01*
X64306Y-17548D02*
X64826Y-17548D01*
X64106Y-17748D02*
X64306Y-17548D01*
G54D58*
X64826Y-17548D02*
X65081Y-17548D01*
X65081Y-17548D02*
X66136Y-17548D01*
X87090Y-18250D02*
X87078Y-18250D01*
X87078Y-18250D02*
X86946Y-18118D01*
X87090Y-18250D02*
X87090Y-18237D01*
X87090Y-18237D02*
X87209Y-18118D01*
X24810Y-42354D02*
X24810Y-42344D01*
X24810Y-42344D02*
X24935Y-42219D01*
X24810Y-42849D02*
X24810Y-42354D01*
X24810Y-42354D02*
X24810Y-42310D01*
X24810Y-42310D02*
X24719Y-42219D01*
X29360Y-35451D02*
X31225Y-35451D01*
X31225Y-35451D02*
X31320Y-35546D01*
X28350Y-35775D02*
X28350Y-35546D01*
X28445Y-35451D02*
X29360Y-35451D01*
X28350Y-35546D02*
X28445Y-35451D01*
X33360Y-40750D02*
X33360Y-41841D01*
X33195Y-42006D02*
X33195Y-42018D01*
X33360Y-41841D02*
X33195Y-42006D01*
X30465Y-42111D02*
X30963Y-42111D01*
X30963Y-42111D02*
X31056Y-42018D01*
X31056Y-42018D02*
X33195Y-42018D01*
X33354Y-41314D02*
X33340Y-41300D01*
X33195Y-42018D02*
X33354Y-41859D01*
X33354Y-41859D02*
X33354Y-41314D01*
X25140Y-42219D02*
X26312Y-42219D01*
X26420Y-42111D02*
X30465Y-42111D01*
X30465Y-42111D02*
X30609Y-42111D01*
X26312Y-42219D02*
X26420Y-42111D01*
X34360Y-39750D02*
X34360Y-39729D01*
X33821Y-39190D02*
X33821Y-38921D01*
X34360Y-39729D02*
X33821Y-39190D01*
X24246Y-42219D02*
X24719Y-42219D01*
X24719Y-42219D02*
X24935Y-42219D01*
X24935Y-42219D02*
X25140Y-42219D01*
X33340Y-40770D02*
X33360Y-40750D01*
X33340Y-41300D02*
X33340Y-40770D01*
X36639Y-34875D02*
X36640Y-34874D01*
X36640Y-34874D02*
X36652Y-34874D01*
G54D59*
X37177Y-33907D02*
X37175Y-33907D01*
X37175Y-33907D02*
X36652Y-34431D01*
X36652Y-34431D02*
X36652Y-34874D01*
X36652Y-34874D02*
X36652Y-35392D01*
X36652Y-35392D02*
X37395Y-36135D01*
X37395Y-33369D02*
X37395Y-33566D01*
X37395Y-33566D02*
X37398Y-33569D01*
X37398Y-33569D02*
X37398Y-33687D01*
X37398Y-33687D02*
X37177Y-33907D01*
X85555Y-22264D02*
X85555Y-21897D01*
X85515Y-22305D02*
X85555Y-22264D01*
X75585Y-28410D02*
X75643Y-28468D01*
X75643Y-28468D02*
X85352Y-28468D01*
X85352Y-28468D02*
X85589Y-28231D01*
X85555Y-21897D02*
X85722Y-21730D01*
X54764Y-40963D02*
X56249Y-40963D01*
X56249Y-40963D02*
X56414Y-41128D01*
X54764Y-40963D02*
X56284Y-40963D01*
X56284Y-40963D02*
X56414Y-40833D01*
X56414Y-40634D02*
X56414Y-40833D01*
X56414Y-40833D02*
X56414Y-41128D01*
X56414Y-41128D02*
X56960Y-41674D01*
X56960Y-43831D02*
X56458Y-44332D01*
X56960Y-41674D02*
X56960Y-43831D01*
G54D58*
X44030Y-39235D02*
X43993Y-39235D01*
X43993Y-39235D02*
X43830Y-39072D01*
X43830Y-39072D02*
X43800Y-39072D01*
X43800Y-39072D02*
X43637Y-39235D01*
X43830Y-38437D02*
X43830Y-39072D01*
X43830Y-37405D02*
X43830Y-38437D01*
X43830Y-39072D02*
X43830Y-39126D01*
X43830Y-39126D02*
X43939Y-39235D01*
G54D59*
X40219Y-38539D02*
X40219Y-38545D01*
X39727Y-38047D02*
X38650Y-36970D01*
X38650Y-36970D02*
X38460Y-36780D01*
X38460Y-36780D02*
X38442Y-36780D01*
X38442Y-36780D02*
X38085Y-36423D01*
X38085Y-36423D02*
X37509Y-36423D01*
X37509Y-36423D02*
X37395Y-36309D01*
X37395Y-36309D02*
X37395Y-36135D01*
X39727Y-38047D02*
X40219Y-38539D01*
X40909Y-39235D02*
X43637Y-39235D01*
X40219Y-38545D02*
X40909Y-39235D01*
X43637Y-39235D02*
X44030Y-39235D01*
X44030Y-39235D02*
X43939Y-39235D01*
X44982Y-39235D02*
X45385Y-38832D01*
X43939Y-39235D02*
X44982Y-39235D01*
G54D58*
X37395Y-32886D02*
X37401Y-32886D01*
X37562Y-33047D02*
X37562Y-33067D01*
X37401Y-32886D02*
X37562Y-33047D01*
X37395Y-33207D02*
X37422Y-33207D01*
X37422Y-33207D02*
X37562Y-33067D01*
X37562Y-33067D02*
X37582Y-33047D01*
X37395Y-33047D02*
X37582Y-33047D01*
X37582Y-33047D02*
X38142Y-33047D01*
X38142Y-33047D02*
X38145Y-33050D01*
X43830Y-37405D02*
X44583Y-37405D01*
X44583Y-37405D02*
X44611Y-37433D01*
X42865Y-37050D02*
X43080Y-37050D01*
X43772Y-37347D02*
X43830Y-37405D01*
X43377Y-37347D02*
X43772Y-37347D01*
X43080Y-37050D02*
X43377Y-37347D01*
X38298Y-29102D02*
X38298Y-28475D01*
X39100Y-26970D02*
X39435Y-26970D01*
X39020Y-27050D02*
X39100Y-26970D01*
X39020Y-27753D02*
X39020Y-27050D01*
X38298Y-28475D02*
X39020Y-27753D01*
X37395Y-30016D02*
X38241Y-30016D01*
X38241Y-30016D02*
X38295Y-30070D01*
X37395Y-29078D02*
X38274Y-29078D01*
X38274Y-29078D02*
X38298Y-29102D01*
X32596Y-35280D02*
X32628Y-35280D01*
X32628Y-35280D02*
X32774Y-35134D01*
X32774Y-35134D02*
X32786Y-35134D01*
X32786Y-35134D02*
X32932Y-35280D01*
X32955Y-34875D02*
X32774Y-35056D01*
X32774Y-35056D02*
X32774Y-35134D01*
X32774Y-35134D02*
X32774Y-35280D01*
G54D59*
X46995Y-38832D02*
X45385Y-38832D01*
X47004Y-38841D02*
X46995Y-38832D01*
X37395Y-28022D02*
X37198Y-27825D01*
X37395Y-33369D02*
X37395Y-33207D01*
X37395Y-33207D02*
X37395Y-33047D01*
X37395Y-33047D02*
X37395Y-32886D01*
X37395Y-32886D02*
X37395Y-32710D01*
X37395Y-32710D02*
X37395Y-32186D01*
X37395Y-32186D02*
X37395Y-30016D01*
X37395Y-30016D02*
X37395Y-29078D01*
X37395Y-29078D02*
X37395Y-28022D01*
G54D58*
X24701Y-43720D02*
X24706Y-43720D01*
X24706Y-43720D02*
X24810Y-43616D01*
X23185Y-43720D02*
X24701Y-43720D01*
X24701Y-43720D02*
X24810Y-43829D01*
X23132Y-42219D02*
X24070Y-42219D01*
X24070Y-42219D02*
X24246Y-42219D01*
X24810Y-42849D02*
X24810Y-43616D01*
X21726Y-45715D02*
X21265Y-45715D01*
X22456Y-46445D02*
X21726Y-45715D01*
X24220Y-46445D02*
X22456Y-46445D01*
X24810Y-45855D02*
X24220Y-46445D01*
X24810Y-43616D02*
X24810Y-43740D01*
X24810Y-43740D02*
X24810Y-43829D01*
X24810Y-43829D02*
X24810Y-45855D01*
X34750Y-27245D02*
X34750Y-27680D01*
X34910Y-27840D02*
X35430Y-27840D01*
X34750Y-27680D02*
X34910Y-27840D01*
X37908Y-27633D02*
X37908Y-27132D01*
X37779Y-27762D02*
X37908Y-27633D01*
X37261Y-27762D02*
X37779Y-27762D01*
X37198Y-27825D02*
X37261Y-27762D01*
X33435Y-35844D02*
X33453Y-35826D01*
X34034Y-36666D02*
X34344Y-36976D01*
X34545Y-37177D02*
X34344Y-36976D01*
X34545Y-38198D02*
X34545Y-37177D01*
X33821Y-38921D02*
X34545Y-38198D01*
X33897Y-36529D02*
X34034Y-36666D01*
X33892Y-36529D02*
X33435Y-36072D01*
X33897Y-36529D02*
X33892Y-36529D01*
X33453Y-35476D02*
X33453Y-35826D01*
X33257Y-35280D02*
X32932Y-35280D01*
X33257Y-35280D02*
X33453Y-35476D01*
X33435Y-36072D02*
X33435Y-35844D01*
X32932Y-35280D02*
X32774Y-35280D01*
X32774Y-35280D02*
X32774Y-35563D01*
X32137Y-35280D02*
X32596Y-35280D01*
X32596Y-35280D02*
X32774Y-35280D01*
X32137Y-35280D02*
X31320Y-35280D01*
X31320Y-35280D02*
X31320Y-35546D01*
X31320Y-35546D02*
X31320Y-35670D01*
X31320Y-35670D02*
X31410Y-35760D01*
X29360Y-35451D02*
X29360Y-35720D01*
X29360Y-35720D02*
X29415Y-35775D01*
X91421Y-18708D02*
X93114Y-18708D01*
X93309Y-18903D02*
X93309Y-20246D01*
X93114Y-18708D02*
X93309Y-18903D01*
X91539Y-18590D02*
X91539Y-18099D01*
X91421Y-18708D02*
X91539Y-18590D01*
X91145Y-18708D02*
X91421Y-18708D01*
G54D59*
X86933Y-21622D02*
X86972Y-21622D01*
X86972Y-21622D02*
X87169Y-21425D01*
X85830Y-21622D02*
X86933Y-21622D01*
X86933Y-21622D02*
X87169Y-21622D01*
X85555Y-21897D02*
X85722Y-21730D01*
X85722Y-21730D02*
X85830Y-21622D01*
X87169Y-21543D02*
X87169Y-21622D01*
X87169Y-21622D02*
X87326Y-21779D01*
X87169Y-21543D02*
X87169Y-21425D01*
X87169Y-21425D02*
X87326Y-21267D01*
X87169Y-21543D02*
X87326Y-21543D01*
G54D58*
X87326Y-21818D02*
X87326Y-21779D01*
X87326Y-21779D02*
X87326Y-22073D01*
X87326Y-22073D02*
X87287Y-22113D01*
X87090Y-18118D02*
X87090Y-18250D01*
X87090Y-18250D02*
X87090Y-18984D01*
X87090Y-18984D02*
X87326Y-19220D01*
X87326Y-21267D02*
X87326Y-21543D01*
X87326Y-21543D02*
X87326Y-21818D01*
X87326Y-21818D02*
X87326Y-21937D01*
X84610Y-17900D02*
X84610Y-17488D01*
X85633Y-17636D02*
X85613Y-17657D01*
X85633Y-17330D02*
X85633Y-17636D01*
X85515Y-17212D02*
X85633Y-17330D01*
X84885Y-17212D02*
X85515Y-17212D01*
X84610Y-17488D02*
X84885Y-17212D01*
X85613Y-17657D02*
X85613Y-17939D01*
X85791Y-18118D02*
X86946Y-18118D01*
X86946Y-18118D02*
X87090Y-18118D01*
X87090Y-18118D02*
X87209Y-18118D01*
X87209Y-18118D02*
X87621Y-18118D01*
X85613Y-17939D02*
X85791Y-18118D01*
G54D59*
X55375Y-38292D02*
X56405Y-38292D01*
X55358Y-38275D02*
X55375Y-38292D01*
X56414Y-39683D02*
X56414Y-38301D01*
X56414Y-38301D02*
X56405Y-38292D01*
X54764Y-40963D02*
X56085Y-40963D01*
X56414Y-40634D02*
X56414Y-39683D01*
X56085Y-40963D02*
X56414Y-40634D01*
G54D58*
X35058Y-42924D02*
X34827Y-42693D01*
X34827Y-42693D02*
X34827Y-41179D01*
X34827Y-41179D02*
X34869Y-41137D01*
X34869Y-41137D02*
X34869Y-40455D01*
X34869Y-40455D02*
X35082Y-40242D01*
X35082Y-40242D02*
X35674Y-40242D01*
X35674Y-40242D02*
X35874Y-40042D01*
X35874Y-40042D02*
X35874Y-38606D01*
X35874Y-38606D02*
X35793Y-38525D01*
X35793Y-38525D02*
X35420Y-38525D01*
X35420Y-38525D02*
X35240Y-38345D01*
X35240Y-38345D02*
X35240Y-38259D01*
X38940Y-42084D02*
X38940Y-41170D01*
X38940Y-41170D02*
X39360Y-40750D01*
X34827Y-42693D02*
X35058Y-42924D01*
X38865Y-42912D02*
X38940Y-42912D01*
X38853Y-42924D02*
X38865Y-42912D01*
X38757Y-42924D02*
X38853Y-42924D01*
X35058Y-42924D02*
X38757Y-42924D01*
X34146Y-33656D02*
X34140Y-33656D01*
X33595Y-31435D02*
X33595Y-31439D01*
X33595Y-31439D02*
X33970Y-31814D01*
X33970Y-31814D02*
X33970Y-33180D01*
X33970Y-33180D02*
X34140Y-33350D01*
X34140Y-33350D02*
X34140Y-33656D01*
X34140Y-33656D02*
X34140Y-34060D01*
X34140Y-34060D02*
X34011Y-34189D01*
X34011Y-34189D02*
X34011Y-35203D01*
X34011Y-35203D02*
X34111Y-35303D01*
X34111Y-35303D02*
X34111Y-35970D01*
X34111Y-35970D02*
X35240Y-37099D01*
X35240Y-37099D02*
X35240Y-37193D01*
X35240Y-37193D02*
X35246Y-37199D01*
X35246Y-37199D02*
X35240Y-37199D01*
X31694Y-32850D02*
X31694Y-32855D01*
X31694Y-32855D02*
X32162Y-33323D01*
X32162Y-33323D02*
X33309Y-33323D01*
X44964Y-39933D02*
X46139Y-39933D01*
X44898Y-39999D02*
X44964Y-39933D01*
X42075Y-39697D02*
X44184Y-39697D01*
X42075Y-39697D02*
X41900Y-39872D01*
G54D59*
X53871Y-45632D02*
X53918Y-45632D01*
X52020Y-47484D02*
X53871Y-45632D01*
G54D58*
X52560Y-23793D02*
X52560Y-22893D01*
X52560Y-22893D02*
X52577Y-22876D01*
X52560Y-24642D02*
X52560Y-23793D01*
X52560Y-23793D02*
X52560Y-23768D01*
X52560Y-23768D02*
X52570Y-23758D01*
X52560Y-24642D02*
X52565Y-24642D01*
X52556Y-24646D02*
X52560Y-24642D01*
X52556Y-25382D02*
X52556Y-24646D01*
X52577Y-25403D02*
X52556Y-25382D01*
X31694Y-32850D02*
X31639Y-32795D01*
X38940Y-42610D02*
X38940Y-42912D01*
X38940Y-42912D02*
X38940Y-43044D01*
X42607Y-48694D02*
X42713Y-48588D01*
X40956Y-48694D02*
X42607Y-48694D01*
X39366Y-47104D02*
X40956Y-48694D01*
X39366Y-44621D02*
X39366Y-47104D01*
X42713Y-48588D02*
X42713Y-48026D01*
X39374Y-44220D02*
X39374Y-44614D01*
X39374Y-44614D02*
X39366Y-44621D01*
X39374Y-44102D02*
X39374Y-44220D01*
X38940Y-43044D02*
X39374Y-43478D01*
X39374Y-43478D02*
X39374Y-44102D01*
X38940Y-42610D02*
X38940Y-42084D01*
X38940Y-42084D02*
X38940Y-42047D01*
X34430Y-17490D02*
X39440Y-17490D01*
X33700Y-18220D02*
X34430Y-17490D01*
X33595Y-31435D02*
X33350Y-31190D01*
X33350Y-31190D02*
X33350Y-18580D01*
X33350Y-18580D02*
X33700Y-18230D01*
X33700Y-18230D02*
X33700Y-18220D01*
X39470Y-17490D02*
X40125Y-18145D01*
X40125Y-18145D02*
X40125Y-23155D01*
X39440Y-17490D02*
X39470Y-17490D01*
X41423Y-23859D02*
X41405Y-23877D01*
X41405Y-23877D02*
X40307Y-23877D01*
X40307Y-23877D02*
X40118Y-23688D01*
X40118Y-23688D02*
X40118Y-23162D01*
X40118Y-23162D02*
X40125Y-23155D01*
X35240Y-38259D02*
X35240Y-37199D01*
X30939Y-30432D02*
X30939Y-30444D01*
X30939Y-30444D02*
X31554Y-31059D01*
X31554Y-31059D02*
X31554Y-32710D01*
X31554Y-32710D02*
X31639Y-32795D01*
X31005Y-31085D02*
X31005Y-30510D01*
X31005Y-30510D02*
X31005Y-30498D01*
X31005Y-30498D02*
X30939Y-30432D01*
X30939Y-30432D02*
X30932Y-30425D01*
X28686Y-30426D02*
X30796Y-30426D01*
X30796Y-30426D02*
X30797Y-30425D01*
X30797Y-30425D02*
X30932Y-30425D01*
G54D59*
X43808Y-47476D02*
X49283Y-47476D01*
X49283Y-47476D02*
X49295Y-47488D01*
X53918Y-45632D02*
X54977Y-45632D01*
X54977Y-45632D02*
X56458Y-45632D01*
X42713Y-48026D02*
X43710Y-48026D01*
X43808Y-47928D02*
X43808Y-47476D01*
X43710Y-48026D02*
X43808Y-47928D01*
G54D58*
X39326Y-40614D02*
X39452Y-40614D01*
X39319Y-40607D02*
X39326Y-40614D01*
G54D59*
X40877Y-39890D02*
X40877Y-39919D01*
X40877Y-39919D02*
X41663Y-40705D01*
X39686Y-38706D02*
X39693Y-38706D01*
X39693Y-38706D02*
X40877Y-39890D01*
G54D58*
X43751Y-43221D02*
X43751Y-43254D01*
X43751Y-43254D02*
X43923Y-43426D01*
X43727Y-44501D02*
X43771Y-44457D01*
X43771Y-44457D02*
X44022Y-44457D01*
X44022Y-44457D02*
X44198Y-44281D01*
X44198Y-44281D02*
X44198Y-43701D01*
X44198Y-43701D02*
X43923Y-43426D01*
G54D59*
X36763Y-33648D02*
X36763Y-33656D01*
X36763Y-33656D02*
X36170Y-34250D01*
X36170Y-34250D02*
X36170Y-35549D01*
X36170Y-35549D02*
X36915Y-36294D01*
X36915Y-33208D02*
X36915Y-33497D01*
X36915Y-33497D02*
X36763Y-33648D01*
G54D58*
X44534Y-39996D02*
X44534Y-39750D01*
X44534Y-39750D02*
X44626Y-39658D01*
X44534Y-40002D02*
X44534Y-39996D01*
X44664Y-39620D02*
X45570Y-39620D01*
X45797Y-39393D02*
X45570Y-39620D01*
X45976Y-38430D02*
X45885Y-38339D01*
X46920Y-38430D02*
X45976Y-38430D01*
X47300Y-38050D02*
X46920Y-38430D01*
X47300Y-34934D02*
X47300Y-38050D01*
X47066Y-34700D02*
X47300Y-34934D01*
X44626Y-39658D02*
X44664Y-39620D01*
X43751Y-41594D02*
X43751Y-40990D01*
X44534Y-40208D02*
X44534Y-40002D01*
X43751Y-40990D02*
X44534Y-40208D01*
X43751Y-43221D02*
X43751Y-41594D01*
X34889Y-30110D02*
X34900Y-30099D01*
X34900Y-30099D02*
X34900Y-30017D01*
G54D59*
X39270Y-38290D02*
X37800Y-36820D01*
X37800Y-36820D02*
X37290Y-36820D01*
X37290Y-36820D02*
X36915Y-36445D01*
X36915Y-36445D02*
X36915Y-36294D01*
X36915Y-33208D02*
X36915Y-31824D01*
X36915Y-31484D02*
X36315Y-30884D01*
X36315Y-30884D02*
X35364Y-30884D01*
X35364Y-30884D02*
X34900Y-30420D01*
X34900Y-30420D02*
X34900Y-30017D01*
X36915Y-31824D02*
X36915Y-31484D01*
X39270Y-38290D02*
X39686Y-38706D01*
X41663Y-40705D02*
X42862Y-40705D01*
X42862Y-40705D02*
X43751Y-41594D01*
X36542Y-28388D02*
X36542Y-28022D01*
X36250Y-28680D02*
X36542Y-28388D01*
X35290Y-28680D02*
X36250Y-28680D01*
X34900Y-29070D02*
X35290Y-28680D01*
X36542Y-26626D02*
X36600Y-26568D01*
X36542Y-28022D02*
X36542Y-26626D01*
G54D58*
X36500Y-25250D02*
X36500Y-25910D01*
X36600Y-26010D02*
X36600Y-26568D01*
X36500Y-25910D02*
X36600Y-26010D01*
G54D59*
X44914Y-45185D02*
X44914Y-45137D01*
X44914Y-45137D02*
X45151Y-44900D01*
X44914Y-44668D02*
X44919Y-44668D01*
X44919Y-44668D02*
X45151Y-44900D01*
X44914Y-43777D02*
X44928Y-43777D01*
X44928Y-43777D02*
X45121Y-43970D01*
X43751Y-41594D02*
X43751Y-42270D01*
X44914Y-43432D02*
X44914Y-43777D01*
X43751Y-42270D02*
X44914Y-43432D01*
X44914Y-43777D02*
X44914Y-44140D01*
X44914Y-44900D02*
X45151Y-44900D01*
X45151Y-44900D02*
X45539Y-44900D01*
X45539Y-44900D02*
X45563Y-44876D01*
X45589Y-43970D02*
X45121Y-43970D01*
X45121Y-43970D02*
X45084Y-43970D01*
X45084Y-43970D02*
X44914Y-44140D01*
X45078Y-46056D02*
X45578Y-46056D01*
X44914Y-45892D02*
X45078Y-46056D01*
X44914Y-44140D02*
X44914Y-44668D01*
X44914Y-44668D02*
X44914Y-44900D01*
X44914Y-44900D02*
X44914Y-45185D01*
X44914Y-45185D02*
X44914Y-45892D01*
X34900Y-30017D02*
X34900Y-29491D01*
X34900Y-29491D02*
X34900Y-29070D01*
X64150Y-44663D02*
X64150Y-44360D01*
X64150Y-44360D02*
X63500Y-43710D01*
X64659Y-55573D02*
X64659Y-55552D01*
X64150Y-55043D02*
X64150Y-44663D01*
X64659Y-55552D02*
X64150Y-55043D01*
X46574Y-20482D02*
X48130Y-20482D01*
X48353Y-20705D02*
X48353Y-21646D01*
X48130Y-20482D02*
X48353Y-20705D01*
G54D62*
X59951Y-17156D02*
X61106Y-17156D01*
X59925Y-17130D02*
X59951Y-17156D01*
X58023Y-17156D02*
X58845Y-17156D01*
X57721Y-17458D02*
X58023Y-17156D01*
X61106Y-17156D02*
X61170Y-17220D01*
X50644Y-17206D02*
X56875Y-17226D01*
X56875Y-17226D02*
X56945Y-17156D01*
X47417Y-15031D02*
X48072Y-15686D01*
X48072Y-15686D02*
X48072Y-16572D01*
X48726Y-17226D02*
X49400Y-17219D01*
X49400Y-17219D02*
X49875Y-17214D01*
X49875Y-17214D02*
X50644Y-17206D01*
X48072Y-16572D02*
X48726Y-17226D01*
G54D59*
X64659Y-55791D02*
X64659Y-55573D01*
X64635Y-55815D02*
X64659Y-55791D01*
X46574Y-20606D02*
X46574Y-20482D01*
X46574Y-20482D02*
X46574Y-15031D01*
X46259Y-20921D02*
X46574Y-20606D01*
G54D61*
X45574Y-15137D02*
X46062Y-15137D01*
X46062Y-15137D02*
X46169Y-15031D01*
G54D62*
X47417Y-15031D02*
X46574Y-15031D01*
X46574Y-15031D02*
X46169Y-15031D01*
X46169Y-15031D02*
X46125Y-15074D01*
G54D58*
X47287Y-23279D02*
X47287Y-23433D01*
X47287Y-23433D02*
X47333Y-23479D01*
X47060Y-26240D02*
X47060Y-25883D01*
X46850Y-23279D02*
X47287Y-23279D01*
X47287Y-23279D02*
X47533Y-23279D01*
X46814Y-23314D02*
X46850Y-23279D01*
X46814Y-25637D02*
X46814Y-23314D01*
X46854Y-25677D02*
X46814Y-25637D01*
X47060Y-25883D02*
X46854Y-25677D01*
G54D59*
X47333Y-23831D02*
X47333Y-23479D01*
X48353Y-23094D02*
X48353Y-22511D01*
X48168Y-23279D02*
X48353Y-23094D01*
X47533Y-23279D02*
X48168Y-23279D01*
X47333Y-23479D02*
X47533Y-23279D01*
X48353Y-21646D02*
X48353Y-22511D01*
G54D63*
X16780Y-15580D02*
X16780Y-15620D01*
X16780Y-15620D02*
X17666Y-16506D01*
X15291Y-14633D02*
X15291Y-15311D01*
X15291Y-15311D02*
X15560Y-15580D01*
X15560Y-15580D02*
X16780Y-15580D01*
X16780Y-15580D02*
X17666Y-15580D01*
X17666Y-15580D02*
X17666Y-15378D01*
G54D60*
X22463Y-14633D02*
X22786Y-14311D01*
X22786Y-14311D02*
X23110Y-14311D01*
X24090Y-14340D02*
X24118Y-14311D01*
X24118Y-14311D02*
X24660Y-14311D01*
G54D58*
X23754Y-32326D02*
X24153Y-32326D01*
X23504Y-32076D02*
X23754Y-32326D01*
X23504Y-31613D02*
X23504Y-32076D01*
X23499Y-31608D02*
X23504Y-31613D01*
G54D63*
X18954Y-14633D02*
X18410Y-14633D01*
X18410Y-14633D02*
X17666Y-15378D01*
X17666Y-15378D02*
X17666Y-15378D01*
X16676Y-14633D02*
X16921Y-14633D01*
X16921Y-14633D02*
X17666Y-15378D01*
G54D64*
X17666Y-16610D02*
X17666Y-16506D01*
X17666Y-16506D02*
X17666Y-15378D01*
X15291Y-14633D02*
X16676Y-14633D01*
X17960Y-14630D02*
X17963Y-14633D01*
X17963Y-14633D02*
X18954Y-14633D01*
X18954Y-14633D02*
X19200Y-14633D01*
X21495Y-14634D02*
X22477Y-14634D01*
X22801Y-14311D02*
X25736Y-14311D01*
X22477Y-14634D02*
X22801Y-14311D01*
X20877Y-14634D02*
X21495Y-14634D01*
X25736Y-14311D02*
X28688Y-14311D01*
X15291Y-14633D02*
X20877Y-14633D01*
X20877Y-14633D02*
X20877Y-14634D01*
G54D63*
X21675Y-22995D02*
X21675Y-28891D01*
X21675Y-28891D02*
X22220Y-29436D01*
X22920Y-21822D02*
X22847Y-21822D01*
X22847Y-21822D02*
X21675Y-22995D01*
X21675Y-22995D02*
X20995Y-23675D01*
X20995Y-23675D02*
X20995Y-28211D01*
X27440Y-18940D02*
X28110Y-18940D01*
X28110Y-18940D02*
X28170Y-18880D01*
X27440Y-19455D02*
X27440Y-18940D01*
X27440Y-18940D02*
X27470Y-18910D01*
X26286Y-19455D02*
X27440Y-19455D01*
X27440Y-19455D02*
X27764Y-19455D01*
X27764Y-19455D02*
X27870Y-19350D01*
X25712Y-20082D02*
X28022Y-20082D01*
X28022Y-20082D02*
X28688Y-19416D01*
X28688Y-19416D02*
X28688Y-18248D01*
G54D64*
X22220Y-32912D02*
X21434Y-33698D01*
G54D59*
X22220Y-29540D02*
X22600Y-29540D01*
X22600Y-29540D02*
X22890Y-29250D01*
X22890Y-29250D02*
X22872Y-29250D01*
X22872Y-29250D02*
X22626Y-29004D01*
X22626Y-29004D02*
X22626Y-29030D01*
X22626Y-29030D02*
X22220Y-29436D01*
X23505Y-29250D02*
X22890Y-29250D01*
X22890Y-29250D02*
X22802Y-29250D01*
X22802Y-29250D02*
X22220Y-29832D01*
G54D65*
X19921Y-35153D02*
X19937Y-35153D01*
X19937Y-35153D02*
X20308Y-34782D01*
G54D64*
X20308Y-34782D02*
X20337Y-34782D01*
X20337Y-34782D02*
X21002Y-34118D01*
X21434Y-33698D02*
X21422Y-33698D01*
X21422Y-33698D02*
X21002Y-34118D01*
G54D65*
X21014Y-34118D02*
X21002Y-34118D01*
X20308Y-34782D02*
X19921Y-35153D01*
G54D64*
X20020Y-25603D02*
X20020Y-27236D01*
X21014Y-34118D02*
X20958Y-34118D01*
X21434Y-33698D02*
X21014Y-34118D01*
X22220Y-29436D02*
X22220Y-29540D01*
X22220Y-29540D02*
X22220Y-29832D01*
X22220Y-29832D02*
X22220Y-32912D01*
X20020Y-27236D02*
X20995Y-28211D01*
X20995Y-28211D02*
X22220Y-29436D01*
X20085Y-25538D02*
X20020Y-25603D01*
X20085Y-23040D02*
X20370Y-23040D01*
X20370Y-23040D02*
X21587Y-21822D01*
X19050Y-21822D02*
X19050Y-22005D01*
X19050Y-22005D02*
X20085Y-23040D01*
X20085Y-21822D02*
X20085Y-23040D01*
X20085Y-23040D02*
X20085Y-25538D01*
X20085Y-25538D02*
X20020Y-25603D01*
X25720Y-19455D02*
X26286Y-19455D01*
X26286Y-19455D02*
X25887Y-19455D01*
X25887Y-19455D02*
X27094Y-18248D01*
X25736Y-18248D02*
X25720Y-19455D01*
X25720Y-19455D02*
X25712Y-20082D01*
X23972Y-21822D02*
X22920Y-21822D01*
X22920Y-21822D02*
X21587Y-21822D01*
X25712Y-20082D02*
X23972Y-21822D01*
X15374Y-21822D02*
X15314Y-21763D01*
X21587Y-21822D02*
X20085Y-21822D01*
X20085Y-21822D02*
X19050Y-21822D01*
X19050Y-21822D02*
X15374Y-21822D01*
G54D58*
X19921Y-35153D02*
X20958Y-34118D01*
G54D64*
X25736Y-18248D02*
X27094Y-18248D01*
X27094Y-18248D02*
X28688Y-18248D01*
G54D57*
X25736Y-18248D02*
X28688Y-18248D01*
G54D58*
X44820Y-22035D02*
X44858Y-22035D01*
X44858Y-22035D02*
X44978Y-22155D01*
X44820Y-22035D02*
X44813Y-22035D01*
X44813Y-22035D02*
X44693Y-22155D01*
X42498Y-20886D02*
X42498Y-20881D01*
X42498Y-20881D02*
X42638Y-20741D01*
X42498Y-20631D02*
X42528Y-20631D01*
X42528Y-20631D02*
X42638Y-20741D01*
X44820Y-22155D02*
X44820Y-22035D01*
X44820Y-22035D02*
X44820Y-21286D01*
X44275Y-20741D02*
X42638Y-20741D01*
X44820Y-21286D02*
X44275Y-20741D01*
X42638Y-20741D02*
X42498Y-20741D01*
X44370Y-22155D02*
X44693Y-22155D01*
X44693Y-22155D02*
X44820Y-22155D01*
X44820Y-22155D02*
X44978Y-22155D01*
X44978Y-22155D02*
X45294Y-22155D01*
X45294Y-22155D02*
X45325Y-22186D01*
X42494Y-21510D02*
X42498Y-21506D01*
X42498Y-21077D02*
X42498Y-20886D01*
X42498Y-20886D02*
X42498Y-20741D01*
X42498Y-21506D02*
X42498Y-21077D01*
X42498Y-15486D02*
X42956Y-15027D01*
X42498Y-20741D02*
X42498Y-20631D01*
X42498Y-20631D02*
X42498Y-15486D01*
G54D61*
X44314Y-15137D02*
X43870Y-15137D01*
X43870Y-15137D02*
X43759Y-15027D01*
G54D62*
X37862Y-14350D02*
X42279Y-14350D01*
X42279Y-14350D02*
X42956Y-15027D01*
G54D66*
X34216Y-14350D02*
X34889Y-14350D01*
G54D62*
X37862Y-14350D02*
X34889Y-14350D01*
X42956Y-15027D02*
X43759Y-15027D01*
X43759Y-15027D02*
X43803Y-15070D01*
G54D60*
X103412Y-45342D02*
X104007Y-45342D01*
X104007Y-45342D02*
X104480Y-44870D01*
X105857Y-44227D02*
X105922Y-44161D01*
X105922Y-44161D02*
X105922Y-42832D01*
X106970Y-42060D02*
X107015Y-42015D01*
X107015Y-42015D02*
X108150Y-42015D01*
G54D67*
X101598Y-46326D02*
X102428Y-46326D01*
X102428Y-46326D02*
X103412Y-45342D01*
X103412Y-45342D02*
X106740Y-42015D01*
X106740Y-42015D02*
X109800Y-42015D01*
G54D60*
X109047Y-42768D02*
X109047Y-42723D01*
X109047Y-42723D02*
X109380Y-42390D01*
X110118Y-42243D02*
X110385Y-41977D01*
X110385Y-41977D02*
X110385Y-41430D01*
X111063Y-41298D02*
X111127Y-41234D01*
X111127Y-41234D02*
X111127Y-40687D01*
X111836Y-40526D02*
X111885Y-40477D01*
X111885Y-40477D02*
X111885Y-39930D01*
X112476Y-39886D02*
X112432Y-39930D01*
X112432Y-39930D02*
X112395Y-39930D01*
G54D65*
X108922Y-42768D02*
X109047Y-42768D01*
X109047Y-42768D02*
X109800Y-42015D01*
X109800Y-42015D02*
X111885Y-39930D01*
X111885Y-39930D02*
X112395Y-39930D01*
X112395Y-39930D02*
X112592Y-40127D01*
X112592Y-40127D02*
X112592Y-40138D01*
X112592Y-40138D02*
X109962Y-42768D01*
X109962Y-42768D02*
X108922Y-42768D01*
G54D60*
X97419Y-48411D02*
X97041Y-48411D01*
X97041Y-48411D02*
X96930Y-48300D01*
X96844Y-47595D02*
X97237Y-47201D01*
X97237Y-47201D02*
X97237Y-46792D01*
X97937Y-45992D02*
X98280Y-45650D01*
X98280Y-45650D02*
X99075Y-45650D01*
X100590Y-46326D02*
X99997Y-46920D01*
X99997Y-46920D02*
X99795Y-46920D01*
X99061Y-46948D02*
X98475Y-47535D01*
X98475Y-47535D02*
X98475Y-47850D01*
X98228Y-48630D02*
X97980Y-48381D01*
X97980Y-48381D02*
X97980Y-47530D01*
G54D65*
X100820Y-46920D02*
X101524Y-46920D01*
X101524Y-46920D02*
X101596Y-46992D01*
X101598Y-46326D02*
X103196Y-46326D01*
X103196Y-46326D02*
X103300Y-46430D01*
X97755Y-46326D02*
X97755Y-46230D01*
X97755Y-46230D02*
X98335Y-45650D01*
X98335Y-45650D02*
X103554Y-45650D01*
X103554Y-45650D02*
X103598Y-45650D01*
X103598Y-45650D02*
X103708Y-45760D01*
X103708Y-45760D02*
X103708Y-46640D01*
X103708Y-46640D02*
X103356Y-46992D01*
X103356Y-46992D02*
X101596Y-46992D01*
X97980Y-48795D02*
X97980Y-47530D01*
X97980Y-47530D02*
X98200Y-47310D01*
X97419Y-48411D02*
X97419Y-47334D01*
X97419Y-47334D02*
X97888Y-46865D01*
X97888Y-46865D02*
X98714Y-46865D01*
X98714Y-46865D02*
X99087Y-47238D01*
X101598Y-46326D02*
X97755Y-46326D01*
X97755Y-46326D02*
X97703Y-46326D01*
X97703Y-46326D02*
X96930Y-47100D01*
X96930Y-47100D02*
X96930Y-48900D01*
X96930Y-48900D02*
X97419Y-48411D01*
X97419Y-48411D02*
X97035Y-48795D01*
X97035Y-48795D02*
X97980Y-48795D01*
X97980Y-48795D02*
X98535Y-48795D01*
X98535Y-48795D02*
X98475Y-48735D01*
X98475Y-48735D02*
X98475Y-47850D01*
X98475Y-47850D02*
X99087Y-47238D01*
X99087Y-47238D02*
X99405Y-46920D01*
X99405Y-46920D02*
X100820Y-46920D01*
X100820Y-46920D02*
X101005Y-46920D01*
X101005Y-46920D02*
X101598Y-46326D01*
G54D58*
X86775Y-28439D02*
X86775Y-28782D01*
X86778Y-28437D02*
X86775Y-28439D01*
G54D59*
X116338Y-44881D02*
X116657Y-45200D01*
X116657Y-45200D02*
X118062Y-45200D01*
X108933Y-46948D02*
X108933Y-45594D01*
X108933Y-45594D02*
X109842Y-44685D01*
X109842Y-44685D02*
X116141Y-44685D01*
X116141Y-44685D02*
X116338Y-44881D01*
G54D57*
X98468Y-34929D02*
X99059Y-34929D01*
X97070Y-34712D02*
X97287Y-34929D01*
X97287Y-34929D02*
X98468Y-34929D01*
X96736Y-34712D02*
X97070Y-34712D01*
X99059Y-34929D02*
X99098Y-34889D01*
X99098Y-34889D02*
X99098Y-34732D01*
G54D58*
X91676Y-15559D02*
X91676Y-16443D01*
X92033Y-16800D02*
X92309Y-16800D01*
X91676Y-16443D02*
X92033Y-16800D01*
X93843Y-15559D02*
X93843Y-15026D01*
X93843Y-15026D02*
X93980Y-14889D01*
X91676Y-15559D02*
X91676Y-14889D01*
X86775Y-28944D02*
X86775Y-28782D01*
X92523Y-14889D02*
X92482Y-14889D01*
X89728Y-14889D02*
X91676Y-14889D01*
X91676Y-14889D02*
X92523Y-14889D01*
X94511Y-14909D02*
X95614Y-14909D01*
X95870Y-16739D02*
X95809Y-16800D01*
X95870Y-15165D02*
X95870Y-16739D01*
X95614Y-14909D02*
X95870Y-15165D01*
X94492Y-14889D02*
X94511Y-14909D01*
X92482Y-14889D02*
X93980Y-14889D01*
X93980Y-14889D02*
X94492Y-14889D01*
G54D59*
X68192Y-28944D02*
X69019Y-28944D01*
X69098Y-28866D02*
X69098Y-28515D01*
X69019Y-28944D02*
X69098Y-28866D01*
X116657Y-45200D02*
X118062Y-45200D01*
X118062Y-44728D02*
X118062Y-45200D01*
X118062Y-45200D02*
X118062Y-45594D01*
X118062Y-45594D02*
X118140Y-45673D01*
X77681Y-28944D02*
X86775Y-28944D01*
X86775Y-28944D02*
X90043Y-28944D01*
X76185Y-28944D02*
X77681Y-28944D01*
X65082Y-27448D02*
X65594Y-27960D01*
X64807Y-27448D02*
X65082Y-27448D01*
X67562Y-28944D02*
X68192Y-28944D01*
X68192Y-28944D02*
X71145Y-28944D01*
X66578Y-27960D02*
X67562Y-28944D01*
X65594Y-27960D02*
X66578Y-27960D01*
X90870Y-30913D02*
X92248Y-30913D01*
X90515Y-30559D02*
X90870Y-30913D01*
X90515Y-29417D02*
X90515Y-30559D01*
X90043Y-28944D02*
X90515Y-29417D01*
X64807Y-27448D02*
X64807Y-26997D01*
X63822Y-27448D02*
X63822Y-26997D01*
X60078Y-25006D02*
X60078Y-25633D01*
X61893Y-27448D02*
X63822Y-27448D01*
X60078Y-25633D02*
X61893Y-27448D01*
X63822Y-27448D02*
X64807Y-27448D01*
G54D58*
X97190Y-32850D02*
X97190Y-33332D01*
X97838Y-33716D02*
X97838Y-33866D01*
X97560Y-33438D02*
X97838Y-33716D01*
X97296Y-33438D02*
X97560Y-33438D01*
X97190Y-33332D02*
X97296Y-33438D01*
X97838Y-33866D02*
X97830Y-33874D01*
X97830Y-33996D02*
X97838Y-33996D01*
X97830Y-33874D02*
X97830Y-33996D01*
X94612Y-33390D02*
X94612Y-33388D01*
X95151Y-32850D02*
X97190Y-32850D01*
X94612Y-33388D02*
X95151Y-32850D01*
X98070Y-36346D02*
X96493Y-36346D01*
X95452Y-37388D02*
X95452Y-38772D01*
X96493Y-36346D02*
X95452Y-37388D01*
X68272Y-27307D02*
X68331Y-27249D01*
X67215Y-27307D02*
X68272Y-27307D01*
X67077Y-27446D02*
X67215Y-27307D01*
X68322Y-26830D02*
X68356Y-26830D01*
X68356Y-26830D02*
X68428Y-26758D01*
X68331Y-26830D02*
X68322Y-26830D01*
X68322Y-26830D02*
X68282Y-26830D01*
X68104Y-26652D02*
X67932Y-26652D01*
X68282Y-26830D02*
X68104Y-26652D01*
X68331Y-26858D02*
X68331Y-26830D01*
X68331Y-26830D02*
X68331Y-26759D01*
X68331Y-26759D02*
X68438Y-26652D01*
X68331Y-26952D02*
X68331Y-26858D01*
X68331Y-26952D02*
X68331Y-27249D01*
X68331Y-26858D02*
X68331Y-26818D01*
X56646Y-26811D02*
X56632Y-26797D01*
X56632Y-26797D02*
X55178Y-26797D01*
X55178Y-26797D02*
X55020Y-26639D01*
X55020Y-26639D02*
X55020Y-26635D01*
X50460Y-22790D02*
X50630Y-22790D01*
X54156Y-22821D02*
X54156Y-22806D01*
X53733Y-22398D02*
X54156Y-22821D01*
X53708Y-22398D02*
X53733Y-22398D01*
X53700Y-22390D02*
X53708Y-22398D01*
X51030Y-22390D02*
X53700Y-22390D01*
X50630Y-22790D02*
X51030Y-22390D01*
X55020Y-26635D02*
X54582Y-26197D01*
X54582Y-26197D02*
X54582Y-23232D01*
X54582Y-23232D02*
X54156Y-22806D01*
X50460Y-22790D02*
X50210Y-22790D01*
G54D59*
X67932Y-26652D02*
X68438Y-26652D01*
X68438Y-26652D02*
X68974Y-26652D01*
X68974Y-26652D02*
X69098Y-26775D01*
G54D58*
X88270Y-26779D02*
X88412Y-26779D01*
X88412Y-26779D02*
X88431Y-26761D01*
X94334Y-33669D02*
X94334Y-35204D01*
X94612Y-33390D02*
X94334Y-33669D01*
X93093Y-15559D02*
X93093Y-15932D01*
X93311Y-16798D02*
X93309Y-16800D01*
X93311Y-16149D02*
X93311Y-16798D01*
X93093Y-15932D02*
X93311Y-16149D01*
X92426Y-15559D02*
X93093Y-15559D01*
X93309Y-16800D02*
X93309Y-17643D01*
X93309Y-17643D02*
X93311Y-17645D01*
G54D57*
X94295Y-36858D02*
X94295Y-39527D01*
X94334Y-35204D02*
X94334Y-35952D01*
X94334Y-35952D02*
X94334Y-36818D01*
X94334Y-36818D02*
X94295Y-36858D01*
X97838Y-33866D02*
X97838Y-33996D01*
X97838Y-33996D02*
X97838Y-34122D01*
G54D58*
X103074Y-36346D02*
X104098Y-36346D01*
X104098Y-36346D02*
X104649Y-35795D01*
X104649Y-35795D02*
X107405Y-35795D01*
X107405Y-35795D02*
X108114Y-35086D01*
X108114Y-35086D02*
X108114Y-34181D01*
X94295Y-39527D02*
X94696Y-39527D01*
X94696Y-39527D02*
X95452Y-38772D01*
X98070Y-36346D02*
X103074Y-36346D01*
X93287Y-39527D02*
X94295Y-39527D01*
X89649Y-26779D02*
X90476Y-26779D01*
X92051Y-33472D02*
X92051Y-34102D01*
X93350Y-32173D02*
X92051Y-33472D01*
X93350Y-29653D02*
X93350Y-32173D01*
X90476Y-26779D02*
X93350Y-29653D01*
G54D59*
X76224Y-26779D02*
X79767Y-26779D01*
X70433Y-26775D02*
X70437Y-26779D01*
X69098Y-26775D02*
X70433Y-26775D01*
X74885Y-26779D02*
X76224Y-26779D01*
X73862Y-26779D02*
X74885Y-26779D01*
X87523Y-26779D02*
X87602Y-26779D01*
X86027Y-26779D02*
X87523Y-26779D01*
X83940Y-26779D02*
X86027Y-26779D01*
X82799Y-26779D02*
X83940Y-26779D01*
X81224Y-26779D02*
X82799Y-26779D01*
X79767Y-26779D02*
X81224Y-26779D01*
G54D58*
X87602Y-26779D02*
X88270Y-26779D01*
X88270Y-26779D02*
X89649Y-26779D01*
G54D59*
X64295Y-29910D02*
X64295Y-29967D01*
X64295Y-29967D02*
X64379Y-30051D01*
X64295Y-29556D02*
X64295Y-29910D01*
X64295Y-29910D02*
X64155Y-30051D01*
X60183Y-28506D02*
X60183Y-29222D01*
X60183Y-29222D02*
X60662Y-29701D01*
X60662Y-29701D02*
X60823Y-29862D01*
X60823Y-29862D02*
X60828Y-29862D01*
X60828Y-29862D02*
X61017Y-30051D01*
X61017Y-30051D02*
X64155Y-30051D01*
X65555Y-29903D02*
X65555Y-29556D01*
X64379Y-30051D02*
X65408Y-30051D01*
X65408Y-30051D02*
X65555Y-29903D01*
X64155Y-30051D02*
X64379Y-30051D01*
G54D58*
X37981Y-38304D02*
X37983Y-38304D01*
X38360Y-38681D02*
X38360Y-39750D01*
X37983Y-38304D02*
X38360Y-38681D01*
X40563Y-26177D02*
X40866Y-25874D01*
X40393Y-26177D02*
X40563Y-26177D01*
X40999Y-25039D02*
X40999Y-25051D01*
X40999Y-25051D02*
X41950Y-24100D01*
X41950Y-24100D02*
X41950Y-23612D01*
X41950Y-23612D02*
X41544Y-23206D01*
X41544Y-23206D02*
X41544Y-23202D01*
X40866Y-25874D02*
X40866Y-25172D01*
X40866Y-25172D02*
X40999Y-25039D01*
X34540Y-31640D02*
X34540Y-31647D01*
X34540Y-31647D02*
X35320Y-32427D01*
X35320Y-32427D02*
X35320Y-35880D01*
X35320Y-35880D02*
X36150Y-36710D01*
X38720Y-26388D02*
X38720Y-26134D01*
X40187Y-25971D02*
X40393Y-26177D01*
X38883Y-25971D02*
X40187Y-25971D01*
X38720Y-26134D02*
X38883Y-25971D01*
X38720Y-26850D02*
X38720Y-26388D01*
X37981Y-38304D02*
X37317Y-37640D01*
X37317Y-37640D02*
X36527Y-37640D01*
X36527Y-37640D02*
X36150Y-37263D01*
X36150Y-37263D02*
X36150Y-36710D01*
X34540Y-31640D02*
X33705Y-30805D01*
X33705Y-30805D02*
X33705Y-28615D01*
X33705Y-28615D02*
X34010Y-28310D01*
X37922Y-28310D02*
X37931Y-28319D01*
X37931Y-28319D02*
X38011Y-28319D01*
X38011Y-28319D02*
X38720Y-27610D01*
X38720Y-27610D02*
X38720Y-26850D01*
X39648Y-42049D02*
X39648Y-42806D01*
X39382Y-41783D02*
X39648Y-42049D01*
X39767Y-44267D02*
X39767Y-44240D01*
X39767Y-44240D02*
X39648Y-44121D01*
X39648Y-44121D02*
X39648Y-42806D01*
X40001Y-44240D02*
X39974Y-44267D01*
X39974Y-44267D02*
X39767Y-44267D01*
X39767Y-44267D02*
X39762Y-44267D01*
G54D60*
X130748Y-52799D02*
X129375Y-52799D01*
X129549Y-53998D02*
X129496Y-53945D01*
X129496Y-53945D02*
X128229Y-53945D01*
X128190Y-55380D02*
X128107Y-55462D01*
X128107Y-55462D02*
X126712Y-55462D01*
X126462Y-57107D02*
X126420Y-57150D01*
X126420Y-57150D02*
X125355Y-57150D01*
X124365Y-57107D02*
X124365Y-57150D01*
G54D64*
X124020Y-57150D02*
X124365Y-57150D01*
X124365Y-57150D02*
X126103Y-57150D01*
X126103Y-57150D02*
X130453Y-52799D01*
X130453Y-52799D02*
X130748Y-52799D01*
X130748Y-52799D02*
X129375Y-52799D01*
X129375Y-52799D02*
X125310Y-56865D01*
X125310Y-56865D02*
X124305Y-56865D01*
X124305Y-56865D02*
X124020Y-57150D01*
G54D58*
X99183Y-54355D02*
X100013Y-54355D01*
X100013Y-54355D02*
X100038Y-54330D01*
X50001Y-36420D02*
X50001Y-36581D01*
X93850Y-54355D02*
X99183Y-54355D01*
X93840Y-54345D02*
X93850Y-54355D01*
X55118Y-37366D02*
X56791Y-37366D01*
X54929Y-37555D02*
X55118Y-37366D01*
X50001Y-36581D02*
X50090Y-36670D01*
X50001Y-34458D02*
X50001Y-36420D01*
X50001Y-36420D02*
X50001Y-36477D01*
X49851Y-34308D02*
X50001Y-34458D01*
X49494Y-34308D02*
X49851Y-34308D01*
G54D57*
X48664Y-39109D02*
X48664Y-40207D01*
X48664Y-40207D02*
X48641Y-40230D01*
G54D58*
X93430Y-55050D02*
X92600Y-55050D01*
X93710Y-55330D02*
X93430Y-55050D01*
X104300Y-55330D02*
X93710Y-55330D01*
X106284Y-53346D02*
X104300Y-55330D01*
X118870Y-53346D02*
X106284Y-53346D01*
X119900Y-52316D02*
X118870Y-53346D01*
G54D57*
X48664Y-39109D02*
X48664Y-37228D01*
X48664Y-37228D02*
X49689Y-36203D01*
X49689Y-36203D02*
X49689Y-35055D01*
X49689Y-35055D02*
X49518Y-34884D01*
X45840Y-43310D02*
X45968Y-43182D01*
X45968Y-43182D02*
X47007Y-43182D01*
G54D58*
X35875Y-38242D02*
X36118Y-38242D01*
X36360Y-38484D02*
X36360Y-39750D01*
X36118Y-38242D02*
X36360Y-38484D01*
X34468Y-34405D02*
X34566Y-34503D01*
X34566Y-34503D02*
X34566Y-36006D01*
X31260Y-33075D02*
X31260Y-33115D01*
X31260Y-33115D02*
X31985Y-33840D01*
X31985Y-33840D02*
X32860Y-33840D01*
X31260Y-33075D02*
X31260Y-32780D01*
X31103Y-31604D02*
X30614Y-31604D01*
X31260Y-32780D02*
X31260Y-31761D01*
X31260Y-31761D02*
X31103Y-31604D01*
X30505Y-31085D02*
X30505Y-31495D01*
X30505Y-31495D02*
X30614Y-31604D01*
X30614Y-32017D02*
X30646Y-32049D01*
X30614Y-31604D02*
X30614Y-32017D01*
X34566Y-36006D02*
X35492Y-36932D01*
X35492Y-38014D02*
X35492Y-36932D01*
X35720Y-38242D02*
X35492Y-38014D01*
X35875Y-38242D02*
X35720Y-38242D01*
X39956Y-32796D02*
X39953Y-32799D01*
X39953Y-32799D02*
X39680Y-32799D01*
X39680Y-32799D02*
X39319Y-32438D01*
X54156Y-32145D02*
X54166Y-32135D01*
X54166Y-32135D02*
X55466Y-32135D01*
X57065Y-32135D02*
X57120Y-32190D01*
X54955Y-32135D02*
X55466Y-32135D01*
X55466Y-32135D02*
X57065Y-32135D01*
X54945Y-32145D02*
X54955Y-32135D01*
X96259Y-52742D02*
X96105Y-52897D01*
X109716Y-44039D02*
X108519Y-44039D01*
X119618Y-44295D02*
X119362Y-44039D01*
X119362Y-44039D02*
X109716Y-44039D01*
X119618Y-44295D02*
X119618Y-44881D01*
X99409Y-49606D02*
X96272Y-52742D01*
X102952Y-49606D02*
X99409Y-49606D01*
X108519Y-44039D02*
X102952Y-49606D01*
X96272Y-52742D02*
X96259Y-52742D01*
X64310Y-36590D02*
X64310Y-38590D01*
X64310Y-38590D02*
X64830Y-39110D01*
X65540Y-51750D02*
X65653Y-51863D01*
X90895Y-53620D02*
X90915Y-53640D01*
X90915Y-53640D02*
X95370Y-53640D01*
X95370Y-53640D02*
X96105Y-52905D01*
X96105Y-52905D02*
X96105Y-52897D01*
X65653Y-51863D02*
X66540Y-52750D01*
X64830Y-39114D02*
X64956Y-39240D01*
X65190Y-51396D02*
X65540Y-51746D01*
X65540Y-51746D02*
X65540Y-51750D01*
X64830Y-39110D02*
X64830Y-39114D01*
X64965Y-39240D02*
X65190Y-39465D01*
X65190Y-39465D02*
X65190Y-51396D01*
X64956Y-39240D02*
X64965Y-39240D01*
X62115Y-34395D02*
X64310Y-36590D01*
X62115Y-33570D02*
X62115Y-34395D01*
X61560Y-33015D02*
X62115Y-33570D01*
X38616Y-31460D02*
X38616Y-32113D01*
X38941Y-32438D02*
X39319Y-32438D01*
X38616Y-32113D02*
X38941Y-32438D01*
X38616Y-31424D02*
X38616Y-31460D01*
X38616Y-31027D02*
X38616Y-31424D01*
X38616Y-31424D02*
X38616Y-31437D01*
X38619Y-31024D02*
X38616Y-31027D01*
G54D59*
X119618Y-45240D02*
X119618Y-44881D01*
X119618Y-44881D02*
X119618Y-44925D01*
X119618Y-44925D02*
X119421Y-44728D01*
X118890Y-45673D02*
X119421Y-45673D01*
X119618Y-45082D02*
X119814Y-44885D01*
X119618Y-45476D02*
X119618Y-45240D01*
X119618Y-45240D02*
X119618Y-45082D01*
X119421Y-45673D02*
X119618Y-45476D01*
X118812Y-44728D02*
X119421Y-44728D01*
X119421Y-44728D02*
X119500Y-44728D01*
X119500Y-44728D02*
X119657Y-44885D01*
X119657Y-44885D02*
X119814Y-44885D01*
X120502Y-44885D02*
X120542Y-44925D01*
X119814Y-44885D02*
X120502Y-44885D01*
G54D58*
X37760Y-33926D02*
X37760Y-34265D01*
X37769Y-33917D02*
X37760Y-33926D01*
X37745Y-34265D02*
X37283Y-34727D01*
X37760Y-34265D02*
X37745Y-34265D01*
X37283Y-34727D02*
X37283Y-34875D01*
X37283Y-34875D02*
X37283Y-35244D01*
X37283Y-35244D02*
X37571Y-35532D01*
X36421Y-38003D02*
X37121Y-38003D01*
X37360Y-38242D02*
X37360Y-39750D01*
X37121Y-38003D02*
X37360Y-38242D01*
X34970Y-35978D02*
X35803Y-36811D01*
X35803Y-37850D02*
X35803Y-36811D01*
X35956Y-38003D02*
X35803Y-37850D01*
X36421Y-38003D02*
X35956Y-38003D01*
X34799Y-32715D02*
X34970Y-32886D01*
X34970Y-32886D02*
X34970Y-35978D01*
X32243Y-31959D02*
X32243Y-32004D01*
X32243Y-32004D02*
X32261Y-32022D01*
X31005Y-29265D02*
X31005Y-28885D01*
X31005Y-29715D02*
X32243Y-30953D01*
X32243Y-30953D02*
X32243Y-31843D01*
X31005Y-29265D02*
X31005Y-29715D01*
X32243Y-31959D02*
X32243Y-31843D01*
X31005Y-28885D02*
X31005Y-28494D01*
X31562Y-27011D02*
X31588Y-26985D01*
X31562Y-27937D02*
X31562Y-27011D01*
X31005Y-28494D02*
X31562Y-27937D01*
X103040Y-55726D02*
X104444Y-55726D01*
X127140Y-47310D02*
X127140Y-47285D01*
X126960Y-47310D02*
X127140Y-47310D01*
X125790Y-48480D02*
X126960Y-47310D01*
X125790Y-52564D02*
X125790Y-48480D01*
X124520Y-53834D02*
X125790Y-52564D01*
X106326Y-53834D02*
X124520Y-53834D01*
X105420Y-54740D02*
X106326Y-53834D01*
X105420Y-54750D02*
X105420Y-54740D01*
X104444Y-55726D02*
X105420Y-54750D01*
X102480Y-55726D02*
X103040Y-55726D01*
X127140Y-47285D02*
X146674Y-47285D01*
X93129Y-55726D02*
X102480Y-55726D01*
X93100Y-55755D02*
X93129Y-55726D01*
X50060Y-45560D02*
X50475Y-45975D01*
X48696Y-45560D02*
X50060Y-45560D01*
X48461Y-45325D02*
X48696Y-45560D01*
X47241Y-44208D02*
X47970Y-44208D01*
X47061Y-44388D02*
X47241Y-44208D01*
G54D59*
X64274Y-28196D02*
X64274Y-28784D01*
X64274Y-28784D02*
X64295Y-28806D01*
X62183Y-28506D02*
X62227Y-28506D01*
X65555Y-28560D02*
X65555Y-28806D01*
X65191Y-28196D02*
X65555Y-28560D01*
X62538Y-28196D02*
X64274Y-28196D01*
X64274Y-28196D02*
X65191Y-28196D01*
X62227Y-28506D02*
X62538Y-28196D01*
G54D58*
X30360Y-39750D02*
X30360Y-38737D01*
X30667Y-38430D02*
X32865Y-38430D01*
X30360Y-38737D02*
X30667Y-38430D01*
X32920Y-38375D02*
X32920Y-37710D01*
X32865Y-38430D02*
X32920Y-38375D01*
X23300Y-38334D02*
X23300Y-38940D01*
X23338Y-38297D02*
X23300Y-38334D01*
X23784Y-40174D02*
X24360Y-40750D01*
X23784Y-39424D02*
X23784Y-40174D01*
X23300Y-38940D02*
X23784Y-39424D01*
X34352Y-25930D02*
X34352Y-25906D01*
X34352Y-25906D02*
X34500Y-25758D01*
X34500Y-25654D02*
X34500Y-25758D01*
X34500Y-25758D02*
X34500Y-25918D01*
X34500Y-25918D02*
X34488Y-25930D01*
X34488Y-25930D02*
X34572Y-25930D01*
X34572Y-25930D02*
X34750Y-26108D01*
X34575Y-25755D02*
X34575Y-25843D01*
X34575Y-25843D02*
X34488Y-25930D01*
X33925Y-25930D02*
X34352Y-25930D01*
X34352Y-25930D02*
X34488Y-25930D01*
X33921Y-25934D02*
X33925Y-25930D01*
X34488Y-25930D02*
X34750Y-25930D01*
X34500Y-25250D02*
X34500Y-25654D01*
X34500Y-25654D02*
X34500Y-25680D01*
X34500Y-25680D02*
X34575Y-25755D01*
X34575Y-25755D02*
X34750Y-25930D01*
X34750Y-25930D02*
X34750Y-26108D01*
X34750Y-26108D02*
X34750Y-26495D01*
G54D59*
X28688Y-24153D02*
X30397Y-24153D01*
X31011Y-23539D02*
X31011Y-23043D01*
X30397Y-24153D02*
X31011Y-23539D01*
G54D60*
X25115Y-26505D02*
X25745Y-26505D01*
X28092Y-24750D02*
X28688Y-24153D01*
X27518Y-24750D02*
X28092Y-24750D01*
X27148Y-25120D02*
X27518Y-24750D01*
X27130Y-25120D02*
X27148Y-25120D01*
X25745Y-26505D02*
X27130Y-25120D01*
G54D58*
X28350Y-36525D02*
X27719Y-36525D01*
X26250Y-36911D02*
X26260Y-36911D01*
X26250Y-36218D02*
X26250Y-36911D01*
X26488Y-35980D02*
X26250Y-36218D01*
X27182Y-35980D02*
X26488Y-35980D01*
X27437Y-36235D02*
X27182Y-35980D01*
X27437Y-36243D02*
X27437Y-36235D01*
X27719Y-36525D02*
X27437Y-36243D01*
X26260Y-37716D02*
X26260Y-38525D01*
X27300Y-39690D02*
X27360Y-39750D01*
X27300Y-39025D02*
X27300Y-39690D01*
X27084Y-38809D02*
X27300Y-39025D01*
X26544Y-38809D02*
X27084Y-38809D01*
X26260Y-38525D02*
X26544Y-38809D01*
X26260Y-37716D02*
X26260Y-36911D01*
X29360Y-39750D02*
X29360Y-39149D01*
X30310Y-37839D02*
X30433Y-37716D01*
X30310Y-38199D02*
X30310Y-37839D01*
X29360Y-39149D02*
X30310Y-38199D01*
X31500Y-42982D02*
X29062Y-42982D01*
X29062Y-42982D02*
X28740Y-42660D01*
X32700Y-43183D02*
X32353Y-43183D01*
X31235Y-43560D02*
X31225Y-43570D01*
X31235Y-43100D02*
X31235Y-43560D01*
X31353Y-42982D02*
X31235Y-43100D01*
X32152Y-42982D02*
X31500Y-42982D01*
X31500Y-42982D02*
X31353Y-42982D01*
X32353Y-43183D02*
X32152Y-42982D01*
X27727Y-43113D02*
X27727Y-43092D01*
X27013Y-42567D02*
X26971Y-42525D01*
X27678Y-42567D02*
X27013Y-42567D01*
X27853Y-42742D02*
X27678Y-42567D01*
X27853Y-42966D02*
X27853Y-42742D01*
X27727Y-43092D02*
X27853Y-42966D01*
X27430Y-43920D02*
X27430Y-43239D01*
X27430Y-43239D02*
X27304Y-43113D01*
X27304Y-43113D02*
X27727Y-43113D01*
X31468Y-42413D02*
X33848Y-42413D01*
X31442Y-42440D02*
X31468Y-42413D01*
X33848Y-42413D02*
X34001Y-42566D01*
X35640Y-45738D02*
X35640Y-45733D01*
X61445Y-58442D02*
X61083Y-58442D01*
X61454Y-58451D02*
X61445Y-58442D01*
X61454Y-58607D02*
X61454Y-58451D01*
X44537Y-48313D02*
X43881Y-48969D01*
X44537Y-48307D02*
X44824Y-48020D01*
X44824Y-48020D02*
X48636Y-48020D01*
X44537Y-48313D02*
X44537Y-48307D01*
X39245Y-48969D02*
X43881Y-48969D01*
X35013Y-43578D02*
X35013Y-43581D01*
X34001Y-42566D02*
X35013Y-43578D01*
X35013Y-43581D02*
X35085Y-43653D01*
X35640Y-45738D02*
X38871Y-48969D01*
X38871Y-48969D02*
X39245Y-48969D01*
X35640Y-45733D02*
X35085Y-45178D01*
X35085Y-45178D02*
X35085Y-43653D01*
X63910Y-59700D02*
X63190Y-59700D01*
X61626Y-58320D02*
X61890Y-58320D01*
X61454Y-58492D02*
X61626Y-58320D01*
X61454Y-58776D02*
X61454Y-58607D01*
X61454Y-58607D02*
X61454Y-58492D01*
X61673Y-58995D02*
X61454Y-58776D01*
X62485Y-58995D02*
X61673Y-58995D01*
X63190Y-59700D02*
X62485Y-58995D01*
X55185Y-21515D02*
X55185Y-20490D01*
X54863Y-21837D02*
X55185Y-21515D01*
X54009Y-21837D02*
X54863Y-21837D01*
X54008Y-21836D02*
X54009Y-21837D01*
X50432Y-21836D02*
X54008Y-21836D01*
X50281Y-21987D02*
X50432Y-21836D01*
X26865Y-36465D02*
X26865Y-36828D01*
X27087Y-37173D02*
X27090Y-37173D01*
X27087Y-37050D02*
X27087Y-37173D01*
X26865Y-36828D02*
X27087Y-37050D01*
X28511Y-41559D02*
X28161Y-41559D01*
X28161Y-41559D02*
X27860Y-41258D01*
X27860Y-41258D02*
X27860Y-39110D01*
X27860Y-39110D02*
X27090Y-38340D01*
X27090Y-38340D02*
X27090Y-37173D01*
X30360Y-40750D02*
X30360Y-40950D01*
X29751Y-41559D02*
X28511Y-41559D01*
X30360Y-40950D02*
X29751Y-41559D01*
X66636Y-20299D02*
X66596Y-20340D01*
X66636Y-20299D02*
X66636Y-20192D01*
X56505Y-19170D02*
X55185Y-20490D01*
X61050Y-19170D02*
X56505Y-19170D01*
X61350Y-19470D02*
X61050Y-19170D01*
X65493Y-20880D02*
X62730Y-20880D01*
X65529Y-20916D02*
X65493Y-20880D01*
X66636Y-19748D02*
X66636Y-20192D01*
X66636Y-20192D02*
X66636Y-20276D01*
X69028Y-19466D02*
X69728Y-19466D01*
X68822Y-19672D02*
X69028Y-19466D01*
X68822Y-20176D02*
X68822Y-19672D01*
X68570Y-20428D02*
X68822Y-20176D01*
X66788Y-20428D02*
X68570Y-20428D01*
X66636Y-20276D02*
X66788Y-20428D01*
X25718Y-36001D02*
X25718Y-36008D01*
X23191Y-36050D02*
X23338Y-35903D01*
X23191Y-36484D02*
X23191Y-36050D01*
X23380Y-36673D02*
X23191Y-36484D01*
X25053Y-36673D02*
X23380Y-36673D01*
X25718Y-36008D02*
X25053Y-36673D01*
X30534Y-36192D02*
X30534Y-35985D01*
X26169Y-35550D02*
X25718Y-36001D01*
X27567Y-35550D02*
X26169Y-35550D01*
X27927Y-35190D02*
X27567Y-35550D01*
X28090Y-35190D02*
X27927Y-35190D01*
X28530Y-34750D02*
X28090Y-35190D01*
X29801Y-34750D02*
X28530Y-34750D01*
X30044Y-34993D02*
X29801Y-34750D01*
X30534Y-35985D02*
X30540Y-35979D01*
X29360Y-40750D02*
X29360Y-40736D01*
X30534Y-36708D02*
X30534Y-36192D01*
X30534Y-36192D02*
X30534Y-36099D01*
X30275Y-36967D02*
X30534Y-36708D01*
X30009Y-36967D02*
X30275Y-36967D01*
X29715Y-37261D02*
X30009Y-36967D01*
X29715Y-38213D02*
X29715Y-37261D01*
X28863Y-39065D02*
X29715Y-38213D01*
X28863Y-40239D02*
X28863Y-39065D01*
X29360Y-40736D02*
X28863Y-40239D01*
X76704Y-27335D02*
X74626Y-27335D01*
X74626Y-27335D02*
X74625Y-27336D01*
G54D57*
X88515Y-27335D02*
X76704Y-27335D01*
X76704Y-27335D02*
X76566Y-27335D01*
X88529Y-27321D02*
X88515Y-27335D01*
X91860Y-22240D02*
X91784Y-22240D01*
X91784Y-22240D02*
X91782Y-22242D01*
X93528Y-21385D02*
X93528Y-21939D01*
X91860Y-22240D02*
X91850Y-22230D01*
X93228Y-22240D02*
X91860Y-22240D01*
X93528Y-21939D02*
X93228Y-22240D01*
G54D58*
X93528Y-21385D02*
X93528Y-21089D01*
X93783Y-20272D02*
X93809Y-20246D01*
X93783Y-20834D02*
X93783Y-20272D01*
X93528Y-21089D02*
X93783Y-20834D01*
X44219Y-18410D02*
X43981Y-18410D01*
X44513Y-18704D02*
X44219Y-18410D01*
X44513Y-19418D02*
X44513Y-18704D01*
X44724Y-19629D02*
X44513Y-19418D01*
X45171Y-19629D02*
X44724Y-19629D01*
X45180Y-19638D02*
X45171Y-19629D01*
X22397Y-41220D02*
X22288Y-41111D01*
X22410Y-41220D02*
X22397Y-41220D01*
X75999Y-27808D02*
X75144Y-27808D01*
X75144Y-27808D02*
X75140Y-27812D01*
X22660Y-41470D02*
X22410Y-41220D01*
X22410Y-41220D02*
X22000Y-40810D01*
X23564Y-41470D02*
X22660Y-41470D01*
X23954Y-41860D02*
X23564Y-41470D01*
X26608Y-41860D02*
X23954Y-41860D01*
X26816Y-41652D02*
X26608Y-41860D01*
G54D57*
X89274Y-27808D02*
X75999Y-27808D01*
X75999Y-27808D02*
X75966Y-27808D01*
X89369Y-27713D02*
X89274Y-27808D01*
X94353Y-21346D02*
X94353Y-21692D01*
X93366Y-22680D02*
X92124Y-22680D01*
X92124Y-22680D02*
X92113Y-22680D01*
X94353Y-21692D02*
X93366Y-22680D01*
G54D58*
X94353Y-21346D02*
X94353Y-20291D01*
X94353Y-20291D02*
X94309Y-20246D01*
X32543Y-23911D02*
X32543Y-22804D01*
X31758Y-24697D02*
X32543Y-23911D01*
X31758Y-25647D02*
X31758Y-24697D01*
X31755Y-25650D02*
X31758Y-25647D01*
X32550Y-27300D02*
X32550Y-26180D01*
X32510Y-27340D02*
X32550Y-27300D01*
X32530Y-25450D02*
X32550Y-25470D01*
X32550Y-25470D02*
X32550Y-26180D01*
X17465Y-43215D02*
X18012Y-43215D01*
X17468Y-44712D02*
X17465Y-44715D01*
X18018Y-44712D02*
X17468Y-44712D01*
X18141Y-44589D02*
X18018Y-44712D01*
X18141Y-43344D02*
X18141Y-44589D01*
X18012Y-43215D02*
X18141Y-43344D01*
X15268Y-43214D02*
X17465Y-43215D01*
X15268Y-44214D02*
X17465Y-44215D01*
G54D57*
X17465Y-43715D02*
X17465Y-44215D01*
G54D58*
X16490Y-45354D02*
X16468Y-45354D01*
X16468Y-45354D02*
X16328Y-45214D01*
X16490Y-45368D02*
X16490Y-45354D01*
X16490Y-45354D02*
X16490Y-45333D01*
X16490Y-45333D02*
X16609Y-45214D01*
X16490Y-46155D02*
X16490Y-45368D01*
X16490Y-45368D02*
X16490Y-45293D01*
X16490Y-45293D02*
X16411Y-45214D01*
X15268Y-45214D02*
X16328Y-45214D01*
X16328Y-45214D02*
X16411Y-45214D01*
X16411Y-45214D02*
X16609Y-45214D01*
X16609Y-45214D02*
X17464Y-45214D01*
X17464Y-45214D02*
X17465Y-45215D01*
X17465Y-42215D02*
X18184Y-42215D01*
X17488Y-45192D02*
X17465Y-45215D01*
X18165Y-45192D02*
X17488Y-45192D01*
X18417Y-44940D02*
X18165Y-45192D01*
X18417Y-42448D02*
X18417Y-44940D01*
X18184Y-42215D02*
X18417Y-42448D01*
X18604Y-45704D02*
X18614Y-45704D01*
X18614Y-45704D02*
X18725Y-45815D01*
X18604Y-45715D02*
X18604Y-45704D01*
X18604Y-45704D02*
X18725Y-45583D01*
X17465Y-45715D02*
X18604Y-45715D01*
X18604Y-45715D02*
X18625Y-45715D01*
X18625Y-45715D02*
X18725Y-45815D01*
X16490Y-46905D02*
X16490Y-47274D01*
X16490Y-47274D02*
X16682Y-47466D01*
X16682Y-47466D02*
X18411Y-47466D01*
X18411Y-47466D02*
X18725Y-47152D01*
X18725Y-47152D02*
X18725Y-45815D01*
X18725Y-45815D02*
X18725Y-45583D01*
X18725Y-45583D02*
X18725Y-45297D01*
X16475Y-42214D02*
X16965Y-41724D01*
X16965Y-41724D02*
X18171Y-41724D01*
X18171Y-41724D02*
X18725Y-42278D01*
X18725Y-42278D02*
X18725Y-45297D01*
X15268Y-42214D02*
X16475Y-42214D01*
G54D57*
X15268Y-42214D02*
X15358Y-42214D01*
G54D58*
X22126Y-44714D02*
X22750Y-44714D01*
X22906Y-44870D02*
X23076Y-44870D01*
X22750Y-44714D02*
X22906Y-44870D01*
X21265Y-44715D02*
X22126Y-44714D01*
X28360Y-39750D02*
X28360Y-38974D01*
X28904Y-37826D02*
X29010Y-37720D01*
X28904Y-38430D02*
X28904Y-37826D01*
X28360Y-38974D02*
X28904Y-38430D01*
X29010Y-37720D02*
X29010Y-37400D01*
X29415Y-36995D02*
X29415Y-36525D01*
X29010Y-37400D02*
X29415Y-36995D01*
X24342Y-42948D02*
X24153Y-42948D01*
X24346Y-42952D02*
X24342Y-42948D01*
X24358Y-42948D02*
X24362Y-42944D01*
X21265Y-43215D02*
X21734Y-43215D01*
X22000Y-42948D02*
X23771Y-42948D01*
X21734Y-43215D02*
X22000Y-42948D01*
X23771Y-42948D02*
X24153Y-42948D01*
X24153Y-42948D02*
X24358Y-42948D01*
G54D64*
X121120Y-21062D02*
X121120Y-21340D01*
X121120Y-21340D02*
X122085Y-22305D01*
X122085Y-22305D02*
X126435Y-22305D01*
X126435Y-22305D02*
X127677Y-21062D01*
X137285Y-25160D02*
X133988Y-25160D01*
X133988Y-25160D02*
X133452Y-24624D01*
X133452Y-24624D02*
X133452Y-23215D01*
X133452Y-23215D02*
X132923Y-22687D01*
X136045Y-24065D02*
X136190Y-24065D01*
X136190Y-24065D02*
X137285Y-25160D01*
X137285Y-25160D02*
X133988Y-25160D01*
X133988Y-25160D02*
X133452Y-24624D01*
X133452Y-24624D02*
X133452Y-23716D01*
X133452Y-23716D02*
X133892Y-23276D01*
X133892Y-23276D02*
X135256Y-23276D01*
X135256Y-23276D02*
X136045Y-24065D01*
X136045Y-24065D02*
X136180Y-24200D01*
G54D61*
X120545Y-15665D02*
X121120Y-16240D01*
X121120Y-16240D02*
X121120Y-16345D01*
G54D62*
X111244Y-21062D02*
X110385Y-20203D01*
X115829Y-21062D02*
X111244Y-21062D01*
X110385Y-20203D02*
X110385Y-17150D01*
G54D59*
X115829Y-21101D02*
X115829Y-21062D01*
X115617Y-21313D02*
X115829Y-21101D01*
G54D63*
X119980Y-21062D02*
X119980Y-20669D01*
X119980Y-20669D02*
X121062Y-19586D01*
X121062Y-19586D02*
X121358Y-19586D01*
X121358Y-19586D02*
X122834Y-21062D01*
X121062Y-19586D02*
X121120Y-19529D01*
G54D62*
X121120Y-17325D02*
X121120Y-19529D01*
X121120Y-19529D02*
X121120Y-21062D01*
X121120Y-21062D02*
X121161Y-21062D01*
X132923Y-22687D02*
X132923Y-22588D01*
X131397Y-21062D02*
X127677Y-21062D01*
X127677Y-21062D02*
X122834Y-21062D01*
X132923Y-22588D02*
X131397Y-21062D01*
X132923Y-22687D02*
X134744Y-24507D01*
X135396Y-25160D02*
X134744Y-24507D01*
X137285Y-25160D02*
X135396Y-25160D01*
X122834Y-21062D02*
X121161Y-21062D01*
X117002Y-21062D02*
X115829Y-21062D01*
X121161Y-21062D02*
X119980Y-21062D01*
X119980Y-21062D02*
X117002Y-21062D01*
X120545Y-14600D02*
X120545Y-15722D01*
X121120Y-16297D02*
X121120Y-17325D01*
X120545Y-15722D02*
X121120Y-16297D01*
G54D59*
X103346Y-22388D02*
X103792Y-22388D01*
X105732Y-17150D02*
X110385Y-17150D01*
X105708Y-17125D02*
X105732Y-17150D01*
X105708Y-20472D02*
X105708Y-17125D01*
X103792Y-22388D02*
X105708Y-20472D01*
X94870Y-28838D02*
X96338Y-27370D01*
X96338Y-27370D02*
X96338Y-23385D01*
X96338Y-23385D02*
X97335Y-22388D01*
X97335Y-22388D02*
X103346Y-22388D01*
X103346Y-22388D02*
X103384Y-22388D01*
G54D62*
X110385Y-17150D02*
X110385Y-16093D01*
X110858Y-14692D02*
X110950Y-14600D01*
X110858Y-15620D02*
X110858Y-14692D01*
X110385Y-16093D02*
X110858Y-15620D01*
G54D60*
X151425Y-19985D02*
X151447Y-20007D01*
X151447Y-20007D02*
X152057Y-20007D01*
X152590Y-20524D02*
X153137Y-21071D01*
X153137Y-21071D02*
X153137Y-21087D01*
X154132Y-22066D02*
X154145Y-22079D01*
X154145Y-22079D02*
X154145Y-22905D01*
X154145Y-23940D02*
X154145Y-24090D01*
X154145Y-24090D02*
X154345Y-24290D01*
X154115Y-25480D02*
X154145Y-25510D01*
X154145Y-25510D02*
X154145Y-26635D01*
X154115Y-27790D02*
X154145Y-27790D01*
X148076Y-33160D02*
X148926Y-33160D01*
X148926Y-33160D02*
X149424Y-32662D01*
X150084Y-31768D02*
X150552Y-31299D01*
X150552Y-31299D02*
X150854Y-31299D01*
X151954Y-31240D02*
X151954Y-31299D01*
X139288Y-19985D02*
X139303Y-20000D01*
X139303Y-20000D02*
X140050Y-20000D01*
X140740Y-19985D02*
X140755Y-20000D01*
X140755Y-20000D02*
X141440Y-20000D01*
X142130Y-19985D02*
X142145Y-20000D01*
X142145Y-20000D02*
X142960Y-20000D01*
X143710Y-19985D02*
X143725Y-20000D01*
X143725Y-20000D02*
X144450Y-20000D01*
X145470Y-19985D02*
X145485Y-20000D01*
X145485Y-20000D02*
X146205Y-20000D01*
X133320Y-14564D02*
X133320Y-15300D01*
X133320Y-16110D02*
X133320Y-15944D01*
X133320Y-15944D02*
X133320Y-16298D01*
X132900Y-18190D02*
X132914Y-18175D01*
X132914Y-18175D02*
X132914Y-18150D01*
X127875Y-15400D02*
X128380Y-15905D01*
X128380Y-15905D02*
X128380Y-15979D01*
X128360Y-16490D02*
X128470Y-16380D01*
X128470Y-16380D02*
X128470Y-16068D01*
G54D62*
X127875Y-14570D02*
X127875Y-15474D01*
X127875Y-15474D02*
X128470Y-16068D01*
X128470Y-16068D02*
X128470Y-17220D01*
G54D59*
X119445Y-23446D02*
X119444Y-23446D01*
X119693Y-23198D02*
X119445Y-23446D01*
X107562Y-26362D02*
X107589Y-26362D01*
X107589Y-26362D02*
X109515Y-24437D01*
X109515Y-24437D02*
X113736Y-24437D01*
X113736Y-24437D02*
X114413Y-23760D01*
X114413Y-23760D02*
X119130Y-23760D01*
X119130Y-23760D02*
X119444Y-23446D01*
G54D62*
X133320Y-15944D02*
X133320Y-14564D01*
X133320Y-16298D02*
X133320Y-15944D01*
X132545Y-17073D02*
X133320Y-16298D01*
X133425Y-18700D02*
X133425Y-18661D01*
X133425Y-18661D02*
X132914Y-18150D01*
X132914Y-18150D02*
X132480Y-17716D01*
X147285Y-33160D02*
X148926Y-33160D01*
X153149Y-31299D02*
X154145Y-30303D01*
X150787Y-31299D02*
X151954Y-31299D01*
X151954Y-31299D02*
X153149Y-31299D01*
X148926Y-33160D02*
X150787Y-31299D01*
G54D65*
X133425Y-18193D02*
X133425Y-17953D01*
X133425Y-17953D02*
X132545Y-17073D01*
X132545Y-17220D02*
X132545Y-17073D01*
G54D62*
X128470Y-17220D02*
X129780Y-17220D01*
X129780Y-17220D02*
X132545Y-17220D01*
G54D65*
X132545Y-17220D02*
X133330Y-17220D01*
X133330Y-17220D02*
X133350Y-17200D01*
X133320Y-16298D02*
X133320Y-17170D01*
X133320Y-17170D02*
X133425Y-17275D01*
X133425Y-17275D02*
X133425Y-18193D01*
X133425Y-18193D02*
X133425Y-18700D01*
X133425Y-18700D02*
X133425Y-18825D01*
G54D62*
X154145Y-22095D02*
X154145Y-23940D01*
X154145Y-23940D02*
X154145Y-27790D01*
X154145Y-27790D02*
X154145Y-30303D01*
X152050Y-20000D02*
X154145Y-22095D01*
X134600Y-20000D02*
X150690Y-20000D01*
X150690Y-20000D02*
X152050Y-20000D01*
X133425Y-18825D02*
X134600Y-20000D01*
G54D59*
X105074Y-28850D02*
X107562Y-26362D01*
X101425Y-28850D02*
X105074Y-28850D01*
X101078Y-29196D02*
X101425Y-28850D01*
X120147Y-31077D02*
X126452Y-31077D01*
X120120Y-31050D02*
X120147Y-31077D01*
X129927Y-31710D02*
X131614Y-30023D01*
X127085Y-31710D02*
X129927Y-31710D01*
X126452Y-31077D02*
X127085Y-31710D01*
X86578Y-25795D02*
X90988Y-25795D01*
X91696Y-26503D02*
X93429Y-26503D01*
X90988Y-25795D02*
X91696Y-26503D01*
X86618Y-25795D02*
X86578Y-25795D01*
X86578Y-25795D02*
X86342Y-25795D01*
X79019Y-25795D02*
X74492Y-25795D01*
X68114Y-25795D02*
X66106Y-25795D01*
X73350Y-25795D02*
X74492Y-25795D01*
X68114Y-25795D02*
X70476Y-25795D01*
X86342Y-25795D02*
X79019Y-25795D01*
X66106Y-25795D02*
X66106Y-26286D01*
X64807Y-25795D02*
X64807Y-26247D01*
X63822Y-25795D02*
X63822Y-26247D01*
X65437Y-25795D02*
X66106Y-25795D01*
X62078Y-25006D02*
X62207Y-25006D01*
X62996Y-25795D02*
X63822Y-25795D01*
X63822Y-25795D02*
X63940Y-25795D01*
X62207Y-25006D02*
X62996Y-25795D01*
X65437Y-25795D02*
X64807Y-25795D01*
X64807Y-25795D02*
X63940Y-25795D01*
G54D58*
X102042Y-39222D02*
X102042Y-39226D01*
X98202Y-39222D02*
X102042Y-39222D01*
X97910Y-38930D02*
X98202Y-39222D01*
X97910Y-37490D02*
X97910Y-38930D01*
X97905Y-37485D02*
X97910Y-37490D01*
X98389Y-33440D02*
X98389Y-33510D01*
X98389Y-33510D02*
X98384Y-33516D01*
X103874Y-39226D02*
X102042Y-39226D01*
X102042Y-39226D02*
X101948Y-39226D01*
X105600Y-37500D02*
X103874Y-39226D01*
G54D57*
X98232Y-34515D02*
X98251Y-34515D01*
X98389Y-34377D02*
X98389Y-33440D01*
X98389Y-33440D02*
X98389Y-33354D01*
X98251Y-34515D02*
X98389Y-34377D01*
X97940Y-32850D02*
X98271Y-33236D01*
X98271Y-33236D02*
X98389Y-33354D01*
X98232Y-34515D02*
X97838Y-34515D01*
X96732Y-34318D02*
X96992Y-34318D01*
X97228Y-34515D02*
X97838Y-34515D01*
X97208Y-34496D02*
X97228Y-34515D01*
X97169Y-34496D02*
X97208Y-34496D01*
X96992Y-34318D02*
X97169Y-34496D01*
X105972Y-34374D02*
X105972Y-34578D01*
X105972Y-34578D02*
X106421Y-35027D01*
X108468Y-32413D02*
X108566Y-32511D01*
X108566Y-32511D02*
X108566Y-33181D01*
X108566Y-33181D02*
X108307Y-33440D01*
X108307Y-33440D02*
X106169Y-33440D01*
X106169Y-33440D02*
X105972Y-33637D01*
X105972Y-33637D02*
X105972Y-34374D01*
X105972Y-34374D02*
X105972Y-34535D01*
X97838Y-34318D02*
X97454Y-34318D01*
X97313Y-34070D02*
X96890Y-33647D01*
X97313Y-34177D02*
X97313Y-34070D01*
X97454Y-34318D02*
X97313Y-34177D01*
G54D59*
X98973Y-35803D02*
X96100Y-35803D01*
X96100Y-35803D02*
X96099Y-35802D01*
X99917Y-35472D02*
X100874Y-35472D01*
X99586Y-35803D02*
X99917Y-35472D01*
X98973Y-35803D02*
X99586Y-35803D01*
X98507Y-35255D02*
X99385Y-35255D01*
X99807Y-34889D02*
X99807Y-34905D01*
X99751Y-34889D02*
X99807Y-34889D01*
X99385Y-35255D02*
X99751Y-34889D01*
G54D57*
X95988Y-35086D02*
X96157Y-35255D01*
X96157Y-35255D02*
X96118Y-35255D01*
X96736Y-34515D02*
X96165Y-34515D01*
X95988Y-35086D02*
X95818Y-35255D01*
X95988Y-34692D02*
X95988Y-35086D01*
X96165Y-34515D02*
X95988Y-34692D01*
G54D59*
X96118Y-35255D02*
X98507Y-35255D01*
X99807Y-34905D02*
X101267Y-34905D01*
X101267Y-34905D02*
X101555Y-35192D01*
X101555Y-35192D02*
X101555Y-35956D01*
X95033Y-35255D02*
X95818Y-35255D01*
X95818Y-35255D02*
X96118Y-35255D01*
X95033Y-35255D02*
X94773Y-35515D01*
G54D58*
X35475Y-47370D02*
X35850Y-47370D01*
X56854Y-59668D02*
X55871Y-58685D01*
X55869Y-58685D02*
X54201Y-57057D01*
X55871Y-58685D02*
X55869Y-58685D01*
X57000Y-61690D02*
X56973Y-61663D01*
X57000Y-61848D02*
X57000Y-61690D01*
X35850Y-47370D02*
X37695Y-49215D01*
X37695Y-49215D02*
X37695Y-51195D01*
X37695Y-51195D02*
X38055Y-51555D01*
X38055Y-51555D02*
X38640Y-51555D01*
X57000Y-62085D02*
X56991Y-62085D01*
X56991Y-62085D02*
X56866Y-61960D01*
X57000Y-61848D02*
X56979Y-61848D01*
X56979Y-61848D02*
X56866Y-61960D01*
X56866Y-61960D02*
X56862Y-61965D01*
X56063Y-61965D02*
X56862Y-61965D01*
X56862Y-61965D02*
X57000Y-61965D01*
X57000Y-61965D02*
X57000Y-61961D01*
X57000Y-62104D02*
X57000Y-62085D01*
X57000Y-62085D02*
X57000Y-61961D01*
X57000Y-61961D02*
X57000Y-61848D01*
G54D59*
X57000Y-62110D02*
X57000Y-62104D01*
X56820Y-63580D02*
X56242Y-63580D01*
X57000Y-63400D02*
X56820Y-63580D01*
X57000Y-62110D02*
X57000Y-63400D01*
G54D58*
X35475Y-48900D02*
X35908Y-48900D01*
X37397Y-52157D02*
X37947Y-52157D01*
X37185Y-51945D02*
X37397Y-52157D01*
X37185Y-50177D02*
X37185Y-51945D01*
X35908Y-48900D02*
X37185Y-50177D01*
X44259Y-63523D02*
X44259Y-52824D01*
X44259Y-52824D02*
X43860Y-52425D01*
X44259Y-63523D02*
X45540Y-63523D01*
X46755Y-63840D02*
X46770Y-63825D01*
X45857Y-63840D02*
X46755Y-63840D01*
X45540Y-63523D02*
X45857Y-63840D01*
X72820Y-61865D02*
X72820Y-61892D01*
X72820Y-61892D02*
X72888Y-61961D01*
X72605Y-60935D02*
X72605Y-61650D01*
X72605Y-61650D02*
X72820Y-61865D01*
X72888Y-62068D02*
X72888Y-61961D01*
X72888Y-62068D02*
X72888Y-63400D01*
X72888Y-61961D02*
X72984Y-61865D01*
X72820Y-61865D02*
X72984Y-61865D01*
X72984Y-61865D02*
X73448Y-61865D01*
X73448Y-61865D02*
X73529Y-61785D01*
G54D59*
X66904Y-15299D02*
X66904Y-14666D01*
X66904Y-14666D02*
X67261Y-14310D01*
X67261Y-14310D02*
X69681Y-14310D01*
X65326Y-15290D02*
X66895Y-15290D01*
X66895Y-15290D02*
X66904Y-15299D01*
X102214Y-26523D02*
X105258Y-26523D01*
X109536Y-22246D02*
X109886Y-22246D01*
X105258Y-26523D02*
X109536Y-22246D01*
X97224Y-28901D02*
X97267Y-28858D01*
X97267Y-28858D02*
X97267Y-27208D01*
X97267Y-27208D02*
X97952Y-26523D01*
X97952Y-26523D02*
X102214Y-26523D01*
X111209Y-23240D02*
X109600Y-23240D01*
X103928Y-27922D02*
X103928Y-28107D01*
X104685Y-27165D02*
X103928Y-27922D01*
X105675Y-27165D02*
X104685Y-27165D01*
X109600Y-23240D02*
X105675Y-27165D01*
X118677Y-23240D02*
X111209Y-23240D01*
X119201Y-22716D02*
X118677Y-23240D01*
X113129Y-26600D02*
X113129Y-25860D01*
X120037Y-23733D02*
X120672Y-23733D01*
X119416Y-24354D02*
X120037Y-23733D01*
X114636Y-24354D02*
X119416Y-24354D01*
X113129Y-25860D02*
X114636Y-24354D01*
X112362Y-28350D02*
X113129Y-27582D01*
X113129Y-27582D02*
X113129Y-26600D01*
X108622Y-28350D02*
X112362Y-28350D01*
X108157Y-28350D02*
X108622Y-28350D01*
X102531Y-33976D02*
X108157Y-28350D01*
X101539Y-33976D02*
X102531Y-33976D01*
X101527Y-33988D02*
X101539Y-33976D01*
G54D57*
X95867Y-34122D02*
X96401Y-34122D01*
X95834Y-34089D02*
X95867Y-34122D01*
X95832Y-34089D02*
X95834Y-34089D01*
X95691Y-33948D02*
X95832Y-34089D01*
X95691Y-33752D02*
X95691Y-33948D01*
X95900Y-33543D02*
X95691Y-33752D01*
X96736Y-34122D02*
X96401Y-34122D01*
X93809Y-17710D02*
X93809Y-16800D01*
X94019Y-17921D02*
X93809Y-17710D01*
X94019Y-18354D02*
X94019Y-17921D01*
X94334Y-18669D02*
X94019Y-18354D01*
X95555Y-18669D02*
X94334Y-18669D01*
X96421Y-19535D02*
X95555Y-18669D01*
X96421Y-21700D02*
X96421Y-19535D01*
X95633Y-22488D02*
X96421Y-21700D01*
X95633Y-23275D02*
X95633Y-22488D01*
X97838Y-34712D02*
X98488Y-34712D01*
X96933Y-21503D02*
X97287Y-21858D01*
X97287Y-21858D02*
X98940Y-21858D01*
X98940Y-21858D02*
X98980Y-21818D01*
X102838Y-27212D02*
X101814Y-28236D01*
X101814Y-28236D02*
X101303Y-28236D01*
X101303Y-28236D02*
X99728Y-29811D01*
X99728Y-29811D02*
X99728Y-33669D01*
X99728Y-33669D02*
X99374Y-34023D01*
X96933Y-21503D02*
X96933Y-20637D01*
X99334Y-34023D02*
X99374Y-34023D01*
X99019Y-34338D02*
X99334Y-34023D01*
X98862Y-34338D02*
X99019Y-34338D01*
X98488Y-34712D02*
X98862Y-34338D01*
X94309Y-16800D02*
X94309Y-17698D01*
X96933Y-19456D02*
X96933Y-20637D01*
X95830Y-18354D02*
X96933Y-19456D01*
X94767Y-18354D02*
X95830Y-18354D01*
X94492Y-18078D02*
X94767Y-18354D01*
X94492Y-17881D02*
X94492Y-18078D01*
X94309Y-17698D02*
X94492Y-17881D01*
G54D64*
X116697Y-25984D02*
X116697Y-28753D01*
X116697Y-28753D02*
X115850Y-29600D01*
X115850Y-29600D02*
X115850Y-41996D01*
X115850Y-41996D02*
X115850Y-42359D01*
X116795Y-27265D02*
X116795Y-41414D01*
X116795Y-41414D02*
X115850Y-42359D01*
X115850Y-42359D02*
X116158Y-42051D01*
G54D60*
X118120Y-16145D02*
X118400Y-15865D01*
X118400Y-15865D02*
X118400Y-15555D01*
G54D64*
X118400Y-14600D02*
X118400Y-16042D01*
X118400Y-16042D02*
X118140Y-16302D01*
X118140Y-16302D02*
X118140Y-18436D01*
G54D60*
X125470Y-15880D02*
X125730Y-15620D01*
G54D64*
X125730Y-14570D02*
X125730Y-15620D01*
X125730Y-15620D02*
X125470Y-15880D01*
X125470Y-15880D02*
X125470Y-17220D01*
G54D58*
X118157Y-42062D02*
X118849Y-42062D01*
X118849Y-42062D02*
X118860Y-42051D01*
X118167Y-42051D02*
X118860Y-42051D01*
X118157Y-42062D02*
X118167Y-42051D01*
X117354Y-25984D02*
X116090Y-25984D01*
X117400Y-26030D02*
X117354Y-25984D01*
G54D62*
X118860Y-42051D02*
X119416Y-42051D01*
X115511Y-42051D02*
X116158Y-42051D01*
X116158Y-42051D02*
X116710Y-42051D01*
X115551Y-25984D02*
X116697Y-25984D01*
X116697Y-25984D02*
X118110Y-25984D01*
X120275Y-42051D02*
X117509Y-42051D01*
X117509Y-42051D02*
X115905Y-42051D01*
X116795Y-27545D02*
X116795Y-27265D01*
X116795Y-27265D02*
X116795Y-26075D01*
X114975Y-29365D02*
X116795Y-27545D01*
X114975Y-41121D02*
X114975Y-29365D01*
X115905Y-42051D02*
X114975Y-41121D01*
G54D59*
X112870Y-46948D02*
X116043Y-46948D01*
X118121Y-48129D02*
X118128Y-48137D01*
X117224Y-48129D02*
X118121Y-48129D01*
X116043Y-46948D02*
X117224Y-48129D01*
X82877Y-20598D02*
X82877Y-20874D01*
X82877Y-20874D02*
X82956Y-20952D01*
X82681Y-20952D02*
X82956Y-20952D01*
G54D58*
X82877Y-20755D02*
X82877Y-20874D01*
X82877Y-20874D02*
X82956Y-20952D01*
G54D59*
X83204Y-21200D02*
X83625Y-21200D01*
X82956Y-20952D02*
X83204Y-21200D01*
X82877Y-19929D02*
X82877Y-20598D01*
X82877Y-20598D02*
X82877Y-20755D01*
X81921Y-20952D02*
X81850Y-21023D01*
X82681Y-20952D02*
X81921Y-20952D01*
G54D58*
X82877Y-20755D02*
X82681Y-20952D01*
X22872Y-40750D02*
X23360Y-40750D01*
X22484Y-40362D02*
X22872Y-40750D01*
X22484Y-38384D02*
X22484Y-40362D01*
X22449Y-38349D02*
X22484Y-38384D01*
X22644Y-38349D02*
X22449Y-38349D01*
X22827Y-38532D02*
X22644Y-38349D01*
X32763Y-38790D02*
X31032Y-38790D01*
X32858Y-38885D02*
X32763Y-38790D01*
X37804Y-34966D02*
X38006Y-34966D01*
X38006Y-34966D02*
X38125Y-35085D01*
X38125Y-35085D02*
X38125Y-35759D01*
X38125Y-35759D02*
X38162Y-35796D01*
X38983Y-28385D02*
X39219Y-28149D01*
X39219Y-28149D02*
X39219Y-28008D01*
X39219Y-28008D02*
X39257Y-27970D01*
X39257Y-27970D02*
X39435Y-27970D01*
X42865Y-36050D02*
X42865Y-36361D01*
X38906Y-36540D02*
X38162Y-35796D01*
X42686Y-36540D02*
X38906Y-36540D01*
X42865Y-36361D02*
X42686Y-36540D01*
X42865Y-36050D02*
X43600Y-36050D01*
X43830Y-36280D02*
X43830Y-36655D01*
X43600Y-36050D02*
X43830Y-36280D01*
G54D60*
X125670Y-25984D02*
X126765Y-25984D01*
X127770Y-25984D02*
X128205Y-25549D01*
X128205Y-25549D02*
X128205Y-25125D01*
X129090Y-24690D02*
X129262Y-24518D01*
X129262Y-24518D02*
X129262Y-24068D01*
X120410Y-28740D02*
X120462Y-28688D01*
X120462Y-28688D02*
X121220Y-28688D01*
X121910Y-28740D02*
X122320Y-28330D01*
X122320Y-28330D02*
X122320Y-28250D01*
X122251Y-27748D02*
X122759Y-27241D01*
X122759Y-27241D02*
X122759Y-27149D01*
G54D64*
X124015Y-25984D02*
X123923Y-25984D01*
X123923Y-25984D02*
X122320Y-27588D01*
X122320Y-27588D02*
X122320Y-28534D01*
X122320Y-28534D02*
X122166Y-28688D01*
X122166Y-28688D02*
X119548Y-28688D01*
X124015Y-25984D02*
X127345Y-25984D01*
X127345Y-25984D02*
X129262Y-24068D01*
X129262Y-24068D02*
X130680Y-24068D01*
G54D60*
X135465Y-14564D02*
X135465Y-15209D01*
X135465Y-15800D02*
X135900Y-16235D01*
X135900Y-16235D02*
X135900Y-16320D01*
G54D64*
X135465Y-14564D02*
X135465Y-15885D01*
X135465Y-15885D02*
X136350Y-16770D01*
X136350Y-16770D02*
X136350Y-17700D01*
X136350Y-17700D02*
X136245Y-17805D01*
G54D60*
X121260Y-37170D02*
X121890Y-37170D01*
X121890Y-37170D02*
X122056Y-37004D01*
X122251Y-36278D02*
X121737Y-35763D01*
X121737Y-35763D02*
X121737Y-35618D01*
X122251Y-35068D02*
X121855Y-34672D01*
X121855Y-34672D02*
X121737Y-34672D01*
X122251Y-34166D02*
X121737Y-33651D01*
X121737Y-33651D02*
X121737Y-33638D01*
X122251Y-33000D02*
X122472Y-33000D01*
G54D65*
X121260Y-37170D02*
X121260Y-36905D01*
X121260Y-36905D02*
X121737Y-36428D01*
X121737Y-36428D02*
X121737Y-32322D01*
X121737Y-32322D02*
X121755Y-32340D01*
X121755Y-32340D02*
X122520Y-32340D01*
X122520Y-32340D02*
X122472Y-32388D01*
X122472Y-32388D02*
X122472Y-33000D01*
X122472Y-33000D02*
X122472Y-35073D01*
X122472Y-35073D02*
X122460Y-35085D01*
X122460Y-35085D02*
X122460Y-36645D01*
X122460Y-36645D02*
X121560Y-37545D01*
X121560Y-37545D02*
X121560Y-37470D01*
X121560Y-37470D02*
X121260Y-37170D01*
G54D60*
X120275Y-39051D02*
X120275Y-37700D01*
X120275Y-37700D02*
X120806Y-37170D01*
X120806Y-37170D02*
X121260Y-37170D01*
G54D58*
X46866Y-37869D02*
X46869Y-37866D01*
X46579Y-37869D02*
X46866Y-37869D01*
X46396Y-38052D02*
X46579Y-37869D01*
X47052Y-37646D02*
X47052Y-37683D01*
X47052Y-37683D02*
X46869Y-37866D01*
X63035Y-44267D02*
X63188Y-44267D01*
X63700Y-55450D02*
X63900Y-55650D01*
X63700Y-44779D02*
X63700Y-55450D01*
X63188Y-44267D02*
X63700Y-44779D01*
X66870Y-61308D02*
X66870Y-63090D01*
X66825Y-61263D02*
X66870Y-61308D01*
X62169Y-44267D02*
X63035Y-44267D01*
X62150Y-44286D02*
X62169Y-44267D01*
X46470Y-37338D02*
X46952Y-37338D01*
X47052Y-37438D02*
X47052Y-37646D01*
X46952Y-37338D02*
X47052Y-37438D01*
G54D65*
X67752Y-63090D02*
X67752Y-63419D01*
X68096Y-63763D02*
X68096Y-63434D01*
X67752Y-63419D02*
X68096Y-63763D01*
G54D61*
X67752Y-63090D02*
X68201Y-63090D01*
X68201Y-63090D02*
X68511Y-63400D01*
G54D62*
X66110Y-63090D02*
X66870Y-63090D01*
G54D60*
X65463Y-63052D02*
X66072Y-63052D01*
X66072Y-63052D02*
X66110Y-63090D01*
G54D62*
X66870Y-63090D02*
X67752Y-63090D01*
X68096Y-63434D02*
X67823Y-63161D01*
G54D58*
X54860Y-20178D02*
X55074Y-19964D01*
X54860Y-21120D02*
X54860Y-20178D01*
X54600Y-21380D02*
X54860Y-21120D01*
X50630Y-21380D02*
X54600Y-21380D01*
X50610Y-21360D02*
X50630Y-21380D01*
X41486Y-26306D02*
X41486Y-25434D01*
X62165Y-18765D02*
X63400Y-17530D01*
X56453Y-18765D02*
X62165Y-18765D01*
X55254Y-19964D02*
X56453Y-18765D01*
X55074Y-19964D02*
X55254Y-19964D01*
X41486Y-25434D02*
X41783Y-25137D01*
G54D61*
X75228Y-15846D02*
X75748Y-15846D01*
G54D62*
X74450Y-14310D02*
X74938Y-15846D01*
X74938Y-15846D02*
X75228Y-15846D01*
X74058Y-14310D02*
X74450Y-14310D01*
G54D61*
X75748Y-15846D02*
X75808Y-15906D01*
G54D58*
X101836Y-38451D02*
X101836Y-38451D01*
X101486Y-38801D02*
X101836Y-38451D01*
X101261Y-38801D02*
X101486Y-38801D01*
X101235Y-38775D02*
X101261Y-38801D01*
X101836Y-38451D02*
X102759Y-37527D01*
G54D60*
X135669Y-58303D02*
X136416Y-57555D01*
X136416Y-57555D02*
X136416Y-57458D01*
X138578Y-57047D02*
X138610Y-57015D01*
X138610Y-57015D02*
X141020Y-57015D01*
X144694Y-57047D02*
X144891Y-56849D01*
X144891Y-56849D02*
X144891Y-55395D01*
X147326Y-54952D02*
X147330Y-54956D01*
X147330Y-54956D02*
X150082Y-54956D01*
X153214Y-54950D02*
X153217Y-54948D01*
X153217Y-54948D02*
X154765Y-54948D01*
G54D67*
X143240Y-57047D02*
X145275Y-57047D01*
X145275Y-57047D02*
X145960Y-57732D01*
X147026Y-54845D02*
X147026Y-55176D01*
X147026Y-55176D02*
X145960Y-56241D01*
X145960Y-56241D02*
X145960Y-57732D01*
X156771Y-54948D02*
X150090Y-54948D01*
X135669Y-58205D02*
X135669Y-59688D01*
X136860Y-57015D02*
X135669Y-58205D01*
X143272Y-57015D02*
X136860Y-57015D01*
X145442Y-54845D02*
X143272Y-57015D01*
X149986Y-54845D02*
X147026Y-54845D01*
X147026Y-54845D02*
X145442Y-54845D01*
X150090Y-54948D02*
X149986Y-54845D01*
G54D60*
X130748Y-61600D02*
X130748Y-61836D01*
X131775Y-62893D02*
X131804Y-62865D01*
X131804Y-62865D02*
X133716Y-62865D01*
X137038Y-62893D02*
X137066Y-62865D01*
X137066Y-62865D02*
X139510Y-62865D01*
X143240Y-62952D02*
X148227Y-62952D01*
X151160Y-62952D02*
X154260Y-62952D01*
G54D65*
X146984Y-61551D02*
X146984Y-61709D01*
X146984Y-61709D02*
X148227Y-62952D01*
X146984Y-61551D02*
X146978Y-61551D01*
X146978Y-61551D02*
X145577Y-62952D01*
G54D67*
X143240Y-62952D02*
X145577Y-62952D01*
X145577Y-62952D02*
X148227Y-62952D01*
X148227Y-62952D02*
X156767Y-62952D01*
X156767Y-62952D02*
X156771Y-62948D01*
X130748Y-59688D02*
X130748Y-61600D01*
X130748Y-61600D02*
X130748Y-61836D01*
X130748Y-61836D02*
X131776Y-62865D01*
X131776Y-62865D02*
X143152Y-62865D01*
X143152Y-62865D02*
X143240Y-62952D01*
G54D58*
X87799Y-23504D02*
X87799Y-23276D01*
X87801Y-23506D02*
X87799Y-23504D01*
X87799Y-22863D02*
X87799Y-23276D01*
X87118Y-45267D02*
X90255Y-45267D01*
X90255Y-45267D02*
X90791Y-44732D01*
X90791Y-44732D02*
X90791Y-33629D01*
X87287Y-22863D02*
X87799Y-22863D01*
X87799Y-22863D02*
X88311Y-22863D01*
X42405Y-24850D02*
X42405Y-23947D01*
X43448Y-22905D02*
X44370Y-22905D01*
X42405Y-23947D02*
X43448Y-22905D01*
X44618Y-33451D02*
X44865Y-33451D01*
X45043Y-33787D02*
X45437Y-33787D01*
X44964Y-33708D02*
X45043Y-33787D01*
X44964Y-33551D02*
X44964Y-33708D01*
X44865Y-33451D02*
X44964Y-33551D01*
X42051Y-32468D02*
X42051Y-32606D01*
X42051Y-32606D02*
X42090Y-32645D01*
X42208Y-32251D02*
X42208Y-32527D01*
X42090Y-33294D02*
X42090Y-32645D01*
X42090Y-32645D02*
X42208Y-32527D01*
X42208Y-32527D02*
X42267Y-32468D01*
X42956Y-24653D02*
X42956Y-24692D01*
X42956Y-24692D02*
X43074Y-24811D01*
X43074Y-25774D02*
X43074Y-24811D01*
X43074Y-24811D02*
X43232Y-24653D01*
X42425Y-32468D02*
X42267Y-32468D01*
X42267Y-32468D02*
X42051Y-32468D01*
X42051Y-32468D02*
X41874Y-32468D01*
X41874Y-32468D02*
X41539Y-32133D01*
X41539Y-32133D02*
X41539Y-30677D01*
X41539Y-30677D02*
X42405Y-29811D01*
X42405Y-29811D02*
X42405Y-24850D01*
X42405Y-24850D02*
X42602Y-24653D01*
X42602Y-24653D02*
X42956Y-24653D01*
X42956Y-24653D02*
X43232Y-24653D01*
X44787Y-32862D02*
X44618Y-32693D01*
X44618Y-32693D02*
X44618Y-32654D01*
X44728Y-32921D02*
X44728Y-32881D01*
X44688Y-32842D02*
X44688Y-32763D01*
X44728Y-32881D02*
X44688Y-32842D01*
X44618Y-32763D02*
X44688Y-32763D01*
X44688Y-32763D02*
X44688Y-32763D01*
X44688Y-32763D02*
X44787Y-32862D01*
X42208Y-31997D02*
X42208Y-32251D01*
X42208Y-32251D02*
X42208Y-32251D01*
X42208Y-32251D02*
X42425Y-32468D01*
X42425Y-32468D02*
X42444Y-32488D01*
X42444Y-32488D02*
X44452Y-32488D01*
X44452Y-32488D02*
X44618Y-32654D01*
X44618Y-32654D02*
X44618Y-32763D01*
X44618Y-32763D02*
X44618Y-33031D01*
X44618Y-33451D02*
X44618Y-33031D01*
X44943Y-32705D02*
X45437Y-32705D01*
X44787Y-32862D02*
X44943Y-32705D01*
X44618Y-33031D02*
X44728Y-32921D01*
X44728Y-32921D02*
X44787Y-32862D01*
G54D60*
X24177Y-60882D02*
X24177Y-59594D01*
X24244Y-60949D02*
X24177Y-60882D01*
X24180Y-59730D02*
X24177Y-59732D01*
X24177Y-59732D02*
X24177Y-60312D01*
X24800Y-58800D02*
X25905Y-58800D01*
X50644Y-14253D02*
X51666Y-14253D01*
X51666Y-14253D02*
X51670Y-14250D01*
X52929Y-14260D02*
X52937Y-14253D01*
X52937Y-14253D02*
X54200Y-14253D01*
X55179Y-14268D02*
X55194Y-14253D01*
X55194Y-14253D02*
X56160Y-14253D01*
X59918Y-22101D02*
X58236Y-22101D01*
X58236Y-22101D02*
X57870Y-21735D01*
X58960Y-22066D02*
X58960Y-22061D01*
G54D59*
X13151Y-29152D02*
X13151Y-31050D01*
X13149Y-29150D02*
X13151Y-29152D01*
X13151Y-25002D02*
X13151Y-27100D01*
X13149Y-25000D02*
X13151Y-25002D01*
X13151Y-21121D02*
X13151Y-22850D01*
X13149Y-21119D02*
X13151Y-21121D01*
X13149Y-32850D02*
X13151Y-32852D01*
X13151Y-32852D02*
X13151Y-35050D01*
X13149Y-37200D02*
X13151Y-37202D01*
X13151Y-37202D02*
X13151Y-40305D01*
X13149Y-41998D02*
X13151Y-42000D01*
X13151Y-42000D02*
X13151Y-43900D01*
X13149Y-46500D02*
X13151Y-46502D01*
X13151Y-46502D02*
X13151Y-49500D01*
X13149Y-51840D02*
X13151Y-51842D01*
X13151Y-51842D02*
X13151Y-55704D01*
X13149Y-56830D02*
X14239Y-57920D01*
X14239Y-57920D02*
X14272Y-57920D01*
X20788Y-58985D02*
X23567Y-58985D01*
X20603Y-58800D02*
X20788Y-58985D01*
X15119Y-58800D02*
X18013Y-58800D01*
G54D60*
X13151Y-41070D02*
X13275Y-41070D01*
X13275Y-41070D02*
X14040Y-40305D01*
X14040Y-40305D02*
X14040Y-40230D01*
X14040Y-40230D02*
X13151Y-39341D01*
G54D65*
X59929Y-61444D02*
X59929Y-62899D01*
X59929Y-62899D02*
X60632Y-63602D01*
X60632Y-63602D02*
X61183Y-63602D01*
X61183Y-63602D02*
X61635Y-63150D01*
X59160Y-59230D02*
X59185Y-59230D01*
X59185Y-59230D02*
X62355Y-62400D01*
X62355Y-62400D02*
X63016Y-62400D01*
X63016Y-62400D02*
X63504Y-62888D01*
X60930Y-52155D02*
X60930Y-47882D01*
X60930Y-47882D02*
X61215Y-47596D01*
X61215Y-47596D02*
X61402Y-47596D01*
X60560Y-47230D02*
X60560Y-50930D01*
X60560Y-50930D02*
X61117Y-51487D01*
X61402Y-51772D02*
X61402Y-47596D01*
X61402Y-47596D02*
X61402Y-47783D01*
X61402Y-47783D02*
X60849Y-47230D01*
X60849Y-47230D02*
X60560Y-47230D01*
X60560Y-47230D02*
X60340Y-47010D01*
X59812Y-51487D02*
X61117Y-51487D01*
X61117Y-51487D02*
X61402Y-51772D01*
X61402Y-51772D02*
X61768Y-52138D01*
X61768Y-52138D02*
X61768Y-52155D01*
X61768Y-52155D02*
X61768Y-52155D01*
X61768Y-52155D02*
X60930Y-52155D01*
X60930Y-52155D02*
X59775Y-52155D01*
X59775Y-52155D02*
X58765Y-53165D01*
X58150Y-53165D02*
X58150Y-53150D01*
X58150Y-53150D02*
X59812Y-51487D01*
X59812Y-51487D02*
X59884Y-51416D01*
X59884Y-51416D02*
X59884Y-45534D01*
X60218Y-55523D02*
X60218Y-54128D01*
X60218Y-54128D02*
X60075Y-53985D01*
X59640Y-54540D02*
X60675Y-54540D01*
X60675Y-54540D02*
X61050Y-54165D01*
X61050Y-54165D02*
X61050Y-54692D01*
X60510Y-53165D02*
X60510Y-55232D01*
X60510Y-55232D02*
X60647Y-55095D01*
X60647Y-55095D02*
X61040Y-55095D01*
X59640Y-53165D02*
X59640Y-54540D01*
X59640Y-54540D02*
X59640Y-56060D01*
X59640Y-56060D02*
X59661Y-56081D01*
X61040Y-56010D02*
X61040Y-55095D01*
X61040Y-55095D02*
X61040Y-54702D01*
X59661Y-56559D02*
X59661Y-56081D01*
X59661Y-56081D02*
X60218Y-55523D01*
X60218Y-55523D02*
X61040Y-54702D01*
X61040Y-54702D02*
X61050Y-54692D01*
X61050Y-54692D02*
X61515Y-54226D01*
X61515Y-53165D02*
X61515Y-54226D01*
X61515Y-54226D02*
X61515Y-55289D01*
X61515Y-55289D02*
X62236Y-56010D01*
X62236Y-56010D02*
X62573Y-56010D01*
X61768Y-47418D02*
X61768Y-52155D01*
X61768Y-52155D02*
X61768Y-52912D01*
X61768Y-52912D02*
X61515Y-53165D01*
G54D64*
X50644Y-14253D02*
X56895Y-14253D01*
X56895Y-14253D02*
X56945Y-14203D01*
G54D59*
X64562Y-14513D02*
X64562Y-15276D01*
X64562Y-15276D02*
X64576Y-15290D01*
G54D60*
X56945Y-14203D02*
X64443Y-14203D01*
X64443Y-14203D02*
X64562Y-14322D01*
X64562Y-14322D02*
X64562Y-14513D01*
X78619Y-15854D02*
X78620Y-15854D01*
X78620Y-15854D02*
X78620Y-15832D01*
X80262Y-19137D02*
X80262Y-18440D01*
G54D64*
X80262Y-17064D02*
X80262Y-18000D01*
X80262Y-18000D02*
X80262Y-18527D01*
X80262Y-18527D02*
X80220Y-18570D01*
X80220Y-18570D02*
X80220Y-19650D01*
G54D58*
X50229Y-31605D02*
X50139Y-31695D01*
X50238Y-31605D02*
X50229Y-31605D01*
X50229Y-31605D02*
X50139Y-31605D01*
X50139Y-31605D02*
X50055Y-31689D01*
X50238Y-31593D02*
X50238Y-31605D01*
X50238Y-31605D02*
X50238Y-32111D01*
X49838Y-31999D02*
X49838Y-31888D01*
X49838Y-31888D02*
X49918Y-31808D01*
X49763Y-31871D02*
X49885Y-31871D01*
X49885Y-31871D02*
X49936Y-31922D01*
X49635Y-31999D02*
X49838Y-31999D01*
X49838Y-31999D02*
X50126Y-31999D01*
X50126Y-31999D02*
X50238Y-32111D01*
G54D59*
X24360Y-39750D02*
X24360Y-39109D01*
X24360Y-39109D02*
X25158Y-38311D01*
X25158Y-38311D02*
X25158Y-37818D01*
X25158Y-37818D02*
X25260Y-37716D01*
G54D58*
X24360Y-39750D02*
X25360Y-40750D01*
X25501Y-42742D02*
X25854Y-43095D01*
X25854Y-43095D02*
X26536Y-43095D01*
X26536Y-43095D02*
X26554Y-43113D01*
G54D60*
X20616Y-41274D02*
X20290Y-41600D01*
G54D65*
X20376Y-40838D02*
X20887Y-40327D01*
X20887Y-40327D02*
X20909Y-40305D01*
X20290Y-40838D02*
X20376Y-40838D01*
G54D66*
X20909Y-40305D02*
X21120Y-40305D01*
X20290Y-40838D02*
X20290Y-41600D01*
X20290Y-41600D02*
X20290Y-42039D01*
X19710Y-40305D02*
X20909Y-40305D01*
X21120Y-40305D02*
X21735Y-39690D01*
X21735Y-39690D02*
X21735Y-38715D01*
G54D64*
X13151Y-55704D02*
X13151Y-56799D01*
X13151Y-40305D02*
X13151Y-41070D01*
X13151Y-41070D02*
X13151Y-53050D01*
X13151Y-53050D02*
X13151Y-55704D01*
G54D58*
X20377Y-42215D02*
X20377Y-42257D01*
X20355Y-42279D02*
X20355Y-42360D01*
X20377Y-42257D02*
X20355Y-42279D01*
X20290Y-42039D02*
X20317Y-42039D01*
X20317Y-42039D02*
X20493Y-42215D01*
X20534Y-42215D02*
X20493Y-42215D01*
X20493Y-42215D02*
X20377Y-42215D01*
X20377Y-42215D02*
X20290Y-42128D01*
G54D66*
X13151Y-40305D02*
X14040Y-40305D01*
X14040Y-40305D02*
X19710Y-40305D01*
X19710Y-40305D02*
X19765Y-40305D01*
X20290Y-40830D02*
X20290Y-40838D01*
X19765Y-40305D02*
X20290Y-40830D01*
G54D58*
X20290Y-42039D02*
X20290Y-42128D01*
X20290Y-42128D02*
X20290Y-42425D01*
X20534Y-42215D02*
X20500Y-42215D01*
X20500Y-42215D02*
X20355Y-42360D01*
X20355Y-42360D02*
X20290Y-42425D01*
X20290Y-42425D02*
X20290Y-44993D01*
G54D64*
X13151Y-33390D02*
X13151Y-39341D01*
X13151Y-39341D02*
X13151Y-40305D01*
G54D66*
X21735Y-38715D02*
X21735Y-37800D01*
G54D58*
X20290Y-44993D02*
X20512Y-45215D01*
G54D64*
X13746Y-32480D02*
X13130Y-33096D01*
X13130Y-33390D02*
X13151Y-33390D01*
X13130Y-33096D02*
X13130Y-33390D01*
X13151Y-31885D02*
X13151Y-33390D01*
X13151Y-19204D02*
X13151Y-31885D01*
G54D66*
X21735Y-37800D02*
X21735Y-36085D01*
G54D64*
X13151Y-31885D02*
X13746Y-32480D01*
X13721Y-18633D02*
X13151Y-19204D01*
G54D66*
X21735Y-36085D02*
X22592Y-35227D01*
G54D59*
X22675Y-35310D02*
X22592Y-35227D01*
X23100Y-34720D02*
X23100Y-34716D01*
X23100Y-34716D02*
X23363Y-34453D01*
X23012Y-34807D02*
X23100Y-34720D01*
G54D66*
X22592Y-35227D02*
X23012Y-34807D01*
X23012Y-34807D02*
X23170Y-34650D01*
X26370Y-30980D02*
X26470Y-30880D01*
X26470Y-30880D02*
X26470Y-30610D01*
G54D59*
X31551Y-19165D02*
X31586Y-19165D01*
X31586Y-19165D02*
X31789Y-18962D01*
X31789Y-18801D02*
X31789Y-18962D01*
X31850Y-18740D02*
X31789Y-18801D01*
X31789Y-18962D02*
X31789Y-19309D01*
X31789Y-19309D02*
X31767Y-19330D01*
X31767Y-19330D02*
X31716Y-19330D01*
X31716Y-19330D02*
X31551Y-19165D01*
X31551Y-19165D02*
X31531Y-19145D01*
X30960Y-19145D02*
X31531Y-19145D01*
X30636Y-19469D02*
X30960Y-19145D01*
X54425Y-37971D02*
X54425Y-38989D01*
X54425Y-38989D02*
X54438Y-39002D01*
X54425Y-38129D02*
X54425Y-37971D01*
X54425Y-37971D02*
X54425Y-36843D01*
X54425Y-36843D02*
X54253Y-36671D01*
G54D61*
X57183Y-28506D02*
X57183Y-28553D01*
X57183Y-28553D02*
X57870Y-29240D01*
X57183Y-28506D02*
X57203Y-28506D01*
X57203Y-28506D02*
X57870Y-27840D01*
X57078Y-25006D02*
X57115Y-25006D01*
X57115Y-25006D02*
X57870Y-25761D01*
X57078Y-25006D02*
X57103Y-25006D01*
X57103Y-25006D02*
X57870Y-24240D01*
G54D62*
X57870Y-27840D02*
X57870Y-25761D01*
X59884Y-34410D02*
X59884Y-32296D01*
X57870Y-30282D02*
X57870Y-29240D01*
X59884Y-32296D02*
X57870Y-30282D01*
X57870Y-29240D02*
X57870Y-27840D01*
X57870Y-25761D02*
X57870Y-24240D01*
X57870Y-24240D02*
X57870Y-21735D01*
X58196Y-22061D02*
X58960Y-22061D01*
X58960Y-22061D02*
X59958Y-22061D01*
X57870Y-21735D02*
X58196Y-22061D01*
X62986Y-22061D02*
X59958Y-22061D01*
X59958Y-22061D02*
X59918Y-22101D01*
X59983Y-22036D02*
X61008Y-22036D01*
X59918Y-22101D02*
X59983Y-22036D01*
G54D60*
X58707Y-37396D02*
X59884Y-37396D01*
X59884Y-37396D02*
X59884Y-37328D01*
X58648Y-37396D02*
X58707Y-37396D01*
X58707Y-37396D02*
X59177Y-37396D01*
G54D65*
X58120Y-33511D02*
X59363Y-33511D01*
X59363Y-33511D02*
X59884Y-32990D01*
G54D62*
X59884Y-42385D02*
X59884Y-37328D01*
X59884Y-37328D02*
X59884Y-34410D01*
X59884Y-34410D02*
X59884Y-32990D01*
G54D58*
X54289Y-38206D02*
X54349Y-38206D01*
X54349Y-38206D02*
X54425Y-38129D01*
X52770Y-38206D02*
X54289Y-38206D01*
X34832Y-43757D02*
X34832Y-45192D01*
X34832Y-45192D02*
X34640Y-45384D01*
X34640Y-45384D02*
X34416Y-45384D01*
X34272Y-45384D02*
X34416Y-45384D01*
X34262Y-45394D02*
X34272Y-45384D01*
X33450Y-43183D02*
X34258Y-43183D01*
X34258Y-43183D02*
X34832Y-43757D01*
X33373Y-45395D02*
X33381Y-45387D01*
X33373Y-45395D02*
X32621Y-45395D01*
G54D59*
X49350Y-46400D02*
X49824Y-46400D01*
X49992Y-46568D02*
X49992Y-46712D01*
X49824Y-46400D02*
X49992Y-46568D01*
X49992Y-46712D02*
X49992Y-50638D01*
G54D58*
X41136Y-33431D02*
X41136Y-34344D01*
X43052Y-29124D02*
X43074Y-29124D01*
X46263Y-27566D02*
X46263Y-27448D01*
X46263Y-27448D02*
X46185Y-27370D01*
X46185Y-27370D02*
X46185Y-27291D01*
X46149Y-27334D02*
X46342Y-27334D01*
X46185Y-27370D02*
X46149Y-27334D01*
X46185Y-27291D02*
X46342Y-27133D01*
X45339Y-24546D02*
X46239Y-24546D01*
X46239Y-24546D02*
X46343Y-24650D01*
X45626Y-35400D02*
X45626Y-35864D01*
X45626Y-35864D02*
X45619Y-35871D01*
X49500Y-23966D02*
X49500Y-21142D01*
X51568Y-19074D02*
X54428Y-19074D01*
X49500Y-21142D02*
X51568Y-19074D01*
X44611Y-36683D02*
X44611Y-35511D01*
X44611Y-35511D02*
X44500Y-35400D01*
X40615Y-31878D02*
X40615Y-31900D01*
X41136Y-32421D02*
X41136Y-33431D01*
X40615Y-31900D02*
X41136Y-32421D01*
X42490Y-36050D02*
X42490Y-35572D01*
X46205Y-35284D02*
X46205Y-35259D01*
X46205Y-35259D02*
X46205Y-34811D01*
X46090Y-35400D02*
X46205Y-35284D01*
X42662Y-35400D02*
X44500Y-35400D01*
X44500Y-35400D02*
X45626Y-35400D01*
X45626Y-35400D02*
X46090Y-35400D01*
X42490Y-35572D02*
X42662Y-35400D01*
X39810Y-27636D02*
X39810Y-26494D01*
X39312Y-18102D02*
X36883Y-18102D01*
X39851Y-18641D02*
X39312Y-18102D01*
X39851Y-25014D02*
X39851Y-18641D01*
X40487Y-25650D02*
X39851Y-25014D01*
X39810Y-26494D02*
X39884Y-26420D01*
X46058Y-30309D02*
X46058Y-30988D01*
X47347Y-32533D02*
X47347Y-32645D01*
X46908Y-32094D02*
X47347Y-32533D01*
X46908Y-31838D02*
X46908Y-32094D01*
X46058Y-30988D02*
X46908Y-31838D01*
X39810Y-27970D02*
X39810Y-27636D01*
X39810Y-27636D02*
X39810Y-27618D01*
X40860Y-29925D02*
X41310Y-29925D01*
X40676Y-29741D02*
X40860Y-29925D01*
X40676Y-27684D02*
X40676Y-29741D01*
X40478Y-27486D02*
X40676Y-27684D01*
X39942Y-27486D02*
X40478Y-27486D01*
X39810Y-27618D02*
X39942Y-27486D01*
X39045Y-30070D02*
X39045Y-31462D01*
X40615Y-31885D02*
X40615Y-31878D01*
X40615Y-31878D02*
X40615Y-31390D01*
X40433Y-32067D02*
X40615Y-31885D01*
X39650Y-32067D02*
X40433Y-32067D01*
X39045Y-31462D02*
X39650Y-32067D01*
X40635Y-30590D02*
X40635Y-31370D01*
X40635Y-31370D02*
X40615Y-31390D01*
X40635Y-30590D02*
X40993Y-30590D01*
X41310Y-30273D02*
X41310Y-29925D01*
X40993Y-30590D02*
X41310Y-30273D01*
G54D59*
X47603Y-21646D02*
X47603Y-22070D01*
X47603Y-22070D02*
X47603Y-22511D01*
G54D58*
X46349Y-23215D02*
X46349Y-23090D01*
X46343Y-23221D02*
X46349Y-23215D01*
X46343Y-23436D02*
X46343Y-24650D01*
X46343Y-23436D02*
X46343Y-23221D01*
X47369Y-22070D02*
X47603Y-22070D01*
X46349Y-23090D02*
X47369Y-22070D01*
X46343Y-24650D02*
X46343Y-24790D01*
X46343Y-24790D02*
X46343Y-26276D01*
X46263Y-27566D02*
X46421Y-27409D01*
X46342Y-27334D02*
X46342Y-27488D01*
X46342Y-27488D02*
X46263Y-27566D01*
X46263Y-29102D02*
X46263Y-27566D01*
X46342Y-27334D02*
X46342Y-27334D01*
X46342Y-27334D02*
X46342Y-27133D01*
X46342Y-27133D02*
X46342Y-27113D01*
X46342Y-27113D02*
X46343Y-27112D01*
G54D59*
X46343Y-26276D02*
X46343Y-27112D01*
X46343Y-27112D02*
X46565Y-27334D01*
X46343Y-26276D02*
X46343Y-26291D01*
G54D58*
X46421Y-27409D02*
X46490Y-27409D01*
X46490Y-27409D02*
X46565Y-27334D01*
X46263Y-29850D02*
X46263Y-29102D01*
X46342Y-27334D02*
X46565Y-27334D01*
G54D62*
X62008Y-22026D02*
X62043Y-22061D01*
X62043Y-22061D02*
X62986Y-22061D01*
X62986Y-22061D02*
X67643Y-22061D01*
X58400Y-41596D02*
X59493Y-41596D01*
X59493Y-41596D02*
X59884Y-41206D01*
X62573Y-54714D02*
X62573Y-48223D01*
X62573Y-48223D02*
X61768Y-47418D01*
X61768Y-47418D02*
X59884Y-45534D01*
X59884Y-45534D02*
X59884Y-42385D01*
X59884Y-42385D02*
X59884Y-41206D01*
X59884Y-41206D02*
X59906Y-41184D01*
G54D58*
X21265Y-45215D02*
X21981Y-45215D01*
X22282Y-45750D02*
X22735Y-45750D01*
X22140Y-45608D02*
X22282Y-45750D01*
X22140Y-45374D02*
X22140Y-45608D01*
X21981Y-45215D02*
X22140Y-45374D01*
X74279Y-61785D02*
X74893Y-61785D01*
X75096Y-61988D02*
X74893Y-61785D01*
X75096Y-62506D02*
X75096Y-61988D01*
X74920Y-62682D02*
X75096Y-62506D01*
X74693Y-62682D02*
X74920Y-62682D01*
X74690Y-62685D02*
X74693Y-62682D01*
X29111Y-46302D02*
X29111Y-46330D01*
X29111Y-46330D02*
X29004Y-46438D01*
X26430Y-46120D02*
X26430Y-46835D01*
X26430Y-46835D02*
X26677Y-47082D01*
X26677Y-47082D02*
X26936Y-47082D01*
X26936Y-47082D02*
X26943Y-47089D01*
X28692Y-46548D02*
X28802Y-46438D01*
X28802Y-46438D02*
X29004Y-46438D01*
X29004Y-46438D02*
X29387Y-46438D01*
G54D62*
X59160Y-57066D02*
X59160Y-57060D01*
X62573Y-55686D02*
X62573Y-56010D01*
X62573Y-56010D02*
X62573Y-54714D01*
X62573Y-54714D02*
X62573Y-54641D01*
X62250Y-56010D02*
X62573Y-55686D01*
X60210Y-56010D02*
X61040Y-56010D01*
X61040Y-56010D02*
X62250Y-56010D01*
X59160Y-57060D02*
X59661Y-56559D01*
X59661Y-56559D02*
X60210Y-56010D01*
G54D58*
X62640Y-58320D02*
X62640Y-57991D01*
X63309Y-57490D02*
X63309Y-57218D01*
X63063Y-57736D02*
X63309Y-57490D01*
X62895Y-57736D02*
X63063Y-57736D01*
X62640Y-57991D02*
X62895Y-57736D01*
X62573Y-54641D02*
X62573Y-55943D01*
X62573Y-55943D02*
X63309Y-56679D01*
X63309Y-56679D02*
X63309Y-57218D01*
G54D62*
X59160Y-60630D02*
X59160Y-59230D01*
X59160Y-59230D02*
X59160Y-57066D01*
G54D58*
X63504Y-63150D02*
X63504Y-61425D01*
X63910Y-61019D02*
X63910Y-60700D01*
X63504Y-61425D02*
X63910Y-61019D01*
G54D60*
X63504Y-63150D02*
X63504Y-63150D01*
X63504Y-63150D02*
X63504Y-63369D01*
X63821Y-63772D02*
X63999Y-63950D01*
X63821Y-63052D02*
X63821Y-63772D01*
X63504Y-63369D02*
X63821Y-63052D01*
X63504Y-63150D02*
X63504Y-62888D01*
X63504Y-62888D02*
X63999Y-62393D01*
X63504Y-63150D02*
X64106Y-63150D01*
X64106Y-63150D02*
X64204Y-63052D01*
G54D62*
X59160Y-60630D02*
X59160Y-60675D01*
X61635Y-63150D02*
X63504Y-63150D01*
X63504Y-63150D02*
X63630Y-63150D01*
X59160Y-60675D02*
X59929Y-61444D01*
X59929Y-61444D02*
X61635Y-63150D01*
G54D64*
X55260Y-60610D02*
X52800Y-60610D01*
X55280Y-60630D02*
X55260Y-60610D01*
X59160Y-60630D02*
X55280Y-60630D01*
X52800Y-61350D02*
X52800Y-60610D01*
X52800Y-60610D02*
X52800Y-60019D01*
G54D62*
X50182Y-53165D02*
X58765Y-53165D01*
X58765Y-53165D02*
X58150Y-53165D01*
X58150Y-53165D02*
X59640Y-53165D01*
X59640Y-53165D02*
X60510Y-53165D01*
X60510Y-53165D02*
X61515Y-53165D01*
X61515Y-53165D02*
X62573Y-52106D01*
G54D58*
X30225Y-45770D02*
X30225Y-45227D01*
X32266Y-45040D02*
X32621Y-45395D01*
X30412Y-45040D02*
X32266Y-45040D01*
X30225Y-45227D02*
X30412Y-45040D01*
G54D62*
X50182Y-53165D02*
X53665Y-53165D01*
G54D63*
X49992Y-53165D02*
X50182Y-53165D01*
X49992Y-50638D02*
X49992Y-53165D01*
X49992Y-53165D02*
X49992Y-55312D01*
X51835Y-57155D02*
X52800Y-57155D01*
X49992Y-55312D02*
X51835Y-57155D01*
G54D58*
X30225Y-43570D02*
X30225Y-44160D01*
X26430Y-44810D02*
X26430Y-44657D01*
X26411Y-44829D02*
X26430Y-44810D01*
X30225Y-44160D02*
X30237Y-44172D01*
X53966Y-62062D02*
X55216Y-62062D01*
X55216Y-62062D02*
X55313Y-61965D01*
G54D65*
X51604Y-61350D02*
X51604Y-61215D01*
X51604Y-61215D02*
X52800Y-60019D01*
X53970Y-62310D02*
X53970Y-63308D01*
X53970Y-63308D02*
X54242Y-63580D01*
X52800Y-61350D02*
X53254Y-61350D01*
X53966Y-62306D02*
X53970Y-62310D01*
X53966Y-62062D02*
X53966Y-62306D01*
X53254Y-61350D02*
X53537Y-61633D01*
X53537Y-61633D02*
X53966Y-62062D01*
G54D59*
X46770Y-63075D02*
X46770Y-62458D01*
X47505Y-61723D02*
X47505Y-61350D01*
X46770Y-62458D02*
X47505Y-61723D01*
G54D64*
X52800Y-60019D02*
X52800Y-57155D01*
X47505Y-61350D02*
X51604Y-61350D01*
X51604Y-61350D02*
X52800Y-61350D01*
G54D58*
X26430Y-43920D02*
X26430Y-43237D01*
X26430Y-43237D02*
X26554Y-43113D01*
X30225Y-45770D02*
X30225Y-46369D01*
X29579Y-46438D02*
X29387Y-46438D01*
X30225Y-46369D02*
X30156Y-46438D01*
X30156Y-46438D02*
X29579Y-46438D01*
X29387Y-46438D02*
X29247Y-46438D01*
X29247Y-46438D02*
X29111Y-46302D01*
X29111Y-46302D02*
X28796Y-45987D01*
X26430Y-46120D02*
X26430Y-44657D01*
X26430Y-44657D02*
X26430Y-43920D01*
G54D61*
X21735Y-37800D02*
X25176Y-37800D01*
X25176Y-37800D02*
X25260Y-37716D01*
G54D66*
X26467Y-30082D02*
X26418Y-30033D01*
X26470Y-30610D02*
X26467Y-30082D01*
G54D59*
X24525Y-35310D02*
X22675Y-35310D01*
X23363Y-34453D02*
X25850Y-34453D01*
X25850Y-34453D02*
X26884Y-34453D01*
X26884Y-34453D02*
X26906Y-34475D01*
X26418Y-30033D02*
X26421Y-28959D01*
X26421Y-28959D02*
X26435Y-28945D01*
X26435Y-28945D02*
X26435Y-28333D01*
X26435Y-28333D02*
X26550Y-28218D01*
X26550Y-28218D02*
X26808Y-28218D01*
X26808Y-28218D02*
X26992Y-28034D01*
X26992Y-28034D02*
X26992Y-27598D01*
G54D64*
X25015Y-58800D02*
X24971Y-58800D01*
X24971Y-58800D02*
X24177Y-59594D01*
X24177Y-61575D02*
X24177Y-60312D01*
X24177Y-60312D02*
X24177Y-59594D01*
X24177Y-59594D02*
X23382Y-58800D01*
X21669Y-58800D02*
X23382Y-58800D01*
X23382Y-58800D02*
X25015Y-58800D01*
X25015Y-58800D02*
X27488Y-58800D01*
X27488Y-58800D02*
X27783Y-59094D01*
X15152Y-58800D02*
X21669Y-58800D01*
X21669Y-58800D02*
X22255Y-58800D01*
X13151Y-56799D02*
X15152Y-58800D01*
G54D59*
X31767Y-19865D02*
X31767Y-19330D01*
X30636Y-22177D02*
X30636Y-19469D01*
G54D63*
X23039Y-62573D02*
X23039Y-61965D01*
X25008Y-61818D02*
X25008Y-62573D01*
X24177Y-61575D02*
X24765Y-61575D01*
X24765Y-61575D02*
X25008Y-61818D01*
X23430Y-61575D02*
X24177Y-61575D01*
X23039Y-61965D02*
X23430Y-61575D01*
G54D64*
X15303Y-32480D02*
X19089Y-32480D01*
X20020Y-31550D02*
X20020Y-31508D01*
X19089Y-32480D02*
X20020Y-31550D01*
G54D58*
X21265Y-42215D02*
X20534Y-42215D01*
X20512Y-45215D02*
X21265Y-45215D01*
X21265Y-42215D02*
X22378Y-42215D01*
X22378Y-42215D02*
X22382Y-42219D01*
G54D64*
X15303Y-32480D02*
X13746Y-32480D01*
X15291Y-18633D02*
X13721Y-18633D01*
X21590Y-19740D02*
X22590Y-19740D01*
X20877Y-18059D02*
X20877Y-19027D01*
X20877Y-19027D02*
X21590Y-19740D01*
X15291Y-18633D02*
X20303Y-18633D01*
X20303Y-18633D02*
X20877Y-18059D01*
G54D59*
X79646Y-15854D02*
X80262Y-16470D01*
X80262Y-16470D02*
X80509Y-16470D01*
X80850Y-16129D02*
X82386Y-16129D01*
X80509Y-16470D02*
X80850Y-16129D01*
G54D58*
X92838Y-18118D02*
X93350Y-18118D01*
X95043Y-19259D02*
X95309Y-19525D01*
X94059Y-19259D02*
X95043Y-19259D01*
X93704Y-18905D02*
X94059Y-19259D01*
X93704Y-18472D02*
X93704Y-18905D01*
X93350Y-18118D02*
X93704Y-18472D01*
X94118Y-26011D02*
X94118Y-32901D01*
X94118Y-32901D02*
X92479Y-34540D01*
X91539Y-17349D02*
X91715Y-17349D01*
X95309Y-19525D02*
X95309Y-20246D01*
X92484Y-18118D02*
X92838Y-18118D01*
X91715Y-17349D02*
X92484Y-18118D01*
X95103Y-21346D02*
X95103Y-20971D01*
X95103Y-20971D02*
X95309Y-20765D01*
X95309Y-20765D02*
X95309Y-20246D01*
X92309Y-20246D02*
X92309Y-21328D01*
X92366Y-21385D02*
X92778Y-21385D01*
X92309Y-21328D02*
X92366Y-21385D01*
X90712Y-20244D02*
X92306Y-20244D01*
X92306Y-20244D02*
X92309Y-20246D01*
X91539Y-17349D02*
X90712Y-17349D01*
X90712Y-17349D02*
X90712Y-17370D01*
X92287Y-23629D02*
X92641Y-23629D01*
X90712Y-22055D02*
X92287Y-23629D01*
X90712Y-17803D02*
X90712Y-20244D01*
X90712Y-20244D02*
X90712Y-22055D01*
X92641Y-23629D02*
X93507Y-24496D01*
X90814Y-47267D02*
X87118Y-47267D01*
X93507Y-24496D02*
X93507Y-25401D01*
X93507Y-25401D02*
X94118Y-26011D01*
X92479Y-34540D02*
X91500Y-35362D01*
X91500Y-35362D02*
X91500Y-46582D01*
X91500Y-46582D02*
X90814Y-47267D01*
X82602Y-17960D02*
X82581Y-17960D01*
X82581Y-17960D02*
X82502Y-18039D01*
X82602Y-17960D02*
X82602Y-17921D01*
X82602Y-17921D02*
X82502Y-17821D01*
X82502Y-17960D02*
X82602Y-17960D01*
X82602Y-17960D02*
X83389Y-17960D01*
X83389Y-17960D02*
X83429Y-18000D01*
X85988Y-18657D02*
X85988Y-19102D01*
X85988Y-19102D02*
X85673Y-19417D01*
X82386Y-16130D02*
X82386Y-16129D01*
X82386Y-16129D02*
X82502Y-16012D01*
X89158Y-18078D02*
X89649Y-18078D01*
X90397Y-18078D02*
X90594Y-18078D01*
X90594Y-18078D02*
X90712Y-17960D01*
X90712Y-17960D02*
X90712Y-17803D01*
X90712Y-17803D02*
X90712Y-17370D01*
X90712Y-17370D02*
X90712Y-16307D01*
X90712Y-16307D02*
X90712Y-16149D01*
X90712Y-16149D02*
X90594Y-16031D01*
X90594Y-16031D02*
X90437Y-15874D01*
X90437Y-15874D02*
X90358Y-15795D01*
X90358Y-15795D02*
X82562Y-15795D01*
X82562Y-15795D02*
X82502Y-15855D01*
X82502Y-15855D02*
X82502Y-16012D01*
X82502Y-16012D02*
X82502Y-16247D01*
X78662Y-16130D02*
X82386Y-16130D01*
X82386Y-16130D02*
X82502Y-16247D01*
X82502Y-16247D02*
X82502Y-17821D01*
X82502Y-17821D02*
X82502Y-17960D01*
X82502Y-17960D02*
X82502Y-18039D01*
X82502Y-18039D02*
X82502Y-19063D01*
X89197Y-19023D02*
X89197Y-19771D01*
X89197Y-19771D02*
X89158Y-19811D01*
X89158Y-17094D02*
X89158Y-18078D01*
X89158Y-18078D02*
X89158Y-18984D01*
X89158Y-18984D02*
X89197Y-19023D01*
X49492Y-32111D02*
X49523Y-32111D01*
X49523Y-32111D02*
X49635Y-31999D01*
X49635Y-31999D02*
X49763Y-31871D01*
X49763Y-31871D02*
X50238Y-31396D01*
X47248Y-33118D02*
X47405Y-33118D01*
X47405Y-33118D02*
X47425Y-33137D01*
X47759Y-32645D02*
X47759Y-32724D01*
X47720Y-32763D02*
X47720Y-32842D01*
X47759Y-32724D02*
X47720Y-32763D01*
X47326Y-33236D02*
X47248Y-33236D01*
X47326Y-33236D02*
X47425Y-33137D01*
X47248Y-33039D02*
X47326Y-33039D01*
X47326Y-33039D02*
X47425Y-33137D01*
X47425Y-33137D02*
X47720Y-32842D01*
X47720Y-32842D02*
X47917Y-32645D01*
X46224Y-34259D02*
X46972Y-34259D01*
X47248Y-32745D02*
X47347Y-32645D01*
X47248Y-33039D02*
X47248Y-32745D01*
X47248Y-33984D02*
X47248Y-33236D01*
X47248Y-33236D02*
X47248Y-33118D01*
X47248Y-33118D02*
X47248Y-33039D01*
X46972Y-34259D02*
X47248Y-33984D01*
X46224Y-33787D02*
X46224Y-34259D01*
X46224Y-34259D02*
X46224Y-34792D01*
X46224Y-34792D02*
X46205Y-34811D01*
X43074Y-30598D02*
X42917Y-30440D01*
X42917Y-30440D02*
X42917Y-30401D01*
X42917Y-30401D02*
X43074Y-30244D01*
X42208Y-31247D02*
X42208Y-30755D01*
X42208Y-30755D02*
X42523Y-30440D01*
X42523Y-30440D02*
X42917Y-30440D01*
X42917Y-30440D02*
X43074Y-30440D01*
X47347Y-32645D02*
X47759Y-32645D01*
X47759Y-32645D02*
X47917Y-32645D01*
X47917Y-32645D02*
X48153Y-32409D01*
X49474Y-32111D02*
X49492Y-32111D01*
X49492Y-32111D02*
X50238Y-32111D01*
X49177Y-32409D02*
X49474Y-32111D01*
X48153Y-32409D02*
X49177Y-32409D01*
X46058Y-30309D02*
X46058Y-30055D01*
X46058Y-30055D02*
X46263Y-29850D01*
X43074Y-28645D02*
X43074Y-29124D01*
X43074Y-29124D02*
X43074Y-29496D01*
X43074Y-29496D02*
X43074Y-30244D01*
X43074Y-30244D02*
X43074Y-30440D01*
X43074Y-30440D02*
X43074Y-30598D01*
X43074Y-30598D02*
X43074Y-31207D01*
X43074Y-31207D02*
X43118Y-31251D01*
G54D59*
X47522Y-27334D02*
X47570Y-27382D01*
X46565Y-27334D02*
X47522Y-27334D01*
X49058Y-23966D02*
X49500Y-23966D01*
X49500Y-23966D02*
X50003Y-23966D01*
X58233Y-37396D02*
X58233Y-37219D01*
X58233Y-37219D02*
X58352Y-37100D01*
X57705Y-38292D02*
X57705Y-37924D01*
X58233Y-37396D02*
X58648Y-37396D01*
X57705Y-37924D02*
X58233Y-37396D01*
G54D58*
X52453Y-40136D02*
X52672Y-40136D01*
X52703Y-40105D02*
X52703Y-40201D01*
X52672Y-40136D02*
X52703Y-40105D01*
G54D59*
X52327Y-41957D02*
X52362Y-41957D01*
X52362Y-41957D02*
X52561Y-42156D01*
X51970Y-43233D02*
X51970Y-42915D01*
X51970Y-42915D02*
X52561Y-42324D01*
X52561Y-42324D02*
X52561Y-42156D01*
X52561Y-41722D02*
X52589Y-41694D01*
X52561Y-42156D02*
X52561Y-41722D01*
X54438Y-39002D02*
X54310Y-39002D01*
X54310Y-39002D02*
X54283Y-38975D01*
X54003Y-39076D02*
X54198Y-39076D01*
X54198Y-39076D02*
X54438Y-39316D01*
X53338Y-39826D02*
X54118Y-39826D01*
X52317Y-41966D02*
X52327Y-41957D01*
X52327Y-41957D02*
X52330Y-41954D01*
X52330Y-41954D02*
X52589Y-41694D01*
X52589Y-41694D02*
X52589Y-40315D01*
X52589Y-40315D02*
X52703Y-40201D01*
X52703Y-40201D02*
X53078Y-39826D01*
X53078Y-39826D02*
X53338Y-39826D01*
X51893Y-41966D02*
X52317Y-41966D01*
X54118Y-39826D02*
X54438Y-39506D01*
X54438Y-39506D02*
X54438Y-39316D01*
X54438Y-38641D02*
X54458Y-38621D01*
X54003Y-39076D02*
X54458Y-38621D01*
X54438Y-39002D02*
X54438Y-38641D01*
X54438Y-39316D02*
X54438Y-39002D01*
X53608Y-39076D02*
X54003Y-39076D01*
G54D58*
X51053Y-42661D02*
X51053Y-42216D01*
X51871Y-41988D02*
X51893Y-41966D01*
X51281Y-41988D02*
X51871Y-41988D01*
X51053Y-42216D02*
X51281Y-41988D01*
G54D60*
X54253Y-36671D02*
X54922Y-36671D01*
X54922Y-36671D02*
X55133Y-36671D01*
X55133Y-36671D02*
X55462Y-36671D01*
X55462Y-36671D02*
X56753Y-36671D01*
X57923Y-36671D02*
X58352Y-37100D01*
X57303Y-36671D02*
X57923Y-36671D01*
X56753Y-36671D02*
X57303Y-36671D01*
X58352Y-37100D02*
X58648Y-37396D01*
G54D58*
X50238Y-32111D02*
X50238Y-31593D01*
X50238Y-31593D02*
X50238Y-31396D01*
X50667Y-30967D02*
X51056Y-30967D01*
X50238Y-31396D02*
X50667Y-30967D01*
X48085Y-28524D02*
X48085Y-27897D01*
X48085Y-27897D02*
X47570Y-27382D01*
X47830Y-28524D02*
X47830Y-27642D01*
X47830Y-27642D02*
X47570Y-27382D01*
X47830Y-28524D02*
X48085Y-28524D01*
G54D59*
X51056Y-30967D02*
X51442Y-30967D01*
X51728Y-30967D02*
X51848Y-30967D01*
X51560Y-30967D02*
X51728Y-30967D01*
X51442Y-30967D02*
X51560Y-30967D01*
G54D61*
X56237Y-33498D02*
X58107Y-33498D01*
X58107Y-33498D02*
X58120Y-33511D01*
G54D58*
X63910Y-60700D02*
X64994Y-60700D01*
X64994Y-60700D02*
X66110Y-60700D01*
X77529Y-15906D02*
X77603Y-15832D01*
X77068Y-15906D02*
X77529Y-15906D01*
X68890Y-22061D02*
X68890Y-21843D01*
X68890Y-21843D02*
X69416Y-21317D01*
X69506Y-21128D02*
X69506Y-21923D01*
X69506Y-21923D02*
X69368Y-22061D01*
X69168Y-22061D02*
X69168Y-21466D01*
X69168Y-21466D02*
X69506Y-21128D01*
X69506Y-21128D02*
X70678Y-19956D01*
X69701Y-18220D02*
X69723Y-18220D01*
X69723Y-18220D02*
X69839Y-18104D01*
X70678Y-19956D02*
X70678Y-18336D01*
X70678Y-18336D02*
X70446Y-18104D01*
X70446Y-18104D02*
X69839Y-18104D01*
X69599Y-18104D02*
X69592Y-18111D01*
X69839Y-18104D02*
X69599Y-18104D01*
X67636Y-18296D02*
X67636Y-18258D01*
X67636Y-18258D02*
X67783Y-18111D01*
X67636Y-18000D02*
X67672Y-18000D01*
X67672Y-18000D02*
X67783Y-18111D01*
X67636Y-18111D02*
X67783Y-18111D01*
X67783Y-18111D02*
X69592Y-18111D01*
G54D59*
X69725Y-18713D02*
X69728Y-18716D01*
G54D58*
X69592Y-18111D02*
X69701Y-18220D01*
X69701Y-18220D02*
X69725Y-18244D01*
X69725Y-18244D02*
X69725Y-18713D01*
G54D59*
X64205Y-16110D02*
X64256Y-16110D01*
X64576Y-15789D02*
X64576Y-15290D01*
X64256Y-16110D02*
X64576Y-15789D01*
X64205Y-16110D02*
X64219Y-16095D01*
X64219Y-16746D02*
X64219Y-16439D01*
X64219Y-16439D02*
X64219Y-16095D01*
G54D58*
X67636Y-17548D02*
X67636Y-18000D01*
X67636Y-18000D02*
X67636Y-18111D01*
X67636Y-18111D02*
X67636Y-18296D01*
X67636Y-18296D02*
X67636Y-19748D01*
G54D62*
X62573Y-52106D02*
X62573Y-54641D01*
X62573Y-54641D02*
X62603Y-54671D01*
G54D63*
X61198Y-53047D02*
X61198Y-53086D01*
X61198Y-53086D02*
X62208Y-54096D01*
X62573Y-52106D02*
X62138Y-52106D01*
X62138Y-52106D02*
X61198Y-53047D01*
G54D62*
X77603Y-15832D02*
X78620Y-15832D01*
X78620Y-15832D02*
X79624Y-15832D01*
X79624Y-15832D02*
X80262Y-16470D01*
X80262Y-16470D02*
X80262Y-17064D01*
X80262Y-17064D02*
X80240Y-17042D01*
X80240Y-17042D02*
X80240Y-16382D01*
X79646Y-15854D02*
X79624Y-15832D01*
X79624Y-15832D02*
X77603Y-15832D01*
X77603Y-15832D02*
X77578Y-15832D01*
X67643Y-22061D02*
X68890Y-22061D01*
X68890Y-22061D02*
X69168Y-22061D01*
X69168Y-22061D02*
X69368Y-22061D01*
X69368Y-22061D02*
X69383Y-22046D01*
X68543Y-22061D02*
X68558Y-22046D01*
X68558Y-22046D02*
X69383Y-22046D01*
G54D58*
X38360Y-40750D02*
X38360Y-41510D01*
X35675Y-41661D02*
X35672Y-41664D01*
X38209Y-41661D02*
X35675Y-41661D01*
X38360Y-41510D02*
X38209Y-41661D01*
G54D59*
X39360Y-38960D02*
X39380Y-38960D01*
X41748Y-42161D02*
X41736Y-42173D01*
X41748Y-41328D02*
X41748Y-42161D01*
X39380Y-38960D02*
X41748Y-41328D01*
X41736Y-42173D02*
X41736Y-42881D01*
X42208Y-43354D02*
X42204Y-43631D01*
X42204Y-43631D02*
X42225Y-43652D01*
X41736Y-42881D02*
X42208Y-43354D01*
X38311Y-37918D02*
X38318Y-37918D01*
X39360Y-38960D02*
X39360Y-39366D01*
X39360Y-39366D02*
X39360Y-39750D01*
X38318Y-37918D02*
X39360Y-38960D01*
G54D58*
X38360Y-40750D02*
X38360Y-40573D01*
X38360Y-40573D02*
X38655Y-40278D01*
X38655Y-40278D02*
X39021Y-40278D01*
X39021Y-40278D02*
X39360Y-39939D01*
X39360Y-39939D02*
X39360Y-39750D01*
G54D59*
X37071Y-37242D02*
X36873Y-37044D01*
X37635Y-37242D02*
X37071Y-37242D01*
X38311Y-37918D02*
X37635Y-37242D01*
X36164Y-36157D02*
X36164Y-36158D01*
X36164Y-36158D02*
X36572Y-36566D01*
X35730Y-35723D02*
X36164Y-36157D01*
X36572Y-36743D02*
X36572Y-36566D01*
X36619Y-36790D02*
X36572Y-36743D01*
X36873Y-37044D02*
X36619Y-36790D01*
X42225Y-43652D02*
X42740Y-43652D01*
X42740Y-43652D02*
X42861Y-43773D01*
X34421Y-30641D02*
X34421Y-30858D01*
X34421Y-30858D02*
X35959Y-32396D01*
X35959Y-32396D02*
X35959Y-33152D01*
X35959Y-33152D02*
X35730Y-33381D01*
X35730Y-33381D02*
X35730Y-35723D01*
G54D58*
X31937Y-32315D02*
X31937Y-32546D01*
X31937Y-32546D02*
X32124Y-32733D01*
X32124Y-32733D02*
X33093Y-32733D01*
X36456Y-33145D02*
X36455Y-33145D01*
X42861Y-43773D02*
X42861Y-43748D01*
X43808Y-46475D02*
X43808Y-46176D01*
X43479Y-46805D02*
X43808Y-46475D01*
X38214Y-47637D02*
X39362Y-47637D01*
X37319Y-46742D02*
X38214Y-47637D01*
X42424Y-46136D02*
X42683Y-46136D01*
X41805Y-46409D02*
X42152Y-46409D01*
X42152Y-46409D02*
X42424Y-46136D01*
X39333Y-35760D02*
X39764Y-35760D01*
X40355Y-36064D02*
X40460Y-35959D01*
X40068Y-36064D02*
X40355Y-36064D01*
X39764Y-35760D02*
X40068Y-36064D01*
X39333Y-35760D02*
X38829Y-35760D01*
G54D59*
X46878Y-46749D02*
X46878Y-46749D01*
X46878Y-46749D02*
X47080Y-46951D01*
X46629Y-46951D02*
X47080Y-46951D01*
X47080Y-46951D02*
X47263Y-46951D01*
X47263Y-46951D02*
X47487Y-46728D01*
X47487Y-46728D02*
X47487Y-46509D01*
X47487Y-46509D02*
X47596Y-46400D01*
X47596Y-46400D02*
X48050Y-46400D01*
X47341Y-44876D02*
X47929Y-44876D01*
X48409Y-44397D02*
X48409Y-42665D01*
X47929Y-44876D02*
X48409Y-44397D01*
X48390Y-41535D02*
X48390Y-42646D01*
X48390Y-42646D02*
X48409Y-42665D01*
X48140Y-40820D02*
X48140Y-40853D01*
X48390Y-41103D02*
X48390Y-41535D01*
X48140Y-40853D02*
X48390Y-41103D01*
G54D58*
X53450Y-22860D02*
X53450Y-23820D01*
X53460Y-22850D02*
X53450Y-22860D01*
G54D59*
X36455Y-33145D02*
X36455Y-32774D01*
X36455Y-32774D02*
X36455Y-32755D01*
X34421Y-30641D02*
X34421Y-30605D01*
X35035Y-31255D02*
X34421Y-30641D01*
X35968Y-31255D02*
X35035Y-31255D01*
X36456Y-31743D02*
X35968Y-31255D01*
X36456Y-31850D02*
X36456Y-31743D01*
X36455Y-31851D02*
X36456Y-31850D01*
X36455Y-32755D02*
X36455Y-31851D01*
X34430Y-30605D02*
X34430Y-30401D01*
X34421Y-30605D02*
X34430Y-30605D01*
X34430Y-30401D02*
X34430Y-28622D01*
X35900Y-26618D02*
X35850Y-26568D01*
X35900Y-28160D02*
X35900Y-26618D01*
X35770Y-28290D02*
X35900Y-28160D01*
X34762Y-28290D02*
X35770Y-28290D01*
X34430Y-28622D02*
X34762Y-28290D01*
G54D58*
X35500Y-25250D02*
X35500Y-25690D01*
X35500Y-25690D02*
X35850Y-26040D01*
X35850Y-26040D02*
X35850Y-26568D01*
X30749Y-30037D02*
X30973Y-30037D01*
X30121Y-30037D02*
X30749Y-30037D01*
X29760Y-29676D02*
X30121Y-30037D01*
X29669Y-29676D02*
X29760Y-29676D01*
X30973Y-30037D02*
X31937Y-31001D01*
X31937Y-31001D02*
X31937Y-32315D01*
X29409Y-29676D02*
X29409Y-29664D01*
X29409Y-29664D02*
X29533Y-29540D01*
X29533Y-29540D02*
X29505Y-29540D01*
X29505Y-28885D02*
X29505Y-29540D01*
X29505Y-29540D02*
X29505Y-29512D01*
X29505Y-29512D02*
X29669Y-29676D01*
X28686Y-29676D02*
X29409Y-29676D01*
X29409Y-29676D02*
X29669Y-29676D01*
X47920Y-46270D02*
X48050Y-46400D01*
G54D59*
X42861Y-43748D02*
X42996Y-43748D01*
X43108Y-43860D02*
X43116Y-44838D01*
X42996Y-43748D02*
X43108Y-43860D01*
X42991Y-45566D02*
X43042Y-45566D01*
X43042Y-45566D02*
X43195Y-45719D01*
X41810Y-45566D02*
X42991Y-45566D01*
X42991Y-45566D02*
X43195Y-45362D01*
X43174Y-45889D02*
X43234Y-45889D01*
X43234Y-45889D02*
X43481Y-46136D01*
X43481Y-46136D02*
X43808Y-46176D01*
X43043Y-46136D02*
X43043Y-46019D01*
X43043Y-46019D02*
X43174Y-45889D01*
X43174Y-45889D02*
X43195Y-45867D01*
X43195Y-46136D02*
X43195Y-45867D01*
X43195Y-45867D02*
X43195Y-45719D01*
X43195Y-45719D02*
X43195Y-45362D01*
X43195Y-45362D02*
X43203Y-44925D01*
X43203Y-44925D02*
X43116Y-44838D01*
X42683Y-46136D02*
X43043Y-46136D01*
X43043Y-46136D02*
X43195Y-46136D01*
X43195Y-46136D02*
X43768Y-46136D01*
X43768Y-46136D02*
X43808Y-46176D01*
X46878Y-46056D02*
X46878Y-46749D01*
X46878Y-46749D02*
X46878Y-46803D01*
X46878Y-46803D02*
X46730Y-46951D01*
X46730Y-46951D02*
X46629Y-46951D01*
X46629Y-46951D02*
X45155Y-46951D01*
X44380Y-46176D02*
X43808Y-46176D01*
X45155Y-46951D02*
X44380Y-46176D01*
X47920Y-46270D02*
X48050Y-46400D01*
G54D58*
X47920Y-46270D02*
X48050Y-46400D01*
G54D59*
X49163Y-36291D02*
X49163Y-35531D01*
X48140Y-37314D02*
X49163Y-36291D01*
X48140Y-40820D02*
X48140Y-37314D01*
X46744Y-44876D02*
X46744Y-44984D01*
X46744Y-44984D02*
X46878Y-45118D01*
X46878Y-46056D02*
X46878Y-45118D01*
X46878Y-45118D02*
X46878Y-45116D01*
X46878Y-45116D02*
X47118Y-44876D01*
X46313Y-44876D02*
X46744Y-44876D01*
X46744Y-44876D02*
X47118Y-44876D01*
X47118Y-44876D02*
X47341Y-44876D01*
G54D60*
X154671Y-58956D02*
X154179Y-58956D01*
X154179Y-58956D02*
X154171Y-58948D01*
X152519Y-58948D02*
X154663Y-58948D01*
X154663Y-58948D02*
X154671Y-58956D01*
X155370Y-58956D02*
X155377Y-58948D01*
X155377Y-58948D02*
X156771Y-58948D01*
G54D67*
X150082Y-58956D02*
X150960Y-58956D01*
X150960Y-58956D02*
X156763Y-58956D01*
X156763Y-58956D02*
X156771Y-58948D01*
G54D58*
X84610Y-18650D02*
X84610Y-18944D01*
X84807Y-19141D02*
X84807Y-19632D01*
X84610Y-18944D02*
X84807Y-19141D01*
X84610Y-18650D02*
X85606Y-18650D01*
X85606Y-18650D02*
X85613Y-18657D01*
X83252Y-19063D02*
X83252Y-18687D01*
X83961Y-18650D02*
X84610Y-18650D01*
X83862Y-18551D02*
X83961Y-18650D01*
X83389Y-18551D02*
X83862Y-18551D01*
X83252Y-18687D02*
X83389Y-18551D01*
X84807Y-20382D02*
X85142Y-20382D01*
X86323Y-20755D02*
X86342Y-20737D01*
X85515Y-20755D02*
X86323Y-20755D01*
X85142Y-20382D02*
X85515Y-20755D01*
X88371Y-18118D02*
X88371Y-18946D01*
X88371Y-18946D02*
X88447Y-19023D01*
X88447Y-19023D02*
X88447Y-19771D01*
X88447Y-19771D02*
X88408Y-19811D01*
X86342Y-20737D02*
X87227Y-20737D01*
X87799Y-19811D02*
X88408Y-19811D01*
X87720Y-19889D02*
X87799Y-19811D01*
X87720Y-20244D02*
X87720Y-19889D01*
X87227Y-20737D02*
X87720Y-20244D01*
X88408Y-16640D02*
X88412Y-16640D01*
X88412Y-16640D02*
X88549Y-16503D01*
X88192Y-16503D02*
X88549Y-16503D01*
X88549Y-16503D02*
X89807Y-16503D01*
X89788Y-22113D02*
X88311Y-22113D01*
X90043Y-21858D02*
X89788Y-22113D01*
X90043Y-16740D02*
X90043Y-21858D01*
X89807Y-16503D02*
X90043Y-16740D01*
X87111Y-16503D02*
X88192Y-16503D01*
X88192Y-16503D02*
X88271Y-16503D01*
X88408Y-16640D02*
X88408Y-17094D01*
X88271Y-16503D02*
X88408Y-16640D01*
G54D59*
X66106Y-27036D02*
X66558Y-27036D01*
X66558Y-27036D02*
X66702Y-26892D01*
X66783Y-26652D02*
X67182Y-26652D01*
X66702Y-26733D02*
X66783Y-26652D01*
X66702Y-26892D02*
X66702Y-26733D01*
G54D65*
X30776Y-55485D02*
X30776Y-60171D01*
X30776Y-60171D02*
X29810Y-61138D01*
X29810Y-61138D02*
X29810Y-61556D01*
G54D60*
X24090Y-52115D02*
X24090Y-52027D01*
X24090Y-52027D02*
X24437Y-51680D01*
X24090Y-51390D02*
X24147Y-51390D01*
X24147Y-51390D02*
X24437Y-51680D01*
X24090Y-51680D02*
X24437Y-51680D01*
X24437Y-51680D02*
X25102Y-51680D01*
X25102Y-51680D02*
X25152Y-51730D01*
X25075Y-48356D02*
X24544Y-48356D01*
X24564Y-55078D02*
X27783Y-55078D01*
X24090Y-54604D02*
X24564Y-55078D01*
X24090Y-48810D02*
X24090Y-51390D01*
X24090Y-51390D02*
X24090Y-51680D01*
X24090Y-51680D02*
X24090Y-52115D01*
X24090Y-52115D02*
X24090Y-54604D01*
X24544Y-48356D02*
X24090Y-48810D01*
G54D64*
X29149Y-61710D02*
X29656Y-61710D01*
X27980Y-54881D02*
X27783Y-55078D01*
X30173Y-54881D02*
X27980Y-54881D01*
X31480Y-56188D02*
X30776Y-55485D01*
X30776Y-55485D02*
X30173Y-54881D01*
X31480Y-59885D02*
X31480Y-56188D01*
X29656Y-61710D02*
X29810Y-61556D01*
X29810Y-61556D02*
X31480Y-59885D01*
G54D63*
X28209Y-62595D02*
X28209Y-62040D01*
X30178Y-61928D02*
X30178Y-62595D01*
X29960Y-61710D02*
X30178Y-61928D01*
X28540Y-61710D02*
X29149Y-61710D01*
X29149Y-61710D02*
X29960Y-61710D01*
X28209Y-62040D02*
X28540Y-61710D01*
X40964Y-51330D02*
X40981Y-51330D01*
X35414Y-62580D02*
X39095Y-58900D01*
X39095Y-58900D02*
X39095Y-53200D01*
X39095Y-53200D02*
X40964Y-51330D01*
X35414Y-62595D02*
X35414Y-62580D01*
X40981Y-51330D02*
X41673Y-50638D01*
X41673Y-50638D02*
X45977Y-50638D01*
X33445Y-62595D02*
X33445Y-61984D01*
X35414Y-61964D02*
X35414Y-62595D01*
X35100Y-61650D02*
X35414Y-61964D01*
X33780Y-61650D02*
X35100Y-61650D01*
X33445Y-61984D02*
X33780Y-61650D01*
G54D60*
X138132Y-34007D02*
X138167Y-34007D01*
X138167Y-34007D02*
X138285Y-34125D01*
X138998Y-34758D02*
X139897Y-35657D01*
X139897Y-35657D02*
X139897Y-35772D01*
X140746Y-36506D02*
X141481Y-37241D01*
X141481Y-37241D02*
X141481Y-37356D01*
X143000Y-37455D02*
X143099Y-37356D01*
X143099Y-37356D02*
X144342Y-37356D01*
X146212Y-37455D02*
X146311Y-37356D01*
X146311Y-37356D02*
X147863Y-37356D01*
X149368Y-37455D02*
X149467Y-37356D01*
X149467Y-37356D02*
X150084Y-37356D01*
X134876Y-33726D02*
X135430Y-33172D01*
X135430Y-33172D02*
X135430Y-33142D01*
X136017Y-33160D02*
X135999Y-33142D01*
X135999Y-33142D02*
X135430Y-33142D01*
X131614Y-38023D02*
X132689Y-38023D01*
X133925Y-38023D02*
X134574Y-37374D01*
X134574Y-37374D02*
X134574Y-37224D01*
X134653Y-36102D02*
X134574Y-36102D01*
G54D64*
X134744Y-34992D02*
X134574Y-35162D01*
X134574Y-35162D02*
X134574Y-33998D01*
X134574Y-33998D02*
X135430Y-33142D01*
X135430Y-33142D02*
X137267Y-33142D01*
X137267Y-33142D02*
X138132Y-34007D01*
X138132Y-34007D02*
X141481Y-37356D01*
X141481Y-37356D02*
X150084Y-37356D01*
X150084Y-37356D02*
X150876Y-36564D01*
X150876Y-36564D02*
X150876Y-35588D01*
X150876Y-35588D02*
X150844Y-35556D01*
X131614Y-38023D02*
X133774Y-38023D01*
X133774Y-38023D02*
X134574Y-37224D01*
X134574Y-37224D02*
X134574Y-36102D01*
X134574Y-36102D02*
X134574Y-35162D01*
X134574Y-35162D02*
X134744Y-34992D01*
G54D59*
X128296Y-30345D02*
X128618Y-30023D01*
X120720Y-30345D02*
X128296Y-30345D01*
X120675Y-30390D02*
X120720Y-30345D01*
X106992Y-30381D02*
X105157Y-32216D01*
X107350Y-30381D02*
X106992Y-30381D01*
X107358Y-30389D02*
X107350Y-30381D01*
G54D58*
X105975Y-36582D02*
X107223Y-36582D01*
X107223Y-36582D02*
X107244Y-36603D01*
X104925Y-36582D02*
X105975Y-36582D01*
G54D60*
X127007Y-33329D02*
X127021Y-33329D01*
X128175Y-33132D02*
X128372Y-33329D01*
X128372Y-33329D02*
X129465Y-33329D01*
X131612Y-33132D02*
X132516Y-32227D01*
X132516Y-32227D02*
X132516Y-32108D01*
X133984Y-30760D02*
X134782Y-29961D01*
X134782Y-29961D02*
X134782Y-29842D01*
X140663Y-27263D02*
X140752Y-27263D01*
X140752Y-27263D02*
X141300Y-26715D01*
X142040Y-26030D02*
X142910Y-25160D01*
X142910Y-25160D02*
X143300Y-25160D01*
X136384Y-28194D02*
X136528Y-28050D01*
X136528Y-28050D02*
X137170Y-28050D01*
X137940Y-28141D02*
X138512Y-28713D01*
X138512Y-28713D02*
X138512Y-29070D01*
X138318Y-29681D02*
X137950Y-30050D01*
X137950Y-30050D02*
X137612Y-30050D01*
X136920Y-30106D02*
X136345Y-29531D01*
X136345Y-29531D02*
X136345Y-29495D01*
X135937Y-28862D02*
X135758Y-29040D01*
X135758Y-29040D02*
X135585Y-29040D01*
G54D65*
X135585Y-29040D02*
X135890Y-29040D01*
X135890Y-29040D02*
X136900Y-30050D01*
X136900Y-30050D02*
X137612Y-30050D01*
X137612Y-30050D02*
X138512Y-29150D01*
X135585Y-29040D02*
X135585Y-29014D01*
X135585Y-29014D02*
X135950Y-28650D01*
X135950Y-28650D02*
X136550Y-28050D01*
X136550Y-28050D02*
X138565Y-28050D01*
G54D64*
X125196Y-35090D02*
X125196Y-37328D01*
X125196Y-37328D02*
X125818Y-37950D01*
X125818Y-37950D02*
X128548Y-37950D01*
X128548Y-37950D02*
X128622Y-38023D01*
X135585Y-29040D02*
X135584Y-29040D01*
X135584Y-29040D02*
X131296Y-33329D01*
X131296Y-33329D02*
X127007Y-33329D01*
X127007Y-33329D02*
X125245Y-35090D01*
X125245Y-35090D02*
X125196Y-35090D01*
G54D66*
X138565Y-28050D02*
X136550Y-28050D01*
X136550Y-28050D02*
X135870Y-28730D01*
X135870Y-28730D02*
X135870Y-28756D01*
X135870Y-28756D02*
X135585Y-29040D01*
X135585Y-29040D02*
X135190Y-29436D01*
G54D64*
X138512Y-29070D02*
X138856Y-29070D01*
X138856Y-29070D02*
X139876Y-28050D01*
X150844Y-27556D02*
X150844Y-26322D01*
X150844Y-26322D02*
X150898Y-26268D01*
X150898Y-26268D02*
X150898Y-25916D01*
X150898Y-25916D02*
X150142Y-25160D01*
X150142Y-25160D02*
X144900Y-25160D01*
X144900Y-25160D02*
X143300Y-25160D01*
X143300Y-25160D02*
X143226Y-25234D01*
X143226Y-25234D02*
X142692Y-25234D01*
X142692Y-25234D02*
X140663Y-27263D01*
X140663Y-27263D02*
X139876Y-28050D01*
X139876Y-28050D02*
X138565Y-28050D01*
X138565Y-28050D02*
X138534Y-28050D01*
X138534Y-28050D02*
X138512Y-28072D01*
X138512Y-28072D02*
X138512Y-29070D01*
X138512Y-29070D02*
X138512Y-29150D01*
X138512Y-29150D02*
X138402Y-29260D01*
G54D61*
X19118Y-64130D02*
X19184Y-64064D01*
X19184Y-64064D02*
X20325Y-64064D01*
X21360Y-64130D02*
X21426Y-64064D01*
X21426Y-64064D02*
X22380Y-64064D01*
X25200Y-64130D02*
X25266Y-64064D01*
X25266Y-64064D02*
X26400Y-64064D01*
X27742Y-64130D02*
X27808Y-64064D01*
X27808Y-64064D02*
X30228Y-64064D01*
X31504Y-64130D02*
X31570Y-64064D01*
X31570Y-64064D02*
X33022Y-64064D01*
G54D65*
X34430Y-63580D02*
X34430Y-64013D01*
X34430Y-64013D02*
X34379Y-64064D01*
X29194Y-63580D02*
X29194Y-63949D01*
X29194Y-63949D02*
X29309Y-64064D01*
X24024Y-63558D02*
X24024Y-63932D01*
X24024Y-63932D02*
X23892Y-64064D01*
G54D64*
X23892Y-64064D02*
X29309Y-64064D01*
X29309Y-64064D02*
X34379Y-64064D01*
X17857Y-62913D02*
X19008Y-64064D01*
X19008Y-64064D02*
X23892Y-64064D01*
X17857Y-62298D02*
X17857Y-62913D01*
X34379Y-64064D02*
X34395Y-64080D01*
G54D58*
X95735Y-39434D02*
X95735Y-39434D01*
X96919Y-36981D02*
X102676Y-36981D01*
X96280Y-37620D02*
X96919Y-36981D01*
X96280Y-38890D02*
X96280Y-37620D01*
X95735Y-39434D02*
X96280Y-38890D01*
X93287Y-40527D02*
X94641Y-40527D01*
X102676Y-36981D02*
X102877Y-36779D01*
X94641Y-40527D02*
X95735Y-39434D01*
G54D60*
X136744Y-51326D02*
X136747Y-51330D01*
X136747Y-51330D02*
X138390Y-51330D01*
X139472Y-50232D02*
X140820Y-50232D01*
G54D67*
X135661Y-50244D02*
X135661Y-50296D01*
X135661Y-50296D02*
X136695Y-51330D01*
X143047Y-50232D02*
X139487Y-50232D01*
X139487Y-50232D02*
X138390Y-51330D01*
X138390Y-51330D02*
X136695Y-51330D01*
X136695Y-51330D02*
X135661Y-52363D01*
X135661Y-52363D02*
X135669Y-52799D01*
X135661Y-50244D02*
X135661Y-52791D01*
X135661Y-52791D02*
X135669Y-52799D01*
G54D59*
X128622Y-40023D02*
X128622Y-41261D01*
X129565Y-42214D02*
X129680Y-42329D01*
X129680Y-42329D02*
X129690Y-42329D01*
G54D62*
X128622Y-40023D02*
X128622Y-41261D01*
X128622Y-41261D02*
X129690Y-42329D01*
X129690Y-42329D02*
X130714Y-43354D01*
X130714Y-43354D02*
X130740Y-43354D01*
G54D59*
X131614Y-40023D02*
X131614Y-40024D01*
X131614Y-40024D02*
X132582Y-40992D01*
X133759Y-41141D02*
X134744Y-42125D01*
X134744Y-42125D02*
X134744Y-42162D01*
G54D62*
X133679Y-40992D02*
X133679Y-41097D01*
X133679Y-41097D02*
X134744Y-42162D01*
X134744Y-40992D02*
X134744Y-42162D01*
X134744Y-42162D02*
X135661Y-43079D01*
X135661Y-43079D02*
X135661Y-43354D01*
X131614Y-40023D02*
X131614Y-40024D01*
X131614Y-40024D02*
X132582Y-40992D01*
X132582Y-40992D02*
X133679Y-40992D01*
X133679Y-40992D02*
X134744Y-40992D01*
G54D64*
X71881Y-21455D02*
X72065Y-21455D01*
X72065Y-21455D02*
X72835Y-22225D01*
X72835Y-22225D02*
X72835Y-23835D01*
X72835Y-23835D02*
X71881Y-24788D01*
X71872Y-14872D02*
X71872Y-15115D01*
X71872Y-15115D02*
X70950Y-16038D01*
X70950Y-16038D02*
X70950Y-16610D01*
X70950Y-16610D02*
X71881Y-17541D01*
X71881Y-17541D02*
X71881Y-17545D01*
X81193Y-33281D02*
X81311Y-33281D01*
X81311Y-33281D02*
X84191Y-36161D01*
X80090Y-33281D02*
X80090Y-33620D01*
X80090Y-33620D02*
X82631Y-36161D01*
X79219Y-32410D02*
X79085Y-32410D01*
X79085Y-32410D02*
X78213Y-33281D01*
X79219Y-32059D02*
X79219Y-32410D01*
X79219Y-32410D02*
X80090Y-33281D01*
X81193Y-33281D02*
X81193Y-32963D01*
X81193Y-32963D02*
X80289Y-32059D01*
X80289Y-32059D02*
X80247Y-32059D01*
X78274Y-32059D02*
X79219Y-32059D01*
X79219Y-32059D02*
X80247Y-32059D01*
X80247Y-32059D02*
X81430Y-32059D01*
X81430Y-32059D02*
X82653Y-33281D01*
X78213Y-33281D02*
X80090Y-33281D01*
X80090Y-33281D02*
X81193Y-33281D01*
X81193Y-33281D02*
X82653Y-33281D01*
X82653Y-33281D02*
X83151Y-33780D01*
X83151Y-33780D02*
X83880Y-33780D01*
X83880Y-33780D02*
X83880Y-33434D01*
X76990Y-35024D02*
X79068Y-35024D01*
X79068Y-35024D02*
X79332Y-35288D01*
X79332Y-35288D02*
X79332Y-34400D01*
X80644Y-36161D02*
X77758Y-36161D01*
X77758Y-36161D02*
X78544Y-35376D01*
X78544Y-35376D02*
X78544Y-34720D01*
X78544Y-34720D02*
X77748Y-33924D01*
X77748Y-33924D02*
X77660Y-33924D01*
X77122Y-36767D02*
X80487Y-36767D01*
X80487Y-36767D02*
X81093Y-36161D01*
X76990Y-32059D02*
X76990Y-35024D01*
X76990Y-35024D02*
X76990Y-35394D01*
X76990Y-35394D02*
X76370Y-36015D01*
X75875Y-30944D02*
X75875Y-35520D01*
X75875Y-35520D02*
X76370Y-36015D01*
X76370Y-36015D02*
X77122Y-36767D01*
X77122Y-36767D02*
X77455Y-37100D01*
X77455Y-37100D02*
X86950Y-37100D01*
X86950Y-37100D02*
X87118Y-37267D01*
X76990Y-32059D02*
X78274Y-32059D01*
X78274Y-32059D02*
X82505Y-32059D01*
X82505Y-32059D02*
X83880Y-33434D01*
X83880Y-33434D02*
X83880Y-33434D01*
X83880Y-33434D02*
X83880Y-34600D01*
X83880Y-34600D02*
X85441Y-36161D01*
G54D62*
X86298Y-36161D02*
X86298Y-36087D01*
X86298Y-36087D02*
X87118Y-35267D01*
X71881Y-18446D02*
X71881Y-21455D01*
X71881Y-21455D02*
X71881Y-24788D01*
X71881Y-24788D02*
X71881Y-26950D01*
X87118Y-36981D02*
X87118Y-37267D01*
X86298Y-36161D02*
X87118Y-36981D01*
X81093Y-36161D02*
X80644Y-36161D01*
X80644Y-36161D02*
X82631Y-36161D01*
X82631Y-36161D02*
X84191Y-36161D01*
X84191Y-36161D02*
X85441Y-36161D01*
X85441Y-36161D02*
X86298Y-36161D01*
X71881Y-26950D02*
X75875Y-30944D01*
X75875Y-30944D02*
X76990Y-32059D01*
X76990Y-32059D02*
X78213Y-33281D01*
X78213Y-33281D02*
X79332Y-34400D01*
X79332Y-34400D02*
X81093Y-36161D01*
G54D61*
X72938Y-18446D02*
X72938Y-18867D01*
X72707Y-19098D02*
X72707Y-19231D01*
X72938Y-18867D02*
X72707Y-19098D01*
X72707Y-19231D02*
X72707Y-19231D01*
X72707Y-19231D02*
X72885Y-19231D01*
X72885Y-19231D02*
X73340Y-18776D01*
X72707Y-18377D02*
X72707Y-19231D01*
X72707Y-18446D02*
X72707Y-18377D01*
X72707Y-18377D02*
X72707Y-18370D01*
X72707Y-18370D02*
X71881Y-17545D01*
X71881Y-17545D02*
X71881Y-17545D01*
X71881Y-18446D02*
X72707Y-18446D01*
X72707Y-18446D02*
X72938Y-18446D01*
X72938Y-18446D02*
X73010Y-18446D01*
X73010Y-18446D02*
X73340Y-18776D01*
G54D62*
X87118Y-37267D02*
X87373Y-37267D01*
X87373Y-37267D02*
X88364Y-36276D01*
X87118Y-35267D02*
X87355Y-35267D01*
X87355Y-35267D02*
X88364Y-36276D01*
X87118Y-35267D02*
X87118Y-37267D01*
X71870Y-14310D02*
X71872Y-14872D01*
X71872Y-14872D02*
X71881Y-17545D01*
X71881Y-17545D02*
X71881Y-18446D01*
X88364Y-36276D02*
X87238Y-36276D01*
G54D64*
X66778Y-48265D02*
X67060Y-48265D01*
X67060Y-48265D02*
X69545Y-50750D01*
X69545Y-50750D02*
X69545Y-53970D01*
X69545Y-53970D02*
X68598Y-54916D01*
X68418Y-33243D02*
X71093Y-33243D01*
X71093Y-33243D02*
X71118Y-33267D01*
X68003Y-32356D02*
X68003Y-32338D01*
X68003Y-32338D02*
X68948Y-31394D01*
X68948Y-31394D02*
X70991Y-31394D01*
X70991Y-31394D02*
X71118Y-31267D01*
X70029Y-32356D02*
X69305Y-32356D01*
X69305Y-32356D02*
X68418Y-33243D01*
X68418Y-33243D02*
X67795Y-33867D01*
X67795Y-33867D02*
X67795Y-40670D01*
X67795Y-40670D02*
X66778Y-41686D01*
G54D62*
X66778Y-49105D02*
X66778Y-49593D01*
X68598Y-51413D02*
X68598Y-54916D01*
X68598Y-54916D02*
X68598Y-57831D01*
X66778Y-49593D02*
X68598Y-51413D01*
G54D60*
X70275Y-58410D02*
X70275Y-58482D01*
X70275Y-58482D02*
X70763Y-58970D01*
X70763Y-58410D02*
X70763Y-58970D01*
X70763Y-58970D02*
X70763Y-59038D01*
X70763Y-59038D02*
X70784Y-59059D01*
X70784Y-59059D02*
X70784Y-60014D01*
X69333Y-58563D02*
X69634Y-58563D01*
X69788Y-58410D02*
X70275Y-58410D01*
X70275Y-58410D02*
X70763Y-58410D01*
X69634Y-58563D02*
X69788Y-58410D01*
X69510Y-58740D02*
X70433Y-58740D01*
X70433Y-58740D02*
X70763Y-58410D01*
G54D61*
X70740Y-62750D02*
X70740Y-63360D01*
X70740Y-63360D02*
X70700Y-63400D01*
G54D62*
X70740Y-59970D02*
X70740Y-62750D01*
X70784Y-60014D02*
X70740Y-59970D01*
X68601Y-57831D02*
X69333Y-58563D01*
X69333Y-58563D02*
X69510Y-58740D01*
X69510Y-58740D02*
X70784Y-60014D01*
X68598Y-57831D02*
X68601Y-57831D01*
X70029Y-32356D02*
X70207Y-32356D01*
X70207Y-32356D02*
X71118Y-33267D01*
X69818Y-32356D02*
X70029Y-32356D01*
X70029Y-32356D02*
X71118Y-31267D01*
X68003Y-32356D02*
X69818Y-32356D01*
X69818Y-32356D02*
X71118Y-32356D01*
X66778Y-33581D02*
X68003Y-32356D01*
X66778Y-49105D02*
X66778Y-48265D01*
X66778Y-48265D02*
X66778Y-41686D01*
X66778Y-41686D02*
X66778Y-33581D01*
X71118Y-31267D02*
X71118Y-32356D01*
X71118Y-32356D02*
X71118Y-33267D01*
G54D65*
X91806Y-58299D02*
X91806Y-58564D01*
X91806Y-58564D02*
X92290Y-59048D01*
X92290Y-59048D02*
X95700Y-59048D01*
X95700Y-59048D02*
X96162Y-59510D01*
X96162Y-59510D02*
X96162Y-60610D01*
X96162Y-60610D02*
X96184Y-60632D01*
X96184Y-60632D02*
X96464Y-60632D01*
G54D61*
X83670Y-46960D02*
X83685Y-46975D01*
X83685Y-46975D02*
X83685Y-47500D01*
X83670Y-48020D02*
X83685Y-48035D01*
X83685Y-48035D02*
X83685Y-48590D01*
X73950Y-42495D02*
X74670Y-42495D01*
X75330Y-42495D02*
X76005Y-42495D01*
X76680Y-42495D02*
X77370Y-42495D01*
X78015Y-42495D02*
X78705Y-42495D01*
X85574Y-52110D02*
X85410Y-52110D01*
X85410Y-52110D02*
X85035Y-51735D01*
X84637Y-51307D02*
X84314Y-50984D01*
X84314Y-50984D02*
X84314Y-50850D01*
X83797Y-50467D02*
X83429Y-50099D01*
X83429Y-50099D02*
X83429Y-49965D01*
X82890Y-49560D02*
X82901Y-49548D01*
X82901Y-49548D02*
X82901Y-48960D01*
X80424Y-44065D02*
X80424Y-44174D01*
X80424Y-44174D02*
X80680Y-44430D01*
X81040Y-44890D02*
X81385Y-45235D01*
X81385Y-45235D02*
X81594Y-45235D01*
X82040Y-45890D02*
X82144Y-45785D01*
X73238Y-42944D02*
X73561Y-43267D01*
X73561Y-43267D02*
X73780Y-43267D01*
X74438Y-43267D02*
X75166Y-43267D01*
X75831Y-43267D02*
X76524Y-43267D01*
X77230Y-43267D02*
X77940Y-43267D01*
G54D65*
X96464Y-61160D02*
X96580Y-61160D01*
X97050Y-60690D02*
X97050Y-59190D01*
X96580Y-61160D02*
X97050Y-60690D01*
X92048Y-57552D02*
X95766Y-57552D01*
X79740Y-42495D02*
X83685Y-46440D01*
X83685Y-46440D02*
X83685Y-49277D01*
X83685Y-49277D02*
X91960Y-57552D01*
X91960Y-57552D02*
X92048Y-57552D01*
X71118Y-43267D02*
X71118Y-43181D01*
X71805Y-42495D02*
X78960Y-42495D01*
X71118Y-43181D02*
X71805Y-42495D01*
X78960Y-42495D02*
X79740Y-42495D01*
X96976Y-58762D02*
X97064Y-58762D01*
X95766Y-57552D02*
X96976Y-58762D01*
G54D63*
X82901Y-48228D02*
X82901Y-49437D01*
X96464Y-59086D02*
X96464Y-60632D01*
X96464Y-60632D02*
X96464Y-61160D01*
X96464Y-61160D02*
X96464Y-61259D01*
X95677Y-58299D02*
X96464Y-59086D01*
X91763Y-58299D02*
X91806Y-58299D01*
X91806Y-58299D02*
X95677Y-58299D01*
X82901Y-46543D02*
X82901Y-48228D01*
X79625Y-43267D02*
X80424Y-44065D01*
X80424Y-44065D02*
X82144Y-45785D01*
X82144Y-45785D02*
X82901Y-46543D01*
X71118Y-43267D02*
X79625Y-43267D01*
G54D66*
X96425Y-61299D02*
X96464Y-61259D01*
G54D63*
X82901Y-49437D02*
X85574Y-52110D01*
X85574Y-52110D02*
X91763Y-58299D01*
G54D66*
X96425Y-62200D02*
X96425Y-61299D01*
G54D61*
X104640Y-63822D02*
X104832Y-63822D01*
X105630Y-63874D02*
X105682Y-63822D01*
X105682Y-63822D02*
X106425Y-63822D01*
X107070Y-63874D02*
X107122Y-63822D01*
X107122Y-63822D02*
X107646Y-63822D01*
X93617Y-63874D02*
X93669Y-63822D01*
X93669Y-63822D02*
X94230Y-63822D01*
X95070Y-63874D02*
X95122Y-63822D01*
X95122Y-63822D02*
X95850Y-63822D01*
X97034Y-63874D02*
X97086Y-63822D01*
X97086Y-63822D02*
X98147Y-63822D01*
X98925Y-63874D02*
X98977Y-63822D01*
X98977Y-63822D02*
X99795Y-63822D01*
X100650Y-63874D02*
X100702Y-63822D01*
X100702Y-63822D02*
X100677Y-63822D01*
X97209Y-63822D02*
X97209Y-63322D01*
X97209Y-63322D02*
X97531Y-63000D01*
X97531Y-63000D02*
X97425Y-63000D01*
X97425Y-62200D02*
X97425Y-63000D01*
X97425Y-63000D02*
X97425Y-62894D01*
X97425Y-62894D02*
X98070Y-63539D01*
X98070Y-63539D02*
X98147Y-63539D01*
X98147Y-63539D02*
X98147Y-63822D01*
X98791Y-63168D02*
X98392Y-63168D01*
X98392Y-63168D02*
X97425Y-62200D01*
X97425Y-62200D02*
X97425Y-62456D01*
X97425Y-62456D02*
X98791Y-63822D01*
X97425Y-62200D02*
X97425Y-62456D01*
X97425Y-62456D02*
X98791Y-63822D01*
X97425Y-62200D02*
X97823Y-62200D01*
X97823Y-62200D02*
X98791Y-63168D01*
X98791Y-63168D02*
X98791Y-63168D01*
X98791Y-63168D02*
X98791Y-63822D01*
X91877Y-62287D02*
X91877Y-63387D01*
X91877Y-63387D02*
X92312Y-63822D01*
X91972Y-63111D02*
X92267Y-63111D01*
X92267Y-63111D02*
X92344Y-63188D01*
X92344Y-63188D02*
X92344Y-62914D01*
X91877Y-62287D02*
X92065Y-62287D01*
X92065Y-62287D02*
X93002Y-63224D01*
X91945Y-62771D02*
X92201Y-62771D01*
X92201Y-62771D02*
X92344Y-62914D01*
X92344Y-62914D02*
X93252Y-63822D01*
X92312Y-63822D02*
X92312Y-63451D01*
X92312Y-63451D02*
X91972Y-63111D01*
X91972Y-63111D02*
X91945Y-63084D01*
X91945Y-63084D02*
X91945Y-62771D01*
X91945Y-62771D02*
X91945Y-62354D01*
X91945Y-62354D02*
X91877Y-62287D01*
G54D64*
X108112Y-62912D02*
X108112Y-63355D01*
X108112Y-63355D02*
X107646Y-63822D01*
X107646Y-63822D02*
X104640Y-63822D01*
X104640Y-63822D02*
X100677Y-63822D01*
X100677Y-63822D02*
X98791Y-63822D01*
X98791Y-63822D02*
X98147Y-63822D01*
X98147Y-63822D02*
X97209Y-63822D01*
X97209Y-63822D02*
X93252Y-63822D01*
X93252Y-63822D02*
X92312Y-63822D01*
G54D61*
X86296Y-56758D02*
X86614Y-57076D01*
X86614Y-57076D02*
X86614Y-57525D01*
X86640Y-58200D02*
X86614Y-58225D01*
X86614Y-58225D02*
X86614Y-59175D01*
X86640Y-60180D02*
X86614Y-60205D01*
X86614Y-60205D02*
X86614Y-61155D01*
X86640Y-61952D02*
X86614Y-61977D01*
X86614Y-61977D02*
X86614Y-63118D01*
X87384Y-64013D02*
X87384Y-63889D01*
X87384Y-63889D02*
X87385Y-63889D01*
X85682Y-57300D02*
X85845Y-57463D01*
X85845Y-57463D02*
X85845Y-58020D01*
X85900Y-58710D02*
X85845Y-58765D01*
X85845Y-58765D02*
X85845Y-59775D01*
X85900Y-60690D02*
X85845Y-60745D01*
X85845Y-60745D02*
X85845Y-61530D01*
X85900Y-62510D02*
X85936Y-62546D01*
X85936Y-62546D02*
X85936Y-63206D01*
X86713Y-64013D02*
X86836Y-63889D01*
X86836Y-63889D02*
X88095Y-63889D01*
X89215Y-64013D02*
X89338Y-63889D01*
X89338Y-63889D02*
X90310Y-63889D01*
X73024Y-45255D02*
X73036Y-45267D01*
X73036Y-45267D02*
X73584Y-45267D01*
X74200Y-45267D02*
X74907Y-45267D01*
X75621Y-45267D02*
X76307Y-45267D01*
X80685Y-50300D02*
X80708Y-50323D01*
X80708Y-50323D02*
X80708Y-51181D01*
X81252Y-51607D02*
X81193Y-51666D01*
X80490Y-51930D02*
X80210Y-51650D01*
X80210Y-51650D02*
X80090Y-51650D01*
X80010Y-51070D02*
X79950Y-51010D01*
X79950Y-51010D02*
X79950Y-50490D01*
X71895Y-45960D02*
X71975Y-46040D01*
X71975Y-46040D02*
X72555Y-46040D01*
X73140Y-45960D02*
X73220Y-46040D01*
X73220Y-46040D02*
X73785Y-46040D01*
X74415Y-45960D02*
X74495Y-46040D01*
X74495Y-46040D02*
X75060Y-46040D01*
X75750Y-45960D02*
X75830Y-46040D01*
X75830Y-46040D02*
X76545Y-46040D01*
X77235Y-45960D02*
X77315Y-46040D01*
X77315Y-46040D02*
X77790Y-46040D01*
X78225Y-46410D02*
X78627Y-46812D01*
X78627Y-46812D02*
X78627Y-46877D01*
X79132Y-47317D02*
X79107Y-47342D01*
X79107Y-47342D02*
X79107Y-47357D01*
G54D65*
X90877Y-63367D02*
X90832Y-63367D01*
X90832Y-63367D02*
X90310Y-63889D01*
X85845Y-63206D02*
X85936Y-63206D01*
X71118Y-45267D02*
X71161Y-45267D01*
X85845Y-57405D02*
X85845Y-63206D01*
X79950Y-51510D02*
X80740Y-52300D01*
X80740Y-52300D02*
X85845Y-57405D01*
X79950Y-48200D02*
X79950Y-51510D01*
X77790Y-46040D02*
X79107Y-47357D01*
X79107Y-47357D02*
X79950Y-48200D01*
X71934Y-46040D02*
X77790Y-46040D01*
X71161Y-45267D02*
X71934Y-46040D01*
X85936Y-63206D02*
X86780Y-64050D01*
G54D63*
X80700Y-51181D02*
X80708Y-51181D01*
X86614Y-63118D02*
X87385Y-63889D01*
X86614Y-57086D02*
X86614Y-63118D01*
X80708Y-51181D02*
X86614Y-57086D01*
X71118Y-45267D02*
X78027Y-45267D01*
X78027Y-45267D02*
X80700Y-47940D01*
X80700Y-47940D02*
X80700Y-51181D01*
X87385Y-63889D02*
X90310Y-63889D01*
X90310Y-63889D02*
X90354Y-63889D01*
G54D65*
X90354Y-63889D02*
X90877Y-63367D01*
X90877Y-63367D02*
X90877Y-63366D01*
G54D66*
X90877Y-62287D02*
X90877Y-63366D01*
X90877Y-63366D02*
X90354Y-63889D01*
G54D63*
X90354Y-63889D02*
X90728Y-63889D01*
G54D59*
X33216Y-14350D02*
X33216Y-14547D01*
X33216Y-14547D02*
X32791Y-14972D01*
X33216Y-14350D02*
X33216Y-14488D01*
X33574Y-14846D02*
X33574Y-14976D01*
X33216Y-14488D02*
X33574Y-14846D01*
G54D66*
X33181Y-15429D02*
X33181Y-14385D01*
G54D64*
X32330Y-16279D02*
X33181Y-15429D01*
X28688Y-16279D02*
X32330Y-16279D01*
G54D66*
X33181Y-14385D02*
X33216Y-14350D01*
G54D64*
X25736Y-16279D02*
X28688Y-16279D01*
G54D57*
X25736Y-16279D02*
X28688Y-16279D01*
G54D58*
X30006Y-33690D02*
X30006Y-33678D01*
X30006Y-33678D02*
X29823Y-33495D01*
X30006Y-33698D02*
X30006Y-33690D01*
X30006Y-33690D02*
X30006Y-33672D01*
X30006Y-33672D02*
X30183Y-33495D01*
X30006Y-33495D02*
X30006Y-33698D01*
X30006Y-33698D02*
X30006Y-34173D01*
X30631Y-34527D02*
X30649Y-34545D01*
X30159Y-34326D02*
X30631Y-34527D01*
X30006Y-34173D02*
X30159Y-34326D01*
X29888Y-33396D02*
X29990Y-33396D01*
X29990Y-33396D02*
X30020Y-33426D01*
X30005Y-33279D02*
X30005Y-33317D01*
X30005Y-33317D02*
X30183Y-33495D01*
X29789Y-33495D02*
X29823Y-33495D01*
X29823Y-33495D02*
X30006Y-33495D01*
X30006Y-33495D02*
X30183Y-33495D01*
X30183Y-33495D02*
X30474Y-33495D01*
X30669Y-32822D02*
X30646Y-32799D01*
X30669Y-33300D02*
X30669Y-32822D01*
X30474Y-33495D02*
X30669Y-33300D01*
X29460Y-33495D02*
X29789Y-33495D01*
X30005Y-33279D02*
X30005Y-31085D01*
X29789Y-33495D02*
X29888Y-33396D01*
X29888Y-33396D02*
X30005Y-33279D01*
X28533Y-31542D02*
X29398Y-31542D01*
X29502Y-31088D02*
X29505Y-31085D01*
X29502Y-31438D02*
X29502Y-31088D01*
X29398Y-31542D02*
X29502Y-31438D01*
X25275Y-35310D02*
X27390Y-35310D01*
X28000Y-33495D02*
X28710Y-33495D01*
X27825Y-33670D02*
X28000Y-33495D01*
X27825Y-34875D02*
X27825Y-33670D01*
X27390Y-35310D02*
X27825Y-34875D01*
X28667Y-32560D02*
X28667Y-33452D01*
X28667Y-33452D02*
X28710Y-33495D01*
X27632Y-32580D02*
X27604Y-32580D01*
X27604Y-32580D02*
X27537Y-32513D01*
X27783Y-31542D02*
X27363Y-31542D01*
X27363Y-31542D02*
X27219Y-31686D01*
X27219Y-31686D02*
X27219Y-31884D01*
X27219Y-31884D02*
X27537Y-32202D01*
X27537Y-32202D02*
X27537Y-32513D01*
X27537Y-32513D02*
X27470Y-32580D01*
X27195Y-32580D02*
X27470Y-32580D01*
X27470Y-32580D02*
X27632Y-32580D01*
X27632Y-32580D02*
X27897Y-32580D01*
X27897Y-32580D02*
X27917Y-32560D01*
X24903Y-32326D02*
X24903Y-33131D01*
X24903Y-33131D02*
X24924Y-33152D01*
X25850Y-33327D02*
X25850Y-33293D01*
X25850Y-33293D02*
X25991Y-33152D01*
X25850Y-33003D02*
X25850Y-33011D01*
X25850Y-33011D02*
X25991Y-33152D01*
X25850Y-33152D02*
X25991Y-33152D01*
X25991Y-33152D02*
X26691Y-33152D01*
X26906Y-33367D02*
X26906Y-33725D01*
X26691Y-33152D02*
X26906Y-33367D01*
X25850Y-33703D02*
X25850Y-33327D01*
X25850Y-33327D02*
X25850Y-33152D01*
X25850Y-33152D02*
X25850Y-33003D01*
X25850Y-33003D02*
X25850Y-32754D01*
X26429Y-32564D02*
X26445Y-32580D01*
X26040Y-32564D02*
X26429Y-32564D01*
X25850Y-32754D02*
X26040Y-32564D01*
X24174Y-33152D02*
X23821Y-33152D01*
X25815Y-33738D02*
X25850Y-33703D01*
X23874Y-33738D02*
X25815Y-33738D01*
X23697Y-33561D02*
X23874Y-33738D01*
X23697Y-33276D02*
X23697Y-33561D01*
X23821Y-33152D02*
X23697Y-33276D01*
X27983Y-26070D02*
X27983Y-26066D01*
X27983Y-26066D02*
X28080Y-25970D01*
X27860Y-25970D02*
X28080Y-25970D01*
X28080Y-25970D02*
X28382Y-25970D01*
X28382Y-25970D02*
X28530Y-26118D01*
X28530Y-26118D02*
X28530Y-26406D01*
X28530Y-26406D02*
X28634Y-26510D01*
X28634Y-26510D02*
X29055Y-26510D01*
X26992Y-26848D02*
X26992Y-26324D01*
X26992Y-26324D02*
X27346Y-25970D01*
X27346Y-25970D02*
X27860Y-25970D01*
X27860Y-25970D02*
X27883Y-25970D01*
X27883Y-25970D02*
X27983Y-26070D01*
X27983Y-26070D02*
X27993Y-26080D01*
X27993Y-26080D02*
X27993Y-26477D01*
X30177Y-26510D02*
X30222Y-26510D01*
X30222Y-26510D02*
X30402Y-26330D01*
X30299Y-26632D02*
X30299Y-26433D01*
X30299Y-26433D02*
X30402Y-26330D01*
X30402Y-26330D02*
X32009Y-26330D01*
X32009Y-26330D02*
X32120Y-26441D01*
X32120Y-26441D02*
X32120Y-28325D01*
X30299Y-27126D02*
X30299Y-27068D01*
X30299Y-27068D02*
X30382Y-26985D01*
X30505Y-28885D02*
X30505Y-28415D01*
X30505Y-28415D02*
X30800Y-28120D01*
X30800Y-28120D02*
X30800Y-27727D01*
X30800Y-27727D02*
X30299Y-27226D01*
X30299Y-27226D02*
X30299Y-27126D01*
X30299Y-27126D02*
X30299Y-26902D01*
X29805Y-26510D02*
X30177Y-26510D01*
X30177Y-26510D02*
X30299Y-26632D01*
X30299Y-26632D02*
X30299Y-26902D01*
X30299Y-26902D02*
X30382Y-26985D01*
X30382Y-26985D02*
X30838Y-26985D01*
X29805Y-27410D02*
X30074Y-27410D01*
X30074Y-27410D02*
X30260Y-27596D01*
X30260Y-27596D02*
X30260Y-28110D01*
X30260Y-28110D02*
X30005Y-28365D01*
X30005Y-28365D02*
X30005Y-28885D01*
X27993Y-27479D02*
X28018Y-27479D01*
X28018Y-27479D02*
X28111Y-27572D01*
X27993Y-27665D02*
X28018Y-27665D01*
X28018Y-27665D02*
X28111Y-27572D01*
X27993Y-27572D02*
X28111Y-27572D01*
X28111Y-27572D02*
X28408Y-27572D01*
X28408Y-27572D02*
X28570Y-27410D01*
X28570Y-27410D02*
X29055Y-27410D01*
X27993Y-27227D02*
X27993Y-27479D01*
X27993Y-27479D02*
X27993Y-27572D01*
X27993Y-27572D02*
X27993Y-27665D01*
X27993Y-27665D02*
X27993Y-27933D01*
X27183Y-29615D02*
X27218Y-29615D01*
X27218Y-29615D02*
X27315Y-29518D01*
X27315Y-29518D02*
X27315Y-29495D01*
X27183Y-29398D02*
X27218Y-29398D01*
X27218Y-29398D02*
X27315Y-29495D01*
X27315Y-29495D02*
X27338Y-29518D01*
X27183Y-29518D02*
X27338Y-29518D01*
X27338Y-29518D02*
X27789Y-29518D01*
X27789Y-29518D02*
X27950Y-29358D01*
X27950Y-29358D02*
X27950Y-28726D01*
X27950Y-28726D02*
X27993Y-28683D01*
X27185Y-28945D02*
X27183Y-29398D01*
X27183Y-29398D02*
X27183Y-29518D01*
X27183Y-29518D02*
X27183Y-29615D01*
X27183Y-29615D02*
X27182Y-30019D01*
X27182Y-30019D02*
X27168Y-30033D01*
X24915Y-30840D02*
X24915Y-31305D01*
X24915Y-31305D02*
X25110Y-31500D01*
X25110Y-31500D02*
X26649Y-31500D01*
X26649Y-31500D02*
X27167Y-30982D01*
X27167Y-30982D02*
X27167Y-30669D01*
X27167Y-30669D02*
X27167Y-30490D01*
X27167Y-30490D02*
X27167Y-30306D01*
X27167Y-30306D02*
X27164Y-30037D01*
X27164Y-30037D02*
X27168Y-30033D01*
X24255Y-29250D02*
X24781Y-29250D01*
X24781Y-29250D02*
X24899Y-29368D01*
X24899Y-29368D02*
X24899Y-30074D01*
X24899Y-30074D02*
X24915Y-30090D01*
X36743Y-44348D02*
X36778Y-44348D01*
X36778Y-44348D02*
X37083Y-44043D01*
X37083Y-44043D02*
X37083Y-43611D01*
X36783Y-44348D02*
X36743Y-44348D01*
X36545Y-44586D02*
X36783Y-44348D01*
X45215Y-23405D02*
X45215Y-23419D01*
X45215Y-23419D02*
X45325Y-23529D01*
X45215Y-23415D02*
X45215Y-23405D01*
X45215Y-23405D02*
X45325Y-23295D01*
X44352Y-23978D02*
X44352Y-23670D01*
X44607Y-23415D02*
X45215Y-23415D01*
X45215Y-23415D02*
X45325Y-23415D01*
X44352Y-23670D02*
X44607Y-23415D01*
X45325Y-22936D02*
X45325Y-23295D01*
X45325Y-23295D02*
X45325Y-23415D01*
X45325Y-23415D02*
X45325Y-23529D01*
X45325Y-23529D02*
X45325Y-23782D01*
X45325Y-23782D02*
X45339Y-23796D01*
X44177Y-24943D02*
X44237Y-24943D01*
X44237Y-24943D02*
X44352Y-25058D01*
X44352Y-24728D02*
X44352Y-25058D01*
X44352Y-25058D02*
X44352Y-25123D01*
X44352Y-25123D02*
X44564Y-25335D01*
X44564Y-25335D02*
X44564Y-25514D01*
X44352Y-24728D02*
X44352Y-24768D01*
X44118Y-30629D02*
X44118Y-31251D01*
X43930Y-30441D02*
X44118Y-30629D01*
X43930Y-25190D02*
X43930Y-30441D01*
X44352Y-24768D02*
X44177Y-24943D01*
X44177Y-24943D02*
X43930Y-25190D01*
X43074Y-27015D02*
X43547Y-27015D01*
X43618Y-27087D02*
X43618Y-31251D01*
X43547Y-27015D02*
X43618Y-27087D01*
X43074Y-27354D02*
X43074Y-27015D01*
X43074Y-27015D02*
X43074Y-26524D01*
X49868Y-38411D02*
X49868Y-38861D01*
X50053Y-39046D02*
X50053Y-40461D01*
X49868Y-38861D02*
X50053Y-39046D01*
X44618Y-30423D02*
X44619Y-30423D01*
X44619Y-30423D02*
X44763Y-30279D01*
X44618Y-30162D02*
X44646Y-30162D01*
X44646Y-30162D02*
X44763Y-30279D01*
X44618Y-30279D02*
X44763Y-30279D01*
X44763Y-30279D02*
X45277Y-30279D01*
X45277Y-30279D02*
X45308Y-30309D01*
X44618Y-31251D02*
X44618Y-30423D01*
X44618Y-30423D02*
X44618Y-30279D01*
X44618Y-30279D02*
X44618Y-30162D01*
X44618Y-30162D02*
X44618Y-26318D01*
X44618Y-26318D02*
X44564Y-26264D01*
X45437Y-31955D02*
X46402Y-31955D01*
X46578Y-32626D02*
X46597Y-32645D01*
X46578Y-32131D02*
X46578Y-32626D01*
X46402Y-31955D02*
X46578Y-32131D01*
X44618Y-31251D02*
X44618Y-31709D01*
X45418Y-31937D02*
X45437Y-31955D01*
X44846Y-31937D02*
X45418Y-31937D01*
X44618Y-31709D02*
X44846Y-31937D01*
X50791Y-24716D02*
X50815Y-24716D01*
X50815Y-24716D02*
X50988Y-24889D01*
X50870Y-24716D02*
X50870Y-24771D01*
X50870Y-24771D02*
X50988Y-24889D01*
X47315Y-26240D02*
X47315Y-25626D01*
X47315Y-25626D02*
X47208Y-25519D01*
X50988Y-25047D02*
X50988Y-24889D01*
X50972Y-24716D02*
X50870Y-24716D01*
X50988Y-24889D02*
X50988Y-24732D01*
X50988Y-24732D02*
X50972Y-24716D01*
X50870Y-24716D02*
X50791Y-24716D01*
X50791Y-24716D02*
X50003Y-24716D01*
G54D59*
X48413Y-35531D02*
X48413Y-34224D01*
X48546Y-34092D02*
X48546Y-33460D01*
X48413Y-34224D02*
X48546Y-34092D01*
X46251Y-40694D02*
X47084Y-40694D01*
X47084Y-40694D02*
X47619Y-40159D01*
X47619Y-40159D02*
X47619Y-37067D01*
X47619Y-37067D02*
X48413Y-36273D01*
X48413Y-36273D02*
X48413Y-35531D01*
G54D58*
X42090Y-34044D02*
X42090Y-34377D01*
X42199Y-34486D02*
X42943Y-34486D01*
X42090Y-34377D02*
X42199Y-34486D01*
X43118Y-33451D02*
X43118Y-33782D01*
X43118Y-33782D02*
X42956Y-33944D01*
X42956Y-33944D02*
X42956Y-34473D01*
X42956Y-34473D02*
X42943Y-34486D01*
X43693Y-34486D02*
X44443Y-34486D01*
X44767Y-34811D02*
X45455Y-34811D01*
X44443Y-34486D02*
X44767Y-34811D01*
X43618Y-33451D02*
X43618Y-33819D01*
X43618Y-33819D02*
X43704Y-33905D01*
X43704Y-33905D02*
X43704Y-34475D01*
X43704Y-34475D02*
X43693Y-34486D01*
X41409Y-44724D02*
X41442Y-44724D01*
X41442Y-44724D02*
X41556Y-44838D01*
X42366Y-44838D02*
X41556Y-44838D01*
X41556Y-44838D02*
X41454Y-44838D01*
X41454Y-44838D02*
X41409Y-44793D01*
X41409Y-44793D02*
X41409Y-44724D01*
X41409Y-44724D02*
X41409Y-44468D01*
X41409Y-44468D02*
X41409Y-44456D01*
X41421Y-44456D02*
X41409Y-44456D01*
X41421Y-44456D02*
X41303Y-44574D01*
X41421Y-44634D02*
X41421Y-44456D01*
X41421Y-44456D02*
X41416Y-43710D01*
X41416Y-43710D02*
X41475Y-43652D01*
X40567Y-45181D02*
X40567Y-44784D01*
X40717Y-44634D02*
X41421Y-44634D01*
X40567Y-44784D02*
X40717Y-44634D01*
X39998Y-45181D02*
X40567Y-45181D01*
X40567Y-45181D02*
X40897Y-45181D01*
X40897Y-45181D02*
X40908Y-45192D01*
X51293Y-38637D02*
X51293Y-38310D01*
X51970Y-38156D02*
X52020Y-38206D01*
X51448Y-38156D02*
X51970Y-38156D01*
X51293Y-38310D02*
X51448Y-38156D01*
X51293Y-39086D02*
X51293Y-38637D01*
X50553Y-40461D02*
X50553Y-39397D01*
X51247Y-39132D02*
X51293Y-39086D01*
X50818Y-39132D02*
X51247Y-39132D01*
X50553Y-39397D02*
X50818Y-39132D01*
X52043Y-39086D02*
X52848Y-39086D01*
X52848Y-39086D02*
X52858Y-39076D01*
X49553Y-40461D02*
X49553Y-40821D01*
X49948Y-41216D02*
X51893Y-41216D01*
X49553Y-40821D02*
X49948Y-41216D01*
X54938Y-39683D02*
X55664Y-39683D01*
X54914Y-39707D02*
X54938Y-39683D01*
X51053Y-39974D02*
X51053Y-39797D01*
X51053Y-39797D02*
X51056Y-39794D01*
X51053Y-40461D02*
X51053Y-39974D01*
X51053Y-39974D02*
X51053Y-39942D01*
X51465Y-39898D02*
X51703Y-40136D01*
X51097Y-39898D02*
X51465Y-39898D01*
X51053Y-39942D02*
X51097Y-39898D01*
X49553Y-42661D02*
X49553Y-43047D01*
X49773Y-43267D02*
X49773Y-43996D01*
X49553Y-43047D02*
X49773Y-43267D01*
G54D59*
X51970Y-44582D02*
X51979Y-44582D01*
X51979Y-44582D02*
X52215Y-44346D01*
X51970Y-44346D02*
X52215Y-44346D01*
X52215Y-44346D02*
X53588Y-44346D01*
X53588Y-44346D02*
X53595Y-44339D01*
X53595Y-44339D02*
X54401Y-44339D01*
X54401Y-44339D02*
X54764Y-43976D01*
X54764Y-43976D02*
X54764Y-42794D01*
G54D58*
X50523Y-43996D02*
X50523Y-43844D01*
X50623Y-43744D02*
X50523Y-43996D01*
X50523Y-43844D02*
X50623Y-43744D01*
X50553Y-43759D02*
X50608Y-43759D01*
X50623Y-43774D02*
X50623Y-43641D01*
X50608Y-43759D02*
X50623Y-43774D01*
X50553Y-43867D02*
X50624Y-43867D01*
X50624Y-43867D02*
X50737Y-43755D01*
X50553Y-43571D02*
X50553Y-43759D01*
X50553Y-43759D02*
X50553Y-43867D01*
G54D59*
X50553Y-42661D02*
X50553Y-43571D01*
X51970Y-44318D02*
X51970Y-44346D01*
X51970Y-44346D02*
X51970Y-44582D01*
X51970Y-44582D02*
X51970Y-45060D01*
X50737Y-43755D02*
X51048Y-44066D01*
X51048Y-44066D02*
X51718Y-44066D01*
X51718Y-44066D02*
X51970Y-44318D01*
X50553Y-43571D02*
X50623Y-43641D01*
X50623Y-43641D02*
X50737Y-43755D01*
G54D58*
X51219Y-36501D02*
X51386Y-36668D01*
X51386Y-36668D02*
X53249Y-36668D01*
X53249Y-36668D02*
X53253Y-36671D01*
X51128Y-35921D02*
X51128Y-36410D01*
X51536Y-36668D02*
X51536Y-36671D01*
X51386Y-36668D02*
X51536Y-36668D01*
X51536Y-36671D02*
X53253Y-36671D01*
X51128Y-36410D02*
X51219Y-36501D01*
X51219Y-36501D02*
X51386Y-36668D01*
X51098Y-34395D02*
X51098Y-35141D01*
X51098Y-35141D02*
X51128Y-35171D01*
X47320Y-28524D02*
X47320Y-29090D01*
X47320Y-29090D02*
X47146Y-29264D01*
X47146Y-29264D02*
X47074Y-29264D01*
X47074Y-29264D02*
X46856Y-29482D01*
X46856Y-29482D02*
X46856Y-30263D01*
X46856Y-30263D02*
X47101Y-30508D01*
X47101Y-30508D02*
X48214Y-30508D01*
X48214Y-30508D02*
X48431Y-30291D01*
X48431Y-30291D02*
X48948Y-30291D01*
X47339Y-42724D02*
X47600Y-42724D01*
X47600Y-42724D02*
X47659Y-42665D01*
X47312Y-42093D02*
X47312Y-41566D01*
X47344Y-41535D02*
X47640Y-41535D01*
X47312Y-41566D02*
X47344Y-41535D01*
X46339Y-43970D02*
X47198Y-43970D01*
X47360Y-43019D02*
X47339Y-42998D01*
X47360Y-43808D02*
X47360Y-43019D01*
X47198Y-43970D02*
X47360Y-43808D01*
X47312Y-42301D02*
X47312Y-42625D01*
X47312Y-42625D02*
X47339Y-42652D01*
X47128Y-42494D02*
X47181Y-42494D01*
X47181Y-42494D02*
X47339Y-42652D01*
X47339Y-42652D02*
X47339Y-42724D01*
X47339Y-42724D02*
X47339Y-42998D01*
X46251Y-42494D02*
X47128Y-42494D01*
X47128Y-42494D02*
X47152Y-42494D01*
X47312Y-42334D02*
X47312Y-42301D01*
X47312Y-42301D02*
X47312Y-42093D01*
X47152Y-42494D02*
X47312Y-42334D01*
X47830Y-26240D02*
X47830Y-25446D01*
X49019Y-24755D02*
X49058Y-24716D01*
X49019Y-25097D02*
X49019Y-24755D01*
X48865Y-25251D02*
X49019Y-25097D01*
X48025Y-25251D02*
X48865Y-25251D01*
X47830Y-25446D02*
X48025Y-25251D01*
X47570Y-28524D02*
X47580Y-29836D01*
X47580Y-29836D02*
X47598Y-29854D01*
X48085Y-26240D02*
X48085Y-25688D01*
X48085Y-25688D02*
X48208Y-25565D01*
X48208Y-25565D02*
X50997Y-25565D01*
X50997Y-25565D02*
X51288Y-25856D01*
X51288Y-25856D02*
X51290Y-25856D01*
X51290Y-25856D02*
X51525Y-26091D01*
X51525Y-26091D02*
X51525Y-30217D01*
X51056Y-30217D02*
X51525Y-30217D01*
X51525Y-30217D02*
X51970Y-30217D01*
X51970Y-30217D02*
X51982Y-30205D01*
G54D64*
X15314Y-25763D02*
X15314Y-28468D01*
X15314Y-28468D02*
X15303Y-28480D01*
G54D58*
X48948Y-31041D02*
X49543Y-31041D01*
X49543Y-31041D02*
X49938Y-30646D01*
X49938Y-30646D02*
X49938Y-27699D01*
X49938Y-27699D02*
X49990Y-27646D01*
X47438Y-30884D02*
X47531Y-30884D01*
X47531Y-30884D02*
X47691Y-31044D01*
X47691Y-31044D02*
X47691Y-31099D01*
X47598Y-31169D02*
X47621Y-31169D01*
X47621Y-31169D02*
X47691Y-31099D01*
X47691Y-31099D02*
X47746Y-31044D01*
X47598Y-31044D02*
X47746Y-31044D01*
X47746Y-31044D02*
X48945Y-31044D01*
X48945Y-31044D02*
X48948Y-31041D01*
X47060Y-28524D02*
X47060Y-28900D01*
X47060Y-28900D02*
X46597Y-29363D01*
X46597Y-29363D02*
X46597Y-30691D01*
X46597Y-30691D02*
X46790Y-30884D01*
X46790Y-30884D02*
X47438Y-30884D01*
X47438Y-30884D02*
X47598Y-31044D01*
X47598Y-31044D02*
X47598Y-31169D01*
X47598Y-31169D02*
X47598Y-31681D01*
X45683Y-28607D02*
X45683Y-25457D01*
X45683Y-25457D02*
X45717Y-25424D01*
X47333Y-24581D02*
X48067Y-24581D01*
X48067Y-24581D02*
X48074Y-24574D01*
X45683Y-28607D02*
X45683Y-29443D01*
X47333Y-24581D02*
X47333Y-25112D01*
X47570Y-25349D02*
X47570Y-26240D01*
X47333Y-25112D02*
X47570Y-25349D01*
G54D59*
X31590Y-21637D02*
X32425Y-21637D01*
X32543Y-21755D02*
X32543Y-22054D01*
X32425Y-21637D02*
X32543Y-21755D01*
X31386Y-21862D02*
X31386Y-21841D01*
X31386Y-21841D02*
X31590Y-21637D01*
X31590Y-21637D02*
X31641Y-21586D01*
X31386Y-21358D02*
X31413Y-21358D01*
X31413Y-21358D02*
X31641Y-21586D01*
X31641Y-21586D02*
X31653Y-21598D01*
X31386Y-21598D02*
X31653Y-21598D01*
X31386Y-22177D02*
X31386Y-21862D01*
X31386Y-21862D02*
X31386Y-21598D01*
X31386Y-21598D02*
X31386Y-21358D01*
X31386Y-21358D02*
X31386Y-21329D01*
X31767Y-20952D02*
X31767Y-20615D01*
X31614Y-21106D02*
X31767Y-20952D01*
X31610Y-21106D02*
X31614Y-21106D01*
X31386Y-21329D02*
X31610Y-21106D01*
G54D58*
X21555Y-44215D02*
X21863Y-44215D01*
X21969Y-44321D02*
X24151Y-44321D01*
X21863Y-44215D02*
X21969Y-44321D01*
X21265Y-44215D02*
X21555Y-44215D01*
X24170Y-45750D02*
X23485Y-45750D01*
X24300Y-45620D02*
X24170Y-45750D01*
X24300Y-44470D02*
X24300Y-45620D01*
X24151Y-44321D02*
X24300Y-44470D01*
X21265Y-43715D02*
X22430Y-43715D01*
X22430Y-43715D02*
X22435Y-43720D01*
X31410Y-36510D02*
X31413Y-37696D01*
X31413Y-37696D02*
X31433Y-37716D01*
X32774Y-36313D02*
X33924Y-37706D01*
X33924Y-37706D02*
X33920Y-37710D01*
X37930Y-25265D02*
X37928Y-26307D01*
X38008Y-26387D02*
X37908Y-26382D01*
X37928Y-26307D02*
X38008Y-26387D01*
X30725Y-43570D02*
X30725Y-44137D01*
X32693Y-44247D02*
X32700Y-44254D01*
X30835Y-44247D02*
X32693Y-44247D01*
X30725Y-44137D02*
X30835Y-44247D01*
X66110Y-59931D02*
X66701Y-59931D01*
X67712Y-60935D02*
X68605Y-60935D01*
X67477Y-60700D02*
X67712Y-60935D01*
X67470Y-60700D02*
X67477Y-60700D01*
X66701Y-59931D02*
X67470Y-60700D01*
X66110Y-59700D02*
X66110Y-59931D01*
X66110Y-59931D02*
X66110Y-60200D01*
X26930Y-43920D02*
X26930Y-44346D01*
X28724Y-44370D02*
X28724Y-43960D01*
X28546Y-44548D02*
X28724Y-44370D01*
X27132Y-44548D02*
X28546Y-44548D01*
X26930Y-44346D02*
X27132Y-44548D01*
X64943Y-18274D02*
X66436Y-18274D01*
X67136Y-18483D02*
X67136Y-19748D01*
X66925Y-18272D02*
X67136Y-18483D01*
X66438Y-18272D02*
X66925Y-18272D01*
X66436Y-18274D02*
X66438Y-18272D01*
X63910Y-60200D02*
X64491Y-60200D01*
X64923Y-58373D02*
X64467Y-58373D01*
X64982Y-58432D02*
X64923Y-58373D01*
X64982Y-59704D02*
X64982Y-58432D01*
X64757Y-59929D02*
X64982Y-59704D01*
X64757Y-59934D02*
X64757Y-59929D01*
X64491Y-60200D02*
X64757Y-59934D01*
X27213Y-46120D02*
X27213Y-46640D01*
X33570Y-48900D02*
X34275Y-48900D01*
X33360Y-48690D02*
X33570Y-48900D01*
X33360Y-48190D02*
X33360Y-48690D01*
X32105Y-46935D02*
X33360Y-48190D01*
X27508Y-46935D02*
X32105Y-46935D01*
X27213Y-46640D02*
X27508Y-46935D01*
X26930Y-46120D02*
X27213Y-46120D01*
X27213Y-46120D02*
X27430Y-46120D01*
X31014Y-45770D02*
X31014Y-46382D01*
X34255Y-47390D02*
X34275Y-47370D01*
X33033Y-47390D02*
X34255Y-47390D01*
X32207Y-46564D02*
X33033Y-47390D01*
X31196Y-46564D02*
X32207Y-46564D01*
X31014Y-46382D02*
X31196Y-46564D01*
X30725Y-45770D02*
X31014Y-45770D01*
X31014Y-45770D02*
X31225Y-45770D01*
X66904Y-17548D02*
X66904Y-16499D01*
X66636Y-17548D02*
X66904Y-17548D01*
X66904Y-17548D02*
X67136Y-17548D01*
G54D59*
X121271Y-45849D02*
X121271Y-44945D01*
X121271Y-44945D02*
X121292Y-44925D01*
X121074Y-48137D02*
X121078Y-48137D01*
X121311Y-47905D02*
X121311Y-47169D01*
X121078Y-48137D02*
X121311Y-47905D01*
X120375Y-48137D02*
X121074Y-48137D01*
X121074Y-48137D02*
X121102Y-48137D01*
X121311Y-46638D02*
X121271Y-46599D01*
X121311Y-47169D02*
X121311Y-46638D01*
X118878Y-48137D02*
X119625Y-48137D01*
G54D58*
X40185Y-26970D02*
X40764Y-26970D01*
X41015Y-28535D02*
X41510Y-28535D01*
X40930Y-28450D02*
X41015Y-28535D01*
X40930Y-27136D02*
X40930Y-28450D01*
X40764Y-26970D02*
X40930Y-27136D01*
X40185Y-27970D02*
X40185Y-28278D01*
X40046Y-28417D02*
X40046Y-28817D01*
X40185Y-28278D02*
X40046Y-28417D01*
X41510Y-27785D02*
X41953Y-27785D01*
X42043Y-29175D02*
X41310Y-29175D01*
X42126Y-29092D02*
X42043Y-29175D01*
X42126Y-27958D02*
X42126Y-29092D01*
X41953Y-27785D02*
X42126Y-27958D01*
X41486Y-27056D02*
X41486Y-27761D01*
X41486Y-27761D02*
X41510Y-27785D01*
X39048Y-29102D02*
X39308Y-29102D01*
X39587Y-29567D02*
X40046Y-29567D01*
X39435Y-29415D02*
X39587Y-29567D01*
X39435Y-29229D02*
X39435Y-29415D01*
X39308Y-29102D02*
X39435Y-29229D01*
X39885Y-30590D02*
X39885Y-30082D01*
X40046Y-29921D02*
X40046Y-29567D01*
X39885Y-30082D02*
X40046Y-29921D01*
X39885Y-30590D02*
X39885Y-31370D01*
X39885Y-31370D02*
X39865Y-31390D01*
G54D65*
X19921Y-36153D02*
X19921Y-36932D01*
X19921Y-36932D02*
X19910Y-36944D01*
G54D61*
X19910Y-36944D02*
X19910Y-36164D01*
X19910Y-36164D02*
X19921Y-36153D01*
G54D64*
X19910Y-37554D02*
X19910Y-36944D01*
X19910Y-36944D02*
X19915Y-36939D01*
X19910Y-38808D02*
X19910Y-37554D01*
G54D60*
X32330Y-52245D02*
X32330Y-52137D01*
X32330Y-52137D02*
X31913Y-51720D01*
X32330Y-51359D02*
X32274Y-51359D01*
X32274Y-51359D02*
X31913Y-51720D01*
X32330Y-51720D02*
X31913Y-51720D01*
X31913Y-51720D02*
X31067Y-51720D01*
X31067Y-51720D02*
X31057Y-51730D01*
X30980Y-48356D02*
X31664Y-48356D01*
X35466Y-59094D02*
X35775Y-59094D01*
X33638Y-57266D02*
X35466Y-59094D01*
X33638Y-55374D02*
X33638Y-57266D01*
X32330Y-54066D02*
X33638Y-55374D01*
X32330Y-49022D02*
X32330Y-51359D01*
X32330Y-51359D02*
X32330Y-51720D01*
X32330Y-51720D02*
X32330Y-52245D01*
X32330Y-52245D02*
X32330Y-54066D01*
X31664Y-48356D02*
X32330Y-49022D01*
G54D59*
X123584Y-15897D02*
X123584Y-18344D01*
X123584Y-18344D02*
X123980Y-18740D01*
X123980Y-18740D02*
X124006Y-18740D01*
X124006Y-18740D02*
X124299Y-19033D01*
X124299Y-19033D02*
X125693Y-19033D01*
X126300Y-19640D02*
X125693Y-19033D01*
X123584Y-15897D02*
X123584Y-14570D01*
G54D58*
X45619Y-36621D02*
X45619Y-37237D01*
X45619Y-37237D02*
X45720Y-37338D01*
X44294Y-38114D02*
X45445Y-38114D01*
X45720Y-37839D02*
X45720Y-37338D01*
X45445Y-38114D02*
X45720Y-37839D01*
X42875Y-38110D02*
X43425Y-38110D01*
X43425Y-38110D02*
X43439Y-38124D01*
X38451Y-33935D02*
X38451Y-34482D01*
X38451Y-34482D02*
X38588Y-34619D01*
X38588Y-34619D02*
X38588Y-34632D01*
X38588Y-34632D02*
X38797Y-34632D01*
X40306Y-35196D02*
X40306Y-35203D01*
X39361Y-35196D02*
X40306Y-35196D01*
X38797Y-34632D02*
X39361Y-35196D01*
X41713Y-35203D02*
X41986Y-35476D01*
X40306Y-35203D02*
X41713Y-35203D01*
X38451Y-33935D02*
X38568Y-33797D01*
X41986Y-35921D02*
X42115Y-36050D01*
X41986Y-35476D02*
X41986Y-35921D01*
X42115Y-37050D02*
X42115Y-38100D01*
X42115Y-38100D02*
X42125Y-38110D01*
X39759Y-33807D02*
X39756Y-33807D01*
X39756Y-33807D02*
X39628Y-33935D01*
X39759Y-33789D02*
X39759Y-33807D01*
X39759Y-33807D02*
X39887Y-33935D01*
X38895Y-33050D02*
X39504Y-33050D01*
X39759Y-33305D02*
X39759Y-33789D01*
X39759Y-33789D02*
X39759Y-33935D01*
X39504Y-33050D02*
X39759Y-33305D01*
X40386Y-34054D02*
X40386Y-34046D01*
X40386Y-34046D02*
X40275Y-33935D01*
X39201Y-33935D02*
X39628Y-33935D01*
X39628Y-33935D02*
X39759Y-33935D01*
X39759Y-33935D02*
X39887Y-33935D01*
X39887Y-33935D02*
X40275Y-33935D01*
X40275Y-33935D02*
X40307Y-33935D01*
X40307Y-33935D02*
X40386Y-33856D01*
X40386Y-33431D02*
X40386Y-33856D01*
X40386Y-33856D02*
X40386Y-34054D01*
X40386Y-34054D02*
X40386Y-34344D01*
G54D57*
X109240Y-33759D02*
X109641Y-33759D01*
X106440Y-33818D02*
X106500Y-33759D01*
X106500Y-33759D02*
X109240Y-33759D01*
X109751Y-33649D02*
X109751Y-33503D01*
X109641Y-33759D02*
X109751Y-33649D01*
G54D58*
X86361Y-16503D02*
X86361Y-17655D01*
X86361Y-17655D02*
X86363Y-17657D01*
X86363Y-18657D02*
X86363Y-19966D01*
X86363Y-19966D02*
X86342Y-19987D01*
M02*
