G04 (created by PCBNEW (2013-07-07 BZR 4022)-stable) date 31-01-2015 18:12:54*
%MOIN*%
G04 Gerber Fmt 3.4, Leading zero omitted, Abs format*
%FSLAX34Y34*%
G01*
G70*
G90*
G04 APERTURE LIST*
%ADD10C,0.00590551*%
%ADD11C,0.00393701*%
G04 APERTURE END LIST*
G54D10*
G54D11*
X12677Y-65034D02*
X12677Y-65036D01*
X12169Y-65034D02*
X12677Y-65034D01*
X12089Y-65034D02*
X12180Y-65034D01*
X12089Y-61852D02*
X12089Y-65034D01*
X15168Y-65034D02*
X12624Y-65034D01*
X158941Y-64542D02*
X158940Y-64542D01*
X158941Y-65034D02*
X158941Y-64542D01*
X157555Y-65034D02*
X158941Y-65034D01*
X158941Y-63315D02*
X158941Y-64824D01*
X12090Y-12937D02*
X13200Y-12937D01*
X12090Y-15233D02*
X12090Y-12937D01*
X15253Y-12936D02*
X12372Y-12936D01*
X158941Y-12935D02*
X157440Y-12935D01*
X158941Y-16705D02*
X158941Y-12935D01*
X158940Y-16708D02*
X158940Y-63334D01*
X15330Y-61980D02*
X15322Y-61980D01*
X12088Y-15238D02*
X12088Y-61853D01*
X15734Y-15117D02*
X15739Y-15117D01*
X15729Y-15112D02*
X15734Y-15117D01*
X157560Y-65034D02*
X15165Y-65034D01*
X15253Y-12936D02*
X157648Y-12936D01*
M02*
