M48
;DRILL file {Pcbnew (2013-07-07 BZR 4022)-stable} date 31-01-2015 18:09:03
;FORMAT={-:-/ absolute / metric / decimal}
FMAT,2
METRIC,TZ
T1C0.635
T2C0.800
T3C0.813
T4C0.820
T5C0.900
T6C1.000
T7C1.020
T8C1.050
T9C1.100
T10C1.143
T11C1.190
T12C1.200
T13C1.300
T14C1.500
T15C1.600
T16C1.800
T17C2.000
T18C2.320
%
G90
G05
M71
T1
X33.398Y-53.642
X33.398Y-63.5
X33.398Y-74.041
X33.398Y-83.439
X33.398Y-94.488
X33.398Y-106.675
X33.398Y-118.11
X33.398Y-131.674
X33.398Y-144.348
X33.404Y-58.039
X33.404Y-68.834
X33.404Y-78.867
X33.404Y-89.027
X33.404Y-102.375
X33.404Y-111.506
X33.404Y-125.73
X33.404Y-141.488
X36.252Y-147.118
X38.402Y-149.352
X42.357Y-37.17
X44.872Y-39.06
X44.872Y-42.189
X45.618Y-37.16
X45.753Y-149.352
X48.56Y-162.89
X48.768Y-37.17
X50.571Y-95.387
X50.571Y-98.572
X51.625Y-162.723
X52.332Y-149.352
X54.254Y-162.89
X56.612Y-104.422
X56.845Y-162.723
X57.058Y-37.17
X57.981Y-97.871
X58.613Y-113.97
X58.674Y-88.189
X58.699Y-36.35
X59.279Y-91.194
X59.279Y-97.274
X59.687Y-80.284
X59.862Y-149.822
X61.189Y-36.424
X61.41Y-151.37
X61.58Y-154.81
X61.839Y-109.098
X62.636Y-36.35
X62.992Y-149.352
X64.008Y-162.89
X64.773Y-108.565
X65.799Y-149.352
X66.98Y-78.689
X67.056Y-162.723
X67.084Y-113.866
X68.113Y-105.796
X68.237Y-92.621
X68.435Y-119.606
X68.506Y-108.013
X70.465Y-162.89
X72.878Y-118.232
X73.Y-108.356
X76.312Y-88.882
X76.779Y-162.723
X76.802Y-112.197
X77.572Y-91.387
X78.821Y-98.527
X79.863Y-107.798
X80.02Y-162.89
X80.658Y-65.151
X80.9Y-47.6
X81.943Y-81.336
X82.575Y-69.444
X82.626Y-64.643
X83.459Y-98.768
X83.464Y-85.954
X83.706Y-88.582
X83.876Y-162.723
X84.056Y-83.142
X84.605Y-84.64
X84.788Y-115.283
X86.159Y-65.872
X86.385Y-71.907
X86.731Y-85.486
X87.025Y-115.301
X87.452Y-77.219
X87.549Y-87.389
X88.389Y-83.096
X88.618Y-76.479
X89.992Y-70.714
X90.607Y-105.827
X92.598Y-84.188
X92.824Y-113.248
X93.063Y-88.582
X93.659Y-94.093
X93.683Y-45.979
X94.191Y-110.772
X94.483Y-70.675
X94.79Y-118.725
X95.43Y-90.251
X95.933Y-86.149
X96.022Y-88.814
X96.322Y-71.907
X96.385Y-132.479
X98.092Y-78.801
X98.146Y-130.95
X98.626Y-90.83
X98.803Y-110.439
X99.01Y-119.12
X99.017Y-72.098
X99.979Y-120.998
X100.03Y-106.129
X101.305Y-67.107
X101.488Y-83.302
X101.51Y-119.12
X101.603Y-112.37
X102.047Y-103.213
X102.184Y-110.426
X102.768Y-91.336
X102.837Y-65.151
X105.214Y-60.602
X105.522Y-58.933
X106.129Y-63.848
X106.185Y-117.879
X106.426Y-101.275
X107.935Y-54.635
X108.867Y-111.183
X109.352Y-73.975
X110.335Y-96.835
X110.437Y-118.885
X111.067Y-113.033
X111.404Y-133.159
X111.712Y-46.761
X112.227Y-100.83
X112.507Y-96.81
X114.041Y-101.597
X114.757Y-49.881
X116.121Y-64.577
X116.324Y-100.058
X116.434Y-110.007
X116.548Y-97.381
X117.193Y-101.43
X117.5Y-53.14
X117.713Y-62.967
X117.846Y-96.652
X119.39Y-98.656
X119.398Y-109.682
X119.535Y-112.746
X119.548Y-88.138
X119.91Y-64.82
X120.663Y-155.829
X121.844Y-112.288
X122.11Y-62.42
X123.091Y-115.125
X123.535Y-121.971
X123.548Y-102.184
X125.082Y-123.215
X125.21Y-120.62
X125.715Y-87.142
X125.776Y-88.605
X127.229Y-93.142
X127.533Y-57.887
X127.714Y-55.847
X128.207Y-116.776
X128.549Y-54.254
X129.083Y-123.198
X129.51Y-63.62
X129.684Y-101.079
X131.242Y-36.195
X131.695Y-78.658
X132.131Y-120.609
X133.546Y-58.105
X133.546Y-64.524
X134.442Y-36.223
X135.763Y-60.503
X135.788Y-58.039
X137.556Y-81.648
X137.668Y-36.204
X137.671Y-144.925
X138.247Y-48.448
X139.483Y-100.858
X139.52Y-95.39
X139.642Y-115.907
X140.157Y-36.241
X140.61Y-97.22
X140.877Y-70.248
X142.646Y-36.204
X143.881Y-68.1
X144.249Y-94.91
X144.409Y-151.557
X144.711Y-156.624
X145.085Y-81.763
X146.613Y-44.345
X146.952Y-90.373
X146.99Y-55.207
X149.466Y-43.577
X149.758Y-56.05
X152.193Y-56.139
X152.209Y-43.51
X154.962Y-55.973
X155.151Y-148.443
X155.21Y-43.577
X155.829Y-49.454
X156.362Y-83.858
X157.201Y-90.348
X157.502Y-55.948
X157.861Y-112.486
X159.334Y-53.035
X161.036Y-44.526
X161.29Y-111.023
X162.306Y-141.351
X164.173Y-141.77
X165.085Y-154.178
X166.444Y-53.127
X169.012Y-133.985
X169.154Y-51.664
X169.736Y-155.608
X170.376Y-69.713
X171.815Y-56.037
X174.101Y-56.037
X175.51Y-52.62
X176.234Y-55.999
X178.91Y-68.02
X179.01Y-65.52
X180.71Y-73.52
X182.613Y-116.738
X184.29Y-116.942
X185.481Y-114.948
X185.776Y-116.738
X186.025Y-109.078
X186.31Y-65.52
X186.61Y-51.92
X186.903Y-114.98
X187.401Y-109.9
X187.414Y-116.942
X187.61Y-68.02
X187.833Y-107.937
X188.468Y-114.98
X189.014Y-116.738
X189.073Y-109.9
X189.547Y-69.433
X189.662Y-107.937
X189.713Y-159.22
X190.264Y-114.98
X190.652Y-116.942
X190.856Y-70.642
X190.922Y-109.9
X191.338Y-107.937
X191.986Y-72.161
X192.077Y-114.98
X192.405Y-116.738
X192.611Y-109.9
X193.053Y-107.937
X193.51Y-73.52
X193.82Y-114.98
X194.371Y-109.9
X194.424Y-116.942
X194.767Y-107.937
X196.164Y-109.9
X196.177Y-116.738
X196.52Y-107.937
X197.587Y-116.942
X197.968Y-109.9
X198.158Y-107.937
X198.691Y-117.881
X199.693Y-40.271
X199.714Y-119.069
X199.911Y-107.937
X200.997Y-120.186
X202.302Y-40.271
X203.073Y-128.245
X203.225Y-129.718
X203.429Y-131.191
X203.759Y-49.911
X203.811Y-41.612
X203.867Y-43.345
X203.867Y-45.72
X203.867Y-46.838
X203.867Y-48.609
X204.445Y-131.902
X204.927Y-112.852
X204.94Y-127.762
X205.Y-130.
X205.08Y-132.842
X205.842Y-114.021
X206.381Y-131.083
X207.249Y-114.899
X208.382Y-116.561
X210.541Y-125.882
X210.57Y-124.358
X211.91Y-45.72
X211.912Y-126.912
X212.522Y-119.278
X212.522Y-121.971
X212.56Y-120.65
X212.56Y-123.419
X212.846Y-128.187
X214.16Y-129.16
X214.979Y-130.321
X215.989Y-131.407
X217.208Y-56.655
X217.396Y-71.707
X217.61Y-49.32
X217.632Y-145.542
X218.046Y-147.371
X218.046Y-151.828
X218.046Y-156.286
X218.186Y-149.123
X218.186Y-154.153
X218.186Y-158.775
X218.277Y-160.543
X219.192Y-144.165
X220.Y-146.113
X220.Y-150.304
X220.Y-155.334
X220.Y-160.32
X220.066Y-147.828
X220.066Y-152.857
X220.066Y-157.358
X220.251Y-162.593
X220.416Y-72.23
X221.81Y-48.82
X221.81Y-54.02
X221.955Y-162.593
X223.015Y-59.705
X223.761Y-162.28
X224.615Y-67.973
X224.864Y-69.395
X226.606Y-162.593
X226.997Y-70.391
X227.71Y-45.92
X227.91Y-37.82
X229.388Y-162.28
X229.61Y-45.92
X230.61Y-85.42
X230.873Y-136.195
X231.51Y-47.52
X233.126Y-56.495
X233.81Y-86.62
X233.995Y-57.607
X234.31Y-78.52
X235.204Y-139.827
X236.474Y-141.618
X237.01Y-44.82
X237.31Y-67.32
X237.787Y-162.24
X238.354Y-138.036
X239.344Y-162.108
X240.725Y-90.21
X240.97Y-73.25
X241.478Y-162.24
X242.91Y-59.12
X243.459Y-162.108
X243.586Y-85.199
X244.091Y-90.937
X245.984Y-120.891
X246.101Y-85.463
X246.202Y-122.682
X246.466Y-162.24
X246.95Y-73.41
X246.983Y-118.853
X248.679Y-95.212
X248.761Y-116.821
X248.869Y-120.726
X249.293Y-162.108
X249.5Y-123.52
X249.895Y-85.131
X250.126Y-121.539
X251.27Y-162.24
X251.41Y-55.42
X251.615Y-119.25
X251.65Y-115.951
X251.71Y-88.22
X253.479Y-119.177
X253.479Y-162.108
X254.097Y-137.998
X255.5Y-117.67
X255.651Y-162.24
X256.22Y-90.1
X256.74Y-74.16
X257.137Y-98.489
X257.88Y-86.33
X257.95Y-91.33
X261.01Y-95.32
X261.21Y-69.12
X261.31Y-93.42
X263.977Y-71.392
X265.379Y-113.97
X266.273Y-162.108
X266.51Y-92.92
X267.1Y-81.83
X268.224Y-95.25
X268.3Y-162.24
X268.877Y-112.337
X269.043Y-108.795
X270.31Y-88.97
X270.32Y-162.108
X270.36Y-85.9
X271.704Y-106.832
X271.958Y-162.24
X272.4Y-92.972
X272.69Y-77.19
X274.61Y-86.82
X274.701Y-106.718
X275.51Y-82.33
X277.825Y-107.671
X278.77Y-85.1
X279.11Y-56.505
X279.701Y-107.299
X280.378Y-105.232
X282.102Y-104.898
X282.264Y-103.346
X284.064Y-102.936
X284.188Y-101.422
X285.689Y-101.311
X293.4Y-106.81
X293.668Y-54.136
X294.869Y-66.
X295.041Y-106.81
X296.41Y-66.
X296.443Y-106.81
X298.196Y-66.116
X298.473Y-106.81
X300.025Y-41.008
X300.076Y-46.827
X300.119Y-106.837
X300.736Y-39.51
X301.904Y-106.81
X302.771Y-57.699
X303.317Y-106.81
X303.652Y-72.868
X304.02Y-58.923
X304.546Y-132.883
X305.105Y-78.867
X305.841Y-73.
X306.186Y-39.791
X306.507Y-60.282
X306.514Y-77.191
X307.645Y-41.516
X307.899Y-72.868
X308.Y-94.412
X309.212Y-85.441
X309.212Y-88.067
X309.212Y-90.47
X309.651Y-73.
X310.022Y-93.99
X310.52Y-70.48
X310.52Y-83.82
X310.52Y-86.782
X310.52Y-89.073
X310.52Y-92.146
X310.693Y-71.755
X311.808Y-68.958
X315.887Y-145.052
X318.402Y-145.161
X319.202Y-66.
X319.354Y-39.675
X320.802Y-49.886
X321.215Y-145.052
X321.85Y-140.875
X321.983Y-66.
X322.633Y-84.656
X324.536Y-66.
X324.804Y-39.116
X325.565Y-84.155
X325.603Y-140.665
X325.641Y-63.817
X325.703Y-137.022
X326.034Y-41.885
X326.087Y-40.587
X326.7Y-104.805
X327.889Y-62.713
X328.325Y-61.133
X328.614Y-134.11
X328.841Y-84.656
X329.055Y-137.155
X329.096Y-107.226
X329.641Y-43.739
X332.1Y-157.066
X334.295Y-84.155
X334.71Y-159.75
X336.592Y-81.556
X336.759Y-104.12
X337.032Y-96.58
X337.566Y-46.203
X338.633Y-38.862
X338.633Y-40.919
X339.639Y-159.677
X339.75Y-104.5
X340.17Y-96.58
X340.319Y-78.131
X341.818Y-94.549
X342.02Y-91.699
X342.25Y-107.092
X342.348Y-75.8
X342.585Y-85.664
X343.992Y-84.181
X344.083Y-38.632
X344.083Y-40.134
X344.6Y-148.09
X345.186Y-41.453
X345.28Y-73.31
X345.313Y-72.771
X345.483Y-84.226
X346.316Y-74.917
X346.329Y-43.688
X346.416Y-71.614
X346.498Y-145.945
X347.33Y-130.37
X347.777Y-76.47
X348.077Y-159.75
X348.412Y-71.247
X349.534Y-76.327
X350.368Y-71.48
X351.244Y-86.677
X351.33Y-75.39
X351.511Y-130.378
X351.82Y-73.838
X351.988Y-144.9
X353.055Y-88.285
X353.792Y-50.762
X354.26Y-127.59
X354.355Y-159.677
X355.34Y-90.862
X355.727Y-50.8
X357.48Y-50.762
X357.495Y-92.725
X357.683Y-127.59
X358.191Y-144.818
X358.902Y-67.856
X359.258Y-50.8
X359.362Y-94.884
X360.783Y-66.117
X361.01Y-50.762
X363.118Y-50.8
X363.22Y-95.136
X363.83Y-159.9
X363.982Y-63.906
X365.023Y-50.762
X366.629Y-94.884
X366.903Y-50.8
X367.523Y-144.9
X368.025Y-140.705
X368.046Y-63.906
X369.494Y-50.762
X371.361Y-50.8
X371.378Y-95.136
X372.552Y-120.104
X374.21Y-139.58
X375.572Y-94.884
X376.113Y-84.226
X376.498Y-159.9
X379.395Y-95.136
X379.537Y-82.963
X381.21Y-139.59
X381.213Y-80.691
X381.213Y-94.884
X382.753Y-50.8
X383.169Y-79.5
X383.438Y-149.75
X383.946Y-159.9
X384.619Y-50.762
X385.963Y-79.35
X386.226Y-50.819
X387.58Y-52.132
X388.969Y-53.562
X389.166Y-139.575
X391.452Y-64.719
X391.452Y-70.587
X391.495Y-56.048
X391.528Y-58.179
X391.528Y-67.653
X391.595Y-149.73
X391.82Y-159.9
X392.036Y-61.697
X392.866Y-149.75
X393.103Y-139.57
X394.64Y-149.75
T2
X87.63Y-56.515
X87.63Y-64.135
X90.17Y-56.515
X90.17Y-64.135
X92.71Y-56.515
X92.71Y-64.135
X174.257Y-154.775
X179.548Y-143.723
X184.417Y-154.775
X189.708Y-143.723
X191.131Y-51.236
X191.131Y-61.396
T3
X381.21Y-139.59
X381.21Y-149.75
X383.144Y-69.992
X383.144Y-90.312
X387.4Y-149.73
X387.4Y-159.89
T4
X96.342Y-56.553
X96.342Y-64.173
X98.882Y-56.553
X98.882Y-64.173
T5
X179.739Y-148.361
X186.284Y-47.693
X189.739Y-148.361
X196.284Y-47.693
T6
X50.851Y-65.032
X50.851Y-80.032
X63.691Y-122.824
X63.887Y-131.394
X78.691Y-122.824
X78.887Y-131.394
X106.426Y-137.026
X106.426Y-152.026
X128.636Y-36.204
X128.636Y-43.704
X135.788Y-125.606
X135.788Y-140.606
X144.64Y-36.077
X144.64Y-43.577
X144.841Y-125.383
X144.841Y-140.383
X147.627Y-85.12
X148.338Y-105.656
X150.31Y-94.988
X157.81Y-94.988
X162.627Y-85.12
X163.338Y-105.656
X212.41Y-53.85
X212.41Y-56.39
X258.06Y-117.67
X258.06Y-132.67
X278.5Y-66.
X293.5Y-66.
X300.Y-66.
X315.Y-66.
X363.34Y-112.59
X363.34Y-127.59
X363.83Y-144.9
X363.83Y-159.9
T7
X38.781Y-107.224
X38.781Y-109.764
X38.781Y-112.304
X38.781Y-114.844
T8
X81.83Y-36.45
X84.37Y-36.45
X86.91Y-36.45
X305.5Y-99.19
X305.5Y-106.81
T9
X40.345Y-132.613
X40.345Y-135.153
X50.6Y-89.29
X50.6Y-91.83
X54.84Y-50.14
X57.38Y-50.14
X58.521Y-158.937
X59.334Y-103.505
X61.021Y-161.437
X61.874Y-100.965
X61.874Y-103.505
X63.521Y-158.937
X64.414Y-100.965
X64.414Y-103.505
X66.954Y-100.965
X66.954Y-103.505
X69.494Y-100.965
X69.494Y-103.505
X71.653Y-158.993
X72.034Y-100.965
X72.034Y-103.505
X74.153Y-161.493
X74.574Y-100.965
X74.574Y-103.505
X76.653Y-158.993
X77.114Y-100.965
X77.114Y-103.505
X79.654Y-100.965
X79.654Y-103.505
X82.194Y-100.965
X82.194Y-103.505
X84.734Y-100.965
X84.734Y-103.505
X84.952Y-158.993
X87.274Y-100.965
X87.274Y-103.505
X87.452Y-161.493
X89.814Y-100.965
X89.814Y-103.505
X89.952Y-158.993
X92.354Y-100.965
X92.354Y-103.505
X94.894Y-100.965
X94.894Y-103.505
X97.434Y-100.965
X97.434Y-103.505
X99.974Y-100.965
X99.974Y-103.505
X142.44Y-63.517
X142.706Y-72.407
X144.98Y-63.517
X145.246Y-72.407
X152.6Y-63.517
X152.866Y-72.407
X157.68Y-63.517
X157.946Y-72.407
X228.29Y-158.21
X230.83Y-158.21
X233.37Y-158.21
X233.87Y-63.62
X241.49Y-63.62
X242.38Y-157.99
X244.92Y-157.99
X247.46Y-157.99
X248.95Y-62.27
X256.57Y-62.27
X280.378Y-43.561
X287.998Y-43.561
X300.025Y-44.005
X307.645Y-44.005
X318.694Y-43.739
X326.314Y-43.739
X338.709Y-43.688
X346.329Y-43.688
T10
X318.Y-89.13
X318.Y-104.37
X342.25Y-88.88
X342.25Y-104.12
T11
X92.316Y-50.762
X94.856Y-50.762
X97.396Y-50.762
X236.95Y-100.4
X236.95Y-102.94
X236.95Y-105.48
T12
X61.252Y-67.323
X63.792Y-67.323
X64.16Y-95.799
X66.7Y-95.799
X71.145Y-95.809
X73.685Y-95.809
X77.3Y-95.799
X79.84Y-95.799
X83.617Y-95.783
X86.157Y-95.783
X135.264Y-93.146
X137.804Y-93.146
X332.08Y-110.12
X332.08Y-127.62
X332.1Y-134.11
X332.1Y-151.61
X344.58Y-110.12
X344.58Y-127.62
X344.6Y-134.11
X344.6Y-151.61
X370.74Y-146.64
X373.34Y-156.34
T13
X38.84Y-37.17
X38.84Y-47.33
X38.87Y-72.34
X38.87Y-82.5
X38.9Y-55.28
X38.9Y-65.44
X107.34Y-161.35
X109.88Y-161.35
X112.42Y-161.35
X137.775Y-161.493
X140.315Y-161.493
X142.855Y-161.493
X326.69Y-76.26
X326.69Y-91.5
X326.7Y-96.58
X326.7Y-101.66
X334.3Y-76.26
X334.3Y-91.5
X334.3Y-96.58
X334.3Y-101.66
X398.2Y-139.57
X398.2Y-149.73
X398.2Y-159.89
T14
X276.363Y-37.084
X281.813Y-37.084
X287.263Y-37.084
X295.286Y-37.084
X300.736Y-37.084
X306.186Y-37.084
X313.904Y-37.008
X319.354Y-37.008
X324.804Y-37.008
X333.183Y-36.993
X338.633Y-36.993
X344.083Y-36.993
T15
X180.64Y-79.42
X180.64Y-84.5
X180.64Y-89.58
X180.64Y-94.66
X180.64Y-109.9
X180.64Y-114.98
X221.28Y-79.42
X221.28Y-84.5
X221.28Y-89.58
X221.28Y-94.66
X221.28Y-114.98
X221.28Y-120.06
X274.606Y-144.597
X274.606Y-159.797
X348.704Y-63.906
X348.704Y-84.226
X374.104Y-63.906
X374.104Y-84.226
T16
X45.357Y-158.237
X45.607Y-140.447
X65.37Y-36.35
X65.37Y-41.35
X65.37Y-46.35
X65.37Y-61.35
X72.87Y-36.35
X72.87Y-41.35
X72.87Y-46.35
X72.87Y-61.35
X174.018Y-161.036
X176.99Y-36.347
X179.578Y-161.036
X182.55Y-36.347
X185.138Y-161.036
X188.11Y-36.347
T17
X276.69Y-119.25
X286.69Y-119.25
T18
X70.57Y-139.9
X70.57Y-150.1
X90.87Y-139.9
X90.87Y-150.1
X116.782Y-128.623
X116.782Y-148.923
X126.982Y-128.623
X126.982Y-148.923
T0
M30
