G04 (created by PCBNEW (2013-07-07 BZR 4022)-stable) date 31-01-2015 18:12:54*
%MOIN*%
G04 Gerber Fmt 3.4, Leading zero omitted, Abs format*
%FSLAX34Y34*%
G01*
G70*
G90*
G04 APERTURE LIST*
%ADD10C,0.00590551*%
%ADD11C,0.0748031*%
%ADD12C,0.0787402*%
%ADD13C,0.0984252*%
%ADD14C,0.0826772*%
%ADD15C,0.125984*%
%ADD16C,0.11811*%
%ADD17C,0.0629921*%
%ADD18R,0.07X0.07*%
%ADD19C,0.07*%
%ADD20C,0.0590551*%
%ADD21R,0.1X0.05*%
%ADD22O,0.0866142X0.0629921*%
%ADD23R,0.055X0.035*%
%ADD24R,0.0358268X0.0480315*%
%ADD25R,0.08X0.06*%
%ADD26R,0.0492126X0.0787402*%
%ADD27C,0.177165*%
%ADD28R,0.035X0.055*%
%ADD29R,0.229921X0.155118*%
%ADD30R,0.06X0.08*%
%ADD31C,0.15748*%
%ADD32R,0.0787402X0.149606*%
%ADD33C,0.0866142*%
%ADD34R,0.0315X0.0394*%
%ADD35C,0.0708661*%
%ADD36C,0.110236*%
%ADD37R,0.0413386X0.023622*%
%ADD38R,0.05X0.025*%
%ADD39R,0.025X0.05*%
%ADD40R,0.0748031X0.0255906*%
%ADD41C,0.0649606*%
%ADD42C,0.0433071*%
G04 APERTURE END LIST*
G54D10*
G54D11*
X56078Y-25006D03*
X57078Y-25006D03*
X60078Y-25006D03*
X62078Y-25006D03*
X56183Y-28506D03*
X57183Y-28506D03*
X60183Y-28506D03*
X62183Y-28506D03*
G54D12*
X26260Y-37716D03*
X25260Y-37716D03*
X29010Y-37720D03*
X28010Y-37720D03*
X31433Y-37716D03*
X30433Y-37716D03*
G54D13*
X130740Y-43354D03*
X135661Y-43354D03*
X135661Y-50244D03*
X130740Y-50244D03*
X143047Y-50232D03*
X143047Y-44326D03*
G54D14*
X25115Y-26505D03*
X24115Y-26505D03*
G54D15*
X25736Y-24153D03*
X25736Y-18248D03*
X25736Y-16279D03*
X25736Y-14311D03*
X28688Y-14311D03*
X28688Y-16279D03*
X28688Y-18248D03*
X28688Y-24153D03*
G54D12*
X33920Y-37710D03*
X32920Y-37710D03*
G54D11*
X32216Y-14350D03*
X33216Y-14350D03*
X34216Y-14350D03*
X56242Y-63580D03*
X54242Y-63580D03*
X55242Y-63580D03*
X44259Y-63523D03*
X42259Y-63523D03*
X43259Y-63523D03*
G54D12*
X31057Y-51730D03*
X25152Y-51730D03*
G54D16*
X136350Y-17200D03*
X133350Y-17200D03*
X128470Y-17220D03*
X125470Y-17220D03*
X121120Y-17325D03*
X118120Y-17325D03*
X113385Y-17150D03*
X110385Y-17150D03*
X92074Y-25047D03*
X95074Y-25047D03*
X98011Y-24515D03*
X101011Y-24515D03*
X71118Y-31267D03*
X71118Y-33267D03*
X71118Y-35267D03*
X71118Y-37267D03*
G54D17*
X71118Y-41267D03*
G54D16*
X71118Y-43267D03*
X71118Y-45267D03*
G54D17*
X71118Y-47267D03*
X71118Y-49267D03*
X87118Y-49267D03*
G54D16*
X87118Y-47267D03*
X87118Y-45267D03*
G54D17*
X87118Y-43267D03*
X87118Y-41267D03*
X87118Y-39267D03*
G54D16*
X87118Y-37267D03*
X87118Y-35267D03*
X87118Y-33267D03*
X87118Y-31267D03*
G54D17*
X71118Y-39267D03*
G54D16*
X108112Y-62912D03*
X108112Y-56927D03*
G54D17*
X117128Y-62912D03*
G54D18*
X150844Y-35556D03*
G54D19*
X150844Y-27556D03*
G54D20*
X150082Y-54956D03*
X150082Y-58956D03*
X152519Y-58948D03*
X152519Y-62948D03*
G54D12*
X22590Y-19740D03*
X21590Y-19740D03*
X15884Y-53210D03*
X15884Y-52210D03*
G54D21*
X35444Y-16860D03*
X35444Y-18060D03*
X34078Y-16876D03*
X34078Y-18076D03*
G54D22*
X15268Y-42214D03*
X15268Y-43214D03*
X15268Y-44214D03*
X15268Y-45214D03*
G54D23*
X31665Y-17504D03*
X31665Y-16754D03*
X32700Y-16786D03*
X32700Y-17536D03*
G54D24*
X33498Y-15900D03*
X32211Y-15904D03*
G54D16*
X15314Y-21763D03*
X15314Y-25763D03*
X15303Y-28480D03*
X15303Y-32480D03*
X15291Y-14633D03*
X15291Y-18633D03*
G54D25*
X22410Y-25210D03*
X22410Y-26510D03*
X22410Y-22820D03*
X22410Y-24120D03*
X23820Y-24120D03*
X23820Y-22820D03*
G54D26*
X27940Y-22661D03*
X26464Y-22657D03*
G54D27*
X17857Y-62298D03*
X17955Y-55294D03*
G54D28*
X93776Y-30377D03*
X93026Y-30377D03*
G54D16*
X156771Y-62948D03*
X156771Y-58948D03*
X156771Y-54948D03*
G54D13*
X145960Y-57732D03*
X146984Y-61551D03*
X143240Y-57047D03*
X143240Y-62952D03*
X130748Y-52799D03*
X135669Y-52799D03*
X135669Y-59688D03*
X130748Y-59688D03*
G54D29*
X122367Y-53508D03*
X122364Y-57107D03*
G54D16*
X128618Y-30023D03*
X128618Y-36023D03*
X128622Y-38023D03*
X128622Y-40023D03*
X131614Y-36023D03*
X131614Y-30023D03*
X131614Y-40023D03*
X131614Y-38023D03*
G54D19*
X125196Y-35090D03*
X125196Y-41090D03*
X134744Y-34992D03*
X134744Y-40992D03*
G54D17*
X147285Y-27160D03*
X147285Y-29160D03*
X147285Y-31160D03*
X147285Y-35160D03*
X137285Y-23160D03*
X137285Y-27160D03*
X137285Y-29160D03*
X137285Y-31160D03*
X137285Y-35160D03*
G54D16*
X137285Y-25160D03*
X137285Y-33160D03*
X147285Y-33160D03*
X147285Y-25160D03*
G54D17*
X147285Y-23160D03*
G54D26*
X129378Y-27901D03*
X130854Y-27905D03*
G54D16*
X131174Y-14564D03*
X133320Y-14564D03*
X135465Y-14564D03*
X123584Y-14570D03*
X125730Y-14570D03*
X127875Y-14570D03*
X108804Y-14600D03*
X110950Y-14600D03*
X113095Y-14600D03*
X116254Y-14600D03*
X118400Y-14600D03*
X120545Y-14600D03*
G54D25*
X115675Y-18850D03*
X115675Y-17550D03*
G54D30*
X106436Y-18307D03*
X107736Y-18307D03*
X130090Y-18945D03*
X131390Y-18945D03*
X122890Y-22240D03*
X124190Y-22240D03*
G54D23*
X131410Y-20845D03*
X131410Y-20095D03*
X127690Y-18745D03*
X127690Y-19495D03*
X114790Y-21357D03*
X114790Y-20607D03*
X107874Y-20060D03*
X107874Y-19310D03*
G54D13*
X118110Y-25984D03*
X124015Y-25984D03*
X101598Y-52232D03*
X101598Y-46326D03*
X115551Y-25984D03*
X109645Y-25984D03*
G54D23*
X35250Y-30705D03*
X35250Y-31455D03*
G54D31*
X112870Y-46948D03*
X108933Y-46948D03*
G54D32*
X117913Y-37204D03*
X120275Y-37204D03*
G54D33*
X120275Y-42051D03*
X120275Y-39051D03*
G54D11*
X97425Y-62200D03*
X96425Y-62200D03*
X95425Y-62200D03*
X91877Y-62287D03*
X90877Y-62287D03*
X89877Y-62287D03*
G54D28*
X100839Y-37224D03*
X100089Y-37224D03*
X94768Y-36259D03*
X94018Y-36259D03*
X94749Y-37208D03*
X93999Y-37208D03*
X100863Y-36204D03*
X100113Y-36204D03*
X93776Y-31318D03*
X93026Y-31318D03*
X99859Y-31303D03*
X99109Y-31303D03*
X99859Y-30291D03*
X99109Y-30291D03*
X95430Y-31318D03*
X94680Y-31318D03*
X101587Y-31271D03*
X100837Y-31271D03*
G54D30*
X93787Y-29165D03*
X92487Y-29165D03*
X93787Y-27976D03*
X92487Y-27976D03*
X99838Y-27736D03*
X98538Y-27736D03*
X99838Y-29059D03*
X98538Y-29059D03*
G54D24*
X94662Y-30331D03*
X95949Y-30327D03*
X100804Y-30296D03*
X102091Y-30292D03*
G54D12*
X93287Y-39527D03*
X93287Y-40527D03*
X93287Y-41527D03*
X38345Y-19985D03*
X37345Y-19985D03*
X36345Y-19985D03*
G54D23*
X107098Y-33821D03*
X107098Y-34571D03*
X105968Y-32290D03*
X105968Y-33040D03*
G54D28*
X108999Y-32728D03*
X109749Y-32728D03*
X110735Y-33586D03*
X111485Y-33586D03*
X110034Y-31795D03*
X110784Y-31795D03*
X111995Y-31885D03*
X112745Y-31885D03*
G54D23*
X105968Y-33790D03*
X105968Y-34540D03*
G54D28*
X110774Y-32685D03*
X111524Y-32685D03*
X108459Y-31874D03*
X109209Y-31874D03*
X105865Y-35708D03*
X106615Y-35708D03*
G54D34*
X104259Y-32220D03*
X103884Y-33086D03*
X104634Y-33086D03*
G54D28*
X107782Y-35421D03*
X108532Y-35421D03*
X103506Y-33972D03*
X104256Y-33972D03*
X56361Y-27566D03*
X57111Y-27566D03*
G54D23*
X39522Y-36299D03*
X39522Y-35549D03*
X41265Y-35878D03*
X41265Y-36628D03*
G54D28*
X47355Y-28080D03*
X46605Y-28080D03*
X41285Y-27760D03*
X42035Y-27760D03*
X56321Y-29574D03*
X57071Y-29574D03*
X43213Y-23905D03*
X42463Y-23905D03*
G54D23*
X35265Y-46725D03*
X35265Y-45975D03*
X36585Y-46740D03*
X36585Y-45990D03*
X37440Y-44965D03*
X37440Y-45715D03*
G54D28*
X42309Y-39537D03*
X43059Y-39537D03*
G54D23*
X40650Y-44965D03*
X40650Y-45715D03*
X50657Y-34469D03*
X50657Y-35219D03*
X42944Y-34561D03*
X42944Y-35311D03*
G54D28*
X56321Y-26070D03*
X57071Y-26070D03*
X41475Y-34020D03*
X40725Y-34020D03*
G54D23*
X47649Y-44845D03*
X47649Y-45595D03*
G54D28*
X45395Y-30770D03*
X46145Y-30770D03*
G54D23*
X46790Y-30035D03*
X46790Y-29285D03*
G54D12*
X62129Y-37396D03*
X59177Y-37396D03*
X56945Y-17156D03*
X56945Y-14203D03*
X50644Y-17206D03*
X50644Y-14253D03*
G54D28*
X149652Y-47141D03*
X150402Y-47141D03*
G54D12*
X53460Y-55356D03*
X53460Y-49451D03*
X58120Y-33511D03*
X64026Y-33511D03*
X57024Y-55268D03*
X57024Y-49363D03*
X41900Y-53947D03*
X41900Y-59852D03*
X30980Y-48356D03*
X25075Y-48356D03*
X58400Y-41596D03*
X64306Y-41596D03*
X20020Y-25603D03*
X20020Y-31508D03*
X70763Y-58410D03*
X74700Y-58410D03*
X77277Y-18776D03*
X73340Y-18776D03*
G54D33*
X53253Y-36671D03*
X54253Y-36671D03*
G54D35*
X83625Y-22200D03*
X83625Y-21200D03*
G54D31*
X45977Y-50638D03*
X45977Y-58631D03*
X49992Y-58631D03*
X49992Y-50638D03*
X35775Y-55078D03*
X27783Y-55078D03*
X27783Y-59094D03*
X35775Y-59094D03*
G54D36*
X72888Y-63400D03*
X70700Y-63400D03*
X68511Y-63400D03*
X69681Y-14310D03*
X71870Y-14310D03*
X74058Y-14310D03*
G54D28*
X44089Y-33110D03*
X43339Y-33110D03*
G54D23*
X40920Y-43779D03*
X40920Y-43029D03*
G54D28*
X43320Y-36323D03*
X42570Y-36323D03*
G54D23*
X42749Y-38084D03*
X42749Y-37334D03*
G54D28*
X44124Y-42742D03*
X44874Y-42742D03*
X38468Y-37583D03*
X39218Y-37583D03*
G54D23*
X40754Y-40261D03*
X40754Y-39511D03*
G54D28*
X51775Y-26160D03*
X52525Y-26160D03*
G54D23*
X50300Y-26125D03*
X50300Y-26875D03*
X41381Y-21719D03*
X41381Y-22469D03*
X41738Y-37664D03*
X41738Y-38414D03*
X40605Y-38040D03*
X40605Y-38790D03*
X40516Y-41983D03*
X40516Y-41233D03*
G54D28*
X34367Y-43659D03*
X33617Y-43659D03*
X42918Y-42854D03*
X42168Y-42854D03*
X39125Y-44937D03*
X38375Y-44937D03*
X39120Y-45707D03*
X38370Y-45707D03*
X35381Y-43638D03*
X36131Y-43638D03*
X35085Y-44826D03*
X35835Y-44826D03*
X46215Y-47220D03*
X45465Y-47220D03*
X43835Y-30380D03*
X44585Y-30380D03*
X47815Y-29970D03*
X48565Y-29970D03*
G54D23*
X49130Y-27855D03*
X49130Y-27105D03*
G54D28*
X45111Y-29358D03*
X45861Y-29358D03*
X149180Y-44346D03*
X149930Y-44346D03*
X48675Y-28730D03*
X49425Y-28730D03*
G54D23*
X49530Y-29965D03*
X49530Y-30715D03*
G54D28*
X149180Y-45685D03*
X149930Y-45685D03*
X147999Y-50094D03*
X148749Y-50094D03*
X149652Y-50055D03*
X150402Y-50055D03*
G54D23*
X151326Y-49249D03*
X151326Y-48499D03*
G54D35*
X75248Y-24171D03*
X75248Y-20171D03*
X74688Y-56584D03*
X70688Y-56584D03*
X68605Y-60935D03*
X72605Y-60935D03*
G54D37*
X42496Y-22902D03*
X42496Y-22152D03*
X43496Y-22902D03*
X42496Y-22527D03*
X43496Y-22152D03*
X108011Y-32290D03*
X108011Y-33040D03*
X107011Y-32290D03*
X108011Y-32665D03*
X107011Y-33040D03*
G54D38*
X44100Y-40360D03*
X44100Y-40860D03*
X44100Y-41360D03*
X44100Y-41860D03*
X41900Y-41860D03*
X41900Y-41360D03*
X41900Y-40860D03*
X41900Y-40360D03*
G54D39*
X52890Y-29436D03*
X52390Y-29436D03*
X51890Y-29436D03*
X51390Y-29436D03*
X51390Y-27236D03*
X51890Y-27236D03*
X52390Y-27236D03*
X52890Y-27236D03*
G54D40*
X46285Y-44488D03*
X46285Y-44988D03*
X46285Y-45488D03*
X46285Y-45988D03*
X42035Y-45988D03*
X42035Y-45488D03*
X42035Y-44988D03*
X42035Y-44488D03*
X48539Y-34118D03*
X48539Y-34618D03*
X48539Y-35118D03*
X48539Y-35618D03*
X44289Y-35618D03*
X44289Y-35118D03*
X44289Y-34618D03*
X44289Y-34118D03*
G54D39*
X95265Y-34686D03*
X94765Y-34686D03*
X94265Y-34686D03*
X93765Y-34686D03*
X93765Y-32486D03*
X94265Y-32486D03*
X94765Y-32486D03*
X95265Y-32486D03*
X101368Y-34631D03*
X100868Y-34631D03*
X100368Y-34631D03*
X99868Y-34631D03*
X99868Y-32431D03*
X100368Y-32431D03*
X100868Y-32431D03*
X101368Y-32431D03*
G54D12*
X19921Y-35153D03*
X19921Y-36153D03*
G54D17*
X37930Y-25265D03*
X38930Y-25265D03*
X38930Y-22265D03*
X37930Y-22265D03*
G54D20*
X36500Y-22250D03*
X35500Y-22250D03*
X34500Y-22250D03*
X34500Y-25250D03*
X35500Y-25250D03*
X36500Y-25250D03*
G54D11*
X35414Y-62595D03*
X34430Y-63580D03*
X33445Y-62595D03*
X30178Y-62595D03*
X29194Y-63580D03*
X28209Y-62595D03*
X25008Y-62573D03*
X24024Y-63558D03*
X23039Y-62573D03*
G54D40*
X40735Y-29628D03*
X40735Y-30128D03*
X40735Y-30628D03*
X40735Y-31128D03*
X36485Y-31128D03*
X36485Y-30628D03*
X36485Y-30128D03*
X36485Y-29628D03*
G54D41*
X28360Y-40750D03*
X29360Y-40750D03*
X30360Y-40750D03*
X31360Y-40750D03*
X32360Y-40750D03*
X33360Y-40750D03*
X34360Y-40750D03*
X35360Y-40750D03*
X36360Y-40750D03*
X37360Y-40750D03*
X38360Y-40750D03*
X39360Y-40750D03*
X27360Y-40750D03*
X26360Y-40750D03*
X25360Y-40750D03*
X24360Y-40750D03*
X23360Y-40750D03*
X39360Y-39750D03*
X38360Y-39750D03*
X37360Y-39750D03*
X36360Y-39750D03*
X35360Y-39750D03*
X34360Y-39750D03*
X33360Y-39750D03*
X32360Y-39750D03*
X31360Y-39750D03*
X30360Y-39750D03*
X29360Y-39750D03*
X28360Y-39750D03*
X27360Y-39750D03*
X26360Y-39750D03*
X25360Y-39750D03*
X24360Y-39750D03*
G54D42*
X23360Y-39750D03*
M02*
