G04 (created by PCBNEW (2013-07-07 BZR 4022)-stable) date 31-01-2015 18:09:04*
%MOIN*%
G04 Gerber Fmt 3.4, Leading zero omitted, Abs format*
%FSLAX34Y34*%
G01*
G70*
G90*
G04 APERTURE LIST*
%ADD10C,0.005*%
%ADD11C,0.00393701*%
%ADD12C,0.00787402*%
%ADD13C,0.011811*%
G04 APERTURE END LIST*
G54D10*
G54D11*
X12677Y-65034D02*
X12677Y-65036D01*
X12169Y-65034D02*
X12677Y-65034D01*
X12089Y-65034D02*
X12180Y-65034D01*
X12089Y-61852D02*
X12089Y-65034D01*
X15168Y-65034D02*
X12624Y-65034D01*
X158941Y-64542D02*
X158940Y-64542D01*
X158941Y-65034D02*
X158941Y-64542D01*
X157555Y-65034D02*
X158941Y-65034D01*
X158941Y-63315D02*
X158941Y-64824D01*
X12090Y-12937D02*
X13200Y-12937D01*
X12090Y-15233D02*
X12090Y-12937D01*
X15253Y-12936D02*
X12372Y-12936D01*
X158941Y-12935D02*
X157440Y-12935D01*
X158941Y-16705D02*
X158941Y-12935D01*
X158940Y-16708D02*
X158940Y-63334D01*
X15330Y-61980D02*
X15322Y-61980D01*
X12088Y-15238D02*
X12088Y-61853D01*
X15734Y-15117D02*
X15739Y-15117D01*
X15729Y-15112D02*
X15734Y-15117D01*
X157560Y-65034D02*
X15165Y-65034D01*
X15253Y-12936D02*
X157648Y-12936D01*
G54D12*
X23143Y-39533D02*
X23576Y-39966D01*
X23576Y-39533D02*
X23143Y-39966D01*
X71433Y-39267D02*
G75*
G03X71433Y-39267I-314J0D01*
G74*
G01*
X71433Y-41267D02*
G75*
G03X71433Y-41267I-314J0D01*
G74*
G01*
X71433Y-47267D02*
G75*
G03X71433Y-47267I-314J0D01*
G74*
G01*
X71433Y-49267D02*
G75*
G03X71433Y-49267I-314J0D01*
G74*
G01*
X87433Y-39267D02*
G75*
G03X87433Y-39267I-314J0D01*
G74*
G01*
X87433Y-41267D02*
G75*
G03X87433Y-41267I-314J0D01*
G74*
G01*
X87433Y-43267D02*
G75*
G03X87433Y-43267I-314J0D01*
G74*
G01*
X87433Y-49267D02*
G75*
G03X87433Y-49267I-314J0D01*
G74*
G01*
X117443Y-62912D02*
G75*
G03X117443Y-62912I-314J0D01*
G74*
G01*
X137599Y-23160D02*
G75*
G03X137599Y-23160I-314J0D01*
G74*
G01*
X137599Y-27160D02*
G75*
G03X137599Y-27160I-314J0D01*
G74*
G01*
X137599Y-29160D02*
G75*
G03X137599Y-29160I-314J0D01*
G74*
G01*
X137599Y-31160D02*
G75*
G03X137599Y-31160I-314J0D01*
G74*
G01*
X137599Y-35160D02*
G75*
G03X137599Y-35160I-314J0D01*
G74*
G01*
X147599Y-23160D02*
G75*
G03X147599Y-23160I-314J0D01*
G74*
G01*
X147599Y-27160D02*
G75*
G03X147599Y-27160I-314J0D01*
G74*
G01*
X147599Y-29160D02*
G75*
G03X147599Y-29160I-314J0D01*
G74*
G01*
X147599Y-31160D02*
G75*
G03X147599Y-31160I-314J0D01*
G74*
G01*
X147599Y-35160D02*
G75*
G03X147599Y-35160I-314J0D01*
G74*
G01*
G54D13*
X13137Y-66832D02*
X13137Y-65651D01*
X13419Y-65651D01*
X13587Y-65708D01*
X13700Y-65820D01*
X13756Y-65933D01*
X13812Y-66158D01*
X13812Y-66326D01*
X13756Y-66551D01*
X13700Y-66664D01*
X13587Y-66776D01*
X13419Y-66832D01*
X13137Y-66832D01*
X14319Y-66832D02*
X14319Y-66045D01*
X14319Y-66270D02*
X14375Y-66158D01*
X14431Y-66101D01*
X14543Y-66045D01*
X14656Y-66045D01*
X15050Y-66832D02*
X15050Y-66045D01*
X15050Y-65651D02*
X14993Y-65708D01*
X15050Y-65764D01*
X15106Y-65708D01*
X15050Y-65651D01*
X15050Y-65764D01*
X15781Y-66832D02*
X15668Y-66776D01*
X15612Y-66664D01*
X15612Y-65651D01*
X16400Y-66832D02*
X16287Y-66776D01*
X16231Y-66664D01*
X16231Y-65651D01*
X17749Y-66832D02*
X17749Y-65651D01*
X18143Y-66495D01*
X18537Y-65651D01*
X18537Y-66832D01*
X19605Y-66832D02*
X19605Y-66214D01*
X19549Y-66101D01*
X19437Y-66045D01*
X19212Y-66045D01*
X19099Y-66101D01*
X19605Y-66776D02*
X19493Y-66832D01*
X19212Y-66832D01*
X19099Y-66776D01*
X19043Y-66664D01*
X19043Y-66551D01*
X19099Y-66439D01*
X19212Y-66383D01*
X19493Y-66383D01*
X19605Y-66326D01*
X20168Y-66045D02*
X20168Y-67226D01*
X20168Y-66101D02*
X20280Y-66045D01*
X20505Y-66045D01*
X20618Y-66101D01*
X20674Y-66158D01*
X20730Y-66270D01*
X20730Y-66607D01*
X20674Y-66720D01*
X20618Y-66776D01*
X20505Y-66832D01*
X20280Y-66832D01*
X20168Y-66776D01*
X21236Y-66720D02*
X21293Y-66776D01*
X21236Y-66832D01*
X21180Y-66776D01*
X21236Y-66720D01*
X21236Y-66832D01*
X21236Y-66101D02*
X21293Y-66158D01*
X21236Y-66214D01*
X21180Y-66158D01*
X21236Y-66101D01*
X21236Y-66214D01*
X11636Y-68618D02*
X12069Y-69051D01*
X12069Y-68618D02*
X11636Y-69051D01*
X13756Y-69313D02*
X13081Y-69313D01*
X13419Y-69313D02*
X13419Y-68132D01*
X13306Y-68300D01*
X13194Y-68413D01*
X13081Y-68469D01*
X14262Y-69200D02*
X14319Y-69257D01*
X14262Y-69313D01*
X14206Y-69257D01*
X14262Y-69200D01*
X14262Y-69313D01*
X15443Y-69313D02*
X14768Y-69313D01*
X15106Y-69313D02*
X15106Y-68132D01*
X14993Y-68300D01*
X14881Y-68413D01*
X14768Y-68469D01*
X16175Y-68132D02*
X16287Y-68132D01*
X16400Y-68188D01*
X16456Y-68244D01*
X16512Y-68357D01*
X16568Y-68582D01*
X16568Y-68863D01*
X16512Y-69088D01*
X16456Y-69200D01*
X16400Y-69257D01*
X16287Y-69313D01*
X16175Y-69313D01*
X16062Y-69257D01*
X16006Y-69200D01*
X15950Y-69088D01*
X15893Y-68863D01*
X15893Y-68582D01*
X15950Y-68357D01*
X16006Y-68244D01*
X16062Y-68188D01*
X16175Y-68132D01*
X17074Y-69313D02*
X17074Y-68525D01*
X17074Y-68638D02*
X17131Y-68582D01*
X17243Y-68525D01*
X17412Y-68525D01*
X17524Y-68582D01*
X17581Y-68694D01*
X17581Y-69313D01*
X17581Y-68694D02*
X17637Y-68582D01*
X17749Y-68525D01*
X17918Y-68525D01*
X18031Y-68582D01*
X18087Y-68694D01*
X18087Y-69313D01*
X18649Y-69313D02*
X18649Y-68525D01*
X18649Y-68638D02*
X18705Y-68582D01*
X18818Y-68525D01*
X18987Y-68525D01*
X19099Y-68582D01*
X19155Y-68694D01*
X19155Y-69313D01*
X19155Y-68694D02*
X19212Y-68582D01*
X19324Y-68525D01*
X19493Y-68525D01*
X19605Y-68582D01*
X19662Y-68694D01*
X19662Y-69313D01*
X21968Y-68075D02*
X20955Y-69594D01*
X23486Y-68132D02*
X23599Y-68132D01*
X23711Y-68188D01*
X23767Y-68244D01*
X23824Y-68357D01*
X23880Y-68582D01*
X23880Y-68863D01*
X23824Y-69088D01*
X23767Y-69200D01*
X23711Y-69257D01*
X23599Y-69313D01*
X23486Y-69313D01*
X23374Y-69257D01*
X23317Y-69200D01*
X23261Y-69088D01*
X23205Y-68863D01*
X23205Y-68582D01*
X23261Y-68357D01*
X23317Y-68244D01*
X23374Y-68188D01*
X23486Y-68132D01*
X24386Y-69200D02*
X24442Y-69257D01*
X24386Y-69313D01*
X24330Y-69257D01*
X24386Y-69200D01*
X24386Y-69313D01*
X25173Y-68132D02*
X25286Y-68132D01*
X25398Y-68188D01*
X25455Y-68244D01*
X25511Y-68357D01*
X25567Y-68582D01*
X25567Y-68863D01*
X25511Y-69088D01*
X25455Y-69200D01*
X25398Y-69257D01*
X25286Y-69313D01*
X25173Y-69313D01*
X25061Y-69257D01*
X25005Y-69200D01*
X24948Y-69088D01*
X24892Y-68863D01*
X24892Y-68582D01*
X24948Y-68357D01*
X25005Y-68244D01*
X25061Y-68188D01*
X25173Y-68132D01*
X26579Y-68525D02*
X26579Y-69313D01*
X26298Y-68075D02*
X26017Y-68919D01*
X26748Y-68919D01*
X27086Y-68132D02*
X27817Y-68132D01*
X27423Y-68582D01*
X27592Y-68582D01*
X27704Y-68638D01*
X27761Y-68694D01*
X27817Y-68807D01*
X27817Y-69088D01*
X27761Y-69200D01*
X27704Y-69257D01*
X27592Y-69313D01*
X27254Y-69313D01*
X27142Y-69257D01*
X27086Y-69200D01*
X28267Y-68132D02*
X28267Y-68357D01*
X28717Y-68132D02*
X28717Y-68357D01*
X30460Y-69763D02*
X30404Y-69706D01*
X30292Y-69538D01*
X30235Y-69425D01*
X30179Y-69257D01*
X30123Y-68975D01*
X30123Y-68750D01*
X30179Y-68469D01*
X30235Y-68300D01*
X30292Y-68188D01*
X30404Y-68019D01*
X30460Y-67963D01*
X31529Y-69313D02*
X30854Y-69313D01*
X31191Y-69313D02*
X31191Y-68132D01*
X31079Y-68300D01*
X30966Y-68413D01*
X30854Y-68469D01*
X32935Y-69313D02*
X32935Y-68132D01*
X33441Y-69313D02*
X33441Y-68694D01*
X33385Y-68582D01*
X33272Y-68525D01*
X33104Y-68525D01*
X32991Y-68582D01*
X32935Y-68638D01*
X34172Y-69313D02*
X34060Y-69257D01*
X34004Y-69200D01*
X33947Y-69088D01*
X33947Y-68750D01*
X34004Y-68638D01*
X34060Y-68582D01*
X34172Y-68525D01*
X34341Y-68525D01*
X34454Y-68582D01*
X34510Y-68638D01*
X34566Y-68750D01*
X34566Y-69088D01*
X34510Y-69200D01*
X34454Y-69257D01*
X34341Y-69313D01*
X34172Y-69313D01*
X35241Y-69313D02*
X35128Y-69257D01*
X35072Y-69144D01*
X35072Y-68132D01*
X36141Y-69257D02*
X36028Y-69313D01*
X35803Y-69313D01*
X35691Y-69257D01*
X35635Y-69144D01*
X35635Y-68694D01*
X35691Y-68582D01*
X35803Y-68525D01*
X36028Y-68525D01*
X36141Y-68582D01*
X36197Y-68694D01*
X36197Y-68807D01*
X35635Y-68919D01*
X36591Y-69763D02*
X36647Y-69706D01*
X36759Y-69538D01*
X36816Y-69425D01*
X36872Y-69257D01*
X36928Y-68975D01*
X36928Y-68750D01*
X36872Y-68469D01*
X36816Y-68300D01*
X36759Y-68188D01*
X36647Y-68019D01*
X36591Y-67963D01*
G54D12*
X12069Y-70394D02*
G75*
G03X12069Y-70394I-314J0D01*
G74*
G01*
G54D13*
X13756Y-70872D02*
X13081Y-70872D01*
X13419Y-70872D02*
X13419Y-69691D01*
X13306Y-69859D01*
X13194Y-69972D01*
X13081Y-70028D01*
X14262Y-70759D02*
X14319Y-70816D01*
X14262Y-70872D01*
X14206Y-70816D01*
X14262Y-70759D01*
X14262Y-70872D01*
X15331Y-69691D02*
X15106Y-69691D01*
X14993Y-69747D01*
X14937Y-69803D01*
X14825Y-69972D01*
X14768Y-70197D01*
X14768Y-70647D01*
X14825Y-70759D01*
X14881Y-70816D01*
X14993Y-70872D01*
X15218Y-70872D01*
X15331Y-70816D01*
X15387Y-70759D01*
X15443Y-70647D01*
X15443Y-70366D01*
X15387Y-70253D01*
X15331Y-70197D01*
X15218Y-70141D01*
X14993Y-70141D01*
X14881Y-70197D01*
X14825Y-70253D01*
X14768Y-70366D01*
X16175Y-69691D02*
X16287Y-69691D01*
X16400Y-69747D01*
X16456Y-69803D01*
X16512Y-69916D01*
X16568Y-70141D01*
X16568Y-70422D01*
X16512Y-70647D01*
X16456Y-70759D01*
X16400Y-70816D01*
X16287Y-70872D01*
X16175Y-70872D01*
X16062Y-70816D01*
X16006Y-70759D01*
X15950Y-70647D01*
X15893Y-70422D01*
X15893Y-70141D01*
X15950Y-69916D01*
X16006Y-69803D01*
X16062Y-69747D01*
X16175Y-69691D01*
X17074Y-70872D02*
X17074Y-70084D01*
X17074Y-70197D02*
X17131Y-70141D01*
X17243Y-70084D01*
X17412Y-70084D01*
X17524Y-70141D01*
X17581Y-70253D01*
X17581Y-70872D01*
X17581Y-70253D02*
X17637Y-70141D01*
X17749Y-70084D01*
X17918Y-70084D01*
X18031Y-70141D01*
X18087Y-70253D01*
X18087Y-70872D01*
X18649Y-70872D02*
X18649Y-70084D01*
X18649Y-70197D02*
X18705Y-70141D01*
X18818Y-70084D01*
X18987Y-70084D01*
X19099Y-70141D01*
X19155Y-70253D01*
X19155Y-70872D01*
X19155Y-70253D02*
X19212Y-70141D01*
X19324Y-70084D01*
X19493Y-70084D01*
X19605Y-70141D01*
X19662Y-70253D01*
X19662Y-70872D01*
X21968Y-69634D02*
X20955Y-71153D01*
X23486Y-69691D02*
X23599Y-69691D01*
X23711Y-69747D01*
X23767Y-69803D01*
X23824Y-69916D01*
X23880Y-70141D01*
X23880Y-70422D01*
X23824Y-70647D01*
X23767Y-70759D01*
X23711Y-70816D01*
X23599Y-70872D01*
X23486Y-70872D01*
X23374Y-70816D01*
X23317Y-70759D01*
X23261Y-70647D01*
X23205Y-70422D01*
X23205Y-70141D01*
X23261Y-69916D01*
X23317Y-69803D01*
X23374Y-69747D01*
X23486Y-69691D01*
X24386Y-70759D02*
X24442Y-70816D01*
X24386Y-70872D01*
X24330Y-70816D01*
X24386Y-70759D01*
X24386Y-70872D01*
X25173Y-69691D02*
X25286Y-69691D01*
X25398Y-69747D01*
X25455Y-69803D01*
X25511Y-69916D01*
X25567Y-70141D01*
X25567Y-70422D01*
X25511Y-70647D01*
X25455Y-70759D01*
X25398Y-70816D01*
X25286Y-70872D01*
X25173Y-70872D01*
X25061Y-70816D01*
X25005Y-70759D01*
X24948Y-70647D01*
X24892Y-70422D01*
X24892Y-70141D01*
X24948Y-69916D01*
X25005Y-69803D01*
X25061Y-69747D01*
X25173Y-69691D01*
X26579Y-69691D02*
X26355Y-69691D01*
X26242Y-69747D01*
X26186Y-69803D01*
X26073Y-69972D01*
X26017Y-70197D01*
X26017Y-70647D01*
X26073Y-70759D01*
X26130Y-70816D01*
X26242Y-70872D01*
X26467Y-70872D01*
X26579Y-70816D01*
X26636Y-70759D01*
X26692Y-70647D01*
X26692Y-70366D01*
X26636Y-70253D01*
X26579Y-70197D01*
X26467Y-70141D01*
X26242Y-70141D01*
X26130Y-70197D01*
X26073Y-70253D01*
X26017Y-70366D01*
X27086Y-69691D02*
X27817Y-69691D01*
X27423Y-70141D01*
X27592Y-70141D01*
X27704Y-70197D01*
X27761Y-70253D01*
X27817Y-70366D01*
X27817Y-70647D01*
X27761Y-70759D01*
X27704Y-70816D01*
X27592Y-70872D01*
X27254Y-70872D01*
X27142Y-70816D01*
X27086Y-70759D01*
X28267Y-69691D02*
X28267Y-69916D01*
X28717Y-69691D02*
X28717Y-69916D01*
X30460Y-71322D02*
X30404Y-71266D01*
X30292Y-71097D01*
X30235Y-70984D01*
X30179Y-70816D01*
X30123Y-70534D01*
X30123Y-70309D01*
X30179Y-70028D01*
X30235Y-69859D01*
X30292Y-69747D01*
X30404Y-69578D01*
X30460Y-69522D01*
X31529Y-70872D02*
X30854Y-70872D01*
X31191Y-70872D02*
X31191Y-69691D01*
X31079Y-69859D01*
X30966Y-69972D01*
X30854Y-70028D01*
X32091Y-70872D02*
X32316Y-70872D01*
X32429Y-70816D01*
X32485Y-70759D01*
X32597Y-70591D01*
X32654Y-70366D01*
X32654Y-69916D01*
X32597Y-69803D01*
X32541Y-69747D01*
X32429Y-69691D01*
X32204Y-69691D01*
X32091Y-69747D01*
X32035Y-69803D01*
X31979Y-69916D01*
X31979Y-70197D01*
X32035Y-70309D01*
X32091Y-70366D01*
X32204Y-70422D01*
X32429Y-70422D01*
X32541Y-70366D01*
X32597Y-70309D01*
X32654Y-70197D01*
X34060Y-70872D02*
X34060Y-69691D01*
X34566Y-70872D02*
X34566Y-70253D01*
X34510Y-70141D01*
X34397Y-70084D01*
X34229Y-70084D01*
X34116Y-70141D01*
X34060Y-70197D01*
X35297Y-70872D02*
X35185Y-70816D01*
X35128Y-70759D01*
X35072Y-70647D01*
X35072Y-70309D01*
X35128Y-70197D01*
X35185Y-70141D01*
X35297Y-70084D01*
X35466Y-70084D01*
X35578Y-70141D01*
X35635Y-70197D01*
X35691Y-70309D01*
X35691Y-70647D01*
X35635Y-70759D01*
X35578Y-70816D01*
X35466Y-70872D01*
X35297Y-70872D01*
X36366Y-70872D02*
X36253Y-70816D01*
X36197Y-70703D01*
X36197Y-69691D01*
X37266Y-70816D02*
X37153Y-70872D01*
X36928Y-70872D01*
X36816Y-70816D01*
X36759Y-70703D01*
X36759Y-70253D01*
X36816Y-70141D01*
X36928Y-70084D01*
X37153Y-70084D01*
X37266Y-70141D01*
X37322Y-70253D01*
X37322Y-70366D01*
X36759Y-70478D01*
X37772Y-70816D02*
X37884Y-70872D01*
X38109Y-70872D01*
X38222Y-70816D01*
X38278Y-70703D01*
X38278Y-70647D01*
X38222Y-70534D01*
X38109Y-70478D01*
X37941Y-70478D01*
X37828Y-70422D01*
X37772Y-70309D01*
X37772Y-70253D01*
X37828Y-70141D01*
X37941Y-70084D01*
X38109Y-70084D01*
X38222Y-70141D01*
X38672Y-71322D02*
X38728Y-71266D01*
X38840Y-71097D01*
X38897Y-70984D01*
X38953Y-70816D01*
X39009Y-70534D01*
X39009Y-70309D01*
X38953Y-70028D01*
X38897Y-69859D01*
X38840Y-69747D01*
X38728Y-69578D01*
X38672Y-69522D01*
M02*
