M48
;DRILL file {Pcbnew (2013-07-07 BZR 4022)-stable} date 31-01-2015 18:09:03
;FORMAT={-:-/ absolute / metric / decimal}
FMAT,2
METRIC,TZ
T1C1.100
T2C1.600
%
G90
G05
M71
T1
X59.334Y-100.965
T2
X180.64Y-99.74
X180.64Y-104.82
X180.64Y-120.06
X180.64Y-125.14
X221.28Y-99.74
X221.28Y-104.82
X221.28Y-109.9
X221.28Y-125.14
X297.506Y-159.797
X348.704Y-58.826
X348.704Y-68.986
X348.704Y-74.066
X348.704Y-79.146
X348.704Y-89.306
X374.104Y-58.826
X374.104Y-68.986
X374.104Y-74.066
X374.104Y-79.146
X374.104Y-89.306
T0
M30
