G04 (created by PCBNEW (2013-07-07 BZR 4022)-stable) date 31-01-2015 18:09:04*
%MOIN*%
G04 Gerber Fmt 3.4, Leading zero omitted, Abs format*
%FSLAX34Y34*%
G01*
G70*
G90*
G04 APERTURE LIST*
%ADD10C,0.005*%
%ADD11C,0.00393701*%
%ADD12C,0.00787402*%
%ADD13C,0.011811*%
G04 APERTURE END LIST*
G54D10*
G54D11*
X12677Y-65034D02*
X12677Y-65036D01*
X12169Y-65034D02*
X12677Y-65034D01*
X12089Y-65034D02*
X12180Y-65034D01*
X12089Y-61852D02*
X12089Y-65034D01*
X15168Y-65034D02*
X12624Y-65034D01*
X158941Y-64542D02*
X158940Y-64542D01*
X158941Y-65034D02*
X158941Y-64542D01*
X157555Y-65034D02*
X158941Y-65034D01*
X158941Y-63315D02*
X158941Y-64824D01*
X12090Y-12937D02*
X13200Y-12937D01*
X12090Y-15233D02*
X12090Y-12937D01*
X15253Y-12936D02*
X12372Y-12936D01*
X158941Y-12935D02*
X157440Y-12935D01*
X158941Y-16705D02*
X158941Y-12935D01*
X158940Y-16708D02*
X158940Y-63334D01*
X15330Y-61980D02*
X15322Y-61980D01*
X12088Y-15238D02*
X12088Y-61853D01*
X15734Y-15117D02*
X15739Y-15117D01*
X15729Y-15112D02*
X15734Y-15117D01*
X157560Y-65034D02*
X15165Y-65034D01*
X15253Y-12936D02*
X157648Y-12936D01*
G54D12*
X13024Y-20994D02*
X13274Y-21244D01*
X13274Y-20994D02*
X13024Y-21244D01*
X13024Y-24875D02*
X13274Y-25125D01*
X13274Y-24875D02*
X13024Y-25125D01*
X13024Y-29025D02*
X13274Y-29275D01*
X13274Y-29025D02*
X13024Y-29275D01*
X13024Y-32725D02*
X13274Y-32975D01*
X13274Y-32725D02*
X13024Y-32975D01*
X13024Y-37075D02*
X13274Y-37325D01*
X13274Y-37075D02*
X13024Y-37325D01*
X13024Y-41873D02*
X13274Y-42123D01*
X13274Y-41873D02*
X13024Y-42123D01*
X13024Y-46375D02*
X13274Y-46625D01*
X13274Y-46375D02*
X13024Y-46625D01*
X13024Y-51715D02*
X13274Y-51965D01*
X13274Y-51715D02*
X13024Y-51965D01*
X13024Y-56705D02*
X13274Y-56955D01*
X13274Y-56705D02*
X13024Y-56955D01*
X13026Y-22725D02*
X13276Y-22975D01*
X13276Y-22725D02*
X13026Y-22975D01*
X13026Y-26975D02*
X13276Y-27225D01*
X13276Y-26975D02*
X13026Y-27225D01*
X13026Y-30925D02*
X13276Y-31175D01*
X13276Y-30925D02*
X13026Y-31175D01*
X13026Y-34925D02*
X13276Y-35175D01*
X13276Y-34925D02*
X13026Y-35175D01*
X13026Y-40180D02*
X13276Y-40430D01*
X13276Y-40180D02*
X13026Y-40430D01*
X13026Y-43775D02*
X13276Y-44025D01*
X13276Y-43775D02*
X13026Y-44025D01*
X13026Y-49375D02*
X13276Y-49625D01*
X13276Y-49375D02*
X13026Y-49625D01*
X13026Y-55579D02*
X13276Y-55829D01*
X13276Y-55579D02*
X13026Y-55829D01*
X14147Y-57795D02*
X14397Y-58045D01*
X14397Y-57795D02*
X14147Y-58045D01*
X14994Y-58675D02*
X15244Y-58925D01*
X15244Y-58675D02*
X14994Y-58925D01*
X16551Y-14508D02*
X16801Y-14758D01*
X16801Y-14508D02*
X16551Y-14758D01*
X17541Y-15253D02*
X17791Y-15503D01*
X17791Y-15253D02*
X17541Y-15503D01*
X17541Y-16485D02*
X17791Y-16735D01*
X17791Y-16485D02*
X17541Y-16735D01*
X17835Y-14505D02*
X18085Y-14755D01*
X18085Y-14505D02*
X17835Y-14755D01*
X17888Y-58675D02*
X18138Y-58925D01*
X18138Y-58675D02*
X17888Y-58925D01*
X18993Y-64005D02*
X19243Y-64255D01*
X19243Y-64005D02*
X18993Y-64255D01*
X19075Y-14508D02*
X19325Y-14758D01*
X19325Y-14508D02*
X19075Y-14758D01*
X19785Y-37429D02*
X20035Y-37679D01*
X20035Y-37429D02*
X19785Y-37679D01*
X19785Y-38683D02*
X20035Y-38933D01*
X20035Y-38683D02*
X19785Y-38933D01*
X20200Y-63939D02*
X20450Y-64189D01*
X20450Y-63939D02*
X20200Y-64189D01*
X20478Y-58675D02*
X20728Y-58925D01*
X20728Y-58675D02*
X20478Y-58925D01*
X21235Y-64005D02*
X21485Y-64255D01*
X21485Y-64005D02*
X21235Y-64255D01*
X22163Y-40986D02*
X22413Y-41236D01*
X22413Y-40986D02*
X22163Y-41236D01*
X22255Y-63939D02*
X22505Y-64189D01*
X22505Y-63939D02*
X22255Y-64189D01*
X22338Y-14508D02*
X22588Y-14758D01*
X22588Y-14508D02*
X22338Y-14758D01*
X22702Y-38407D02*
X22952Y-38657D01*
X22952Y-38407D02*
X22702Y-38657D01*
X22951Y-44745D02*
X23201Y-44995D01*
X23201Y-44745D02*
X22951Y-44995D01*
X22975Y-34595D02*
X23225Y-34845D01*
X23225Y-34595D02*
X22975Y-34845D01*
X22985Y-14186D02*
X23235Y-14436D01*
X23235Y-14186D02*
X22985Y-14436D01*
X23213Y-35778D02*
X23463Y-36028D01*
X23463Y-35778D02*
X23213Y-36028D01*
X23213Y-38172D02*
X23463Y-38422D01*
X23463Y-38172D02*
X23213Y-38422D01*
X23374Y-31483D02*
X23624Y-31733D01*
X23624Y-31483D02*
X23374Y-31733D01*
X23442Y-58860D02*
X23692Y-59110D01*
X23692Y-58860D02*
X23442Y-59110D01*
X23965Y-14215D02*
X24215Y-14465D01*
X24215Y-14215D02*
X23965Y-14465D01*
X24052Y-59469D02*
X24302Y-59719D01*
X24302Y-59469D02*
X24052Y-59719D01*
X24119Y-60824D02*
X24369Y-61074D01*
X24369Y-60824D02*
X24119Y-61074D01*
X24221Y-42827D02*
X24471Y-43077D01*
X24471Y-42827D02*
X24221Y-43077D01*
X24535Y-14186D02*
X24785Y-14436D01*
X24785Y-14186D02*
X24535Y-14436D01*
X24675Y-58675D02*
X24925Y-58925D01*
X24925Y-58675D02*
X24675Y-58925D01*
X25075Y-64005D02*
X25325Y-64255D01*
X25325Y-64005D02*
X25075Y-64255D01*
X25376Y-42617D02*
X25626Y-42867D01*
X25626Y-42617D02*
X25376Y-42867D01*
X25780Y-58675D02*
X26030Y-58925D01*
X26030Y-58675D02*
X25780Y-58925D01*
X26245Y-30855D02*
X26495Y-31105D01*
X26495Y-30855D02*
X26245Y-31105D01*
X26275Y-63939D02*
X26525Y-64189D01*
X26525Y-63939D02*
X26275Y-64189D01*
X26286Y-44704D02*
X26536Y-44954D01*
X26536Y-44704D02*
X26286Y-44954D01*
X26691Y-41527D02*
X26941Y-41777D01*
X26941Y-41527D02*
X26691Y-41777D01*
X26740Y-36340D02*
X26990Y-36590D01*
X26990Y-36340D02*
X26740Y-36590D01*
X26818Y-46964D02*
X27068Y-47214D01*
X27068Y-46964D02*
X26818Y-47214D01*
X26846Y-42400D02*
X27096Y-42650D01*
X27096Y-42400D02*
X26846Y-42650D01*
X27617Y-64005D02*
X27867Y-64255D01*
X27867Y-64005D02*
X27617Y-64255D01*
X28567Y-46423D02*
X28817Y-46673D01*
X28817Y-46423D02*
X28567Y-46673D01*
X28615Y-42535D02*
X28865Y-42785D01*
X28865Y-42535D02*
X28615Y-42785D01*
X29919Y-34868D02*
X30169Y-35118D01*
X30169Y-34868D02*
X29919Y-35118D01*
X30103Y-63939D02*
X30353Y-64189D01*
X30353Y-63939D02*
X30103Y-64189D01*
X30112Y-44047D02*
X30362Y-44297D01*
X30362Y-44047D02*
X30112Y-44297D01*
X30415Y-35854D02*
X30665Y-36104D01*
X30665Y-35854D02*
X30415Y-36104D01*
X30907Y-38665D02*
X31157Y-38915D01*
X31157Y-38665D02*
X30907Y-38915D01*
X31317Y-42315D02*
X31567Y-42565D01*
X31567Y-42315D02*
X31317Y-42565D01*
X31379Y-64005D02*
X31629Y-64255D01*
X31629Y-64005D02*
X31379Y-64255D01*
X31630Y-25525D02*
X31880Y-25775D01*
X31880Y-25525D02*
X31630Y-25775D01*
X31725Y-18615D02*
X31975Y-18865D01*
X31975Y-18615D02*
X31725Y-18865D01*
X32136Y-31897D02*
X32386Y-32147D01*
X32386Y-31897D02*
X32136Y-32147D01*
X32385Y-27215D02*
X32635Y-27465D01*
X32635Y-27215D02*
X32385Y-27465D01*
X32405Y-25325D02*
X32655Y-25575D01*
X32655Y-25325D02*
X32405Y-25575D01*
X32733Y-38760D02*
X32983Y-39010D01*
X32983Y-38760D02*
X32733Y-39010D01*
X32735Y-33715D02*
X32985Y-33965D01*
X32985Y-33715D02*
X32735Y-33965D01*
X32830Y-34750D02*
X33080Y-35000D01*
X33080Y-34750D02*
X32830Y-35000D01*
X32897Y-63939D02*
X33147Y-64189D01*
X33147Y-63939D02*
X32897Y-64189D01*
X32968Y-32608D02*
X33218Y-32858D01*
X33218Y-32608D02*
X32968Y-32858D01*
X33184Y-33198D02*
X33434Y-33448D01*
X33434Y-33198D02*
X33184Y-33448D01*
X33256Y-45262D02*
X33506Y-45512D01*
X33506Y-45262D02*
X33256Y-45512D01*
X33796Y-25809D02*
X34046Y-26059D01*
X34046Y-25809D02*
X33796Y-26059D01*
X33885Y-28185D02*
X34135Y-28435D01*
X34135Y-28185D02*
X33885Y-28435D01*
X34021Y-33531D02*
X34271Y-33781D01*
X34271Y-33531D02*
X34021Y-33781D01*
X34137Y-45269D02*
X34387Y-45519D01*
X34387Y-45269D02*
X34137Y-45519D01*
X34305Y-30276D02*
X34555Y-30526D01*
X34555Y-30276D02*
X34305Y-30526D01*
X34343Y-34280D02*
X34593Y-34530D01*
X34593Y-34280D02*
X34343Y-34530D01*
X34674Y-32590D02*
X34924Y-32840D01*
X34924Y-32590D02*
X34674Y-32840D01*
X34764Y-29985D02*
X35014Y-30235D01*
X35014Y-29985D02*
X34764Y-30235D01*
X35305Y-27715D02*
X35555Y-27965D01*
X35555Y-27715D02*
X35305Y-27965D01*
X35547Y-41539D02*
X35797Y-41789D01*
X35797Y-41539D02*
X35547Y-41789D01*
X36331Y-33020D02*
X36581Y-33270D01*
X36581Y-33020D02*
X36331Y-33270D01*
X36420Y-44461D02*
X36670Y-44711D01*
X36670Y-44461D02*
X36420Y-44711D01*
X36514Y-34750D02*
X36764Y-35000D01*
X36764Y-34750D02*
X36514Y-35000D01*
X36748Y-36919D02*
X36998Y-37169D01*
X36998Y-36919D02*
X36748Y-37169D01*
X36758Y-17977D02*
X37008Y-18227D01*
X37008Y-17977D02*
X36758Y-18227D01*
X36958Y-43486D02*
X37208Y-43736D01*
X37208Y-43486D02*
X36958Y-43736D01*
X37073Y-27700D02*
X37323Y-27950D01*
X37323Y-27700D02*
X37073Y-27950D01*
X37194Y-46617D02*
X37444Y-46867D01*
X37444Y-46617D02*
X37194Y-46867D01*
X37446Y-35407D02*
X37696Y-35657D01*
X37696Y-35407D02*
X37446Y-35657D01*
X37644Y-33792D02*
X37894Y-34042D01*
X37894Y-33792D02*
X37644Y-34042D01*
X37679Y-34841D02*
X37929Y-35091D01*
X37929Y-34841D02*
X37679Y-35091D01*
X37797Y-28185D02*
X38047Y-28435D01*
X38047Y-28185D02*
X37797Y-28435D01*
X37822Y-52032D02*
X38072Y-52282D01*
X38072Y-52032D02*
X37822Y-52282D01*
X38494Y-30899D02*
X38744Y-31149D01*
X38744Y-30899D02*
X38494Y-31149D01*
X38515Y-51430D02*
X38765Y-51680D01*
X38765Y-51430D02*
X38515Y-51680D01*
X38704Y-35635D02*
X38954Y-35885D01*
X38954Y-35635D02*
X38704Y-35885D01*
X38774Y-43355D02*
X39024Y-43605D01*
X39024Y-43355D02*
X38774Y-43605D01*
X38855Y-46772D02*
X39105Y-47022D01*
X39105Y-46772D02*
X38855Y-47022D01*
X38858Y-28260D02*
X39108Y-28510D01*
X39108Y-28260D02*
X38858Y-28510D01*
X39237Y-47512D02*
X39487Y-47762D01*
X39487Y-47512D02*
X39237Y-47762D01*
X39257Y-41658D02*
X39507Y-41908D01*
X39507Y-41658D02*
X39257Y-41908D01*
X39759Y-26295D02*
X40009Y-26545D01*
X40009Y-26295D02*
X39759Y-26545D01*
X39831Y-32671D02*
X40081Y-32921D01*
X40081Y-32671D02*
X39831Y-32921D01*
X39839Y-46772D02*
X40089Y-47022D01*
X40089Y-46772D02*
X39839Y-47022D01*
X39876Y-44115D02*
X40126Y-44365D01*
X40126Y-44115D02*
X39876Y-44365D01*
X40051Y-40510D02*
X40301Y-40760D01*
X40301Y-40510D02*
X40051Y-40760D01*
X40105Y-43350D02*
X40355Y-43600D01*
X40355Y-43350D02*
X40105Y-43600D01*
X40335Y-35834D02*
X40585Y-36084D01*
X40585Y-35834D02*
X40335Y-36084D01*
X40362Y-25525D02*
X40612Y-25775D01*
X40612Y-25525D02*
X40362Y-25775D01*
X41298Y-23734D02*
X41548Y-23984D01*
X41548Y-23734D02*
X41298Y-23984D01*
X41419Y-23077D02*
X41669Y-23327D01*
X41669Y-23077D02*
X41419Y-23327D01*
X41658Y-25012D02*
X41908Y-25262D01*
X41908Y-25012D02*
X41658Y-25262D01*
X41680Y-46284D02*
X41930Y-46534D01*
X41930Y-46284D02*
X41680Y-46534D01*
X41775Y-39747D02*
X42025Y-39997D01*
X42025Y-39747D02*
X41775Y-39997D01*
X42369Y-21385D02*
X42619Y-21635D01*
X42619Y-21385D02*
X42369Y-21635D01*
X42736Y-43648D02*
X42986Y-43898D01*
X42986Y-43648D02*
X42736Y-43898D01*
X42927Y-28999D02*
X43177Y-29249D01*
X43177Y-28999D02*
X42927Y-29249D01*
X43314Y-37999D02*
X43564Y-38249D01*
X43564Y-37999D02*
X43314Y-38249D01*
X43354Y-46680D02*
X43604Y-46930D01*
X43604Y-46680D02*
X43354Y-46930D01*
X43602Y-44376D02*
X43852Y-44626D01*
X43852Y-44376D02*
X43602Y-44626D01*
X43735Y-52300D02*
X43985Y-52550D01*
X43985Y-52300D02*
X43735Y-52550D01*
X43856Y-18285D02*
X44106Y-18535D01*
X44106Y-18285D02*
X43856Y-18535D01*
X44059Y-39572D02*
X44309Y-39822D01*
X44309Y-39572D02*
X44059Y-39822D01*
X44169Y-37989D02*
X44419Y-38239D01*
X44419Y-37989D02*
X44169Y-38239D01*
X44773Y-39874D02*
X45023Y-40124D01*
X45023Y-39874D02*
X44773Y-40124D01*
X45055Y-19513D02*
X45305Y-19763D01*
X45305Y-19513D02*
X45055Y-19763D01*
X45592Y-25299D02*
X45842Y-25549D01*
X45842Y-25299D02*
X45592Y-25549D01*
X45672Y-39268D02*
X45922Y-39518D01*
X45922Y-39268D02*
X45672Y-39518D01*
X45715Y-43185D02*
X45965Y-43435D01*
X45965Y-43185D02*
X45715Y-43435D01*
X45760Y-38214D02*
X46010Y-38464D01*
X46010Y-38214D02*
X45760Y-38464D01*
X46014Y-39808D02*
X46264Y-40058D01*
X46264Y-39808D02*
X46014Y-40058D01*
X46134Y-20796D02*
X46384Y-21046D01*
X46384Y-20796D02*
X46134Y-21046D01*
X46218Y-24665D02*
X46468Y-24915D01*
X46468Y-24665D02*
X46218Y-24915D01*
X46271Y-37927D02*
X46521Y-38177D01*
X46521Y-37927D02*
X46271Y-38177D01*
X46879Y-38716D02*
X47129Y-38966D01*
X47129Y-38716D02*
X46879Y-38966D01*
X46882Y-43057D02*
X47132Y-43307D01*
X47132Y-43057D02*
X46882Y-43307D01*
X46936Y-44263D02*
X47186Y-44513D01*
X47186Y-44263D02*
X46936Y-44513D01*
X46941Y-34575D02*
X47191Y-34825D01*
X47191Y-34575D02*
X46941Y-34825D01*
X47083Y-25394D02*
X47333Y-25644D01*
X47333Y-25394D02*
X47083Y-25644D01*
X47380Y-61225D02*
X47630Y-61475D01*
X47630Y-61225D02*
X47380Y-61475D01*
X47845Y-44083D02*
X48095Y-44333D01*
X48095Y-44083D02*
X47845Y-44333D01*
X47949Y-24449D02*
X48199Y-24699D01*
X48199Y-24449D02*
X47949Y-24699D01*
X48336Y-45200D02*
X48586Y-45450D01*
X48586Y-45200D02*
X48336Y-45450D01*
X48511Y-47895D02*
X48761Y-48145D01*
X48761Y-47895D02*
X48511Y-48145D01*
X48516Y-40105D02*
X48766Y-40355D01*
X48766Y-40105D02*
X48516Y-40355D01*
X49120Y-48385D02*
X49370Y-48635D01*
X49370Y-48385D02*
X49120Y-48635D01*
X49170Y-47363D02*
X49420Y-47613D01*
X49420Y-47363D02*
X49170Y-47613D01*
X49369Y-34183D02*
X49619Y-34433D01*
X49619Y-34183D02*
X49369Y-34433D01*
X49393Y-34759D02*
X49643Y-35009D01*
X49643Y-34759D02*
X49393Y-35009D01*
X49965Y-36545D02*
X50215Y-36795D01*
X50215Y-36545D02*
X49965Y-36795D01*
X50085Y-22665D02*
X50335Y-22915D01*
X50335Y-22665D02*
X50085Y-22915D01*
X50156Y-21862D02*
X50406Y-22112D01*
X50406Y-21862D02*
X50156Y-22112D01*
X50350Y-45850D02*
X50600Y-46100D01*
X50600Y-45850D02*
X50350Y-46100D01*
X50485Y-21235D02*
X50735Y-21485D01*
X50735Y-21235D02*
X50485Y-21485D01*
X50695Y-48378D02*
X50945Y-48628D01*
X50945Y-48378D02*
X50695Y-48628D01*
X50863Y-24922D02*
X51113Y-25172D01*
X51113Y-24922D02*
X50863Y-25172D01*
X50931Y-39669D02*
X51181Y-39919D01*
X51181Y-39669D02*
X50931Y-39919D01*
X51545Y-14125D02*
X51795Y-14375D01*
X51795Y-14125D02*
X51545Y-14375D01*
X51723Y-30842D02*
X51973Y-31092D01*
X51973Y-30842D02*
X51723Y-31092D01*
X51895Y-47359D02*
X52145Y-47609D01*
X52145Y-47359D02*
X51895Y-47609D01*
X52452Y-22751D02*
X52702Y-23001D01*
X52702Y-22751D02*
X52452Y-23001D01*
X52452Y-25278D02*
X52702Y-25528D01*
X52702Y-25278D02*
X52452Y-25528D01*
X52804Y-14135D02*
X53054Y-14385D01*
X53054Y-14135D02*
X52804Y-14385D01*
X53325Y-23695D02*
X53575Y-23945D01*
X53575Y-23695D02*
X53325Y-23945D01*
X53335Y-22725D02*
X53585Y-22975D01*
X53585Y-22725D02*
X53335Y-22975D01*
X54031Y-32020D02*
X54281Y-32270D01*
X54281Y-32020D02*
X54031Y-32270D01*
X54075Y-14128D02*
X54325Y-14378D01*
X54325Y-14128D02*
X54075Y-14378D01*
X54076Y-56932D02*
X54326Y-57182D01*
X54326Y-56932D02*
X54076Y-57182D01*
X54303Y-18949D02*
X54553Y-19199D01*
X54553Y-18949D02*
X54303Y-19199D01*
X54789Y-39582D02*
X55039Y-39832D01*
X55039Y-39582D02*
X54789Y-39832D01*
X54804Y-37430D02*
X55054Y-37680D01*
X55054Y-37430D02*
X54804Y-37680D01*
X54852Y-45507D02*
X55102Y-45757D01*
X55102Y-45507D02*
X54852Y-45757D01*
X55054Y-14143D02*
X55304Y-14393D01*
X55304Y-14143D02*
X55054Y-14393D01*
X55233Y-38150D02*
X55483Y-38400D01*
X55483Y-38150D02*
X55233Y-38400D01*
X55338Y-27531D02*
X55588Y-27781D01*
X55588Y-27531D02*
X55338Y-27781D01*
X56035Y-14128D02*
X56285Y-14378D01*
X56285Y-14128D02*
X56035Y-14378D01*
X56521Y-26686D02*
X56771Y-26936D01*
X56771Y-26686D02*
X56521Y-26936D01*
X56666Y-37241D02*
X56916Y-37491D01*
X56916Y-37241D02*
X56666Y-37491D01*
X56729Y-59543D02*
X56979Y-59793D01*
X56979Y-59543D02*
X56729Y-59793D01*
X56848Y-61538D02*
X57098Y-61788D01*
X57098Y-61538D02*
X56848Y-61788D01*
X56995Y-32065D02*
X57245Y-32315D01*
X57245Y-32065D02*
X56995Y-32315D01*
X57596Y-17333D02*
X57846Y-17583D01*
X57846Y-17333D02*
X57596Y-17583D01*
X57730Y-35455D02*
X57980Y-35705D01*
X57980Y-35455D02*
X57730Y-35705D01*
X57745Y-21610D02*
X57995Y-21860D01*
X57995Y-21610D02*
X57745Y-21860D01*
X58720Y-17031D02*
X58970Y-17281D01*
X58970Y-17031D02*
X58720Y-17281D01*
X58835Y-21941D02*
X59085Y-22191D01*
X59085Y-21941D02*
X58835Y-22191D01*
X59793Y-21976D02*
X60043Y-22226D01*
X60043Y-21976D02*
X59793Y-22226D01*
X59800Y-17005D02*
X60050Y-17255D01*
X60050Y-17005D02*
X59800Y-17255D01*
X60883Y-21911D02*
X61133Y-22161D01*
X61133Y-21911D02*
X60883Y-22161D01*
X60958Y-58317D02*
X61208Y-58567D01*
X61208Y-58317D02*
X60958Y-58567D01*
X60981Y-17031D02*
X61231Y-17281D01*
X61231Y-17031D02*
X60981Y-17281D01*
X61225Y-19345D02*
X61475Y-19595D01*
X61475Y-19345D02*
X61225Y-19595D01*
X61435Y-32890D02*
X61685Y-33140D01*
X61685Y-32890D02*
X61435Y-33140D01*
X61765Y-35445D02*
X62015Y-35695D01*
X62015Y-35445D02*
X61765Y-35695D01*
X61883Y-21901D02*
X62133Y-22151D01*
X62133Y-21901D02*
X61883Y-22151D01*
X62025Y-44161D02*
X62275Y-44411D01*
X62275Y-44161D02*
X62025Y-44411D01*
X62605Y-20755D02*
X62855Y-21005D01*
X62855Y-20755D02*
X62605Y-21005D01*
X63275Y-17405D02*
X63525Y-17655D01*
X63525Y-17405D02*
X63275Y-17655D01*
X63375Y-43585D02*
X63625Y-43835D01*
X63625Y-43585D02*
X63375Y-43835D01*
X63775Y-55525D02*
X64025Y-55775D01*
X64025Y-55525D02*
X63775Y-55775D01*
X64510Y-55690D02*
X64760Y-55940D01*
X64760Y-55690D02*
X64510Y-55940D01*
X64869Y-60575D02*
X65119Y-60825D01*
X65119Y-60575D02*
X64869Y-60825D01*
X65404Y-20791D02*
X65654Y-21041D01*
X65654Y-20791D02*
X65404Y-21041D01*
X66415Y-52625D02*
X66665Y-52875D01*
X66665Y-52625D02*
X66415Y-52875D01*
X66471Y-20215D02*
X66721Y-20465D01*
X66721Y-20215D02*
X66471Y-20465D01*
X66700Y-61138D02*
X66950Y-61388D01*
X66950Y-61138D02*
X66700Y-61388D01*
X66952Y-27321D02*
X67202Y-27571D01*
X67202Y-27321D02*
X66952Y-27571D01*
X67518Y-21936D02*
X67768Y-22186D01*
X67768Y-21936D02*
X67518Y-22186D01*
X68418Y-21936D02*
X68668Y-22186D01*
X68668Y-21936D02*
X68418Y-22186D01*
X68973Y-20591D02*
X69223Y-20841D01*
X69223Y-20591D02*
X68973Y-20841D01*
X69258Y-21921D02*
X69508Y-22171D01*
X69508Y-21921D02*
X69258Y-22171D01*
X70312Y-26654D02*
X70562Y-26904D01*
X70562Y-26654D02*
X70312Y-26904D01*
X70351Y-25670D02*
X70601Y-25920D01*
X70601Y-25670D02*
X70351Y-25920D01*
X71020Y-28819D02*
X71270Y-29069D01*
X71270Y-28819D02*
X71020Y-29069D01*
X71770Y-45835D02*
X72020Y-46085D01*
X72020Y-45835D02*
X71770Y-46085D01*
X72430Y-45915D02*
X72680Y-46165D01*
X72680Y-45915D02*
X72430Y-46165D01*
X72899Y-45130D02*
X73149Y-45380D01*
X73149Y-45130D02*
X72899Y-45380D01*
X73015Y-45835D02*
X73265Y-46085D01*
X73265Y-45835D02*
X73015Y-46085D01*
X73113Y-42819D02*
X73363Y-43069D01*
X73363Y-42819D02*
X73113Y-43069D01*
X73225Y-25670D02*
X73475Y-25920D01*
X73475Y-25670D02*
X73225Y-25920D01*
X73343Y-20315D02*
X73593Y-20565D01*
X73593Y-20315D02*
X73343Y-20565D01*
X73459Y-45142D02*
X73709Y-45392D01*
X73709Y-45142D02*
X73459Y-45392D01*
X73655Y-43142D02*
X73905Y-43392D01*
X73905Y-43142D02*
X73655Y-43392D01*
X73660Y-45915D02*
X73910Y-46165D01*
X73910Y-45915D02*
X73660Y-46165D01*
X73737Y-26654D02*
X73987Y-26904D01*
X73987Y-26654D02*
X73737Y-26904D01*
X73825Y-42370D02*
X74075Y-42620D01*
X74075Y-42370D02*
X73825Y-42620D01*
X74075Y-45142D02*
X74325Y-45392D01*
X74325Y-45142D02*
X74075Y-45392D01*
X74290Y-45835D02*
X74540Y-46085D01*
X74540Y-45835D02*
X74290Y-46085D01*
X74313Y-43142D02*
X74563Y-43392D01*
X74563Y-43142D02*
X74313Y-43392D01*
X74500Y-27211D02*
X74750Y-27461D01*
X74750Y-27211D02*
X74500Y-27461D01*
X74545Y-42370D02*
X74795Y-42620D01*
X74795Y-42370D02*
X74545Y-42620D01*
X74565Y-62560D02*
X74815Y-62810D01*
X74815Y-62560D02*
X74565Y-62810D01*
X74782Y-45142D02*
X75032Y-45392D01*
X75032Y-45142D02*
X74782Y-45392D01*
X74935Y-45915D02*
X75185Y-46165D01*
X75185Y-45915D02*
X74935Y-46165D01*
X75015Y-27687D02*
X75265Y-27937D01*
X75265Y-27687D02*
X75015Y-27937D01*
X75041Y-43142D02*
X75291Y-43392D01*
X75291Y-43142D02*
X75041Y-43392D01*
X75205Y-42370D02*
X75455Y-42620D01*
X75455Y-42370D02*
X75205Y-42620D01*
X75460Y-28285D02*
X75710Y-28535D01*
X75710Y-28285D02*
X75460Y-28535D01*
X75496Y-45142D02*
X75746Y-45392D01*
X75746Y-45142D02*
X75496Y-45392D01*
X75625Y-45835D02*
X75875Y-46085D01*
X75875Y-45835D02*
X75625Y-46085D01*
X75706Y-43142D02*
X75956Y-43392D01*
X75956Y-43142D02*
X75706Y-43392D01*
X75880Y-42370D02*
X76130Y-42620D01*
X76130Y-42370D02*
X75880Y-42620D01*
X76060Y-28819D02*
X76310Y-29069D01*
X76310Y-28819D02*
X76060Y-29069D01*
X76182Y-45142D02*
X76432Y-45392D01*
X76432Y-45142D02*
X76182Y-45392D01*
X76399Y-43142D02*
X76649Y-43392D01*
X76649Y-43142D02*
X76399Y-43392D01*
X76420Y-45915D02*
X76670Y-46165D01*
X76670Y-45915D02*
X76420Y-46165D01*
X76555Y-42370D02*
X76805Y-42620D01*
X76805Y-42370D02*
X76555Y-42620D01*
X77105Y-43142D02*
X77355Y-43392D01*
X77355Y-43142D02*
X77105Y-43392D01*
X77110Y-45835D02*
X77360Y-46085D01*
X77360Y-45835D02*
X77110Y-46085D01*
X77245Y-42370D02*
X77495Y-42620D01*
X77495Y-42370D02*
X77245Y-42620D01*
X77665Y-45915D02*
X77915Y-46165D01*
X77915Y-45915D02*
X77665Y-46165D01*
X77815Y-43142D02*
X78065Y-43392D01*
X78065Y-43142D02*
X77815Y-43392D01*
X77890Y-42370D02*
X78140Y-42620D01*
X78140Y-42370D02*
X77890Y-42620D01*
X78100Y-46285D02*
X78350Y-46535D01*
X78350Y-46285D02*
X78100Y-46535D01*
X78494Y-15729D02*
X78744Y-15979D01*
X78744Y-15729D02*
X78494Y-15979D01*
X78502Y-46752D02*
X78752Y-47002D01*
X78752Y-46752D02*
X78502Y-47002D01*
X78580Y-42370D02*
X78830Y-42620D01*
X78830Y-42370D02*
X78580Y-42620D01*
X79007Y-47192D02*
X79257Y-47442D01*
X79257Y-47192D02*
X79007Y-47442D01*
X79521Y-15729D02*
X79771Y-15979D01*
X79771Y-15729D02*
X79521Y-15979D01*
X79825Y-50365D02*
X80075Y-50615D01*
X80075Y-50365D02*
X79825Y-50615D01*
X79885Y-50945D02*
X80135Y-51195D01*
X80135Y-50945D02*
X79885Y-51195D01*
X79965Y-51525D02*
X80215Y-51775D01*
X80215Y-51525D02*
X79965Y-51775D01*
X80095Y-19525D02*
X80345Y-19775D01*
X80345Y-19525D02*
X80095Y-19775D01*
X80115Y-16257D02*
X80365Y-16507D01*
X80365Y-16257D02*
X80115Y-16507D01*
X80137Y-16939D02*
X80387Y-17189D01*
X80387Y-16939D02*
X80137Y-17189D01*
X80137Y-17875D02*
X80387Y-18125D01*
X80387Y-17875D02*
X80137Y-18125D01*
X80137Y-18315D02*
X80387Y-18565D01*
X80387Y-18315D02*
X80137Y-18565D01*
X80137Y-19012D02*
X80387Y-19262D01*
X80387Y-19012D02*
X80137Y-19262D01*
X80365Y-51805D02*
X80615Y-52055D01*
X80615Y-51805D02*
X80365Y-52055D01*
X80555Y-44305D02*
X80805Y-44555D01*
X80805Y-44305D02*
X80555Y-44555D01*
X80560Y-50175D02*
X80810Y-50425D01*
X80810Y-50175D02*
X80560Y-50425D01*
X80583Y-51056D02*
X80833Y-51306D01*
X80833Y-51056D02*
X80583Y-51306D01*
X80615Y-52175D02*
X80865Y-52425D01*
X80865Y-52175D02*
X80615Y-52425D01*
X80915Y-44765D02*
X81165Y-45015D01*
X81165Y-44765D02*
X80915Y-45015D01*
X81127Y-51482D02*
X81377Y-51732D01*
X81377Y-51482D02*
X81127Y-51732D01*
X81469Y-45110D02*
X81719Y-45360D01*
X81719Y-45110D02*
X81469Y-45360D01*
X81915Y-45765D02*
X82165Y-46015D01*
X82165Y-45765D02*
X81915Y-46015D01*
X82765Y-49435D02*
X83015Y-49685D01*
X83015Y-49435D02*
X82765Y-49685D01*
X82776Y-48835D02*
X83026Y-49085D01*
X83026Y-48835D02*
X82776Y-49085D01*
X83304Y-17875D02*
X83554Y-18125D01*
X83554Y-17875D02*
X83304Y-18125D01*
X83304Y-49840D02*
X83554Y-50090D01*
X83554Y-49840D02*
X83304Y-50090D01*
X83545Y-46835D02*
X83795Y-47085D01*
X83795Y-46835D02*
X83545Y-47085D01*
X83545Y-47895D02*
X83795Y-48145D01*
X83795Y-47895D02*
X83545Y-48145D01*
X83560Y-47375D02*
X83810Y-47625D01*
X83810Y-47375D02*
X83560Y-47625D01*
X83560Y-48465D02*
X83810Y-48715D01*
X83810Y-48465D02*
X83560Y-48715D01*
X83672Y-50342D02*
X83922Y-50592D01*
X83922Y-50342D02*
X83672Y-50592D01*
X84189Y-50725D02*
X84439Y-50975D01*
X84439Y-50725D02*
X84189Y-50975D01*
X84512Y-51182D02*
X84762Y-51432D01*
X84762Y-51182D02*
X84512Y-51432D01*
X84910Y-51610D02*
X85160Y-51860D01*
X85160Y-51610D02*
X84910Y-51860D01*
X85390Y-22180D02*
X85640Y-22430D01*
X85640Y-22180D02*
X85390Y-22430D01*
X85464Y-28106D02*
X85714Y-28356D01*
X85714Y-28106D02*
X85464Y-28356D01*
X85548Y-19292D02*
X85798Y-19542D01*
X85798Y-19292D02*
X85548Y-19542D01*
X85557Y-57175D02*
X85807Y-57425D01*
X85807Y-57175D02*
X85557Y-57425D01*
X85720Y-57895D02*
X85970Y-58145D01*
X85970Y-57895D02*
X85720Y-58145D01*
X85720Y-59650D02*
X85970Y-59900D01*
X85970Y-59650D02*
X85720Y-59900D01*
X85720Y-61405D02*
X85970Y-61655D01*
X85970Y-61405D02*
X85720Y-61655D01*
X85775Y-58585D02*
X86025Y-58835D01*
X86025Y-58585D02*
X85775Y-58835D01*
X85775Y-60565D02*
X86025Y-60815D01*
X86025Y-60565D02*
X85775Y-60815D01*
X85775Y-62385D02*
X86025Y-62635D01*
X86025Y-62385D02*
X85775Y-62635D01*
X85811Y-63081D02*
X86061Y-63331D01*
X86061Y-63081D02*
X85811Y-63331D01*
X86171Y-56633D02*
X86421Y-56883D01*
X86421Y-56633D02*
X86171Y-56883D01*
X86489Y-57400D02*
X86739Y-57650D01*
X86739Y-57400D02*
X86489Y-57650D01*
X86489Y-59050D02*
X86739Y-59300D01*
X86739Y-59050D02*
X86489Y-59300D01*
X86489Y-61030D02*
X86739Y-61280D01*
X86739Y-61030D02*
X86489Y-61280D01*
X86489Y-62993D02*
X86739Y-63243D01*
X86739Y-62993D02*
X86489Y-63243D01*
X86515Y-58075D02*
X86765Y-58325D01*
X86765Y-58075D02*
X86515Y-58325D01*
X86515Y-60055D02*
X86765Y-60305D01*
X86765Y-60055D02*
X86515Y-60305D01*
X86515Y-61827D02*
X86765Y-62077D01*
X86765Y-61827D02*
X86515Y-62077D01*
X86588Y-63888D02*
X86838Y-64138D01*
X86838Y-63888D02*
X86588Y-64138D01*
X86653Y-28312D02*
X86903Y-28562D01*
X86903Y-28312D02*
X86653Y-28562D01*
X87201Y-19095D02*
X87451Y-19345D01*
X87451Y-19095D02*
X87201Y-19345D01*
X87201Y-21142D02*
X87451Y-21392D01*
X87451Y-21142D02*
X87201Y-21392D01*
X87259Y-63888D02*
X87509Y-64138D01*
X87509Y-63888D02*
X87259Y-64138D01*
X87676Y-23381D02*
X87926Y-23631D01*
X87926Y-23381D02*
X87676Y-23631D01*
X87970Y-63764D02*
X88220Y-64014D01*
X88220Y-63764D02*
X87970Y-64014D01*
X88306Y-26636D02*
X88556Y-26886D01*
X88556Y-26636D02*
X88306Y-26886D01*
X88404Y-27196D02*
X88654Y-27446D01*
X88654Y-27196D02*
X88404Y-27446D01*
X89090Y-63888D02*
X89340Y-64138D01*
X89340Y-63888D02*
X89090Y-64138D01*
X89244Y-27588D02*
X89494Y-27838D01*
X89494Y-27588D02*
X89244Y-27838D01*
X89524Y-17953D02*
X89774Y-18203D01*
X89774Y-17953D02*
X89524Y-18203D01*
X89603Y-14764D02*
X89853Y-15014D01*
X89853Y-14764D02*
X89603Y-15014D01*
X90185Y-63764D02*
X90435Y-64014D01*
X90435Y-63764D02*
X90185Y-64014D01*
X90272Y-17953D02*
X90522Y-18203D01*
X90522Y-17953D02*
X90272Y-18203D01*
X90666Y-33504D02*
X90916Y-33754D01*
X90916Y-33504D02*
X90666Y-33754D01*
X90770Y-53495D02*
X91020Y-53745D01*
X91020Y-53495D02*
X90770Y-53745D01*
X91020Y-18583D02*
X91270Y-18833D01*
X91270Y-18583D02*
X91020Y-18833D01*
X91657Y-22117D02*
X91907Y-22367D01*
X91907Y-22117D02*
X91657Y-22367D01*
X91926Y-33977D02*
X92176Y-34227D01*
X92176Y-33977D02*
X91926Y-34227D01*
X91999Y-22555D02*
X92249Y-22805D01*
X92249Y-22555D02*
X91999Y-22805D01*
X92123Y-30788D02*
X92373Y-31038D01*
X92373Y-30788D02*
X92123Y-31038D01*
X92475Y-54925D02*
X92725Y-55175D01*
X92725Y-54925D02*
X92475Y-55175D01*
X92975Y-55630D02*
X93225Y-55880D01*
X93225Y-55630D02*
X92975Y-55880D01*
X93186Y-17520D02*
X93436Y-17770D01*
X93436Y-17520D02*
X93186Y-17770D01*
X93304Y-26378D02*
X93554Y-26628D01*
X93554Y-26378D02*
X93304Y-26628D01*
X93492Y-63749D02*
X93742Y-63999D01*
X93742Y-63749D02*
X93492Y-63999D01*
X93715Y-54220D02*
X93965Y-54470D01*
X93965Y-54220D02*
X93715Y-54470D01*
X94105Y-63697D02*
X94355Y-63947D01*
X94355Y-63697D02*
X94105Y-63947D01*
X94648Y-35390D02*
X94898Y-35640D01*
X94898Y-35390D02*
X94648Y-35640D01*
X94745Y-28713D02*
X94995Y-28963D01*
X94995Y-28713D02*
X94745Y-28963D01*
X94945Y-63749D02*
X95195Y-63999D01*
X95195Y-63749D02*
X94945Y-63999D01*
X95508Y-23150D02*
X95758Y-23400D01*
X95758Y-23150D02*
X95508Y-23400D01*
X95725Y-63697D02*
X95975Y-63947D01*
X95975Y-63697D02*
X95725Y-63947D01*
X95775Y-33418D02*
X96025Y-33668D01*
X96025Y-33418D02*
X95775Y-33668D01*
X95974Y-35677D02*
X96224Y-35927D01*
X96224Y-35677D02*
X95974Y-35927D01*
X96719Y-47470D02*
X96969Y-47720D01*
X96969Y-47470D02*
X96719Y-47720D01*
X96765Y-33522D02*
X97015Y-33772D01*
X97015Y-33522D02*
X96765Y-33772D01*
X96805Y-48175D02*
X97055Y-48425D01*
X97055Y-48175D02*
X96805Y-48425D01*
X96909Y-63749D02*
X97159Y-63999D01*
X97159Y-63749D02*
X96909Y-63999D01*
X97099Y-28776D02*
X97349Y-29026D01*
X97349Y-28776D02*
X97099Y-29026D01*
X97112Y-46667D02*
X97362Y-46917D01*
X97362Y-46667D02*
X97112Y-46917D01*
X97780Y-37360D02*
X98030Y-37610D01*
X98030Y-37360D02*
X97780Y-37610D01*
X97812Y-45867D02*
X98062Y-46117D01*
X98062Y-45867D02*
X97812Y-46117D01*
X97855Y-47405D02*
X98105Y-47655D01*
X98105Y-47405D02*
X97855Y-47655D01*
X98022Y-63697D02*
X98272Y-63947D01*
X98272Y-63697D02*
X98022Y-63947D01*
X98103Y-48505D02*
X98353Y-48755D01*
X98353Y-48505D02*
X98103Y-48755D01*
X98259Y-33391D02*
X98509Y-33641D01*
X98509Y-33391D02*
X98259Y-33641D01*
X98350Y-47725D02*
X98600Y-47975D01*
X98600Y-47725D02*
X98350Y-47975D01*
X98800Y-63749D02*
X99050Y-63999D01*
X99050Y-63749D02*
X98800Y-63999D01*
X98855Y-21693D02*
X99105Y-21943D01*
X99105Y-21693D02*
X98855Y-21943D01*
X98936Y-46823D02*
X99186Y-47073D01*
X99186Y-46823D02*
X98936Y-47073D01*
X98950Y-45525D02*
X99200Y-45775D01*
X99200Y-45525D02*
X98950Y-45775D01*
X98973Y-34607D02*
X99223Y-34857D01*
X99223Y-34607D02*
X98973Y-34857D01*
X99670Y-46795D02*
X99920Y-47045D01*
X99920Y-46795D02*
X99670Y-47045D01*
X99670Y-63697D02*
X99920Y-63947D01*
X99920Y-63697D02*
X99670Y-63947D01*
X99913Y-54205D02*
X100163Y-54455D01*
X100163Y-54205D02*
X99913Y-54455D01*
X100465Y-46201D02*
X100715Y-46451D01*
X100715Y-46201D02*
X100465Y-46451D01*
X100525Y-63749D02*
X100775Y-63999D01*
X100775Y-63749D02*
X100525Y-63999D01*
X100749Y-35347D02*
X100999Y-35597D01*
X100999Y-35347D02*
X100749Y-35597D01*
X100953Y-29071D02*
X101203Y-29321D01*
X101203Y-29071D02*
X100953Y-29321D01*
X101110Y-38650D02*
X101360Y-38900D01*
X101360Y-38650D02*
X101110Y-38900D01*
X101402Y-33863D02*
X101652Y-34113D01*
X101652Y-33863D02*
X101402Y-34113D01*
X101430Y-35831D02*
X101680Y-36081D01*
X101680Y-35831D02*
X101430Y-36081D01*
X102634Y-37402D02*
X102884Y-37652D01*
X102884Y-37402D02*
X102634Y-37652D01*
X102713Y-27087D02*
X102963Y-27337D01*
X102963Y-27087D02*
X102713Y-27337D01*
X102752Y-36654D02*
X103002Y-36904D01*
X103002Y-36654D02*
X102752Y-36904D01*
X103803Y-27982D02*
X104053Y-28232D01*
X104053Y-27982D02*
X103803Y-28232D01*
X104355Y-44745D02*
X104605Y-44995D01*
X104605Y-44745D02*
X104355Y-44995D01*
X104707Y-63697D02*
X104957Y-63947D01*
X104957Y-63697D02*
X104707Y-63947D01*
X104800Y-36457D02*
X105050Y-36707D01*
X105050Y-36457D02*
X104800Y-36707D01*
X105032Y-32091D02*
X105282Y-32341D01*
X105282Y-32091D02*
X105032Y-32341D01*
X105475Y-37375D02*
X105725Y-37625D01*
X105725Y-37375D02*
X105475Y-37625D01*
X105505Y-63749D02*
X105755Y-63999D01*
X105755Y-63749D02*
X105505Y-63999D01*
X105732Y-44102D02*
X105982Y-44352D01*
X105982Y-44102D02*
X105732Y-44352D01*
X105797Y-42707D02*
X106047Y-42957D01*
X106047Y-42707D02*
X105797Y-42957D01*
X106296Y-34902D02*
X106546Y-35152D01*
X106546Y-34902D02*
X106296Y-35152D01*
X106300Y-63697D02*
X106550Y-63947D01*
X106550Y-63697D02*
X106300Y-63947D01*
X106315Y-33693D02*
X106565Y-33943D01*
X106565Y-33693D02*
X106315Y-33943D01*
X106845Y-41935D02*
X107095Y-42185D01*
X107095Y-41935D02*
X106845Y-42185D01*
X106945Y-63749D02*
X107195Y-63999D01*
X107195Y-63749D02*
X106945Y-63999D01*
X107119Y-36478D02*
X107369Y-36728D01*
X107369Y-36478D02*
X107119Y-36728D01*
X107233Y-30264D02*
X107483Y-30514D01*
X107483Y-30264D02*
X107233Y-30514D01*
X107989Y-34056D02*
X108239Y-34306D01*
X108239Y-34056D02*
X107989Y-34306D01*
X108025Y-41890D02*
X108275Y-42140D01*
X108275Y-41890D02*
X108025Y-42140D01*
X108343Y-32288D02*
X108593Y-32538D01*
X108593Y-32288D02*
X108343Y-32538D01*
X109255Y-42265D02*
X109505Y-42515D01*
X109505Y-42265D02*
X109255Y-42515D01*
X109626Y-33378D02*
X109876Y-33628D01*
X109876Y-33378D02*
X109626Y-33628D01*
X109761Y-22121D02*
X110011Y-22371D01*
X110011Y-22121D02*
X109761Y-22371D01*
X109993Y-42118D02*
X110243Y-42368D01*
X110243Y-42118D02*
X109993Y-42368D01*
X110260Y-41305D02*
X110510Y-41555D01*
X110510Y-41305D02*
X110260Y-41555D01*
X110938Y-41173D02*
X111188Y-41423D01*
X111188Y-41173D02*
X110938Y-41423D01*
X111002Y-40562D02*
X111252Y-40812D01*
X111252Y-40562D02*
X111002Y-40812D01*
X111711Y-40401D02*
X111961Y-40651D01*
X111961Y-40401D02*
X111711Y-40651D01*
X111760Y-39805D02*
X112010Y-40055D01*
X112010Y-39805D02*
X111760Y-40055D01*
X112351Y-39761D02*
X112601Y-40011D01*
X112601Y-39761D02*
X112351Y-40011D01*
X115386Y-41926D02*
X115636Y-42176D01*
X115636Y-41926D02*
X115386Y-42176D01*
X115492Y-21188D02*
X115742Y-21438D01*
X115742Y-21188D02*
X115492Y-21438D01*
X115965Y-25859D02*
X116215Y-26109D01*
X116215Y-25859D02*
X115965Y-26109D01*
X116033Y-41926D02*
X116283Y-42176D01*
X116283Y-41926D02*
X116033Y-42176D01*
X116572Y-25859D02*
X116822Y-26109D01*
X116822Y-25859D02*
X116572Y-26109D01*
X116585Y-41926D02*
X116835Y-42176D01*
X116835Y-41926D02*
X116585Y-42176D01*
X117275Y-25905D02*
X117525Y-26155D01*
X117525Y-25905D02*
X117275Y-26155D01*
X117384Y-41926D02*
X117634Y-42176D01*
X117634Y-41926D02*
X117384Y-42176D01*
X117995Y-16020D02*
X118245Y-16270D01*
X118245Y-16020D02*
X117995Y-16270D01*
X118015Y-18311D02*
X118265Y-18561D01*
X118265Y-18311D02*
X118015Y-18561D01*
X118032Y-41937D02*
X118282Y-42187D01*
X118282Y-41937D02*
X118032Y-42187D01*
X118275Y-15430D02*
X118525Y-15680D01*
X118525Y-15430D02*
X118275Y-15680D01*
X118735Y-41926D02*
X118985Y-42176D01*
X118985Y-41926D02*
X118735Y-42176D01*
X119076Y-22591D02*
X119326Y-22841D01*
X119326Y-22591D02*
X119076Y-22841D01*
X119291Y-41926D02*
X119541Y-42176D01*
X119541Y-41926D02*
X119291Y-42176D01*
X119423Y-28563D02*
X119673Y-28813D01*
X119673Y-28563D02*
X119423Y-28813D01*
X119568Y-23073D02*
X119818Y-23323D01*
X119818Y-23073D02*
X119568Y-23323D01*
X119775Y-52191D02*
X120025Y-52441D01*
X120025Y-52191D02*
X119775Y-52441D01*
X119995Y-30925D02*
X120245Y-31175D01*
X120245Y-30925D02*
X119995Y-31175D01*
X120285Y-28615D02*
X120535Y-28865D01*
X120535Y-28615D02*
X120285Y-28865D01*
X120420Y-15540D02*
X120670Y-15790D01*
X120670Y-15540D02*
X120420Y-15790D01*
X120547Y-23608D02*
X120797Y-23858D01*
X120797Y-23608D02*
X120547Y-23858D01*
X120550Y-30265D02*
X120800Y-30515D01*
X120800Y-30265D02*
X120550Y-30515D01*
X120995Y-16220D02*
X121245Y-16470D01*
X121245Y-16220D02*
X120995Y-16470D01*
X121095Y-28563D02*
X121345Y-28813D01*
X121345Y-28563D02*
X121095Y-28813D01*
X121135Y-37045D02*
X121385Y-37295D01*
X121385Y-37045D02*
X121135Y-37295D01*
X121612Y-33513D02*
X121862Y-33763D01*
X121862Y-33513D02*
X121612Y-33763D01*
X121612Y-34547D02*
X121862Y-34797D01*
X121862Y-34547D02*
X121612Y-34797D01*
X121612Y-35493D02*
X121862Y-35743D01*
X121862Y-35493D02*
X121612Y-35743D01*
X121785Y-28615D02*
X122035Y-28865D01*
X122035Y-28615D02*
X121785Y-28865D01*
X121931Y-36879D02*
X122181Y-37129D01*
X122181Y-36879D02*
X121931Y-37129D01*
X122126Y-27623D02*
X122376Y-27873D01*
X122376Y-27623D02*
X122126Y-27873D01*
X122126Y-32875D02*
X122376Y-33125D01*
X122376Y-32875D02*
X122126Y-33125D01*
X122126Y-34041D02*
X122376Y-34291D01*
X122376Y-34041D02*
X122126Y-34291D01*
X122126Y-34943D02*
X122376Y-35193D01*
X122376Y-34943D02*
X122126Y-35193D01*
X122126Y-36153D02*
X122376Y-36403D01*
X122376Y-36153D02*
X122126Y-36403D01*
X122195Y-28125D02*
X122445Y-28375D01*
X122445Y-28125D02*
X122195Y-28375D01*
X122634Y-27024D02*
X122884Y-27274D01*
X122884Y-27024D02*
X122634Y-27274D01*
X124240Y-56982D02*
X124490Y-57232D01*
X124490Y-56982D02*
X124240Y-57232D01*
X125230Y-57025D02*
X125480Y-57275D01*
X125480Y-57025D02*
X125230Y-57275D01*
X125545Y-25859D02*
X125795Y-26109D01*
X125795Y-25859D02*
X125545Y-26109D01*
X125605Y-15495D02*
X125855Y-15745D01*
X125855Y-15495D02*
X125605Y-15745D01*
X126175Y-19515D02*
X126425Y-19765D01*
X126425Y-19515D02*
X126175Y-19765D01*
X126337Y-56982D02*
X126587Y-57232D01*
X126587Y-56982D02*
X126337Y-57232D01*
X126587Y-55337D02*
X126837Y-55587D01*
X126837Y-55337D02*
X126587Y-55587D01*
X126640Y-25859D02*
X126890Y-26109D01*
X126890Y-25859D02*
X126640Y-26109D01*
X126896Y-33204D02*
X127146Y-33454D01*
X127146Y-33204D02*
X126896Y-33454D01*
X127645Y-25859D02*
X127895Y-26109D01*
X127895Y-25859D02*
X127645Y-26109D01*
X127750Y-15275D02*
X128000Y-15525D01*
X128000Y-15275D02*
X127750Y-15525D01*
X128050Y-33007D02*
X128300Y-33257D01*
X128300Y-33007D02*
X128050Y-33257D01*
X128065Y-55255D02*
X128315Y-55505D01*
X128315Y-55255D02*
X128065Y-55505D01*
X128080Y-25000D02*
X128330Y-25250D01*
X128330Y-25000D02*
X128080Y-25250D01*
X128104Y-53820D02*
X128354Y-54070D01*
X128354Y-53820D02*
X128104Y-54070D01*
X128235Y-16365D02*
X128485Y-16615D01*
X128485Y-16365D02*
X128235Y-16615D01*
X128255Y-15854D02*
X128505Y-16104D01*
X128505Y-15854D02*
X128255Y-16104D01*
X128497Y-41136D02*
X128747Y-41386D01*
X128747Y-41136D02*
X128497Y-41386D01*
X128965Y-24565D02*
X129215Y-24815D01*
X129215Y-24565D02*
X128965Y-24815D01*
X129137Y-23943D02*
X129387Y-24193D01*
X129387Y-23943D02*
X129137Y-24193D01*
X129250Y-52674D02*
X129500Y-52924D01*
X129500Y-52674D02*
X129250Y-52924D01*
X129340Y-33204D02*
X129590Y-33454D01*
X129590Y-33204D02*
X129340Y-33454D01*
X129424Y-53873D02*
X129674Y-54123D01*
X129674Y-53873D02*
X129424Y-54123D01*
X129440Y-42089D02*
X129690Y-42339D01*
X129690Y-42089D02*
X129440Y-42339D01*
X129655Y-17095D02*
X129905Y-17345D01*
X129905Y-17095D02*
X129655Y-17345D01*
X130623Y-61711D02*
X130873Y-61961D01*
X130873Y-61711D02*
X130623Y-61961D01*
X131487Y-33007D02*
X131737Y-33257D01*
X131737Y-33007D02*
X131487Y-33257D01*
X131650Y-62768D02*
X131900Y-63018D01*
X131900Y-62768D02*
X131650Y-63018D01*
X132391Y-31983D02*
X132641Y-32233D01*
X132641Y-31983D02*
X132391Y-32233D01*
X132457Y-40867D02*
X132707Y-41117D01*
X132707Y-40867D02*
X132457Y-41117D01*
X132564Y-37898D02*
X132814Y-38148D01*
X132814Y-37898D02*
X132564Y-38148D01*
X132775Y-18065D02*
X133025Y-18315D01*
X133025Y-18065D02*
X132775Y-18315D01*
X133195Y-15175D02*
X133445Y-15425D01*
X133445Y-15175D02*
X133195Y-15425D01*
X133195Y-15985D02*
X133445Y-16235D01*
X133445Y-15985D02*
X133195Y-16235D01*
X133591Y-62740D02*
X133841Y-62990D01*
X133841Y-62740D02*
X133591Y-62990D01*
X133634Y-41016D02*
X133884Y-41266D01*
X133884Y-41016D02*
X133634Y-41266D01*
X133800Y-37898D02*
X134050Y-38148D01*
X134050Y-37898D02*
X133800Y-38148D01*
X133859Y-30635D02*
X134109Y-30885D01*
X134109Y-30635D02*
X133859Y-30885D01*
X134449Y-37099D02*
X134699Y-37349D01*
X134699Y-37099D02*
X134449Y-37349D01*
X134528Y-35977D02*
X134778Y-36227D01*
X134778Y-35977D02*
X134528Y-36227D01*
X134619Y-42037D02*
X134869Y-42287D01*
X134869Y-42037D02*
X134619Y-42287D01*
X134657Y-29717D02*
X134907Y-29967D01*
X134907Y-29717D02*
X134657Y-29967D01*
X134751Y-33601D02*
X135001Y-33851D01*
X135001Y-33601D02*
X134751Y-33851D01*
X135305Y-33017D02*
X135555Y-33267D01*
X135555Y-33017D02*
X135305Y-33267D01*
X135340Y-15084D02*
X135590Y-15334D01*
X135590Y-15084D02*
X135340Y-15334D01*
X135340Y-15675D02*
X135590Y-15925D01*
X135590Y-15675D02*
X135340Y-15925D01*
X135544Y-58178D02*
X135794Y-58428D01*
X135794Y-58178D02*
X135544Y-58428D01*
X135775Y-16195D02*
X136025Y-16445D01*
X136025Y-16195D02*
X135775Y-16445D01*
X135812Y-28737D02*
X136062Y-28987D01*
X136062Y-28737D02*
X135812Y-28987D01*
X135825Y-28525D02*
X136075Y-28775D01*
X136075Y-28525D02*
X135825Y-28775D01*
X135892Y-33035D02*
X136142Y-33285D01*
X136142Y-33035D02*
X135892Y-33285D01*
X136220Y-29370D02*
X136470Y-29620D01*
X136470Y-29370D02*
X136220Y-29620D01*
X136225Y-17075D02*
X136475Y-17325D01*
X136475Y-17075D02*
X136225Y-17325D01*
X136259Y-28069D02*
X136509Y-28319D01*
X136509Y-28069D02*
X136259Y-28319D01*
X136291Y-57333D02*
X136541Y-57583D01*
X136541Y-57333D02*
X136291Y-57583D01*
X136619Y-51201D02*
X136869Y-51451D01*
X136869Y-51201D02*
X136619Y-51451D01*
X136795Y-29981D02*
X137045Y-30231D01*
X137045Y-29981D02*
X136795Y-30231D01*
X136913Y-62768D02*
X137163Y-63018D01*
X137163Y-62768D02*
X136913Y-63018D01*
X137045Y-27925D02*
X137295Y-28175D01*
X137295Y-27925D02*
X137045Y-28175D01*
X137487Y-29925D02*
X137737Y-30175D01*
X137737Y-29925D02*
X137487Y-30175D01*
X137815Y-28016D02*
X138065Y-28266D01*
X138065Y-28016D02*
X137815Y-28266D01*
X138160Y-34000D02*
X138410Y-34250D01*
X138410Y-34000D02*
X138160Y-34250D01*
X138193Y-29556D02*
X138443Y-29806D01*
X138443Y-29556D02*
X138193Y-29806D01*
X138265Y-51205D02*
X138515Y-51455D01*
X138515Y-51205D02*
X138265Y-51455D01*
X138387Y-28945D02*
X138637Y-29195D01*
X138637Y-28945D02*
X138387Y-29195D01*
X138453Y-56922D02*
X138703Y-57172D01*
X138703Y-56922D02*
X138453Y-57172D01*
X138873Y-34633D02*
X139123Y-34883D01*
X139123Y-34633D02*
X138873Y-34883D01*
X139163Y-19860D02*
X139413Y-20110D01*
X139413Y-19860D02*
X139163Y-20110D01*
X139347Y-50107D02*
X139597Y-50357D01*
X139597Y-50107D02*
X139347Y-50357D01*
X139385Y-62740D02*
X139635Y-62990D01*
X139635Y-62740D02*
X139385Y-62990D01*
X139772Y-35647D02*
X140022Y-35897D01*
X140022Y-35647D02*
X139772Y-35897D01*
X139925Y-19875D02*
X140175Y-20125D01*
X140175Y-19875D02*
X139925Y-20125D01*
X140615Y-19860D02*
X140865Y-20110D01*
X140865Y-19860D02*
X140615Y-20110D01*
X140621Y-36381D02*
X140871Y-36631D01*
X140871Y-36381D02*
X140621Y-36631D01*
X140695Y-50107D02*
X140945Y-50357D01*
X140945Y-50107D02*
X140695Y-50357D01*
X140895Y-56890D02*
X141145Y-57140D01*
X141145Y-56890D02*
X140895Y-57140D01*
X141175Y-26590D02*
X141425Y-26840D01*
X141425Y-26590D02*
X141175Y-26840D01*
X141315Y-19875D02*
X141565Y-20125D01*
X141565Y-19875D02*
X141315Y-20125D01*
X141356Y-37231D02*
X141606Y-37481D01*
X141606Y-37231D02*
X141356Y-37481D01*
X141915Y-25905D02*
X142165Y-26155D01*
X142165Y-25905D02*
X141915Y-26155D01*
X142005Y-19860D02*
X142255Y-20110D01*
X142255Y-19860D02*
X142005Y-20110D01*
X142835Y-19875D02*
X143085Y-20125D01*
X143085Y-19875D02*
X142835Y-20125D01*
X142875Y-37330D02*
X143125Y-37580D01*
X143125Y-37330D02*
X142875Y-37580D01*
X143115Y-62827D02*
X143365Y-63077D01*
X143365Y-62827D02*
X143115Y-63077D01*
X143175Y-25035D02*
X143425Y-25285D01*
X143425Y-25035D02*
X143175Y-25285D01*
X143585Y-19860D02*
X143835Y-20110D01*
X143835Y-19860D02*
X143585Y-20110D01*
X144217Y-37231D02*
X144467Y-37481D01*
X144467Y-37231D02*
X144217Y-37481D01*
X144325Y-19875D02*
X144575Y-20125D01*
X144575Y-19875D02*
X144325Y-20125D01*
X144569Y-56922D02*
X144819Y-57172D01*
X144819Y-56922D02*
X144569Y-57172D01*
X144766Y-55270D02*
X145016Y-55520D01*
X145016Y-55270D02*
X144766Y-55520D01*
X144775Y-25035D02*
X145025Y-25285D01*
X145025Y-25035D02*
X144775Y-25285D01*
X145345Y-19860D02*
X145595Y-20110D01*
X145595Y-19860D02*
X145345Y-20110D01*
X146080Y-19875D02*
X146330Y-20125D01*
X146330Y-19875D02*
X146080Y-20125D01*
X146087Y-37330D02*
X146337Y-37580D01*
X146337Y-37330D02*
X146087Y-37580D01*
X146549Y-47160D02*
X146799Y-47410D01*
X146799Y-47160D02*
X146549Y-47410D01*
X147201Y-54827D02*
X147451Y-55077D01*
X147451Y-54827D02*
X147201Y-55077D01*
X147738Y-37231D02*
X147988Y-37481D01*
X147988Y-37231D02*
X147738Y-37481D01*
X147951Y-33035D02*
X148201Y-33285D01*
X148201Y-33035D02*
X147951Y-33285D01*
X148102Y-62827D02*
X148352Y-63077D01*
X148352Y-62827D02*
X148102Y-63077D01*
X149243Y-37330D02*
X149493Y-37580D01*
X149493Y-37330D02*
X149243Y-37580D01*
X149299Y-32537D02*
X149549Y-32787D01*
X149549Y-32537D02*
X149299Y-32787D01*
X149957Y-54831D02*
X150207Y-55081D01*
X150207Y-54831D02*
X149957Y-55081D01*
X149959Y-31643D02*
X150209Y-31893D01*
X150209Y-31643D02*
X149959Y-31893D01*
X149959Y-37231D02*
X150209Y-37481D01*
X150209Y-37231D02*
X149959Y-37481D01*
X150565Y-19875D02*
X150815Y-20125D01*
X150815Y-19875D02*
X150565Y-20125D01*
X150729Y-31174D02*
X150979Y-31424D01*
X150979Y-31174D02*
X150729Y-31424D01*
X150835Y-58831D02*
X151085Y-59081D01*
X151085Y-58831D02*
X150835Y-59081D01*
X151035Y-62827D02*
X151285Y-63077D01*
X151285Y-62827D02*
X151035Y-63077D01*
X151300Y-19860D02*
X151550Y-20110D01*
X151550Y-19860D02*
X151300Y-20110D01*
X151829Y-31115D02*
X152079Y-31365D01*
X152079Y-31115D02*
X151829Y-31365D01*
X151932Y-19882D02*
X152182Y-20132D01*
X152182Y-19882D02*
X151932Y-20132D01*
X152465Y-20399D02*
X152715Y-20649D01*
X152715Y-20399D02*
X152465Y-20649D01*
X153012Y-20962D02*
X153262Y-21212D01*
X153262Y-20962D02*
X153012Y-21212D01*
X153089Y-54825D02*
X153339Y-55075D01*
X153339Y-54825D02*
X153089Y-55075D01*
X153990Y-25355D02*
X154240Y-25605D01*
X154240Y-25355D02*
X153990Y-25605D01*
X153990Y-27665D02*
X154240Y-27915D01*
X154240Y-27665D02*
X153990Y-27915D01*
X154007Y-21941D02*
X154257Y-22191D01*
X154257Y-21941D02*
X154007Y-22191D01*
X154020Y-22780D02*
X154270Y-23030D01*
X154270Y-22780D02*
X154020Y-23030D01*
X154020Y-26510D02*
X154270Y-26760D01*
X154270Y-26510D02*
X154020Y-26760D01*
X154046Y-58823D02*
X154296Y-59073D01*
X154296Y-58823D02*
X154046Y-59073D01*
X154135Y-62827D02*
X154385Y-63077D01*
X154385Y-62827D02*
X154135Y-63077D01*
X154220Y-24165D02*
X154470Y-24415D01*
X154470Y-24165D02*
X154220Y-24415D01*
X154546Y-58831D02*
X154796Y-59081D01*
X154796Y-58831D02*
X154546Y-59081D01*
X154640Y-54823D02*
X154890Y-55073D01*
X154890Y-54823D02*
X154640Y-55073D01*
X155245Y-58831D02*
X155495Y-59081D01*
X155495Y-58831D02*
X155245Y-59081D01*
X34657Y-22250D02*
G75*
G03X34657Y-22250I-157J0D01*
G74*
G01*
X34657Y-25250D02*
G75*
G03X34657Y-25250I-157J0D01*
G74*
G01*
X35657Y-22250D02*
G75*
G03X35657Y-22250I-157J0D01*
G74*
G01*
X35657Y-25250D02*
G75*
G03X35657Y-25250I-157J0D01*
G74*
G01*
X36657Y-22250D02*
G75*
G03X36657Y-22250I-157J0D01*
G74*
G01*
X36657Y-25250D02*
G75*
G03X36657Y-25250I-157J0D01*
G74*
G01*
X68762Y-60935D02*
G75*
G03X68762Y-60935I-157J0D01*
G74*
G01*
X70845Y-56584D02*
G75*
G03X70845Y-56584I-157J0D01*
G74*
G01*
X72762Y-60935D02*
G75*
G03X72762Y-60935I-157J0D01*
G74*
G01*
X74845Y-56584D02*
G75*
G03X74845Y-56584I-157J0D01*
G74*
G01*
X75406Y-20171D02*
G75*
G03X75406Y-20171I-157J0D01*
G74*
G01*
X75406Y-24171D02*
G75*
G03X75406Y-24171I-157J0D01*
G74*
G01*
X150082Y-54796D02*
X150082Y-55116D01*
X149922Y-54956D02*
X150242Y-54956D01*
X150082Y-58796D02*
X150082Y-59116D01*
X149922Y-58956D02*
X150242Y-58956D01*
X150844Y-27396D02*
X150844Y-27716D01*
X150684Y-27556D02*
X151004Y-27556D01*
X150844Y-35396D02*
X150844Y-35716D01*
X150684Y-35556D02*
X151004Y-35556D01*
X152519Y-58788D02*
X152519Y-59108D01*
X152359Y-58948D02*
X152679Y-58948D01*
X152519Y-62788D02*
X152519Y-63108D01*
X152359Y-62948D02*
X152679Y-62948D01*
X38044Y-22379D02*
X38044Y-22150D01*
X37815Y-22150D01*
X37815Y-22379D01*
X38044Y-22379D01*
X38044Y-25379D02*
X38044Y-25150D01*
X37815Y-25150D01*
X37815Y-25379D01*
X38044Y-25379D01*
X39044Y-22379D02*
X39044Y-22150D01*
X38815Y-22150D01*
X38815Y-22379D01*
X39044Y-22379D01*
X39044Y-25379D02*
X39044Y-25150D01*
X38815Y-25150D01*
X38815Y-25379D01*
X39044Y-25379D01*
X70763Y-58587D02*
X70940Y-58410D01*
X70763Y-58232D01*
X70586Y-58410D01*
X70763Y-58587D01*
X73340Y-18953D02*
X73517Y-18776D01*
X73340Y-18599D01*
X73162Y-18776D01*
X73340Y-18953D01*
X74700Y-58587D02*
X74877Y-58410D01*
X74700Y-58232D01*
X74523Y-58410D01*
X74700Y-58587D01*
X77277Y-18953D02*
X77454Y-18776D01*
X77277Y-18599D01*
X77099Y-18776D01*
X77277Y-18953D01*
X19823Y-25406D02*
X20216Y-25800D01*
X20216Y-25406D02*
X19823Y-25800D01*
X20216Y-25603D02*
G75*
G03X20216Y-25603I-196J0D01*
G74*
G01*
X19823Y-31311D02*
X20216Y-31705D01*
X20216Y-31311D02*
X19823Y-31705D01*
X20216Y-31508D02*
G75*
G03X20216Y-31508I-196J0D01*
G74*
G01*
X24878Y-48159D02*
X25272Y-48552D01*
X25272Y-48159D02*
X24878Y-48552D01*
X25272Y-48356D02*
G75*
G03X25272Y-48356I-196J0D01*
G74*
G01*
X24955Y-51533D02*
X25349Y-51926D01*
X25349Y-51533D02*
X24955Y-51926D01*
X25349Y-51730D02*
G75*
G03X25349Y-51730I-196J0D01*
G74*
G01*
X30783Y-48159D02*
X31177Y-48552D01*
X31177Y-48159D02*
X30783Y-48552D01*
X31177Y-48356D02*
G75*
G03X31177Y-48356I-196J0D01*
G74*
G01*
X30860Y-51533D02*
X31254Y-51926D01*
X31254Y-51533D02*
X30860Y-51926D01*
X31254Y-51730D02*
G75*
G03X31254Y-51730I-196J0D01*
G74*
G01*
X41703Y-53750D02*
X42096Y-54144D01*
X42096Y-53750D02*
X41703Y-54144D01*
X42096Y-53947D02*
G75*
G03X42096Y-53947I-196J0D01*
G74*
G01*
X41703Y-59655D02*
X42096Y-60049D01*
X42096Y-59655D02*
X41703Y-60049D01*
X42096Y-59852D02*
G75*
G03X42096Y-59852I-196J0D01*
G74*
G01*
X50447Y-14056D02*
X50840Y-14450D01*
X50840Y-14056D02*
X50447Y-14450D01*
X50840Y-14253D02*
G75*
G03X50840Y-14253I-196J0D01*
G74*
G01*
X50447Y-17009D02*
X50840Y-17403D01*
X50840Y-17009D02*
X50447Y-17403D01*
X50840Y-17206D02*
G75*
G03X50840Y-17206I-196J0D01*
G74*
G01*
X53263Y-49254D02*
X53656Y-49648D01*
X53656Y-49254D02*
X53263Y-49648D01*
X53656Y-49451D02*
G75*
G03X53656Y-49451I-196J0D01*
G74*
G01*
X53263Y-55159D02*
X53656Y-55553D01*
X53656Y-55159D02*
X53263Y-55553D01*
X53656Y-55356D02*
G75*
G03X53656Y-55356I-196J0D01*
G74*
G01*
X56748Y-14006D02*
X57141Y-14400D01*
X57141Y-14006D02*
X56748Y-14400D01*
X57141Y-14203D02*
G75*
G03X57141Y-14203I-196J0D01*
G74*
G01*
X56748Y-16959D02*
X57141Y-17353D01*
X57141Y-16959D02*
X56748Y-17353D01*
X57141Y-17156D02*
G75*
G03X57141Y-17156I-196J0D01*
G74*
G01*
X56827Y-49166D02*
X57220Y-49560D01*
X57220Y-49166D02*
X56827Y-49560D01*
X57220Y-49363D02*
G75*
G03X57220Y-49363I-196J0D01*
G74*
G01*
X56827Y-55071D02*
X57220Y-55465D01*
X57220Y-55071D02*
X56827Y-55465D01*
X57220Y-55268D02*
G75*
G03X57220Y-55268I-196J0D01*
G74*
G01*
X57923Y-33314D02*
X58317Y-33708D01*
X58317Y-33314D02*
X57923Y-33708D01*
X58317Y-33511D02*
G75*
G03X58317Y-33511I-196J0D01*
G74*
G01*
X58203Y-41399D02*
X58597Y-41793D01*
X58597Y-41399D02*
X58203Y-41793D01*
X58597Y-41596D02*
G75*
G03X58597Y-41596I-196J0D01*
G74*
G01*
X58980Y-37199D02*
X59374Y-37593D01*
X59374Y-37199D02*
X58980Y-37593D01*
X59374Y-37396D02*
G75*
G03X59374Y-37396I-196J0D01*
G74*
G01*
X61933Y-37199D02*
X62326Y-37593D01*
X62326Y-37199D02*
X61933Y-37593D01*
X62326Y-37396D02*
G75*
G03X62326Y-37396I-196J0D01*
G74*
G01*
X63829Y-33314D02*
X64223Y-33708D01*
X64223Y-33314D02*
X63829Y-33708D01*
X64223Y-33511D02*
G75*
G03X64223Y-33511I-196J0D01*
G74*
G01*
X64109Y-41399D02*
X64503Y-41793D01*
X64503Y-41399D02*
X64109Y-41793D01*
X64503Y-41596D02*
G75*
G03X64503Y-41596I-196J0D01*
G74*
G01*
X83429Y-21003D02*
X83822Y-21397D01*
X83822Y-21003D02*
X83429Y-21397D01*
X83822Y-21200D02*
G75*
G03X83822Y-21200I-196J0D01*
G74*
G01*
X83429Y-22003D02*
X83822Y-22397D01*
X83822Y-22003D02*
X83429Y-22397D01*
X83822Y-22200D02*
G75*
G03X83822Y-22200I-196J0D01*
G74*
G01*
X101401Y-46129D02*
X101795Y-46523D01*
X101795Y-46129D02*
X101401Y-46523D01*
X101795Y-46326D02*
G75*
G03X101795Y-46326I-196J0D01*
G74*
G01*
X101401Y-52035D02*
X101795Y-52429D01*
X101795Y-52035D02*
X101401Y-52429D01*
X101795Y-52232D02*
G75*
G03X101795Y-52232I-196J0D01*
G74*
G01*
X109448Y-25787D02*
X109842Y-26181D01*
X109842Y-25787D02*
X109448Y-26181D01*
X109842Y-25984D02*
G75*
G03X109842Y-25984I-196J0D01*
G74*
G01*
X115354Y-25787D02*
X115748Y-26181D01*
X115748Y-25787D02*
X115354Y-26181D01*
X115748Y-25984D02*
G75*
G03X115748Y-25984I-196J0D01*
G74*
G01*
X117913Y-25787D02*
X118307Y-26181D01*
X118307Y-25787D02*
X117913Y-26181D01*
X118307Y-25984D02*
G75*
G03X118307Y-25984I-196J0D01*
G74*
G01*
X123818Y-25787D02*
X124212Y-26181D01*
X124212Y-25787D02*
X123818Y-26181D01*
X124212Y-25984D02*
G75*
G03X124212Y-25984I-196J0D01*
G74*
G01*
X142850Y-44129D02*
X143244Y-44523D01*
X143244Y-44129D02*
X142850Y-44523D01*
X143244Y-44326D02*
G75*
G03X143244Y-44326I-196J0D01*
G74*
G01*
X142850Y-50035D02*
X143244Y-50429D01*
X143244Y-50035D02*
X142850Y-50429D01*
X143244Y-50232D02*
G75*
G03X143244Y-50232I-196J0D01*
G74*
G01*
X143043Y-56850D02*
X143437Y-57244D01*
X143437Y-56850D02*
X143043Y-57244D01*
X143437Y-57047D02*
G75*
G03X143437Y-57047I-196J0D01*
G74*
G01*
X143043Y-62755D02*
X143437Y-63149D01*
X143437Y-62755D02*
X143043Y-63149D01*
X143437Y-62952D02*
G75*
G03X143437Y-62952I-196J0D01*
G74*
G01*
X15067Y-42013D02*
X15468Y-42414D01*
X15468Y-42013D02*
X15067Y-42414D01*
X15268Y-42013D02*
X15268Y-42414D01*
X15067Y-42214D02*
X15468Y-42214D01*
X15067Y-43013D02*
X15468Y-43414D01*
X15468Y-43013D02*
X15067Y-43414D01*
X15268Y-43013D02*
X15268Y-43414D01*
X15067Y-43214D02*
X15468Y-43214D01*
X15067Y-44013D02*
X15468Y-44414D01*
X15468Y-44013D02*
X15067Y-44414D01*
X15268Y-44013D02*
X15268Y-44414D01*
X15067Y-44214D02*
X15468Y-44214D01*
X15067Y-45013D02*
X15468Y-45414D01*
X15468Y-45013D02*
X15067Y-45414D01*
X15268Y-45013D02*
X15268Y-45414D01*
X15067Y-45214D02*
X15468Y-45214D01*
X32009Y-14143D02*
X32423Y-14557D01*
X32423Y-14143D02*
X32009Y-14557D01*
X32362Y-14496D02*
X32362Y-14204D01*
X32070Y-14204D01*
X32070Y-14496D01*
X32362Y-14496D01*
X33009Y-14143D02*
X33423Y-14557D01*
X33423Y-14143D02*
X33009Y-14557D01*
X33362Y-14496D02*
X33362Y-14204D01*
X33070Y-14204D01*
X33070Y-14496D01*
X33362Y-14496D01*
X34009Y-14143D02*
X34423Y-14557D01*
X34423Y-14143D02*
X34009Y-14557D01*
X34362Y-14496D02*
X34362Y-14204D01*
X34070Y-14204D01*
X34070Y-14496D01*
X34362Y-14496D01*
X120068Y-38844D02*
X120482Y-39257D01*
X120482Y-38844D02*
X120068Y-39257D01*
X120421Y-39197D02*
X120421Y-38905D01*
X120129Y-38905D01*
X120129Y-39197D01*
X120421Y-39197D01*
X120068Y-41844D02*
X120482Y-42257D01*
X120482Y-41844D02*
X120068Y-42257D01*
X120421Y-42197D02*
X120421Y-41905D01*
X120129Y-41905D01*
X120129Y-42197D01*
X120421Y-42197D01*
X15667Y-51993D02*
X16100Y-52426D01*
X16100Y-51993D02*
X15667Y-52426D01*
X15884Y-52426D02*
X16100Y-52210D01*
X15884Y-51993D01*
X15667Y-52210D01*
X15884Y-52426D01*
X15667Y-52993D02*
X16100Y-53426D01*
X16100Y-52993D02*
X15667Y-53426D01*
X15884Y-53426D02*
X16100Y-53210D01*
X15884Y-52993D01*
X15667Y-53210D01*
X15884Y-53426D01*
X19704Y-34937D02*
X20137Y-35370D01*
X20137Y-34937D02*
X19704Y-35370D01*
X19921Y-35370D02*
X20137Y-35153D01*
X19921Y-34937D01*
X19704Y-35153D01*
X19921Y-35370D01*
X19704Y-35937D02*
X20137Y-36370D01*
X20137Y-35937D02*
X19704Y-36370D01*
X19921Y-36370D02*
X20137Y-36153D01*
X19921Y-35937D01*
X19704Y-36153D01*
X19921Y-36370D01*
X21374Y-19523D02*
X21807Y-19956D01*
X21807Y-19523D02*
X21374Y-19956D01*
X21590Y-19956D02*
X21807Y-19740D01*
X21590Y-19523D01*
X21374Y-19740D01*
X21590Y-19956D01*
X22374Y-19523D02*
X22807Y-19956D01*
X22807Y-19523D02*
X22374Y-19956D01*
X22590Y-19956D02*
X22807Y-19740D01*
X22590Y-19523D01*
X22374Y-19740D01*
X22590Y-19956D01*
X22823Y-62357D02*
X23256Y-62790D01*
X23256Y-62357D02*
X22823Y-62790D01*
X23039Y-62790D02*
X23256Y-62573D01*
X23039Y-62357D01*
X22823Y-62573D01*
X23039Y-62790D01*
X23143Y-40533D02*
X23576Y-40966D01*
X23576Y-40533D02*
X23143Y-40966D01*
X23360Y-40966D02*
X23576Y-40750D01*
X23360Y-40533D01*
X23143Y-40750D01*
X23360Y-40966D01*
X23807Y-63341D02*
X24240Y-63774D01*
X24240Y-63341D02*
X23807Y-63774D01*
X24024Y-63774D02*
X24240Y-63558D01*
X24024Y-63341D01*
X23807Y-63558D01*
X24024Y-63774D01*
X24143Y-39533D02*
X24576Y-39966D01*
X24576Y-39533D02*
X24143Y-39966D01*
X24360Y-39966D02*
X24576Y-39750D01*
X24360Y-39533D01*
X24143Y-39750D01*
X24360Y-39966D01*
X24143Y-40533D02*
X24576Y-40966D01*
X24576Y-40533D02*
X24143Y-40966D01*
X24360Y-40966D02*
X24576Y-40750D01*
X24360Y-40533D01*
X24143Y-40750D01*
X24360Y-40966D01*
X24791Y-62357D02*
X25224Y-62790D01*
X25224Y-62357D02*
X24791Y-62790D01*
X25008Y-62790D02*
X25224Y-62573D01*
X25008Y-62357D01*
X24791Y-62573D01*
X25008Y-62790D01*
X25143Y-39533D02*
X25576Y-39966D01*
X25576Y-39533D02*
X25143Y-39966D01*
X25360Y-39966D02*
X25576Y-39750D01*
X25360Y-39533D01*
X25143Y-39750D01*
X25360Y-39966D01*
X25143Y-40533D02*
X25576Y-40966D01*
X25576Y-40533D02*
X25143Y-40966D01*
X25360Y-40966D02*
X25576Y-40750D01*
X25360Y-40533D01*
X25143Y-40750D01*
X25360Y-40966D01*
X26143Y-39533D02*
X26576Y-39966D01*
X26576Y-39533D02*
X26143Y-39966D01*
X26360Y-39966D02*
X26576Y-39750D01*
X26360Y-39533D01*
X26143Y-39750D01*
X26360Y-39966D01*
X26143Y-40533D02*
X26576Y-40966D01*
X26576Y-40533D02*
X26143Y-40966D01*
X26360Y-40966D02*
X26576Y-40750D01*
X26360Y-40533D01*
X26143Y-40750D01*
X26360Y-40966D01*
X27143Y-39533D02*
X27576Y-39966D01*
X27576Y-39533D02*
X27143Y-39966D01*
X27360Y-39966D02*
X27576Y-39750D01*
X27360Y-39533D01*
X27143Y-39750D01*
X27360Y-39966D01*
X27143Y-40533D02*
X27576Y-40966D01*
X27576Y-40533D02*
X27143Y-40966D01*
X27360Y-40966D02*
X27576Y-40750D01*
X27360Y-40533D01*
X27143Y-40750D01*
X27360Y-40966D01*
X27993Y-62379D02*
X28426Y-62812D01*
X28426Y-62379D02*
X27993Y-62812D01*
X28209Y-62812D02*
X28426Y-62595D01*
X28209Y-62379D01*
X27993Y-62595D01*
X28209Y-62812D01*
X28143Y-39533D02*
X28576Y-39966D01*
X28576Y-39533D02*
X28143Y-39966D01*
X28360Y-39966D02*
X28576Y-39750D01*
X28360Y-39533D01*
X28143Y-39750D01*
X28360Y-39966D01*
X28143Y-40533D02*
X28576Y-40966D01*
X28576Y-40533D02*
X28143Y-40966D01*
X28360Y-40966D02*
X28576Y-40750D01*
X28360Y-40533D01*
X28143Y-40750D01*
X28360Y-40966D01*
X28977Y-63363D02*
X29410Y-63796D01*
X29410Y-63363D02*
X28977Y-63796D01*
X29194Y-63796D02*
X29410Y-63580D01*
X29194Y-63363D01*
X28977Y-63580D01*
X29194Y-63796D01*
X29143Y-39533D02*
X29576Y-39966D01*
X29576Y-39533D02*
X29143Y-39966D01*
X29360Y-39966D02*
X29576Y-39750D01*
X29360Y-39533D01*
X29143Y-39750D01*
X29360Y-39966D01*
X29143Y-40533D02*
X29576Y-40966D01*
X29576Y-40533D02*
X29143Y-40966D01*
X29360Y-40966D02*
X29576Y-40750D01*
X29360Y-40533D01*
X29143Y-40750D01*
X29360Y-40966D01*
X29961Y-62379D02*
X30394Y-62812D01*
X30394Y-62379D02*
X29961Y-62812D01*
X30178Y-62812D02*
X30394Y-62595D01*
X30178Y-62379D01*
X29961Y-62595D01*
X30178Y-62812D01*
X30143Y-39533D02*
X30576Y-39966D01*
X30576Y-39533D02*
X30143Y-39966D01*
X30360Y-39966D02*
X30576Y-39750D01*
X30360Y-39533D01*
X30143Y-39750D01*
X30360Y-39966D01*
X30143Y-40533D02*
X30576Y-40966D01*
X30576Y-40533D02*
X30143Y-40966D01*
X30360Y-40966D02*
X30576Y-40750D01*
X30360Y-40533D01*
X30143Y-40750D01*
X30360Y-40966D01*
X31143Y-39533D02*
X31576Y-39966D01*
X31576Y-39533D02*
X31143Y-39966D01*
X31360Y-39966D02*
X31576Y-39750D01*
X31360Y-39533D01*
X31143Y-39750D01*
X31360Y-39966D01*
X31143Y-40533D02*
X31576Y-40966D01*
X31576Y-40533D02*
X31143Y-40966D01*
X31360Y-40966D02*
X31576Y-40750D01*
X31360Y-40533D01*
X31143Y-40750D01*
X31360Y-40966D01*
X32143Y-39533D02*
X32576Y-39966D01*
X32576Y-39533D02*
X32143Y-39966D01*
X32360Y-39966D02*
X32576Y-39750D01*
X32360Y-39533D01*
X32143Y-39750D01*
X32360Y-39966D01*
X32143Y-40533D02*
X32576Y-40966D01*
X32576Y-40533D02*
X32143Y-40966D01*
X32360Y-40966D02*
X32576Y-40750D01*
X32360Y-40533D01*
X32143Y-40750D01*
X32360Y-40966D01*
X33143Y-39533D02*
X33576Y-39966D01*
X33576Y-39533D02*
X33143Y-39966D01*
X33360Y-39966D02*
X33576Y-39750D01*
X33360Y-39533D01*
X33143Y-39750D01*
X33360Y-39966D01*
X33143Y-40533D02*
X33576Y-40966D01*
X33576Y-40533D02*
X33143Y-40966D01*
X33360Y-40966D02*
X33576Y-40750D01*
X33360Y-40533D01*
X33143Y-40750D01*
X33360Y-40966D01*
X33229Y-62379D02*
X33662Y-62812D01*
X33662Y-62379D02*
X33229Y-62812D01*
X33445Y-62812D02*
X33662Y-62595D01*
X33445Y-62379D01*
X33229Y-62595D01*
X33445Y-62812D01*
X34143Y-39533D02*
X34576Y-39966D01*
X34576Y-39533D02*
X34143Y-39966D01*
X34360Y-39966D02*
X34576Y-39750D01*
X34360Y-39533D01*
X34143Y-39750D01*
X34360Y-39966D01*
X34143Y-40533D02*
X34576Y-40966D01*
X34576Y-40533D02*
X34143Y-40966D01*
X34360Y-40966D02*
X34576Y-40750D01*
X34360Y-40533D01*
X34143Y-40750D01*
X34360Y-40966D01*
X34213Y-63363D02*
X34646Y-63796D01*
X34646Y-63363D02*
X34213Y-63796D01*
X34430Y-63796D02*
X34646Y-63580D01*
X34430Y-63363D01*
X34213Y-63580D01*
X34430Y-63796D01*
X35143Y-39533D02*
X35576Y-39966D01*
X35576Y-39533D02*
X35143Y-39966D01*
X35360Y-39966D02*
X35576Y-39750D01*
X35360Y-39533D01*
X35143Y-39750D01*
X35360Y-39966D01*
X35143Y-40533D02*
X35576Y-40966D01*
X35576Y-40533D02*
X35143Y-40966D01*
X35360Y-40966D02*
X35576Y-40750D01*
X35360Y-40533D01*
X35143Y-40750D01*
X35360Y-40966D01*
X35197Y-62379D02*
X35630Y-62812D01*
X35630Y-62379D02*
X35197Y-62812D01*
X35414Y-62812D02*
X35630Y-62595D01*
X35414Y-62379D01*
X35197Y-62595D01*
X35414Y-62812D01*
X36143Y-39533D02*
X36576Y-39966D01*
X36576Y-39533D02*
X36143Y-39966D01*
X36360Y-39966D02*
X36576Y-39750D01*
X36360Y-39533D01*
X36143Y-39750D01*
X36360Y-39966D01*
X36143Y-40533D02*
X36576Y-40966D01*
X36576Y-40533D02*
X36143Y-40966D01*
X36360Y-40966D02*
X36576Y-40750D01*
X36360Y-40533D01*
X36143Y-40750D01*
X36360Y-40966D01*
X37143Y-39533D02*
X37576Y-39966D01*
X37576Y-39533D02*
X37143Y-39966D01*
X37360Y-39966D02*
X37576Y-39750D01*
X37360Y-39533D01*
X37143Y-39750D01*
X37360Y-39966D01*
X37143Y-40533D02*
X37576Y-40966D01*
X37576Y-40533D02*
X37143Y-40966D01*
X37360Y-40966D02*
X37576Y-40750D01*
X37360Y-40533D01*
X37143Y-40750D01*
X37360Y-40966D01*
X38143Y-39533D02*
X38576Y-39966D01*
X38576Y-39533D02*
X38143Y-39966D01*
X38360Y-39966D02*
X38576Y-39750D01*
X38360Y-39533D01*
X38143Y-39750D01*
X38360Y-39966D01*
X38143Y-40533D02*
X38576Y-40966D01*
X38576Y-40533D02*
X38143Y-40966D01*
X38360Y-40966D02*
X38576Y-40750D01*
X38360Y-40533D01*
X38143Y-40750D01*
X38360Y-40966D01*
X39143Y-39533D02*
X39576Y-39966D01*
X39576Y-39533D02*
X39143Y-39966D01*
X39360Y-39966D02*
X39576Y-39750D01*
X39360Y-39533D01*
X39143Y-39750D01*
X39360Y-39966D01*
X39143Y-40533D02*
X39576Y-40966D01*
X39576Y-40533D02*
X39143Y-40966D01*
X39360Y-40966D02*
X39576Y-40750D01*
X39360Y-40533D01*
X39143Y-40750D01*
X39360Y-40966D01*
X55862Y-24790D02*
X56295Y-25223D01*
X56295Y-24790D02*
X55862Y-25223D01*
X56078Y-25223D02*
X56295Y-25006D01*
X56078Y-24790D01*
X55862Y-25006D01*
X56078Y-25223D01*
X55967Y-28290D02*
X56400Y-28723D01*
X56400Y-28290D02*
X55967Y-28723D01*
X56183Y-28723D02*
X56400Y-28506D01*
X56183Y-28290D01*
X55967Y-28506D01*
X56183Y-28723D01*
X56862Y-24790D02*
X57295Y-25223D01*
X57295Y-24790D02*
X56862Y-25223D01*
X57078Y-25223D02*
X57295Y-25006D01*
X57078Y-24790D01*
X56862Y-25006D01*
X57078Y-25223D01*
X56967Y-28290D02*
X57400Y-28723D01*
X57400Y-28290D02*
X56967Y-28723D01*
X57183Y-28723D02*
X57400Y-28506D01*
X57183Y-28290D01*
X56967Y-28506D01*
X57183Y-28723D01*
X59862Y-24790D02*
X60295Y-25223D01*
X60295Y-24790D02*
X59862Y-25223D01*
X60078Y-25223D02*
X60295Y-25006D01*
X60078Y-24790D01*
X59862Y-25006D01*
X60078Y-25223D01*
X59967Y-28290D02*
X60400Y-28723D01*
X60400Y-28290D02*
X59967Y-28723D01*
X60183Y-28723D02*
X60400Y-28506D01*
X60183Y-28290D01*
X59967Y-28506D01*
X60183Y-28723D01*
X61862Y-24790D02*
X62295Y-25223D01*
X62295Y-24790D02*
X61862Y-25223D01*
X62078Y-25223D02*
X62295Y-25006D01*
X62078Y-24790D01*
X61862Y-25006D01*
X62078Y-25223D01*
X61967Y-28290D02*
X62400Y-28723D01*
X62400Y-28290D02*
X61967Y-28723D01*
X62183Y-28723D02*
X62400Y-28506D01*
X62183Y-28290D01*
X61967Y-28506D01*
X62183Y-28723D01*
X89661Y-62070D02*
X90094Y-62503D01*
X90094Y-62070D02*
X89661Y-62503D01*
X89877Y-62503D02*
X90094Y-62287D01*
X89877Y-62070D01*
X89661Y-62287D01*
X89877Y-62503D01*
X90661Y-62070D02*
X91094Y-62503D01*
X91094Y-62070D02*
X90661Y-62503D01*
X90877Y-62503D02*
X91094Y-62287D01*
X90877Y-62070D01*
X90661Y-62287D01*
X90877Y-62503D01*
X91661Y-62070D02*
X92094Y-62503D01*
X92094Y-62070D02*
X91661Y-62503D01*
X91877Y-62503D02*
X92094Y-62287D01*
X91877Y-62070D01*
X91661Y-62287D01*
X91877Y-62503D01*
X91858Y-24830D02*
X92291Y-25263D01*
X92291Y-24830D02*
X91858Y-25263D01*
X92074Y-25263D02*
X92291Y-25047D01*
X92074Y-24830D01*
X91858Y-25047D01*
X92074Y-25263D01*
X94858Y-24830D02*
X95291Y-25263D01*
X95291Y-24830D02*
X94858Y-25263D01*
X95074Y-25263D02*
X95291Y-25047D01*
X95074Y-24830D01*
X94858Y-25047D01*
X95074Y-25263D01*
X95208Y-61984D02*
X95641Y-62417D01*
X95641Y-61984D02*
X95208Y-62417D01*
X95425Y-62417D02*
X95641Y-62200D01*
X95425Y-61984D01*
X95208Y-62200D01*
X95425Y-62417D01*
X96208Y-61984D02*
X96641Y-62417D01*
X96641Y-61984D02*
X96208Y-62417D01*
X96425Y-62417D02*
X96641Y-62200D01*
X96425Y-61984D01*
X96208Y-62200D01*
X96425Y-62417D01*
X97208Y-61984D02*
X97641Y-62417D01*
X97641Y-61984D02*
X97208Y-62417D01*
X97425Y-62417D02*
X97641Y-62200D01*
X97425Y-61984D01*
X97208Y-62200D01*
X97425Y-62417D01*
X97795Y-24299D02*
X98228Y-24732D01*
X98228Y-24299D02*
X97795Y-24732D01*
X98011Y-24732D02*
X98228Y-24515D01*
X98011Y-24299D01*
X97795Y-24515D01*
X98011Y-24732D01*
X100795Y-24299D02*
X101228Y-24732D01*
X101228Y-24299D02*
X100795Y-24732D01*
X101011Y-24732D02*
X101228Y-24515D01*
X101011Y-24299D01*
X100795Y-24515D01*
X101011Y-24732D01*
X110168Y-16933D02*
X110601Y-17366D01*
X110601Y-16933D02*
X110168Y-17366D01*
X110385Y-17366D02*
X110601Y-17150D01*
X110385Y-16933D01*
X110168Y-17150D01*
X110385Y-17366D01*
X113168Y-16933D02*
X113601Y-17366D01*
X113601Y-16933D02*
X113168Y-17366D01*
X113385Y-17366D02*
X113601Y-17150D01*
X113385Y-16933D01*
X113168Y-17150D01*
X113385Y-17366D01*
X117903Y-17108D02*
X118336Y-17541D01*
X118336Y-17108D02*
X117903Y-17541D01*
X118120Y-17541D02*
X118336Y-17325D01*
X118120Y-17108D01*
X117903Y-17325D01*
X118120Y-17541D01*
X120903Y-17108D02*
X121336Y-17541D01*
X121336Y-17108D02*
X120903Y-17541D01*
X121120Y-17541D02*
X121336Y-17325D01*
X121120Y-17108D01*
X120903Y-17325D01*
X121120Y-17541D01*
X125253Y-17003D02*
X125686Y-17436D01*
X125686Y-17003D02*
X125253Y-17436D01*
X125470Y-17436D02*
X125686Y-17220D01*
X125470Y-17003D01*
X125253Y-17220D01*
X125470Y-17436D01*
X128253Y-17003D02*
X128686Y-17436D01*
X128686Y-17003D02*
X128253Y-17436D01*
X128470Y-17436D02*
X128686Y-17220D01*
X128470Y-17003D01*
X128253Y-17220D01*
X128470Y-17436D01*
X133133Y-16983D02*
X133566Y-17416D01*
X133566Y-16983D02*
X133133Y-17416D01*
X133350Y-17416D02*
X133566Y-17200D01*
X133350Y-16983D01*
X133133Y-17200D01*
X133350Y-17416D01*
X136133Y-16983D02*
X136566Y-17416D01*
X136566Y-16983D02*
X136133Y-17416D01*
X136350Y-17416D02*
X136566Y-17200D01*
X136350Y-16983D01*
X136133Y-17200D01*
X136350Y-17416D01*
X125196Y-34865D02*
X125196Y-35315D01*
X124971Y-35090D02*
X125421Y-35090D01*
X125421Y-35090D02*
G75*
G03X125421Y-35090I-225J0D01*
G74*
G01*
X125196Y-40865D02*
X125196Y-41315D01*
X124971Y-41090D02*
X125421Y-41090D01*
X125421Y-41090D02*
G75*
G03X125421Y-41090I-225J0D01*
G74*
G01*
X134744Y-34767D02*
X134744Y-35217D01*
X134519Y-34992D02*
X134969Y-34992D01*
X134969Y-34992D02*
G75*
G03X134969Y-34992I-225J0D01*
G74*
G01*
X134744Y-40767D02*
X134744Y-41217D01*
X134519Y-40992D02*
X134969Y-40992D01*
X134969Y-40992D02*
G75*
G03X134969Y-40992I-225J0D01*
G74*
G01*
X36510Y-20150D02*
X36510Y-19819D01*
X36179Y-19819D01*
X36179Y-20150D01*
X36510Y-20150D01*
X36579Y-19985D02*
G75*
G03X36579Y-19985I-234J0D01*
G74*
G01*
X37510Y-20150D02*
X37510Y-19819D01*
X37179Y-19819D01*
X37179Y-20150D01*
X37510Y-20150D01*
X37579Y-19985D02*
G75*
G03X37579Y-19985I-234J0D01*
G74*
G01*
X38510Y-20150D02*
X38510Y-19819D01*
X38179Y-19819D01*
X38179Y-20150D01*
X38510Y-20150D01*
X38579Y-19985D02*
G75*
G03X38579Y-19985I-234J0D01*
G74*
G01*
X93453Y-39693D02*
X93453Y-39361D01*
X93121Y-39361D01*
X93121Y-39693D01*
X93453Y-39693D01*
X93521Y-39527D02*
G75*
G03X93521Y-39527I-234J0D01*
G74*
G01*
X93453Y-40693D02*
X93453Y-40361D01*
X93121Y-40361D01*
X93121Y-40693D01*
X93453Y-40693D01*
X93521Y-40527D02*
G75*
G03X93521Y-40527I-234J0D01*
G74*
G01*
X93453Y-41693D02*
X93453Y-41361D01*
X93121Y-41361D01*
X93121Y-41693D01*
X93453Y-41693D01*
X93521Y-41527D02*
G75*
G03X93521Y-41527I-234J0D01*
G74*
G01*
X24115Y-26741D02*
X24351Y-26505D01*
X24115Y-26268D01*
X23878Y-26505D01*
X24115Y-26741D01*
X24351Y-26505D02*
G75*
G03X24351Y-26505I-236J0D01*
G74*
G01*
X25115Y-26741D02*
X25351Y-26505D01*
X25115Y-26268D01*
X24878Y-26505D01*
X25115Y-26741D01*
X25351Y-26505D02*
G75*
G03X25351Y-26505I-236J0D01*
G74*
G01*
X25260Y-37952D02*
X25496Y-37716D01*
X25260Y-37479D01*
X25023Y-37716D01*
X25260Y-37952D01*
X25496Y-37716D02*
G75*
G03X25496Y-37716I-236J0D01*
G74*
G01*
X26260Y-37952D02*
X26496Y-37716D01*
X26260Y-37479D01*
X26023Y-37716D01*
X26260Y-37952D01*
X26496Y-37716D02*
G75*
G03X26496Y-37716I-236J0D01*
G74*
G01*
X28010Y-37956D02*
X28246Y-37720D01*
X28010Y-37483D01*
X27773Y-37720D01*
X28010Y-37956D01*
X28246Y-37720D02*
G75*
G03X28246Y-37720I-236J0D01*
G74*
G01*
X29010Y-37956D02*
X29246Y-37720D01*
X29010Y-37483D01*
X28773Y-37720D01*
X29010Y-37956D01*
X29246Y-37720D02*
G75*
G03X29246Y-37720I-236J0D01*
G74*
G01*
X30433Y-37952D02*
X30669Y-37716D01*
X30433Y-37479D01*
X30196Y-37716D01*
X30433Y-37952D01*
X30669Y-37716D02*
G75*
G03X30669Y-37716I-236J0D01*
G74*
G01*
X31433Y-37952D02*
X31669Y-37716D01*
X31433Y-37479D01*
X31196Y-37716D01*
X31433Y-37952D01*
X31669Y-37716D02*
G75*
G03X31669Y-37716I-236J0D01*
G74*
G01*
X32920Y-37946D02*
X33156Y-37710D01*
X32920Y-37473D01*
X32683Y-37710D01*
X32920Y-37946D01*
X33156Y-37710D02*
G75*
G03X33156Y-37710I-236J0D01*
G74*
G01*
X33920Y-37946D02*
X34156Y-37710D01*
X33920Y-37473D01*
X33683Y-37710D01*
X33920Y-37946D01*
X34156Y-37710D02*
G75*
G03X34156Y-37710I-236J0D01*
G74*
G01*
X53253Y-36907D02*
X53489Y-36671D01*
X53253Y-36435D01*
X53017Y-36671D01*
X53253Y-36907D01*
X53489Y-36671D02*
G75*
G03X53489Y-36671I-236J0D01*
G74*
G01*
X54253Y-36907D02*
X54489Y-36671D01*
X54253Y-36435D01*
X54017Y-36671D01*
X54253Y-36907D01*
X54489Y-36671D02*
G75*
G03X54489Y-36671I-236J0D01*
G74*
G01*
X130740Y-43590D02*
X130976Y-43354D01*
X130740Y-43118D01*
X130503Y-43354D01*
X130740Y-43590D01*
X130976Y-43354D02*
G75*
G03X130976Y-43354I-236J0D01*
G74*
G01*
X130740Y-50480D02*
X130976Y-50244D01*
X130740Y-50007D01*
X130503Y-50244D01*
X130740Y-50480D01*
X130976Y-50244D02*
G75*
G03X130976Y-50244I-236J0D01*
G74*
G01*
X130748Y-53035D02*
X130984Y-52799D01*
X130748Y-52562D01*
X130511Y-52799D01*
X130748Y-53035D01*
X130984Y-52799D02*
G75*
G03X130984Y-52799I-236J0D01*
G74*
G01*
X130748Y-59925D02*
X130984Y-59688D01*
X130748Y-59452D01*
X130511Y-59688D01*
X130748Y-59925D01*
X130984Y-59688D02*
G75*
G03X130984Y-59688I-236J0D01*
G74*
G01*
X135661Y-43590D02*
X135897Y-43354D01*
X135661Y-43118D01*
X135425Y-43354D01*
X135661Y-43590D01*
X135897Y-43354D02*
G75*
G03X135897Y-43354I-236J0D01*
G74*
G01*
X135661Y-50480D02*
X135897Y-50244D01*
X135661Y-50007D01*
X135425Y-50244D01*
X135661Y-50480D01*
X135897Y-50244D02*
G75*
G03X135897Y-50244I-236J0D01*
G74*
G01*
X135669Y-53035D02*
X135905Y-52799D01*
X135669Y-52562D01*
X135433Y-52799D01*
X135669Y-53035D01*
X135905Y-52799D02*
G75*
G03X135905Y-52799I-236J0D01*
G74*
G01*
X135669Y-59925D02*
X135905Y-59688D01*
X135669Y-59452D01*
X135433Y-59688D01*
X135669Y-59925D01*
X135905Y-59688D02*
G75*
G03X135905Y-59688I-236J0D01*
G74*
G01*
X145960Y-57968D02*
X146196Y-57732D01*
X145960Y-57496D01*
X145724Y-57732D01*
X145960Y-57968D01*
X146196Y-57732D02*
G75*
G03X146196Y-57732I-236J0D01*
G74*
G01*
X146984Y-61787D02*
X147220Y-61551D01*
X146984Y-61314D01*
X146748Y-61551D01*
X146984Y-61787D01*
X147220Y-61551D02*
G75*
G03X147220Y-61551I-236J0D01*
G74*
G01*
X15291Y-14377D02*
X15291Y-14889D01*
X15035Y-14633D02*
X15547Y-14633D01*
X15472Y-14814D02*
X15472Y-14452D01*
X15110Y-14452D01*
X15110Y-14814D01*
X15472Y-14814D01*
X15291Y-18377D02*
X15291Y-18889D01*
X15035Y-18633D02*
X15547Y-18633D01*
X15472Y-18814D02*
X15472Y-18452D01*
X15110Y-18452D01*
X15110Y-18814D01*
X15472Y-18814D01*
X15303Y-28224D02*
X15303Y-28736D01*
X15047Y-28480D02*
X15559Y-28480D01*
X15484Y-28661D02*
X15484Y-28299D01*
X15122Y-28299D01*
X15122Y-28661D01*
X15484Y-28661D01*
X15303Y-32224D02*
X15303Y-32736D01*
X15047Y-32480D02*
X15559Y-32480D01*
X15484Y-32661D02*
X15484Y-32299D01*
X15122Y-32299D01*
X15122Y-32661D01*
X15484Y-32661D01*
X15314Y-21507D02*
X15314Y-22019D01*
X15059Y-21763D02*
X15570Y-21763D01*
X15495Y-21944D02*
X15495Y-21582D01*
X15134Y-21582D01*
X15134Y-21944D01*
X15495Y-21944D01*
X15314Y-25507D02*
X15314Y-26019D01*
X15059Y-25763D02*
X15570Y-25763D01*
X15495Y-25944D02*
X15495Y-25582D01*
X15134Y-25582D01*
X15134Y-25944D01*
X15495Y-25944D01*
X42259Y-63267D02*
X42259Y-63779D01*
X42003Y-63523D02*
X42515Y-63523D01*
X42440Y-63704D02*
X42440Y-63342D01*
X42078Y-63342D01*
X42078Y-63704D01*
X42440Y-63704D01*
X43259Y-63267D02*
X43259Y-63779D01*
X43003Y-63523D02*
X43515Y-63523D01*
X43440Y-63704D02*
X43440Y-63342D01*
X43078Y-63342D01*
X43078Y-63704D01*
X43440Y-63704D01*
X44259Y-63267D02*
X44259Y-63779D01*
X44003Y-63523D02*
X44515Y-63523D01*
X44440Y-63704D02*
X44440Y-63342D01*
X44078Y-63342D01*
X44078Y-63704D01*
X44440Y-63704D01*
X54242Y-63324D02*
X54242Y-63835D01*
X53986Y-63580D02*
X54497Y-63580D01*
X54422Y-63760D02*
X54422Y-63399D01*
X54061Y-63399D01*
X54061Y-63760D01*
X54422Y-63760D01*
X55242Y-63324D02*
X55242Y-63835D01*
X54986Y-63580D02*
X55497Y-63580D01*
X55422Y-63760D02*
X55422Y-63399D01*
X55061Y-63399D01*
X55061Y-63760D01*
X55422Y-63760D01*
X56242Y-63324D02*
X56242Y-63835D01*
X55986Y-63580D02*
X56497Y-63580D01*
X56422Y-63760D02*
X56422Y-63399D01*
X56061Y-63399D01*
X56061Y-63760D01*
X56422Y-63760D01*
X128618Y-29767D02*
X128618Y-30279D01*
X128362Y-30023D02*
X128874Y-30023D01*
X128799Y-30204D02*
X128799Y-29842D01*
X128437Y-29842D01*
X128437Y-30204D01*
X128799Y-30204D01*
X128618Y-35767D02*
X128618Y-36279D01*
X128362Y-36023D02*
X128874Y-36023D01*
X128799Y-36204D02*
X128799Y-35842D01*
X128437Y-35842D01*
X128437Y-36204D01*
X128799Y-36204D01*
X128622Y-37767D02*
X128622Y-38279D01*
X128366Y-38023D02*
X128877Y-38023D01*
X128803Y-38204D02*
X128803Y-37842D01*
X128441Y-37842D01*
X128441Y-38204D01*
X128803Y-38204D01*
X128622Y-39767D02*
X128622Y-40279D01*
X128366Y-40023D02*
X128877Y-40023D01*
X128803Y-40204D02*
X128803Y-39842D01*
X128441Y-39842D01*
X128441Y-40204D01*
X128803Y-40204D01*
X131614Y-29767D02*
X131614Y-30279D01*
X131358Y-30023D02*
X131870Y-30023D01*
X131795Y-30204D02*
X131795Y-29842D01*
X131433Y-29842D01*
X131433Y-30204D01*
X131795Y-30204D01*
X131614Y-35767D02*
X131614Y-36279D01*
X131358Y-36023D02*
X131870Y-36023D01*
X131795Y-36204D02*
X131795Y-35842D01*
X131433Y-35842D01*
X131433Y-36204D01*
X131795Y-36204D01*
X131614Y-37767D02*
X131614Y-38279D01*
X131358Y-38023D02*
X131870Y-38023D01*
X131795Y-38204D02*
X131795Y-37842D01*
X131433Y-37842D01*
X131433Y-38204D01*
X131795Y-38204D01*
X131614Y-39767D02*
X131614Y-40279D01*
X131358Y-40023D02*
X131870Y-40023D01*
X131795Y-40204D02*
X131795Y-39842D01*
X131433Y-39842D01*
X131433Y-40204D01*
X131795Y-40204D01*
X156771Y-54692D02*
X156771Y-55204D01*
X156515Y-54948D02*
X157027Y-54948D01*
X156952Y-55129D02*
X156952Y-54767D01*
X156590Y-54767D01*
X156590Y-55129D01*
X156952Y-55129D01*
X156771Y-58692D02*
X156771Y-59204D01*
X156515Y-58948D02*
X157027Y-58948D01*
X156952Y-59129D02*
X156952Y-58767D01*
X156590Y-58767D01*
X156590Y-59129D01*
X156952Y-59129D01*
X156771Y-62692D02*
X156771Y-63204D01*
X156515Y-62948D02*
X157027Y-62948D01*
X156952Y-63129D02*
X156952Y-62767D01*
X156590Y-62767D01*
X156590Y-63129D01*
X156952Y-63129D01*
X108804Y-14304D02*
X108804Y-14895D01*
X108509Y-14600D02*
X109099Y-14600D01*
X108804Y-14895D02*
X109099Y-14600D01*
X108804Y-14304D01*
X108509Y-14600D01*
X108804Y-14895D01*
X110950Y-14304D02*
X110950Y-14895D01*
X110654Y-14600D02*
X111245Y-14600D01*
X110950Y-14895D02*
X111245Y-14600D01*
X110950Y-14304D01*
X110654Y-14600D01*
X110950Y-14895D01*
X113095Y-14304D02*
X113095Y-14895D01*
X112800Y-14600D02*
X113390Y-14600D01*
X113095Y-14895D02*
X113390Y-14600D01*
X113095Y-14304D01*
X112800Y-14600D01*
X113095Y-14895D01*
X116254Y-14304D02*
X116254Y-14895D01*
X115959Y-14600D02*
X116549Y-14600D01*
X116254Y-14895D02*
X116549Y-14600D01*
X116254Y-14304D01*
X115959Y-14600D01*
X116254Y-14895D01*
X118400Y-14304D02*
X118400Y-14895D01*
X118104Y-14600D02*
X118695Y-14600D01*
X118400Y-14895D02*
X118695Y-14600D01*
X118400Y-14304D01*
X118104Y-14600D01*
X118400Y-14895D01*
X120545Y-14304D02*
X120545Y-14895D01*
X120250Y-14600D02*
X120840Y-14600D01*
X120545Y-14895D02*
X120840Y-14600D01*
X120545Y-14304D01*
X120250Y-14600D01*
X120545Y-14895D01*
X123584Y-14274D02*
X123584Y-14865D01*
X123289Y-14570D02*
X123879Y-14570D01*
X123584Y-14865D02*
X123879Y-14570D01*
X123584Y-14274D01*
X123289Y-14570D01*
X123584Y-14865D01*
X125730Y-14274D02*
X125730Y-14865D01*
X125434Y-14570D02*
X126025Y-14570D01*
X125730Y-14865D02*
X126025Y-14570D01*
X125730Y-14274D01*
X125434Y-14570D01*
X125730Y-14865D01*
X127875Y-14274D02*
X127875Y-14865D01*
X127580Y-14570D02*
X128170Y-14570D01*
X127875Y-14865D02*
X128170Y-14570D01*
X127875Y-14274D01*
X127580Y-14570D01*
X127875Y-14865D01*
X131174Y-14268D02*
X131174Y-14859D01*
X130879Y-14564D02*
X131469Y-14564D01*
X131174Y-14859D02*
X131469Y-14564D01*
X131174Y-14268D01*
X130879Y-14564D01*
X131174Y-14859D01*
X133320Y-14268D02*
X133320Y-14859D01*
X133024Y-14564D02*
X133615Y-14564D01*
X133320Y-14859D02*
X133615Y-14564D01*
X133320Y-14268D01*
X133024Y-14564D01*
X133320Y-14859D01*
X135465Y-14268D02*
X135465Y-14859D01*
X135170Y-14564D02*
X135760Y-14564D01*
X135465Y-14859D02*
X135760Y-14564D01*
X135465Y-14268D01*
X135170Y-14564D01*
X135465Y-14859D01*
X71118Y-31582D02*
X71433Y-31267D01*
X71118Y-30952D01*
X70803Y-31267D01*
X71118Y-31582D01*
X71340Y-31490D02*
X71340Y-31045D01*
X70895Y-31045D01*
X70895Y-31490D01*
X71340Y-31490D01*
X71118Y-33582D02*
X71433Y-33267D01*
X71118Y-32952D01*
X70803Y-33267D01*
X71118Y-33582D01*
X71340Y-33490D02*
X71340Y-33045D01*
X70895Y-33045D01*
X70895Y-33490D01*
X71340Y-33490D01*
X71118Y-35582D02*
X71433Y-35267D01*
X71118Y-34952D01*
X70803Y-35267D01*
X71118Y-35582D01*
X71340Y-35490D02*
X71340Y-35045D01*
X70895Y-35045D01*
X70895Y-35490D01*
X71340Y-35490D01*
X71118Y-37582D02*
X71433Y-37267D01*
X71118Y-36952D01*
X70803Y-37267D01*
X71118Y-37582D01*
X71340Y-37490D02*
X71340Y-37045D01*
X70895Y-37045D01*
X70895Y-37490D01*
X71340Y-37490D01*
X71118Y-43582D02*
X71433Y-43267D01*
X71118Y-42952D01*
X70803Y-43267D01*
X71118Y-43582D01*
X71340Y-43490D02*
X71340Y-43045D01*
X70895Y-43045D01*
X70895Y-43490D01*
X71340Y-43490D01*
X71118Y-45582D02*
X71433Y-45267D01*
X71118Y-44952D01*
X70803Y-45267D01*
X71118Y-45582D01*
X71340Y-45490D02*
X71340Y-45045D01*
X70895Y-45045D01*
X70895Y-45490D01*
X71340Y-45490D01*
X87118Y-31582D02*
X87433Y-31267D01*
X87118Y-30952D01*
X86803Y-31267D01*
X87118Y-31582D01*
X87340Y-31490D02*
X87340Y-31045D01*
X86895Y-31045D01*
X86895Y-31490D01*
X87340Y-31490D01*
X87118Y-33582D02*
X87433Y-33267D01*
X87118Y-32952D01*
X86803Y-33267D01*
X87118Y-33582D01*
X87340Y-33490D02*
X87340Y-33045D01*
X86895Y-33045D01*
X86895Y-33490D01*
X87340Y-33490D01*
X87118Y-35582D02*
X87433Y-35267D01*
X87118Y-34952D01*
X86803Y-35267D01*
X87118Y-35582D01*
X87340Y-35490D02*
X87340Y-35045D01*
X86895Y-35045D01*
X86895Y-35490D01*
X87340Y-35490D01*
X87118Y-37582D02*
X87433Y-37267D01*
X87118Y-36952D01*
X86803Y-37267D01*
X87118Y-37582D01*
X87340Y-37490D02*
X87340Y-37045D01*
X86895Y-37045D01*
X86895Y-37490D01*
X87340Y-37490D01*
X87118Y-45582D02*
X87433Y-45267D01*
X87118Y-44952D01*
X86803Y-45267D01*
X87118Y-45582D01*
X87340Y-45490D02*
X87340Y-45045D01*
X86895Y-45045D01*
X86895Y-45490D01*
X87340Y-45490D01*
X87118Y-47582D02*
X87433Y-47267D01*
X87118Y-46952D01*
X86803Y-47267D01*
X87118Y-47582D01*
X87340Y-47490D02*
X87340Y-47045D01*
X86895Y-47045D01*
X86895Y-47490D01*
X87340Y-47490D01*
X108112Y-57242D02*
X108427Y-56927D01*
X108112Y-56612D01*
X107797Y-56927D01*
X108112Y-57242D01*
X108335Y-57150D02*
X108335Y-56705D01*
X107889Y-56705D01*
X107889Y-57150D01*
X108335Y-57150D01*
X108112Y-63227D02*
X108427Y-62912D01*
X108112Y-62597D01*
X107797Y-62912D01*
X108112Y-63227D01*
X108335Y-63134D02*
X108335Y-62689D01*
X107889Y-62689D01*
X107889Y-63134D01*
X108335Y-63134D01*
X137285Y-25474D02*
X137599Y-25160D01*
X137285Y-24845D01*
X136970Y-25160D01*
X137285Y-25474D01*
X137507Y-25382D02*
X137507Y-24937D01*
X137062Y-24937D01*
X137062Y-25382D01*
X137507Y-25382D01*
X137285Y-33474D02*
X137599Y-33160D01*
X137285Y-32845D01*
X136970Y-33160D01*
X137285Y-33474D01*
X137507Y-33382D02*
X137507Y-32937D01*
X137062Y-32937D01*
X137062Y-33382D01*
X137507Y-33382D01*
X147285Y-25474D02*
X147599Y-25160D01*
X147285Y-24845D01*
X146970Y-25160D01*
X147285Y-25474D01*
X147507Y-25382D02*
X147507Y-24937D01*
X147062Y-24937D01*
X147062Y-25382D01*
X147507Y-25382D01*
X147285Y-33474D02*
X147599Y-33160D01*
X147285Y-32845D01*
X146970Y-33160D01*
X147285Y-33474D01*
X147507Y-33382D02*
X147507Y-32937D01*
X147062Y-32937D01*
X147062Y-33382D01*
X147507Y-33382D01*
X17502Y-61943D02*
X18211Y-62652D01*
X18211Y-61943D02*
X17502Y-62652D01*
X17857Y-61943D02*
X17857Y-62652D01*
X17502Y-62298D02*
X18211Y-62298D01*
X18211Y-62298D02*
G75*
G03X18211Y-62298I-354J0D01*
G74*
G01*
X17601Y-54939D02*
X18309Y-55648D01*
X18309Y-54939D02*
X17601Y-55648D01*
X17955Y-54939D02*
X17955Y-55648D01*
X17601Y-55294D02*
X18309Y-55294D01*
X18309Y-55294D02*
G75*
G03X18309Y-55294I-354J0D01*
G74*
G01*
X25381Y-13956D02*
X26090Y-14665D01*
X26090Y-13956D02*
X25381Y-14665D01*
X25736Y-13956D02*
X25736Y-14665D01*
X25381Y-14311D02*
X26090Y-14311D01*
X26090Y-14311D02*
G75*
G03X26090Y-14311I-354J0D01*
G74*
G01*
X25381Y-15925D02*
X26090Y-16633D01*
X26090Y-15925D02*
X25381Y-16633D01*
X25736Y-15925D02*
X25736Y-16633D01*
X25381Y-16279D02*
X26090Y-16279D01*
X26090Y-16279D02*
G75*
G03X26090Y-16279I-354J0D01*
G74*
G01*
X25381Y-17893D02*
X26090Y-18602D01*
X26090Y-17893D02*
X25381Y-18602D01*
X25736Y-17893D02*
X25736Y-18602D01*
X25381Y-18248D02*
X26090Y-18248D01*
X26090Y-18248D02*
G75*
G03X26090Y-18248I-354J0D01*
G74*
G01*
X25381Y-23799D02*
X26090Y-24507D01*
X26090Y-23799D02*
X25381Y-24507D01*
X25736Y-23799D02*
X25736Y-24507D01*
X25381Y-24153D02*
X26090Y-24153D01*
X26090Y-24153D02*
G75*
G03X26090Y-24153I-354J0D01*
G74*
G01*
X28334Y-13956D02*
X29043Y-14665D01*
X29043Y-13956D02*
X28334Y-14665D01*
X28688Y-13956D02*
X28688Y-14665D01*
X28334Y-14311D02*
X29043Y-14311D01*
X29043Y-14311D02*
G75*
G03X29043Y-14311I-354J0D01*
G74*
G01*
X28334Y-15925D02*
X29043Y-16633D01*
X29043Y-15925D02*
X28334Y-16633D01*
X28688Y-15925D02*
X28688Y-16633D01*
X28334Y-16279D02*
X29043Y-16279D01*
X29043Y-16279D02*
G75*
G03X29043Y-16279I-354J0D01*
G74*
G01*
X28334Y-17893D02*
X29043Y-18602D01*
X29043Y-17893D02*
X28334Y-18602D01*
X28688Y-17893D02*
X28688Y-18602D01*
X28334Y-18248D02*
X29043Y-18248D01*
X29043Y-18248D02*
G75*
G03X29043Y-18248I-354J0D01*
G74*
G01*
X28334Y-23799D02*
X29043Y-24507D01*
X29043Y-23799D02*
X28334Y-24507D01*
X28688Y-23799D02*
X28688Y-24507D01*
X28334Y-24153D02*
X29043Y-24153D01*
X29043Y-24153D02*
G75*
G03X29043Y-24153I-354J0D01*
G74*
G01*
X68156Y-63045D02*
X68865Y-63754D01*
X68865Y-63045D02*
X68156Y-63754D01*
X68511Y-63045D02*
X68511Y-63754D01*
X68156Y-63400D02*
X68865Y-63400D01*
X68865Y-63400D02*
G75*
G03X68865Y-63400I-354J0D01*
G74*
G01*
X69326Y-13955D02*
X70035Y-14664D01*
X70035Y-13955D02*
X69326Y-14664D01*
X69681Y-13955D02*
X69681Y-14664D01*
X69326Y-14310D02*
X70035Y-14310D01*
X70035Y-14310D02*
G75*
G03X70035Y-14310I-354J0D01*
G74*
G01*
X70345Y-63045D02*
X71054Y-63754D01*
X71054Y-63045D02*
X70345Y-63754D01*
X70700Y-63045D02*
X70700Y-63754D01*
X70345Y-63400D02*
X71054Y-63400D01*
X71054Y-63400D02*
G75*
G03X71054Y-63400I-354J0D01*
G74*
G01*
X71515Y-13955D02*
X72224Y-14664D01*
X72224Y-13955D02*
X71515Y-14664D01*
X71870Y-13955D02*
X71870Y-14664D01*
X71515Y-14310D02*
X72224Y-14310D01*
X72224Y-14310D02*
G75*
G03X72224Y-14310I-354J0D01*
G74*
G01*
X72534Y-63045D02*
X73243Y-63754D01*
X73243Y-63045D02*
X72534Y-63754D01*
X72888Y-63045D02*
X72888Y-63754D01*
X72534Y-63400D02*
X73243Y-63400D01*
X73243Y-63400D02*
G75*
G03X73243Y-63400I-354J0D01*
G74*
G01*
X73704Y-13955D02*
X74413Y-14664D01*
X74413Y-13955D02*
X73704Y-14664D01*
X74058Y-13955D02*
X74058Y-14664D01*
X73704Y-14310D02*
X74413Y-14310D01*
X74413Y-14310D02*
G75*
G03X74413Y-14310I-354J0D01*
G74*
G01*
X108539Y-46555D02*
X109326Y-47342D01*
X109326Y-46555D02*
X108539Y-47342D01*
X109211Y-47227D02*
X109211Y-46670D01*
X108654Y-46670D01*
X108654Y-47227D01*
X109211Y-47227D01*
X109326Y-46948D02*
G75*
G03X109326Y-46948I-393J0D01*
G74*
G01*
X112476Y-46555D02*
X113263Y-47342D01*
X113263Y-46555D02*
X112476Y-47342D01*
X113148Y-47227D02*
X113148Y-46670D01*
X112591Y-46670D01*
X112591Y-47227D01*
X113148Y-47227D01*
X113263Y-46948D02*
G75*
G03X113263Y-46948I-393J0D01*
G74*
G01*
X27326Y-54622D02*
X28240Y-55535D01*
X28240Y-54622D02*
X27326Y-55535D01*
X27783Y-55535D02*
X28240Y-55078D01*
X27783Y-54622D01*
X27326Y-55078D01*
X27783Y-55535D01*
X28240Y-55078D02*
G75*
G03X28240Y-55078I-456J0D01*
G74*
G01*
X27326Y-58637D02*
X28240Y-59551D01*
X28240Y-58637D02*
X27326Y-59551D01*
X27783Y-59551D02*
X28240Y-59094D01*
X27783Y-58637D01*
X27326Y-59094D01*
X27783Y-59551D01*
X28240Y-59094D02*
G75*
G03X28240Y-59094I-456J0D01*
G74*
G01*
X35318Y-54622D02*
X36232Y-55535D01*
X36232Y-54622D02*
X35318Y-55535D01*
X35775Y-55535D02*
X36232Y-55078D01*
X35775Y-54622D01*
X35318Y-55078D01*
X35775Y-55535D01*
X36232Y-55078D02*
G75*
G03X36232Y-55078I-456J0D01*
G74*
G01*
X35318Y-58637D02*
X36232Y-59551D01*
X36232Y-58637D02*
X35318Y-59551D01*
X35775Y-59551D02*
X36232Y-59094D01*
X35775Y-58637D01*
X35318Y-59094D01*
X35775Y-59551D01*
X36232Y-59094D02*
G75*
G03X36232Y-59094I-456J0D01*
G74*
G01*
X45520Y-50182D02*
X46433Y-51095D01*
X46433Y-50182D02*
X45520Y-51095D01*
X45977Y-51095D02*
X46433Y-50638D01*
X45977Y-50182D01*
X45520Y-50638D01*
X45977Y-51095D01*
X46433Y-50638D02*
G75*
G03X46433Y-50638I-456J0D01*
G74*
G01*
X45520Y-58174D02*
X46433Y-59087D01*
X46433Y-58174D02*
X45520Y-59087D01*
X45977Y-59087D02*
X46433Y-58631D01*
X45977Y-58174D01*
X45520Y-58631D01*
X45977Y-59087D01*
X46433Y-58631D02*
G75*
G03X46433Y-58631I-456J0D01*
G74*
G01*
X49536Y-50182D02*
X50449Y-51095D01*
X50449Y-50182D02*
X49536Y-51095D01*
X49992Y-51095D02*
X50449Y-50638D01*
X49992Y-50182D01*
X49536Y-50638D01*
X49992Y-51095D01*
X50449Y-50638D02*
G75*
G03X50449Y-50638I-456J0D01*
G74*
G01*
X49536Y-58174D02*
X50449Y-59087D01*
X50449Y-58174D02*
X49536Y-59087D01*
X49992Y-59087D02*
X50449Y-58631D01*
X49992Y-58174D01*
X49536Y-58631D01*
X49992Y-59087D01*
X50449Y-58631D02*
G75*
G03X50449Y-58631I-456J0D01*
G74*
G01*
G54D13*
X13137Y-66832D02*
X13137Y-65651D01*
X13419Y-65651D01*
X13587Y-65708D01*
X13700Y-65820D01*
X13756Y-65933D01*
X13812Y-66158D01*
X13812Y-66326D01*
X13756Y-66551D01*
X13700Y-66664D01*
X13587Y-66776D01*
X13419Y-66832D01*
X13137Y-66832D01*
X14319Y-66832D02*
X14319Y-66045D01*
X14319Y-66270D02*
X14375Y-66158D01*
X14431Y-66101D01*
X14543Y-66045D01*
X14656Y-66045D01*
X15050Y-66832D02*
X15050Y-66045D01*
X15050Y-65651D02*
X14993Y-65708D01*
X15050Y-65764D01*
X15106Y-65708D01*
X15050Y-65651D01*
X15050Y-65764D01*
X15781Y-66832D02*
X15668Y-66776D01*
X15612Y-66664D01*
X15612Y-65651D01*
X16400Y-66832D02*
X16287Y-66776D01*
X16231Y-66664D01*
X16231Y-65651D01*
X17749Y-66832D02*
X17749Y-65651D01*
X18143Y-66495D01*
X18537Y-65651D01*
X18537Y-66832D01*
X19605Y-66832D02*
X19605Y-66214D01*
X19549Y-66101D01*
X19437Y-66045D01*
X19212Y-66045D01*
X19099Y-66101D01*
X19605Y-66776D02*
X19493Y-66832D01*
X19212Y-66832D01*
X19099Y-66776D01*
X19043Y-66664D01*
X19043Y-66551D01*
X19099Y-66439D01*
X19212Y-66383D01*
X19493Y-66383D01*
X19605Y-66326D01*
X20168Y-66045D02*
X20168Y-67226D01*
X20168Y-66101D02*
X20280Y-66045D01*
X20505Y-66045D01*
X20618Y-66101D01*
X20674Y-66158D01*
X20730Y-66270D01*
X20730Y-66607D01*
X20674Y-66720D01*
X20618Y-66776D01*
X20505Y-66832D01*
X20280Y-66832D01*
X20168Y-66776D01*
X21236Y-66720D02*
X21293Y-66776D01*
X21236Y-66832D01*
X21180Y-66776D01*
X21236Y-66720D01*
X21236Y-66832D01*
X21236Y-66101D02*
X21293Y-66158D01*
X21236Y-66214D01*
X21180Y-66158D01*
X21236Y-66101D01*
X21236Y-66214D01*
X11819Y-68710D02*
X12069Y-68960D01*
X12069Y-68710D02*
X11819Y-68960D01*
X13362Y-68132D02*
X13475Y-68132D01*
X13587Y-68188D01*
X13644Y-68244D01*
X13700Y-68357D01*
X13756Y-68582D01*
X13756Y-68863D01*
X13700Y-69088D01*
X13644Y-69200D01*
X13587Y-69257D01*
X13475Y-69313D01*
X13362Y-69313D01*
X13250Y-69257D01*
X13194Y-69200D01*
X13137Y-69088D01*
X13081Y-68863D01*
X13081Y-68582D01*
X13137Y-68357D01*
X13194Y-68244D01*
X13250Y-68188D01*
X13362Y-68132D01*
X14262Y-69200D02*
X14319Y-69257D01*
X14262Y-69313D01*
X14206Y-69257D01*
X14262Y-69200D01*
X14262Y-69313D01*
X15331Y-68132D02*
X15106Y-68132D01*
X14993Y-68188D01*
X14937Y-68244D01*
X14825Y-68413D01*
X14768Y-68638D01*
X14768Y-69088D01*
X14825Y-69200D01*
X14881Y-69257D01*
X14993Y-69313D01*
X15218Y-69313D01*
X15331Y-69257D01*
X15387Y-69200D01*
X15443Y-69088D01*
X15443Y-68807D01*
X15387Y-68694D01*
X15331Y-68638D01*
X15218Y-68582D01*
X14993Y-68582D01*
X14881Y-68638D01*
X14825Y-68694D01*
X14768Y-68807D01*
X16456Y-68525D02*
X16456Y-69313D01*
X16175Y-68075D02*
X15893Y-68919D01*
X16624Y-68919D01*
X17074Y-69313D02*
X17074Y-68525D01*
X17074Y-68638D02*
X17131Y-68582D01*
X17243Y-68525D01*
X17412Y-68525D01*
X17524Y-68582D01*
X17581Y-68694D01*
X17581Y-69313D01*
X17581Y-68694D02*
X17637Y-68582D01*
X17749Y-68525D01*
X17918Y-68525D01*
X18031Y-68582D01*
X18087Y-68694D01*
X18087Y-69313D01*
X18649Y-69313D02*
X18649Y-68525D01*
X18649Y-68638D02*
X18705Y-68582D01*
X18818Y-68525D01*
X18987Y-68525D01*
X19099Y-68582D01*
X19155Y-68694D01*
X19155Y-69313D01*
X19155Y-68694D02*
X19212Y-68582D01*
X19324Y-68525D01*
X19493Y-68525D01*
X19605Y-68582D01*
X19662Y-68694D01*
X19662Y-69313D01*
X21968Y-68075D02*
X20955Y-69594D01*
X23486Y-68132D02*
X23599Y-68132D01*
X23711Y-68188D01*
X23767Y-68244D01*
X23824Y-68357D01*
X23880Y-68582D01*
X23880Y-68863D01*
X23824Y-69088D01*
X23767Y-69200D01*
X23711Y-69257D01*
X23599Y-69313D01*
X23486Y-69313D01*
X23374Y-69257D01*
X23317Y-69200D01*
X23261Y-69088D01*
X23205Y-68863D01*
X23205Y-68582D01*
X23261Y-68357D01*
X23317Y-68244D01*
X23374Y-68188D01*
X23486Y-68132D01*
X24386Y-69200D02*
X24442Y-69257D01*
X24386Y-69313D01*
X24330Y-69257D01*
X24386Y-69200D01*
X24386Y-69313D01*
X25173Y-68132D02*
X25286Y-68132D01*
X25398Y-68188D01*
X25455Y-68244D01*
X25511Y-68357D01*
X25567Y-68582D01*
X25567Y-68863D01*
X25511Y-69088D01*
X25455Y-69200D01*
X25398Y-69257D01*
X25286Y-69313D01*
X25173Y-69313D01*
X25061Y-69257D01*
X25005Y-69200D01*
X24948Y-69088D01*
X24892Y-68863D01*
X24892Y-68582D01*
X24948Y-68357D01*
X25005Y-68244D01*
X25061Y-68188D01*
X25173Y-68132D01*
X26017Y-68244D02*
X26073Y-68188D01*
X26186Y-68132D01*
X26467Y-68132D01*
X26579Y-68188D01*
X26636Y-68244D01*
X26692Y-68357D01*
X26692Y-68469D01*
X26636Y-68638D01*
X25961Y-69313D01*
X26692Y-69313D01*
X27761Y-68132D02*
X27198Y-68132D01*
X27142Y-68694D01*
X27198Y-68638D01*
X27311Y-68582D01*
X27592Y-68582D01*
X27704Y-68638D01*
X27761Y-68694D01*
X27817Y-68807D01*
X27817Y-69088D01*
X27761Y-69200D01*
X27704Y-69257D01*
X27592Y-69313D01*
X27311Y-69313D01*
X27198Y-69257D01*
X27142Y-69200D01*
X28267Y-68132D02*
X28267Y-68357D01*
X28717Y-68132D02*
X28717Y-68357D01*
X30460Y-69763D02*
X30404Y-69706D01*
X30292Y-69538D01*
X30235Y-69425D01*
X30179Y-69257D01*
X30123Y-68975D01*
X30123Y-68750D01*
X30179Y-68469D01*
X30235Y-68300D01*
X30292Y-68188D01*
X30404Y-68019D01*
X30460Y-67963D01*
X31473Y-68132D02*
X30910Y-68132D01*
X30854Y-68694D01*
X30910Y-68638D01*
X31023Y-68582D01*
X31304Y-68582D01*
X31416Y-68638D01*
X31473Y-68694D01*
X31529Y-68807D01*
X31529Y-69088D01*
X31473Y-69200D01*
X31416Y-69257D01*
X31304Y-69313D01*
X31023Y-69313D01*
X30910Y-69257D01*
X30854Y-69200D01*
X31923Y-68132D02*
X32710Y-68132D01*
X32204Y-69313D01*
X33047Y-68132D02*
X33835Y-68132D01*
X33329Y-69313D01*
X35185Y-69313D02*
X35185Y-68132D01*
X35691Y-69313D02*
X35691Y-68694D01*
X35635Y-68582D01*
X35522Y-68525D01*
X35353Y-68525D01*
X35241Y-68582D01*
X35185Y-68638D01*
X36422Y-69313D02*
X36310Y-69257D01*
X36253Y-69200D01*
X36197Y-69088D01*
X36197Y-68750D01*
X36253Y-68638D01*
X36310Y-68582D01*
X36422Y-68525D01*
X36591Y-68525D01*
X36703Y-68582D01*
X36759Y-68638D01*
X36816Y-68750D01*
X36816Y-69088D01*
X36759Y-69200D01*
X36703Y-69257D01*
X36591Y-69313D01*
X36422Y-69313D01*
X37491Y-69313D02*
X37378Y-69257D01*
X37322Y-69144D01*
X37322Y-68132D01*
X38391Y-69257D02*
X38278Y-69313D01*
X38053Y-69313D01*
X37941Y-69257D01*
X37884Y-69144D01*
X37884Y-68694D01*
X37941Y-68582D01*
X38053Y-68525D01*
X38278Y-68525D01*
X38391Y-68582D01*
X38447Y-68694D01*
X38447Y-68807D01*
X37884Y-68919D01*
X38897Y-69257D02*
X39009Y-69313D01*
X39234Y-69313D01*
X39347Y-69257D01*
X39403Y-69144D01*
X39403Y-69088D01*
X39347Y-68975D01*
X39234Y-68919D01*
X39065Y-68919D01*
X38953Y-68863D01*
X38897Y-68750D01*
X38897Y-68694D01*
X38953Y-68582D01*
X39065Y-68525D01*
X39234Y-68525D01*
X39347Y-68582D01*
X39797Y-69763D02*
X39853Y-69706D01*
X39965Y-69538D01*
X40022Y-69425D01*
X40078Y-69257D01*
X40134Y-68975D01*
X40134Y-68750D01*
X40078Y-68469D01*
X40022Y-68300D01*
X39965Y-68188D01*
X39853Y-68019D01*
X39797Y-67963D01*
G54D12*
X12069Y-70394D02*
G75*
G03X12069Y-70394I-157J0D01*
G74*
G01*
G54D13*
X13362Y-69691D02*
X13475Y-69691D01*
X13587Y-69747D01*
X13644Y-69803D01*
X13700Y-69916D01*
X13756Y-70141D01*
X13756Y-70422D01*
X13700Y-70647D01*
X13644Y-70759D01*
X13587Y-70816D01*
X13475Y-70872D01*
X13362Y-70872D01*
X13250Y-70816D01*
X13194Y-70759D01*
X13137Y-70647D01*
X13081Y-70422D01*
X13081Y-70141D01*
X13137Y-69916D01*
X13194Y-69803D01*
X13250Y-69747D01*
X13362Y-69691D01*
X14262Y-70759D02*
X14319Y-70816D01*
X14262Y-70872D01*
X14206Y-70816D01*
X14262Y-70759D01*
X14262Y-70872D01*
X14993Y-70197D02*
X14881Y-70141D01*
X14825Y-70084D01*
X14768Y-69972D01*
X14768Y-69916D01*
X14825Y-69803D01*
X14881Y-69747D01*
X14993Y-69691D01*
X15218Y-69691D01*
X15331Y-69747D01*
X15387Y-69803D01*
X15443Y-69916D01*
X15443Y-69972D01*
X15387Y-70084D01*
X15331Y-70141D01*
X15218Y-70197D01*
X14993Y-70197D01*
X14881Y-70253D01*
X14825Y-70309D01*
X14768Y-70422D01*
X14768Y-70647D01*
X14825Y-70759D01*
X14881Y-70816D01*
X14993Y-70872D01*
X15218Y-70872D01*
X15331Y-70816D01*
X15387Y-70759D01*
X15443Y-70647D01*
X15443Y-70422D01*
X15387Y-70309D01*
X15331Y-70253D01*
X15218Y-70197D01*
X16175Y-69691D02*
X16287Y-69691D01*
X16400Y-69747D01*
X16456Y-69803D01*
X16512Y-69916D01*
X16568Y-70141D01*
X16568Y-70422D01*
X16512Y-70647D01*
X16456Y-70759D01*
X16400Y-70816D01*
X16287Y-70872D01*
X16175Y-70872D01*
X16062Y-70816D01*
X16006Y-70759D01*
X15950Y-70647D01*
X15893Y-70422D01*
X15893Y-70141D01*
X15950Y-69916D01*
X16006Y-69803D01*
X16062Y-69747D01*
X16175Y-69691D01*
X17074Y-70872D02*
X17074Y-70084D01*
X17074Y-70197D02*
X17131Y-70141D01*
X17243Y-70084D01*
X17412Y-70084D01*
X17524Y-70141D01*
X17581Y-70253D01*
X17581Y-70872D01*
X17581Y-70253D02*
X17637Y-70141D01*
X17749Y-70084D01*
X17918Y-70084D01*
X18031Y-70141D01*
X18087Y-70253D01*
X18087Y-70872D01*
X18649Y-70872D02*
X18649Y-70084D01*
X18649Y-70197D02*
X18705Y-70141D01*
X18818Y-70084D01*
X18987Y-70084D01*
X19099Y-70141D01*
X19155Y-70253D01*
X19155Y-70872D01*
X19155Y-70253D02*
X19212Y-70141D01*
X19324Y-70084D01*
X19493Y-70084D01*
X19605Y-70141D01*
X19662Y-70253D01*
X19662Y-70872D01*
X21968Y-69634D02*
X20955Y-71153D01*
X23486Y-69691D02*
X23599Y-69691D01*
X23711Y-69747D01*
X23767Y-69803D01*
X23824Y-69916D01*
X23880Y-70141D01*
X23880Y-70422D01*
X23824Y-70647D01*
X23767Y-70759D01*
X23711Y-70816D01*
X23599Y-70872D01*
X23486Y-70872D01*
X23374Y-70816D01*
X23317Y-70759D01*
X23261Y-70647D01*
X23205Y-70422D01*
X23205Y-70141D01*
X23261Y-69916D01*
X23317Y-69803D01*
X23374Y-69747D01*
X23486Y-69691D01*
X24386Y-70759D02*
X24442Y-70816D01*
X24386Y-70872D01*
X24330Y-70816D01*
X24386Y-70759D01*
X24386Y-70872D01*
X25173Y-69691D02*
X25286Y-69691D01*
X25398Y-69747D01*
X25455Y-69803D01*
X25511Y-69916D01*
X25567Y-70141D01*
X25567Y-70422D01*
X25511Y-70647D01*
X25455Y-70759D01*
X25398Y-70816D01*
X25286Y-70872D01*
X25173Y-70872D01*
X25061Y-70816D01*
X25005Y-70759D01*
X24948Y-70647D01*
X24892Y-70422D01*
X24892Y-70141D01*
X24948Y-69916D01*
X25005Y-69803D01*
X25061Y-69747D01*
X25173Y-69691D01*
X25961Y-69691D02*
X26692Y-69691D01*
X26298Y-70141D01*
X26467Y-70141D01*
X26579Y-70197D01*
X26636Y-70253D01*
X26692Y-70366D01*
X26692Y-70647D01*
X26636Y-70759D01*
X26579Y-70816D01*
X26467Y-70872D01*
X26130Y-70872D01*
X26017Y-70816D01*
X25961Y-70759D01*
X27817Y-70872D02*
X27142Y-70872D01*
X27479Y-70872D02*
X27479Y-69691D01*
X27367Y-69859D01*
X27254Y-69972D01*
X27142Y-70028D01*
X28267Y-69691D02*
X28267Y-69916D01*
X28717Y-69691D02*
X28717Y-69916D01*
X30460Y-71322D02*
X30404Y-71266D01*
X30292Y-71097D01*
X30235Y-70984D01*
X30179Y-70816D01*
X30123Y-70534D01*
X30123Y-70309D01*
X30179Y-70028D01*
X30235Y-69859D01*
X30292Y-69747D01*
X30404Y-69578D01*
X30460Y-69522D01*
X31529Y-70872D02*
X30854Y-70872D01*
X31191Y-70872D02*
X31191Y-69691D01*
X31079Y-69859D01*
X30966Y-69972D01*
X30854Y-70028D01*
X31979Y-69803D02*
X32035Y-69747D01*
X32148Y-69691D01*
X32429Y-69691D01*
X32541Y-69747D01*
X32597Y-69803D01*
X32654Y-69916D01*
X32654Y-70028D01*
X32597Y-70197D01*
X31923Y-70872D01*
X32654Y-70872D01*
X34060Y-70872D02*
X34060Y-69691D01*
X34566Y-70872D02*
X34566Y-70253D01*
X34510Y-70141D01*
X34397Y-70084D01*
X34229Y-70084D01*
X34116Y-70141D01*
X34060Y-70197D01*
X35297Y-70872D02*
X35185Y-70816D01*
X35128Y-70759D01*
X35072Y-70647D01*
X35072Y-70309D01*
X35128Y-70197D01*
X35185Y-70141D01*
X35297Y-70084D01*
X35466Y-70084D01*
X35578Y-70141D01*
X35635Y-70197D01*
X35691Y-70309D01*
X35691Y-70647D01*
X35635Y-70759D01*
X35578Y-70816D01*
X35466Y-70872D01*
X35297Y-70872D01*
X36366Y-70872D02*
X36253Y-70816D01*
X36197Y-70703D01*
X36197Y-69691D01*
X37266Y-70816D02*
X37153Y-70872D01*
X36928Y-70872D01*
X36816Y-70816D01*
X36759Y-70703D01*
X36759Y-70253D01*
X36816Y-70141D01*
X36928Y-70084D01*
X37153Y-70084D01*
X37266Y-70141D01*
X37322Y-70253D01*
X37322Y-70366D01*
X36759Y-70478D01*
X37772Y-70816D02*
X37884Y-70872D01*
X38109Y-70872D01*
X38222Y-70816D01*
X38278Y-70703D01*
X38278Y-70647D01*
X38222Y-70534D01*
X38109Y-70478D01*
X37941Y-70478D01*
X37828Y-70422D01*
X37772Y-70309D01*
X37772Y-70253D01*
X37828Y-70141D01*
X37941Y-70084D01*
X38109Y-70084D01*
X38222Y-70141D01*
X38672Y-71322D02*
X38728Y-71266D01*
X38840Y-71097D01*
X38897Y-70984D01*
X38953Y-70816D01*
X39009Y-70534D01*
X39009Y-70309D01*
X38953Y-70028D01*
X38897Y-69859D01*
X38840Y-69747D01*
X38728Y-69578D01*
X38672Y-69522D01*
X11909Y-71793D02*
X11909Y-72113D01*
X11749Y-71953D02*
X12069Y-71953D01*
X13362Y-71250D02*
X13475Y-71250D01*
X13587Y-71306D01*
X13644Y-71362D01*
X13700Y-71475D01*
X13756Y-71700D01*
X13756Y-71981D01*
X13700Y-72206D01*
X13644Y-72318D01*
X13587Y-72375D01*
X13475Y-72431D01*
X13362Y-72431D01*
X13250Y-72375D01*
X13194Y-72318D01*
X13137Y-72206D01*
X13081Y-71981D01*
X13081Y-71700D01*
X13137Y-71475D01*
X13194Y-71362D01*
X13250Y-71306D01*
X13362Y-71250D01*
X14262Y-72318D02*
X14319Y-72375D01*
X14262Y-72431D01*
X14206Y-72375D01*
X14262Y-72318D01*
X14262Y-72431D01*
X14993Y-71756D02*
X14881Y-71700D01*
X14825Y-71643D01*
X14768Y-71531D01*
X14768Y-71475D01*
X14825Y-71362D01*
X14881Y-71306D01*
X14993Y-71250D01*
X15218Y-71250D01*
X15331Y-71306D01*
X15387Y-71362D01*
X15443Y-71475D01*
X15443Y-71531D01*
X15387Y-71643D01*
X15331Y-71700D01*
X15218Y-71756D01*
X14993Y-71756D01*
X14881Y-71812D01*
X14825Y-71868D01*
X14768Y-71981D01*
X14768Y-72206D01*
X14825Y-72318D01*
X14881Y-72375D01*
X14993Y-72431D01*
X15218Y-72431D01*
X15331Y-72375D01*
X15387Y-72318D01*
X15443Y-72206D01*
X15443Y-71981D01*
X15387Y-71868D01*
X15331Y-71812D01*
X15218Y-71756D01*
X16568Y-72431D02*
X15893Y-72431D01*
X16231Y-72431D02*
X16231Y-71250D01*
X16118Y-71419D01*
X16006Y-71531D01*
X15893Y-71587D01*
X17074Y-72431D02*
X17074Y-71643D01*
X17074Y-71756D02*
X17131Y-71700D01*
X17243Y-71643D01*
X17412Y-71643D01*
X17524Y-71700D01*
X17581Y-71812D01*
X17581Y-72431D01*
X17581Y-71812D02*
X17637Y-71700D01*
X17749Y-71643D01*
X17918Y-71643D01*
X18031Y-71700D01*
X18087Y-71812D01*
X18087Y-72431D01*
X18649Y-72431D02*
X18649Y-71643D01*
X18649Y-71756D02*
X18705Y-71700D01*
X18818Y-71643D01*
X18987Y-71643D01*
X19099Y-71700D01*
X19155Y-71812D01*
X19155Y-72431D01*
X19155Y-71812D02*
X19212Y-71700D01*
X19324Y-71643D01*
X19493Y-71643D01*
X19605Y-71700D01*
X19662Y-71812D01*
X19662Y-72431D01*
X21968Y-71194D02*
X20955Y-72712D01*
X23486Y-71250D02*
X23599Y-71250D01*
X23711Y-71306D01*
X23767Y-71362D01*
X23824Y-71475D01*
X23880Y-71700D01*
X23880Y-71981D01*
X23824Y-72206D01*
X23767Y-72318D01*
X23711Y-72375D01*
X23599Y-72431D01*
X23486Y-72431D01*
X23374Y-72375D01*
X23317Y-72318D01*
X23261Y-72206D01*
X23205Y-71981D01*
X23205Y-71700D01*
X23261Y-71475D01*
X23317Y-71362D01*
X23374Y-71306D01*
X23486Y-71250D01*
X24386Y-72318D02*
X24442Y-72375D01*
X24386Y-72431D01*
X24330Y-72375D01*
X24386Y-72318D01*
X24386Y-72431D01*
X25173Y-71250D02*
X25286Y-71250D01*
X25398Y-71306D01*
X25455Y-71362D01*
X25511Y-71475D01*
X25567Y-71700D01*
X25567Y-71981D01*
X25511Y-72206D01*
X25455Y-72318D01*
X25398Y-72375D01*
X25286Y-72431D01*
X25173Y-72431D01*
X25061Y-72375D01*
X25005Y-72318D01*
X24948Y-72206D01*
X24892Y-71981D01*
X24892Y-71700D01*
X24948Y-71475D01*
X25005Y-71362D01*
X25061Y-71306D01*
X25173Y-71250D01*
X25961Y-71250D02*
X26692Y-71250D01*
X26298Y-71700D01*
X26467Y-71700D01*
X26579Y-71756D01*
X26636Y-71812D01*
X26692Y-71925D01*
X26692Y-72206D01*
X26636Y-72318D01*
X26579Y-72375D01*
X26467Y-72431D01*
X26130Y-72431D01*
X26017Y-72375D01*
X25961Y-72318D01*
X27142Y-71362D02*
X27198Y-71306D01*
X27311Y-71250D01*
X27592Y-71250D01*
X27704Y-71306D01*
X27761Y-71362D01*
X27817Y-71475D01*
X27817Y-71587D01*
X27761Y-71756D01*
X27086Y-72431D01*
X27817Y-72431D01*
X28267Y-71250D02*
X28267Y-71475D01*
X28717Y-71250D02*
X28717Y-71475D01*
X30460Y-72881D02*
X30404Y-72825D01*
X30292Y-72656D01*
X30235Y-72543D01*
X30179Y-72375D01*
X30123Y-72093D01*
X30123Y-71868D01*
X30179Y-71587D01*
X30235Y-71419D01*
X30292Y-71306D01*
X30404Y-71137D01*
X30460Y-71081D01*
X31416Y-71250D02*
X31191Y-71250D01*
X31079Y-71306D01*
X31023Y-71362D01*
X30910Y-71531D01*
X30854Y-71756D01*
X30854Y-72206D01*
X30910Y-72318D01*
X30966Y-72375D01*
X31079Y-72431D01*
X31304Y-72431D01*
X31416Y-72375D01*
X31473Y-72318D01*
X31529Y-72206D01*
X31529Y-71925D01*
X31473Y-71812D01*
X31416Y-71756D01*
X31304Y-71700D01*
X31079Y-71700D01*
X30966Y-71756D01*
X30910Y-71812D01*
X30854Y-71925D01*
X32935Y-72431D02*
X32935Y-71250D01*
X33441Y-72431D02*
X33441Y-71812D01*
X33385Y-71700D01*
X33272Y-71643D01*
X33104Y-71643D01*
X32991Y-71700D01*
X32935Y-71756D01*
X34172Y-72431D02*
X34060Y-72375D01*
X34004Y-72318D01*
X33947Y-72206D01*
X33947Y-71868D01*
X34004Y-71756D01*
X34060Y-71700D01*
X34172Y-71643D01*
X34341Y-71643D01*
X34454Y-71700D01*
X34510Y-71756D01*
X34566Y-71868D01*
X34566Y-72206D01*
X34510Y-72318D01*
X34454Y-72375D01*
X34341Y-72431D01*
X34172Y-72431D01*
X35241Y-72431D02*
X35128Y-72375D01*
X35072Y-72262D01*
X35072Y-71250D01*
X36141Y-72375D02*
X36028Y-72431D01*
X35803Y-72431D01*
X35691Y-72375D01*
X35635Y-72262D01*
X35635Y-71812D01*
X35691Y-71700D01*
X35803Y-71643D01*
X36028Y-71643D01*
X36141Y-71700D01*
X36197Y-71812D01*
X36197Y-71925D01*
X35635Y-72037D01*
X36647Y-72375D02*
X36759Y-72431D01*
X36984Y-72431D01*
X37097Y-72375D01*
X37153Y-72262D01*
X37153Y-72206D01*
X37097Y-72093D01*
X36984Y-72037D01*
X36816Y-72037D01*
X36703Y-71981D01*
X36647Y-71868D01*
X36647Y-71812D01*
X36703Y-71700D01*
X36816Y-71643D01*
X36984Y-71643D01*
X37097Y-71700D01*
X37547Y-72881D02*
X37603Y-72825D01*
X37716Y-72656D01*
X37772Y-72543D01*
X37828Y-72375D01*
X37884Y-72093D01*
X37884Y-71868D01*
X37828Y-71587D01*
X37772Y-71419D01*
X37716Y-71306D01*
X37603Y-71137D01*
X37547Y-71081D01*
G54D12*
X12022Y-73626D02*
X12022Y-73398D01*
X11793Y-73398D01*
X11793Y-73626D01*
X12022Y-73626D01*
G54D13*
X13362Y-72809D02*
X13475Y-72809D01*
X13587Y-72865D01*
X13644Y-72921D01*
X13700Y-73034D01*
X13756Y-73259D01*
X13756Y-73540D01*
X13700Y-73765D01*
X13644Y-73877D01*
X13587Y-73934D01*
X13475Y-73990D01*
X13362Y-73990D01*
X13250Y-73934D01*
X13194Y-73877D01*
X13137Y-73765D01*
X13081Y-73540D01*
X13081Y-73259D01*
X13137Y-73034D01*
X13194Y-72921D01*
X13250Y-72865D01*
X13362Y-72809D01*
X14262Y-73877D02*
X14319Y-73934D01*
X14262Y-73990D01*
X14206Y-73934D01*
X14262Y-73877D01*
X14262Y-73990D01*
X14993Y-73315D02*
X14881Y-73259D01*
X14825Y-73203D01*
X14768Y-73090D01*
X14768Y-73034D01*
X14825Y-72921D01*
X14881Y-72865D01*
X14993Y-72809D01*
X15218Y-72809D01*
X15331Y-72865D01*
X15387Y-72921D01*
X15443Y-73034D01*
X15443Y-73090D01*
X15387Y-73203D01*
X15331Y-73259D01*
X15218Y-73315D01*
X14993Y-73315D01*
X14881Y-73371D01*
X14825Y-73428D01*
X14768Y-73540D01*
X14768Y-73765D01*
X14825Y-73877D01*
X14881Y-73934D01*
X14993Y-73990D01*
X15218Y-73990D01*
X15331Y-73934D01*
X15387Y-73877D01*
X15443Y-73765D01*
X15443Y-73540D01*
X15387Y-73428D01*
X15331Y-73371D01*
X15218Y-73315D01*
X15893Y-72921D02*
X15950Y-72865D01*
X16062Y-72809D01*
X16343Y-72809D01*
X16456Y-72865D01*
X16512Y-72921D01*
X16568Y-73034D01*
X16568Y-73146D01*
X16512Y-73315D01*
X15837Y-73990D01*
X16568Y-73990D01*
X17074Y-73990D02*
X17074Y-73203D01*
X17074Y-73315D02*
X17131Y-73259D01*
X17243Y-73203D01*
X17412Y-73203D01*
X17524Y-73259D01*
X17581Y-73371D01*
X17581Y-73990D01*
X17581Y-73371D02*
X17637Y-73259D01*
X17749Y-73203D01*
X17918Y-73203D01*
X18031Y-73259D01*
X18087Y-73371D01*
X18087Y-73990D01*
X18649Y-73990D02*
X18649Y-73203D01*
X18649Y-73315D02*
X18705Y-73259D01*
X18818Y-73203D01*
X18987Y-73203D01*
X19099Y-73259D01*
X19155Y-73371D01*
X19155Y-73990D01*
X19155Y-73371D02*
X19212Y-73259D01*
X19324Y-73203D01*
X19493Y-73203D01*
X19605Y-73259D01*
X19662Y-73371D01*
X19662Y-73990D01*
X21968Y-72753D02*
X20955Y-74271D01*
X23486Y-72809D02*
X23599Y-72809D01*
X23711Y-72865D01*
X23767Y-72921D01*
X23824Y-73034D01*
X23880Y-73259D01*
X23880Y-73540D01*
X23824Y-73765D01*
X23767Y-73877D01*
X23711Y-73934D01*
X23599Y-73990D01*
X23486Y-73990D01*
X23374Y-73934D01*
X23317Y-73877D01*
X23261Y-73765D01*
X23205Y-73540D01*
X23205Y-73259D01*
X23261Y-73034D01*
X23317Y-72921D01*
X23374Y-72865D01*
X23486Y-72809D01*
X24386Y-73877D02*
X24442Y-73934D01*
X24386Y-73990D01*
X24330Y-73934D01*
X24386Y-73877D01*
X24386Y-73990D01*
X25173Y-72809D02*
X25286Y-72809D01*
X25398Y-72865D01*
X25455Y-72921D01*
X25511Y-73034D01*
X25567Y-73259D01*
X25567Y-73540D01*
X25511Y-73765D01*
X25455Y-73877D01*
X25398Y-73934D01*
X25286Y-73990D01*
X25173Y-73990D01*
X25061Y-73934D01*
X25005Y-73877D01*
X24948Y-73765D01*
X24892Y-73540D01*
X24892Y-73259D01*
X24948Y-73034D01*
X25005Y-72921D01*
X25061Y-72865D01*
X25173Y-72809D01*
X25961Y-72809D02*
X26692Y-72809D01*
X26298Y-73259D01*
X26467Y-73259D01*
X26579Y-73315D01*
X26636Y-73371D01*
X26692Y-73484D01*
X26692Y-73765D01*
X26636Y-73877D01*
X26579Y-73934D01*
X26467Y-73990D01*
X26130Y-73990D01*
X26017Y-73934D01*
X25961Y-73877D01*
X27142Y-72921D02*
X27198Y-72865D01*
X27311Y-72809D01*
X27592Y-72809D01*
X27704Y-72865D01*
X27761Y-72921D01*
X27817Y-73034D01*
X27817Y-73146D01*
X27761Y-73315D01*
X27086Y-73990D01*
X27817Y-73990D01*
X28267Y-72809D02*
X28267Y-73034D01*
X28717Y-72809D02*
X28717Y-73034D01*
X30460Y-74440D02*
X30404Y-74384D01*
X30292Y-74215D01*
X30235Y-74102D01*
X30179Y-73934D01*
X30123Y-73652D01*
X30123Y-73428D01*
X30179Y-73146D01*
X30235Y-72978D01*
X30292Y-72865D01*
X30404Y-72696D01*
X30460Y-72640D01*
X31416Y-73203D02*
X31416Y-73990D01*
X31135Y-72753D02*
X30854Y-73596D01*
X31585Y-73596D01*
X32935Y-73990D02*
X32935Y-72809D01*
X33441Y-73990D02*
X33441Y-73371D01*
X33385Y-73259D01*
X33272Y-73203D01*
X33104Y-73203D01*
X32991Y-73259D01*
X32935Y-73315D01*
X34172Y-73990D02*
X34060Y-73934D01*
X34004Y-73877D01*
X33947Y-73765D01*
X33947Y-73428D01*
X34004Y-73315D01*
X34060Y-73259D01*
X34172Y-73203D01*
X34341Y-73203D01*
X34454Y-73259D01*
X34510Y-73315D01*
X34566Y-73428D01*
X34566Y-73765D01*
X34510Y-73877D01*
X34454Y-73934D01*
X34341Y-73990D01*
X34172Y-73990D01*
X35241Y-73990D02*
X35128Y-73934D01*
X35072Y-73821D01*
X35072Y-72809D01*
X36141Y-73934D02*
X36028Y-73990D01*
X35803Y-73990D01*
X35691Y-73934D01*
X35635Y-73821D01*
X35635Y-73371D01*
X35691Y-73259D01*
X35803Y-73203D01*
X36028Y-73203D01*
X36141Y-73259D01*
X36197Y-73371D01*
X36197Y-73484D01*
X35635Y-73596D01*
X36647Y-73934D02*
X36759Y-73990D01*
X36984Y-73990D01*
X37097Y-73934D01*
X37153Y-73821D01*
X37153Y-73765D01*
X37097Y-73652D01*
X36984Y-73596D01*
X36816Y-73596D01*
X36703Y-73540D01*
X36647Y-73428D01*
X36647Y-73371D01*
X36703Y-73259D01*
X36816Y-73203D01*
X36984Y-73203D01*
X37097Y-73259D01*
X37547Y-74440D02*
X37603Y-74384D01*
X37716Y-74215D01*
X37772Y-74102D01*
X37828Y-73934D01*
X37884Y-73652D01*
X37884Y-73428D01*
X37828Y-73146D01*
X37772Y-72978D01*
X37716Y-72865D01*
X37603Y-72696D01*
X37547Y-72640D01*
G54D12*
X11892Y-75248D02*
X12069Y-75071D01*
X11892Y-74894D01*
X11714Y-75071D01*
X11892Y-75248D01*
G54D13*
X13362Y-74368D02*
X13475Y-74368D01*
X13587Y-74424D01*
X13644Y-74480D01*
X13700Y-74593D01*
X13756Y-74818D01*
X13756Y-75099D01*
X13700Y-75324D01*
X13644Y-75437D01*
X13587Y-75493D01*
X13475Y-75549D01*
X13362Y-75549D01*
X13250Y-75493D01*
X13194Y-75437D01*
X13137Y-75324D01*
X13081Y-75099D01*
X13081Y-74818D01*
X13137Y-74593D01*
X13194Y-74480D01*
X13250Y-74424D01*
X13362Y-74368D01*
X14262Y-75437D02*
X14319Y-75493D01*
X14262Y-75549D01*
X14206Y-75493D01*
X14262Y-75437D01*
X14262Y-75549D01*
X14881Y-75549D02*
X15106Y-75549D01*
X15218Y-75493D01*
X15275Y-75437D01*
X15387Y-75268D01*
X15443Y-75043D01*
X15443Y-74593D01*
X15387Y-74480D01*
X15331Y-74424D01*
X15218Y-74368D01*
X14993Y-74368D01*
X14881Y-74424D01*
X14825Y-74480D01*
X14768Y-74593D01*
X14768Y-74874D01*
X14825Y-74987D01*
X14881Y-75043D01*
X14993Y-75099D01*
X15218Y-75099D01*
X15331Y-75043D01*
X15387Y-74987D01*
X15443Y-74874D01*
X16175Y-74368D02*
X16287Y-74368D01*
X16400Y-74424D01*
X16456Y-74480D01*
X16512Y-74593D01*
X16568Y-74818D01*
X16568Y-75099D01*
X16512Y-75324D01*
X16456Y-75437D01*
X16400Y-75493D01*
X16287Y-75549D01*
X16175Y-75549D01*
X16062Y-75493D01*
X16006Y-75437D01*
X15950Y-75324D01*
X15893Y-75099D01*
X15893Y-74818D01*
X15950Y-74593D01*
X16006Y-74480D01*
X16062Y-74424D01*
X16175Y-74368D01*
X17074Y-75549D02*
X17074Y-74762D01*
X17074Y-74874D02*
X17131Y-74818D01*
X17243Y-74762D01*
X17412Y-74762D01*
X17524Y-74818D01*
X17581Y-74930D01*
X17581Y-75549D01*
X17581Y-74930D02*
X17637Y-74818D01*
X17749Y-74762D01*
X17918Y-74762D01*
X18031Y-74818D01*
X18087Y-74930D01*
X18087Y-75549D01*
X18649Y-75549D02*
X18649Y-74762D01*
X18649Y-74874D02*
X18705Y-74818D01*
X18818Y-74762D01*
X18987Y-74762D01*
X19099Y-74818D01*
X19155Y-74930D01*
X19155Y-75549D01*
X19155Y-74930D02*
X19212Y-74818D01*
X19324Y-74762D01*
X19493Y-74762D01*
X19605Y-74818D01*
X19662Y-74930D01*
X19662Y-75549D01*
X21968Y-74312D02*
X20955Y-75830D01*
X23486Y-74368D02*
X23599Y-74368D01*
X23711Y-74424D01*
X23767Y-74480D01*
X23824Y-74593D01*
X23880Y-74818D01*
X23880Y-75099D01*
X23824Y-75324D01*
X23767Y-75437D01*
X23711Y-75493D01*
X23599Y-75549D01*
X23486Y-75549D01*
X23374Y-75493D01*
X23317Y-75437D01*
X23261Y-75324D01*
X23205Y-75099D01*
X23205Y-74818D01*
X23261Y-74593D01*
X23317Y-74480D01*
X23374Y-74424D01*
X23486Y-74368D01*
X24386Y-75437D02*
X24442Y-75493D01*
X24386Y-75549D01*
X24330Y-75493D01*
X24386Y-75437D01*
X24386Y-75549D01*
X25173Y-74368D02*
X25286Y-74368D01*
X25398Y-74424D01*
X25455Y-74480D01*
X25511Y-74593D01*
X25567Y-74818D01*
X25567Y-75099D01*
X25511Y-75324D01*
X25455Y-75437D01*
X25398Y-75493D01*
X25286Y-75549D01*
X25173Y-75549D01*
X25061Y-75493D01*
X25005Y-75437D01*
X24948Y-75324D01*
X24892Y-75099D01*
X24892Y-74818D01*
X24948Y-74593D01*
X25005Y-74480D01*
X25061Y-74424D01*
X25173Y-74368D01*
X25961Y-74368D02*
X26692Y-74368D01*
X26298Y-74818D01*
X26467Y-74818D01*
X26579Y-74874D01*
X26636Y-74930D01*
X26692Y-75043D01*
X26692Y-75324D01*
X26636Y-75437D01*
X26579Y-75493D01*
X26467Y-75549D01*
X26130Y-75549D01*
X26017Y-75493D01*
X25961Y-75437D01*
X27761Y-74368D02*
X27198Y-74368D01*
X27142Y-74930D01*
X27198Y-74874D01*
X27311Y-74818D01*
X27592Y-74818D01*
X27704Y-74874D01*
X27761Y-74930D01*
X27817Y-75043D01*
X27817Y-75324D01*
X27761Y-75437D01*
X27704Y-75493D01*
X27592Y-75549D01*
X27311Y-75549D01*
X27198Y-75493D01*
X27142Y-75437D01*
X28267Y-74368D02*
X28267Y-74593D01*
X28717Y-74368D02*
X28717Y-74593D01*
X30460Y-75999D02*
X30404Y-75943D01*
X30292Y-75774D01*
X30235Y-75661D01*
X30179Y-75493D01*
X30123Y-75212D01*
X30123Y-74987D01*
X30179Y-74705D01*
X30235Y-74537D01*
X30292Y-74424D01*
X30404Y-74255D01*
X30460Y-74199D01*
X31416Y-74762D02*
X31416Y-75549D01*
X31135Y-74312D02*
X30854Y-75155D01*
X31585Y-75155D01*
X32935Y-75549D02*
X32935Y-74368D01*
X33441Y-75549D02*
X33441Y-74930D01*
X33385Y-74818D01*
X33272Y-74762D01*
X33104Y-74762D01*
X32991Y-74818D01*
X32935Y-74874D01*
X34172Y-75549D02*
X34060Y-75493D01*
X34004Y-75437D01*
X33947Y-75324D01*
X33947Y-74987D01*
X34004Y-74874D01*
X34060Y-74818D01*
X34172Y-74762D01*
X34341Y-74762D01*
X34454Y-74818D01*
X34510Y-74874D01*
X34566Y-74987D01*
X34566Y-75324D01*
X34510Y-75437D01*
X34454Y-75493D01*
X34341Y-75549D01*
X34172Y-75549D01*
X35241Y-75549D02*
X35128Y-75493D01*
X35072Y-75380D01*
X35072Y-74368D01*
X36141Y-75493D02*
X36028Y-75549D01*
X35803Y-75549D01*
X35691Y-75493D01*
X35635Y-75380D01*
X35635Y-74930D01*
X35691Y-74818D01*
X35803Y-74762D01*
X36028Y-74762D01*
X36141Y-74818D01*
X36197Y-74930D01*
X36197Y-75043D01*
X35635Y-75155D01*
X36647Y-75493D02*
X36759Y-75549D01*
X36984Y-75549D01*
X37097Y-75493D01*
X37153Y-75380D01*
X37153Y-75324D01*
X37097Y-75212D01*
X36984Y-75155D01*
X36816Y-75155D01*
X36703Y-75099D01*
X36647Y-74987D01*
X36647Y-74930D01*
X36703Y-74818D01*
X36816Y-74762D01*
X36984Y-74762D01*
X37097Y-74818D01*
X37547Y-75999D02*
X37603Y-75943D01*
X37716Y-75774D01*
X37772Y-75661D01*
X37828Y-75493D01*
X37884Y-75212D01*
X37884Y-74987D01*
X37828Y-74705D01*
X37772Y-74537D01*
X37716Y-74424D01*
X37603Y-74255D01*
X37547Y-74199D01*
X11675Y-76433D02*
X12069Y-76827D01*
X12069Y-76433D02*
X11675Y-76827D01*
G54D12*
X12069Y-76630D02*
G75*
G03X12069Y-76630I-196J0D01*
G74*
G01*
G54D13*
X13756Y-77108D02*
X13081Y-77108D01*
X13419Y-77108D02*
X13419Y-75927D01*
X13306Y-76096D01*
X13194Y-76208D01*
X13081Y-76264D01*
X14262Y-76996D02*
X14319Y-77052D01*
X14262Y-77108D01*
X14206Y-77052D01*
X14262Y-76996D01*
X14262Y-77108D01*
X15050Y-75927D02*
X15162Y-75927D01*
X15275Y-75983D01*
X15331Y-76039D01*
X15387Y-76152D01*
X15443Y-76377D01*
X15443Y-76658D01*
X15387Y-76883D01*
X15331Y-76996D01*
X15275Y-77052D01*
X15162Y-77108D01*
X15050Y-77108D01*
X14937Y-77052D01*
X14881Y-76996D01*
X14825Y-76883D01*
X14768Y-76658D01*
X14768Y-76377D01*
X14825Y-76152D01*
X14881Y-76039D01*
X14937Y-75983D01*
X15050Y-75927D01*
X16175Y-75927D02*
X16287Y-75927D01*
X16400Y-75983D01*
X16456Y-76039D01*
X16512Y-76152D01*
X16568Y-76377D01*
X16568Y-76658D01*
X16512Y-76883D01*
X16456Y-76996D01*
X16400Y-77052D01*
X16287Y-77108D01*
X16175Y-77108D01*
X16062Y-77052D01*
X16006Y-76996D01*
X15950Y-76883D01*
X15893Y-76658D01*
X15893Y-76377D01*
X15950Y-76152D01*
X16006Y-76039D01*
X16062Y-75983D01*
X16175Y-75927D01*
X17074Y-77108D02*
X17074Y-76321D01*
X17074Y-76433D02*
X17131Y-76377D01*
X17243Y-76321D01*
X17412Y-76321D01*
X17524Y-76377D01*
X17581Y-76489D01*
X17581Y-77108D01*
X17581Y-76489D02*
X17637Y-76377D01*
X17749Y-76321D01*
X17918Y-76321D01*
X18031Y-76377D01*
X18087Y-76489D01*
X18087Y-77108D01*
X18649Y-77108D02*
X18649Y-76321D01*
X18649Y-76433D02*
X18705Y-76377D01*
X18818Y-76321D01*
X18987Y-76321D01*
X19099Y-76377D01*
X19155Y-76489D01*
X19155Y-77108D01*
X19155Y-76489D02*
X19212Y-76377D01*
X19324Y-76321D01*
X19493Y-76321D01*
X19605Y-76377D01*
X19662Y-76489D01*
X19662Y-77108D01*
X21968Y-75871D02*
X20955Y-77389D01*
X23486Y-75927D02*
X23599Y-75927D01*
X23711Y-75983D01*
X23767Y-76039D01*
X23824Y-76152D01*
X23880Y-76377D01*
X23880Y-76658D01*
X23824Y-76883D01*
X23767Y-76996D01*
X23711Y-77052D01*
X23599Y-77108D01*
X23486Y-77108D01*
X23374Y-77052D01*
X23317Y-76996D01*
X23261Y-76883D01*
X23205Y-76658D01*
X23205Y-76377D01*
X23261Y-76152D01*
X23317Y-76039D01*
X23374Y-75983D01*
X23486Y-75927D01*
X24386Y-76996D02*
X24442Y-77052D01*
X24386Y-77108D01*
X24330Y-77052D01*
X24386Y-76996D01*
X24386Y-77108D01*
X25173Y-75927D02*
X25286Y-75927D01*
X25398Y-75983D01*
X25455Y-76039D01*
X25511Y-76152D01*
X25567Y-76377D01*
X25567Y-76658D01*
X25511Y-76883D01*
X25455Y-76996D01*
X25398Y-77052D01*
X25286Y-77108D01*
X25173Y-77108D01*
X25061Y-77052D01*
X25005Y-76996D01*
X24948Y-76883D01*
X24892Y-76658D01*
X24892Y-76377D01*
X24948Y-76152D01*
X25005Y-76039D01*
X25061Y-75983D01*
X25173Y-75927D01*
X25961Y-75927D02*
X26692Y-75927D01*
X26298Y-76377D01*
X26467Y-76377D01*
X26579Y-76433D01*
X26636Y-76489D01*
X26692Y-76602D01*
X26692Y-76883D01*
X26636Y-76996D01*
X26579Y-77052D01*
X26467Y-77108D01*
X26130Y-77108D01*
X26017Y-77052D01*
X25961Y-76996D01*
X27254Y-77108D02*
X27479Y-77108D01*
X27592Y-77052D01*
X27648Y-76996D01*
X27761Y-76827D01*
X27817Y-76602D01*
X27817Y-76152D01*
X27761Y-76039D01*
X27704Y-75983D01*
X27592Y-75927D01*
X27367Y-75927D01*
X27254Y-75983D01*
X27198Y-76039D01*
X27142Y-76152D01*
X27142Y-76433D01*
X27198Y-76546D01*
X27254Y-76602D01*
X27367Y-76658D01*
X27592Y-76658D01*
X27704Y-76602D01*
X27761Y-76546D01*
X27817Y-76433D01*
X28267Y-75927D02*
X28267Y-76152D01*
X28717Y-75927D02*
X28717Y-76152D01*
X30460Y-77558D02*
X30404Y-77502D01*
X30292Y-77333D01*
X30235Y-77221D01*
X30179Y-77052D01*
X30123Y-76771D01*
X30123Y-76546D01*
X30179Y-76264D01*
X30235Y-76096D01*
X30292Y-75983D01*
X30404Y-75814D01*
X30460Y-75758D01*
X30798Y-75927D02*
X31529Y-75927D01*
X31135Y-76377D01*
X31304Y-76377D01*
X31416Y-76433D01*
X31473Y-76489D01*
X31529Y-76602D01*
X31529Y-76883D01*
X31473Y-76996D01*
X31416Y-77052D01*
X31304Y-77108D01*
X30966Y-77108D01*
X30854Y-77052D01*
X30798Y-76996D01*
X32541Y-76321D02*
X32541Y-77108D01*
X32260Y-75871D02*
X31979Y-76714D01*
X32710Y-76714D01*
X34060Y-77108D02*
X34060Y-75927D01*
X34566Y-77108D02*
X34566Y-76489D01*
X34510Y-76377D01*
X34397Y-76321D01*
X34229Y-76321D01*
X34116Y-76377D01*
X34060Y-76433D01*
X35297Y-77108D02*
X35185Y-77052D01*
X35128Y-76996D01*
X35072Y-76883D01*
X35072Y-76546D01*
X35128Y-76433D01*
X35185Y-76377D01*
X35297Y-76321D01*
X35466Y-76321D01*
X35578Y-76377D01*
X35635Y-76433D01*
X35691Y-76546D01*
X35691Y-76883D01*
X35635Y-76996D01*
X35578Y-77052D01*
X35466Y-77108D01*
X35297Y-77108D01*
X36366Y-77108D02*
X36253Y-77052D01*
X36197Y-76939D01*
X36197Y-75927D01*
X37266Y-77052D02*
X37153Y-77108D01*
X36928Y-77108D01*
X36816Y-77052D01*
X36759Y-76939D01*
X36759Y-76489D01*
X36816Y-76377D01*
X36928Y-76321D01*
X37153Y-76321D01*
X37266Y-76377D01*
X37322Y-76489D01*
X37322Y-76602D01*
X36759Y-76714D01*
X37772Y-77052D02*
X37884Y-77108D01*
X38109Y-77108D01*
X38222Y-77052D01*
X38278Y-76939D01*
X38278Y-76883D01*
X38222Y-76771D01*
X38109Y-76714D01*
X37941Y-76714D01*
X37828Y-76658D01*
X37772Y-76546D01*
X37772Y-76489D01*
X37828Y-76377D01*
X37941Y-76321D01*
X38109Y-76321D01*
X38222Y-76377D01*
X38672Y-77558D02*
X38728Y-77502D01*
X38840Y-77333D01*
X38897Y-77221D01*
X38953Y-77052D01*
X39009Y-76771D01*
X39009Y-76546D01*
X38953Y-76264D01*
X38897Y-76096D01*
X38840Y-75983D01*
X38728Y-75814D01*
X38672Y-75758D01*
X11667Y-77988D02*
X12069Y-78390D01*
X12069Y-77988D02*
X11667Y-78390D01*
X11868Y-77988D02*
X11868Y-78390D01*
X11667Y-78189D02*
X12069Y-78189D01*
X13756Y-78667D02*
X13081Y-78667D01*
X13419Y-78667D02*
X13419Y-77486D01*
X13306Y-77655D01*
X13194Y-77767D01*
X13081Y-77823D01*
X14262Y-78555D02*
X14319Y-78611D01*
X14262Y-78667D01*
X14206Y-78611D01*
X14262Y-78555D01*
X14262Y-78667D01*
X15050Y-77486D02*
X15162Y-77486D01*
X15275Y-77542D01*
X15331Y-77598D01*
X15387Y-77711D01*
X15443Y-77936D01*
X15443Y-78217D01*
X15387Y-78442D01*
X15331Y-78555D01*
X15275Y-78611D01*
X15162Y-78667D01*
X15050Y-78667D01*
X14937Y-78611D01*
X14881Y-78555D01*
X14825Y-78442D01*
X14768Y-78217D01*
X14768Y-77936D01*
X14825Y-77711D01*
X14881Y-77598D01*
X14937Y-77542D01*
X15050Y-77486D01*
X15893Y-77598D02*
X15950Y-77542D01*
X16062Y-77486D01*
X16343Y-77486D01*
X16456Y-77542D01*
X16512Y-77598D01*
X16568Y-77711D01*
X16568Y-77823D01*
X16512Y-77992D01*
X15837Y-78667D01*
X16568Y-78667D01*
X17074Y-78667D02*
X17074Y-77880D01*
X17074Y-77992D02*
X17131Y-77936D01*
X17243Y-77880D01*
X17412Y-77880D01*
X17524Y-77936D01*
X17581Y-78048D01*
X17581Y-78667D01*
X17581Y-78048D02*
X17637Y-77936D01*
X17749Y-77880D01*
X17918Y-77880D01*
X18031Y-77936D01*
X18087Y-78048D01*
X18087Y-78667D01*
X18649Y-78667D02*
X18649Y-77880D01*
X18649Y-77992D02*
X18705Y-77936D01*
X18818Y-77880D01*
X18987Y-77880D01*
X19099Y-77936D01*
X19155Y-78048D01*
X19155Y-78667D01*
X19155Y-78048D02*
X19212Y-77936D01*
X19324Y-77880D01*
X19493Y-77880D01*
X19605Y-77936D01*
X19662Y-78048D01*
X19662Y-78667D01*
X21968Y-77430D02*
X20955Y-78948D01*
X23486Y-77486D02*
X23599Y-77486D01*
X23711Y-77542D01*
X23767Y-77598D01*
X23824Y-77711D01*
X23880Y-77936D01*
X23880Y-78217D01*
X23824Y-78442D01*
X23767Y-78555D01*
X23711Y-78611D01*
X23599Y-78667D01*
X23486Y-78667D01*
X23374Y-78611D01*
X23317Y-78555D01*
X23261Y-78442D01*
X23205Y-78217D01*
X23205Y-77936D01*
X23261Y-77711D01*
X23317Y-77598D01*
X23374Y-77542D01*
X23486Y-77486D01*
X24386Y-78555D02*
X24442Y-78611D01*
X24386Y-78667D01*
X24330Y-78611D01*
X24386Y-78555D01*
X24386Y-78667D01*
X25173Y-77486D02*
X25286Y-77486D01*
X25398Y-77542D01*
X25455Y-77598D01*
X25511Y-77711D01*
X25567Y-77936D01*
X25567Y-78217D01*
X25511Y-78442D01*
X25455Y-78555D01*
X25398Y-78611D01*
X25286Y-78667D01*
X25173Y-78667D01*
X25061Y-78611D01*
X25005Y-78555D01*
X24948Y-78442D01*
X24892Y-78217D01*
X24892Y-77936D01*
X24948Y-77711D01*
X25005Y-77598D01*
X25061Y-77542D01*
X25173Y-77486D01*
X26579Y-77880D02*
X26579Y-78667D01*
X26298Y-77430D02*
X26017Y-78273D01*
X26748Y-78273D01*
X27423Y-77486D02*
X27536Y-77486D01*
X27648Y-77542D01*
X27704Y-77598D01*
X27761Y-77711D01*
X27817Y-77936D01*
X27817Y-78217D01*
X27761Y-78442D01*
X27704Y-78555D01*
X27648Y-78611D01*
X27536Y-78667D01*
X27423Y-78667D01*
X27311Y-78611D01*
X27254Y-78555D01*
X27198Y-78442D01*
X27142Y-78217D01*
X27142Y-77936D01*
X27198Y-77711D01*
X27254Y-77598D01*
X27311Y-77542D01*
X27423Y-77486D01*
X28267Y-77486D02*
X28267Y-77711D01*
X28717Y-77486D02*
X28717Y-77711D01*
X30460Y-79117D02*
X30404Y-79061D01*
X30292Y-78892D01*
X30235Y-78780D01*
X30179Y-78611D01*
X30123Y-78330D01*
X30123Y-78105D01*
X30179Y-77823D01*
X30235Y-77655D01*
X30292Y-77542D01*
X30404Y-77374D01*
X30460Y-77317D01*
X31416Y-77880D02*
X31416Y-78667D01*
X31135Y-77430D02*
X30854Y-78273D01*
X31585Y-78273D01*
X32935Y-78667D02*
X32935Y-77486D01*
X33441Y-78667D02*
X33441Y-78048D01*
X33385Y-77936D01*
X33272Y-77880D01*
X33104Y-77880D01*
X32991Y-77936D01*
X32935Y-77992D01*
X34172Y-78667D02*
X34060Y-78611D01*
X34004Y-78555D01*
X33947Y-78442D01*
X33947Y-78105D01*
X34004Y-77992D01*
X34060Y-77936D01*
X34172Y-77880D01*
X34341Y-77880D01*
X34454Y-77936D01*
X34510Y-77992D01*
X34566Y-78105D01*
X34566Y-78442D01*
X34510Y-78555D01*
X34454Y-78611D01*
X34341Y-78667D01*
X34172Y-78667D01*
X35241Y-78667D02*
X35128Y-78611D01*
X35072Y-78498D01*
X35072Y-77486D01*
X36141Y-78611D02*
X36028Y-78667D01*
X35803Y-78667D01*
X35691Y-78611D01*
X35635Y-78498D01*
X35635Y-78048D01*
X35691Y-77936D01*
X35803Y-77880D01*
X36028Y-77880D01*
X36141Y-77936D01*
X36197Y-78048D01*
X36197Y-78161D01*
X35635Y-78273D01*
X36647Y-78611D02*
X36759Y-78667D01*
X36984Y-78667D01*
X37097Y-78611D01*
X37153Y-78498D01*
X37153Y-78442D01*
X37097Y-78330D01*
X36984Y-78273D01*
X36816Y-78273D01*
X36703Y-78217D01*
X36647Y-78105D01*
X36647Y-78048D01*
X36703Y-77936D01*
X36816Y-77880D01*
X36984Y-77880D01*
X37097Y-77936D01*
X37547Y-79117D02*
X37603Y-79061D01*
X37716Y-78892D01*
X37772Y-78780D01*
X37828Y-78611D01*
X37884Y-78330D01*
X37884Y-78105D01*
X37828Y-77823D01*
X37772Y-77655D01*
X37716Y-77542D01*
X37603Y-77374D01*
X37547Y-77317D01*
X11655Y-79541D02*
X12069Y-79955D01*
X12069Y-79541D02*
X11655Y-79955D01*
G54D12*
X12008Y-79894D02*
X12008Y-79602D01*
X11716Y-79602D01*
X11716Y-79894D01*
X12008Y-79894D01*
G54D13*
X13756Y-80226D02*
X13081Y-80226D01*
X13419Y-80226D02*
X13419Y-79045D01*
X13306Y-79214D01*
X13194Y-79326D01*
X13081Y-79383D01*
X14262Y-80114D02*
X14319Y-80170D01*
X14262Y-80226D01*
X14206Y-80170D01*
X14262Y-80114D01*
X14262Y-80226D01*
X15050Y-79045D02*
X15162Y-79045D01*
X15275Y-79101D01*
X15331Y-79158D01*
X15387Y-79270D01*
X15443Y-79495D01*
X15443Y-79776D01*
X15387Y-80001D01*
X15331Y-80114D01*
X15275Y-80170D01*
X15162Y-80226D01*
X15050Y-80226D01*
X14937Y-80170D01*
X14881Y-80114D01*
X14825Y-80001D01*
X14768Y-79776D01*
X14768Y-79495D01*
X14825Y-79270D01*
X14881Y-79158D01*
X14937Y-79101D01*
X15050Y-79045D01*
X16512Y-79045D02*
X15950Y-79045D01*
X15893Y-79607D01*
X15950Y-79551D01*
X16062Y-79495D01*
X16343Y-79495D01*
X16456Y-79551D01*
X16512Y-79607D01*
X16568Y-79720D01*
X16568Y-80001D01*
X16512Y-80114D01*
X16456Y-80170D01*
X16343Y-80226D01*
X16062Y-80226D01*
X15950Y-80170D01*
X15893Y-80114D01*
X17074Y-80226D02*
X17074Y-79439D01*
X17074Y-79551D02*
X17131Y-79495D01*
X17243Y-79439D01*
X17412Y-79439D01*
X17524Y-79495D01*
X17581Y-79607D01*
X17581Y-80226D01*
X17581Y-79607D02*
X17637Y-79495D01*
X17749Y-79439D01*
X17918Y-79439D01*
X18031Y-79495D01*
X18087Y-79607D01*
X18087Y-80226D01*
X18649Y-80226D02*
X18649Y-79439D01*
X18649Y-79551D02*
X18705Y-79495D01*
X18818Y-79439D01*
X18987Y-79439D01*
X19099Y-79495D01*
X19155Y-79607D01*
X19155Y-80226D01*
X19155Y-79607D02*
X19212Y-79495D01*
X19324Y-79439D01*
X19493Y-79439D01*
X19605Y-79495D01*
X19662Y-79607D01*
X19662Y-80226D01*
X21968Y-78989D02*
X20955Y-80507D01*
X23486Y-79045D02*
X23599Y-79045D01*
X23711Y-79101D01*
X23767Y-79158D01*
X23824Y-79270D01*
X23880Y-79495D01*
X23880Y-79776D01*
X23824Y-80001D01*
X23767Y-80114D01*
X23711Y-80170D01*
X23599Y-80226D01*
X23486Y-80226D01*
X23374Y-80170D01*
X23317Y-80114D01*
X23261Y-80001D01*
X23205Y-79776D01*
X23205Y-79495D01*
X23261Y-79270D01*
X23317Y-79158D01*
X23374Y-79101D01*
X23486Y-79045D01*
X24386Y-80114D02*
X24442Y-80170D01*
X24386Y-80226D01*
X24330Y-80170D01*
X24386Y-80114D01*
X24386Y-80226D01*
X25173Y-79045D02*
X25286Y-79045D01*
X25398Y-79101D01*
X25455Y-79158D01*
X25511Y-79270D01*
X25567Y-79495D01*
X25567Y-79776D01*
X25511Y-80001D01*
X25455Y-80114D01*
X25398Y-80170D01*
X25286Y-80226D01*
X25173Y-80226D01*
X25061Y-80170D01*
X25005Y-80114D01*
X24948Y-80001D01*
X24892Y-79776D01*
X24892Y-79495D01*
X24948Y-79270D01*
X25005Y-79158D01*
X25061Y-79101D01*
X25173Y-79045D01*
X26579Y-79439D02*
X26579Y-80226D01*
X26298Y-78989D02*
X26017Y-79832D01*
X26748Y-79832D01*
X27817Y-80226D02*
X27142Y-80226D01*
X27479Y-80226D02*
X27479Y-79045D01*
X27367Y-79214D01*
X27254Y-79326D01*
X27142Y-79383D01*
X28267Y-79045D02*
X28267Y-79270D01*
X28717Y-79045D02*
X28717Y-79270D01*
X30460Y-80676D02*
X30404Y-80620D01*
X30292Y-80451D01*
X30235Y-80339D01*
X30179Y-80170D01*
X30123Y-79889D01*
X30123Y-79664D01*
X30179Y-79383D01*
X30235Y-79214D01*
X30292Y-79101D01*
X30404Y-78933D01*
X30460Y-78876D01*
X31473Y-79045D02*
X30910Y-79045D01*
X30854Y-79607D01*
X30910Y-79551D01*
X31023Y-79495D01*
X31304Y-79495D01*
X31416Y-79551D01*
X31473Y-79607D01*
X31529Y-79720D01*
X31529Y-80001D01*
X31473Y-80114D01*
X31416Y-80170D01*
X31304Y-80226D01*
X31023Y-80226D01*
X30910Y-80170D01*
X30854Y-80114D01*
X32935Y-80226D02*
X32935Y-79045D01*
X33441Y-80226D02*
X33441Y-79607D01*
X33385Y-79495D01*
X33272Y-79439D01*
X33104Y-79439D01*
X32991Y-79495D01*
X32935Y-79551D01*
X34172Y-80226D02*
X34060Y-80170D01*
X34004Y-80114D01*
X33947Y-80001D01*
X33947Y-79664D01*
X34004Y-79551D01*
X34060Y-79495D01*
X34172Y-79439D01*
X34341Y-79439D01*
X34454Y-79495D01*
X34510Y-79551D01*
X34566Y-79664D01*
X34566Y-80001D01*
X34510Y-80114D01*
X34454Y-80170D01*
X34341Y-80226D01*
X34172Y-80226D01*
X35241Y-80226D02*
X35128Y-80170D01*
X35072Y-80057D01*
X35072Y-79045D01*
X36141Y-80170D02*
X36028Y-80226D01*
X35803Y-80226D01*
X35691Y-80170D01*
X35635Y-80057D01*
X35635Y-79607D01*
X35691Y-79495D01*
X35803Y-79439D01*
X36028Y-79439D01*
X36141Y-79495D01*
X36197Y-79607D01*
X36197Y-79720D01*
X35635Y-79832D01*
X36647Y-80170D02*
X36759Y-80226D01*
X36984Y-80226D01*
X37097Y-80170D01*
X37153Y-80057D01*
X37153Y-80001D01*
X37097Y-79889D01*
X36984Y-79832D01*
X36816Y-79832D01*
X36703Y-79776D01*
X36647Y-79664D01*
X36647Y-79607D01*
X36703Y-79495D01*
X36816Y-79439D01*
X36984Y-79439D01*
X37097Y-79495D01*
X37547Y-80676D02*
X37603Y-80620D01*
X37716Y-80451D01*
X37772Y-80339D01*
X37828Y-80170D01*
X37884Y-79889D01*
X37884Y-79664D01*
X37828Y-79383D01*
X37772Y-79214D01*
X37716Y-79101D01*
X37603Y-78933D01*
X37547Y-78876D01*
X11636Y-81091D02*
X12069Y-81524D01*
X12069Y-81091D02*
X11636Y-81524D01*
G54D12*
X11852Y-81524D02*
X12069Y-81307D01*
X11852Y-81091D01*
X11636Y-81307D01*
X11852Y-81524D01*
G54D13*
X13756Y-81785D02*
X13081Y-81785D01*
X13419Y-81785D02*
X13419Y-80604D01*
X13306Y-80773D01*
X13194Y-80885D01*
X13081Y-80942D01*
X14262Y-81673D02*
X14319Y-81729D01*
X14262Y-81785D01*
X14206Y-81729D01*
X14262Y-81673D01*
X14262Y-81785D01*
X15443Y-81785D02*
X14768Y-81785D01*
X15106Y-81785D02*
X15106Y-80604D01*
X14993Y-80773D01*
X14881Y-80885D01*
X14768Y-80942D01*
X16175Y-80604D02*
X16287Y-80604D01*
X16400Y-80660D01*
X16456Y-80717D01*
X16512Y-80829D01*
X16568Y-81054D01*
X16568Y-81335D01*
X16512Y-81560D01*
X16456Y-81673D01*
X16400Y-81729D01*
X16287Y-81785D01*
X16175Y-81785D01*
X16062Y-81729D01*
X16006Y-81673D01*
X15950Y-81560D01*
X15893Y-81335D01*
X15893Y-81054D01*
X15950Y-80829D01*
X16006Y-80717D01*
X16062Y-80660D01*
X16175Y-80604D01*
X17074Y-81785D02*
X17074Y-80998D01*
X17074Y-81110D02*
X17131Y-81054D01*
X17243Y-80998D01*
X17412Y-80998D01*
X17524Y-81054D01*
X17581Y-81167D01*
X17581Y-81785D01*
X17581Y-81167D02*
X17637Y-81054D01*
X17749Y-80998D01*
X17918Y-80998D01*
X18031Y-81054D01*
X18087Y-81167D01*
X18087Y-81785D01*
X18649Y-81785D02*
X18649Y-80998D01*
X18649Y-81110D02*
X18705Y-81054D01*
X18818Y-80998D01*
X18987Y-80998D01*
X19099Y-81054D01*
X19155Y-81167D01*
X19155Y-81785D01*
X19155Y-81167D02*
X19212Y-81054D01*
X19324Y-80998D01*
X19493Y-80998D01*
X19605Y-81054D01*
X19662Y-81167D01*
X19662Y-81785D01*
X21968Y-80548D02*
X20955Y-82066D01*
X23486Y-80604D02*
X23599Y-80604D01*
X23711Y-80660D01*
X23767Y-80717D01*
X23824Y-80829D01*
X23880Y-81054D01*
X23880Y-81335D01*
X23824Y-81560D01*
X23767Y-81673D01*
X23711Y-81729D01*
X23599Y-81785D01*
X23486Y-81785D01*
X23374Y-81729D01*
X23317Y-81673D01*
X23261Y-81560D01*
X23205Y-81335D01*
X23205Y-81054D01*
X23261Y-80829D01*
X23317Y-80717D01*
X23374Y-80660D01*
X23486Y-80604D01*
X24386Y-81673D02*
X24442Y-81729D01*
X24386Y-81785D01*
X24330Y-81729D01*
X24386Y-81673D01*
X24386Y-81785D01*
X25173Y-80604D02*
X25286Y-80604D01*
X25398Y-80660D01*
X25455Y-80717D01*
X25511Y-80829D01*
X25567Y-81054D01*
X25567Y-81335D01*
X25511Y-81560D01*
X25455Y-81673D01*
X25398Y-81729D01*
X25286Y-81785D01*
X25173Y-81785D01*
X25061Y-81729D01*
X25005Y-81673D01*
X24948Y-81560D01*
X24892Y-81335D01*
X24892Y-81054D01*
X24948Y-80829D01*
X25005Y-80717D01*
X25061Y-80660D01*
X25173Y-80604D01*
X26579Y-80998D02*
X26579Y-81785D01*
X26298Y-80548D02*
X26017Y-81392D01*
X26748Y-81392D01*
X27086Y-80604D02*
X27817Y-80604D01*
X27423Y-81054D01*
X27592Y-81054D01*
X27704Y-81110D01*
X27761Y-81167D01*
X27817Y-81279D01*
X27817Y-81560D01*
X27761Y-81673D01*
X27704Y-81729D01*
X27592Y-81785D01*
X27254Y-81785D01*
X27142Y-81729D01*
X27086Y-81673D01*
X28267Y-80604D02*
X28267Y-80829D01*
X28717Y-80604D02*
X28717Y-80829D01*
X30460Y-82235D02*
X30404Y-82179D01*
X30292Y-82010D01*
X30235Y-81898D01*
X30179Y-81729D01*
X30123Y-81448D01*
X30123Y-81223D01*
X30179Y-80942D01*
X30235Y-80773D01*
X30292Y-80660D01*
X30404Y-80492D01*
X30460Y-80435D01*
X30798Y-80604D02*
X31585Y-80604D01*
X31079Y-81785D01*
X32541Y-80998D02*
X32541Y-81785D01*
X32260Y-80548D02*
X31979Y-81392D01*
X32710Y-81392D01*
X34060Y-81785D02*
X34060Y-80604D01*
X34566Y-81785D02*
X34566Y-81167D01*
X34510Y-81054D01*
X34397Y-80998D01*
X34229Y-80998D01*
X34116Y-81054D01*
X34060Y-81110D01*
X35297Y-81785D02*
X35185Y-81729D01*
X35128Y-81673D01*
X35072Y-81560D01*
X35072Y-81223D01*
X35128Y-81110D01*
X35185Y-81054D01*
X35297Y-80998D01*
X35466Y-80998D01*
X35578Y-81054D01*
X35635Y-81110D01*
X35691Y-81223D01*
X35691Y-81560D01*
X35635Y-81673D01*
X35578Y-81729D01*
X35466Y-81785D01*
X35297Y-81785D01*
X36366Y-81785D02*
X36253Y-81729D01*
X36197Y-81616D01*
X36197Y-80604D01*
X37266Y-81729D02*
X37153Y-81785D01*
X36928Y-81785D01*
X36816Y-81729D01*
X36759Y-81616D01*
X36759Y-81167D01*
X36816Y-81054D01*
X36928Y-80998D01*
X37153Y-80998D01*
X37266Y-81054D01*
X37322Y-81167D01*
X37322Y-81279D01*
X36759Y-81392D01*
X37772Y-81729D02*
X37884Y-81785D01*
X38109Y-81785D01*
X38222Y-81729D01*
X38278Y-81616D01*
X38278Y-81560D01*
X38222Y-81448D01*
X38109Y-81392D01*
X37941Y-81392D01*
X37828Y-81335D01*
X37772Y-81223D01*
X37772Y-81167D01*
X37828Y-81054D01*
X37941Y-80998D01*
X38109Y-80998D01*
X38222Y-81054D01*
X38672Y-82235D02*
X38728Y-82179D01*
X38840Y-82010D01*
X38897Y-81898D01*
X38953Y-81729D01*
X39009Y-81448D01*
X39009Y-81223D01*
X38953Y-80942D01*
X38897Y-80773D01*
X38840Y-80660D01*
X38728Y-80492D01*
X38672Y-80435D01*
X11844Y-82641D02*
X11844Y-83091D01*
X11619Y-82866D02*
X12069Y-82866D01*
G54D12*
X12069Y-82866D02*
G75*
G03X12069Y-82866I-225J0D01*
G74*
G01*
G54D13*
X13756Y-83344D02*
X13081Y-83344D01*
X13419Y-83344D02*
X13419Y-82163D01*
X13306Y-82332D01*
X13194Y-82444D01*
X13081Y-82501D01*
X14262Y-83232D02*
X14319Y-83288D01*
X14262Y-83344D01*
X14206Y-83288D01*
X14262Y-83232D01*
X14262Y-83344D01*
X15443Y-83344D02*
X14768Y-83344D01*
X15106Y-83344D02*
X15106Y-82163D01*
X14993Y-82332D01*
X14881Y-82444D01*
X14768Y-82501D01*
X16456Y-82557D02*
X16456Y-83344D01*
X16175Y-82107D02*
X15893Y-82951D01*
X16624Y-82951D01*
X17074Y-83344D02*
X17074Y-82557D01*
X17074Y-82669D02*
X17131Y-82613D01*
X17243Y-82557D01*
X17412Y-82557D01*
X17524Y-82613D01*
X17581Y-82726D01*
X17581Y-83344D01*
X17581Y-82726D02*
X17637Y-82613D01*
X17749Y-82557D01*
X17918Y-82557D01*
X18031Y-82613D01*
X18087Y-82726D01*
X18087Y-83344D01*
X18649Y-83344D02*
X18649Y-82557D01*
X18649Y-82669D02*
X18705Y-82613D01*
X18818Y-82557D01*
X18987Y-82557D01*
X19099Y-82613D01*
X19155Y-82726D01*
X19155Y-83344D01*
X19155Y-82726D02*
X19212Y-82613D01*
X19324Y-82557D01*
X19493Y-82557D01*
X19605Y-82613D01*
X19662Y-82726D01*
X19662Y-83344D01*
X21968Y-82107D02*
X20955Y-83625D01*
X23486Y-82163D02*
X23599Y-82163D01*
X23711Y-82219D01*
X23767Y-82276D01*
X23824Y-82388D01*
X23880Y-82613D01*
X23880Y-82894D01*
X23824Y-83119D01*
X23767Y-83232D01*
X23711Y-83288D01*
X23599Y-83344D01*
X23486Y-83344D01*
X23374Y-83288D01*
X23317Y-83232D01*
X23261Y-83119D01*
X23205Y-82894D01*
X23205Y-82613D01*
X23261Y-82388D01*
X23317Y-82276D01*
X23374Y-82219D01*
X23486Y-82163D01*
X24386Y-83232D02*
X24442Y-83288D01*
X24386Y-83344D01*
X24330Y-83288D01*
X24386Y-83232D01*
X24386Y-83344D01*
X25173Y-82163D02*
X25286Y-82163D01*
X25398Y-82219D01*
X25455Y-82276D01*
X25511Y-82388D01*
X25567Y-82613D01*
X25567Y-82894D01*
X25511Y-83119D01*
X25455Y-83232D01*
X25398Y-83288D01*
X25286Y-83344D01*
X25173Y-83344D01*
X25061Y-83288D01*
X25005Y-83232D01*
X24948Y-83119D01*
X24892Y-82894D01*
X24892Y-82613D01*
X24948Y-82388D01*
X25005Y-82276D01*
X25061Y-82219D01*
X25173Y-82163D01*
X26579Y-82557D02*
X26579Y-83344D01*
X26298Y-82107D02*
X26017Y-82951D01*
X26748Y-82951D01*
X27761Y-82163D02*
X27198Y-82163D01*
X27142Y-82726D01*
X27198Y-82669D01*
X27311Y-82613D01*
X27592Y-82613D01*
X27704Y-82669D01*
X27761Y-82726D01*
X27817Y-82838D01*
X27817Y-83119D01*
X27761Y-83232D01*
X27704Y-83288D01*
X27592Y-83344D01*
X27311Y-83344D01*
X27198Y-83288D01*
X27142Y-83232D01*
X28267Y-82163D02*
X28267Y-82388D01*
X28717Y-82163D02*
X28717Y-82388D01*
X30460Y-83794D02*
X30404Y-83738D01*
X30292Y-83569D01*
X30235Y-83457D01*
X30179Y-83288D01*
X30123Y-83007D01*
X30123Y-82782D01*
X30179Y-82501D01*
X30235Y-82332D01*
X30292Y-82219D01*
X30404Y-82051D01*
X30460Y-81994D01*
X31416Y-82557D02*
X31416Y-83344D01*
X31135Y-82107D02*
X30854Y-82951D01*
X31585Y-82951D01*
X32935Y-83344D02*
X32935Y-82163D01*
X33441Y-83344D02*
X33441Y-82726D01*
X33385Y-82613D01*
X33272Y-82557D01*
X33104Y-82557D01*
X32991Y-82613D01*
X32935Y-82669D01*
X34172Y-83344D02*
X34060Y-83288D01*
X34004Y-83232D01*
X33947Y-83119D01*
X33947Y-82782D01*
X34004Y-82669D01*
X34060Y-82613D01*
X34172Y-82557D01*
X34341Y-82557D01*
X34454Y-82613D01*
X34510Y-82669D01*
X34566Y-82782D01*
X34566Y-83119D01*
X34510Y-83232D01*
X34454Y-83288D01*
X34341Y-83344D01*
X34172Y-83344D01*
X35241Y-83344D02*
X35128Y-83288D01*
X35072Y-83176D01*
X35072Y-82163D01*
X36141Y-83288D02*
X36028Y-83344D01*
X35803Y-83344D01*
X35691Y-83288D01*
X35635Y-83176D01*
X35635Y-82726D01*
X35691Y-82613D01*
X35803Y-82557D01*
X36028Y-82557D01*
X36141Y-82613D01*
X36197Y-82726D01*
X36197Y-82838D01*
X35635Y-82951D01*
X36647Y-83288D02*
X36759Y-83344D01*
X36984Y-83344D01*
X37097Y-83288D01*
X37153Y-83176D01*
X37153Y-83119D01*
X37097Y-83007D01*
X36984Y-82951D01*
X36816Y-82951D01*
X36703Y-82894D01*
X36647Y-82782D01*
X36647Y-82726D01*
X36703Y-82613D01*
X36816Y-82557D01*
X36984Y-82557D01*
X37097Y-82613D01*
X37547Y-83794D02*
X37603Y-83738D01*
X37716Y-83569D01*
X37772Y-83457D01*
X37828Y-83288D01*
X37884Y-83007D01*
X37884Y-82782D01*
X37828Y-82501D01*
X37772Y-82332D01*
X37716Y-82219D01*
X37603Y-82051D01*
X37547Y-81994D01*
G54D12*
X12000Y-84591D02*
X12000Y-84260D01*
X11669Y-84260D01*
X11669Y-84591D01*
X12000Y-84591D01*
X12069Y-84425D02*
G75*
G03X12069Y-84425I-234J0D01*
G74*
G01*
G54D13*
X13756Y-84903D02*
X13081Y-84903D01*
X13419Y-84903D02*
X13419Y-83722D01*
X13306Y-83891D01*
X13194Y-84003D01*
X13081Y-84060D01*
X14262Y-84791D02*
X14319Y-84847D01*
X14262Y-84903D01*
X14206Y-84847D01*
X14262Y-84791D01*
X14262Y-84903D01*
X15443Y-84903D02*
X14768Y-84903D01*
X15106Y-84903D02*
X15106Y-83722D01*
X14993Y-83891D01*
X14881Y-84003D01*
X14768Y-84060D01*
X16006Y-84903D02*
X16231Y-84903D01*
X16343Y-84847D01*
X16400Y-84791D01*
X16512Y-84622D01*
X16568Y-84397D01*
X16568Y-83947D01*
X16512Y-83835D01*
X16456Y-83778D01*
X16343Y-83722D01*
X16118Y-83722D01*
X16006Y-83778D01*
X15950Y-83835D01*
X15893Y-83947D01*
X15893Y-84228D01*
X15950Y-84341D01*
X16006Y-84397D01*
X16118Y-84453D01*
X16343Y-84453D01*
X16456Y-84397D01*
X16512Y-84341D01*
X16568Y-84228D01*
X17074Y-84903D02*
X17074Y-84116D01*
X17074Y-84228D02*
X17131Y-84172D01*
X17243Y-84116D01*
X17412Y-84116D01*
X17524Y-84172D01*
X17581Y-84285D01*
X17581Y-84903D01*
X17581Y-84285D02*
X17637Y-84172D01*
X17749Y-84116D01*
X17918Y-84116D01*
X18031Y-84172D01*
X18087Y-84285D01*
X18087Y-84903D01*
X18649Y-84903D02*
X18649Y-84116D01*
X18649Y-84228D02*
X18705Y-84172D01*
X18818Y-84116D01*
X18987Y-84116D01*
X19099Y-84172D01*
X19155Y-84285D01*
X19155Y-84903D01*
X19155Y-84285D02*
X19212Y-84172D01*
X19324Y-84116D01*
X19493Y-84116D01*
X19605Y-84172D01*
X19662Y-84285D01*
X19662Y-84903D01*
X21968Y-83666D02*
X20955Y-85185D01*
X23486Y-83722D02*
X23599Y-83722D01*
X23711Y-83778D01*
X23767Y-83835D01*
X23824Y-83947D01*
X23880Y-84172D01*
X23880Y-84453D01*
X23824Y-84678D01*
X23767Y-84791D01*
X23711Y-84847D01*
X23599Y-84903D01*
X23486Y-84903D01*
X23374Y-84847D01*
X23317Y-84791D01*
X23261Y-84678D01*
X23205Y-84453D01*
X23205Y-84172D01*
X23261Y-83947D01*
X23317Y-83835D01*
X23374Y-83778D01*
X23486Y-83722D01*
X24386Y-84791D02*
X24442Y-84847D01*
X24386Y-84903D01*
X24330Y-84847D01*
X24386Y-84791D01*
X24386Y-84903D01*
X25173Y-83722D02*
X25286Y-83722D01*
X25398Y-83778D01*
X25455Y-83835D01*
X25511Y-83947D01*
X25567Y-84172D01*
X25567Y-84453D01*
X25511Y-84678D01*
X25455Y-84791D01*
X25398Y-84847D01*
X25286Y-84903D01*
X25173Y-84903D01*
X25061Y-84847D01*
X25005Y-84791D01*
X24948Y-84678D01*
X24892Y-84453D01*
X24892Y-84172D01*
X24948Y-83947D01*
X25005Y-83835D01*
X25061Y-83778D01*
X25173Y-83722D01*
X26579Y-84116D02*
X26579Y-84903D01*
X26298Y-83666D02*
X26017Y-84510D01*
X26748Y-84510D01*
X27086Y-83722D02*
X27873Y-83722D01*
X27367Y-84903D01*
X28267Y-83722D02*
X28267Y-83947D01*
X28717Y-83722D02*
X28717Y-83947D01*
X30460Y-85353D02*
X30404Y-85297D01*
X30292Y-85128D01*
X30235Y-85016D01*
X30179Y-84847D01*
X30123Y-84566D01*
X30123Y-84341D01*
X30179Y-84060D01*
X30235Y-83891D01*
X30292Y-83778D01*
X30404Y-83610D01*
X30460Y-83553D01*
X31416Y-83722D02*
X31191Y-83722D01*
X31079Y-83778D01*
X31023Y-83835D01*
X30910Y-84003D01*
X30854Y-84228D01*
X30854Y-84678D01*
X30910Y-84791D01*
X30966Y-84847D01*
X31079Y-84903D01*
X31304Y-84903D01*
X31416Y-84847D01*
X31473Y-84791D01*
X31529Y-84678D01*
X31529Y-84397D01*
X31473Y-84285D01*
X31416Y-84228D01*
X31304Y-84172D01*
X31079Y-84172D01*
X30966Y-84228D01*
X30910Y-84285D01*
X30854Y-84397D01*
X32935Y-84903D02*
X32935Y-83722D01*
X33441Y-84903D02*
X33441Y-84285D01*
X33385Y-84172D01*
X33272Y-84116D01*
X33104Y-84116D01*
X32991Y-84172D01*
X32935Y-84228D01*
X34172Y-84903D02*
X34060Y-84847D01*
X34004Y-84791D01*
X33947Y-84678D01*
X33947Y-84341D01*
X34004Y-84228D01*
X34060Y-84172D01*
X34172Y-84116D01*
X34341Y-84116D01*
X34454Y-84172D01*
X34510Y-84228D01*
X34566Y-84341D01*
X34566Y-84678D01*
X34510Y-84791D01*
X34454Y-84847D01*
X34341Y-84903D01*
X34172Y-84903D01*
X35241Y-84903D02*
X35128Y-84847D01*
X35072Y-84735D01*
X35072Y-83722D01*
X36141Y-84847D02*
X36028Y-84903D01*
X35803Y-84903D01*
X35691Y-84847D01*
X35635Y-84735D01*
X35635Y-84285D01*
X35691Y-84172D01*
X35803Y-84116D01*
X36028Y-84116D01*
X36141Y-84172D01*
X36197Y-84285D01*
X36197Y-84397D01*
X35635Y-84510D01*
X36647Y-84847D02*
X36759Y-84903D01*
X36984Y-84903D01*
X37097Y-84847D01*
X37153Y-84735D01*
X37153Y-84678D01*
X37097Y-84566D01*
X36984Y-84510D01*
X36816Y-84510D01*
X36703Y-84453D01*
X36647Y-84341D01*
X36647Y-84285D01*
X36703Y-84172D01*
X36816Y-84116D01*
X36984Y-84116D01*
X37097Y-84172D01*
X37547Y-85353D02*
X37603Y-85297D01*
X37716Y-85128D01*
X37772Y-85016D01*
X37828Y-84847D01*
X37884Y-84566D01*
X37884Y-84341D01*
X37828Y-84060D01*
X37772Y-83891D01*
X37716Y-83778D01*
X37603Y-83610D01*
X37547Y-83553D01*
G54D12*
X11833Y-86221D02*
X12069Y-85984D01*
X11833Y-85748D01*
X11596Y-85984D01*
X11833Y-86221D01*
X12069Y-85984D02*
G75*
G03X12069Y-85984I-236J0D01*
G74*
G01*
G54D13*
X13756Y-86462D02*
X13081Y-86462D01*
X13419Y-86462D02*
X13419Y-85281D01*
X13306Y-85450D01*
X13194Y-85562D01*
X13081Y-85619D01*
X14262Y-86350D02*
X14319Y-86406D01*
X14262Y-86462D01*
X14206Y-86406D01*
X14262Y-86350D01*
X14262Y-86462D01*
X14768Y-85394D02*
X14825Y-85338D01*
X14937Y-85281D01*
X15218Y-85281D01*
X15331Y-85338D01*
X15387Y-85394D01*
X15443Y-85506D01*
X15443Y-85619D01*
X15387Y-85787D01*
X14712Y-86462D01*
X15443Y-86462D01*
X16175Y-85281D02*
X16287Y-85281D01*
X16400Y-85338D01*
X16456Y-85394D01*
X16512Y-85506D01*
X16568Y-85731D01*
X16568Y-86012D01*
X16512Y-86237D01*
X16456Y-86350D01*
X16400Y-86406D01*
X16287Y-86462D01*
X16175Y-86462D01*
X16062Y-86406D01*
X16006Y-86350D01*
X15950Y-86237D01*
X15893Y-86012D01*
X15893Y-85731D01*
X15950Y-85506D01*
X16006Y-85394D01*
X16062Y-85338D01*
X16175Y-85281D01*
X17074Y-86462D02*
X17074Y-85675D01*
X17074Y-85787D02*
X17131Y-85731D01*
X17243Y-85675D01*
X17412Y-85675D01*
X17524Y-85731D01*
X17581Y-85844D01*
X17581Y-86462D01*
X17581Y-85844D02*
X17637Y-85731D01*
X17749Y-85675D01*
X17918Y-85675D01*
X18031Y-85731D01*
X18087Y-85844D01*
X18087Y-86462D01*
X18649Y-86462D02*
X18649Y-85675D01*
X18649Y-85787D02*
X18705Y-85731D01*
X18818Y-85675D01*
X18987Y-85675D01*
X19099Y-85731D01*
X19155Y-85844D01*
X19155Y-86462D01*
X19155Y-85844D02*
X19212Y-85731D01*
X19324Y-85675D01*
X19493Y-85675D01*
X19605Y-85731D01*
X19662Y-85844D01*
X19662Y-86462D01*
X21968Y-85225D02*
X20955Y-86744D01*
X23486Y-85281D02*
X23599Y-85281D01*
X23711Y-85338D01*
X23767Y-85394D01*
X23824Y-85506D01*
X23880Y-85731D01*
X23880Y-86012D01*
X23824Y-86237D01*
X23767Y-86350D01*
X23711Y-86406D01*
X23599Y-86462D01*
X23486Y-86462D01*
X23374Y-86406D01*
X23317Y-86350D01*
X23261Y-86237D01*
X23205Y-86012D01*
X23205Y-85731D01*
X23261Y-85506D01*
X23317Y-85394D01*
X23374Y-85338D01*
X23486Y-85281D01*
X24386Y-86350D02*
X24442Y-86406D01*
X24386Y-86462D01*
X24330Y-86406D01*
X24386Y-86350D01*
X24386Y-86462D01*
X25173Y-85281D02*
X25286Y-85281D01*
X25398Y-85338D01*
X25455Y-85394D01*
X25511Y-85506D01*
X25567Y-85731D01*
X25567Y-86012D01*
X25511Y-86237D01*
X25455Y-86350D01*
X25398Y-86406D01*
X25286Y-86462D01*
X25173Y-86462D01*
X25061Y-86406D01*
X25005Y-86350D01*
X24948Y-86237D01*
X24892Y-86012D01*
X24892Y-85731D01*
X24948Y-85506D01*
X25005Y-85394D01*
X25061Y-85338D01*
X25173Y-85281D01*
X26579Y-85675D02*
X26579Y-86462D01*
X26298Y-85225D02*
X26017Y-86069D01*
X26748Y-86069D01*
X27086Y-85281D02*
X27873Y-85281D01*
X27367Y-86462D01*
X28267Y-85281D02*
X28267Y-85506D01*
X28717Y-85281D02*
X28717Y-85506D01*
X30460Y-86912D02*
X30404Y-86856D01*
X30292Y-86687D01*
X30235Y-86575D01*
X30179Y-86406D01*
X30123Y-86125D01*
X30123Y-85900D01*
X30179Y-85619D01*
X30235Y-85450D01*
X30292Y-85338D01*
X30404Y-85169D01*
X30460Y-85113D01*
X30854Y-85394D02*
X30910Y-85338D01*
X31023Y-85281D01*
X31304Y-85281D01*
X31416Y-85338D01*
X31473Y-85394D01*
X31529Y-85506D01*
X31529Y-85619D01*
X31473Y-85787D01*
X30798Y-86462D01*
X31529Y-86462D01*
X31979Y-85394D02*
X32035Y-85338D01*
X32148Y-85281D01*
X32429Y-85281D01*
X32541Y-85338D01*
X32597Y-85394D01*
X32654Y-85506D01*
X32654Y-85619D01*
X32597Y-85787D01*
X31923Y-86462D01*
X32654Y-86462D01*
X34060Y-86462D02*
X34060Y-85281D01*
X34566Y-86462D02*
X34566Y-85844D01*
X34510Y-85731D01*
X34397Y-85675D01*
X34229Y-85675D01*
X34116Y-85731D01*
X34060Y-85787D01*
X35297Y-86462D02*
X35185Y-86406D01*
X35128Y-86350D01*
X35072Y-86237D01*
X35072Y-85900D01*
X35128Y-85787D01*
X35185Y-85731D01*
X35297Y-85675D01*
X35466Y-85675D01*
X35578Y-85731D01*
X35635Y-85787D01*
X35691Y-85900D01*
X35691Y-86237D01*
X35635Y-86350D01*
X35578Y-86406D01*
X35466Y-86462D01*
X35297Y-86462D01*
X36366Y-86462D02*
X36253Y-86406D01*
X36197Y-86294D01*
X36197Y-85281D01*
X37266Y-86406D02*
X37153Y-86462D01*
X36928Y-86462D01*
X36816Y-86406D01*
X36759Y-86294D01*
X36759Y-85844D01*
X36816Y-85731D01*
X36928Y-85675D01*
X37153Y-85675D01*
X37266Y-85731D01*
X37322Y-85844D01*
X37322Y-85956D01*
X36759Y-86069D01*
X37772Y-86406D02*
X37884Y-86462D01*
X38109Y-86462D01*
X38222Y-86406D01*
X38278Y-86294D01*
X38278Y-86237D01*
X38222Y-86125D01*
X38109Y-86069D01*
X37941Y-86069D01*
X37828Y-86012D01*
X37772Y-85900D01*
X37772Y-85844D01*
X37828Y-85731D01*
X37941Y-85675D01*
X38109Y-85675D01*
X38222Y-85731D01*
X38672Y-86912D02*
X38728Y-86856D01*
X38840Y-86687D01*
X38897Y-86575D01*
X38953Y-86406D01*
X39009Y-86125D01*
X39009Y-85900D01*
X38953Y-85619D01*
X38897Y-85450D01*
X38840Y-85338D01*
X38728Y-85169D01*
X38672Y-85113D01*
X11813Y-87287D02*
X11813Y-87799D01*
X11557Y-87543D02*
X12069Y-87543D01*
G54D12*
X11994Y-87724D02*
X11994Y-87362D01*
X11632Y-87362D01*
X11632Y-87724D01*
X11994Y-87724D01*
G54D13*
X13756Y-88021D02*
X13081Y-88021D01*
X13419Y-88021D02*
X13419Y-86840D01*
X13306Y-87009D01*
X13194Y-87122D01*
X13081Y-87178D01*
X14262Y-87909D02*
X14319Y-87965D01*
X14262Y-88021D01*
X14206Y-87965D01*
X14262Y-87909D01*
X14262Y-88021D01*
X14712Y-86840D02*
X15443Y-86840D01*
X15050Y-87290D01*
X15218Y-87290D01*
X15331Y-87347D01*
X15387Y-87403D01*
X15443Y-87515D01*
X15443Y-87796D01*
X15387Y-87909D01*
X15331Y-87965D01*
X15218Y-88021D01*
X14881Y-88021D01*
X14768Y-87965D01*
X14712Y-87909D01*
X16175Y-86840D02*
X16287Y-86840D01*
X16400Y-86897D01*
X16456Y-86953D01*
X16512Y-87065D01*
X16568Y-87290D01*
X16568Y-87571D01*
X16512Y-87796D01*
X16456Y-87909D01*
X16400Y-87965D01*
X16287Y-88021D01*
X16175Y-88021D01*
X16062Y-87965D01*
X16006Y-87909D01*
X15950Y-87796D01*
X15893Y-87571D01*
X15893Y-87290D01*
X15950Y-87065D01*
X16006Y-86953D01*
X16062Y-86897D01*
X16175Y-86840D01*
X17074Y-88021D02*
X17074Y-87234D01*
X17074Y-87347D02*
X17131Y-87290D01*
X17243Y-87234D01*
X17412Y-87234D01*
X17524Y-87290D01*
X17581Y-87403D01*
X17581Y-88021D01*
X17581Y-87403D02*
X17637Y-87290D01*
X17749Y-87234D01*
X17918Y-87234D01*
X18031Y-87290D01*
X18087Y-87403D01*
X18087Y-88021D01*
X18649Y-88021D02*
X18649Y-87234D01*
X18649Y-87347D02*
X18705Y-87290D01*
X18818Y-87234D01*
X18987Y-87234D01*
X19099Y-87290D01*
X19155Y-87403D01*
X19155Y-88021D01*
X19155Y-87403D02*
X19212Y-87290D01*
X19324Y-87234D01*
X19493Y-87234D01*
X19605Y-87290D01*
X19662Y-87403D01*
X19662Y-88021D01*
X21968Y-86784D02*
X20955Y-88303D01*
X23486Y-86840D02*
X23599Y-86840D01*
X23711Y-86897D01*
X23767Y-86953D01*
X23824Y-87065D01*
X23880Y-87290D01*
X23880Y-87571D01*
X23824Y-87796D01*
X23767Y-87909D01*
X23711Y-87965D01*
X23599Y-88021D01*
X23486Y-88021D01*
X23374Y-87965D01*
X23317Y-87909D01*
X23261Y-87796D01*
X23205Y-87571D01*
X23205Y-87290D01*
X23261Y-87065D01*
X23317Y-86953D01*
X23374Y-86897D01*
X23486Y-86840D01*
X24386Y-87909D02*
X24442Y-87965D01*
X24386Y-88021D01*
X24330Y-87965D01*
X24386Y-87909D01*
X24386Y-88021D01*
X25173Y-86840D02*
X25286Y-86840D01*
X25398Y-86897D01*
X25455Y-86953D01*
X25511Y-87065D01*
X25567Y-87290D01*
X25567Y-87571D01*
X25511Y-87796D01*
X25455Y-87909D01*
X25398Y-87965D01*
X25286Y-88021D01*
X25173Y-88021D01*
X25061Y-87965D01*
X25005Y-87909D01*
X24948Y-87796D01*
X24892Y-87571D01*
X24892Y-87290D01*
X24948Y-87065D01*
X25005Y-86953D01*
X25061Y-86897D01*
X25173Y-86840D01*
X26636Y-86840D02*
X26073Y-86840D01*
X26017Y-87403D01*
X26073Y-87347D01*
X26186Y-87290D01*
X26467Y-87290D01*
X26579Y-87347D01*
X26636Y-87403D01*
X26692Y-87515D01*
X26692Y-87796D01*
X26636Y-87909D01*
X26579Y-87965D01*
X26467Y-88021D01*
X26186Y-88021D01*
X26073Y-87965D01*
X26017Y-87909D01*
X27817Y-88021D02*
X27142Y-88021D01*
X27479Y-88021D02*
X27479Y-86840D01*
X27367Y-87009D01*
X27254Y-87122D01*
X27142Y-87178D01*
X28267Y-86840D02*
X28267Y-87065D01*
X28717Y-86840D02*
X28717Y-87065D01*
X30460Y-88471D02*
X30404Y-88415D01*
X30292Y-88246D01*
X30235Y-88134D01*
X30179Y-87965D01*
X30123Y-87684D01*
X30123Y-87459D01*
X30179Y-87178D01*
X30235Y-87009D01*
X30292Y-86897D01*
X30404Y-86728D01*
X30460Y-86672D01*
X30854Y-86953D02*
X30910Y-86897D01*
X31023Y-86840D01*
X31304Y-86840D01*
X31416Y-86897D01*
X31473Y-86953D01*
X31529Y-87065D01*
X31529Y-87178D01*
X31473Y-87347D01*
X30798Y-88021D01*
X31529Y-88021D01*
X31923Y-86840D02*
X32654Y-86840D01*
X32260Y-87290D01*
X32429Y-87290D01*
X32541Y-87347D01*
X32597Y-87403D01*
X32654Y-87515D01*
X32654Y-87796D01*
X32597Y-87909D01*
X32541Y-87965D01*
X32429Y-88021D01*
X32091Y-88021D01*
X31979Y-87965D01*
X31923Y-87909D01*
X34060Y-88021D02*
X34060Y-86840D01*
X34566Y-88021D02*
X34566Y-87403D01*
X34510Y-87290D01*
X34397Y-87234D01*
X34229Y-87234D01*
X34116Y-87290D01*
X34060Y-87347D01*
X35297Y-88021D02*
X35185Y-87965D01*
X35128Y-87909D01*
X35072Y-87796D01*
X35072Y-87459D01*
X35128Y-87347D01*
X35185Y-87290D01*
X35297Y-87234D01*
X35466Y-87234D01*
X35578Y-87290D01*
X35635Y-87347D01*
X35691Y-87459D01*
X35691Y-87796D01*
X35635Y-87909D01*
X35578Y-87965D01*
X35466Y-88021D01*
X35297Y-88021D01*
X36366Y-88021D02*
X36253Y-87965D01*
X36197Y-87853D01*
X36197Y-86840D01*
X37266Y-87965D02*
X37153Y-88021D01*
X36928Y-88021D01*
X36816Y-87965D01*
X36759Y-87853D01*
X36759Y-87403D01*
X36816Y-87290D01*
X36928Y-87234D01*
X37153Y-87234D01*
X37266Y-87290D01*
X37322Y-87403D01*
X37322Y-87515D01*
X36759Y-87628D01*
X37772Y-87965D02*
X37884Y-88021D01*
X38109Y-88021D01*
X38222Y-87965D01*
X38278Y-87853D01*
X38278Y-87796D01*
X38222Y-87684D01*
X38109Y-87628D01*
X37941Y-87628D01*
X37828Y-87571D01*
X37772Y-87459D01*
X37772Y-87403D01*
X37828Y-87290D01*
X37941Y-87234D01*
X38109Y-87234D01*
X38222Y-87290D01*
X38672Y-88471D02*
X38728Y-88415D01*
X38840Y-88246D01*
X38897Y-88134D01*
X38953Y-87965D01*
X39009Y-87684D01*
X39009Y-87459D01*
X38953Y-87178D01*
X38897Y-87009D01*
X38840Y-86897D01*
X38728Y-86728D01*
X38672Y-86672D01*
X11774Y-88807D02*
X11774Y-89398D01*
X11478Y-89102D02*
X12069Y-89102D01*
G54D12*
X11774Y-89398D02*
X12069Y-89102D01*
X11774Y-88807D01*
X11478Y-89102D01*
X11774Y-89398D01*
G54D13*
X13756Y-89580D02*
X13081Y-89580D01*
X13419Y-89580D02*
X13419Y-88399D01*
X13306Y-88568D01*
X13194Y-88681D01*
X13081Y-88737D01*
X14262Y-89468D02*
X14319Y-89524D01*
X14262Y-89580D01*
X14206Y-89524D01*
X14262Y-89468D01*
X14262Y-89580D01*
X15387Y-88399D02*
X14825Y-88399D01*
X14768Y-88962D01*
X14825Y-88906D01*
X14937Y-88849D01*
X15218Y-88849D01*
X15331Y-88906D01*
X15387Y-88962D01*
X15443Y-89074D01*
X15443Y-89356D01*
X15387Y-89468D01*
X15331Y-89524D01*
X15218Y-89580D01*
X14937Y-89580D01*
X14825Y-89524D01*
X14768Y-89468D01*
X16175Y-88399D02*
X16287Y-88399D01*
X16400Y-88456D01*
X16456Y-88512D01*
X16512Y-88624D01*
X16568Y-88849D01*
X16568Y-89131D01*
X16512Y-89356D01*
X16456Y-89468D01*
X16400Y-89524D01*
X16287Y-89580D01*
X16175Y-89580D01*
X16062Y-89524D01*
X16006Y-89468D01*
X15950Y-89356D01*
X15893Y-89131D01*
X15893Y-88849D01*
X15950Y-88624D01*
X16006Y-88512D01*
X16062Y-88456D01*
X16175Y-88399D01*
X17074Y-89580D02*
X17074Y-88793D01*
X17074Y-88906D02*
X17131Y-88849D01*
X17243Y-88793D01*
X17412Y-88793D01*
X17524Y-88849D01*
X17581Y-88962D01*
X17581Y-89580D01*
X17581Y-88962D02*
X17637Y-88849D01*
X17749Y-88793D01*
X17918Y-88793D01*
X18031Y-88849D01*
X18087Y-88962D01*
X18087Y-89580D01*
X18649Y-89580D02*
X18649Y-88793D01*
X18649Y-88906D02*
X18705Y-88849D01*
X18818Y-88793D01*
X18987Y-88793D01*
X19099Y-88849D01*
X19155Y-88962D01*
X19155Y-89580D01*
X19155Y-88962D02*
X19212Y-88849D01*
X19324Y-88793D01*
X19493Y-88793D01*
X19605Y-88849D01*
X19662Y-88962D01*
X19662Y-89580D01*
X21968Y-88343D02*
X20955Y-89862D01*
X23486Y-88399D02*
X23599Y-88399D01*
X23711Y-88456D01*
X23767Y-88512D01*
X23824Y-88624D01*
X23880Y-88849D01*
X23880Y-89131D01*
X23824Y-89356D01*
X23767Y-89468D01*
X23711Y-89524D01*
X23599Y-89580D01*
X23486Y-89580D01*
X23374Y-89524D01*
X23317Y-89468D01*
X23261Y-89356D01*
X23205Y-89131D01*
X23205Y-88849D01*
X23261Y-88624D01*
X23317Y-88512D01*
X23374Y-88456D01*
X23486Y-88399D01*
X24386Y-89468D02*
X24442Y-89524D01*
X24386Y-89580D01*
X24330Y-89524D01*
X24386Y-89468D01*
X24386Y-89580D01*
X25173Y-88399D02*
X25286Y-88399D01*
X25398Y-88456D01*
X25455Y-88512D01*
X25511Y-88624D01*
X25567Y-88849D01*
X25567Y-89131D01*
X25511Y-89356D01*
X25455Y-89468D01*
X25398Y-89524D01*
X25286Y-89580D01*
X25173Y-89580D01*
X25061Y-89524D01*
X25005Y-89468D01*
X24948Y-89356D01*
X24892Y-89131D01*
X24892Y-88849D01*
X24948Y-88624D01*
X25005Y-88512D01*
X25061Y-88456D01*
X25173Y-88399D01*
X26636Y-88399D02*
X26073Y-88399D01*
X26017Y-88962D01*
X26073Y-88906D01*
X26186Y-88849D01*
X26467Y-88849D01*
X26579Y-88906D01*
X26636Y-88962D01*
X26692Y-89074D01*
X26692Y-89356D01*
X26636Y-89468D01*
X26579Y-89524D01*
X26467Y-89580D01*
X26186Y-89580D01*
X26073Y-89524D01*
X26017Y-89468D01*
X27254Y-89580D02*
X27479Y-89580D01*
X27592Y-89524D01*
X27648Y-89468D01*
X27761Y-89299D01*
X27817Y-89074D01*
X27817Y-88624D01*
X27761Y-88512D01*
X27704Y-88456D01*
X27592Y-88399D01*
X27367Y-88399D01*
X27254Y-88456D01*
X27198Y-88512D01*
X27142Y-88624D01*
X27142Y-88906D01*
X27198Y-89018D01*
X27254Y-89074D01*
X27367Y-89131D01*
X27592Y-89131D01*
X27704Y-89074D01*
X27761Y-89018D01*
X27817Y-88906D01*
X28267Y-88399D02*
X28267Y-88624D01*
X28717Y-88399D02*
X28717Y-88624D01*
X30460Y-90030D02*
X30404Y-89974D01*
X30292Y-89805D01*
X30235Y-89693D01*
X30179Y-89524D01*
X30123Y-89243D01*
X30123Y-89018D01*
X30179Y-88737D01*
X30235Y-88568D01*
X30292Y-88456D01*
X30404Y-88287D01*
X30460Y-88231D01*
X31529Y-89580D02*
X30854Y-89580D01*
X31191Y-89580D02*
X31191Y-88399D01*
X31079Y-88568D01*
X30966Y-88681D01*
X30854Y-88737D01*
X31979Y-88512D02*
X32035Y-88456D01*
X32148Y-88399D01*
X32429Y-88399D01*
X32541Y-88456D01*
X32597Y-88512D01*
X32654Y-88624D01*
X32654Y-88737D01*
X32597Y-88906D01*
X31923Y-89580D01*
X32654Y-89580D01*
X34060Y-89580D02*
X34060Y-88399D01*
X34566Y-89580D02*
X34566Y-88962D01*
X34510Y-88849D01*
X34397Y-88793D01*
X34229Y-88793D01*
X34116Y-88849D01*
X34060Y-88906D01*
X35297Y-89580D02*
X35185Y-89524D01*
X35128Y-89468D01*
X35072Y-89356D01*
X35072Y-89018D01*
X35128Y-88906D01*
X35185Y-88849D01*
X35297Y-88793D01*
X35466Y-88793D01*
X35578Y-88849D01*
X35635Y-88906D01*
X35691Y-89018D01*
X35691Y-89356D01*
X35635Y-89468D01*
X35578Y-89524D01*
X35466Y-89580D01*
X35297Y-89580D01*
X36366Y-89580D02*
X36253Y-89524D01*
X36197Y-89412D01*
X36197Y-88399D01*
X37266Y-89524D02*
X37153Y-89580D01*
X36928Y-89580D01*
X36816Y-89524D01*
X36759Y-89412D01*
X36759Y-88962D01*
X36816Y-88849D01*
X36928Y-88793D01*
X37153Y-88793D01*
X37266Y-88849D01*
X37322Y-88962D01*
X37322Y-89074D01*
X36759Y-89187D01*
X37772Y-89524D02*
X37884Y-89580D01*
X38109Y-89580D01*
X38222Y-89524D01*
X38278Y-89412D01*
X38278Y-89356D01*
X38222Y-89243D01*
X38109Y-89187D01*
X37941Y-89187D01*
X37828Y-89131D01*
X37772Y-89018D01*
X37772Y-88962D01*
X37828Y-88849D01*
X37941Y-88793D01*
X38109Y-88793D01*
X38222Y-88849D01*
X38672Y-90030D02*
X38728Y-89974D01*
X38840Y-89805D01*
X38897Y-89693D01*
X38953Y-89524D01*
X39009Y-89243D01*
X39009Y-89018D01*
X38953Y-88737D01*
X38897Y-88568D01*
X38840Y-88456D01*
X38728Y-88287D01*
X38672Y-88231D01*
G54D12*
X11754Y-90976D02*
X12069Y-90661D01*
X11754Y-90347D01*
X11439Y-90661D01*
X11754Y-90976D01*
X11977Y-90884D02*
X11977Y-90439D01*
X11531Y-90439D01*
X11531Y-90884D01*
X11977Y-90884D01*
G54D13*
X13756Y-91140D02*
X13081Y-91140D01*
X13419Y-91140D02*
X13419Y-89958D01*
X13306Y-90127D01*
X13194Y-90240D01*
X13081Y-90296D01*
X14262Y-91027D02*
X14319Y-91083D01*
X14262Y-91140D01*
X14206Y-91083D01*
X14262Y-91027D01*
X14262Y-91140D01*
X15331Y-89958D02*
X15106Y-89958D01*
X14993Y-90015D01*
X14937Y-90071D01*
X14825Y-90240D01*
X14768Y-90465D01*
X14768Y-90915D01*
X14825Y-91027D01*
X14881Y-91083D01*
X14993Y-91140D01*
X15218Y-91140D01*
X15331Y-91083D01*
X15387Y-91027D01*
X15443Y-90915D01*
X15443Y-90633D01*
X15387Y-90521D01*
X15331Y-90465D01*
X15218Y-90408D01*
X14993Y-90408D01*
X14881Y-90465D01*
X14825Y-90521D01*
X14768Y-90633D01*
X16175Y-89958D02*
X16287Y-89958D01*
X16400Y-90015D01*
X16456Y-90071D01*
X16512Y-90183D01*
X16568Y-90408D01*
X16568Y-90690D01*
X16512Y-90915D01*
X16456Y-91027D01*
X16400Y-91083D01*
X16287Y-91140D01*
X16175Y-91140D01*
X16062Y-91083D01*
X16006Y-91027D01*
X15950Y-90915D01*
X15893Y-90690D01*
X15893Y-90408D01*
X15950Y-90183D01*
X16006Y-90071D01*
X16062Y-90015D01*
X16175Y-89958D01*
X17074Y-91140D02*
X17074Y-90352D01*
X17074Y-90465D02*
X17131Y-90408D01*
X17243Y-90352D01*
X17412Y-90352D01*
X17524Y-90408D01*
X17581Y-90521D01*
X17581Y-91140D01*
X17581Y-90521D02*
X17637Y-90408D01*
X17749Y-90352D01*
X17918Y-90352D01*
X18031Y-90408D01*
X18087Y-90521D01*
X18087Y-91140D01*
X18649Y-91140D02*
X18649Y-90352D01*
X18649Y-90465D02*
X18705Y-90408D01*
X18818Y-90352D01*
X18987Y-90352D01*
X19099Y-90408D01*
X19155Y-90521D01*
X19155Y-91140D01*
X19155Y-90521D02*
X19212Y-90408D01*
X19324Y-90352D01*
X19493Y-90352D01*
X19605Y-90408D01*
X19662Y-90521D01*
X19662Y-91140D01*
X21968Y-89902D02*
X20955Y-91421D01*
X23486Y-89958D02*
X23599Y-89958D01*
X23711Y-90015D01*
X23767Y-90071D01*
X23824Y-90183D01*
X23880Y-90408D01*
X23880Y-90690D01*
X23824Y-90915D01*
X23767Y-91027D01*
X23711Y-91083D01*
X23599Y-91140D01*
X23486Y-91140D01*
X23374Y-91083D01*
X23317Y-91027D01*
X23261Y-90915D01*
X23205Y-90690D01*
X23205Y-90408D01*
X23261Y-90183D01*
X23317Y-90071D01*
X23374Y-90015D01*
X23486Y-89958D01*
X24386Y-91027D02*
X24442Y-91083D01*
X24386Y-91140D01*
X24330Y-91083D01*
X24386Y-91027D01*
X24386Y-91140D01*
X25173Y-89958D02*
X25286Y-89958D01*
X25398Y-90015D01*
X25455Y-90071D01*
X25511Y-90183D01*
X25567Y-90408D01*
X25567Y-90690D01*
X25511Y-90915D01*
X25455Y-91027D01*
X25398Y-91083D01*
X25286Y-91140D01*
X25173Y-91140D01*
X25061Y-91083D01*
X25005Y-91027D01*
X24948Y-90915D01*
X24892Y-90690D01*
X24892Y-90408D01*
X24948Y-90183D01*
X25005Y-90071D01*
X25061Y-90015D01*
X25173Y-89958D01*
X26579Y-89958D02*
X26355Y-89958D01*
X26242Y-90015D01*
X26186Y-90071D01*
X26073Y-90240D01*
X26017Y-90465D01*
X26017Y-90915D01*
X26073Y-91027D01*
X26130Y-91083D01*
X26242Y-91140D01*
X26467Y-91140D01*
X26579Y-91083D01*
X26636Y-91027D01*
X26692Y-90915D01*
X26692Y-90633D01*
X26636Y-90521D01*
X26579Y-90465D01*
X26467Y-90408D01*
X26242Y-90408D01*
X26130Y-90465D01*
X26073Y-90521D01*
X26017Y-90633D01*
X27086Y-89958D02*
X27817Y-89958D01*
X27423Y-90408D01*
X27592Y-90408D01*
X27704Y-90465D01*
X27761Y-90521D01*
X27817Y-90633D01*
X27817Y-90915D01*
X27761Y-91027D01*
X27704Y-91083D01*
X27592Y-91140D01*
X27254Y-91140D01*
X27142Y-91083D01*
X27086Y-91027D01*
X28267Y-89958D02*
X28267Y-90183D01*
X28717Y-89958D02*
X28717Y-90183D01*
X30460Y-91589D02*
X30404Y-91533D01*
X30292Y-91365D01*
X30235Y-91252D01*
X30179Y-91083D01*
X30123Y-90802D01*
X30123Y-90577D01*
X30179Y-90296D01*
X30235Y-90127D01*
X30292Y-90015D01*
X30404Y-89846D01*
X30460Y-89790D01*
X31529Y-91140D02*
X30854Y-91140D01*
X31191Y-91140D02*
X31191Y-89958D01*
X31079Y-90127D01*
X30966Y-90240D01*
X30854Y-90296D01*
X32204Y-90465D02*
X32091Y-90408D01*
X32035Y-90352D01*
X31979Y-90240D01*
X31979Y-90183D01*
X32035Y-90071D01*
X32091Y-90015D01*
X32204Y-89958D01*
X32429Y-89958D01*
X32541Y-90015D01*
X32597Y-90071D01*
X32654Y-90183D01*
X32654Y-90240D01*
X32597Y-90352D01*
X32541Y-90408D01*
X32429Y-90465D01*
X32204Y-90465D01*
X32091Y-90521D01*
X32035Y-90577D01*
X31979Y-90690D01*
X31979Y-90915D01*
X32035Y-91027D01*
X32091Y-91083D01*
X32204Y-91140D01*
X32429Y-91140D01*
X32541Y-91083D01*
X32597Y-91027D01*
X32654Y-90915D01*
X32654Y-90690D01*
X32597Y-90577D01*
X32541Y-90521D01*
X32429Y-90465D01*
X34060Y-91140D02*
X34060Y-89958D01*
X34566Y-91140D02*
X34566Y-90521D01*
X34510Y-90408D01*
X34397Y-90352D01*
X34229Y-90352D01*
X34116Y-90408D01*
X34060Y-90465D01*
X35297Y-91140D02*
X35185Y-91083D01*
X35128Y-91027D01*
X35072Y-90915D01*
X35072Y-90577D01*
X35128Y-90465D01*
X35185Y-90408D01*
X35297Y-90352D01*
X35466Y-90352D01*
X35578Y-90408D01*
X35635Y-90465D01*
X35691Y-90577D01*
X35691Y-90915D01*
X35635Y-91027D01*
X35578Y-91083D01*
X35466Y-91140D01*
X35297Y-91140D01*
X36366Y-91140D02*
X36253Y-91083D01*
X36197Y-90971D01*
X36197Y-89958D01*
X37266Y-91083D02*
X37153Y-91140D01*
X36928Y-91140D01*
X36816Y-91083D01*
X36759Y-90971D01*
X36759Y-90521D01*
X36816Y-90408D01*
X36928Y-90352D01*
X37153Y-90352D01*
X37266Y-90408D01*
X37322Y-90521D01*
X37322Y-90633D01*
X36759Y-90746D01*
X37772Y-91083D02*
X37884Y-91140D01*
X38109Y-91140D01*
X38222Y-91083D01*
X38278Y-90971D01*
X38278Y-90915D01*
X38222Y-90802D01*
X38109Y-90746D01*
X37941Y-90746D01*
X37828Y-90690D01*
X37772Y-90577D01*
X37772Y-90521D01*
X37828Y-90408D01*
X37941Y-90352D01*
X38109Y-90352D01*
X38222Y-90408D01*
X38672Y-91589D02*
X38728Y-91533D01*
X38840Y-91365D01*
X38897Y-91252D01*
X38953Y-91083D01*
X39009Y-90802D01*
X39009Y-90577D01*
X38953Y-90296D01*
X38897Y-90127D01*
X38840Y-90015D01*
X38728Y-89846D01*
X38672Y-89790D01*
X11360Y-91866D02*
X12069Y-92575D01*
X12069Y-91866D02*
X11360Y-92575D01*
X11714Y-91866D02*
X11714Y-92575D01*
X11360Y-92221D02*
X12069Y-92221D01*
G54D12*
X12069Y-92221D02*
G75*
G03X12069Y-92221I-354J0D01*
G74*
G01*
G54D13*
X13756Y-92699D02*
X13081Y-92699D01*
X13419Y-92699D02*
X13419Y-91517D01*
X13306Y-91686D01*
X13194Y-91799D01*
X13081Y-91855D01*
X14262Y-92586D02*
X14319Y-92642D01*
X14262Y-92699D01*
X14206Y-92642D01*
X14262Y-92586D01*
X14262Y-92699D01*
X14993Y-92024D02*
X14881Y-91967D01*
X14825Y-91911D01*
X14768Y-91799D01*
X14768Y-91742D01*
X14825Y-91630D01*
X14881Y-91574D01*
X14993Y-91517D01*
X15218Y-91517D01*
X15331Y-91574D01*
X15387Y-91630D01*
X15443Y-91742D01*
X15443Y-91799D01*
X15387Y-91911D01*
X15331Y-91967D01*
X15218Y-92024D01*
X14993Y-92024D01*
X14881Y-92080D01*
X14825Y-92136D01*
X14768Y-92249D01*
X14768Y-92474D01*
X14825Y-92586D01*
X14881Y-92642D01*
X14993Y-92699D01*
X15218Y-92699D01*
X15331Y-92642D01*
X15387Y-92586D01*
X15443Y-92474D01*
X15443Y-92249D01*
X15387Y-92136D01*
X15331Y-92080D01*
X15218Y-92024D01*
X16175Y-91517D02*
X16287Y-91517D01*
X16400Y-91574D01*
X16456Y-91630D01*
X16512Y-91742D01*
X16568Y-91967D01*
X16568Y-92249D01*
X16512Y-92474D01*
X16456Y-92586D01*
X16400Y-92642D01*
X16287Y-92699D01*
X16175Y-92699D01*
X16062Y-92642D01*
X16006Y-92586D01*
X15950Y-92474D01*
X15893Y-92249D01*
X15893Y-91967D01*
X15950Y-91742D01*
X16006Y-91630D01*
X16062Y-91574D01*
X16175Y-91517D01*
X17074Y-92699D02*
X17074Y-91911D01*
X17074Y-92024D02*
X17131Y-91967D01*
X17243Y-91911D01*
X17412Y-91911D01*
X17524Y-91967D01*
X17581Y-92080D01*
X17581Y-92699D01*
X17581Y-92080D02*
X17637Y-91967D01*
X17749Y-91911D01*
X17918Y-91911D01*
X18031Y-91967D01*
X18087Y-92080D01*
X18087Y-92699D01*
X18649Y-92699D02*
X18649Y-91911D01*
X18649Y-92024D02*
X18705Y-91967D01*
X18818Y-91911D01*
X18987Y-91911D01*
X19099Y-91967D01*
X19155Y-92080D01*
X19155Y-92699D01*
X19155Y-92080D02*
X19212Y-91967D01*
X19324Y-91911D01*
X19493Y-91911D01*
X19605Y-91967D01*
X19662Y-92080D01*
X19662Y-92699D01*
X21968Y-91461D02*
X20955Y-92980D01*
X23486Y-91517D02*
X23599Y-91517D01*
X23711Y-91574D01*
X23767Y-91630D01*
X23824Y-91742D01*
X23880Y-91967D01*
X23880Y-92249D01*
X23824Y-92474D01*
X23767Y-92586D01*
X23711Y-92642D01*
X23599Y-92699D01*
X23486Y-92699D01*
X23374Y-92642D01*
X23317Y-92586D01*
X23261Y-92474D01*
X23205Y-92249D01*
X23205Y-91967D01*
X23261Y-91742D01*
X23317Y-91630D01*
X23374Y-91574D01*
X23486Y-91517D01*
X24386Y-92586D02*
X24442Y-92642D01*
X24386Y-92699D01*
X24330Y-92642D01*
X24386Y-92586D01*
X24386Y-92699D01*
X25173Y-91517D02*
X25286Y-91517D01*
X25398Y-91574D01*
X25455Y-91630D01*
X25511Y-91742D01*
X25567Y-91967D01*
X25567Y-92249D01*
X25511Y-92474D01*
X25455Y-92586D01*
X25398Y-92642D01*
X25286Y-92699D01*
X25173Y-92699D01*
X25061Y-92642D01*
X25005Y-92586D01*
X24948Y-92474D01*
X24892Y-92249D01*
X24892Y-91967D01*
X24948Y-91742D01*
X25005Y-91630D01*
X25061Y-91574D01*
X25173Y-91517D01*
X25961Y-91517D02*
X26748Y-91517D01*
X26242Y-92699D01*
X27817Y-92699D02*
X27142Y-92699D01*
X27479Y-92699D02*
X27479Y-91517D01*
X27367Y-91686D01*
X27254Y-91799D01*
X27142Y-91855D01*
X28267Y-91517D02*
X28267Y-91742D01*
X28717Y-91517D02*
X28717Y-91742D01*
X30460Y-93149D02*
X30404Y-93092D01*
X30292Y-92924D01*
X30235Y-92811D01*
X30179Y-92642D01*
X30123Y-92361D01*
X30123Y-92136D01*
X30179Y-91855D01*
X30235Y-91686D01*
X30292Y-91574D01*
X30404Y-91405D01*
X30460Y-91349D01*
X31529Y-92699D02*
X30854Y-92699D01*
X31191Y-92699D02*
X31191Y-91517D01*
X31079Y-91686D01*
X30966Y-91799D01*
X30854Y-91855D01*
X32541Y-91517D02*
X32316Y-91517D01*
X32204Y-91574D01*
X32148Y-91630D01*
X32035Y-91799D01*
X31979Y-92024D01*
X31979Y-92474D01*
X32035Y-92586D01*
X32091Y-92642D01*
X32204Y-92699D01*
X32429Y-92699D01*
X32541Y-92642D01*
X32597Y-92586D01*
X32654Y-92474D01*
X32654Y-92192D01*
X32597Y-92080D01*
X32541Y-92024D01*
X32429Y-91967D01*
X32204Y-91967D01*
X32091Y-92024D01*
X32035Y-92080D01*
X31979Y-92192D01*
X34060Y-92699D02*
X34060Y-91517D01*
X34566Y-92699D02*
X34566Y-92080D01*
X34510Y-91967D01*
X34397Y-91911D01*
X34229Y-91911D01*
X34116Y-91967D01*
X34060Y-92024D01*
X35297Y-92699D02*
X35185Y-92642D01*
X35128Y-92586D01*
X35072Y-92474D01*
X35072Y-92136D01*
X35128Y-92024D01*
X35185Y-91967D01*
X35297Y-91911D01*
X35466Y-91911D01*
X35578Y-91967D01*
X35635Y-92024D01*
X35691Y-92136D01*
X35691Y-92474D01*
X35635Y-92586D01*
X35578Y-92642D01*
X35466Y-92699D01*
X35297Y-92699D01*
X36366Y-92699D02*
X36253Y-92642D01*
X36197Y-92530D01*
X36197Y-91517D01*
X37266Y-92642D02*
X37153Y-92699D01*
X36928Y-92699D01*
X36816Y-92642D01*
X36759Y-92530D01*
X36759Y-92080D01*
X36816Y-91967D01*
X36928Y-91911D01*
X37153Y-91911D01*
X37266Y-91967D01*
X37322Y-92080D01*
X37322Y-92192D01*
X36759Y-92305D01*
X37772Y-92642D02*
X37884Y-92699D01*
X38109Y-92699D01*
X38222Y-92642D01*
X38278Y-92530D01*
X38278Y-92474D01*
X38222Y-92361D01*
X38109Y-92305D01*
X37941Y-92305D01*
X37828Y-92249D01*
X37772Y-92136D01*
X37772Y-92080D01*
X37828Y-91967D01*
X37941Y-91911D01*
X38109Y-91911D01*
X38222Y-91967D01*
X38672Y-93149D02*
X38728Y-93092D01*
X38840Y-92924D01*
X38897Y-92811D01*
X38953Y-92642D01*
X39009Y-92361D01*
X39009Y-92136D01*
X38953Y-91855D01*
X38897Y-91686D01*
X38840Y-91574D01*
X38728Y-91405D01*
X38672Y-91349D01*
X11281Y-93386D02*
X12069Y-94173D01*
X12069Y-93386D02*
X11281Y-94173D01*
G54D12*
X11953Y-94058D02*
X11953Y-93501D01*
X11397Y-93501D01*
X11397Y-94058D01*
X11953Y-94058D01*
X12069Y-93780D02*
G75*
G03X12069Y-93780I-393J0D01*
G74*
G01*
G54D13*
X13081Y-93189D02*
X13137Y-93133D01*
X13250Y-93077D01*
X13531Y-93077D01*
X13644Y-93133D01*
X13700Y-93189D01*
X13756Y-93302D01*
X13756Y-93414D01*
X13700Y-93583D01*
X13025Y-94258D01*
X13756Y-94258D01*
X14262Y-94145D02*
X14319Y-94201D01*
X14262Y-94258D01*
X14206Y-94201D01*
X14262Y-94145D01*
X14262Y-94258D01*
X15050Y-93077D02*
X15162Y-93077D01*
X15275Y-93133D01*
X15331Y-93189D01*
X15387Y-93302D01*
X15443Y-93526D01*
X15443Y-93808D01*
X15387Y-94033D01*
X15331Y-94145D01*
X15275Y-94201D01*
X15162Y-94258D01*
X15050Y-94258D01*
X14937Y-94201D01*
X14881Y-94145D01*
X14825Y-94033D01*
X14768Y-93808D01*
X14768Y-93526D01*
X14825Y-93302D01*
X14881Y-93189D01*
X14937Y-93133D01*
X15050Y-93077D01*
X16175Y-93077D02*
X16287Y-93077D01*
X16400Y-93133D01*
X16456Y-93189D01*
X16512Y-93302D01*
X16568Y-93526D01*
X16568Y-93808D01*
X16512Y-94033D01*
X16456Y-94145D01*
X16400Y-94201D01*
X16287Y-94258D01*
X16175Y-94258D01*
X16062Y-94201D01*
X16006Y-94145D01*
X15950Y-94033D01*
X15893Y-93808D01*
X15893Y-93526D01*
X15950Y-93302D01*
X16006Y-93189D01*
X16062Y-93133D01*
X16175Y-93077D01*
X17074Y-94258D02*
X17074Y-93470D01*
X17074Y-93583D02*
X17131Y-93526D01*
X17243Y-93470D01*
X17412Y-93470D01*
X17524Y-93526D01*
X17581Y-93639D01*
X17581Y-94258D01*
X17581Y-93639D02*
X17637Y-93526D01*
X17749Y-93470D01*
X17918Y-93470D01*
X18031Y-93526D01*
X18087Y-93639D01*
X18087Y-94258D01*
X18649Y-94258D02*
X18649Y-93470D01*
X18649Y-93583D02*
X18705Y-93526D01*
X18818Y-93470D01*
X18987Y-93470D01*
X19099Y-93526D01*
X19155Y-93639D01*
X19155Y-94258D01*
X19155Y-93639D02*
X19212Y-93526D01*
X19324Y-93470D01*
X19493Y-93470D01*
X19605Y-93526D01*
X19662Y-93639D01*
X19662Y-94258D01*
X21968Y-93020D02*
X20955Y-94539D01*
X23486Y-93077D02*
X23599Y-93077D01*
X23711Y-93133D01*
X23767Y-93189D01*
X23824Y-93302D01*
X23880Y-93526D01*
X23880Y-93808D01*
X23824Y-94033D01*
X23767Y-94145D01*
X23711Y-94201D01*
X23599Y-94258D01*
X23486Y-94258D01*
X23374Y-94201D01*
X23317Y-94145D01*
X23261Y-94033D01*
X23205Y-93808D01*
X23205Y-93526D01*
X23261Y-93302D01*
X23317Y-93189D01*
X23374Y-93133D01*
X23486Y-93077D01*
X24386Y-94145D02*
X24442Y-94201D01*
X24386Y-94258D01*
X24330Y-94201D01*
X24386Y-94145D01*
X24386Y-94258D01*
X25173Y-93077D02*
X25286Y-93077D01*
X25398Y-93133D01*
X25455Y-93189D01*
X25511Y-93302D01*
X25567Y-93526D01*
X25567Y-93808D01*
X25511Y-94033D01*
X25455Y-94145D01*
X25398Y-94201D01*
X25286Y-94258D01*
X25173Y-94258D01*
X25061Y-94201D01*
X25005Y-94145D01*
X24948Y-94033D01*
X24892Y-93808D01*
X24892Y-93526D01*
X24948Y-93302D01*
X25005Y-93189D01*
X25061Y-93133D01*
X25173Y-93077D01*
X25961Y-93077D02*
X26748Y-93077D01*
X26242Y-94258D01*
X27254Y-94258D02*
X27479Y-94258D01*
X27592Y-94201D01*
X27648Y-94145D01*
X27761Y-93976D01*
X27817Y-93751D01*
X27817Y-93302D01*
X27761Y-93189D01*
X27704Y-93133D01*
X27592Y-93077D01*
X27367Y-93077D01*
X27254Y-93133D01*
X27198Y-93189D01*
X27142Y-93302D01*
X27142Y-93583D01*
X27198Y-93695D01*
X27254Y-93751D01*
X27367Y-93808D01*
X27592Y-93808D01*
X27704Y-93751D01*
X27761Y-93695D01*
X27817Y-93583D01*
X28267Y-93077D02*
X28267Y-93302D01*
X28717Y-93077D02*
X28717Y-93302D01*
X30460Y-94708D02*
X30404Y-94651D01*
X30292Y-94483D01*
X30235Y-94370D01*
X30179Y-94201D01*
X30123Y-93920D01*
X30123Y-93695D01*
X30179Y-93414D01*
X30235Y-93245D01*
X30292Y-93133D01*
X30404Y-92964D01*
X30460Y-92908D01*
X30854Y-93189D02*
X30910Y-93133D01*
X31023Y-93077D01*
X31304Y-93077D01*
X31416Y-93133D01*
X31473Y-93189D01*
X31529Y-93302D01*
X31529Y-93414D01*
X31473Y-93583D01*
X30798Y-94258D01*
X31529Y-94258D01*
X32935Y-94258D02*
X32935Y-93077D01*
X33441Y-94258D02*
X33441Y-93639D01*
X33385Y-93526D01*
X33272Y-93470D01*
X33104Y-93470D01*
X32991Y-93526D01*
X32935Y-93583D01*
X34172Y-94258D02*
X34060Y-94201D01*
X34004Y-94145D01*
X33947Y-94033D01*
X33947Y-93695D01*
X34004Y-93583D01*
X34060Y-93526D01*
X34172Y-93470D01*
X34341Y-93470D01*
X34454Y-93526D01*
X34510Y-93583D01*
X34566Y-93695D01*
X34566Y-94033D01*
X34510Y-94145D01*
X34454Y-94201D01*
X34341Y-94258D01*
X34172Y-94258D01*
X35241Y-94258D02*
X35128Y-94201D01*
X35072Y-94089D01*
X35072Y-93077D01*
X36141Y-94201D02*
X36028Y-94258D01*
X35803Y-94258D01*
X35691Y-94201D01*
X35635Y-94089D01*
X35635Y-93639D01*
X35691Y-93526D01*
X35803Y-93470D01*
X36028Y-93470D01*
X36141Y-93526D01*
X36197Y-93639D01*
X36197Y-93751D01*
X35635Y-93864D01*
X36647Y-94201D02*
X36759Y-94258D01*
X36984Y-94258D01*
X37097Y-94201D01*
X37153Y-94089D01*
X37153Y-94033D01*
X37097Y-93920D01*
X36984Y-93864D01*
X36816Y-93864D01*
X36703Y-93808D01*
X36647Y-93695D01*
X36647Y-93639D01*
X36703Y-93526D01*
X36816Y-93470D01*
X36984Y-93470D01*
X37097Y-93526D01*
X37547Y-94708D02*
X37603Y-94651D01*
X37716Y-94483D01*
X37772Y-94370D01*
X37828Y-94201D01*
X37884Y-93920D01*
X37884Y-93695D01*
X37828Y-93414D01*
X37772Y-93245D01*
X37716Y-93133D01*
X37603Y-92964D01*
X37547Y-92908D01*
X11155Y-94882D02*
X12069Y-95795D01*
X12069Y-94882D02*
X11155Y-95795D01*
G54D12*
X11612Y-95795D02*
X12069Y-95339D01*
X11612Y-94882D01*
X11155Y-95339D01*
X11612Y-95795D01*
X12069Y-95339D02*
G75*
G03X12069Y-95339I-456J0D01*
G74*
G01*
G54D13*
X13081Y-94748D02*
X13137Y-94692D01*
X13250Y-94636D01*
X13531Y-94636D01*
X13644Y-94692D01*
X13700Y-94748D01*
X13756Y-94861D01*
X13756Y-94973D01*
X13700Y-95142D01*
X13025Y-95817D01*
X13756Y-95817D01*
X14262Y-95704D02*
X14319Y-95760D01*
X14262Y-95817D01*
X14206Y-95760D01*
X14262Y-95704D01*
X14262Y-95817D01*
X14712Y-94636D02*
X15443Y-94636D01*
X15050Y-95086D01*
X15218Y-95086D01*
X15331Y-95142D01*
X15387Y-95198D01*
X15443Y-95311D01*
X15443Y-95592D01*
X15387Y-95704D01*
X15331Y-95760D01*
X15218Y-95817D01*
X14881Y-95817D01*
X14768Y-95760D01*
X14712Y-95704D01*
X15893Y-94748D02*
X15950Y-94692D01*
X16062Y-94636D01*
X16343Y-94636D01*
X16456Y-94692D01*
X16512Y-94748D01*
X16568Y-94861D01*
X16568Y-94973D01*
X16512Y-95142D01*
X15837Y-95817D01*
X16568Y-95817D01*
X17074Y-95817D02*
X17074Y-95029D01*
X17074Y-95142D02*
X17131Y-95086D01*
X17243Y-95029D01*
X17412Y-95029D01*
X17524Y-95086D01*
X17581Y-95198D01*
X17581Y-95817D01*
X17581Y-95198D02*
X17637Y-95086D01*
X17749Y-95029D01*
X17918Y-95029D01*
X18031Y-95086D01*
X18087Y-95198D01*
X18087Y-95817D01*
X18649Y-95817D02*
X18649Y-95029D01*
X18649Y-95142D02*
X18705Y-95086D01*
X18818Y-95029D01*
X18987Y-95029D01*
X19099Y-95086D01*
X19155Y-95198D01*
X19155Y-95817D01*
X19155Y-95198D02*
X19212Y-95086D01*
X19324Y-95029D01*
X19493Y-95029D01*
X19605Y-95086D01*
X19662Y-95198D01*
X19662Y-95817D01*
X21968Y-94579D02*
X20955Y-96098D01*
X23486Y-94636D02*
X23599Y-94636D01*
X23711Y-94692D01*
X23767Y-94748D01*
X23824Y-94861D01*
X23880Y-95086D01*
X23880Y-95367D01*
X23824Y-95592D01*
X23767Y-95704D01*
X23711Y-95760D01*
X23599Y-95817D01*
X23486Y-95817D01*
X23374Y-95760D01*
X23317Y-95704D01*
X23261Y-95592D01*
X23205Y-95367D01*
X23205Y-95086D01*
X23261Y-94861D01*
X23317Y-94748D01*
X23374Y-94692D01*
X23486Y-94636D01*
X24386Y-95704D02*
X24442Y-95760D01*
X24386Y-95817D01*
X24330Y-95760D01*
X24386Y-95704D01*
X24386Y-95817D01*
X25173Y-94636D02*
X25286Y-94636D01*
X25398Y-94692D01*
X25455Y-94748D01*
X25511Y-94861D01*
X25567Y-95086D01*
X25567Y-95367D01*
X25511Y-95592D01*
X25455Y-95704D01*
X25398Y-95760D01*
X25286Y-95817D01*
X25173Y-95817D01*
X25061Y-95760D01*
X25005Y-95704D01*
X24948Y-95592D01*
X24892Y-95367D01*
X24892Y-95086D01*
X24948Y-94861D01*
X25005Y-94748D01*
X25061Y-94692D01*
X25173Y-94636D01*
X26130Y-95817D02*
X26355Y-95817D01*
X26467Y-95760D01*
X26523Y-95704D01*
X26636Y-95535D01*
X26692Y-95311D01*
X26692Y-94861D01*
X26636Y-94748D01*
X26579Y-94692D01*
X26467Y-94636D01*
X26242Y-94636D01*
X26130Y-94692D01*
X26073Y-94748D01*
X26017Y-94861D01*
X26017Y-95142D01*
X26073Y-95254D01*
X26130Y-95311D01*
X26242Y-95367D01*
X26467Y-95367D01*
X26579Y-95311D01*
X26636Y-95254D01*
X26692Y-95142D01*
X27817Y-95817D02*
X27142Y-95817D01*
X27479Y-95817D02*
X27479Y-94636D01*
X27367Y-94804D01*
X27254Y-94917D01*
X27142Y-94973D01*
X28267Y-94636D02*
X28267Y-94861D01*
X28717Y-94636D02*
X28717Y-94861D01*
X30460Y-96267D02*
X30404Y-96210D01*
X30292Y-96042D01*
X30235Y-95929D01*
X30179Y-95760D01*
X30123Y-95479D01*
X30123Y-95254D01*
X30179Y-94973D01*
X30235Y-94804D01*
X30292Y-94692D01*
X30404Y-94523D01*
X30460Y-94467D01*
X31079Y-95142D02*
X30966Y-95086D01*
X30910Y-95029D01*
X30854Y-94917D01*
X30854Y-94861D01*
X30910Y-94748D01*
X30966Y-94692D01*
X31079Y-94636D01*
X31304Y-94636D01*
X31416Y-94692D01*
X31473Y-94748D01*
X31529Y-94861D01*
X31529Y-94917D01*
X31473Y-95029D01*
X31416Y-95086D01*
X31304Y-95142D01*
X31079Y-95142D01*
X30966Y-95198D01*
X30910Y-95254D01*
X30854Y-95367D01*
X30854Y-95592D01*
X30910Y-95704D01*
X30966Y-95760D01*
X31079Y-95817D01*
X31304Y-95817D01*
X31416Y-95760D01*
X31473Y-95704D01*
X31529Y-95592D01*
X31529Y-95367D01*
X31473Y-95254D01*
X31416Y-95198D01*
X31304Y-95142D01*
X32935Y-95817D02*
X32935Y-94636D01*
X33441Y-95817D02*
X33441Y-95198D01*
X33385Y-95086D01*
X33272Y-95029D01*
X33104Y-95029D01*
X32991Y-95086D01*
X32935Y-95142D01*
X34172Y-95817D02*
X34060Y-95760D01*
X34004Y-95704D01*
X33947Y-95592D01*
X33947Y-95254D01*
X34004Y-95142D01*
X34060Y-95086D01*
X34172Y-95029D01*
X34341Y-95029D01*
X34454Y-95086D01*
X34510Y-95142D01*
X34566Y-95254D01*
X34566Y-95592D01*
X34510Y-95704D01*
X34454Y-95760D01*
X34341Y-95817D01*
X34172Y-95817D01*
X35241Y-95817D02*
X35128Y-95760D01*
X35072Y-95648D01*
X35072Y-94636D01*
X36141Y-95760D02*
X36028Y-95817D01*
X35803Y-95817D01*
X35691Y-95760D01*
X35635Y-95648D01*
X35635Y-95198D01*
X35691Y-95086D01*
X35803Y-95029D01*
X36028Y-95029D01*
X36141Y-95086D01*
X36197Y-95198D01*
X36197Y-95311D01*
X35635Y-95423D01*
X36647Y-95760D02*
X36759Y-95817D01*
X36984Y-95817D01*
X37097Y-95760D01*
X37153Y-95648D01*
X37153Y-95592D01*
X37097Y-95479D01*
X36984Y-95423D01*
X36816Y-95423D01*
X36703Y-95367D01*
X36647Y-95254D01*
X36647Y-95198D01*
X36703Y-95086D01*
X36816Y-95029D01*
X36984Y-95029D01*
X37097Y-95086D01*
X37547Y-96267D02*
X37603Y-96210D01*
X37716Y-96042D01*
X37772Y-95929D01*
X37828Y-95760D01*
X37884Y-95479D01*
X37884Y-95254D01*
X37828Y-94973D01*
X37772Y-94804D01*
X37716Y-94692D01*
X37603Y-94523D01*
X37547Y-94467D01*
M02*
